<svg width="24" height="24" viewBox="0 0 24 24" fill="none" xmlns="http://www.w3.org/2000/svg">
<path d="M11.0002 5.99998C11.0002 5.86098 11.0002 5.79098 11.0082 5.73298C11.0338 5.55001 11.1183 5.38037 11.2489 5.24973C11.3796 5.1191 11.5492 5.03458 11.7322 5.00898C11.7912 5.00098 11.8602 5.00098 11.9992 5.00098C12.1382 5.00098 12.2092 5.00098 12.2662 5.00898C12.4492 5.03458 12.6188 5.1191 12.7494 5.24973C12.8801 5.38037 12.9646 5.55001 12.9902 5.73298C12.9982 5.79098 12.9982 5.86098 12.9982 5.99998C12.9982 6.13898 12.9982 6.20898 12.9902 6.26698C12.9646 6.44994 12.8801 6.61958 12.7494 6.75022C12.6188 6.88086 12.4492 6.96537 12.2662 6.99098C12.2082 6.99898 12.1382 6.99898 11.9992 6.99898C11.8602 6.99898 11.7902 6.99898 11.7322 6.99098C11.5492 6.96537 11.3796 6.88086 11.2489 6.75022C11.1183 6.61958 11.0338 6.44994 11.0082 6.26698C11.0002 6.20898 11.0002 6.13898 11.0002 5.99998ZM11.0002 12C11.0002 11.861 11.0002 11.791 11.0082 11.733C11.0338 11.55 11.1183 11.3804 11.2489 11.2497C11.3796 11.1191 11.5492 11.0346 11.7322 11.009C11.7912 11.001 11.8602 11.001 11.9992 11.001C12.1382 11.001 12.2092 11.001 12.2662 11.009C12.4492 11.0346 12.6188 11.1191 12.7494 11.2497C12.8801 11.3804 12.9646 11.55 12.9902 11.733C12.9982 11.791 12.9982 11.861 12.9982 12C12.9982 12.139 12.9982 12.209 12.9902 12.267C12.9646 12.4499 12.8801 12.6196 12.7494 12.7502C12.6188 12.8809 12.4492 12.9654 12.2662 12.991C12.2082 12.999 12.1382 12.999 11.9992 12.999C11.8602 12.999 11.7902 12.999 11.7322 12.991C11.5492 12.9654 11.3796 12.8809 11.2489 12.7502C11.1183 12.6196 11.0338 12.4499 11.0082 12.267C11.0002 12.209 11.0002 12.139 11.0002 12ZM11.0002 17.7C10.9922 17.758 10.9922 17.828 10.9922 17.967C10.9922 18.106 10.9922 18.176 11.0002 18.234C11.0258 18.4169 11.1103 18.5866 11.2409 18.7172C11.3716 18.8479 11.5412 18.9324 11.7242 18.958C11.7822 18.966 11.8522 18.966 11.9912 18.966C12.1302 18.966 12.2002 18.966 12.2582 18.958C12.4412 18.9324 12.6108 18.8479 12.7414 18.7172C12.8721 18.5866 12.9566 18.4169 12.9822 18.234C12.9902 18.176 12.9902 18.106 12.9902 17.967C12.9902 17.828 12.9902 17.758 12.9822 17.7C12.9566 17.517 12.8721 17.3474 12.7414 17.2167C12.6108 17.0861 12.4412 17.0016 12.2582 16.976C12.2002 16.968 12.1302 16.968 11.9912 16.968C11.8522 16.968 11.7822 16.968 11.7242 16.976C11.5412 17.0016 11.3716 17.0861 11.2409 17.2167C11.1103 17.3474 11.0258 17.517 11.0002 17.7Z" fill="#121212"/>
</svg>
