<svg width="126" height="126" viewBox="0 0 126 126" fill="none" xmlns="http://www.w3.org/2000/svg">
<path d="M125.161 71.8327C124.426 80.0977 122.007 85.4507 118.463 92.176C110.957 107.357 92.0337 121.882 74.8085 124.511C70.9321 125.248 66.9672 125.615 63 125.607C53.8788 125.605 44.7353 123.549 36.59 119.711C35.991 119.43 35.6612 119.204 35.3918 119.07C32.8435 117.85 28.7447 115.443 26.4942 113.764C21.5851 110.454 14.3972 102.995 11.5286 98.3967C10.2405 96.5006 9.05546 94.4653 8.74132 93.6226C8.33667 92.8915 8.01439 92.5465 7.9051 92.3573C7.90404 92.3551 7.90296 92.3528 7.9019 92.3506C7.54577 91.7434 6.82877 90.111 6.66185 89.7581C6.63674 89.7051 6.70718 90.0714 6.32896 89.1981C6.29628 89.1198 6.38082 89.1671 6.05275 88.4365C5.95549 88.2512 4.82965 85.8191 4.56779 85.0951C3.5775 82.7383 1.98447 76.8402 1.53542 73.8241C1.45556 73.3646 1.37643 73.105 1.29973 72.6167C1.26004 72.3646 1.24367 71.9842 1.2326 71.9068C1.17804 71.5709 0.820264 70.1037 1.23014 70.596C1.02807 69.0469 0.973463 69.5132 0.893111 69.4867C0.712152 67.8027 0.838385 66.9724 0.638155 66.5386C0.575355 65.3608 0.545496 64.1871 0.548381 63C0.562712 55.8234 1.81156 48.6601 4.25476 41.9162C4.22906 41.9043 4.20336 41.8924 4.17767 41.8806C5.12884 39.6049 5.30115 38.7653 6.01709 37.541C6.33828 36.735 6.67502 35.9384 7.03084 35.1441C16.9499 15.1098 38.1066 1.27536 60.2561 0.533889C61.1831 0.498794 61.4146 0.5426 62.9534 0.535157C62.9688 0.535149 62.9844 0.535142 63 0.535134C64.6961 0.52993 67.0556 0.551481 69.2534 0.775619C71.2109 0.959629 74.0591 1.44955 76.1878 1.92812C76.67 2.03374 77.0257 2.07736 77.0798 2.08992C77.3975 2.16502 77.3996 2.22738 77.7063 2.30277C78.0738 2.39334 78.5242 2.46039 78.9492 2.57522C80.5326 2.99651 82.2275 3.52743 82.4256 3.59537C83.3718 3.91293 83.557 4.04691 83.6345 4.07331C84.6747 4.44988 84.3005 4.26308 84.5594 4.35976C85.9013 4.87704 86.7858 5.36266 88.6296 6.04634C88.5608 6.06925 88.4919 6.09227 88.4232 6.1154C89.7739 6.75967 88.9288 6.23219 89.2171 6.33776C89.3415 6.3634 92.2276 7.81646 92.4344 7.95423C93.1929 8.37263 93.18 8.44584 93.2453 8.48194C93.4075 8.56624 95.3335 9.58687 96.2439 10.2428C97.3212 11.0099 95.9397 10.2859 96.2027 10.4837C96.2491 10.5137 97.4124 11.2533 97.5403 11.3941C97.6858 11.5433 96.6942 10.8857 96.6978 10.9136C96.7065 10.9256 98.2927 12.1035 97.9425 11.9447C97.6648 11.8124 95.4677 10.2904 94.9576 10.0351C94.8752 9.99098 94.986 10.1478 94.9139 10.1075C94.6636 9.87917 89.2268 6.99306 88.945 6.93175C89.2502 7.0346 89.5545 7.13977 89.8585 7.24755C89.4762 7.05913 89.092 6.87471 88.7055 6.69406C89.269 6.9209 89.8275 7.15521 90.3863 7.3996C89.7088 6.72343 87.0911 5.88248 86.9312 5.98541C86.8625 6.02594 88.3147 6.83598 86.8614 6.32236C87.0697 6.42868 87.2781 6.53655 87.4853 6.64532C87.9377 6.81153 88.388 6.98302 88.8361 7.15976C88.553 7.00903 88.2683 6.86039 87.9822 6.71385C88.0983 6.74355 88.2144 6.77358 88.3303 6.80398C89.1648 7.14549 89.9914 7.50517 90.8125 7.88431C91.2197 8.1077 91.1065 8.11678 91.3841 8.27321C94.8066 10.2887 92.629 8.87873 94.8616 10.2111C95.1628 10.4304 95.4626 10.6527 95.7595 10.8772C95.7181 10.6976 96.6532 11.3725 97.8333 12.1145C97.6719 12.0553 97.5102 11.9967 97.3487 11.9391C99.0613 13.0169 102.121 15.7288 101.402 14.8633C101.75 15.1672 102.095 15.4746 102.436 15.7862C102.76 16.0069 103.082 16.2308 103.402 16.4579C103.806 16.8152 104.206 17.1775 104.601 17.5451C104.588 17.5621 104.576 17.5791 104.564 17.596C104.247 17.3058 103.927 17.019 103.604 16.7355C103.805 16.9959 104.003 17.2574 104.199 17.5202C104.44 17.7248 104.68 17.9314 104.918 18.1398C103.985 17.1937 105.338 18.3088 105.699 18.5481C106.531 19.3051 106.953 19.8972 107.211 20.1699C107.338 20.2914 108.898 21.6885 108.188 21.2321C108.934 22.0014 109.66 22.79 110.366 23.5982C110.622 23.931 110.874 24.2656 111.123 24.6031C110.482 23.9548 112.025 26.0849 110.789 24.5958C109.857 23.4941 109.687 23.1705 109.238 22.6521C108.83 22.1873 108.567 21.9849 108.11 21.4915C105.023 18.191 102.248 15.7443 98.7898 13.1993C98.1047 12.6991 97.4493 12.2876 96.9784 11.9685C96.4451 11.6093 97.1606 11.9884 96.4649 11.5541C95.7314 11.1018 95.5377 11.0602 95.3447 10.9402C95.2246 10.8661 94.8721 10.5813 94.5186 10.3696C93.0711 9.48422 90.8408 8.38329 90.6232 8.28144C90.4008 8.11557 86.0509 6.09409 85.8237 6.04287C85.7123 5.99436 86.0259 5.88723 84.9578 5.71267C84.6482 5.59835 84.3368 5.48628 84.0255 5.37705C84.0898 5.35596 84.1546 5.3351 84.2194 5.31433C82.3256 4.80579 82.9933 4.93948 81.1909 4.37554C76.894 3.0084 70.2945 1.79499 65.3625 1.68829C64.4059 1.65749 63.9624 1.68744 63 1.69722C62.857 1.69904 62.7026 1.70077 62.5336 1.70249C61.32 1.69008 58.1596 1.73036 58.8582 1.89945C56.1624 1.9197 55.7626 2.31442 54.4067 2.29628C54.2494 2.3467 54.0926 2.39771 53.9362 2.44931C52.4716 2.55267 52.04 2.73361 50.4837 3.06363C49.8115 3.21371 50.5579 2.91572 49.2334 3.35859C48.9726 3.40764 48.7124 3.45835 48.4526 3.51072C48.5051 3.46603 48.5577 3.4214 48.6104 3.37683C47.1219 3.76777 47.0207 3.79491 47.2212 3.85785C46.4955 4.02913 45.7742 4.21343 45.0576 4.41051C44.9805 4.47393 44.9036 4.53749 44.827 4.60119C45.0629 4.26014 58.4546 1.38277 63 1.79579C63.5075 1.79102 63.8962 1.79271 64.135 1.79346C66.8897 1.86377 72.4106 2.37651 74.594 2.87867C75.4638 3.05738 75.839 3.2177 77.0975 3.52104C78.3516 3.8227 79.9504 4.18975 80.6093 4.38843C82.9009 4.82719 92.8592 9.27594 86.0225 6.41949C86.2035 6.53856 86.3837 6.65846 86.5628 6.77918C89.3147 7.82015 88.3073 7.46503 90.4908 8.54974C91.409 9.0043 93.5845 10.1183 93.3669 10.2222C91.7027 9.3004 89.9302 8.32852 88.4259 7.64234C88.2796 7.56871 86.4534 6.85227 85.5262 6.46738C84.6887 6.11887 85.3392 6.15594 83.4117 5.6704C82.0953 4.99198 81.2164 4.91685 80.8441 4.82124C80.1948 4.65907 80.1525 4.54407 79.5102 4.34985C78.8097 4.14004 78.304 4.07902 78.2073 4.05427C77.2563 3.74583 72.1285 2.77592 71.8892 2.75376C72.0986 2.76675 72.3074 2.78072 72.5188 2.79621C71.1838 2.56486 71.4498 2.71336 71.096 2.67555C70.8336 2.64029 70.5706 2.60671 70.3072 2.57481C70.4141 2.56659 70.521 2.55864 70.628 2.55096C69.0375 2.37248 70.2405 2.56133 67.9888 2.35463C66.5521 2.23301 65.0679 2.10539 64.9282 2.10788C64.8869 2.10834 65.338 2.17598 64.7514 2.16528C64.2564 2.15684 63.5756 2.14867 63 2.14062C62.4463 2.13224 61.9942 2.1219 61.901 2.08766C61.424 2.10716 61.4669 2.17904 61.4036 2.18198C61.126 2.15253 56.3907 2.49007 55.5431 2.64974C53.2109 2.94382 50.6082 3.39905 48.136 4.03575C47.8822 4.10113 48.0331 4.01537 47.7787 4.08207C47.3634 4.18042 45.2956 4.84486 44.9931 4.95454C44.218 5.19616 42.2015 5.86746 41.8973 6.01177C41.8538 6.03094 42.5326 5.84637 41.7709 6.14867C40.9282 6.48962 41.3564 6.23939 41.3097 6.25566C39.5733 6.89374 38.5269 7.42198 37.388 7.96138C37.0195 8.13617 36.3114 8.40611 35.8034 8.68282C35.7449 8.7145 35.8887 8.70731 35.8316 8.73912C35.0661 9.15646 34.2986 9.44633 33.9636 9.62144C33.1448 10.0521 33.6251 9.87938 33.5829 9.90278C33.0462 10.2035 32.3129 10.5892 31.5165 11.0778C27.9743 13.2754 25.229 15.315 21.9473 18.2923C21.5366 18.6675 21.02 19.0831 20.9586 19.1424C20.7695 19.3257 20.8671 19.3185 20.324 19.8509C19.1824 20.9768 18.1677 22.0658 17.1262 23.2638C16.9168 23.5052 16.7819 23.5694 16.623 23.7547C16.0747 24.3668 14.4872 26.6613 14.311 26.5872C13.4824 27.9928 12.7491 28.7948 12.0344 29.8899C10.3128 32.4692 8.07378 36.7831 6.9007 39.6411C6.64721 40.2384 6.48828 40.5035 6.35321 40.8395C6.08112 41.4338 4.90788 44.9522 4.86875 45.1446C4.74819 45.5049 4.57624 45.2158 4.24223 47.1617C3.96052 48.28 3.9131 48.1235 3.84911 48.3536C3.36357 50.146 3.2467 51.9632 3.12257 51.5953C2.77362 53.7317 2.71396 55.1268 2.43559 55.9843C2.52282 55.9836 2.45304 56.9975 2.32664 58.2108C2.29705 56.9556 2.14125 57.088 2.57714 54.0835C2.58447 54.0363 2.63278 54.1353 2.6401 54.0882C2.70527 53.6643 2.81629 52.7582 2.95275 52.0332C3.09008 51.3074 3.05752 51.7186 3.11154 51.4283C3.16207 51.163 3.10148 51.1602 3.17797 50.7769C3.42924 49.5261 3.67975 48.4292 3.85895 47.7303C3.97218 47.2869 4.15655 46.8074 4.25242 46.467C4.60626 45.1483 5.46962 42.3801 6.12661 40.7633C6.26123 40.4265 6.25686 40.5881 6.55995 39.8565C6.59624 39.7709 6.66476 39.4367 6.92916 38.7917C7.19396 38.1477 7.4454 37.67 7.62769 37.2631C7.7814 36.9234 7.66301 37.0406 7.99232 36.3495C8.1726 35.7192 11.8156 29.4745 12.1286 29.2093C12.4518 28.7473 12.6675 28.5692 12.8554 28.2812C12.8883 28.2303 12.8862 28.1039 13.0026 27.9289C14.8329 24.9702 20.0304 19.2775 23.1075 16.7805C29.3802 11.3992 36.1321 7.50779 44.0609 4.87649C44.1988 4.81812 44.3369 4.76023 44.4754 4.70281C43.6683 4.95857 42.8683 5.23062 42.076 5.51857C42.0591 5.48784 42.0422 5.45709 42.0253 5.42637C40.9481 5.81769 41.1223 5.84734 41.1694 5.88042C40.7668 6.0119 40.3657 6.14751 39.9663 6.28723C39.6711 6.52345 37.0505 7.56642 35.7567 8.23325C34.9083 8.65373 33.9417 9.22446 33.5036 9.46403C32.5798 9.96947 32.5702 9.89739 32.497 9.93633C32.3726 10.0032 31.1379 10.8014 30.2441 11.3725C28.9278 12.2199 28.7119 12.21 27.0243 13.5406C24.7642 15.1097 22.4361 17.0936 20.3219 19.1711C20.6491 18.6976 18.8221 20.6325 18.0218 21.5236C12.9946 26.8385 8.14451 34.5741 5.58042 41.5476C5.24164 42.4399 4.95081 43.0989 4.78409 43.6051C4.69421 43.8795 4.72447 44.0217 4.59329 44.4005C4.57112 44.4667 4.48645 44.494 4.25983 45.2019C3.64824 46.9601 2.74962 51.4968 2.46688 52.6335C1.89586 56.0568 1.61738 59.5275 1.62873 63C1.63824 65.8846 1.84512 68.7444 2.25417 71.5963C2.24844 71.7576 2.24335 71.9189 2.23887 72.0802C2.51593 73.264 3.36316 77.9436 4.07267 80.1686C5.19199 84.1067 7.27048 88.9129 9.00421 92.045C9.37458 92.7288 9.65264 93.3052 10.0249 93.9406C10.1852 94.214 10.4321 94.525 10.6036 94.8061C12.502 97.9823 15.4928 102.029 18.0597 104.742C23.8432 110.926 30.4615 115.687 38.3111 119.166C46.0746 122.589 54.5511 124.335 63 124.317C83.4452 124.466 103.366 113.499 114.357 96.4507C114.567 96.1291 114.607 96.1778 114.768 95.927C115.743 94.4593 117.613 91.0047 118.437 89.196C119.128 87.7754 120.162 85.4811 120.26 84.9349C118.126 90.1309 115.252 95.3662 111.68 99.9829C111.426 100.311 111.348 100.316 111.316 100.356C110.718 101.086 111.155 100.671 110.296 101.737C110.034 102.12 107.078 105.137 107.537 104.878C106.863 105.643 101.591 110.44 100.447 111.217C100.122 111.479 100.388 111.34 100.325 111.393C100.046 111.623 99.8714 111.662 99.613 111.854C98.9323 112.373 97.1758 113.672 96.8252 113.894C96.0392 114.437 93.5702 115.883 92.4649 116.488C91.4574 117.053 91.6852 117.018 90.8005 117.484C90.0988 117.842 90.841 117.41 89.2511 118.16C88.4719 118.544 85.6878 119.788 84.9886 120.036C84.2958 120.303 83.5086 120.544 82.5433 120.874C81.1551 121.37 78.0825 122.264 76.6225 122.59C76.5356 122.611 76.3362 122.718 76.1201 122.764C75.6723 122.859 75.791 122.756 75.4514 122.819C75.1305 122.95 69.2248 123.867 68.2095 123.871C67.5147 123.929 67.035 124.004 66.6481 124.027C66.3448 124.044 66.3068 123.983 65.9999 123.998C65.905 124.003 65.0979 124.096 64.2829 124.11C64.0313 124.115 63.5489 124.117 63 124.11C61.8692 124.098 60.479 124.022 60.2534 124.009C60.0338 123.999 60.2748 124.056 59.6232 124.021C59.0282 123.988 58.6433 123.902 58.3066 123.876C57.5248 123.815 56.653 123.781 55.8214 123.684C53.4454 123.388 53.5876 123.301 53.4434 123.284C53.0505 123.215 52.8825 123.253 52.7531 123.232C52.2053 123.15 50.8797 122.91 50.3966 122.807C49.7946 122.683 49.5544 122.566 48.9215 122.418C48.4504 122.307 47.4853 122.134 46.4163 121.836C44.0132 121.176 41.1993 120.191 38.9523 119.217C38.2799 118.927 38.2021 118.826 37.9987 118.734C36.9323 118.245 36.3181 118.01 36.016 117.861C33.8552 116.83 30.2303 114.571 28.4326 113.28C27.6767 112.788 24.4773 110.468 22.8267 108.965C22.6356 108.796 22.8442 108.92 22.6269 108.738C22.1087 108.3 22.096 108.408 21.8425 108.175C21.7207 108.061 21.4755 107.768 21.127 107.433C19.322 105.69 18.1327 104.438 17.3714 103.583C10.0328 95.3716 5.05942 84.9129 3.1405 74.832C2.92207 73.7143 2.62271 72.3159 2.46178 70.5993C2.4832 70.5431 2.50471 70.4869 2.52628 70.4308C2.49148 70.3742 2.45676 70.3174 2.42211 70.2606C2.18824 68.3139 2.09298 67.5839 2.03282 65.5844C2.02816 65.4126 2.13796 64.886 1.97055 64.5653C2.02156 63.2042 2.00308 63.2891 1.97011 63C1.95655 62.8678 1.94206 62.6569 1.94435 62.1948C1.95282 60.7226 2.05804 59.3001 2.18388 57.8801C2.29416 57.1052 2.194 60.3867 2.20787 60.5917C2.19403 60.9331 2.10378 61.2866 2.09222 61.6175C2.07457 62.1158 2.08347 62.6078 2.08873 63C2.0937 63.3787 2.09466 63.6628 2.06112 63.7715C2.15706 65.0383 2.09288 63.4605 2.16451 63.6181C2.14499 64.465 2.14276 65.3086 2.1576 66.1496C2.36245 66.5749 2.52197 71.2372 2.69041 70.8941C2.70331 71.2662 2.71958 71.6378 2.7392 72.009C3.20458 73.5894 3.20693 74.5432 3.62094 76.6868C3.61322 76.5277 3.60612 76.3686 3.59965 76.2095C3.61402 76.2532 4.10304 78.1022 3.82705 77.4658C4.45883 79.3271 4.19109 79.3234 4.87659 80.9519C5.21616 81.941 4.90529 81.3821 5.5135 83.1534C5.879 84.1976 6.42722 85.4708 6.91198 86.6066C7.02364 86.8691 7.01432 87.0089 7.11555 87.2424C7.21718 87.4758 7.3242 87.5643 7.45119 87.8445C7.71307 88.4238 8.0245 89.1861 8.20292 89.5418C8.36238 89.8609 8.6345 90.2948 9.03738 91.051C10.4754 93.6753 10.0015 92.9064 10.204 93.3353C10.4349 93.79 10.7047 94.0538 11.2252 94.9232C11.2777 95.0104 11.0841 94.8206 11.2606 95.1005C11.4042 95.3255 11.5311 95.4046 12.0217 96.1375C12.1682 96.4615 15.3756 100.875 15.9545 101.475C16.7492 102.469 18.5965 104.624 19.532 105.555C19.8875 105.918 20.3117 106.261 20.6985 106.636C21.9729 107.889 24.1171 109.788 25.9179 111.165C27.5139 112.436 30.4373 114.525 31.4661 114.991C33.9303 116.45 34.5305 116.814 34.7152 116.925C35.2319 117.199 35.5014 117.267 36.1636 117.592C43.6757 121.406 54.3546 123.95 63 123.818C64.1709 123.818 65.2906 123.785 66.3622 123.726C87.401 122.762 107.381 109.762 116.989 90.9809C116.99 90.9179 116.991 90.8549 116.991 90.792C115.844 92.9935 114.295 95.4718 112.887 97.4729C111.053 100.176 107.972 103.95 106.125 105.494C106.798 104.796 107.922 103.68 107.827 103.632C106.657 104.912 105.432 106.141 104.158 107.316C104.227 107.315 104.296 107.313 104.365 107.311C103.048 108.559 101.629 109.757 100.196 110.88C99.9467 111.074 100.149 110.97 99.9311 111.139C99.6864 111.326 99.8267 111.166 99.7806 111.2C99.1606 111.672 98.9948 111.843 98.9183 111.899C98.7204 112.042 98.8507 111.899 98.274 112.301C97.2023 113.042 96.4791 113.641 96.6347 113.323C96.2858 113.557 95.9343 113.787 95.5803 114.013C95.5151 114.113 95.4495 114.213 95.3836 114.313C93.0877 115.517 92.1952 116.375 90.801 116.797C90.4021 117.051 89.9994 117.3 89.593 117.546C89.3318 117.619 89.0714 117.689 88.8107 117.758C88.7819 117.818 88.753 117.878 88.724 117.939C86.4097 118.994 83.9032 120.027 81.583 120.764C79.9645 121.27 79.572 121.361 78.1172 121.747C74.879 122.536 78.0842 121.704 75.3591 122.216C75.511 122.237 75.6632 122.258 75.8155 122.278C75.3686 122.393 74.9232 122.503 74.4763 122.608C74.1546 122.626 73.8328 122.643 73.5107 122.656C72.1454 123.116 71.2086 123.055 71.0182 123.081C70.8652 123.098 70.3461 123.317 68.6645 123.366C69.3732 123.484 67.391 123.48 67.2318 123.482C67.0803 123.498 65.1627 123.643 64.3811 123.65C64.0601 123.657 63.5481 123.654 63 123.644C62.4983 123.635 61.9697 123.619 61.5325 123.61C60.7254 123.59 60.8058 123.65 60.7468 123.65C59.7548 123.614 60.3807 123.594 59.6618 123.556C58.9411 123.514 58.3813 123.523 58.2267 123.506C58.1491 123.497 58.4135 123.461 58.058 123.428C57.1083 123.341 55.3692 123.201 54.2862 123.038C53.9027 122.983 53.4233 122.86 52.995 122.787C52.3389 122.675 52.0225 122.681 51.6433 122.608C51.5112 122.582 50.69 122.328 49.6453 122.108C49.448 122.067 48.8147 122.139 48.1221 121.657C48.053 121.683 47.9838 121.709 47.9145 121.734C44.4227 120.915 43.6092 120.21 42.0134 119.964C39.594 119.009 41.3061 119.534 41.0449 119.417C40.877 119.341 40.0814 119.056 39.9969 119.018C39.8464 118.952 39.8869 118.928 39.7208 118.859C36.6856 117.554 38.0077 118.19 37.036 117.797C34.7448 116.801 33.1308 115.697 36.9698 117.7C36.9788 117.681 36.9878 117.662 36.9969 117.643C36.017 117.219 33.639 115.934 34.4855 116.264C35.1147 116.597 40.912 119.297 37.6654 117.689C36.9354 117.317 36.5096 117.209 35.3138 116.428C34.4873 115.984 34.2739 116.092 33.2004 115.398C33.3494 115.56 33.4995 115.721 33.6509 115.882C32.0796 115.115 30.3142 113.872 29.1897 113.151C28.8031 112.913 27.2787 112.22 27.7767 112.182C27.1257 111.776 24.326 109.505 23.8161 109.071C23.6945 108.966 23.3992 108.986 21.7193 107.361C21.6151 107.235 21.5114 107.109 21.4083 106.982C23.0039 108.396 20.3104 105.768 21.1647 106.355C21.3587 106.651 22.5657 107.831 22.7482 108.034C23.0539 108.389 21.9633 107.533 23.3005 108.683C24.3091 109.213 21.8525 107.206 22.3915 107.335C20.6232 105.856 20.5619 105.586 20.1947 105.218C18.6523 103.614 17.6994 102.584 16.3887 100.943C16.0074 100.591 18.4141 103.543 18.7759 103.853C17.4657 102.695 19.4722 104.922 20.4598 105.722C20.4953 105.837 20.5312 105.951 20.5675 106.066C19.4151 104.887 18.3291 103.703 17.2273 102.499C17.1738 102.405 17.1205 102.31 17.0674 102.216C17.3291 102.474 17.5929 102.729 17.8588 102.981C17.0085 101.927 17.4057 102.654 16.3614 101.176C16.2771 101.173 16.1927 101.169 16.1083 101.166C15.0292 99.8083 14.009 98.4056 13.0505 96.9612C12.4151 96.3025 10.7072 93.4265 11.1733 93.8627C10.5012 92.6996 11.265 94.1755 10.5958 93.1064C10.3046 92.6409 9.78242 91.6998 9.69896 91.4454C9.88596 91.4739 10.6778 92.8687 11.019 93.2285C10.8005 93.0129 7.41268 86.3952 7.92737 86.8898C7.71388 86.3361 7.72927 86.6256 7.30005 85.6468C6.06553 82.9016 4.91011 78.3941 4.19835 76.0829C4.70799 78.8786 5.09327 79.6561 5.75528 81.7258C6.03362 83.1044 9.50424 90.8429 8.60324 89.1752C8.75787 89.4476 8.91448 89.7185 9.07304 89.9879C9.17036 90.2918 9.27018 90.5951 9.37249 90.8977C8.95522 90.1126 8.5534 89.3142 8.17186 88.5123C8.12661 88.2991 8.08258 88.0858 8.03973 87.8724C7.96744 87.7978 7.89529 87.7229 7.82327 87.6477C7.66389 87.3084 7.50753 86.9674 7.35425 86.6246C7.43427 86.7052 7.51444 86.7855 7.59479 86.8654C7.3723 86.3313 7.15968 85.7993 6.95336 85.2608C6.95835 85.4257 6.96405 85.5907 6.97045 85.7559C5.96 83.2295 6.33565 84.0688 5.92901 82.6173C5.58164 81.5467 6.07151 83.3911 5.30851 81.1296C4.49195 78.4855 5.11617 80.1889 4.21402 76.7258C4.17499 76.6819 4.136 76.638 4.09706 76.5939C3.94762 75.8185 3.81298 75.0374 3.69506 74.261C3.68004 74.3697 3.66532 74.4785 3.65089 74.5873C3.34323 72.9895 2.97329 70.771 3.05245 70.2179C3.191 71.8648 3.44161 71.8086 3.42182 71.3816C3.3982 70.9118 2.86363 66.9692 2.87634 63C2.84856 59.5634 3.21088 56.1502 3.37184 54.9879C3.80276 51.7849 4.39095 49.4151 5.07164 46.5411C4.31716 48.4177 3.13413 55.3663 3.03468 56.7052C3.01555 56.8366 2.79651 56.7782 2.96549 57.6455C2.79794 59.2629 2.7203 61.0702 2.73497 63C2.74497 64.3271 2.79703 65.6757 2.88726 67.073C2.81732 66.9727 2.74762 66.8721 2.67817 66.7711C2.67836 64.9673 2.47754 63.2851 2.57152 63C2.58733 62.9524 2.61153 62.9455 2.64702 62.9855C2.64711 62.564 2.65153 62.1436 2.66023 61.7243C2.618 61.7234 2.57578 61.7225 2.53355 61.7217C2.5467 61.088 2.56953 60.4578 2.60208 59.8279C2.64426 59.83 2.68644 59.8322 2.72862 59.8344C2.75575 59.3093 2.7896 58.786 2.83008 58.2645C2.79231 58.2069 2.75462 58.1493 2.71701 58.0915C2.86244 56.5345 3.47675 51.2066 3.35738 53.5737C3.4718 52.8439 3.5993 52.1184 3.73963 51.3975C3.70886 51.394 3.67808 51.3905 3.64731 51.3869C3.70363 51.0757 3.7622 50.7658 3.82393 50.4531C3.82968 50.5613 3.83571 50.6694 3.84203 50.7775C4.0858 49.3376 4.56086 48.0492 4.71961 47.1009C4.53372 47.7035 4.35809 48.3061 4.19173 48.9121C4.49706 47.7518 5.03415 45.5854 5.09834 45.3997C5.27434 44.8219 5.43138 44.532 5.64049 43.9102C5.8313 43.3489 5.76146 43.4114 5.79852 43.3072C6.92349 40.3129 6.76329 41.5603 7.02428 40.0581C7.12341 39.9271 7.22297 39.7967 7.32296 39.6669C7.37204 39.4594 7.42309 39.25 7.4749 39.0418C7.85321 38.1746 8.25025 37.32 8.66835 36.4727C8.48247 36.7333 8.29916 36.9942 8.11751 37.2574C8.70212 35.9644 9.11 35.4266 9.17263 35.3056C9.35617 34.9634 9.38128 34.776 9.43731 34.6696C12.2682 29.6318 10.593 32.7113 12.3065 30.3893C12.7836 29.477 12.1355 30.292 11.9738 30.3631C12.7566 29.24 12.9724 28.8703 13.815 27.6963C14.0355 27.3918 14.318 27.0983 14.4601 26.909C14.5826 26.7446 14.9239 26.1973 15.2278 25.8085C15.7325 25.1595 16.4466 24.3305 17.1817 23.4789C17.782 22.7626 19.6867 20.6195 21.1433 19.249C21.7612 18.6612 21.6518 18.834 21.8123 18.6833C21.879 18.6208 22.3284 18.1276 22.7374 17.7642C26.0675 14.7924 29.839 12.1596 33.7626 9.99324C36.5241 8.4649 39.4366 7.09196 42.4191 6.02052C43.0527 5.7947 42.7314 5.95424 43.0088 5.8579C43.1047 5.82641 43.1927 5.71068 44.1925 5.41211C44.5543 5.30581 44.1577 5.48769 44.5109 5.37646C44.683 5.3243 44.7364 5.23255 45.7385 4.91675C47.5674 4.35012 48.5952 4.20875 48.7578 4.16323C49.0693 4.08365 48.9654 4.05336 49.381 3.95518C51.4187 3.48047 53.137 3.17239 54.9792 2.92158C55.8392 2.72495 61.8214 2.32248 62.1569 2.39788C62.8512 2.41058 62.2884 2.51283 63 2.51938C63.0467 2.51997 63.099 2.52023 63.1574 2.52014C63.4231 2.49287 63.6888 2.4673 63.9545 2.44345C63.6371 2.42254 63.319 2.40406 63 2.38806C62.8958 2.38282 62.7916 2.37786 62.6875 2.37315C62.7905 2.37578 62.8948 2.37798 63 2.37987C64.0828 2.39798 65.2424 2.39239 66.0195 2.43343C66.1777 2.43815 67.6369 2.57505 68.3744 2.6397C68.0584 2.63276 67.742 2.62824 67.4253 2.62616C67.5355 2.65187 67.6456 2.67787 67.7555 2.70417C69.2306 2.7912 70.804 2.9725 72.3009 3.20816C72.8451 3.29493 72.6546 3.30758 73.2032 3.40082C76.374 3.99795 75.6346 3.65833 78.5628 4.73712C77.5657 4.4037 73.8131 3.65525 73.2623 3.5803C72.8831 3.50188 71.4363 2.99846 71.9391 3.36817C68.8733 2.95658 71.5616 3.1215 68.6752 2.84637C68.7294 2.88709 68.7834 2.92789 68.8374 2.96875C67.833 2.89531 67.0868 2.86391 66.4749 2.76593C66.3186 2.87534 64.6583 2.77076 63 2.7607C62.2598 2.75392 61.5298 2.76165 60.9501 2.78487C58.2328 2.88581 55.1796 3.24528 52.5309 3.72396C51.6185 3.88733 51.0936 3.92854 50.9795 3.95106C50.8139 3.98472 50.3553 4.14041 50.0242 4.21411C48.7801 4.45321 45.0361 5.39324 44.1832 5.88108C50.2427 3.88383 56.6136 2.87538 63 2.87772C64.1599 2.87779 65.3053 2.91025 66.4558 2.97538C65.5261 2.75314 73.1053 3.50853 73.4774 3.70162C73.8294 3.76756 73.5227 3.77079 73.6269 3.79277C74.402 3.95534 75.0752 4.00977 75.3237 4.06152C75.512 4.10109 75.8846 4.21696 76.5492 4.36861C76.6711 4.39659 76.7142 4.36474 76.8451 4.39536C77.7095 4.59886 78.5608 4.81978 79.4209 5.06279C79.4732 5.07795 79.6735 5.19669 79.8893 5.25992C80.1058 5.32307 80.3364 5.33019 80.391 5.34647C81.0722 5.54906 82.2288 5.96683 82.8663 6.19323C83.0882 6.27112 82.9489 6.17568 83.1972 6.26419C83.9581 6.54007 83.6803 6.52625 84.6251 6.86219C84.941 6.97699 84.9455 6.90647 85.5395 7.15422C85.9595 7.33122 85.869 7.42121 85.9342 7.45238C86.0239 7.49005 87.5081 8.02526 87.9412 8.31363C86.8383 8.03099 89.05 8.83524 88.982 8.7188C89.5349 9.00758 90.0835 9.30516 90.6259 9.61046C90.8242 9.68906 91.022 9.76873 91.2195 9.84948C93.3856 11.1265 94.7266 11.8711 96.7598 13.2744C96.8635 13.3357 98.5325 14.579 98.4311 14.5518C97.398 13.8576 96.37 13.1649 95.7553 12.6507C94.553 12.099 94.6213 11.9475 92.7814 10.9037C92.1619 10.5599 92.0921 10.5819 92.021 10.5423C89.6196 9.19247 85.5791 7.43946 83.8745 6.68994C83.3737 6.54272 85.119 7.21992 84.4285 6.98831C84.1093 6.68379 74.9217 4.14486 77.895 4.80176C77.5879 4.72819 77.2799 4.65698 76.9711 4.58816C76.6287 4.66292 75.0998 4.29435 75.305 4.17994C75.1515 4.18091 74.9993 4.18272 74.8473 4.18515C74.5541 4.15436 74.2106 4.10193 73.7287 4.02349C72.4379 3.75484 66.598 2.98792 63 3.06271C61.472 3.06021 60.3714 3.11748 60.1965 3.13109C60.1849 3.16901 60.1733 3.20694 60.1617 3.24488C61.1063 3.20897 62.0507 3.19006 63 3.19053C66.9296 3.19678 70.8744 3.51008 75.0814 4.45682C74.9365 4.3913 74.792 4.3265 74.6466 4.26212C76.7344 4.7237 78.794 5.2974 80.8097 5.97774C78.6476 5.34682 75.1439 4.56123 72.8194 4.14589C72.4052 4.06857 72.7178 4.07026 72.6232 4.04881C72.3752 3.99421 72.0933 4.03046 71.1978 3.91393C70.302 3.78583 68.0377 3.50319 67.83 3.49763C67.4302 3.46698 66.332 3.49066 65.653 3.4623C64.7571 3.42453 65.3598 3.38876 65.18 3.38041C64.4346 3.34775 63.7623 3.36711 63.1739 3.36098C63.1195 3.36042 63.0613 3.35953 63 3.35844C62.0773 3.33611 60.4514 3.30405 59.8935 3.48314C60.511 3.45853 61.1293 3.44337 61.7504 3.43766C58.3988 3.5754 55.7423 3.63958 52.4999 4.35751C51.7932 4.67153 54.4781 4.17753 52.2192 4.65458C52.6301 4.57643 53.0425 4.50251 53.4564 4.43287C53.5472 4.37836 53.6384 4.32406 53.7298 4.26996C54.4482 4.18592 55.1633 4.11562 55.8846 4.05772C55.6758 4.04738 55.4669 4.03813 55.258 4.02996C57.799 3.66324 60.391 3.51278 61.2843 3.68095C61.3356 3.63394 61.387 3.587 61.4386 3.54013C61.9235 3.53885 62.459 3.53221 63 3.52882C65.1122 3.50749 67.2615 3.58516 66.7208 3.75044C66.8342 3.744 66.9475 3.73788 67.0609 3.73207C68.4903 3.88856 67.8857 3.74148 68.4245 3.7747C68.5756 3.76939 71.3521 4.14972 70.1115 4.07828C72.7991 4.48498 71.9996 4.16022 72.7468 4.26083C74.4545 4.63659 77.5484 5.18621 76.2212 5.07006C76.4729 5.13441 76.724 5.20035 76.9743 5.26789C77.8352 5.32573 78.6144 5.70109 79.484 6.00936C79.7834 6.09924 80.0818 6.19141 80.3791 6.28585C80.5929 6.29997 80.8082 6.3157 81.0236 6.33266C83.7474 7.479 83.0713 6.59794 84.1514 7.56493C83.9441 7.52013 83.7365 7.47646 83.5288 7.43393C83.0581 7.27621 82.5878 7.12532 82.1137 6.97975C83.9979 7.63734 85.8517 8.39243 87.6615 9.23962C89.889 10.4477 91.2489 10.9689 93.6016 12.5156C93.8341 12.6401 94.0659 12.7663 94.2968 12.894C94.0033 12.8561 93.1516 12.2973 94.7296 13.3553C94.8203 13.5132 93.7334 12.8365 93.2648 12.4833C93.1524 12.3967 94.2131 12.9586 93.0596 12.2627C92.2674 11.8023 93.6656 12.7073 91.2934 11.3271C91.3725 11.3944 91.4514 11.462 91.53 11.5297C91.2704 11.3847 91.0094 11.2416 90.7483 11.1011C90.5387 10.9336 90.3275 10.7674 90.1148 10.6023C89.4771 10.3553 89.0958 10.2584 87.7022 9.58306C88.096 9.73381 87.6222 9.39981 86.9175 9.0883C86.9033 9.12043 86.889 9.15256 86.8747 9.18468C85.1577 8.46395 85.7905 8.62118 84.3238 8.12269C84.1897 8.04054 84.0551 7.95887 83.92 7.87767C83.0959 7.66181 80.1324 6.77368 80.7183 6.78877C79.8417 6.68061 78.1081 6.11691 77.4779 5.82668C77.4187 5.84776 77.3597 5.86894 77.3007 5.8902C76.949 5.80971 76.5962 5.73239 76.2423 5.65826C76.0505 5.59248 75.858 5.52763 75.665 5.46373C75.4096 5.42938 75.1538 5.39669 74.8978 5.36567C74.7533 5.30024 74.6094 5.23555 74.4645 5.17128C74.0527 5.13292 73.6403 5.09885 73.2274 5.06909C72.984 4.99804 72.7397 4.92848 72.4946 4.86044C72.4532 4.91652 69.9917 4.57992 69.295 4.47332C69.0848 4.47233 68.8766 4.47268 68.6688 4.47414C68.5715 4.42988 68.4739 4.38586 68.3761 4.34208C68.2198 4.35589 68.0635 4.3703 67.9073 4.38533C67.555 4.32831 67.2013 4.27439 66.8462 4.22362C65.3772 4.30633 65.3482 4.16942 65.014 4.15585C64.6456 4.14357 63.7424 4.16065 63 4.19189C62.5048 4.21161 62.085 4.23432 61.9447 4.23461C61.5946 4.23551 61.4243 4.17884 61.142 4.18159C56.4841 4.31301 58.4101 4.41823 57.4833 4.50245C56.9871 4.5632 56.6236 4.54426 56.1813 4.60139C55.4189 4.66444 51.643 5.36325 51.4345 5.42765C51.1173 5.48126 51.808 5.0642 50.7941 5.3441C50.7864 5.48372 48.5745 5.84586 49.6385 5.80537C48.7397 5.99632 47.8437 6.20893 46.952 6.44306C47.0978 6.58065 45.9804 6.77566 44.8049 7.17028C43.1277 7.68743 39.5317 9.28822 39.6002 9.09076C39.231 9.29531 38.8647 9.5035 38.5015 9.71529C35.8741 10.8652 33.4338 12.281 31.0514 13.8341C23.9535 18.4109 17.3927 25.0929 12.9864 32.2659C12.7733 32.61 12.7548 32.5307 12.6033 32.7793C11.7818 34.0722 9.95274 37.6128 9.1189 39.5878C8.84126 40.2175 8.66442 40.5044 8.57885 40.705C8.29184 41.3864 8.42734 41.2527 8.30002 41.5684C8.08441 42.0621 7.06456 44.7124 6.78705 45.6566C6.64099 46.118 6.53509 46.6839 6.36581 47.226C6.35131 47.2727 6.31723 47.1695 6.30512 47.2091C6.02464 48.2072 6.23966 47.6193 6.14608 47.9573C5.49011 50.361 4.96687 52.9924 4.62261 55.6749C4.53448 56.3426 4.38672 57.3654 4.33577 57.9387C4.31646 58.1581 4.39259 57.7678 4.32944 58.5266C4.30884 58.7867 4.24296 58.8717 4.21988 59.1664C4.12647 60.4435 4.30519 60.8605 4.12755 61.9513C4.12353 62.2686 4.12233 62.6218 4.12533 63C4.12793 65.1362 4.35299 68.0141 4.54868 69.6341C4.60016 70.0865 4.59215 70.3105 4.64864 70.7398C4.68877 71.0447 4.81695 71.5704 4.89092 72.0427C4.96487 72.5176 5.03501 73.275 5.21073 74.1785C5.39179 75.1271 5.69206 76.3046 5.74309 76.5149C5.80367 76.7717 5.76868 76.9067 5.83255 77.1627C6.01648 77.9394 6.65399 79.9855 6.98427 80.9588C7.33007 82.0104 7.5261 82.6433 7.65405 82.9982C7.77306 83.3258 7.96892 83.6907 8.02612 83.8395C8.11535 84.0716 8.07578 84.1498 8.1912 84.444C8.38097 84.9244 8.61604 85.4012 8.92081 86.1121C14.4076 98.9289 24.3859 109.415 36.4787 115.559C37.8325 116.238 38.6153 116.575 40.6637 117.451C41.4965 117.798 41.1192 117.719 41.7792 117.963C42.0743 118.07 42.0187 117.993 42.391 118.131C44.0302 118.74 45.9706 119.389 46.7 119.592C46.9896 119.675 47.3365 119.712 47.9341 119.87C52.3773 121.059 57.795 121.828 62.7547 121.816C62.8352 121.816 62.917 121.816 63 121.816C65.6271 121.829 69.437 121.526 72.3087 121.044C80.529 119.784 88.9674 116.351 95.2603 112.136C104.819 105.847 112.398 96.7509 116.974 86.3034C114.781 91.1711 110.948 97.3968 106.955 101.796C96.3787 113.941 79.6461 121.824 63 121.662C61.9231 121.663 60.8587 121.634 59.7974 121.577C53.6872 121.306 46.0632 119.646 39.9473 116.926C39.6688 116.806 39.0733 116.597 38.4801 116.318C38.3516 116.263 36.8306 115.443 36.3176 115.171C36.7378 115.558 34.778 114.391 34.1697 114.035C33.3954 113.604 31.7542 112.73 30.0596 111.523C28.528 110.42 28.9969 110.661 28.9116 110.601C28.3847 110.193 28.1443 110.128 27.7297 109.828C25.8747 108.793 18.1513 101.273 16.5332 98.7122C16.0628 98.0967 16.0997 98.0415 15.9952 97.9023C15.7203 97.5322 15.286 97.0353 14.8633 96.4269C14.0978 95.3319 13.3231 94.0052 12.944 93.3758C12.018 91.8888 10.3762 88.9786 9.46325 86.8863C9.20211 86.2993 9.27574 86.3101 9.16023 86.0433C8.63472 84.88 7.40205 81.7831 6.95761 80.2527C6.19791 77.7891 5.62447 75.1877 5.17973 72.6069C5.17948 72.4381 5.17997 72.2693 5.18117 72.1005C5.11225 71.8441 5.04581 71.5924 4.98059 71.337C4.60272 68.5878 4.38695 65.8001 4.37203 63C4.36308 61.3141 4.426 59.6515 4.56707 57.9978C4.59514 57.4945 4.93593 54.9921 5.00933 54.5837C5.05898 54.2402 5.04308 53.8899 5.13715 53.379C5.27257 52.6657 5.27873 53.3584 5.45341 52.1892C5.50278 51.8754 5.38966 52.1673 5.49518 51.538C5.49577 51.3221 6.42647 47.3287 6.52501 47.1242C6.6304 46.7718 6.83576 46.4911 6.86495 46.4013C7.01758 45.9345 6.92585 45.9286 7.01501 45.6111C7.27781 44.6683 7.7556 43.486 7.80892 43.3378C8.41197 41.5194 9.7587 38.1945 10.7344 36.4301C10.8663 36.185 10.9112 36.2457 10.9354 36.2033C11.0922 35.9303 11.1152 35.7216 11.2544 35.4564C11.9969 34.0227 13.3391 31.8797 14.2582 30.5458C14.3626 30.3915 14.5525 30.0438 14.745 29.7715C15.8437 28.2392 15.5475 28.7806 15.6091 28.6927C15.7632 28.4913 15.9723 28.0924 16.3787 27.5516C17.4078 26.1463 19.5866 23.6127 20.9044 22.2902C21.8837 21.2923 21.9303 21.3699 21.9946 21.3047C22.1364 21.1699 22.481 20.7438 23.15 20.1117C24.4454 18.9045 24.3441 19.0946 24.8897 18.6141C24.9367 18.5749 24.8157 18.5976 25.4299 18.0728C26.6032 17.0415 29.4464 14.9873 30.853 14.0897C31.389 13.7372 31.4855 13.6094 32.0426 13.2588C32.9204 12.6921 34.9982 11.588 35.166 11.5078C35.2117 11.4832 35.2835 11.3713 35.5534 11.2277C35.8504 11.0699 36.1592 10.9467 36.3823 10.8324C37.6478 10.167 39.8523 9.07217 39.3205 9.5584C39.7149 9.32193 40.1152 9.08877 40.5148 8.86182C43.2841 7.72393 46.0426 6.7947 48.9223 6.07182C49.5685 5.91022 50.1214 5.82871 50.6723 5.7084C51.2215 5.57366 53.647 5.0621 54.0657 5.01061C54.7875 4.85632 58.9809 4.41939 59.5108 4.43207C60.5368 4.38052 61.5244 4.44989 61.9424 4.42474C62.2766 4.40495 61.9658 4.35483 62.6055 4.33393C62.7284 4.33024 62.861 4.32803 63 4.32724C64.1165 4.31583 65.6244 4.42846 65.9209 4.44511C66.0635 4.45423 65.7981 4.38848 67.1464 4.47316C67.872 4.52276 68.2548 4.60487 68.5162 4.62855C68.5986 4.63905 68.4783 4.53988 69.9124 4.71111C70.8995 4.83547 71.3075 4.95732 71.4105 4.97113C71.5647 4.99396 71.9449 4.98625 72.5673 5.0901C74.0201 5.31864 76.6297 5.94995 77.9683 6.32302C78.2283 6.39458 78.1613 6.29315 79.1943 6.59211C79.9311 6.81055 79.7846 6.83103 80.0589 6.91561C80.4907 7.0511 81.1671 7.18449 82.1186 7.51409C83.3977 7.74188 91.8964 11.8027 92.2225 12.2238C92.4997 12.3983 92.8259 12.5921 92.9485 12.7024C92.8138 12.6574 92.6789 12.6129 92.544 12.5689C91.3541 11.756 91.7932 12.1552 91.4583 11.9734C90.974 11.7039 89.1404 10.727 88.6705 10.5379C88.505 10.4689 88.8456 10.7026 87.9649 10.3174C87.019 9.90983 86.643 9.62251 86.2035 9.60198C84.9288 8.85711 83.5487 8.52662 85.1001 9.20071C86.0434 9.42041 94.2241 13.766 95.6718 15.015C96.9407 15.8724 99.2619 17.5622 100.678 18.8074C101.529 19.5171 103.508 21.3938 103.359 21.3812C104.053 22.0745 103.369 21.2886 103.525 21.4243C103.865 21.6936 105.949 23.946 106.32 24.3916C108.244 26.5079 110.506 29.3462 111.904 31.7546C111.816 31.6577 111.727 31.5613 111.637 31.4652C111.281 30.955 109.662 28.553 109.366 28.3674C111.897 31.7506 114.058 35.4106 115.792 39.2625C115.893 39.1312 117.841 44.009 117.825 44.275C117.753 44.2023 117.681 44.1298 117.609 44.0577C116.765 41.2163 116.626 41.5551 115.957 39.6813C115.629 38.9409 115.661 39.195 115.483 38.8387C113.637 35.3323 115.621 38.7006 114.186 36.0233C114.519 36.8801 113.328 34.6994 112.739 33.7567C112.629 33.5292 110.871 30.7055 110.625 30.3946C109.384 28.5525 106.963 25.6078 105.495 23.9653C104.32 22.6864 103.589 22.0637 102.435 20.9947C101.551 20.1908 101.836 20.3866 101.419 20.0087C100.537 19.2225 100.134 19.1007 99.6967 18.4432C99.0609 17.9554 98.4151 17.481 97.76 17.0202C97.7812 16.9922 97.8024 16.9642 97.8237 16.9362C97.4219 16.6319 97.0173 16.3338 96.6081 16.0404C96.4673 15.9826 96.3264 15.9253 96.1854 15.8687C94.9033 14.9179 95.4946 15.2313 95.3047 14.9793C95.0219 14.7805 94.7373 14.5841 94.4508 14.3901C94.1845 14.3086 93.9181 14.2291 93.6515 14.1517C92.3517 13.327 91.0185 12.5541 89.6583 11.8369C89.5863 11.7598 89.5141 11.6828 89.4415 11.606C89.4226 11.6356 89.4036 11.6653 89.3847 11.695C87.0632 10.5067 84.6655 9.47869 82.2056 8.61759C81.5426 8.41643 85.4281 9.92977 85.7004 10.0934C87.3312 10.7512 91.4782 12.8865 91.4045 13.03C92.4099 13.4659 95.1756 15.2501 95.9322 15.9481C94.6682 15.0534 93.3685 14.2101 92.0374 13.421C92.0593 13.4824 92.0811 13.5438 92.1028 13.6053C90.5228 12.4941 90.2621 12.3613 88.4247 11.6109C88.448 11.5598 88.4713 11.5087 88.4946 11.4576C87.1799 11.0061 85.0648 9.73988 84.9045 9.94356C84.2335 9.64506 83.5552 9.35892 82.8699 9.08547C81.3525 8.61916 83.6759 9.42283 77.7412 7.6122C77.3278 7.49852 77.4295 7.45974 76.8055 7.3082C76.6258 7.26959 75.5731 7.07883 73.5836 6.69322C73.2725 6.63408 73.2585 6.57734 72.9351 6.51354C72.1867 6.36074 70.674 6.25239 71.3782 6.18049C68.398 5.73139 69.6128 6.04903 68.681 5.99887C68.0606 5.97693 68.194 5.88741 67.6556 5.8657C66.9898 5.85263 67.4656 5.94643 64.8095 5.79141C65.1085 5.79372 65.407 5.79833 65.705 5.80521C65.5566 5.77045 65.4077 5.73626 65.2585 5.70263C63.7355 5.71883 63.8778 5.63539 63.156 5.78482C63.1037 5.7814 63.0517 5.7782 63 5.7752C61.9497 5.7167 61.0153 5.72835 59.5744 5.82266C56.6386 6.06903 58.1631 6.07362 54.805 6.26944C54.2745 6.37752 53.7382 6.4943 53.2085 6.61797C52.3178 6.70903 53.0118 6.49151 51.6998 6.72798C52.7553 6.68255 49.9819 7.18511 49.5609 7.45777C49.5044 7.43524 49.4478 7.41279 49.3911 7.39042C49.1021 7.4609 48.8158 7.53306 48.5266 7.60841C48.5329 7.63592 48.5391 7.66344 48.5453 7.69096C48.1559 7.7706 47.7677 7.85425 47.3807 7.94186C47.1016 8.04994 46.8238 8.16006 46.5474 8.27222C46.0637 8.35585 45.5769 8.44704 45.0919 8.54437C44.7977 8.63681 44.5045 8.73159 44.2123 8.82865C44.3181 8.8364 44.4239 8.84445 44.5295 8.85279C44.151 8.96701 43.7741 9.0851 43.3986 9.20701C43.8543 9.11798 43.6074 9.28059 42.4579 9.71749C41.5154 10.0898 42.5156 9.51638 40.5256 10.4109C40.3903 10.4805 40.1674 10.6544 38.3172 11.5483C36.1103 12.6578 37.156 12.0669 36.7606 12.2608C36.683 12.3002 36.0394 12.6931 35.4248 13.0428C35.0758 13.2404 34.7202 13.3959 34.6742 13.4224C34.4605 13.5473 34.4275 13.6341 34.1334 13.8091C33.3871 14.2516 32.3789 14.846 31.6705 15.3184C31.3476 15.5323 31.066 15.7652 30.9233 15.8631C30.702 16.0143 30.392 16.1643 30.1704 16.3209C29.3477 16.8955 28.2482 17.9537 27.7332 18.0508C27.1107 18.8134 25.4034 19.913 25.6163 19.9357C23.5434 21.4953 19.0782 26.7107 19.0688 26.4407C18.3096 27.7042 18.2787 27.5087 17.9023 27.9909C17.4877 28.5337 17.7368 28.2788 17.4074 28.7099C16.6428 29.7181 15.9304 30.6996 15.2388 31.7523C15.318 31.5677 15.3983 31.3834 15.4797 31.1994C14.7399 32.2988 15.0543 31.9593 14.3514 33.113C13.0956 35.2542 13.5879 34.3305 13.3196 34.5995C13.4305 34.5509 12.0198 37.1179 11.8929 37.3892C11.8098 37.5469 12.0444 36.7908 11.2924 38.4252C11.3663 38.3516 11.4402 38.2785 11.5144 38.2053C11.1053 38.9133 10.268 40.9782 10.1251 41.3229C10.0545 41.4786 9.44206 42.2357 9.35688 43.113C9.28842 43.1969 9.21993 43.2816 9.15205 43.3654C8.86923 44.2638 8.60802 45.1711 8.36969 46.0843C8.26513 46.2088 8.16097 46.334 8.05722 46.4599C7.97112 46.7464 7.88719 47.0338 7.80547 47.3221C7.9136 47.146 8.02255 46.971 8.13229 46.7969C7.57451 48.5601 7.17156 50.7758 6.91302 51.1133C6.86506 51.5107 6.8226 51.9019 6.78353 52.2968C6.674 52.5375 6.56597 52.7797 6.45948 53.0233C6.16955 54.8433 6.22075 54.8739 6.12864 56.1278C6.08573 56.0733 6.0429 56.0187 6.00015 55.964C5.95142 56.8981 5.85465 58.574 5.79696 59.9156C5.76445 60.5475 5.66565 61.6326 5.67053 61.784C5.67217 61.8796 5.76784 62.5074 5.78994 63C5.80239 63.2902 5.78767 63.5328 5.70303 63.5939C5.83542 65.7853 5.8174 66.7476 5.88508 67.6361C5.934 68.2118 6.01209 68.4649 6.08548 69.114C6.1915 70.0443 6.29208 70.9762 6.37552 71.5059C6.4232 71.8083 6.48586 71.8587 6.52068 72.0682C6.69218 73.0582 6.53757 72.488 6.72872 73.5282C6.74744 73.6252 6.95116 74.3667 7.1296 75.2228C7.22466 75.7012 7.44772 76.9417 7.4779 77.0483C7.6042 77.5236 7.63239 77.1097 7.92112 78.7792C7.93466 78.7245 7.94827 78.6697 7.96197 78.6151C8.60804 80.5923 8.6223 80.9377 8.74246 81.3414C8.75867 81.3929 8.96856 81.8576 9.06429 82.1451C9.22521 82.6312 9.23647 82.848 9.27319 82.9562C9.40086 83.338 9.91576 84.5854 10.2057 85.42C10.2939 85.1867 11.6142 87.9635 11.7539 88.6637C12.0372 89.1344 12.3268 89.6 12.6225 90.0605C12.7084 90.2941 12.7966 90.5288 12.8861 90.7624C12.9899 90.8771 13.094 90.9913 13.1985 91.1049C13.5238 91.8366 13.8634 92.5601 14.221 93.281C14.3136 93.2834 14.406 93.2856 14.4984 93.2877C14.6093 93.4814 14.7213 93.6745 14.8345 93.8669C14.8769 94.0466 14.9203 94.2263 14.9647 94.406C15.1277 94.6335 15.2923 94.8596 15.4585 95.0844C15.5341 95.1169 15.6097 95.1492 15.6853 95.1813C16.5867 96.3776 15.7691 96.0246 17.7961 98.0795C18.0413 98.452 18.2909 98.8219 18.545 99.189C18.9933 99.4712 19.518 100.258 20.0359 100.815C20.401 101.206 20.4306 101.14 20.9231 101.677C21.4185 102.211 21.3563 102.234 21.3944 102.276C21.8 102.711 22.1541 102.991 22.4531 103.308C22.4985 103.356 22.5586 103.528 22.9523 103.921C23.3475 104.313 23.6444 104.488 24.2412 105.061C24.5481 105.354 24.5956 105.484 24.8725 105.74C26.1962 106.962 27.8044 107.829 28.6483 108.944C28.9165 109.095 30.8037 110.239 31.5879 110.752C32.8041 111.563 32.293 111.318 32.7776 111.641C32.8486 111.685 33.2361 111.908 34.2933 112.53C34.483 112.641 34.4605 112.578 34.4881 112.594C35.7205 113.323 38.178 114.624 39.6161 115.258C39.7447 115.315 40.4616 115.512 41.5523 116.128C43.2997 116.728 46.517 118.094 48.9398 118.496C49.2669 118.575 49.655 118.713 49.801 118.746C51.0633 119.011 50.6172 118.828 53.4485 119.529C53.2255 119.422 53.9128 119.484 54.8589 119.624C56.2886 119.826 55.2544 119.816 56.4128 119.946C56.4168 119.912 56.4207 119.877 56.4247 119.842C59.0744 120.212 59.6248 120.096 62.303 120.155C62.5182 120.157 62.7566 120.163 63 120.169C63.8514 120.191 64.7542 120.211 64.9328 120.205C65.0235 120.204 66.067 120.074 66.1709 120.065C66.7395 120.031 67.0622 120.047 67.5507 120.01C69.1592 119.892 71.0674 119.515 70.7451 119.759C71.1815 119.658 71.6106 119.552 72.0467 119.44C73.7491 119.385 74.9157 118.826 75.3057 118.954C75.5911 118.848 75.875 118.739 76.1574 118.629C83.1761 117.002 89.8781 114.014 95.7983 109.887C96.0084 109.686 98.5356 107.817 98.6557 107.708C99.2609 107.278 98.7494 107.892 99.8945 106.897C99.9819 106.741 100.068 106.584 100.154 106.427C101.573 105.165 100.924 105.81 101.512 105.342C101.738 105.125 101.631 105.157 101.939 104.866C103.642 103.318 106.835 99.8368 108.328 97.8112C108.635 97.4082 108.625 97.4961 108.72 97.3705C108.981 97.0243 109.441 96.3036 109.937 95.5903C113.08 91.2294 116.436 84.3242 117.919 79.1139C118.025 78.7625 118.09 78.7336 118.16 78.4954C118.257 78.1658 118.413 77.4084 118.504 77.0608C118.591 76.7324 118.684 76.5308 118.772 76.1771C119.184 74.555 119.524 72.3356 119.873 70.5831C119.91 70.4405 120.341 68.5899 120.352 68.551C120.457 68.3076 120.454 69.997 120.81 67.2581C120.7 69.7215 121.019 68.997 121.299 65.7661C121.248 67.3925 121.131 69.0029 120.945 70.6201C120.968 70.6254 120.99 70.6307 121.013 70.636C121.313 69.1801 121.509 67.7229 121.619 65.4668C121.637 65.5377 121.655 65.6087 121.674 65.6797C121.699 67.6825 121.466 70.0824 121.382 71.608C121.812 69.4137 122.118 67.1794 122.298 64.9383C122.311 65.051 122.324 65.1637 122.337 65.2764C122.353 66.3524 122.197 68.7121 122.127 69.6078C121.891 73.0403 122.558 66.6313 122.52 67.6893C122.235 71.3115 121.621 74.9066 120.681 78.4153C121.087 78.6459 123.304 64.8017 123.135 64.9017C123.114 66.0458 123.059 67.2058 122.973 68.3505C123.071 67.8451 123.163 67.3365 123.249 66.8248C123.257 66.9677 123.264 67.1107 123.271 67.2536C123.178 69.1982 122.99 71.1461 122.708 73.0803C123.6 67.193 123.495 64.4394 123.954 63C123.965 63.1631 123.975 63.3261 123.985 63.489C123.775 64.787 123.479 70.8755 122.856 74.0728C123.07 73.4374 123.429 70.6016 123.526 70.0025C123.559 69.8334 123.544 70.4347 123.617 70.0424C123.853 69.0229 124.19 64.5983 124.23 65.2451C124.369 65.6639 123.76 72.8033 123.384 74.1699C124.078 70.9623 124.448 67.5889 124.637 64.2982C124.748 66.3755 124.906 68.2546 124.385 72.0498C124.397 73.2395 125.347 65.1619 125.273 64.9711C125.282 66.3697 125.243 67.7951 125.158 69.1959C125.26 68.0139 125.33 66.812 125.365 65.6247C125.383 65.622 125.401 65.6192 125.418 65.6165C125.363 68.7112 125.217 71.5504 124.536 75.0471C124.656 74.9573 125.028 72.8519 125.161 71.8327ZM106.217 25.0877C106.203 25.1867 105.422 24.2852 104.961 23.7956C105.02 23.879 105.078 23.9625 105.137 24.0461C104.188 22.9713 102.284 21.0965 102.104 21.1466C101.343 20.4667 101.761 20.6782 101.527 20.4448C101.437 20.3521 100.395 19.519 99.6291 18.7698C99.4334 18.608 99.237 18.4477 99.0393 18.2886C98.9702 18.296 98.9013 18.3035 98.8324 18.3111C98.5945 18.0437 98.3537 17.7781 98.11 17.5144C101.044 19.7693 103.762 22.3081 106.213 25.0835C106.214 25.0849 106.215 25.0863 106.217 25.0877ZM74.9137 6.81168C73.607 6.49657 71.5697 6.13409 71.9611 6.33323C72.8046 6.45832 73.6421 6.60179 74.4734 6.76322C74.619 6.77856 74.767 6.79496 74.9137 6.81168ZM14.0315 93.2136C14.5157 94.2417 15.1712 95.0554 16.1637 96.4891C16.1851 96.471 16.2065 96.4528 16.2279 96.4347C15.7533 95.8976 14.7274 94.3164 14.0315 93.2136ZM120.447 54.9967C120.471 55.2456 120.493 55.4948 120.514 55.7443C120.234 54.7541 120.316 54.5685 120.117 53.4301C120.105 53.3618 120.075 53.3912 120.071 53.3674C120.022 53.0902 120.018 52.8269 119.972 52.5771C119.882 52.0947 119.77 51.7153 119.591 50.8635C119.451 50.2066 119.511 50.1868 119.457 49.9569C119.416 49.7586 118.772 47.871 118.476 46.6262C118.046 44.2097 120.59 54.2072 120.447 54.9967ZM120.865 62.211C120.861 61.9693 120.856 61.728 120.849 61.487C120.966 62.2094 120.926 60.7475 120.858 59.6754C120.966 59.7082 121.021 61.9709 121.037 63C120.981 62.7358 120.924 62.4728 120.865 62.211ZM112.825 33.1393C113.317 33.9465 113.128 33.8741 113.079 33.8577C112.927 33.5983 112.774 33.3402 112.619 33.0834C112.687 33.1019 112.756 33.1205 112.825 33.1393ZM116.143 39.43C115.955 39.1902 115.057 37.3474 114.596 36.4903C114.576 36.4528 114.741 36.6684 114.419 36.0607C114.33 35.8735 113.202 34.1775 113.58 34.4772C114.513 36.0846 115.368 37.7376 116.142 39.4274C116.142 39.4283 116.143 39.4291 116.143 39.43ZM116.906 41.3595C116.738 41.0102 116.567 40.664 116.392 40.3184C116.349 40.1192 116.305 39.9201 116.26 39.7211C116.446 40.1213 116.627 40.5236 116.804 40.9267C116.838 41.0708 116.873 41.2151 116.906 41.3595ZM99.7005 108.149C99.6045 108.174 99.5084 108.198 99.4124 108.222C99.1306 108.426 97.895 109.604 98.342 109.304C98.8011 108.926 99.254 108.54 99.7005 108.149ZM105.037 103.35C105.297 103.109 105.555 102.866 105.811 102.62C106.037 102.273 106.258 101.925 106.475 101.575C105.273 102.867 103.903 104.147 104.264 104.08C103.978 104.366 103.69 104.65 103.399 104.931C103.583 104.631 103.535 104.649 102.73 105.334C102.644 105.579 101.805 106.283 100.873 107.116C101.568 106.529 102.249 105.925 102.915 105.305C102.93 105.32 102.944 105.336 102.959 105.351C101.463 106.726 103.421 105.121 104.29 104.114C104.383 104.06 104.476 104.005 104.57 103.95C104.727 103.751 104.883 103.551 105.037 103.35ZM5.36702 54.6562C5.31048 54.9016 5.25546 55.1479 5.20199 55.3948C5.35396 56.3958 5.32894 54.3969 5.79389 53.0354C5.54584 53.4659 5.93921 51.3489 5.9628 51.2291C5.85851 51.4604 5.75576 51.692 5.6543 51.9253C5.53743 52.8311 5.44042 53.7495 5.36702 54.6562ZM4.59713 61.7588C4.66926 61.3656 4.68222 62.0224 4.69948 63C4.71604 64.1944 4.7739 65.8297 4.8105 66.6272C4.82373 66.9783 4.79454 67.6073 4.82553 67.8583C4.86585 68.0088 4.90674 68.1589 4.9482 68.3086C4.85413 68.4944 5.27495 71.2888 5.52258 72.366C5.50467 72.4747 5.48706 72.5836 5.46976 72.6925C5.55024 73.0894 5.63472 73.4847 5.72316 73.8783C5.67946 73.8349 5.6358 73.7915 5.59219 73.748C5.68937 74.0408 5.78874 74.3322 5.89026 74.6221C6.18059 75.7877 5.841 75.104 6.09401 75.9727C6.38228 76.9343 6.12634 75.3094 6.20935 75.3232C6.01163 74.533 5.63603 72.736 5.51525 71.9152C5.4486 71.4467 5.63519 71.9658 5.22797 69.9643C5.21024 69.5169 5.19709 69.0633 5.19012 68.6198C5.05618 67.8134 4.93873 66.9996 4.83825 66.1788C4.87884 66.022 4.92018 65.8679 4.96209 65.7137C4.95824 65.6291 4.79441 63.7378 4.76551 63.8374C4.78898 63.6182 4.80652 63.3337 4.82217 63C4.86104 62.1566 4.89181 61.0118 4.95965 59.8277C4.9417 59.666 4.92441 59.5042 4.90778 59.3423C4.87595 60.9552 4.851 59.853 4.77574 60.3293C4.73239 60.603 4.64634 61.4475 4.59713 61.7588ZM90.4453 114.437C92.7521 113.023 91.3539 113.952 93.8529 112.439C93.6464 112.494 93.4399 112.547 93.2333 112.599C92.0794 113.456 89.9588 114.505 90.4429 114.438C90.4437 114.438 90.4445 114.437 90.4453 114.437ZM111.262 95.3214C110.423 96.6147 110.955 96.0426 109.829 97.6443C109.828 97.6451 109.828 97.6458 109.827 97.6466C110.435 96.8378 111.024 96.0112 111.59 95.1714C111.48 95.2218 111.371 95.2718 111.262 95.3214ZM31.6203 111.972C30.397 111.142 30.6112 111.342 29.5657 110.496C27.8739 109.429 29.255 110.403 29.1936 110.49C29.5848 110.73 29.9786 110.966 30.375 111.196C31.2385 111.898 30.3372 111.355 30.3317 111.362C30.3325 111.363 30.3333 111.363 30.334 111.364C30.3159 111.391 30.2817 111.377 30.6251 111.631C30.9563 111.747 31.2881 111.861 31.6203 111.972ZM26.4054 108.373C26.8481 108.634 27.077 108.709 26.0748 107.832C26.0741 107.831 26.0734 107.831 26.0726 107.83C25.886 107.888 24.9897 106.965 24.5493 106.585C24.4232 106.497 24.2974 106.408 24.1719 106.319C24.8975 107.022 25.643 107.707 26.4054 108.373ZM11.9484 91.4578C12.1016 91.3671 12.6606 92.3352 12.0374 90.8798C11.8875 90.6128 11.7406 90.3465 11.5952 90.078C11.4673 89.919 11.34 89.7591 11.2135 89.5983C9.81703 85.9677 8.73087 85.199 11.908 90.9507C11.9086 90.9515 11.9091 90.9522 11.9097 90.953C11.9218 91.1211 11.9347 91.2894 11.9484 91.4578ZM15.6521 97.2311C15.7565 97.2166 15.8609 97.2018 15.9651 97.1867C16.29 98.0113 17.1216 98.7736 18.0693 100.17C18.1884 100.269 18.3077 100.368 18.4274 100.466C18.7199 101.045 23.0019 105.507 22.1803 104.433C21.8061 103.982 20.8625 103.129 20.7902 103.046C20.54 102.772 20.2681 102.365 19.8461 101.904C19.602 101.639 19.0254 101.131 18.5489 100.566C17.4683 99.3108 15.8429 96.778 14.4614 95.0958C14.3985 94.9501 14.3363 94.8043 14.2748 94.6583C13.3942 93.3144 13.6006 93.8128 12.9222 92.4771C11.9498 91.8521 16.1931 97.5321 15.1067 96.4915C15.1072 96.4922 15.1078 96.493 15.1083 96.4938C15.2877 96.7411 15.469 96.9868 15.6521 97.2311ZM52.3853 120.325C52.4646 120.428 54.3354 120.612 53.8711 120.728C54.4871 120.757 55.0973 120.776 55.7117 120.786C55.7093 120.768 55.7069 120.75 55.7045 120.732C55.1008 120.67 54.503 120.6 53.9009 120.52C53.9029 120.491 53.905 120.463 53.907 120.435C52.989 120.43 49.3097 119.606 49.4516 119.512C49.2466 119.506 49.0415 119.499 48.8364 119.491C47.1168 118.94 45.5961 118.619 43.7778 117.868C43.6232 117.851 43.4685 117.833 43.3139 117.814C43.2303 117.754 43.147 117.694 43.0639 117.634C42.393 117.385 41.7271 117.124 41.0678 116.852C38.8698 116.07 43.0079 117.927 43.5507 118.056C43.6205 118.077 43.6335 118.006 44.0685 118.144C44.8286 118.432 49.1715 119.762 50.5679 119.963C50.5695 120.013 50.5712 120.063 50.5729 120.112C51.1798 120.194 51.7807 120.264 52.3853 120.325ZM8.46699 83.5123C8.47681 83.3991 8.48697 83.286 8.49746 83.173C7.84212 81.5387 7.56493 80.4562 7.54502 80.9392C7.5453 80.9401 7.5456 80.941 7.54588 80.9419C7.83341 81.8081 8.13906 82.6609 8.46699 83.5123ZM81.5232 7.80366C81.5119 7.69761 80.7161 7.38771 79.6528 7.14454C79.6951 7.18667 79.7372 7.22884 79.7793 7.27106C80.3433 7.35785 80.9894 7.69223 82.6421 8.25908C82.6586 8.21289 82.6752 8.16671 82.6918 8.12052C82.3035 8.01088 81.914 7.90525 81.5232 7.80366ZM9.00311 84.9401C9.14766 85.4624 9.91252 86.7804 9.5256 85.8639C9.23295 85.1638 8.92435 84.6609 9.00311 84.9401ZM114.454 90.1671C114.259 90.5144 114.06 90.8598 113.857 91.2037C113.792 91.4056 113.727 91.6073 113.66 91.8089C113.661 91.808 113.661 91.8072 113.661 91.8064C113.934 91.2638 114.199 90.7161 114.454 90.1671ZM35.9918 114.508C34.7936 113.885 33.6139 113.219 32.4609 112.513C32.4351 112.529 32.4093 112.546 32.3835 112.562C33.5903 113.188 34.0125 113.541 34.2843 113.705C34.2831 113.705 34.2818 113.704 34.2806 113.703C35.155 114.224 36.0004 114.693 36.8462 115.154C36.5588 114.941 36.274 114.726 35.9918 114.508ZM40.1088 116.656C39.9764 116.383 39.7014 116.273 37.7676 115.505C37.8314 115.562 37.8954 115.619 37.9595 115.676C38.9391 116.126 39.5365 116.333 39.3218 116.349C39.5833 116.453 39.8457 116.555 40.1088 116.656ZM22.556 104.931C22.6872 105.156 24.1876 106.456 24.1321 106.355C24.0989 106.327 22.2831 104.514 22.556 104.931ZM95.0204 14.3351C94.6471 14.0722 94.2705 13.8135 93.8905 13.559C94.417 13.864 94.9386 14.1772 95.4552 14.4985C95.3104 14.4434 95.1655 14.389 95.0204 14.3351ZM99.2517 17.0561C99.4898 17.2803 98.5624 16.7471 100.046 18.0084C98.9509 17.1102 97.8217 16.2508 96.6643 15.4346C97.2227 15.7963 97.7741 16.1669 98.321 16.5482C98.2587 16.4383 98.1959 16.3285 98.1327 16.2188C98.5091 16.4935 98.8821 16.7726 99.2517 17.0561ZM100.357 18.116C99.8654 17.508 102.925 20.1412 103.163 20.4383C103.222 20.4984 103.441 20.8449 103.531 20.9621C103.094 20.5401 102.649 20.1248 102.198 19.7166C102.328 19.8764 102.457 20.0369 102.585 20.1979C102.056 19.723 101.519 19.2584 100.973 18.8035C101.224 18.9776 101.474 19.1537 101.722 19.332C101.273 18.9198 100.818 18.5144 100.357 18.116ZM86.6734 9.6378C87.1372 9.84747 87.5977 10.063 88.0548 10.2843C87.9843 10.1964 87.9134 10.1086 87.8421 10.0209C87.5662 9.89128 87.2891 9.76375 87.0108 9.63834C86.8982 9.63783 86.7858 9.63764 86.6734 9.6378ZM95.7574 14.6135C95.0172 14.3922 93.5998 12.8619 95.4747 14.3159C95.6619 14.4643 95.8283 14.6341 95.7574 14.6135ZM104.23 21.5105C105.468 22.5172 104.949 22.5228 103.97 21.39C103.921 21.3331 104.136 21.4355 104.23 21.5105ZM111.766 30.6799C111.834 30.7892 111.863 31.0364 112.615 32.0105C112.71 32.1896 112.805 32.3692 112.899 32.5491C112.634 32.1528 110.341 28.8249 110.743 29.2233C111.103 29.728 111.414 30.1443 111.766 30.6799ZM109.849 27.2095C109.474 26.7247 109.091 26.2459 108.701 25.7733C108.799 25.9543 108.896 26.1355 108.991 26.3172C108.795 26.0887 108.598 25.8618 108.399 25.6365C108.123 25.1974 107.841 24.7612 107.553 24.3283C108.436 25.3281 109.284 26.3569 110.098 27.4146C110.015 27.346 109.932 27.2776 109.849 27.2095ZM98.3606 15.7062C99.2762 16.4543 100.449 17.3027 101.889 18.5725C101.889 18.5732 101.89 18.5739 101.891 18.5747C101.962 18.6382 102.055 18.7896 102.283 18.996C102.515 19.1295 106.242 22.7275 105.866 22.5278C104.43 21.1345 103.96 20.5452 103.477 20.356C103.436 20.2585 103.394 20.161 103.352 20.0636C101.993 18.6985 101.469 18.4598 100.611 17.8061C100.635 17.7845 100.658 17.7628 100.682 17.7411C100.13 17.277 99.5702 16.8233 99.0016 16.3796C99.0693 16.4583 99.1367 16.5371 99.2039 16.6161C99.0031 16.4592 98.8012 16.3035 98.5984 16.1491C98.1611 15.6979 97.5375 15.2132 98.3606 15.7062ZM111.443 29.4859C112.008 29.7842 114.829 34.5573 115.923 36.8305C115.211 35.705 114.32 33.8583 113.57 32.6227C112.104 30.2441 113.044 31.9345 112.762 31.5523C112.625 31.3632 111.888 29.9547 111.443 29.4859ZM94.7939 13.2838C95.9528 14.0542 96.6277 14.4536 97.5533 15.2289C97.4614 15.184 97.3694 15.1393 97.2773 15.0949C96.9669 14.8208 94.1904 12.9264 94.7939 13.2838ZM117.402 40.2201C116.413 37.7154 116.742 39.0241 116.304 37.6868C116.709 38.5122 117.095 39.3499 117.461 40.1957C117.441 40.2038 117.422 40.2119 117.402 40.2201ZM9.40199 88.1094C9.87697 89.1401 10.4206 90.2938 10.8221 90.848C10.4708 90.1614 10.1327 89.4673 9.80797 88.7661C9.67091 88.5474 9.53602 88.3294 9.40199 88.1094ZM3.29535 56.4185C3.24219 56.6816 3.2082 57.7194 3.201 57.8291C3.18384 58.0319 3.15711 57.9739 3.14858 57.9761C3.05168 59.3073 3.24069 58.0865 3.19327 59.073C3.17644 59.2456 3.01826 61.5476 3.02773 62.4973C3.02705 62.6652 3.02691 62.8332 3.02732 63C3.02895 64.2796 3.0727 65.4635 3.09792 65.9397C3.14191 66.8594 3.33317 68.5388 3.51598 70.0338C3.59064 70.6489 3.55987 70.8708 3.64731 71.4863C4.08748 75.4712 6.33459 83.0494 7.79732 86.2801C8.12919 87.0917 8.40511 87.8843 8.60696 88.3016C8.78692 88.621 8.96904 88.9372 9.15513 89.2539C9.42546 90.3754 9.79948 90.6111 10.3951 91.6622C10.7777 92.3301 10.8937 92.6777 10.9448 92.7678C11.2879 93.3615 11.492 93.6332 11.7756 94.0897C12.0939 94.6036 12.5318 95.3537 12.6553 95.5311C12.737 95.636 12.563 95.2451 13.8841 97.1764C15.2463 99.1327 16.6983 100.992 18.3085 102.807C17.9974 102.003 17.3892 101.614 16.7517 100.856C16.5816 100.652 16.7249 100.752 16.5778 100.575C16.1607 100.074 15.3587 99.1152 15.0475 98.6732C14.7107 98.1974 14.9171 98.2933 14.4521 97.7187C14.4287 97.6896 14.4601 97.8124 14.3527 97.6754C13.2851 96.2888 13.0232 95.7743 11.8684 93.891C10.9508 92.7265 7.11795 84.6944 7.17967 84.3384C6.65432 82.8451 10.3789 91.4128 11.0839 92.2829C11.2689 92.6179 11.0264 92.2942 11.1909 92.602C11.2607 92.7334 12.005 93.8356 12.7191 94.937C13.5602 96.2803 15.3636 98.9151 16.3251 100.086C24.4299 110.257 35.725 117.663 48.3481 120.839C48.6166 120.906 48.9823 120.942 49.8627 121.142C54.1336 122.104 58.5533 122.599 63 122.602C75.6664 122.67 88.4876 118.441 98.583 110.834C101.564 108.604 104.278 106.088 106.852 103.358C107.137 102.986 107.416 102.613 107.691 102.236C106.94 103.159 105.359 104.664 105.215 104.798C105.164 104.848 104.882 105.203 104.359 105.707C103.621 106.414 103.259 106.683 103.199 106.74C103.007 106.916 103.162 106.833 102.979 107C101.606 108.241 100.51 109.165 99.165 110.202C97.6378 111.366 96.7889 111.848 95.6762 112.696C95.5249 112.753 95.3734 112.811 95.2218 112.867C94.4695 113.625 89.0343 116.683 86.6781 117.592C85.9457 117.905 86.05 117.791 85.8042 117.894C85.6443 117.954 85.7504 118.029 83.7982 118.755C82.8127 119.111 82.5345 119.14 82.0386 119.312C81.7688 119.404 81.8314 119.445 81.4415 119.572C79.1857 120.301 77.3096 120.776 75.0321 121.239C74.394 121.365 74.3773 121.316 74.2346 121.345C73.7107 121.447 72.8004 121.702 71.4501 121.894C69.2613 122.247 64.9062 122.528 63 122.451C62.9667 122.451 62.9342 122.45 62.9025 122.449C62.6308 122.443 62.4069 122.382 62.2079 122.381C61.9066 122.378 61.7874 122.436 61.7345 122.435C60.7286 122.411 61.3351 122.371 60.663 122.362C60.3013 122.354 59.922 122.41 59.0744 122.364C57.9591 122.297 58.1862 122.227 57.7222 122.196C57.6733 122.193 57.6533 122.25 57.1988 122.209C55.4646 122.058 52.9689 121.7 51.3607 121.37C50.9006 121.278 50.5601 121.169 49.9181 121.025C48.5937 120.863 41.3996 118.58 40.8727 118.217C40.8136 118.19 41.4646 118.363 40.4757 117.965C40.1759 117.88 39.8777 117.793 39.5776 117.703C39.1219 117.446 38.6709 117.184 38.2245 116.917C38.1551 117.119 35.3949 115.796 35.5241 115.618C35.2326 115.457 34.943 115.293 34.6543 115.126C33.9793 114.912 33.5956 114.648 32.401 114.029C32.2433 113.885 32.0862 113.74 31.9299 113.595C31.8703 113.591 31.8107 113.587 31.751 113.583C31.2199 113.079 30.1564 112.564 30.0375 112.483C29.5792 112.181 29.261 111.914 29.0492 111.767C28.2533 111.228 26.5507 110.024 25.6967 109.291C25.6565 109.257 25.7373 109.239 25.4947 109.032C25.0592 108.655 24.9527 108.693 24.4401 108.11C24.304 108.03 24.1682 107.95 24.0326 107.87C23.9177 107.751 23.8034 107.631 23.6897 107.511C22.9568 106.873 22.2388 106.217 21.5375 105.544C22.25 106.078 21.5565 105.335 20.8208 104.713C20.5716 104.502 20.7263 104.754 20.643 104.684C20.5005 104.614 17.5852 101.364 17.4641 101.089C17.3154 100.944 17.1673 100.799 17.0201 100.652C16.9866 100.545 16.9534 100.437 16.9205 100.33C16.8374 100.251 16.7545 100.172 16.6718 100.092C16.0046 99.1751 14.1379 96.8936 13.8605 96.4318C13.7079 96.1901 13.9913 96.3075 13.2289 95.1766C13.1617 95.1637 13.0944 95.1507 13.0272 95.1376C12.8515 94.8781 12.6778 94.6171 12.5061 94.3546C12.1969 93.8527 11.835 93.074 11.8724 93.0205C11.7492 92.8804 11.6265 92.7396 11.5044 92.598C11.3449 92.1193 10.0614 89.8338 9.54811 88.9033C9.44379 88.6094 9.34273 88.3166 9.24357 88.0222C9.03033 87.6642 8.82054 87.3033 8.61427 86.9395C8.21693 86.0609 8.68795 86.9667 8.61121 86.7759C8.43677 86.3771 7.49945 84.373 7.69615 84.4515C7.5874 84.1703 7.48073 83.8881 7.37616 83.6049C7.2828 83.4738 7.19007 83.3426 7.09793 83.2113C7.06188 82.6758 6.69857 81.8522 6.2166 80.08C6.14048 79.9425 6.06485 79.8044 5.98969 79.6658C5.87607 79.1075 5.77043 78.5471 5.67286 77.985C5.59 77.8859 5.50747 77.7866 5.42534 77.6875C5.35689 77.4505 5.28985 77.2129 5.22426 76.9746C5.22543 76.4591 4.89837 75.6081 4.85591 75.1453C4.79683 74.4731 4.97542 74.9671 5.26405 76.1742C5.30562 76.067 4.55372 72.4581 4.45699 71.6086C4.44768 71.6667 4.43846 71.7247 4.42932 71.7828C4.57113 72.6423 4.73264 73.5021 4.9118 74.3512C4.82726 75.1122 4.4351 72.7749 4.26216 71.6987C4.24625 71.6009 4.07346 71.0581 3.95247 69.9641C3.89939 69.5372 3.8685 67.8805 3.85744 67.5645C3.75268 65.0102 3.66748 66.8934 3.73572 64.3957C3.65503 64.7962 3.66484 64.049 3.67651 63C3.68014 62.6791 3.68413 62.3312 3.68461 61.9806C3.67486 61.7232 3.66195 59.5742 3.67794 59.4222C3.7212 58.5117 3.75687 59.5066 3.82675 58.1935C3.81149 58.0339 3.79686 57.8743 3.78287 57.7146C3.80973 57.4098 3.83868 57.1076 3.87032 56.802C4.31847 54.9764 4.21679 54.5384 4.28883 53.8803C4.32101 53.6144 4.32996 53.9642 4.42715 53.2777C4.46508 53.0197 4.45756 52.7246 4.58141 52.0351C4.98693 49.8784 5.38436 49.2124 5.67258 47.202C5.78843 46.9124 5.90641 46.6242 6.02649 46.3375C6.04471 46.1257 6.06409 45.9139 6.08462 45.7021C6.67424 44.212 6.38882 44.7261 6.56871 44.1769C7.03058 42.7243 8.22045 39.8348 8.43421 39.6316C8.73862 38.326 9.65768 37.0187 9.88314 36.5536C9.99555 36.2656 10.1102 35.9785 10.2272 35.6923C10.4188 35.3838 10.613 35.0775 10.8097 34.7733C10.5221 34.8176 11.631 33.2843 11.7303 33.1367C11.824 32.9529 13.2767 30.4599 13.9004 29.585C14.4994 28.6934 15.6617 27.2322 15.7656 27.1044C15.8773 26.952 16.9437 25.4709 17.8789 24.3912C18.6 23.3529 23.9523 18.2519 23.5983 18.5531C23.2175 18.8529 22.6911 19.299 22.2483 19.6986C20.6909 20.7609 13.63 29.0733 12.3717 31.5953C9.39135 36.3117 7.03093 41.6969 5.52723 47.0968C5.43851 47.4148 5.36905 47.4482 5.29495 47.7224C5.1801 48.1403 4.97735 49.2081 4.88383 49.6222C4.51772 51.1676 4.17722 53.053 4.05131 53.8974C3.76684 55.7611 3.60101 57.0606 3.48539 58.4847C3.44259 58.9358 3.38316 61.1956 3.35792 62.7571C3.35289 62.838 3.34802 62.919 3.3433 63C3.33154 63.2023 3.32078 63.4046 3.31102 63.6067C3.30567 63.4489 3.29927 63.2406 3.29371 63C3.26663 62.0132 3.28003 60.5041 3.32172 59.7209C3.39508 58.2623 3.52062 57.5159 3.57093 56.9841C3.60538 56.5325 3.83018 54.2512 4.01226 53.2167C4.06505 52.8955 4.13702 52.8402 4.18467 52.5666C4.43806 51.0853 4.86863 49.1424 5.14492 47.867C5.01428 48.3828 5.94752 45.1841 6.0222 45.0253C6.11272 44.7393 6.1562 44.4111 6.35185 43.8311C6.73626 42.7181 6.79229 42.9023 7.20172 41.4827C7.36554 41.1555 7.53214 40.8303 7.70148 40.5073C7.52743 40.412 9.59686 36.3019 10.0821 35.0811C10.0192 35.0069 7.41768 40.4052 7.30453 40.8927C6.16131 43.6329 4.93925 47.861 4.35336 50.6796C4.15061 51.517 3.60553 54.2001 3.59264 54.4016C3.54876 54.7299 3.64591 54.4415 3.62787 54.5834C3.29419 57.4961 3.37827 56.0354 3.29535 56.4185ZM100.84 17.5313C100.169 16.9634 99.4854 16.4107 98.7891 15.8727C98.8612 15.8834 98.9333 15.8942 99.0055 15.9052C99.3177 16.1615 99.6271 16.4208 99.9337 16.6831C100.189 16.8601 100.443 17.0392 100.696 17.2203C100.744 17.3239 100.793 17.4276 100.84 17.5313ZM102.578 18.8387C103.157 19.3371 103.132 19.42 103.26 19.5417C103.638 19.9073 103.988 20.1991 104.353 20.5561C103.811 20.2697 102.957 19.3589 102.578 18.8387ZM89.6021 9.9156C89.7545 10.0016 90.6907 10.6824 91.9181 11.1682C92.7468 11.6958 93.5577 12.2412 94.3574 12.8079C93.0005 11.8443 90.9391 10.8116 90.2181 10.4431C89.9448 10.3001 89.9187 10.2217 89.6988 10.1091C88.4285 9.45815 87.115 9.01858 87.0592 8.7834C88.2671 9.37955 89.4089 9.80675 89.6021 9.9156ZM96.9469 14.3773C97.1107 14.541 97.2732 14.7054 97.4346 14.8707C96.7668 14.3921 96.0879 13.9265 95.4015 13.4765C95.6096 13.5642 95.8174 13.6531 96.0248 13.7434C96.3339 13.9516 96.6417 14.1632 96.9469 14.3773ZM36.6789 9.70313C37.1363 9.47736 37.5947 9.2584 38.0565 9.0451C38.0185 9.02964 37.4915 9.27659 37.2901 9.35222C37.291 9.35181 37.2919 9.3514 37.2927 9.35099C37.0678 9.43464 37.1429 9.35536 36.7441 9.53211C36.7223 9.58912 36.7005 9.64612 36.6789 9.70313ZM108.192 101.852C108.862 101.291 113.49 94.8794 112.948 95.3301C112.731 95.5925 111.245 97.8437 110.755 98.4708C110.129 99.3455 108.207 101.507 108.192 101.852ZM116.019 90.2874C116.026 90.1395 113.592 94.4243 113.302 94.8153C113.37 94.737 113.483 94.6214 113.562 94.5096C113.964 93.9747 115.527 91.2304 116.019 90.2874ZM14.8131 27.6875C15.0925 27.398 15.3748 27.1114 15.6596 26.828C15.5402 26.8685 15.4208 26.9096 15.3013 26.951C15.1365 27.1957 14.9739 27.441 14.8131 27.6875ZM3.34766 63.9276C3.4414 70.5601 4.64632 77.1913 6.91815 83.4265C6.6913 82.8891 6.47193 82.347 6.26023 81.8006C4.44905 76.3596 3.44755 70.273 3.26284 64.7505C3.28926 64.4762 3.31754 64.2019 3.34766 63.9276ZM88.0588 8.82002C86.512 8.10642 85.1857 7.60719 83.473 6.89067C85.1612 7.43098 85.9183 7.87387 87.5362 8.46565C87.537 8.46604 87.5379 8.46643 87.5388 8.46683C87.713 8.58376 87.8863 8.7015 88.0588 8.82002ZM50.9426 4.51693C51.4382 4.36521 51.9367 4.21974 52.439 4.08046C51.8237 4.19003 51.2161 4.30805 50.6031 4.43715C50.7164 4.46342 50.8296 4.49002 50.9426 4.51693ZM29.9158 112.981C31.4355 113.919 35.3211 116.341 36.7076 116.825C36.7955 116.858 36.0447 116.435 37.3437 116.946C36.3857 116.513 35.7168 116.188 35.6089 116.226C35.3439 116.058 35.0805 115.888 34.8187 115.716C34.3531 115.491 33.8873 115.258 33.4264 115.019C33.5164 114.975 33.4767 114.962 32.7608 114.609C32.4582 114.408 32.1584 114.203 31.8595 113.996C31.7101 113.946 31.5607 113.894 31.4115 113.843C31.17 113.635 30.9306 113.425 30.6933 113.214C29.6394 112.591 30.2117 113.076 29.9158 112.981ZM24.9041 109.242C25.0389 109.547 31.8378 114.276 28.8502 111.983C28.0474 111.428 27.2594 110.855 26.4841 110.262C26.954 110.977 25.0086 109.14 24.8556 108.986C24.0668 108.3 23.0275 107.466 22.4734 106.947C21.9961 106.501 21.7499 106.198 21.4196 105.88C20.2849 104.806 18.6124 102.992 18.3085 102.807C19.116 103.716 19.9651 104.615 20.8653 105.504C21.8214 106.436 22.5923 107.346 24.6062 108.858C25.0731 109.267 24.8495 109.191 24.9041 109.242ZM53.9848 3.83762C53.9345 3.94051 57.0611 3.52068 57.0797 3.49375C57.0859 3.46483 56.0582 3.57458 55.912 3.58429C55.911 3.5844 55.9101 3.58451 55.9091 3.58463C55.8477 3.58767 56.1517 3.50749 55.6695 3.55328C55.1049 3.64025 54.5433 3.73508 53.9848 3.83762ZM99.4341 110.485C99.9366 110.424 107.111 103.792 107.146 103.426C107.193 103.363 107.099 103.424 107.108 103.39C105.648 105.141 103.231 107.305 101.57 108.679C101.108 109.065 101.274 108.983 101.248 109.006C101.247 109.007 101.246 109.008 101.245 109.008C100.985 109.232 99.7166 110.109 99.4341 110.485ZM39.5701 118.078C39.195 117.898 38.8222 117.716 38.4519 117.529C38.3417 117.518 38.2315 117.507 38.1212 117.495C38.1221 117.495 38.1229 117.495 38.1238 117.496C38.6031 117.696 39.0852 117.89 39.5701 118.078ZM53.3128 122.175C53.2168 122.135 53.1209 122.094 53.0252 122.053C51.9929 121.876 50.9756 121.675 49.9522 121.444C50.0581 121.453 50.164 121.462 50.2699 121.471C48.7347 121.095 48.0899 121.009 47.2762 120.779C47.2771 120.779 47.278 120.779 47.279 120.779C47.1919 120.754 47.0994 120.676 46.776 120.584C46.0316 120.383 43.9318 119.693 43.6651 119.646C43.085 119.595 47.3496 120.887 48.169 121.052C48.5309 121.147 48.9587 121.296 49.181 121.35C49.4245 121.408 49.7697 121.427 50.366 121.557C50.5422 121.603 52.4606 122.057 53.3128 122.175ZM71.6934 122.254C71.3682 122.246 70.7102 122.388 70.4633 122.409C70.4045 122.414 70.854 122.311 70.3004 122.366C70.148 122.416 69.9952 122.466 69.8419 122.515C70.4622 122.438 71.0795 122.35 71.6934 122.254ZM59.2539 3.22477C59.1606 3.21265 57.4692 3.34795 57.3907 3.36874C56.3894 3.55203 59.883 3.2598 59.2539 3.22477ZM99.4298 15.3132C98.9879 14.6116 105.933 20.7928 106.425 21.5722C106.334 21.5976 104.848 19.9659 105.571 20.8752C104.862 20.0272 102.594 17.9889 102.051 17.5213C101.729 17.2288 101.696 17.0976 101.647 17.053C101.461 16.8701 99.624 15.513 99.4298 15.3132ZM111.302 27.478C110.794 26.7587 110.269 26.049 109.73 25.352C110.391 26.1548 111.032 26.9765 111.651 27.8126C111.535 27.7005 111.419 27.589 111.302 27.478ZM111.986 28.3516C112.055 28.2682 113.68 30.7852 114.093 31.4556C113.498 30.7806 112.817 29.4634 111.986 28.3516ZM70.5231 3.34386C69.1552 3.12036 68.5344 3.33497 70.2183 3.40249C70.2694 3.40443 70.5799 3.35401 70.5231 3.34386ZM30.0602 113.537C30.2461 113.682 32.7085 115.296 32.8873 115.328C33.4214 115.477 31.7281 114.559 31.2113 114.164C30.379 113.532 31.6956 114.311 29.5472 112.963C29.6489 112.998 29.7507 113.032 29.8525 113.066C28.6274 112.232 28.922 112.658 28.6871 112.529C28.6144 112.49 27.8642 111.94 27.7222 111.85C25.9273 110.748 29.8543 113.454 30.0602 113.537ZM37.1911 8.66044C34.6846 9.80391 35.789 9.36244 33.3132 10.7181C33.2477 10.7903 36.8726 8.83091 37.1911 8.66044ZM11.5933 94.3562C13.1047 96.7694 14.4032 98.7307 16.1506 100.735C16.0588 100.582 11.1503 93.7749 11.5933 94.3562ZM119.283 84.8952C115.081 95.178 107.124 105.734 97.3515 112.42C96.293 113.152 96.1495 113.156 95.7655 113.418C95.5127 113.587 95.5866 113.604 95.2453 113.822C85.4324 120.079 74.1738 123.247 63 123.235C60.1036 123.236 57.2323 123.03 54.3763 122.614C53.4926 122.527 49.2979 121.592 48.3768 121.497C47.6665 121.466 50.7038 122.083 51.2126 122.162C51.5914 122.237 51.5963 122.3 51.85 122.348C52.1194 122.398 51.9043 122.316 52.2174 122.372C53.5481 122.611 54.9971 122.835 56.2134 122.966C58.4759 123.212 60.7345 123.331 63 123.328C72.6039 123.316 82.0547 121.059 90.6196 116.644C91.8952 115.979 91.6525 116.152 91.7177 116.12C91.7185 116.12 91.7192 116.119 91.72 116.119C98.5444 112.479 105.393 106.673 110.441 100.243C114.026 95.7392 116.967 90.7159 119.133 85.3747C119.184 85.2151 119.234 85.0553 119.283 84.8952ZM25.2436 109.818C25.6912 110.405 25.9091 110.391 27.9412 111.966C28.1298 112.062 28.3187 112.157 28.5081 112.251C27.392 111.476 26.3018 110.664 25.2403 109.815C25.2414 109.816 25.2425 109.817 25.2436 109.818ZM39.739 118.554C40.0201 119.004 45.4977 120.852 48.0235 121.459C48.5083 121.473 44.8649 120.53 44.0307 120.203C43.6082 120.064 41.4094 119.162 39.7263 118.52C39.7306 118.532 39.7348 118.543 39.739 118.554ZM91.4522 9.73538C91.0791 9.54399 90.7039 9.3564 90.3265 9.17267C91.2495 9.67338 92.1585 10.1978 93.0534 10.7457C91.6119 9.89417 90.1373 9.104 88.6294 8.37546C88.9335 8.46081 89.2369 8.54848 89.5414 8.6394C90.1863 8.99373 90.8233 9.35916 91.4522 9.73538ZM86.5392 7.41429C89.2368 8.57411 86.3778 7.45692 85.7236 7.138C85.3325 6.93867 86.2639 7.29728 86.5392 7.41429ZM79.3718 4.80507C80.7191 5.06843 83.3504 5.9605 82.3573 5.81753C80.9777 5.26877 80.0541 5.0445 77.9862 4.4558C78.298 4.49921 78.6119 4.54573 78.9242 4.59436C78.9256 4.59474 78.927 4.59512 78.9284 4.5955C79.0767 4.66481 79.2245 4.73467 79.3718 4.80507ZM87.8133 7.85067C89.5309 8.71788 84.4392 6.47292 86.0724 7.099C86.1504 7.12106 87.7488 7.81042 87.8133 7.85067ZM113.849 95.9144C113.927 95.689 113.116 96.9267 112.827 97.3276C111.606 99.0798 109.944 101.26 108.465 102.919C108.59 102.806 108.715 102.693 108.839 102.579C110.659 100.476 112.334 98.2473 113.849 95.9144ZM103.591 107.865C102.46 108.889 101.29 109.871 100.084 110.807C99.9728 110.895 99.4735 111.341 99.8754 111.049C101.157 110.038 102.397 108.975 103.591 107.865ZM18.0327 103.478C18.787 104.376 16.419 101.963 16.6719 101.947C17.117 102.465 17.5707 102.976 18.0327 103.478ZM11.4449 94.8182C11.8465 95.4344 12.2588 96.0424 12.6815 96.6421C12.6645 96.6546 12.6475 96.6672 12.6305 96.6798C12.2243 96.0669 11.829 95.4463 11.4449 94.8182ZM116.899 90.7413C116.484 91.4019 115.603 93.0364 115.002 94.0246C115.469 93.3766 116.378 91.702 116.899 90.7413ZM31.4302 114.709C31.3541 114.651 35.4114 116.941 33.9611 116.231C33.1037 115.744 32.2605 115.236 31.4302 114.709ZM39.8299 119.065C38.902 118.693 38.2007 118.355 38.4204 118.369C38.9033 118.588 39.3913 118.801 39.8782 119.005C39.8621 119.025 39.846 119.045 39.8299 119.065ZM74.324 3.47069C72.6658 3.16432 71.0026 2.9284 69.3202 2.76084C69.3848 2.7463 69.4493 2.73186 69.5139 2.71752C71.1357 2.88398 72.7415 3.11422 74.3414 3.40988C74.3356 3.43015 74.3298 3.45042 74.324 3.47069ZM117.499 89.9748C118.004 88.9266 118.475 87.8699 118.919 86.7945C118.449 87.8599 117.952 88.905 117.423 89.9401C117.448 89.9526 117.473 89.9651 117.498 89.9775C117.499 89.9766 117.499 89.9757 117.499 89.9748ZM95.7855 11.7176C91.4281 8.92259 97.1402 12.2567 98.1334 13.2289C98.1347 13.2297 98.1359 13.2304 98.1372 13.2312C98.2273 13.3106 97.9855 13.2152 98.1332 13.3504C97.7205 13.0236 97.3026 12.7014 96.8811 12.385C96.4632 12.1466 96.0426 11.9132 95.6195 11.6849C95.4936 11.5886 95.3673 11.4927 95.2406 11.3972C95.4228 11.5031 95.6044 11.6099 95.7855 11.7176ZM111.155 25.69C113.944 29.46 111.017 25.6586 109.593 23.8279C109.631 23.818 110.898 25.3418 111.155 25.69ZM102.675 16.8205C102.105 16.3494 101.527 15.8887 100.942 15.439C100.879 15.3663 100.817 15.2937 100.754 15.2213C101.209 15.5596 101.66 15.9038 102.107 16.2551C102.298 16.4425 102.487 16.6309 102.675 16.8205ZM81.6997 4.75794C80.5618 4.38803 79.0625 4.09675 82.7205 5.22813C82.7255 5.20752 82.7304 5.1869 82.7354 5.16629C82.5899 5.11969 82.1584 4.99671 82.1355 4.98788C82.0703 4.96118 82.1719 4.91877 81.6997 4.75794ZM116.458 32.6336C116.529 32.7472 116.773 32.699 117.237 34.0439C117.449 34.4106 117.658 34.7799 117.863 35.1518C117.869 35.2717 117.874 35.3916 117.879 35.5114C117.172 34.0326 116.986 33.9361 116.931 33.8313C116.663 33.3579 116.901 33.6868 116.732 33.3785C116.303 32.5778 115.212 30.8317 115.817 31.5582C116.036 31.82 116.386 32.5199 116.458 32.6336ZM114.906 29.8202C114.998 29.9978 114.596 29.4933 114.662 29.6299C114.727 29.7451 115.713 31.4607 115.337 31.0634C115.171 30.7845 115.004 30.5069 114.835 30.2308C114.801 30.122 114.768 30.0131 114.734 29.9043C114.541 29.655 114.346 29.4074 114.15 29.1615C113.922 28.6807 113.363 27.6934 114.166 28.7687C113.887 28.3631 113.602 27.9601 113.313 27.5613C113.136 27.3733 112.959 27.1866 112.781 27.0013C112.903 27.0775 113.025 27.1543 113.147 27.2316C113.755 28.0796 114.342 28.9429 114.906 29.8202ZM121.454 43.5896C121.409 43.5414 121.363 43.4934 121.317 43.4454C121.959 45.1436 122.698 47.8601 122.107 46.3644C121.433 44.0183 120.614 41.7039 119.663 39.4554C119.62 39.2976 119.577 39.1407 119.533 38.9823C120.157 40.6956 120.267 40.045 120.741 41.571C120.816 41.8291 120.445 41.1392 121.083 42.6969C121.09 42.631 121.096 42.5651 121.103 42.4992C121.223 42.8612 121.34 43.2247 121.454 43.5896ZM124.395 58.8266C124.193 55.7356 124.577 59.1265 124.506 59.7112C124.506 59.7102 124.506 59.7092 124.506 59.7082C124.355 61.2841 124.286 57.9117 124.246 57.7101C124.218 57.4372 124.009 56.8274 124.07 55.3197C124.212 56.4897 124.32 57.653 124.395 58.8266ZM122.937 48.8263C123.001 49.0785 122.927 48.9478 122.953 49.0572C122.953 49.0582 122.954 49.0591 122.954 49.0601C123.376 50.6718 124.042 54.5617 123.934 55.0041C123.835 53.7843 122.724 48.4041 122.679 48.0763C122.766 48.3254 122.852 48.5754 122.937 48.8263ZM119.099 37.8249C118.762 36.859 119.716 38.9485 119.896 39.5228C119.93 39.6309 119.448 38.8231 119.099 37.8249ZM55.6132 1.73497C53.3925 2.06955 56.3244 1.75159 55.3221 1.96156C55.7458 1.90166 56.1709 1.84607 56.5975 1.79485C56.2695 1.77231 55.9414 1.75235 55.6132 1.73497ZM2.45836 75.8152C2.55826 76.3322 2.55636 76.0774 2.5665 76.122C2.63795 76.4598 2.66975 76.786 2.70375 76.9141C3.35505 79.2708 3.01682 77.6797 3.01908 77.655C3.05605 77.5934 3.26368 78.2005 3.11122 77.3261C2.96921 76.8072 2.83377 76.2852 2.705 75.7603C2.67699 75.4916 2.6512 75.225 2.62718 74.9584C2.36586 73.9225 2.6133 75.2962 2.57038 75.4672C2.5522 75.5341 2.31281 74.5519 2.45836 75.8152ZM51.6046 2.17629C51.2611 2.32898 50.4115 2.61162 51.2852 2.53047C51.2862 2.53029 51.2872 2.5301 51.2881 2.52992C51.4494 2.51444 52.0982 2.40377 52.3018 2.39224C53.707 2.03844 53.1418 1.99633 51.6046 2.17629ZM1.05269 66.2118C1.02897 65.3423 1.02319 64.4698 1.03559 63.5936C1.08871 63.608 1.14182 63.6223 1.19495 63.6366C1.18539 64.1043 1.18103 64.5711 1.18182 65.0369C1.21126 65.1993 1.24132 65.3613 1.27201 65.523C1.30923 64.9446 1.35442 64.3659 1.40759 63.787C1.39637 63.5251 1.38678 63.2628 1.37884 63C1.36567 62.564 1.35702 62.1287 1.35287 61.6942C1.31828 62.0135 1.28611 62.3338 1.2564 62.6551C1.2468 60.9479 1.37035 61.3215 1.47813 59.9248C1.45278 59.4412 1.43323 58.9544 1.4192 58.4697C1.51906 57.7752 1.62984 57.0906 1.75288 56.4009C1.85909 55.2313 1.84034 55.1249 1.69035 55.9034C1.69313 55.3147 1.87416 54.6936 1.94944 53.9976C1.95572 53.9401 1.88008 54.0391 1.88675 53.9884C2.41403 50.3838 2.61123 50.6276 2.72055 50.0553C2.80458 49.6538 3.07631 48.0405 3.05168 48.0076C3.02428 47.9632 1.96876 51.2261 3.31669 46.0466C2.41649 48.6748 1.97279 51.8076 2.5718 49.8518C2.33338 50.6958 1.75053 54.503 1.74058 54.7454C1.68514 55.0985 1.62652 54.9643 1.56926 55.4094C1.54133 55.6737 1.60098 56.3879 1.29283 58.4605C1.30143 58.7299 1.31176 58.9994 1.32382 59.269C1.28586 59.5182 1.24923 59.7712 1.21441 60.0181C1.15666 59.4995 1.10577 58.9729 1.0612 58.4497C1.00851 60.2732 0.854843 61.7912 0.921853 63C0.930865 63.1608 0.943859 63.3152 0.961624 63.463C0.954778 64.5476 0.962083 65.0714 0.875276 64.6092C0.883541 64.9342 0.894301 65.2585 0.907541 65.5822C0.954879 65.7928 1.00324 66.0022 1.05269 66.2118ZM45.2125 3.85617C44.1668 4.0866 43.8531 4.3834 44.0153 4.3396C44.9261 4.10209 45.7563 3.73999 45.2125 3.85617ZM2.18035 73.8903C2.01799 72.7166 1.89075 71.547 1.79646 70.3705C1.74083 70.3772 1.68519 70.3838 1.62956 70.3904C1.77986 71.5634 1.96283 72.7264 2.18035 73.8903ZM55.9256 1.5717C56.0386 1.60109 56.1515 1.63078 56.2642 1.66078C57.5344 1.36674 58.8298 1.49826 59.4663 1.41801C59.6046 1.4004 59.3201 1.34155 59.0544 1.34249C58.885 1.32829 56.1565 1.5156 55.9256 1.5717ZM105.437 18.062C105.067 17.7516 104.694 17.4455 104.318 17.1442C104.369 17.127 104.421 17.1098 104.472 17.0926C104.655 17.2458 104.837 17.4002 105.018 17.5556C105.158 17.7237 105.298 17.8926 105.437 18.062ZM101.243 14.5357C100.572 14.0004 99.8887 13.4785 99.196 12.9719C101.849 14.8947 99.7137 13.2594 101.328 14.4279C101.3 14.4638 101.272 14.4998 101.243 14.5357ZM94.1164 9.56013C94.2219 9.58904 94.3274 9.61825 94.4329 9.64776C95.1733 10.0849 95.9076 10.5393 96.6299 11.0075C96.2262 10.6291 95.8161 10.2553 95.3998 9.88606C95.129 9.72026 94.858 9.55717 94.5851 9.39574C94.4285 9.44997 94.2723 9.50477 94.1164 9.56013ZM11.2141 97.2511C11.4942 97.6912 12.6067 99.1305 12.5905 99.0451C12.1837 98.4108 11.7876 97.7677 11.4053 97.1208C11.3566 97.1489 11.3079 97.177 11.2592 97.2051C11.2237 97.1009 11.1885 96.9967 11.1536 96.8924C10.9016 96.546 10.6529 96.1966 10.4077 95.8443C10.3347 95.6351 10.2629 95.4257 10.1922 95.2161C10.0313 95.0602 9.87163 94.9043 9.71229 94.7467C10.7 96.5695 10.7689 96.4441 10.9972 96.8083C11.116 96.9915 11.1632 97.1258 11.1913 97.2001C11.1989 97.2171 11.2065 97.2341 11.2141 97.2511ZM1.68992 73.1429C2.08724 75.589 2.55446 76.9368 2.87672 78.6969C2.74041 77.5539 1.10703 70.3085 1.26045 67.6683C1.1982 67.4016 1.13765 67.1339 1.0788 66.8651C1.20514 68.2864 1.21996 69.2613 1.28425 69.9599C1.33663 70.5103 1.37553 70.4472 1.37953 70.4893C1.37977 70.4912 1.38001 70.4932 1.38024 70.4952C1.52118 71.7798 1.5399 72.1718 1.68992 73.1429ZM57.7287 1.18562C57.0637 1.17132 55.9053 1.30399 55.9035 1.40394C56.5526 1.35835 57.1944 1.32373 57.8393 1.29876C57.7053 1.28487 57.8424 1.18756 57.7287 1.18562ZM93.3815 8.8257C92.9453 8.54016 91.8511 7.9872 92.2771 8.31074C92.3541 8.36594 93.4519 8.90314 92.7518 8.69086C93.791 9.26442 93.6293 8.98796 93.3815 8.8257ZM9.14869 32.386C9.36187 32.0061 9.57896 31.6287 9.79989 31.2538C9.81818 31.1466 9.83678 31.0394 9.85569 30.9321C9.61364 31.4138 9.37795 31.8985 9.14869 32.386ZM63.332 0.89818C63.9123 1.09313 64.9087 0.92129 65.9829 1.13124C66.3813 1.15135 66.7865 1.17568 67.1868 1.20365C67.1878 1.20372 67.1888 1.20379 67.1898 1.20385C67.2042 1.15221 67.2186 1.10057 67.233 1.04893C65.9252 0.957862 64.6416 0.908413 63.332 0.89818ZM1.15887 58.1318C1.204 57.866 1.25081 57.601 1.29928 57.3368C1.31386 56.8608 1.33422 56.3817 1.3603 55.9016C1.31069 56.1569 1.2626 56.4132 1.21614 56.6697C1.19142 57.1561 1.17232 57.6434 1.15887 58.1318ZM70.3903 1.31608C68.989 1.13375 68.4466 1.24902 70.2374 1.44266C70.9898 1.53162 71.8513 1.52434 70.3903 1.31608ZM30.393 115.765C29.9907 115.5 29.5919 115.229 29.1966 114.954C29.0401 114.894 28.8838 114.834 28.7276 114.772C29.2775 115.112 29.8326 115.443 30.393 115.765ZM99.0026 12.4174C98.9361 12.4132 98.8697 12.4091 98.8033 12.4051C98.4572 12.1511 98.1082 11.9005 97.7564 11.6534C97.8655 11.6851 97.9745 11.7172 98.0835 11.7496C98.392 11.9695 98.6984 12.1921 99.0026 12.4174ZM27.6957 113.97C27.3832 113.745 27.0729 113.518 26.765 113.287C26.5454 113.15 26.3267 113.011 26.1088 112.871C26.388 113.099 26.6694 113.324 26.9529 113.548C27.1996 113.69 27.4472 113.831 27.6957 113.97ZM83.3686 4.31492C82.8727 4.09051 80.7707 3.55368 82.6137 4.18808C83.7808 4.60553 83.4428 4.34921 83.3686 4.31492ZM86.1192 5.2981C84.2227 4.4805 85.532 5.37532 87.8891 6.10919C85.5967 5.16799 86.2274 5.35483 86.1192 5.2981ZM101.876 14.2433C101.916 14.2762 101.914 14.348 102.236 14.6112C103.397 15.5555 104.858 16.8848 105.631 17.624C107.603 19.288 112.789 25.2459 113.107 26.1601C113.191 26.3353 112.844 26.0444 112.886 26.1104C113.012 26.3001 113.819 27.337 113.613 27.1856C112.869 26.1354 112.092 25.1074 111.285 24.1052C111.526 24.3163 111.766 24.5297 112.005 24.7452C109.973 22.2539 110.624 23.095 109.941 22.4649C109.621 22.0235 109.295 21.5859 108.963 21.1521C108.13 20.3078 107.275 19.4883 106.397 18.6947C106.613 18.8572 106.828 19.0213 107.043 19.1869C105.822 17.8844 106.139 18.266 105.374 17.6565C105.396 17.6296 105.419 17.6026 105.441 17.5757C104.12 16.467 103.925 16.1824 103.644 15.9316C103.049 15.4298 102.077 15.0848 99.971 12.9917C98.8539 12.4177 99.1072 12.1106 98.3902 11.8588C96.7762 10.4847 100.056 12.7969 101.521 14.0055C101.522 14.0061 101.523 14.0067 101.524 14.0073C101.635 14.0967 101.481 13.9254 101.876 14.2433ZM92.7666 8.42838C93.9856 8.85776 89.5232 6.5125 90.8865 7.51352C91.1039 7.63255 91.3204 7.75282 91.5361 7.87431C91.9491 8.05499 92.3595 8.23977 92.7692 8.42981C92.7684 8.42934 92.7675 8.42886 92.7666 8.42838ZM46.936 2.8208C42.4727 4.17982 45.0468 3.53358 46.5376 3.00839C46.8365 2.90562 46.9971 2.83486 46.936 2.8208ZM2.22634 76.6468C2.26255 76.7086 2.29886 76.7704 2.33526 76.832C1.94519 75.3081 1.53779 72.3179 1.40929 72.3761C1.63276 73.8148 1.90291 75.2271 2.22634 76.6468ZM0.644603 64.3803C0.638664 64.7181 0.672221 66.0887 0.722123 65.9204C0.733819 65.3264 0.753833 64.7314 0.78223 64.1355C0.752857 63.8587 0.725293 63.5813 0.699553 63.303C0.692303 63.6918 0.64446 64.2891 0.644603 64.3803Z" fill="#0B622F"/>
</svg>
