<svg width="155" height="224" viewBox="0 0 155 224" fill="none" xmlns="http://www.w3.org/2000/svg">
<g clip-path="url(#clip0_8502_26583)">
<path d="M323.96 213.975C323.96 214.04 255.592 214.092 171.276 214.092C86.9294 214.092 18.5762 214.039 18.5762 213.975C18.5762 213.911 86.9294 213.858 171.276 213.858C255.592 213.858 323.96 213.911 323.96 213.975Z" fill="#263238"/>
<path d="M126.448 108.392L124.69 103.211C126.276 100.533 127.161 97.399 127.096 94.0628C126.908 84.4679 118.945 76.8414 109.309 77.028C99.6739 77.2152 92.0151 85.1446 92.2026 94.7395C92.3905 104.334 100.353 111.961 109.989 111.774C114.012 111.696 117.688 110.265 120.595 107.929L120.59 107.937L126.448 108.392Z" fill="white"/>
<path d="M126.44 108.392C126.44 108.392 126.324 108.391 126.077 108.376C125.812 108.359 125.444 108.336 124.967 108.307C123.955 108.239 122.485 108.141 120.576 108.013C120.535 108.01 120.503 107.974 120.505 107.933C120.506 107.918 120.512 107.904 120.521 107.893C120.521 107.893 120.524 107.888 120.526 107.885L120.635 107.989C118.875 109.416 116.252 110.972 112.793 111.61C111.074 111.944 109.163 111.994 107.173 111.718C105.186 111.445 103.115 110.812 101.151 109.735C99.1892 108.664 97.3384 107.151 95.8248 105.243C94.3107 103.339 93.139 101.037 92.5195 98.506C91.25 93.4676 92.4246 87.4603 96.1818 83.0972C98.0601 80.892 100.432 79.1609 103.034 78.1485C105.624 77.1091 108.39 76.7175 111.026 76.9152C113.666 77.1188 116.158 77.9387 118.299 79.1522C120.444 80.3672 122.238 81.9811 123.605 83.769C126.353 87.3667 127.355 91.5523 127.193 95.0241C127.057 98.5316 125.899 101.336 124.747 103.25L124.753 103.189C125.305 104.879 125.732 106.184 126.026 107.083C126.161 107.506 126.267 107.833 126.343 108.069C126.412 108.287 126.44 108.392 126.44 108.392C126.44 108.392 126.391 108.271 126.311 108.046C126.225 107.807 126.108 107.477 125.956 107.051C125.646 106.17 125.196 104.891 124.613 103.236C124.606 103.215 124.609 103.192 124.619 103.174C125.737 101.261 126.854 98.478 126.964 95.0159C127.099 91.5875 126.088 87.4738 123.372 83.9465C122.021 82.1938 120.253 80.6146 118.143 79.4272C116.037 78.2416 113.59 77.4424 111 77.248C108.413 77.0594 105.701 77.4477 103.164 78.4683C100.614 79.4624 98.2907 81.1606 96.4496 83.3224C92.7675 87.5987 91.6108 93.4826 92.8464 98.4283C93.4495 100.911 94.5935 103.172 96.0752 105.046C97.5559 106.924 99.3689 108.417 101.294 109.478C103.221 110.544 105.255 111.177 107.211 111.456C109.168 111.738 111.054 111.7 112.751 111.382C116.168 110.776 118.775 109.263 120.539 107.87C120.572 107.844 120.62 107.849 120.646 107.881C120.669 107.908 120.668 107.947 120.649 107.974C120.647 107.977 120.643 107.982 120.643 107.982L120.587 107.862C122.469 108.028 123.919 108.156 124.918 108.245C125.402 108.29 125.776 108.325 126.046 108.35C126.302 108.374 126.44 108.392 126.44 108.392Z" fill="#263238"/>
<path d="M104.694 90.8658H107.348C107.348 90.8658 107.348 88.6466 109.664 88.6071C110.867 88.5863 111.49 89.3711 111.744 89.972C112.038 90.67 111.949 91.4653 111.555 92.1126C111.105 92.8515 110.118 93.5234 108.329 93.2099V99.169H110.954V95.6784C110.954 95.6784 114.634 94.7311 114.634 90.6917C114.634 86.8268 111.154 85.9292 109.664 85.9292C108.525 85.9287 104.644 86.2027 104.694 90.8658Z" fill="#263238"/>
<path d="M110.99 100.395H108.326V102.872H110.99V100.395Z" fill="#263238"/>
<path d="M99.9157 139.024C99.9157 139.024 99.9467 138.889 100.015 138.658C100.345 137.545 101.543 134.22 104.301 133.282C107.631 132.15 114.697 130.775 116.483 130.047C118.27 129.319 119.406 128.753 119.894 129.643C120.381 130.532 119.65 131.907 118.676 132.312C117.701 132.716 114.534 134.106 114.534 134.106L116.239 139.024C116.239 139.024 107.062 142.421 105.682 143.876C104.301 145.332 104.582 147.191 104.582 147.191L98.6806 142.404L99.9157 139.024Z" fill="#FFBF9D"/>
<path d="M126.599 127.906C126.599 127.906 127.22 128.005 126.821 128.643C126.422 129.281 122.872 133.358 122.872 133.358C122.872 133.358 123.361 134.929 122.872 135.42C122.384 135.911 118.067 137.974 118.067 137.974C118.067 137.974 115.64 140.921 114.087 141.412C112.534 141.903 106.503 143.27 106.503 143.27L107.742 137.533L112.268 137.729L114.353 135.961C114.353 135.961 113.333 133.947 113.111 133.996C112.889 134.045 110.715 133.701 110.937 133.112C111.158 132.523 111.425 131.933 113.022 132.13C114.62 132.326 117.083 134.635 117.083 134.635L118.258 133.898L116.794 131.344C116.794 131.344 113.511 130.706 114.265 128.398C114.265 128.398 117.681 129.134 118.258 129.527C118.835 129.921 120.654 133.505 120.654 133.505L120.521 130.264C120.521 130.264 118.702 128.398 119.012 127.219C119.323 126.04 120.166 126.089 120.166 126.089L122.651 129.625L122.754 130.23C122.754 130.23 124.47 128.397 125.225 128.005C125.978 127.612 126.599 127.906 126.599 127.906Z" fill="#FFBF9D"/>
<path d="M106.518 143.34C106.518 143.34 106.596 143.331 106.745 143.301C106.905 143.268 107.125 143.222 107.407 143.162C107.999 143.03 108.853 142.838 109.948 142.593C111.051 142.333 112.404 142.035 113.961 141.598C114.766 141.374 115.458 140.799 116.142 140.198C116.822 139.58 117.492 138.879 118.153 138.101L118.122 138.125C119.145 137.636 120.228 137.108 121.355 136.52C121.637 136.372 121.92 136.221 122.204 136.059C122.347 135.979 122.488 135.893 122.629 135.806C122.765 135.709 122.923 135.634 123.039 135.464C123.24 135.129 123.217 134.762 123.194 134.421C123.159 134.075 123.091 133.737 122.991 133.396L122.969 133.498C123.69 132.663 124.441 131.791 125.217 130.891C125.598 130.435 125.986 129.972 126.378 129.502C126.57 129.259 126.767 129.032 126.948 128.755C127.031 128.615 127.116 128.441 127.075 128.229C127.018 128.004 126.816 127.898 126.634 127.861L126.666 127.871C126.272 127.713 125.846 127.72 125.452 127.856C125.053 127.992 124.738 128.267 124.433 128.519C123.825 129.045 123.249 129.62 122.68 130.218L122.89 130.28C122.858 130.093 122.823 129.884 122.787 129.676L122.783 129.648L122.767 129.626C121.979 128.504 121.139 127.306 120.284 126.088L120.246 126.035L120.189 126.035C119.682 126.038 119.278 126.391 119.079 126.801C118.98 127.012 118.898 127.214 118.875 127.463C118.859 127.701 118.894 127.937 118.966 128.154C119.26 129.028 119.832 129.747 120.446 130.421L120.411 130.339C120.416 130.468 120.422 130.609 120.428 130.75C120.467 131.701 120.506 132.645 120.544 133.58L120.782 133.518C120.434 132.841 120.08 132.175 119.712 131.522C119.334 130.872 118.988 130.222 118.494 129.631C118.348 129.466 118.151 129.391 117.981 129.32C117.805 129.253 117.629 129.195 117.453 129.14C117.101 129.032 116.749 128.936 116.399 128.844C115.696 128.664 114.999 128.5 114.306 128.349L114.193 128.324L114.164 128.429C114.06 128.811 114.003 129.219 114.114 129.613C114.23 130.001 114.475 130.33 114.764 130.583C115.354 131.091 116.067 131.359 116.786 131.528L116.707 131.471C117.208 132.343 117.697 133.192 118.175 134.023L118.213 133.872C117.812 134.124 117.423 134.369 117.038 134.611L117.174 134.624C116.512 134.024 115.831 133.485 115.119 133.015C114.408 132.565 113.651 132.121 112.807 132.076C112.401 132.044 111.986 132.05 111.591 132.183C111.396 132.25 111.206 132.36 111.069 132.526C110.929 132.691 110.859 132.905 110.857 133.11C110.845 133.317 110.924 133.545 111.073 133.689C111.216 133.839 111.391 133.936 111.567 134.01C111.922 134.154 112.289 134.216 112.649 134.246L112.589 134.218C113.199 134.881 113.766 135.498 114.307 136.086L114.314 135.968C113.565 136.609 112.877 137.196 112.236 137.744L112.313 137.733C111.738 137.483 111.178 137.283 110.636 137.141C110.092 137.007 109.572 136.927 109.083 136.893C108.103 136.843 107.268 136.974 106.617 137.152C105.964 137.328 105.483 137.524 105.163 137.664C105.002 137.732 104.884 137.792 104.803 137.83C104.723 137.869 104.683 137.89 104.684 137.893C104.686 137.896 104.728 137.881 104.811 137.848C104.903 137.811 105.023 137.763 105.178 137.7C105.502 137.573 105.986 137.389 106.636 137.226C107.285 137.061 108.111 136.945 109.075 137.005C109.556 137.043 110.068 137.128 110.603 137.265C111.136 137.411 111.687 137.614 112.252 137.865L112.295 137.884L112.329 137.854C112.975 137.311 113.667 136.729 114.421 136.094L114.486 136.039L114.429 135.976C113.892 135.385 113.328 134.764 112.723 134.097L112.699 134.071L112.663 134.068C112.318 134.037 111.964 133.974 111.639 133.839C111.319 133.711 111.017 133.464 111.049 133.117C111.045 132.765 111.306 132.477 111.656 132.37C112.004 132.254 112.4 132.245 112.79 132.279C113.573 132.322 114.301 132.747 115.001 133.193C115.697 133.657 116.374 134.196 117.021 134.786L117.084 134.844L117.156 134.799C117.541 134.559 117.93 134.315 118.332 134.065L118.424 134.007L118.37 133.913C117.894 133.081 117.409 132.231 116.909 131.357L116.884 131.313L116.83 131.301C116.154 131.142 115.455 130.873 114.921 130.407C114.657 130.174 114.444 129.884 114.345 129.55C114.25 129.212 114.3 128.853 114.394 128.506L114.253 128.587C114.942 128.738 115.638 128.903 116.335 129.083C116.683 129.175 117.032 129.27 117.378 129.377C117.71 129.493 118.102 129.583 118.31 129.801C118.761 130.34 119.123 131.005 119.492 131.645C119.857 132.295 120.211 132.96 120.555 133.632L120.817 134.143L120.794 133.571C120.755 132.636 120.717 131.692 120.678 130.74C120.672 130.6 120.666 130.459 120.661 130.329L120.659 130.283L120.626 130.247C120.034 129.601 119.47 128.878 119.205 128.08C119.139 127.882 119.112 127.678 119.124 127.484C119.138 127.298 119.217 127.091 119.301 126.914C119.468 126.557 119.82 126.287 120.173 126.284L120.078 126.231C120.934 127.447 121.776 128.644 122.565 129.765L122.544 129.716C122.58 129.924 122.615 130.133 122.647 130.32L122.688 130.561L122.857 130.383C123.419 129.791 123.993 129.216 124.588 128.7C124.89 128.448 125.186 128.194 125.529 128.079C125.866 127.956 126.257 127.96 126.564 128.082L126.581 128.089L126.596 128.092C126.713 128.116 126.831 128.189 126.846 128.283C126.867 128.38 126.822 128.516 126.746 128.635C126.59 128.878 126.384 129.12 126.197 129.357C125.807 129.827 125.422 130.29 125.043 130.746C124.27 131.648 123.523 132.521 122.806 133.358L122.767 133.402L122.784 133.459C122.88 133.781 122.949 134.114 122.983 134.441C123.012 134.762 123.014 135.11 122.865 135.35C122.696 135.561 122.366 135.72 122.102 135.884C121.822 136.045 121.54 136.197 121.261 136.345C120.142 136.936 119.061 137.47 118.044 137.963L118.026 137.972L118.013 137.987C117.363 138.761 116.699 139.464 116.031 140.079C115.358 140.68 114.683 141.246 113.919 141.463C112.375 141.909 111.022 142.222 109.925 142.497C108.834 142.762 107.984 142.969 107.395 143.113C107.115 143.183 106.897 143.237 106.739 143.277C106.592 143.314 106.518 143.34 106.518 143.34Z" fill="#6F4439"/>
<path d="M115.829 138.999C115.862 139.052 116.856 138.211 117.445 136.762C117.515 136.585 117.583 136.414 117.65 136.245C117.724 136.065 117.744 135.857 117.712 135.678C117.613 135.305 117.423 135.081 117.271 134.873C116.963 134.465 116.654 134.31 116.637 134.356C116.629 134.378 116.864 134.558 117.126 134.976C117.251 135.174 117.425 135.444 117.482 135.712C117.5 135.858 117.485 136.005 117.42 136.156C117.352 136.311 117.277 136.498 117.211 136.666C116.649 138.058 115.769 138.949 115.829 138.999Z" fill="#6F4439"/>
<path d="M120.035 136.261C120.041 136.29 120.24 136.282 120.509 136.122C120.774 135.967 121.098 135.63 121.207 135.151C121.313 134.671 121.164 134.229 120.991 133.977C120.816 133.718 120.639 133.627 120.622 133.65C120.594 133.679 120.718 133.813 120.835 134.064C120.953 134.311 121.05 134.695 120.961 135.096C120.87 135.497 120.618 135.803 120.406 135.977C120.192 136.156 120.023 136.224 120.035 136.261Z" fill="#6F4439"/>
<path d="M122.745 133.444C122.82 133.45 122.908 132.586 122.859 131.529C122.814 130.473 122.716 129.623 122.649 129.625C122.576 129.627 122.562 130.487 122.606 131.539C122.655 132.592 122.681 133.439 122.745 133.444Z" fill="#6F4439"/>
<path d="M77.0605 213.817C77.0605 213.817 31.0519 214.013 30.0788 213.817C29.1057 213.622 35.5482 189.515 35.5482 189.515L73.0447 188.187L77.0605 213.817Z" fill="#263238"/>
<path d="M76.3125 139.135L73.3356 118.479C71.9876 102.365 72.2913 82.7853 69.8836 77.6756C65.4361 68.2369 51.9864 68.0073 51.9864 68.0073C34.1279 67.636 31.6417 81.4116 30.4753 93.9039C30.2777 96.0227 29.5705 99.8065 28.6478 104.186C26.4716 113.318 23.6308 122.724 17.3607 129.173C14.968 131.634 13.448 135.002 13.0484 138.405C12.6493 141.807 14.6565 145.783 18.0742 146.176C16.4273 147.904 15.6388 150.407 15.9982 152.762C16.3576 155.117 17.8582 157.273 19.9462 158.436C22.8887 160.074 26.5089 159.68 29.8335 159.127C33.1364 158.578 36.5894 157.838 39.1018 155.633C41.6195 153.424 42.7927 150.089 43.651 146.858C44.6841 142.968 45.4039 138.995 45.8102 134.992L76.3125 139.135Z" fill="#263238"/>
<path d="M54.6094 72.8995L53.4426 71.8992L41.6576 77.333C39.9221 77.5168 38.6158 78.9922 38.6511 80.7305L42.4388 120.739C42.558 123.387 41.5084 124.671 43.2206 126.7L54.9761 140.21C59.0859 145.08 58.1637 133.948 60.9304 128.214C61.1236 127.813 60.1273 126.407 60.1772 126.126C60.2242 125.775 60.3075 125.541 60.3118 125.244C60.5104 122.086 60.3922 119.362 60.3922 119.362C60.4315 115.903 60.4305 114.485 60.4324 114.517C60.4324 114.517 67.7579 113.302 69.2711 103.783C70.0238 99.0492 69.5094 92.6145 68.9088 86.2864C68.0776 77.5279 61.6942 72.5334 54.6094 72.8995Z" fill="#FFBF9D"/>
<path d="M54.927 93.1221C54.9502 93.767 54.4213 94.3178 53.7456 94.354C53.0714 94.3906 52.5047 93.8991 52.4815 93.2543C52.4587 92.6099 52.9876 92.0581 53.6614 92.0215C54.337 91.9848 54.9037 92.4777 54.927 93.1221Z" fill="#263238"/>
<path d="M67.0637 92.4866C67.087 93.1315 66.558 93.6823 65.8824 93.719C65.2081 93.7551 64.6414 93.2636 64.6182 92.6188C64.5949 91.9744 65.1243 91.4226 65.7981 91.386C66.4742 91.3493 67.041 91.8422 67.0637 92.4866Z" fill="#263238"/>
<path d="M67.7636 88.8575C67.612 89.0166 66.6825 88.3332 65.3636 88.3366C64.0461 88.3216 63.0779 88.9983 62.935 88.8372C62.8643 88.7658 63.0193 88.4784 63.4407 88.1726C63.8553 87.8682 64.5634 87.5721 65.3849 87.575C66.2064 87.5793 66.8981 87.8803 67.2952 88.1885C67.7011 88.4981 67.8387 88.7856 67.7636 88.8575Z" fill="#263238"/>
<path d="M54.4237 89.6652C54.2556 89.8079 53.4007 89.0328 52.0891 88.9021C50.7803 88.7521 49.7477 89.3261 49.6217 89.152C49.5597 89.0738 49.7414 88.8037 50.1938 88.5428C50.6379 88.2823 51.3722 88.06 52.1888 88.1468C53.006 88.2351 53.6623 88.605 54.026 88.9523C54.397 89.301 54.5051 89.602 54.4237 89.6652Z" fill="#263238"/>
<path d="M59.5005 98.9718C59.4942 98.897 60.3143 98.7557 61.6429 98.5859C61.9795 98.5512 62.2987 98.4842 62.3554 98.2556C62.4348 98.0129 62.2939 97.6517 62.1302 97.2615C61.8129 96.4497 61.4811 95.5994 61.1328 94.7076C59.7481 91.0718 58.7449 88.0819 58.8927 88.0279C59.0404 87.9734 60.2828 90.8765 61.6676 94.5122C62.0008 95.4089 62.32 96.2636 62.6227 97.0811C62.7506 97.4621 62.97 97.8948 62.7981 98.3974C62.7075 98.6482 62.4605 98.83 62.2445 98.8884C62.0284 98.954 61.839 98.9578 61.6724 98.9675C60.3351 99.0403 59.5054 99.0466 59.5005 98.9718Z" fill="#263238"/>
<path d="M60.4277 114.515C60.4277 114.515 53.9978 114.931 47.6251 111.121C47.6251 111.121 50.8466 117.709 60.4132 116.813L60.4277 114.515Z" fill="#6F4439"/>
<path d="M57.8488 101.44C57.3741 100.816 55.9627 99.8449 55.1373 99.9337C54.5648 99.9954 54.186 100.408 53.8387 100.872C53.4914 101.336 53.8552 102.613 54.1715 103.056C54.528 103.554 55.2172 103.922 55.8464 103.744C56.4761 103.565 57.2947 102.637 57.8091 102.225C57.951 102.111 58.0968 101.993 58.1854 101.836C58.275 101.681 57.9582 101.57 57.8488 101.44Z" fill="#6F4439"/>
<path d="M55.4234 84.4963C55.2578 84.8387 53.9645 84.5372 52.4063 84.5657C50.8467 84.5628 49.5593 84.8855 49.3878 84.5464C49.3122 84.3843 49.5626 84.0723 50.1003 83.7795C50.6331 83.4867 51.4604 83.2408 52.3952 83.2321C53.33 83.2253 54.1612 83.4573 54.6988 83.7414C55.2403 84.025 55.4961 84.3327 55.4234 84.4963Z" fill="#263238"/>
<path d="M67.2982 83.2376C67.0666 83.5356 66.1575 83.227 65.0648 83.2125C63.9725 83.1604 63.0469 83.4136 62.8338 83.102C62.7403 82.9506 62.8861 82.6515 63.2901 82.3689C63.6882 82.0872 64.3547 81.8572 65.1059 81.8789C65.8567 81.9025 66.5077 82.1726 66.8874 82.4779C67.2735 82.7847 67.4004 83.0919 67.2982 83.2376Z" fill="#263238"/>
<path d="M39.7407 97.3762C39.7407 97.3762 46.5857 99.1251 49.5578 82.3706C50.574 76.6415 55.6133 71.7898 55.6133 71.7898L53.4424 71.2568C53.4424 71.2568 40.3423 75.6547 40.1272 75.8327C39.9122 76.0106 37.1223 82.8457 37.1223 82.8457L39.7407 97.3762Z" fill="#263238"/>
<path d="M41.371 96.6754C41.369 95.9668 40.5451 94.296 39.8423 94.187C37.9649 93.8967 34.5817 94.0481 34.5521 98.7957C34.5124 105.285 41.0634 103.986 41.076 103.801C41.0857 103.655 41.3778 99.1232 41.371 96.6754Z" fill="#FFBF9D"/>
<path d="M39.0937 101.329C39.0652 101.308 38.9799 101.407 38.7871 101.494C38.5997 101.578 38.2771 101.635 37.9385 101.506C37.2512 101.25 36.6787 100.158 36.654 98.9882C36.6409 98.3974 36.7688 97.8355 36.9819 97.371C37.1839 96.8978 37.4939 96.5674 37.8412 96.5086C38.1865 96.4314 38.4307 96.6393 38.5091 96.8221C38.5953 97.0044 38.5532 97.1337 38.5876 97.1448C38.6055 97.1616 38.728 97.0372 38.6772 96.769C38.651 96.6398 38.5755 96.4859 38.4234 96.3605C38.2679 96.2327 38.0383 96.1671 37.7966 96.1912C37.2938 96.223 36.8385 96.6808 36.6046 97.1906C36.343 97.7023 36.1851 98.3337 36.2002 98.9969C36.2336 100.305 36.8986 101.532 37.8392 101.81C38.2965 101.931 38.6801 101.796 38.8787 101.644C39.0811 101.486 39.116 101.341 39.0937 101.329Z" fill="#6F4439"/>
<path d="M44.1449 93.9787C44.141 93.9574 44.5018 93.9377 45.1083 93.7341C45.7113 93.5325 46.5507 93.0917 47.3547 92.2804C47.7543 91.8752 48.1433 91.3833 48.4901 90.8117C48.8301 90.2363 49.128 89.5823 49.376 88.8708C49.8807 87.448 50.1669 85.8042 50.5365 84.0944C50.9071 82.3836 51.3212 80.7649 51.7925 79.3198C52.2565 77.8734 52.7878 76.6077 53.3003 75.5785C53.8142 74.5497 54.3073 73.7582 54.673 73.2295C54.8517 72.9628 55.0096 72.7684 55.1094 72.6319C55.2121 72.4978 55.2683 72.4289 55.2731 72.4322C55.2779 72.4361 55.231 72.5114 55.138 72.6522C55.0474 72.795 54.8987 72.9946 54.7292 73.2662C54.3819 73.804 53.9077 74.6013 53.4102 75.6315C52.9152 76.6618 52.3979 77.925 51.9446 79.3676C51.4839 80.8083 51.0756 82.4226 50.706 84.1301C50.337 85.8346 50.0449 87.4856 49.5266 88.9229C49.2718 89.6411 48.9648 90.3019 48.6131 90.8846C48.2547 91.4629 47.8531 91.9592 47.4414 92.3658C46.6122 93.1804 45.7476 93.6131 45.1301 93.7973C44.5077 93.9845 44.1449 93.9787 44.1449 93.9787Z" fill="#263238"/>
<path d="M55.7619 103.845C55.7754 103.779 55.2068 103.802 54.5989 103.272C54.3059 103.015 54.0201 102.613 53.945 102.115C53.8671 101.623 54.0346 101.04 54.4212 100.6C54.6537 100.332 54.9515 100.141 55.2552 100.046L55.1312 100.039C56.9776 100.804 58.112 101.801 58.1755 101.72C58.2336 101.673 57.1719 100.536 55.2751 99.703L55.216 99.677L55.1511 99.6958C54.7748 99.8053 54.4125 100.034 54.1364 100.353C53.6777 100.875 53.4864 101.574 53.6016 102.172C53.7155 102.774 54.0782 103.216 54.4304 103.479C55.17 104.017 55.7847 103.878 55.7619 103.845Z" fill="#263238"/>
<path d="M29.2365 191.328C35.1089 193.911 41.8605 194.643 48.192 193.382C52.7576 192.473 54.977 193.535 59.6172 193.985C62.3606 194.251 67.2682 192.362 70.0247 192.282C72.7512 192.203 75.4103 190.898 77.0605 188.83L71.4802 134.705L66.0534 120.362L60.4333 119.649C60.4333 119.649 60.8678 125.641 52.252 126.17C43.6356 126.699 42.5633 119.852 42.5633 119.852C42.5633 119.852 26.1254 123.054 26.2645 123.554C26.4035 124.053 36.0772 178.165 36.0772 178.165L29.2365 191.328Z" fill="white"/>
<path d="M40.5675 117.878C40.8387 118.652 44.8527 161.238 45.2595 172.473C45.6664 183.707 41.4384 213.904 41.4384 213.904L17.6847 213.737L27.3439 178.575L23.0302 123.723L36.835 120.362L40.5675 117.878Z" fill="#0B622F"/>
<path opacity="0.3" d="M43.4265 162.099C43.4265 162.099 44.0494 172.28 40.5135 176.731C36.9777 181.182 33.6322 181.963 30.4397 182.228C28.2238 182.413 26.5091 181.616 26.5091 181.616L28.216 175.181L43.4265 162.099Z" fill="black"/>
<path d="M24.516 123.362C24.516 123.362 16.2029 125.915 15.1508 136.04C14.2954 144.279 19.5052 169.877 21.3725 173.495C24.098 178.775 28.1744 182.212 36.4773 177.639C39.3816 176.04 42.5164 170.354 43.4705 161.704C44.7149 150.421 45.2617 137.074 45.2617 137.074L35.3604 135.524L30.4112 149.349L24.516 123.362Z" fill="#0B622F"/>
<path d="M29.1894 179.735C29.1894 179.735 29.2703 179.741 29.4292 179.741C29.5987 179.739 29.8326 179.737 30.1339 179.734C30.4434 179.725 30.8294 179.744 31.2765 179.66C31.5017 179.628 31.7434 179.594 32.0016 179.558C32.1304 179.537 32.2661 179.526 32.4012 179.495C32.5354 179.458 32.6734 179.42 32.8153 179.381C33.1001 179.302 33.4004 179.219 33.7158 179.132C34.0224 179.018 34.3353 178.875 34.6675 178.738C34.8303 178.663 35.0085 178.609 35.1684 178.511C35.3301 178.417 35.4953 178.321 35.6639 178.223C35.8324 178.125 36.0039 178.025 36.1787 177.923C36.3541 177.822 36.5076 177.682 36.6776 177.56C38.0329 176.574 39.3315 175.123 40.3782 173.297C41.4234 171.473 42.2677 169.301 42.7942 166.889C43.3371 164.476 43.5755 161.848 43.8385 159.095C44.3315 153.582 44.7185 147.511 45.0736 141.137C45.1472 139.739 45.2194 138.355 45.2911 136.991L45.2969 136.878L45.183 136.862C40.4189 136.188 35.8678 135.545 31.6422 134.948L31.5327 134.933L31.5114 135.041C31.1055 137.091 30.7147 139.065 30.3412 140.951C29.9881 142.841 29.5745 144.623 29.1686 146.301C28.3563 149.657 27.605 152.602 27.0955 155.067C26.0541 159.996 25.9287 162.946 25.9287 162.946C25.9321 162.946 25.9398 162.901 25.9519 162.811C25.9645 162.712 25.981 162.581 26.0018 162.413C26.0425 162.061 26.1006 161.54 26.196 160.866C26.3801 159.517 26.694 157.551 27.234 155.096C27.7629 152.64 28.5307 149.702 29.3584 146.347C29.7716 144.67 30.1935 142.885 30.5529 140.996C30.9317 139.111 31.3283 137.136 31.74 135.086L31.6093 135.178C35.8344 135.781 40.3845 136.43 45.1477 137.11L45.0402 136.98C44.9685 138.343 44.8953 139.726 44.8217 141.124C44.4667 147.496 44.0865 153.567 43.6069 159.076C43.3507 161.827 43.1202 164.45 42.5903 166.844C42.0763 169.242 41.2481 171.398 40.2232 173.21C39.1963 175.022 37.9239 176.463 36.5934 177.448C36.4263 177.57 36.2756 177.709 36.1032 177.811C35.9312 177.913 35.7627 178.013 35.597 178.111C35.4314 178.209 35.2691 178.306 35.1102 178.4C34.9528 178.499 34.7775 178.553 34.6172 178.629C34.2902 178.768 33.9817 178.913 33.6794 179.028C33.368 179.119 33.0716 179.204 32.7906 179.286C32.6502 179.326 32.5136 179.366 32.3809 179.404C32.2472 179.436 32.113 179.45 31.9851 179.472C31.7294 179.513 31.4896 179.55 31.2663 179.586C30.8227 179.677 30.4391 179.666 30.131 179.683C29.8307 179.696 29.5972 179.707 29.4287 179.715C29.2713 179.724 29.1894 179.735 29.1894 179.735Z" fill="#263238"/>
<path d="M26.6396 130.886C26.5718 130.901 27.1957 133.953 28.0331 137.702C28.8711 141.452 29.6049 144.479 29.6727 144.463C29.7405 144.449 29.1166 141.397 28.2792 137.647C27.4422 133.899 26.7079 130.871 26.6396 130.886Z" fill="#263238"/>
<path opacity="0.3" d="M79.832 214L68.0533 213.818C68.0533 213.818 58.8727 173.963 62.178 157.403" fill="black"/>
<path d="M73.0444 120.946C73.0444 120.946 78.664 121.814 82.3495 127.675C85.7187 133.032 86.7543 153.628 86.7543 153.628L97.0862 138.446L107.684 144.554C107.684 144.554 94.5477 172.53 93.1881 175.457C89.6832 182.999 82.7544 181.802 77.486 180.206C72.2181 178.61 75.8271 138.525 75.8271 138.525L73.0444 120.946Z" fill="#0B622F"/>
<path d="M75.7525 178.103C75.8862 178.132 84.5176 213.476 84.5176 213.476C84.5176 214.365 72.7316 213.863 71.0179 213.817C71.0179 213.817 65.2051 191.744 63.5602 178.435C61.9153 165.125 60.4142 117.252 60.4142 117.252L64.6737 119.963L73.044 120.946L78.4412 138.268C82.0309 149.788 81.6221 162.176 77.2817 173.437L75.7525 178.103Z" fill="#0B622F"/>
<path d="M63.41 168.936C63.4139 168.938 63.4396 168.903 63.4861 168.831C63.5393 168.746 63.6052 168.64 63.6875 168.509C63.8508 168.219 64.1424 167.817 64.4155 167.244C65.0287 166.132 65.7519 164.433 66.3917 162.256C67.0359 160.08 67.5276 157.413 67.8153 154.431C68.118 151.449 68.195 148.153 68.1747 144.7C68.1999 141.241 67.8317 137.948 67.3353 134.998C66.8485 132.042 66.2944 129.405 65.8754 127.183C65.4511 124.962 65.1426 123.159 64.9643 121.907C64.8641 121.283 64.8103 120.795 64.7599 120.465C64.7367 120.313 64.7183 120.189 64.7033 120.09C64.6892 120.006 64.6795 119.963 64.6752 119.964C64.6708 119.964 64.6718 120.008 64.6776 120.093C64.6858 120.193 64.6965 120.317 64.7096 120.471C64.7439 120.802 64.7817 121.293 64.867 121.92C65.0152 123.177 65.2976 124.988 65.7001 127.215C66.0973 129.443 66.633 132.084 67.1062 135.034C67.5891 137.983 67.948 141.251 67.9228 144.702C67.9427 148.149 67.8729 151.437 67.5842 154.408C67.3101 157.38 66.8388 160.037 66.2203 162.207C65.6061 164.378 64.912 166.078 64.3284 167.199C64.0697 167.776 63.7931 168.185 63.6444 168.483C63.5713 168.619 63.5122 168.729 63.4647 168.817C63.4245 168.894 63.4061 168.934 63.41 168.936Z" fill="#263238"/>
<path d="M77.8753 186.44C77.8797 186.439 77.8714 186.386 77.8501 186.284C77.8245 186.169 77.7915 186.021 77.7504 185.836C77.6525 185.425 77.5154 184.85 77.3415 184.119C76.9705 182.614 76.4416 180.47 75.7916 177.834L75.7892 177.887C76.5399 175.729 77.3653 173.188 78.1621 170.361C78.9516 167.534 79.7266 164.421 80.271 161.112C80.5635 159.326 80.7776 157.552 80.7471 155.836C80.7321 154.123 80.5955 152.477 80.4245 150.916C80.053 147.795 79.5425 145.013 79.0823 142.685C78.6082 140.375 78.2231 138.5 77.9528 137.181C77.8249 136.546 77.7247 136.045 77.6525 135.684C77.6196 135.525 77.5929 135.397 77.5716 135.295C77.5522 135.208 77.5401 135.163 77.5358 135.164C77.5314 135.164 77.5353 135.21 77.5464 135.299C77.561 135.402 77.5794 135.532 77.6026 135.693C77.652 136.039 77.7392 136.547 77.8569 137.2C78.1088 138.522 78.4667 140.402 78.908 142.718C79.3454 145.049 79.8365 147.83 80.1944 150.941C80.3582 152.498 80.4894 154.137 80.501 155.837C80.5282 157.538 80.3146 159.288 80.023 161.071C79.481 164.366 78.7142 167.473 77.9363 170.298C77.1517 173.122 76.3428 175.664 75.6119 177.826L75.6027 177.853L75.6095 177.879C76.2934 180.507 76.8499 182.644 77.2403 184.145C77.435 184.87 77.5886 185.441 77.698 185.849C77.7499 186.031 77.7915 186.177 77.824 186.291C77.853 186.391 77.8705 186.441 77.8753 186.44Z" fill="#263238"/>
<path d="M80.9101 168.048C80.9275 168.049 80.9672 167.828 81.0244 167.428C81.0772 167.027 81.1721 166.451 81.3097 165.743C81.5819 164.328 82.0929 162.395 82.9483 160.368C83.809 158.342 84.8426 156.628 85.6699 155.445C86.0826 154.854 86.4313 154.383 86.6822 154.066C86.9298 153.746 87.061 153.563 87.0479 153.552C87.0349 153.541 86.8784 153.702 86.6067 154.004C86.3316 154.303 85.9591 154.759 85.5251 155.342C84.6547 156.506 83.5857 158.224 82.7163 160.27C81.8522 162.318 81.3635 164.279 81.1348 165.712C81.0186 166.429 80.9503 167.013 80.9275 167.418C80.8994 167.822 80.8927 168.046 80.9101 168.048Z" fill="#263238"/>
<path d="M39.1446 88.9984C39.1446 89.2097 46.873 112.669 46.873 112.669L42.213 120.433L40.7594 120.08L34.2617 98.5836C34.2617 98.5836 37.3752 89.2097 37.7293 88.9984C38.0828 88.7867 39.1446 88.9984 39.1446 88.9984Z" fill="#455A64"/>
<path d="M34.5783 125.83C34.5783 125.83 34.0068 120.903 33.1243 118.608C32.2413 116.314 32.4297 114.866 32.4297 113.506C32.4297 112.441 33.2371 110.518 33.2371 110.518C33.2371 110.518 35.3514 103.123 35.611 101.934C35.8706 100.744 35.5131 98.4727 36.8117 98.5243C38.1098 98.5759 38.4217 99.5068 38.4217 101.265C38.4217 103.024 38.058 103.644 38.058 103.644C38.058 103.644 40.395 102.145 41.6931 102.248C42.9912 102.351 45.7438 103.282 45.7438 103.282C45.7438 103.282 46.7252 105.395 42.8876 104.885C42.1087 104.782 40.8101 105.558 40.8101 105.558L45.2764 105.971L47.5098 108.764C47.5098 108.764 46.6792 110.367 44.238 108.454L40.9661 108.299L39.3042 111.815L42.424 109.973L46.5789 110.748L48.0208 113.506C48.0208 113.506 48.2369 114.504 46.9906 114.142C45.7443 113.78 45.0812 112.521 45.0812 112.521L42.8357 112.849L41.1739 115.021C41.1739 115.021 42.6798 121.899 42.472 124.278C42.2642 126.657 41.6413 128.777 41.6413 128.777L41.3948 136.469L32.6898 135.181L34.5783 125.83Z" fill="#FFBF9D"/>
<path d="M34.5777 125.83C34.5777 125.83 34.5612 125.882 34.537 125.986C34.5123 126.097 34.4788 126.25 34.4348 126.449C34.3466 126.867 34.2187 127.471 34.0516 128.26C33.7218 129.857 33.2403 132.188 32.6247 135.169L32.6107 135.236L32.6794 135.247C35.1182 135.614 38.0563 136.056 41.381 136.556L41.4784 136.571L41.4818 136.472C41.5602 134.148 41.6479 131.552 41.7414 128.781L41.7375 128.806C42.0233 127.787 42.249 126.726 42.4176 125.623C42.4946 125.069 42.5779 124.514 42.5929 123.933C42.6031 123.355 42.5643 122.776 42.5038 122.194C42.2572 119.866 41.8043 117.467 41.287 114.997L41.2657 115.092C41.7816 114.419 42.3522 113.675 42.929 112.921L42.852 112.967C43.5485 112.865 44.3196 112.753 45.0975 112.64L44.9735 112.577C45.3092 113.157 45.7839 113.684 46.4179 114.035C46.7386 114.2 47.0795 114.336 47.4724 114.341C47.6613 114.343 47.9044 114.282 48.0371 114.087C48.1645 113.894 48.1727 113.685 48.1398 113.481L48.1374 113.468L48.1287 113.451C47.6777 112.587 47.1851 111.644 46.6882 110.693L46.6606 110.64L46.6015 110.629C45.2918 110.384 43.8769 110.119 42.4471 109.852L42.4006 109.843L42.3599 109.867C41.3742 110.449 40.3111 111.076 39.2396 111.709L39.4179 111.87C39.9454 110.754 40.5106 109.558 41.0797 108.354L40.9596 108.426C40.979 108.427 40.9998 108.428 41.0206 108.429C42.0979 108.48 43.1683 108.531 44.2315 108.581L44.1598 108.554C44.666 108.935 45.2065 109.303 45.8483 109.454C46.1631 109.536 46.5114 109.548 46.8354 109.444C47.1585 109.334 47.4385 109.129 47.6211 108.823L47.6613 108.755L47.6075 108.688C46.8558 107.748 46.1108 106.817 45.3736 105.896L45.3407 105.855L45.2879 105.85C43.7776 105.71 42.2887 105.573 40.8216 105.438L40.8734 105.664C41.3302 105.405 41.8198 105.174 42.3183 105.054C42.4427 105.026 42.5682 105.004 42.6902 105.001C42.807 104.997 42.931 105.013 43.0705 105.027C43.3378 105.055 43.6047 105.083 43.8745 105.08C44.4063 105.081 44.9701 105.053 45.4618 104.753C45.702 104.605 45.8982 104.35 45.9495 104.063C46.0023 103.776 45.9616 103.498 45.8522 103.235L45.8333 103.189L45.7824 103.172C45.1101 102.95 44.4417 102.745 43.7713 102.563C43.1 102.385 42.435 102.21 41.7428 102.139C41.3815 102.108 41.0328 102.179 40.7039 102.27C40.3731 102.362 40.0568 102.484 39.7497 102.619C39.1345 102.889 38.5552 103.205 37.9973 103.552L38.1547 103.702C38.3668 103.247 38.4235 102.8 38.4792 102.345C38.5252 101.893 38.5364 101.444 38.5272 101C38.5175 100.555 38.4865 100.109 38.3731 99.6736C38.268 99.2453 38.0137 98.7958 37.5807 98.598C37.3729 98.4958 37.1472 98.4461 36.9278 98.4321C36.8207 98.4153 36.6992 98.4316 36.5829 98.4403C36.4696 98.4741 36.348 98.504 36.2555 98.5831C36.0584 98.7225 35.9387 98.9333 35.869 99.1368C35.79 99.3423 35.7542 99.5516 35.7193 99.759C35.5958 100.587 35.668 101.4 35.4495 102.15C34.6135 105.195 33.8463 107.99 33.158 110.498L33.1614 110.489C32.9289 111.064 32.7308 111.633 32.5753 112.201C32.4988 112.485 32.4324 112.768 32.3912 113.054C32.3452 113.342 32.3578 113.63 32.352 113.901C32.3186 115 32.3496 116.054 32.5709 117.004C32.7676 117.961 33.1614 118.78 33.3793 119.567C33.606 120.355 33.763 121.088 33.8957 121.746C34.1577 123.063 34.3132 124.088 34.4183 124.78C34.4687 125.121 34.5069 125.382 34.5345 125.566C34.5597 125.74 34.5777 125.83 34.5777 125.83C34.5777 125.83 34.5748 125.738 34.5563 125.56C34.5345 125.375 34.5031 125.113 34.4629 124.771C34.3723 124.076 34.2309 123.049 33.9824 121.726C33.856 121.065 33.7058 120.33 33.484 119.534C33.2684 118.733 32.8829 117.918 32.6964 116.974C32.4842 116.034 32.4595 115.002 32.4988 113.9C32.506 113.621 32.4954 113.347 32.5409 113.073C32.5821 112.796 32.6489 112.518 32.7255 112.239C32.8809 111.681 33.081 111.115 33.3125 110.549L33.3144 110.544L33.3154 110.54C34.0143 108.031 34.7932 105.235 35.6418 102.189C35.868 101.412 35.7987 100.581 35.9213 99.7855C35.9871 99.4016 36.0763 98.9632 36.3756 98.749C36.5204 98.6386 36.7069 98.6169 36.9089 98.6376C37.1114 98.6506 37.3104 98.6969 37.4858 98.7842C37.8476 98.9506 38.0636 99.323 38.1644 99.7262C38.2695 100.131 38.3 100.565 38.3082 101.001C38.316 101.438 38.3039 101.88 38.2583 102.32C38.2089 102.751 38.1348 103.215 37.9604 103.588L37.7972 103.936L38.1179 103.738C38.6623 103.4 39.2396 103.087 39.8403 102.825C40.437 102.572 41.0826 102.327 41.7215 102.367C42.3793 102.435 43.0453 102.609 43.7089 102.786C44.3729 102.968 45.0399 103.173 45.7054 103.394L45.6357 103.332C45.7224 103.54 45.7592 103.794 45.7151 104.014C45.673 104.239 45.5291 104.427 45.3305 104.552C44.9241 104.804 44.3875 104.843 43.8774 104.838C43.6188 104.841 43.3587 104.813 43.0976 104.785C42.9731 104.774 42.8322 104.753 42.6825 104.758C42.5382 104.762 42.3991 104.786 42.2635 104.817C41.7215 104.948 41.2289 105.182 40.7475 105.454L40.4104 105.644L40.7993 105.68C42.2664 105.817 43.7554 105.955 45.2651 106.095L45.1794 106.049C45.9161 106.971 46.6606 107.902 47.4118 108.842L47.3987 108.707C47.2651 108.93 47.0219 109.119 46.7589 109.205C46.491 109.291 46.1922 109.284 45.9069 109.209C45.3286 109.075 44.8045 108.724 44.3163 108.355L44.2833 108.33L44.2441 108.328C43.1814 108.278 42.1105 108.227 41.0332 108.176C41.0124 108.175 40.9916 108.174 40.9722 108.173L40.8879 108.169L40.8521 108.246C40.283 109.45 39.7177 110.646 39.1907 111.762L39.0159 112.132L39.3685 111.923C40.4399 111.29 41.5026 110.662 42.4883 110.08L42.4016 110.096C43.8314 110.362 45.2462 110.626 46.5564 110.87L46.4692 110.806C46.9672 111.757 47.4602 112.7 47.9122 113.563L47.901 113.533C47.9257 113.674 47.9112 113.846 47.8371 113.949C47.7664 114.054 47.6259 114.098 47.4704 114.098C47.1556 114.098 46.8214 113.974 46.5351 113.823C45.9558 113.507 45.4947 112.996 45.1881 112.467L45.145 112.392L45.0641 112.404C44.2862 112.518 43.5151 112.632 42.8191 112.734L42.7711 112.741L42.7416 112.779C42.1657 113.533 41.5966 114.278 41.0817 114.953L41.0492 114.995L41.0604 115.048C41.5801 117.509 42.0368 119.907 42.2863 122.217C42.3478 122.794 42.387 123.368 42.3788 123.928C42.3662 124.486 42.2844 125.048 42.2098 125.593C42.046 126.686 41.8232 127.746 41.5447 128.751L41.5409 128.764L41.5404 128.776C41.4566 131.548 41.3776 134.144 41.3074 136.468L41.4081 136.384C38.0815 135.901 35.141 135.473 32.7003 135.119L32.755 135.196C33.3449 132.207 33.8061 129.868 34.1224 128.267C34.2744 127.477 34.3912 126.871 34.4716 126.452C34.5079 126.253 34.536 126.1 34.5563 125.988C34.5733 125.883 34.5777 125.83 34.5777 125.83Z" fill="#6F4439"/>
<path d="M41.4023 105.632C41.4043 105.615 41.2793 105.585 41.0502 105.55C40.8211 105.519 40.4864 105.477 40.0655 105.495C39.6523 105.515 39.12 105.601 38.655 105.958C38.4133 106.148 38.2632 106.408 38.1106 106.664C37.9614 106.925 37.8248 107.2 37.681 107.475C37.4117 108.016 37.0058 108.468 36.6909 108.908C36.3635 109.342 36.0777 109.744 35.8694 110.105C35.6612 110.464 35.5304 110.789 35.5212 111.034C35.511 111.285 35.6321 111.392 35.634 111.382C35.6573 111.369 35.5808 111.258 35.6185 111.044C35.6544 110.83 35.7997 110.535 36.0211 110.198C36.2424 109.859 36.5384 109.474 36.875 109.049C37.1995 108.615 37.6102 108.174 37.9043 107.591C38.1992 107.046 38.4337 106.465 38.7994 106.139C39.1985 105.816 39.6819 105.713 40.0786 105.673C40.885 105.609 41.4004 105.679 41.4023 105.632Z" fill="#6F4439"/>
<path d="M34.7685 107.407C34.8237 107.427 35.1787 106.29 36.1353 105.219C36.5916 104.668 37.1627 104.377 37.5739 104.117C37.9875 103.862 38.1769 103.609 38.1498 103.589C38.1227 103.565 37.9076 103.756 37.4843 103.964C37.2755 104.073 37.0178 104.194 36.7427 104.364C36.4637 104.534 36.193 104.776 35.9469 105.053C35.4533 105.609 35.1308 106.202 34.9496 106.649C34.7685 107.099 34.7375 107.401 34.7685 107.407Z" fill="#6F4439"/>
<path d="M36.9546 115.461C36.9842 115.44 36.882 115.263 36.9231 114.944C36.9643 114.626 37.0578 114.177 37.2443 113.717C37.6109 112.784 38.2125 112.198 38.1587 112.146C38.1253 112.09 37.4051 112.628 37.0103 113.624C36.8127 114.114 36.7425 114.589 36.7454 114.939C36.7478 115.304 36.9323 115.49 36.9546 115.461Z" fill="#6F4439"/>
<g opacity="0.3">
<path d="M67.9663 151.755C68.2744 154.661 68.5819 157.606 68.1344 160.495C67.6873 163.383 66.3917 166.257 64.0435 168.01C66.2013 163.176 67.9789 157.775 67.8302 152.343" fill="black"/>
</g>
</g>
<defs>
<clipPath id="clip0_8502_26583">
<rect width="155" height="225" fill="white"/>
</clipPath>
</defs>
</svg>
