<svg width="24" height="24" viewBox="0 0 24 24" fill="none" xmlns="http://www.w3.org/2000/svg">
<path fill-rule="evenodd" clip-rule="evenodd" d="M6.79279 6.79259C6.98031 6.60512 7.23462 6.49981 7.49979 6.49981C7.76495 6.49981 8.01926 6.60512 8.20679 6.79259L11.9998 10.5856L15.7928 6.79259C15.885 6.69708 15.9954 6.6209 16.1174 6.56849C16.2394 6.51608 16.3706 6.4885 16.5034 6.48734C16.6362 6.48619 16.7678 6.51149 16.8907 6.56177C17.0136 6.61205 17.1253 6.68631 17.2192 6.7802C17.3131 6.87409 17.3873 6.98574 17.4376 7.10864C17.4879 7.23154 17.5132 7.36321 17.512 7.49599C17.5109 7.62877 17.4833 7.75999 17.4309 7.882C17.3785 8.004 17.3023 8.11435 17.2068 8.20659L13.4138 11.9996L17.2068 15.7926C17.3889 15.9812 17.4897 16.2338 17.4875 16.496C17.4852 16.7582 17.38 17.009 17.1946 17.1944C17.0092 17.3798 16.7584 17.485 16.4962 17.4873C16.234 17.4895 15.9814 17.3888 15.7928 17.2066L11.9998 13.4136L8.20679 17.2066C8.01818 17.3888 7.76558 17.4895 7.50339 17.4873C7.24119 17.485 6.99038 17.3798 6.80497 17.1944C6.61956 17.009 6.51439 16.7582 6.51211 16.496C6.50983 16.2338 6.61063 15.9812 6.79279 15.7926L10.5858 11.9996L6.79279 8.20659C6.60532 8.01907 6.5 7.76476 6.5 7.49959C6.5 7.23443 6.60532 6.98012 6.79279 6.79259Z" fill="#121212"/>
</svg>
