<svg width="24" height="24" viewBox="0 0 24 24" fill="none" xmlns="http://www.w3.org/2000/svg">
<path d="M12 15V2M12 2L15 5.5M12 2L9 5.5" stroke="#0B622F" stroke-width="1.5" stroke-linecap="round" stroke-linejoin="round"/>
<path d="M8 22H16C18.828 22 20.243 22 21.121 21.122C22 20.242 22 18.829 22 16V15C22 12.172 22 10.758 21.121 9.87895C20.353 9.11095 19.175 9.01395 17 9.00195M7 9.00195C4.825 9.01395 3.647 9.11095 2.879 9.87895C2 10.758 2 12.172 2 15V16C2 18.829 2 20.243 2.879 21.122C3.179 21.422 3.541 21.619 4 21.749" stroke="#0B622F" stroke-width="1.5" stroke-linecap="round"/>
</svg>
