<svg width="203" height="250" viewBox="0 0 203 250" fill="none" xmlns="http://www.w3.org/2000/svg">
<path d="M43.2373 25.6797L37.6318 41.211L46.5842 38.143L51.5061 45.7611L56.7616 30.2735C51.8179 28.7149 47.8639 27.4625 43.2373 25.6797Z" fill="#0B9346"/>
<path d="M51.1126 32.6962L49.2642 37.3391L47.979 36.836L47.0493 34.0251L46.2126 36.136L44.6868 35.529L46.5352 30.886L47.8204 31.3946L48.7446 34.211L49.5868 32.1001L51.1126 32.6962Z" fill="#263238"/>
<path d="M12.8366 9.38794L2.63184 22.6169L12.2733 22.0208L14.7124 30.5084L24.7312 17.0497C20.7882 14.7528 16.7905 12.2645 12.8366 9.38794Z" fill="#0B9346"/>
<path d="M14.8383 19.7459L13.2468 18.7014L12.4922 19.2483L11.0593 18.3076L15.6203 15.3271L17.0094 16.2295L16.1015 21.6108L14.6414 20.6592L14.8383 19.7459ZM15.1117 18.4717L15.3961 17.1592L14.3023 17.9412L15.1117 18.4717Z" fill="#263238"/>
<path d="M27.3015 18.4553L19.9241 33.6148L29.1772 31.2577L33.3445 39.1875L40.1148 24.5202C35.789 22.9671 31.7585 20.5717 27.3015 18.4553Z" fill="#EBEBEB"/>
<path d="M33.9897 26.221L31.7584 30.689L30.517 30.071L29.8334 27.189L28.8162 29.2179L27.3506 28.4851L29.5873 24.0171L30.8178 24.6351L31.5069 27.539L32.524 25.5046L33.9897 26.221Z" fill="#263238"/>
<path d="M59.8025 31.1538L55.9744 47.1828L64.4947 43.3164L70.1932 50.5078L73.7643 34.364C69.2198 33.5546 64.5658 32.521 59.8025 31.1538Z" fill="#EBEBEB"/>
<path d="M65.1126 36.125L66.7532 36.4969L65.6594 41.3696L64.0188 40.9977L65.1126 36.125Z" fill="#263238"/>
<path d="M76.3672 34.8999L74.7266 51.5633L82.6016 46.7508L89.1641 53.3133L90.5149 36.6444C85.9868 36.289 81.2563 35.7421 76.3672 34.8999Z" fill="#0B9346"/>
<path d="M85.8995 39.86L83.3291 44.6397L81.6885 44.4811L80.0479 39.3076L81.8526 39.4772L82.7658 42.4959L84.2588 39.7068L85.8995 39.86Z" fill="#263238"/>
<path d="M180.033 18.3024L189.604 31.7611L192.464 23.2134L201.865 24.2579L191.359 10.5859C187.63 13.0852 184.365 15.661 180.033 18.3024Z" fill="#0B9346"/>
<path d="M191.223 20.2328L192.147 21.8078L190.687 22.65L189.768 21.0586L186.558 19.2593L188.095 18.3734L189.845 19.3578V17.3453L191.256 16.5359L191.223 20.2328Z" fill="#263238"/>
<path d="M164.994 25.997L173.137 40.3635L176.856 32.1603L186.131 34.1291L177.644 19.6313C173.539 21.9676 169.317 24.0922 164.994 25.997Z" fill="#EBEBEB"/>
<path d="M175.658 30.0492L175.248 30.2516L175.795 31.3782L174.286 32.1328L172.043 27.6649L174.193 26.5711C175.44 25.9422 176.555 26.1992 177.075 27.2328C177.232 27.5176 177.303 27.8421 177.278 28.1665C177.254 28.4909 177.136 28.8012 176.938 29.0594L178.579 29.9672L176.971 30.7711L175.658 30.0492ZM174.701 27.7961L174.154 28.0695L174.701 29.1195L175.248 28.8406C175.658 28.6328 175.757 28.3375 175.598 28.0094C175.44 27.6813 175.117 27.5883 174.701 27.7961Z" fill="#263238"/>
<path d="M129.19 35.3813L133.686 51.4923L139.247 44.3829L147.762 48.5009L143.179 32.8984C138.804 34.0578 134.041 34.6102 129.19 35.3813Z" fill="#EBEBEB"/>
<path d="M136.19 42.9719L136.404 41.643C136.965 41.7906 137.554 41.7906 138.115 41.643C138.575 41.5227 138.717 41.386 138.662 41.2164C138.504 40.6094 135.961 41.8016 135.485 39.9969C135.25 39.1 135.813 38.1703 137.311 37.7766C137.94 37.5984 138.604 37.5796 139.242 37.7219L139.1 39.0508C138.627 38.9385 138.134 38.9385 137.661 39.0508C137.186 39.1766 137.065 39.357 137.115 39.5211C137.268 40.1008 139.816 38.9141 140.281 40.6969C140.516 41.5828 139.958 42.5235 138.46 42.9172C137.721 43.13 136.939 43.1489 136.19 42.9719Z" fill="#263238"/>
<path d="M148.096 31.7061L153.991 47.1336L158.913 39.5702L167.756 42.9117L161.571 27.342C157.157 29.0255 152.659 30.4821 148.096 31.7061Z" fill="#0B9346"/>
<path d="M158.913 36.2453L157.147 36.9344V37.8696L155.544 38.4766L155.774 33.0078L157.316 32.4062L161.144 36.2727L159.504 36.9071L158.913 36.2453ZM158.038 35.2828L157.147 34.2875V35.6383L158.038 35.2828Z" fill="#263238"/>
<path d="M111.783 36.9179L113.774 53.3242L120.364 47.1718L128.162 52.5367L125.581 35.8296C121.053 36.289 116.678 36.9015 111.783 36.9179Z" fill="#0B9346"/>
<path d="M119.68 44.0873L119.226 44.142L119.39 45.3889L117.717 45.6076L117.077 40.6639L119.461 40.3576C120.845 40.1771 121.818 40.7896 121.966 41.9381C122.019 42.2588 121.978 42.588 121.848 42.8859C121.718 43.1838 121.504 43.4377 121.233 43.617L122.469 45.0115L120.686 45.2412L119.68 44.0873ZM119.521 41.6428L118.914 41.7248L119.062 42.8842L119.675 42.8076C120.134 42.7475 120.325 42.4959 120.276 42.135C120.227 41.774 119.986 41.5826 119.521 41.6428Z" fill="#263238"/>
<path d="M93.6594 36.8359L94.1789 53.1821L101.365 47.5438L108.693 53.3845L108.015 37.0492C103.438 37.2133 98.5977 37.1586 93.6594 36.8359Z" fill="#EBEBEB"/>
<path d="M103.006 44.4922V45.761H98.8496V40.7461H102.913V42.0203H100.507V42.6055H102.618V43.8195H100.507V44.4922H103.006Z" fill="#263238"/>
<path d="M93.6594 36.8359L94.1789 53.1821L101.365 47.5438L108.693 53.3845L108.015 37.0492C103.438 37.2133 98.5977 37.1586 93.6594 36.8359Z" fill="#EBEBEB"/>
<path d="M103.006 44.4922V45.761H98.8496V40.7461H102.913V42.0203H100.507V42.6055H102.618V43.8195H100.507V44.4922H103.006Z" fill="#263238"/>
<path d="M199.994 3.42713C199.994 3.42713 199.863 3.56385 199.59 3.81541L198.376 4.90917C197.309 5.88261 195.751 7.35371 193.563 9.02716C192.469 9.85842 191.223 10.7444 189.872 11.7616C188.521 12.7787 187.028 13.7905 185.398 14.8678C181.731 17.3499 177.938 19.6407 174.034 21.7311L170.676 23.4648L167.094 25.1054L166.175 25.5319L165.235 25.9257L163.315 26.7132L161.357 27.539L159.334 28.2773L157.278 29.021C156.583 29.2726 155.889 29.5242 155.167 29.732L150.792 31.0773C149.31 31.4929 147.789 31.8648 146.253 32.2695C144.716 32.6742 143.152 33.0132 141.561 33.3632C138.389 34.1015 135.085 34.5992 131.717 35.1679C130.032 35.414 128.321 35.6 126.598 35.8242L124 36.1523L121.364 36.3765L116.027 36.8305L110.591 37.0875L107.856 37.2187H105.089C103.235 37.2187 101.365 37.2625 99.4892 37.2187L93.8946 36.9617L92.5055 36.9016L91.1274 36.7758L88.393 36.5187C84.7399 36.2562 81.1852 35.6492 77.6742 35.1844C75.9297 34.8781 74.207 34.5445 72.4953 34.2328C71.6421 34.0687 70.789 33.9265 69.9468 33.7515L67.4585 33.1664C65.8179 32.7726 64.1499 32.4281 62.5366 32.007L57.7733 30.6945C56.1983 30.2898 54.678 29.7703 53.1631 29.289C51.6483 28.8077 50.1553 28.3593 48.7116 27.8288C45.8186 26.7351 42.9857 25.7835 40.3334 24.6241C38.999 24.0773 37.6755 23.5304 36.4013 22.9835L32.6771 21.2499L30.8724 20.4022L29.1388 19.5054L25.7864 17.7608C18.931 14.0751 12.484 9.6757 6.55273 4.63573L1.75114 0.512265L0.504256 -0.581492C0.225348 -0.822118 0.088623 -0.953369 0.088623 -0.953369L0.520661 -0.603366L1.78941 0.452108C2.88317 1.39274 4.52381 2.77087 6.62929 4.53729C12.5803 9.53859 19.0375 13.9045 25.8958 17.5639L29.2482 19.2975L30.9818 20.1889L32.7865 21.0311L36.5107 22.7593C37.7849 23.3062 39.1084 23.853 40.4428 24.3999C43.0896 25.5538 45.9115 26.5163 48.81 27.5882C50.2537 28.1351 51.7577 28.5452 53.2616 29.0429C54.7655 29.5406 56.2913 30.0382 57.8663 30.4429L62.6241 31.7445C64.2319 32.1656 65.9054 32.5101 67.546 32.8984L70.0453 33.4453C70.8875 33.6203 71.7406 33.7625 72.5937 33.9265C74.3 34.2383 76.0172 34.5718 77.7617 34.8726C81.2672 35.3375 84.8164 35.9664 88.4641 36.2015L91.1985 36.4586L92.5766 36.5789L93.9602 36.6445L99.5439 36.8961C101.42 36.9453 103.285 36.8961 105.133 36.8961H107.9L110.635 36.7648L116.065 36.5078L121.397 36.0594L124.028 35.8351L126.62 35.5125C128.342 35.2883 130.049 35.1023 131.733 34.8562C135.085 34.3093 138.383 33.8007 141.55 33.0679C143.136 32.7343 144.711 32.4171 146.236 31.9742C147.762 31.5312 149.282 31.2031 150.764 30.7875L155.112 29.4531C155.834 29.2507 156.529 28.9992 157.218 28.7476L159.274 28.0093L161.297 27.282L163.25 26.4835L165.164 25.7015L166.11 25.3077L167.029 24.8866L170.605 23.246L173.958 21.5233C177.861 19.4448 181.658 17.1706 185.333 14.7092C186.973 13.6155 188.439 12.5709 189.817 11.6194C191.195 10.6678 192.415 9.75451 193.514 8.92872C195.701 7.28809 197.282 5.82245 198.359 4.85995L199.59 3.76619C199.847 3.54744 199.994 3.42713 199.994 3.42713Z" fill="#263238"/>
<path d="M5.14192 3.39428C4.88023 3.47306 4.61062 3.52259 4.33801 3.54194C3.59631 3.64401 2.84965 3.70608 2.10128 3.72788C1.57218 3.76082 1.04104 3.7259 0.520804 3.62397C0.434974 3.60526 0.353728 3.56965 0.281804 3.51922C0.20988 3.46878 0.148716 3.40453 0.101884 3.33021C0.0550517 3.25589 0.023482 3.17298 0.00902422 3.08634C-0.00543356 2.99969 -0.00249582 2.91103 0.0176693 2.82553C0.103642 2.67444 0.224395 2.54602 0.369907 2.45091C0.51542 2.35581 0.681509 2.29675 0.8544 2.27865C1.53815 2.10113 2.2515 2.06878 2.9485 2.1837C3.64551 2.29861 4.31072 2.55823 4.90129 2.94584L4.72082 3.16459C4.58957 3.02787 4.45833 2.88022 4.33255 2.72709C3.39449 1.58925 2.7805 0.219575 2.55519 -1.23778C2.53969 -1.42672 2.57759 -1.61621 2.66457 -1.78466C2.71996 -1.87432 2.80482 -1.94191 2.90461 -1.97584C3.00439 -2.00977 3.11288 -2.00791 3.21144 -1.97059C3.37142 -1.89372 3.50891 -1.77695 3.61066 -1.63153C3.69816 -1.50575 3.7966 -1.38543 3.87864 -1.25965C4.1986 -0.805363 4.46816 -0.317591 4.68255 0.195043C4.98595 0.938133 5.15803 1.72826 5.19114 2.53021C5.20354 2.74514 5.20354 2.9606 5.19114 3.17553C5.19114 3.32866 5.1638 3.40522 5.15286 3.39975C5.14192 3.39428 5.15286 3.08803 5.08723 2.53568C5.01369 1.75706 4.81806 0.994871 4.50754 0.277075C4.29113 -0.216878 4.02546 -0.687752 3.71457 -1.1284C3.53957 -1.35262 3.37004 -1.64794 3.16769 -1.74091C3.12261 -1.76184 3.07115 -1.76442 3.0242 -1.74809C2.97725 -1.73176 2.93849 -1.6978 2.91612 -1.6534C2.85605 -1.5295 2.83325 -1.3908 2.8505 -1.25418C3.07991 0.13806 3.6722 1.44525 4.5677 2.53568C4.68801 2.68334 4.81379 2.831 4.93957 2.95678C4.96571 2.98507 4.98023 3.02217 4.98023 3.06069C4.98023 3.0992 4.96571 3.1363 4.93957 3.16459C4.91306 3.18294 4.88158 3.19277 4.84934 3.19277C4.8171 3.19277 4.78562 3.18294 4.75911 3.16459C4.20052 2.79768 3.5722 2.55001 2.9135 2.43709C2.25479 2.32417 1.57987 2.34842 0.930963 2.50834C0.635649 2.57396 0.340334 2.68881 0.263771 2.89115C0.187208 3.0935 0.37861 3.32319 0.608299 3.38881C1.10159 3.48607 1.60415 3.52826 2.10675 3.51459C3.05285 3.51459 3.81301 3.45444 4.33801 3.41616C4.60533 3.39331 4.87375 3.386 5.14192 3.39428Z" fill="#263238"/>
<path d="M197.342 5.87694C197.342 5.87694 197.249 5.75663 197.151 5.51054C197.01 5.15695 196.904 4.79068 196.834 4.41678C196.719 3.86622 196.702 3.29969 196.784 2.74333C196.831 2.41031 196.921 2.08485 197.052 1.77536C197.124 1.61365 197.207 1.45658 197.298 1.30504C197.394 1.12037 197.54 0.966713 197.719 0.86207C197.786 0.835866 197.858 0.82813 197.928 0.839687C197.998 0.851244 198.064 0.881661 198.119 0.927696C198.201 1.00681 198.26 1.10713 198.288 1.21754C198.336 1.39672 198.369 1.57967 198.387 1.76442C198.419 2.09538 198.419 2.42877 198.387 2.75974C198.33 3.31923 198.207 3.87 198.02 4.40037C197.872 4.88806 197.659 5.35347 197.386 5.78398C197.507 5.29554 197.653 4.81365 197.823 4.34022C197.977 3.82315 198.078 3.29176 198.124 2.75427C198.151 2.44131 198.151 2.1266 198.124 1.81364C198.105 1.65113 198.074 1.49026 198.031 1.33239C197.982 1.17926 197.916 1.12457 197.845 1.15738C197.724 1.24095 197.626 1.35385 197.561 1.48551C197.474 1.62361 197.397 1.76802 197.331 1.91755C197.205 2.2048 197.114 2.50581 197.058 2.81443C196.976 3.34357 196.976 3.88216 197.058 4.41131C197.173 5.31366 197.386 5.86054 197.342 5.87694Z" fill="#263238"/>
<path d="M197.43 5.7623C197.891 5.51022 198.387 5.32603 198.901 5.21542C199.456 5.06416 200.027 4.9743 200.602 4.94745C200.944 4.93546 201.286 4.9556 201.624 5.00761C201.815 5.02991 202 5.08544 202.171 5.17167C202.271 5.22588 202.355 5.30446 202.416 5.40008C202.478 5.4957 202.514 5.60526 202.521 5.71855C202.519 5.8421 202.478 5.9618 202.403 6.06018C202.328 6.15856 202.224 6.23047 202.105 6.26543C201.927 6.32153 201.744 6.36 201.559 6.38027C201.214 6.42949 200.875 6.46777 200.552 6.48965C199.979 6.53957 199.403 6.51752 198.835 6.42402C198.305 6.37436 197.798 6.18572 197.364 5.87714C197.853 6.04007 198.354 6.16262 198.862 6.24355C199.417 6.3043 199.976 6.3043 200.53 6.24355C200.848 6.21074 201.176 6.16699 201.52 6.1123C201.865 6.05761 202.248 5.99746 202.242 5.75136C202.237 5.50527 201.909 5.3412 201.575 5.30292C201.253 5.25026 200.928 5.22646 200.602 5.23183C200.05 5.24761 199.5 5.31536 198.961 5.43417C198.015 5.61464 197.441 5.80605 197.43 5.7623Z" fill="#263238"/>
<path d="M80.0922 154.372H103.894C109.726 154.372 115.32 156.689 119.445 160.814C123.569 164.938 125.886 170.532 125.886 176.365V242.956H58.0996V176.365C58.0996 170.532 60.4167 164.938 64.5411 160.814C68.6655 156.689 74.2594 154.372 80.0922 154.372Z" fill="#455A64"/>
<path d="M67.3351 119.766C67.2873 115.782 66.6578 111.798 66.8092 107.758C66.9606 103.718 68.0204 99.5825 70.7934 96.7139C73.5664 93.8453 78.443 92.7298 81.71 95.0645L82.3793 98.4749C81.0964 113.925 81.2717 129.631 79.9888 145.082C79.8215 147.113 78.1721 148.946 77.2557 150.763C76.3393 152.58 74.4748 154.078 72.4747 153.95C69.8133 153.791 68.0682 151.09 67.2395 148.556C64.2195 139.376 67.4547 129.432 67.3351 119.766Z" fill="#263238"/>
<path d="M77.9809 94.2357C78.5131 93.2157 79.1984 92.2832 80.0129 91.4707C80.4295 91.0651 80.933 90.7596 81.4853 90.5773C82.0375 90.3951 82.6239 90.3409 83.2002 90.4189C83.4695 90.4525 83.7257 90.5543 83.9447 90.7146C84.1636 90.875 84.338 91.0886 84.4512 91.3352C84.4974 91.4595 84.5139 91.5929 84.4995 91.7247C84.4851 91.8566 84.4401 91.9832 84.3682 92.0946C84.2962 92.206 84.1993 92.2991 84.0851 92.3665C83.9708 92.4338 83.8425 92.4736 83.7102 92.4827L83.5986 92.5783C82.3954 93.6381 81.2081 94.6819 79.9332 95.6939C79.6361 95.9663 79.29 96.1799 78.9132 96.3234C78.7224 96.3928 78.5158 96.4072 78.3172 96.365C78.1185 96.3227 77.9358 96.2255 77.7897 96.0843C77.3196 95.6222 77.6383 94.8253 77.9809 94.2357Z" fill="#0B9346"/>
<path d="M75.7177 98.1719C77.5764 95.7816 79.9485 93.8395 82.6587 92.4892C85.3689 91.139 88.3479 90.415 91.3755 90.3709C94.9373 90.3151 96.4114 91.0562 98.9693 91.7414C101.524 92.3665 103.779 93.8663 105.344 95.9806C107.153 98.5543 108.683 101.439 109.025 104.578C109.473 107.785 109.628 111.025 109.487 114.26C109.335 117.515 108.29 120.666 106.467 123.368L98.2521 124.794C93.7102 124.945 89.1125 125.097 84.706 124.061C80.2995 123.025 76.0444 120.642 73.6539 116.77C70.355 111.391 71.7176 103.048 75.7177 98.1719Z" fill="#263238"/>
<path d="M83.0247 98.1163L93.9731 93.7656L96.8338 94.0923C103.272 94.0923 107.718 101.216 107.758 106.427C107.806 112.22 107.631 119.296 106.714 123.567C104.858 132.149 97.5589 132.866 97.5589 132.866C97.5589 132.866 97.7103 137.44 97.7661 140.324C91.6305 147.145 85.0168 147.496 80.0525 139.169L80.1561 101.057C80.1807 100.297 80.4888 99.5738 81.0196 99.0296C81.5505 98.4855 82.2657 98.1597 83.0247 98.1163Z" fill="#FFBF9D"/>
<path d="M104.731 112.913C104.718 113.203 104.593 113.476 104.381 113.674C104.17 113.872 103.889 113.98 103.599 113.973C103.458 113.976 103.317 113.951 103.185 113.899C103.053 113.848 102.933 113.77 102.832 113.672C102.73 113.573 102.649 113.455 102.593 113.325C102.538 113.195 102.509 113.055 102.508 112.913C102.52 112.623 102.645 112.349 102.856 112.15C103.068 111.95 103.349 111.841 103.639 111.845C103.781 111.842 103.923 111.868 104.055 111.92C104.187 111.972 104.308 112.05 104.41 112.15C104.511 112.249 104.592 112.368 104.647 112.499C104.702 112.63 104.731 112.771 104.731 112.913Z" fill="#263238"/>
<path d="M105.798 109.328C105.647 109.463 104.842 108.794 103.647 108.73C102.451 108.667 101.543 109.224 101.424 109.065C101.304 108.906 101.511 108.746 101.91 108.491C102.445 108.157 103.073 108.001 103.702 108.045C104.324 108.072 104.92 108.301 105.4 108.698C105.758 108.993 105.862 109.264 105.798 109.328Z" fill="#263238"/>
<path d="M98.1166 118.73C98.758 118.572 99.4162 118.492 100.077 118.491C100.38 118.491 100.674 118.428 100.738 118.22C100.78 117.908 100.725 117.591 100.579 117.312L99.782 114.922C98.7143 111.543 97.9493 108.77 98.0927 108.73C98.2362 108.69 99.2083 111.392 100.276 114.77C100.531 115.567 100.778 116.364 101.017 117.161C101.188 117.541 101.219 117.97 101.105 118.372C101.052 118.475 100.978 118.565 100.887 118.637C100.797 118.708 100.691 118.759 100.579 118.786C100.408 118.82 100.235 118.836 100.061 118.834C99.411 118.882 98.7578 118.847 98.1166 118.73Z" fill="#263238"/>
<path d="M97.5588 132.858C93.4758 132.696 89.5176 131.405 86.1243 129.129C86.1243 129.129 88.8893 135.296 97.5986 134.962L97.5588 132.858Z" fill="#FF9A6C"/>
<path d="M105.384 103.917C105.169 104.196 104.268 103.917 103.192 103.981C102.117 104.045 101.216 104.244 100.993 103.981C100.898 103.846 101.033 103.567 101.415 103.296C101.945 102.966 102.554 102.787 103.178 102.779C103.801 102.77 104.415 102.933 104.953 103.248C105.344 103.503 105.479 103.782 105.384 103.917Z" fill="#263238"/>
<path d="M92.0448 112.619C92.0402 112.909 92.148 113.189 92.3455 113.402C92.5431 113.614 92.815 113.742 93.1046 113.758C93.246 113.77 93.3883 113.754 93.5234 113.711C93.6586 113.668 93.7838 113.598 93.8919 113.506C94 113.415 94.0889 113.302 94.1535 113.176C94.218 113.05 94.2569 112.912 94.268 112.77C94.2727 112.482 94.166 112.202 93.9702 111.99C93.7743 111.778 93.5043 111.649 93.2162 111.631C93.0742 111.618 92.931 111.633 92.795 111.676C92.6589 111.718 92.5327 111.788 92.4237 111.88C92.3147 111.972 92.2251 112.084 92.1601 112.211C92.095 112.338 92.0558 112.477 92.0448 112.619Z" fill="#263238"/>
<path d="M89.5906 108.866C89.726 109.009 90.5786 108.404 91.7739 108.427C92.9691 108.451 93.8377 109.065 93.9652 108.922C94.0927 108.778 93.8935 108.595 93.519 108.308C93.009 107.938 92.3959 107.737 91.7659 107.734C91.1435 107.722 90.5329 107.906 90.0209 108.26C89.6782 108.539 89.5906 108.802 89.5906 108.866Z" fill="#263238"/>
<path d="M90.3394 105.033C90.5705 105.312 91.4948 105.033 92.6104 105.033C93.7259 105.033 94.6582 105.256 94.8734 104.969C94.9769 104.834 94.8335 104.563 94.4271 104.3C93.8705 103.971 93.2327 103.805 92.5865 103.822C91.9447 103.815 91.3144 103.992 90.7697 104.332C90.3872 104.626 90.2358 104.897 90.3394 105.033Z" fill="#263238"/>
<path d="M81.6223 115.607C81.6622 114.961 80.9928 113.399 80.3633 113.272C78.682 112.913 75.5823 112.881 75.3433 117.2C74.9767 123.097 80.9769 122.244 81.0008 122.077C81.0247 121.91 81.5028 117.838 81.6223 115.607Z" fill="#FFBF9D"/>
<path d="M79.4947 119.822C79.4947 119.822 79.3911 119.886 79.2078 119.958C79.0817 120.011 78.9463 120.038 78.8094 120.038C78.6726 120.038 78.5372 120.011 78.411 119.958C78.0392 119.689 77.7462 119.325 77.5627 118.905C77.3791 118.484 77.3116 118.023 77.3672 117.567C77.3878 117.062 77.5183 116.567 77.7497 116.117C77.8126 115.938 77.918 115.777 78.0568 115.648C78.1956 115.519 78.3636 115.426 78.5465 115.376C78.6666 115.35 78.7918 115.369 78.8998 115.427C79.0078 115.485 79.0916 115.58 79.1361 115.695C79.2079 115.862 79.1361 115.981 79.1919 115.989C79.2477 115.997 79.3274 115.902 79.2955 115.655C79.2671 115.505 79.1917 115.368 79.0804 115.264C78.9245 115.134 78.725 115.069 78.5226 115.081C78.2773 115.116 78.0449 115.212 77.847 115.362C77.6491 115.511 77.4923 115.707 77.3911 115.934C77.1128 116.42 76.9569 116.967 76.9369 117.527C76.897 118.715 77.4389 119.862 78.2755 120.165C78.432 120.221 78.599 120.242 78.7645 120.225C78.9299 120.209 79.0896 120.155 79.2318 120.069C79.4788 119.966 79.5186 119.83 79.4947 119.822Z" fill="#FF9A6C"/>
<path d="M80.1164 113.288L81.6144 114.882C88.0927 108.683 100.738 93.1603 100.045 94.0846C97.0937 92.9822 93.9131 92.637 90.7939 93.0806C85.9731 93.8775 76.8414 96.3078 76.9848 101.989C77.1283 107.671 80.1164 113.288 80.1164 113.288Z" fill="#263238"/>
<path d="M71.5422 111.981C71.5521 111.863 71.5817 111.747 71.6299 111.638C71.7401 111.321 71.8732 111.012 72.0283 110.714C72.6389 109.618 73.482 108.669 74.4985 107.933C76.0035 106.857 77.6829 106.048 79.4627 105.543C81.4389 104.905 83.67 104.403 85.8374 103.463C87.9024 102.605 89.8599 101.508 91.6702 100.196C93.1445 99.1221 94.5205 97.9194 95.7819 96.6021C96.6339 95.7073 97.4322 94.7627 98.1724 93.7733L98.762 92.9765C98.8243 92.8769 98.8993 92.7858 98.9851 92.7056C98.9405 92.8123 98.8844 92.9138 98.8178 93.0084C98.6903 93.2076 98.515 93.4944 98.268 93.861C97.5604 94.8782 96.7857 95.8472 95.9492 96.7614C94.697 98.1146 93.3204 99.3472 91.8376 100.443C90.0163 101.778 88.0421 102.891 85.9569 103.758C83.8551 104.556 81.7142 105.248 79.5424 105.829C77.7845 106.315 76.1201 107.09 74.618 108.124C73.6112 108.829 72.7619 109.735 72.1239 110.786C71.7016 111.559 71.5661 111.997 71.5422 111.981Z" fill="#455A64"/>
<path d="M73.2556 112.913C73.2423 112.472 73.321 112.032 73.4867 111.622C73.9263 110.492 74.6988 109.523 75.7019 108.841C77.1993 107.878 78.8732 107.223 80.6263 106.913C82.7339 106.491 84.7887 105.839 86.7539 104.969C88.7051 104.074 90.5384 102.942 92.2122 101.598C93.5764 100.5 94.8283 99.2699 95.9494 97.9248C96.7018 97.011 97.399 96.0531 98.0371 95.0562C98.2363 94.7215 98.4036 94.4426 98.5391 94.2594C98.5931 94.1601 98.6571 94.0666 98.7303 93.9805C98.6952 94.0895 98.6471 94.1938 98.5869 94.2912C98.4674 94.5143 98.3239 94.8012 98.1327 95.1518C97.5361 96.1815 96.8622 97.1645 96.1167 98.0921C93.6331 101.167 90.4687 103.622 86.8734 105.264C84.8917 106.14 82.8175 106.789 80.69 107.2C78.9662 107.49 77.3153 108.112 75.8294 109.033C74.8457 109.68 74.0707 110.599 73.5982 111.678C73.446 112.078 73.3313 112.492 73.2556 112.913Z" fill="#455A64"/>
<path d="M80.3077 123.28C80.3077 123.24 79.8137 123.176 78.9372 122.945C77.709 122.588 76.5782 121.956 75.6303 121.097C74.2462 119.801 73.194 118.191 72.5625 116.403C71.758 114.22 71.327 111.917 71.2876 109.591C71.2037 107.268 71.6336 104.955 72.5466 102.817C73.2936 101.065 74.3277 99.4489 75.6064 98.0365C76.8214 96.7619 78.1555 95.6066 79.5906 94.5862C79.5906 94.5862 79.471 94.634 79.2639 94.7535C79.0567 94.873 78.7459 95.0483 78.3714 95.3193C77.3008 96.0528 76.3147 96.9026 75.4311 97.8532C74.1018 99.2519 73.0236 100.869 72.2438 102.634C71.7948 103.686 71.4531 104.781 71.2238 105.901C70.9929 107.109 70.8914 108.338 70.921 109.567C70.9591 111.935 71.4094 114.278 72.2517 116.491C72.9187 118.325 74.027 119.967 75.4789 121.272C76.4655 122.136 77.6466 122.748 78.9212 123.057C79.2644 123.139 79.6134 123.195 79.9651 123.224C80.0755 123.261 80.1912 123.28 80.3077 123.28Z" fill="#455A64"/>
<path d="M80.5704 75C85.8773 80.1714 95.1126 90.4984 95.1126 90.4984C92.8131 92.7125 90.0231 94.3523 86.9699 95.2842C83.9167 96.2161 80.6865 96.4137 77.5425 95.861C77.5425 95.861 79.5346 80.3786 80.5704 75Z" fill="#0B9346"/>
<path d="M88.4432 92.4352C88.1668 92.097 87.9139 91.7402 87.6862 91.3675C87.1584 90.4539 86.9806 89.3797 87.1858 88.3448C87.3911 87.3099 87.9654 86.3849 88.8018 85.7418C89.1573 85.4855 89.5301 85.2538 89.9174 85.0486C89.7962 85.0619 89.6779 85.0942 89.5668 85.1442C89.2602 85.2652 88.9709 85.4259 88.7062 85.6223C87.8053 86.2613 87.1834 87.2212 86.9685 88.3046C86.7536 89.3881 86.962 90.5126 87.5508 91.4471C87.7167 91.7404 87.9232 92.0086 88.1643 92.244C88.2464 92.3222 88.3406 92.3868 88.4432 92.4352Z" fill="white"/>
<path d="M79.7178 80.7773C79.7178 80.7773 79.8373 81.1677 80.3792 81.4227C81.0835 81.7047 81.8595 81.755 82.5943 81.5661C83.3283 81.3958 84.0011 81.0264 84.5386 80.4984C84.7714 80.2941 84.9564 80.0411 85.0805 79.7573C85.0805 79.7573 84.8494 80.0203 84.435 80.3868C83.8881 80.8538 83.2381 81.1843 82.5386 81.351C81.8471 81.5282 81.1189 81.5005 80.4429 81.2713C80.17 81.1578 79.9233 80.9897 79.7178 80.7773Z" fill="white"/>
<path d="M78.5386 91.5423C78.5386 91.5423 78.5784 91.5423 78.6661 91.5822C78.7866 91.6138 78.909 91.6377 79.0326 91.6539C79.496 91.6922 79.9626 91.649 80.4111 91.5264C81.0802 91.3393 81.6895 90.9825 82.1801 90.4905C82.7647 89.8642 83.1284 89.0639 83.216 88.2116C83.3198 87.3587 83.1376 86.4955 82.698 85.7573C82.3297 85.1671 81.8132 84.6836 81.2 84.3549C80.7943 84.1329 80.3514 83.987 79.8932 83.9246C79.7659 83.9141 79.638 83.9141 79.5107 83.9246H79.3832C79.9948 84.0087 80.5861 84.2031 81.1283 84.4984C81.6997 84.8323 82.179 85.3033 82.5227 85.8689C82.925 86.5741 83.0924 87.389 83.0008 88.1956C82.9122 89.003 82.5657 89.7602 82.0128 90.3551C81.5552 90.8352 80.9816 91.1892 80.3474 91.383C79.7591 91.5453 79.1462 91.5993 78.5386 91.5423Z" fill="white"/>
<path d="M97.4794 121.408C96.7035 120.874 95.8791 120.416 95.0171 120.037C94.8558 119.96 94.6778 119.924 94.4992 119.934C94.2739 119.986 94.0773 120.123 93.9494 120.316C93.6863 120.704 93.5457 121.162 93.5457 121.631C93.5457 122.1 93.6863 122.558 93.9494 122.946C94.2099 123.319 94.5797 123.602 95.0078 123.756C95.436 123.91 95.9014 123.928 96.3399 123.806C96.7718 123.622 97.147 123.327 97.4271 122.95C97.7072 122.574 97.882 122.129 97.9336 121.663L97.4794 121.408Z" fill="#FF9A6C"/>
<path d="M97.2322 123.264C97.046 123.453 96.8219 123.601 96.5748 123.697C96.3276 123.793 96.0628 123.836 95.7979 123.822C95.2095 123.836 94.6384 123.622 94.2043 123.224C93.9249 122.985 93.7069 122.682 93.5683 122.341C93.4297 122 93.3746 121.631 93.4074 121.264C93.4445 120.88 93.5819 120.511 93.8059 120.197C93.921 120.039 94.0642 119.904 94.2282 119.798C94.3395 119.744 94.4643 119.725 94.5867 119.742C94.6806 119.767 94.7715 119.801 94.8577 119.846L96.2999 120.643C96.7576 120.852 97.1861 121.12 97.5749 121.44C97.0808 121.321 96.6059 121.133 96.1645 120.882L94.6903 120.173C94.5469 120.109 94.4831 120.093 94.4114 120.133C94.3049 120.214 94.211 120.311 94.1326 120.42C93.9591 120.679 93.8523 120.978 93.8218 121.288C93.7919 121.591 93.8325 121.897 93.9403 122.182C94.0481 122.466 94.2203 122.722 94.4433 122.93C94.8111 123.284 95.2959 123.491 95.8059 123.511C96.2911 123.502 96.7721 123.419 97.2322 123.264Z" fill="#263238"/>
<path d="M81.407 122.826C81.407 123.238 81.2848 123.64 81.056 123.982C80.8271 124.325 80.5018 124.591 80.1213 124.748C79.7408 124.905 79.3223 124.946 78.9186 124.865C78.515 124.784 78.1444 124.585 77.8539 124.294C77.5633 124.002 77.3659 123.631 77.2866 123.227C77.2072 122.823 77.2495 122.405 77.4082 122.025C77.5668 121.645 77.8346 121.321 78.1777 121.093C78.5207 120.865 78.9236 120.745 79.3353 120.746C79.6083 120.745 79.8788 120.798 80.1312 120.903C80.3836 121.007 80.6127 121.16 80.8054 121.354C80.9981 121.547 81.1505 121.777 81.2538 122.03C81.3571 122.282 81.4091 122.553 81.407 122.826Z" fill="#455A64"/>
<path d="M113.081 139.735C114.469 140.475 115.69 141.495 116.666 142.729C117.642 143.963 118.353 145.385 118.755 146.906C120.348 152.325 122.619 161.456 122.619 161.456L109.567 162.253L113.081 139.735Z" fill="#0B622F"/>
<path d="M130.731 250.446H55.7411C54.4883 250.436 53.2896 249.934 52.4029 249.049C51.5162 248.164 51.0125 246.966 51 245.713C51.0104 244.459 51.5133 243.259 52.4001 242.372C53.287 241.485 54.4869 240.982 55.7411 240.972H130.731C131.985 240.982 133.185 241.485 134.072 242.372C134.959 243.259 135.462 244.459 135.472 245.713C135.46 246.966 134.956 248.164 134.069 249.049C133.183 249.934 131.984 250.436 130.731 250.446Z" fill="#455A64"/>
<path d="M131.727 240.972C131.727 241.084 114.292 241.179 92.7937 241.179C71.2952 241.179 53.8525 241.084 53.8525 240.972C53.8525 240.861 71.2793 240.765 92.7937 240.765C114.308 240.765 131.727 240.861 131.727 240.972Z" fill="#263238"/>
<path d="M68.2594 139.735L78.5466 136.452L80.1402 135.304C81.8932 138.492 85.2638 140.157 89.1763 140.085C93.3358 140.085 96.3478 137.695 98.3877 134.914L99.9813 135.711L113.049 139.695L113.711 162.659L111.663 184.174L117.48 207.537C100.635 209.569 80.4669 210.549 63.4944 208.334L70.7535 186.819L68.2993 139.759L68.2594 139.735Z" fill="#0B622F"/>
<path d="M99.6785 136.021C99.665 136.109 99.6409 136.194 99.6068 136.276C99.559 136.436 99.4633 136.675 99.3358 136.985C98.9597 137.844 98.4692 138.648 97.8776 139.376C96.8727 140.6 95.6185 141.597 94.1985 142.299C92.7785 143.001 91.2254 143.392 89.6423 143.447C88.0593 143.502 86.4826 143.219 85.0174 142.618C83.5521 142.016 82.2317 141.109 81.1442 139.958C80.5123 139.271 79.9763 138.501 79.5505 137.671C79.3991 137.376 79.2875 137.145 79.2238 136.977L79.1282 136.73C79.1774 136.806 79.22 136.886 79.2557 136.969C79.3274 137.121 79.4469 137.352 79.5983 137.639C80.0539 138.457 80.6137 139.212 81.2637 139.886C82.2359 140.884 83.384 141.695 84.6502 142.276C86.2243 142.982 87.9392 143.317 89.6632 143.257C91.3871 143.196 93.0742 142.74 94.5947 141.926C96.6463 140.802 98.2872 139.055 99.2801 136.938C99.4155 136.635 99.5191 136.404 99.5749 136.236C99.6053 136.163 99.6398 136.091 99.6785 136.021Z" fill="#263238"/>
<path d="M112.699 163.441C112.699 163.528 102.723 163.608 90.3877 163.608C78.0528 163.608 68.0764 163.528 68.0764 163.441C68.0764 163.353 78.0528 163.273 90.3877 163.273C102.723 163.273 112.699 163.353 112.699 163.441Z" fill="white"/>
<path d="M112.699 165.887C112.699 165.983 102.723 166.054 90.3877 166.054C78.0528 166.054 68.0764 165.983 68.0764 165.887C68.0764 165.791 78.0528 165.72 90.3877 165.72C102.723 165.72 112.699 165.791 112.699 165.887Z" fill="white"/>
<path d="M123.543 248.287L133.703 267.347L146.221 280.176C146.43 280.392 146.591 280.65 146.695 280.932C146.798 281.215 146.842 281.515 146.822 281.815C146.803 282.116 146.721 282.408 146.582 282.675C146.442 282.941 146.249 283.176 146.014 283.363C145.734 283.588 145.405 283.744 145.053 283.817C144.701 283.891 144.337 283.88 143.99 283.786C139.472 282.606 123.097 277.865 122.476 276.893C121.472 275.355 110.149 257.307 110.149 257.307L123.543 248.287Z" fill="#263238"/>
<path d="M89.6702 229.275C87.8203 235.92 87.0138 242.813 87.2797 249.706C87.9013 260.152 88.7539 308.56 88.4351 309.364C88.1164 310.169 104.467 312.552 104.467 312.552C104.467 312.552 108.611 288.248 109.432 282.017C110.252 275.786 112.125 274.392 111.918 257.515C111.711 240.638 116.276 244.176 119.583 238.59C122.89 233.004 124.133 227.785 122.269 218.143C120.404 208.502 115.233 206.095 115.233 206.095L94.7381 207.099L89.6702 229.275Z" fill="#263238"/>
<path d="M65.3512 206.764C65.3512 206.764 85.9573 196.923 91.8459 196.923C97.7345 196.923 101.99 199.147 106.237 206.764C110.484 214.382 129.432 258.813 129.432 258.813L115.089 267.068C115.089 267.068 96.7623 240.725 92.8419 234.398L88.9135 228.024C88.9135 228.024 89.5749 236.908 85.3198 240.08C81.0648 243.251 69.941 239.769 65.399 235.004C60.8571 230.239 56.8411 225.808 58.5144 217.872C60.1877 209.936 65.3512 206.764 65.3512 206.764Z" fill="#263238"/>
<path d="M65.3511 206.764L65.0881 206.956C64.9208 207.083 64.6658 207.274 64.3471 207.553C63.4258 208.356 62.5973 209.259 61.8769 210.247C60.7252 211.827 59.8272 213.577 59.2155 215.434C58.356 217.908 58.046 220.541 58.3071 223.147C58.5049 224.676 58.9603 226.161 59.6537 227.538C60.4353 229.05 61.3957 230.462 62.5144 231.745C63.0801 232.43 63.7016 233.1 64.3391 233.777C64.9688 234.477 65.6336 235.145 66.3312 235.777C67.8723 237.05 69.58 238.106 71.407 238.916C73.3505 239.808 75.3946 240.46 77.4948 240.861C78.5902 241.069 79.7027 241.173 80.8176 241.172C81.9531 241.186 83.0809 240.983 84.1404 240.574C84.6692 240.369 85.1515 240.06 85.5588 239.666C85.7838 239.488 85.9871 239.285 86.1644 239.06C86.3545 238.848 86.5276 238.622 86.6823 238.383C87.313 237.403 87.7787 236.326 88.0608 235.195C88.6571 232.854 88.8883 230.435 88.7461 228.024V227.434L89.0648 227.936C90.9533 230.948 92.8259 234.096 94.8976 237.227C96.9694 240.359 99.1368 243.546 101.352 246.789C105.79 253.283 110.444 260.033 115.249 266.941L115.018 266.893L117.408 265.531L129.432 258.646L129.361 258.845C123.647 245.506 118.205 232.94 113.153 221.641C111.886 218.812 110.651 216.063 109.416 213.418C108.181 210.772 107.025 208.199 105.615 205.84C104.943 204.679 104.184 203.571 103.344 202.525C102.549 201.501 101.634 200.575 100.619 199.768C99.641 198.991 98.55 198.367 97.3837 197.92C96.2578 197.501 95.0816 197.233 93.8857 197.123L93.0091 197.051H92.1406C91.8583 197.047 91.576 197.063 91.296 197.099C91.0156 197.112 90.7362 197.141 90.4593 197.186C89.9095 197.306 89.3676 197.386 88.8656 197.529L87.2719 197.943C85.248 198.565 83.3595 199.218 81.6144 199.88C78.1243 201.195 75.184 202.454 72.7855 203.481C70.3871 204.509 68.5464 205.354 67.2954 205.92L65.885 206.565L65.3989 206.772C65.3989 206.772 65.5503 206.685 65.869 206.533L67.2714 205.864C68.5065 205.282 70.3393 204.43 72.7298 203.378C75.1202 202.326 78.0606 201.051 81.5507 199.72C83.2958 199.043 85.1842 198.382 87.2162 197.752L88.8098 197.33C89.3437 197.186 89.8935 197.099 90.4513 196.979C90.7328 196.927 91.0178 196.895 91.3039 196.884C91.592 196.848 91.8822 196.832 92.1725 196.836H93.049L93.9335 196.908C95.1506 197.015 96.3482 197.283 97.4953 197.704C98.6688 198.172 99.7649 198.814 100.746 199.609C101.777 200.426 102.708 201.362 103.519 202.398C104.369 203.455 105.139 204.573 105.822 205.744C107.209 208.135 108.404 210.693 109.647 213.338C110.89 215.984 112.133 218.733 113.4 221.554C118.468 232.853 123.926 245.411 129.647 258.75L129.703 258.885L129.576 258.957L117.552 265.849L115.161 267.212L115.018 267.292L114.93 267.164C110.149 260.248 105.472 253.498 101.041 246.996C98.826 243.745 96.6586 240.558 94.5948 237.434C92.531 234.311 90.6505 231.147 88.77 228.135L89.0568 228.04C89.1957 230.481 88.9593 232.929 88.3556 235.299C88.0612 236.456 87.5794 237.557 86.9293 238.558C86.7667 238.808 86.5856 239.045 86.3875 239.267C86.2023 239.503 85.9911 239.716 85.758 239.905C85.3222 240.317 84.8108 240.642 84.2519 240.861C83.1592 241.281 81.996 241.486 80.8256 241.466C79.6917 241.47 78.5602 241.363 77.447 241.148C75.3244 240.739 73.2589 240.075 71.2955 239.171C69.4497 238.349 67.7257 237.276 66.1718 235.984C65.4669 235.346 64.7966 234.67 64.1638 233.96C63.5263 233.283 62.9128 232.606 62.3391 231.92C61.216 230.619 60.2529 229.188 59.4705 227.657C58.7739 226.258 58.3161 224.753 58.1159 223.203C57.8697 220.571 58.1987 217.918 59.08 215.426C59.7071 213.56 60.624 211.804 61.7972 210.223C62.5288 209.235 63.3739 208.336 64.3152 207.545C64.6377 207.256 64.9842 206.995 65.3511 206.764Z" fill="#455A64"/>
<path d="M86.7542 211.226C86.1077 211.824 85.6179 212.571 85.3279 213.402C85.0357 214.298 84.9379 215.246 85.0411 216.183C85.1818 217.335 85.4327 218.472 85.7901 219.577C86.4002 221.618 87.1483 223.614 88.0292 225.553L88.826 227.314C88.9442 227.524 89.0403 227.746 89.1129 227.976C88.9511 227.796 88.8144 227.595 88.7065 227.378C88.4754 226.98 88.1567 226.39 87.7901 225.657C86.8403 223.733 86.0566 221.73 85.4474 219.673C85.0814 218.546 84.8357 217.385 84.7143 216.207C84.618 215.23 84.7433 214.244 85.0809 213.322C85.3131 212.697 85.6773 212.129 86.1486 211.657C86.3152 211.469 86.5223 211.322 86.7542 211.226Z" fill="#455A64"/>
<path d="M94.3718 151.64L95.4156 148.126C95.4156 148.126 101.655 135.321 102.077 133.711C102.499 132.102 104.253 126.181 102.954 125.026C102.954 125.026 103.918 121.966 102.683 121.743C101.448 121.52 100.858 123.153 100.858 123.153C100.858 123.153 101.041 121.488 100.412 121.201C99.4237 120.755 98.6428 122.149 98.6428 122.149C98.6428 122.149 97.5591 121.304 96.348 123.297C96.348 123.297 90.3558 133.074 89.6864 133.695C89.0171 134.317 87.6704 132.317 87.6704 132.317C87.6704 132.317 86.3477 128.436 85.9732 128.237C85.5987 128.087 85.2084 127.98 84.8098 127.918C84.8098 127.918 85.3198 133.639 86.029 135.321C86.7381 137.002 88.0928 143.225 88.0928 143.225L85.4473 148.907" fill="#FFBF9D"/>
<path d="M85.4073 148.906C85.4478 148.77 85.4984 148.637 85.5587 148.508C85.6783 148.229 85.8456 147.862 86.0528 147.392C86.499 146.388 87.1445 145.002 87.9572 143.185V143.249C87.519 141.392 87.009 139.137 86.2679 136.611C86.1006 135.966 85.8217 135.376 85.6145 134.675C85.4074 133.974 85.3038 133.272 85.1842 132.547C84.9452 131.081 84.7513 129.543 84.6025 127.934V127.703H84.8336C85.0647 127.703 85.2878 127.79 85.5189 127.854L85.8615 127.958L86.0369 128.037C86.1089 128.083 86.1712 128.143 86.2201 128.213C86.4673 128.625 86.6754 129.06 86.8416 129.511C87.1922 130.388 87.5269 131.296 87.8457 132.221V132.173C88.1498 132.629 88.5205 133.037 88.9453 133.384C89.1525 133.527 89.4075 133.647 89.527 133.543C89.7108 133.354 89.8738 133.146 90.013 132.922C90.6744 131.958 91.3198 130.946 91.9732 129.918L95.9574 123.543C96.2294 123.033 96.585 122.573 97.0092 122.181C97.2396 121.952 97.5398 121.808 97.8619 121.77C98.184 121.733 98.5095 121.804 98.7862 121.973L98.4754 122.029C98.6765 121.686 98.9481 121.39 99.2722 121.161C99.4434 121.029 99.6454 120.944 99.8589 120.914C100.072 120.883 100.29 120.908 100.491 120.985C100.703 121.087 100.866 121.267 100.946 121.487C101.02 121.668 101.065 121.859 101.081 122.053C101.121 122.421 101.121 122.793 101.081 123.161L100.683 123.065C100.876 122.531 101.229 122.069 101.695 121.742C101.948 121.579 102.246 121.499 102.547 121.511C102.707 121.52 102.863 121.557 103.009 121.623C103.148 121.711 103.261 121.835 103.336 121.981C103.544 122.486 103.596 123.041 103.487 123.575C103.415 124.094 103.297 124.606 103.137 125.105L103.081 124.898C103.343 125.19 103.505 125.559 103.543 125.95C103.601 126.3 103.62 126.655 103.599 127.009C103.57 127.686 103.496 128.359 103.376 129.025C103.145 130.34 102.826 131.591 102.499 132.786C102.36 133.389 102.176 133.98 101.95 134.555C101.719 135.113 101.479 135.647 101.248 136.149C100.762 137.193 100.292 138.197 99.8539 139.161C98.0451 142.986 96.5311 146.054 95.4873 148.149C95.1446 149.257 94.8737 150.125 94.6904 150.747L94.4753 151.416C94.453 151.494 94.4209 151.569 94.3797 151.639C94.3845 151.558 94.4006 151.477 94.4275 151.4C94.4753 151.225 94.5311 151.002 94.6107 150.723C94.7861 150.094 95.0331 149.225 95.3438 148.101C96.3479 145.95 97.7981 142.858 99.583 139.057L100.946 136.037C101.185 135.512 101.416 134.97 101.639 134.444C101.856 133.881 102.031 133.303 102.165 132.715C102.483 131.519 102.794 130.276 103.009 128.978C103.125 128.327 103.197 127.669 103.225 127.009C103.306 126.381 103.165 125.744 102.826 125.209L102.738 125.113V125.001C102.876 124.537 102.977 124.063 103.041 123.583C103.128 123.127 103.089 122.656 102.93 122.22C102.786 121.87 102.213 121.902 101.854 122.133C101.469 122.415 101.178 122.807 101.017 123.256L100.483 124.579L100.619 123.161C100.655 122.827 100.655 122.49 100.619 122.157C100.579 121.838 100.475 121.487 100.276 121.416C99.7344 121.161 99.1288 121.726 98.7941 122.284L98.6826 122.475L98.4913 122.348C98.2893 122.236 98.0557 122.195 97.8276 122.231C97.5995 122.267 97.39 122.378 97.2323 122.547C96.8422 122.907 96.5186 123.334 96.2761 123.806C94.9215 126.005 93.5935 128.13 92.292 130.181C91.6306 131.209 90.9852 132.221 90.3158 133.193C90.145 133.466 89.9357 133.713 89.6943 133.926C89.6089 133.978 89.5126 134.009 89.4131 134.017C89.3135 134.026 89.2134 134.011 89.1206 133.974C88.9622 133.923 88.8139 133.844 88.6823 133.743C88.2233 133.369 87.8231 132.928 87.495 132.436C87.1763 131.511 86.8496 130.611 86.507 129.742C86.3509 129.318 86.159 128.907 85.9333 128.515C85.9333 128.46 85.9333 128.515 85.8855 128.452L85.742 128.396L85.4392 128.292C85.2241 128.236 85.001 128.189 84.7938 128.157L85.001 127.958C85.1524 129.551 85.3277 131.097 85.5508 132.547C85.6703 133.272 85.7898 133.982 85.9651 134.643C86.1404 135.304 86.4353 135.942 86.5946 136.579C87.3118 139.129 87.7978 141.36 88.1883 143.257L86.1962 147.424L85.6544 148.524C85.5834 148.658 85.5008 148.786 85.4073 148.906Z" fill="#FF9A6C"/>
<path d="M93.8215 132.683C94.2067 132.26 94.5434 131.795 94.8255 131.297C95.5546 130.133 96.199 128.919 96.7539 127.663C97.3061 126.406 97.785 125.119 98.1882 123.806C98.3866 123.271 98.5256 122.715 98.6025 122.149C98.3497 122.661 98.1418 123.194 97.981 123.743C97.6224 124.731 97.1125 126.085 96.467 127.543C95.8216 129.002 95.1522 130.285 94.6343 131.193C94.3298 131.671 94.0583 132.168 93.8215 132.683Z" fill="#FF9A6C"/>
<path d="M96.5947 133.639C96.9051 133.187 97.1719 132.707 97.3916 132.205C97.8378 131.304 98.4274 130.045 98.9852 128.627C99.4931 127.415 99.9399 126.178 100.324 124.922C100.51 124.407 100.635 123.872 100.698 123.328C100.468 123.821 100.274 124.329 100.117 124.85C99.782 125.79 99.3199 127.089 98.7063 128.5L97.1605 132.109C96.9304 132.603 96.7412 133.115 96.5947 133.639Z" fill="#FF9A6C"/>
<path d="M99.5989 134.229C99.9155 133.861 100.183 133.454 100.396 133.017C100.947 131.995 101.413 130.929 101.79 129.83C102.172 128.731 102.48 127.607 102.714 126.468C102.839 125.999 102.906 125.518 102.914 125.033C102.818 125.033 102.38 127.177 101.503 129.727C101.123 130.811 100.687 131.875 100.197 132.914C99.9654 133.337 99.7657 133.776 99.5989 134.229Z" fill="#FF9A6C"/>
<path d="M63.4546 163.608C63.4546 163.608 68.0284 181.409 71.0245 183.895C74.0206 186.381 81.7738 187.377 84.4909 182.301C87.2081 177.226 95.3757 148.165 95.3757 148.165L87.5189 144.675L76.1401 167.727L74.2995 161.185L63.4546 163.608Z" fill="#FFBF9D"/>
<path d="M68.2593 139.735C68.2593 139.735 59.7412 142.197 59.8209 153.36C59.8209 156.102 61.8847 170.572 61.8847 170.572L76.5543 164.994L73.2634 151.042L68.2593 139.735Z" fill="#0B622F"/>
<path d="M61.8848 170.572C62.2099 170.385 62.5513 170.228 62.9047 170.102L65.7574 168.955C68.1479 167.999 71.5025 166.716 75.1998 165.313L76.4827 164.835L76.3552 165.082C75.4309 161.552 74.6341 158.405 74.0763 156.142C73.8213 155.074 73.6062 154.182 73.4388 153.472C73.3403 153.157 73.2814 152.83 73.2635 152.5C73.4028 152.808 73.5122 153.128 73.5902 153.456C73.7894 154.15 74.0444 155.05 74.3871 156.102C75.0086 158.341 75.8612 161.465 76.7776 164.971L76.8254 165.154L76.6501 165.218L75.3751 165.704C71.6778 167.098 68.3152 168.349 65.8849 169.226L62.9923 170.254C62.6351 170.398 62.264 170.505 61.8848 170.572Z" fill="#263238"/>
<path d="M111.32 161.799L101.758 145.066L95.5269 147.855C95.5269 148.014 103.089 176.278 104.762 180.007C107.416 185.919 114.205 187.242 117.464 182.246C120.021 178.309 119.918 161.616 119.918 161.616L111.32 161.799Z" fill="#FFBF9D"/>
<path d="M97.232 154.38L94.7539 145.687L102.722 122.921C102.722 122.921 103.089 122.34 103.83 123.4C104.316 124.093 105.208 127.607 105.766 129.981C106.106 131.414 106.023 132.914 105.527 134.3L101.702 145.081L104.635 150.133" fill="#FFBF9D"/>
<path d="M104.667 150.134C104.58 150.037 104.505 149.93 104.444 149.815C104.292 149.56 104.093 149.241 103.846 148.843L101.631 145.145V145.098V145.042L105.033 135.305C105.447 134.34 105.716 133.32 105.83 132.277C105.866 131.745 105.844 131.21 105.766 130.683C105.687 130.149 105.527 129.599 105.4 129.034C105.121 127.91 104.826 126.771 104.491 125.615C104.329 125.037 104.137 124.468 103.918 123.91C103.862 123.781 103.798 123.656 103.726 123.535C103.644 123.42 103.554 123.311 103.455 123.209C103.248 122.994 103.033 122.954 102.969 123.065V123.018C102.802 123.504 102.619 124.014 102.436 124.531C99.4952 132.842 96.8577 140.349 94.9134 145.767V145.679C95.6465 148.349 96.2362 150.516 96.6665 152.054L97.1207 153.791C97.1813 153.991 97.2239 154.197 97.2481 154.405C97.1624 154.214 97.0932 154.017 97.041 153.815C96.9055 153.393 96.7302 152.819 96.5071 152.102L94.6345 145.727V145.679V145.632L102.045 124.364C102.228 123.846 102.404 123.328 102.579 122.85C102.649 122.749 102.749 122.673 102.865 122.631C102.98 122.59 103.106 122.586 103.224 122.619C103.408 122.676 103.573 122.78 103.702 122.922C103.82 123.04 103.927 123.168 104.021 123.304C104.115 123.445 104.195 123.595 104.26 123.751C104.486 124.326 104.681 124.914 104.842 125.512C105.185 126.675 105.471 127.822 105.742 128.946C105.87 129.512 106.029 130.061 106.117 130.635C106.195 131.2 106.214 131.772 106.173 132.34C106.132 132.894 106.033 133.441 105.878 133.974C105.718 134.5 105.527 134.97 105.36 135.464C103.965 139.305 102.762 142.635 101.846 145.161V145.026C102.738 146.62 103.44 147.871 103.965 148.779C104.189 149.193 104.372 149.52 104.507 149.783C104.643 150.046 104.683 150.126 104.667 150.134Z" fill="#FF9A6C"/>
<path d="M117.623 175.09C117.402 174.702 117.213 174.297 117.057 173.879C116.707 173.082 116.213 171.951 115.559 170.564C114.269 167.775 112.316 164.006 110.045 159.903C108.938 157.839 107.806 155.918 106.794 154.141L104.109 149.456L102.332 146.269C102.094 145.891 101.894 145.491 101.734 145.073C102.011 145.425 102.259 145.798 102.475 146.189L104.364 149.305L107.129 153.95C108.165 155.703 109.296 157.624 110.412 159.695C112.675 163.807 114.603 167.608 115.83 170.429C116.452 171.839 116.906 173.002 117.209 173.807C117.381 174.223 117.519 174.652 117.623 175.09Z" fill="#FF9A6C"/>
</svg>
