<svg width="114" height="160" viewBox="0 0 114 160" fill="none" xmlns="http://www.w3.org/2000/svg">
<path d="M33.1906 10.1756C32.5751 11.1783 31.1155 11.3758 30.0508 10.8841C28.9862 10.3924 28.2506 9.38582 27.6698 8.36374C27.0891 7.34165 26.609 6.24601 25.8309 5.37105C25.1646 4.62686 24.3069 4.07962 23.3513 3.78883C22.3957 3.49805 21.3786 3.47486 20.4107 3.72178C19.4524 3.99953 18.5993 4.55817 17.9617 5.32558C17.324 6.09299 16.931 7.03393 16.8334 8.02692C16.667 10.4195 18.4246 12.6263 20.5849 13.66C22.7453 14.6937 25.2308 14.7789 27.6273 14.6821" fill="#263238"/>
<path d="M62.2424 11.8405C64.5653 10.7293 67.527 12.0882 68.851 14.3027C70.1751 16.5173 70.179 19.2931 69.6641 21.8213C69.1801 24.2177 68.3903 27.0672 70.0977 28.8171C71.4334 30.1915 73.8802 30.2689 74.8248 31.9337C76.1876 34.3224 73.133 37.1215 73.5511 39.8393C73.8182 41.5583 75.4094 42.7507 77.0006 43.4476C78.5918 44.1445 80.3456 44.5587 81.7084 45.635C83.0712 46.7113 83.8958 48.7864 82.8699 50.2073L73.9653 53.0025L72.1535 49.8743C72.7806 51.1945 72.498 52.809 71.7663 54.0633C71.0346 55.3177 69.8654 56.2778 68.6884 57.1412C64.0813 60.5056 58.4947 62.844 52.8152 62.5304" fill="#263238"/>
<path d="M23.5349 16.4747C23.4652 14.0937 25.6759 12.2625 27.8749 11.3837C30.0739 10.5048 32.544 10.1835 34.5146 8.85557C36.2606 7.69411 37.4337 5.84739 38.9126 4.35298C40.7361 2.50506 43.0187 1.1758 45.5258 0.501685C48.0329 -0.172428 50.6742 -0.167097 53.1786 0.51713C55.683 1.20136 57.9601 2.53982 59.7761 4.39509C61.5922 6.25035 62.8817 8.55554 63.5123 11.0739C64.364 14.4577 63.7833 18.457 61.1158 20.7063C58.0186 23.3157 53.4309 22.735 49.4664 21.9258C45.502 21.1167 41.011 20.3114 37.7008 22.6421C35.7031 24.0474 34.561 26.3316 33.3376 28.4494C32.1142 30.5671 30.585 32.708 28.2775 33.5172C25.9701 34.3263 22.8342 32.9403 22.7451 30.4974" fill="#263238"/>
<path d="M23.6937 17.7794C23.9531 19.7694 22.5323 21.5542 21.0804 22.9595C19.6286 24.3649 18.0258 25.8554 17.7703 27.8454C17.4761 30.1683 19.1757 32.468 18.6801 34.7599C18.3704 36.2156 17.236 37.3384 16.5508 38.6586C15.6357 40.5652 15.4847 42.7496 16.1288 44.764C16.7172 46.7694 17.6774 51.2449 19.0556 52.8051C22.9078 57.1141 29.048 60.8308 34.6811 62.1278C40.3142 63.4247 46.1679 63.4286 51.9404 63.0763C56.6637 62.7821 62.0954 63.0027 66.0327 56.4947C68.073 53.1265 69.0835 48.651 70.1675 44.8801C71.1006 41.6242 71.9059 38.1359 70.9419 34.8877C70.3766 32.9945 69.2384 31.3143 68.6809 29.4211C67.984 27.0517 68.2395 24.5236 67.9569 22.0652C67.6523 19.3999 66.716 16.8459 65.2258 14.6152C63.7356 12.3846 61.7345 10.5419 59.3889 9.24014C57.0433 7.93841 54.4209 7.2153 51.7396 7.1309C49.0583 7.04651 46.3956 7.60326 43.9728 8.7549" fill="#263238"/>
<path d="M65.6922 25.9444C65.2508 19.1614 60.7405 10.8454 53.9847 11.5849L32.9003 16.9624C31.9108 17.0689 30.9973 17.5429 30.3406 18.2906C29.6839 19.0384 29.3318 20.0054 29.354 21.0004L30.7091 67.3271C30.8043 70.5513 32.1702 73.6071 34.509 75.8284C36.8478 78.0497 39.9699 79.2565 43.1947 79.1856C46.3868 79.1158 49.425 77.8002 51.6597 75.5198C53.8945 73.2395 55.1486 70.1754 55.1539 66.9825C55.1539 63.6801 55.1539 59.7931 55.1539 59.8086C55.1539 59.8241 63.8145 58.3529 65.5838 47.0326C66.4858 41.4227 66.1839 33.4745 65.6922 25.9444Z" fill="#FFBE9D"/>
<path d="M61.9328 34.6864C61.9391 35.0688 61.7941 35.4383 61.5295 35.7145C61.2649 35.9907 60.902 36.1513 60.5197 36.1615C60.3354 36.1762 60.1501 36.1539 59.9746 36.096C59.799 36.038 59.6369 35.9455 59.4976 35.8239C59.3584 35.7024 59.2448 35.5542 59.1637 35.3881C59.0826 35.222 59.0355 35.0413 59.0253 34.8568C59.0199 34.4792 59.1622 34.1146 59.4219 33.8405C59.6815 33.5664 60.0379 33.4045 60.4152 33.3894C60.6006 33.372 60.7876 33.3919 60.9651 33.4481C61.1426 33.5043 61.307 33.5956 61.4486 33.7166C61.5902 33.8376 61.706 33.9857 61.7891 34.1523C61.8723 34.3189 61.9212 34.5006 61.9328 34.6864Z" fill="#263238"/>
<path d="M63.706 30.7412C63.5241 30.9309 62.4245 30.1218 60.8643 30.1295C59.3041 30.1373 58.1542 30.9038 57.9955 30.7257C57.9103 30.6444 58.0962 30.2999 58.5917 29.9514C59.2661 29.4846 60.0674 29.236 60.8875 29.2391C61.6989 29.2348 62.4906 29.4883 63.1485 29.963C63.617 30.3154 63.7951 30.656 63.706 30.7412Z" fill="#263238"/>
<path d="M46.9693 34.6861C46.9736 35.064 46.8304 35.4287 46.5702 35.7027C46.3099 35.9766 45.9531 36.1384 45.5755 36.1534C45.3911 36.1682 45.2055 36.146 45.0298 36.088C44.854 36.0301 44.6916 35.9377 44.552 35.8162C44.4125 35.6946 44.2986 35.5465 44.2171 35.3803C44.1355 35.2142 44.088 35.0335 44.0772 34.8487C44.0729 34.4709 44.2161 34.1062 44.4763 33.8322C44.7366 33.5582 45.0934 33.3965 45.471 33.3814C45.6556 33.3662 45.8413 33.388 46.0173 33.4457C46.1933 33.5034 46.3559 33.5958 46.4956 33.7175C46.6353 33.8391 46.7491 33.9875 46.8305 34.1538C46.9119 34.3202 46.959 34.5012 46.9693 34.6861Z" fill="#263238"/>
<path d="M48.3747 31.0664C48.1928 31.2561 47.0932 30.447 45.533 30.4547C43.9728 30.4625 42.8229 31.229 42.6642 31.0509C42.579 30.9696 42.761 30.6251 43.2604 30.2766C43.934 29.8082 44.7358 29.5594 45.5562 29.5643C46.3676 29.56 47.1593 29.8135 47.8172 30.2883C48.2973 30.6406 48.4599 30.9813 48.3747 31.0664Z" fill="#263238"/>
<path d="M54.0579 42.6191C54.0579 42.5339 55.0219 42.3636 56.5937 42.1584C56.9809 42.1158 57.368 42.0345 57.4339 41.7712C57.4997 41.508 57.3603 41.055 57.1667 40.5904C56.7873 39.6303 56.3924 38.6211 55.982 37.5629C54.3366 33.2461 53.1442 29.6998 53.3184 29.634C53.4926 29.5682 54.9677 33.0138 56.6131 37.3306C57.008 38.3914 57.3861 39.407 57.7474 40.3775C57.8984 40.8304 58.1578 41.3415 57.9565 41.9261C57.8997 42.0668 57.811 42.1925 57.6975 42.2932C57.584 42.394 57.4487 42.4671 57.3022 42.5068C57.083 42.5692 56.8565 42.6017 56.6286 42.6036C55.0451 42.7004 54.0656 42.7081 54.0579 42.6191Z" fill="#263238"/>
<path d="M40.1865 55.7861C40.1865 55.7861 43.8722 63.5485 55.1732 62.4877V59.828C49.8998 59.8937 44.7117 58.4945 40.1865 55.7861Z" fill="#EB996E"/>
<path d="M53.4077 46.382C53.1104 46.0092 52.7229 45.7183 52.2819 45.5368C51.841 45.3552 51.361 45.289 50.8874 45.3444C50.5436 45.376 50.2097 45.4767 49.9057 45.6403C49.6016 45.804 49.3338 46.0273 49.1181 46.2968C48.9096 46.5568 48.7863 46.8746 48.7648 47.2071C48.7434 47.5396 48.8248 47.8706 48.9981 48.1552C49.42 48.7475 50.2989 48.883 51.0422 48.6701C51.7796 48.4076 52.4574 48.0009 53.0361 47.4738C53.2106 47.3491 53.3603 47.1928 53.4774 47.0131C53.5353 46.9273 53.5663 46.8262 53.5663 46.7227C53.5663 46.6192 53.5353 46.5181 53.4774 46.4323" fill="#DE1E1E"/>
<path d="M49.4703 43.7109C49.7259 43.7109 49.7336 45.3873 51.1854 46.5875C52.6373 47.7876 54.4375 47.5941 54.453 47.8302C54.4762 47.9386 54.0658 48.1593 53.2915 48.1825C52.3052 48.1959 51.3457 47.8615 50.5815 47.2379C49.8419 46.639 49.3654 45.7749 49.2535 44.8298C49.1684 44.1213 49.3581 43.6993 49.4703 43.7109Z" fill="#263238"/>
<path d="M48.7502 26.4826C48.5954 26.9085 47.039 26.711 45.2117 26.9356C43.3843 27.1601 41.9015 27.6634 41.6576 27.2801C41.5492 27.0982 41.8047 26.6994 42.4009 26.289C43.1981 25.7808 44.101 25.4618 45.0405 25.3565C45.98 25.2511 46.9311 25.3622 47.8211 25.6812C48.4754 25.9638 48.8161 26.2968 48.7502 26.4826Z" fill="#263238"/>
<path d="M63.1215 26.2269C62.8466 26.5831 61.7742 26.2269 60.4811 26.2037C59.188 26.1805 58.0963 26.4476 57.8407 26.0759C57.7323 25.8978 57.9027 25.5416 58.3789 25.2048C59.0179 24.7935 59.7683 24.5894 60.5276 24.6202C61.2864 24.6308 62.0228 24.8785 62.6337 25.3287C63.0905 25.7081 63.2299 26.0566 63.1215 26.2269Z" fill="#263238"/>
<path d="M25.01 54.1485C26.5715 54.4626 28.1853 54.4008 29.7181 53.9679C31.2509 53.5351 32.6587 52.7438 33.8252 51.6593C34.9918 50.5749 35.8835 49.2284 36.4268 47.7312C36.9701 46.234 37.1494 44.629 36.9498 43.0488C36.5975 40.2729 35.0992 37.4467 36.0632 34.8218C37.337 31.3375 42.2035 30.2805 43.4966 26.8116C44.2476 24.7984 43.574 22.4407 44.4257 20.4662C45.2271 18.6117 47.1784 17.5393 49.0716 16.8541C50.9647 16.1688 53.0128 15.6926 54.6078 14.4498C56.2029 13.2071 57.2018 10.8687 56.1565 9.13037C47.7138 10.1422 39.4219 12.1567 31.4561 15.1312C29.6133 15.8165 27.6775 16.645 26.5857 18.2865C25.4243 20.021 25.4862 22.2626 25.583 24.3416C26.0605 34.4927 26.5341 44.6413 27.0038 54.7873" fill="#263238"/>
<path d="M56.4935 4.84839C56.7838 7.69783 57.0703 10.6286 56.2921 13.3657C55.514 16.1029 53.4195 18.7007 50.5933 19.173C49.2576 19.3976 47.7554 19.173 46.6559 19.9473C44.333 21.6315 46.2301 25.5727 44.8557 28.1008C43.6206 30.3656 40.3027 30.5708 38.6612 32.5569C36.8493 34.7482 37.7862 38.0467 39.0484 40.5903C40.3105 43.1339 41.8746 45.9408 41.0306 48.6547C40.0859 51.6861 36.4622 53.3005 35.5717 56.3474C34.9987 58.3142 35.6027 60.7339 34.1973 62.2244C33.1133 63.3859 31.3131 63.3859 29.7412 63.2504C23.2578 62.6661 16.9809 60.6694 11.3515 57.4005C12.3055 55.828 12.8289 54.0321 12.8691 52.1933L9.70606 54.5162L2.41211 45.4259C3.15285 43.5727 4.2608 41.8886 5.66932 40.4747C7.07783 39.0609 8.75779 37.9466 10.6081 37.1989C12.8149 36.32 15.6411 35.5767 16.156 33.2577C16.4425 31.9762 14.9017 29.6416 15.734 26.6761C15.734 26.6761 17.12 21.0043 20.4031 19.4053C23.6862 17.8064 23.2293 16.8463 23.9455 14.6627" fill="#263238"/>
<path d="M4.21998 44.4735C4.21998 44.3961 5.23819 44.4309 7.05781 44.4503C8.15552 44.4675 9.25324 44.4171 10.3447 44.2993C11.7728 44.1593 13.1675 43.7825 14.4718 43.1843C15.2134 42.8292 15.9079 42.3831 16.5392 41.8564C17.2142 41.2943 17.7821 40.6149 18.2156 39.8509C18.6615 39.0208 18.949 38.1149 19.0634 37.1795C19.2183 36.1962 19.2725 35.147 19.4506 34.0475C19.5892 32.88 19.9689 31.7542 20.5656 30.7412C20.9051 30.202 21.3502 29.7372 21.8741 29.3745C22.4133 29.0238 23.0114 28.7733 23.6396 28.6351C24.8707 28.3486 26.0941 28.3796 27.2517 28.2479C28.4093 28.1163 29.5165 27.8104 30.2521 26.9819C30.9878 26.1058 31.4745 25.0482 31.6614 23.9196C31.9053 22.7852 31.9827 21.5966 32.2189 20.3926C32.4064 19.1724 32.8859 18.0156 33.6165 17.0205C33.9953 16.5495 34.4369 16.1326 34.9289 15.7816C35.4116 15.4469 35.9313 15.1689 36.4775 14.9531C38.5837 14.0936 40.7749 14.0936 42.7107 14.3066C44.6465 14.5195 46.3964 14.8176 47.9953 14.8834C48.7508 14.9268 49.5085 14.9048 50.2602 14.8176C50.921 14.7347 51.5704 14.5776 52.1959 14.3491C53.2122 13.9941 54.1376 13.419 54.906 12.665C55.3909 12.1843 55.7729 11.61 56.0288 10.977C56.2068 10.5434 56.2649 10.2957 56.3075 10.3034C56.3366 10.5535 56.3061 10.8069 56.2185 11.0429C56.0328 11.7449 55.6824 12.3926 55.1964 12.9322C54.4306 13.7873 53.4744 14.4504 52.405 14.8679C51.7434 15.1409 51.0521 15.3358 50.3454 15.4487C49.5574 15.5663 48.7607 15.6142 47.9644 15.5919C46.2996 15.5687 44.5187 15.2861 42.6294 15.1351C41.6672 15.0517 40.6996 15.0517 39.7374 15.1351C38.7351 15.2234 37.7514 15.4596 36.8182 15.8358C35.8629 16.2162 35.0216 16.8362 34.3753 17.6361C33.748 18.5151 33.3417 19.5323 33.1906 20.6017C32.9738 21.7205 32.9003 22.9246 32.6409 24.1519C32.4201 25.4615 31.8488 26.687 30.9877 27.6982C30.5142 28.2135 29.9269 28.6112 29.2726 28.8596C28.6574 29.0832 28.0159 29.2263 27.364 29.2855C26.1173 29.4249 24.9288 29.3978 23.8796 29.6455C23.3669 29.7517 22.8777 29.9498 22.4355 30.2301C22.0179 30.5162 21.6624 30.8836 21.3902 31.3103C20.8535 32.2032 20.5057 33.1967 20.3681 34.2294C20.1978 35.2631 20.132 36.3162 19.9539 37.3538C19.8058 38.3886 19.4685 39.3873 18.9589 40.3C18.4603 41.1397 17.8136 41.8821 17.0502 42.4913C16.3565 43.0434 15.5954 43.5052 14.7854 43.8657C13.3984 44.4575 11.9198 44.8059 10.4144 44.8955C9.29702 44.9764 8.17522 44.9764 7.05781 44.8955C5.21497 44.7019 4.21611 44.5354 4.21998 44.4735Z" fill="#E0E0E0"/>
<path d="M28.9821 9.79607C29.1021 9.85027 29.044 10.2994 28.7653 10.9575C28.3826 11.8007 27.8618 12.574 27.2244 13.2456C26.6035 13.928 25.8799 14.5093 25.0796 14.9684C24.4602 15.3053 24.0227 15.4137 23.953 15.2975C23.8059 15.0497 25.1144 14.0431 26.4811 12.5603C27.8477 11.0775 28.715 9.67993 28.9821 9.79607Z" fill="#0B9346"/>
<path d="M78.1585 138.54L80.2413 160L14.8977 159.977L27.5228 134.494L78.1585 138.54Z" fill="#0B9346"/>
<path d="M80.1406 113.433L92.8547 132.175C92.8547 132.175 95.4525 111.61 95.6926 112.07C95.9326 112.531 81.4453 92.3799 81.4453 92.3799L80.1406 113.433Z" fill="#EB996E"/>
<path d="M27.6506 67.8576C27.1473 67.8576 10.9449 74.4392 9.09047 77.4822C7.23601 80.5253 18.8196 137.595 18.8196 137.595L78.1585 138.815L78.7431 111.536L83.1683 75.0393L58.6305 66.7697L55.3591 63.9203L48.7117 75.4961L30.4497 63.7964L27.6506 67.8576Z" fill="#0B9346"/>
<g opacity="0.3">
<path d="M25.188 158.114C29.1215 157.089 32.3658 154.196 34.6229 150.817C36.88 147.437 38.266 143.561 39.5978 139.721C40.9296 135.88 42.2421 131.978 44.3714 128.528C45.9432 125.977 47.9255 123.708 49.8961 121.455C50.7859 120.336 51.8285 119.349 52.9933 118.52C54.4838 117.56 56.2531 117.154 57.9798 116.759L67.0702 114.695C68.2199 114.502 69.3286 114.116 70.3494 113.553C71.3327 112.934 72.1303 111.885 72.1225 110.719C67.589 111.176 63.0128 111.037 58.4831 111.521C53.9534 112.005 49.3541 113.189 45.7342 115.957C42.1143 118.726 39.7527 122.899 37.9214 127.107C33.4731 137.34 31.3902 148.641 25.4977 158.114" fill="black"/>
</g>
<path d="M9.09028 77.4822C9.09028 77.4822 4.16957 80.711 2.89584 90.9899C1.9357 98.6285 0.0192871 120.251 0.0192871 120.251L23.4304 118.296L9.09028 77.4822Z" fill="#0B9346"/>
<path d="M0 120.251C0.0388094 120.238 0.0792724 120.232 0.120022 120.231L0.464588 120.193L1.80413 120.061L6.72872 119.616L22.9891 118.23L23.4073 118.195L23.3143 118.307C22.4897 112.09 21.7657 106.48 21.2082 102.411L20.5927 97.6062C20.5268 97.0487 20.4765 96.6113 20.4378 96.2977C20.4378 96.1583 20.4107 96.046 20.403 95.957C20.3986 95.9184 20.3986 95.8794 20.403 95.8408C20.416 95.8785 20.4251 95.9174 20.4301 95.957C20.4301 96.0421 20.461 96.1544 20.4843 96.2938C20.5307 96.6035 20.5965 97.041 20.6778 97.5946C20.8404 98.7561 21.065 100.374 21.3553 102.391C21.909 106.46 22.6755 112.07 23.5234 118.265V118.369H23.415L22.9969 118.404L6.73646 119.732L1.80801 120.119L0.464588 120.212L0.116147 120.231L0 120.251Z" fill="#263238"/>
<path d="M48.5178 75.3453C48.3853 75.3246 48.2555 75.2895 48.1306 75.2407L47.0621 74.9001L43.2409 73.6224L43.3377 73.5837L41.549 76.6151L41.5026 76.6926L41.4213 76.65C40.4844 76.197 39.4855 75.6898 38.4595 75.144C35.883 73.7643 33.3787 72.2537 30.9565 70.6181C30.0274 69.9948 29.2918 69.4567 28.7846 69.0928L28.2077 68.6824C28.1379 68.6349 28.073 68.5804 28.0142 68.5198C28.0911 68.5539 28.1638 68.5968 28.231 68.6475L28.8272 69.054C29.3498 69.4025 30.097 69.9135 31.0378 70.5214C32.9116 71.7448 35.5482 73.3747 38.5679 74.9775C39.5862 75.5234 40.585 76.0305 41.5181 76.4874L41.3942 76.5261L43.206 73.5102L43.2409 73.4521L43.3067 73.4753L47.1047 74.8188L48.1616 75.2059C48.2835 75.2438 48.4025 75.2903 48.5178 75.3453Z" fill="#263238"/>
<path d="M58.3401 66.8704C58.3495 66.932 58.3495 66.9946 58.3401 67.0562C58.3401 67.1801 58.3169 67.3582 58.2821 67.5905C58.1885 68.2423 58.0593 68.8885 57.8949 69.5262C57.6561 70.4728 57.3481 71.4006 56.9735 72.3021C56.7606 72.8093 56.5205 73.3358 56.2418 73.8507C56.1024 74.1179 55.9553 74.385 55.7966 74.6521C55.7185 74.7903 55.6264 74.9201 55.5217 75.0393C55.461 75.1118 55.3843 75.1691 55.2976 75.2067C55.2109 75.2444 55.1166 75.2613 55.0222 75.2561C54.8435 75.2268 54.6798 75.1382 54.5577 75.0044C54.4377 74.8883 54.3447 74.7644 54.2441 74.6521L53.6517 73.9591L52.5329 72.6505C52.3751 72.4484 52.1807 72.2777 51.9599 72.1472C51.8649 72.09 51.7548 72.0631 51.6441 72.07C51.5335 72.0769 51.4275 72.1174 51.3404 72.186C51.169 72.3345 51.018 72.505 50.8913 72.6931L50.5042 73.2158L49.3079 74.7644L48.9749 75.1825C48.9365 75.2326 48.8937 75.2792 48.8472 75.3219C48.8472 75.3219 48.8743 75.26 48.9401 75.1593L49.2421 74.7179L50.4035 73.1229L50.7907 72.5963C50.9222 72.3912 51.0811 72.205 51.263 72.0427C51.376 71.9553 51.512 71.9029 51.6544 71.8919C51.7968 71.8808 51.9394 71.9118 52.0644 71.9808C52.3077 72.1192 52.5219 72.3032 52.6955 72.5228C53.0555 72.937 53.4349 73.3707 53.8221 73.8236L54.4183 74.5128C54.6196 74.7373 54.8054 75.0161 55.0648 75.0509C55.3242 75.0857 55.5023 74.7838 55.6494 74.5282C55.7966 74.2727 55.9514 74.0017 56.0908 73.7539C56.3695 73.2313 56.6134 72.7125 56.8264 72.2053C57.2045 71.3152 57.5227 70.4008 57.7788 69.4682C57.9995 68.6706 58.1311 68.0125 58.2163 67.5556C58.2439 67.3249 58.2852 67.0961 58.3401 66.8704Z" fill="#263238"/>
<path d="M69.1882 129.465C69.2153 129.516 64.0778 132.392 57.713 135.896C51.3482 139.4 46.1681 142.195 46.141 142.148C46.1139 142.102 51.2514 139.221 57.6162 135.718C63.981 132.214 69.1611 129.399 69.1882 129.465Z" fill="#263238"/>
<path d="M65.6418 140.759C65.6418 140.813 62.3355 141.037 58.251 141.254C54.1666 141.471 50.8564 141.603 50.8525 141.548C50.8487 141.494 54.1588 141.27 58.2433 141.053C62.3277 140.836 65.6379 140.693 65.6418 140.759Z" fill="#263238"/>
<path d="M80.5625 116.217L77.2407 112.798L80.5741 95.3184L83.9114 107.053L80.5625 116.217Z" fill="#0B9346"/>
<path d="M78.0848 137.541C78.0814 137.512 78.0814 137.482 78.0848 137.452V137.208C78.0848 136.95 78.0848 136.613 78.0848 136.198C78.0848 135.299 78.1274 134.037 78.1545 132.481C78.2165 129.345 78.3055 125.013 78.3559 120.228C78.4062 115.442 78.3984 111.102 78.3171 107.97C78.2862 106.402 78.2203 105.136 78.1661 104.261C78.1352 103.836 78.112 103.487 78.0926 103.251C78.0926 103.146 78.0926 103.061 78.0926 102.992C78.0875 102.961 78.0875 102.929 78.0926 102.899C78.1044 102.927 78.111 102.957 78.1119 102.988L78.1468 103.247C78.1739 103.495 78.2126 103.832 78.2591 104.254C78.3326 105.129 78.4217 106.395 78.472 107.967C78.5881 111.102 78.6191 115.439 78.5688 120.228C78.5185 125.017 78.4101 129.349 78.3094 132.485C78.2552 134.033 78.2087 135.303 78.1739 136.198C78.1545 136.624 78.139 136.972 78.1236 137.208C78.1236 137.313 78.1236 137.402 78.1236 137.471C78.1134 137.496 78.1004 137.519 78.0848 137.541Z" fill="#263238"/>
<path d="M66.9113 65.6316C66.5615 65.51 66.1854 65.4847 65.8224 65.5583C65.4594 65.6318 65.1228 65.8015 64.8478 66.0497C63.9264 66.913 64.0425 67.8925 64.329 68.814C64.4506 69.3127 64.7598 69.7454 65.1924 70.0219L68.9903 68.2371L66.9113 65.6316Z" fill="#EB996E"/>
<path d="M63.4505 71.6594C63.4505 71.6594 61.8593 72.7473 61.8013 73.0764C61.7587 73.3126 62.049 73.6107 62.4981 73.4636C63.0108 73.2284 63.5086 72.9621 63.9887 72.666L63.4505 71.6594Z" fill="#0B9346"/>
<g opacity="0.3">
<path d="M63.4505 71.6594C63.4505 71.6594 61.8593 72.7473 61.8013 73.0764C61.7587 73.3126 62.049 73.6107 62.4981 73.4636C63.0108 73.2284 63.5086 72.9621 63.9887 72.666L63.4505 71.6594Z" fill="black"/>
</g>
<path d="M67.1902 67.6446L62.8076 71.7794L63.7832 73.1344L68.5181 71.4425L92.6842 57.7257C92.894 57.6069 93.0775 57.4467 93.2234 57.2547C93.3693 57.0627 93.4746 56.8431 93.5329 56.6091C93.5913 56.3751 93.6014 56.1317 93.5626 55.8937C93.5238 55.6557 93.437 55.4281 93.3075 55.2247C93.0652 54.8439 92.6868 54.5698 92.2495 54.4583C91.8121 54.3468 91.3486 54.4063 90.9536 54.6246L67.1902 67.6446Z" fill="#455A64"/>
<path d="M113.37 119.632C113.099 115.706 88.5187 81.7603 86.9817 79.6426L82.723 70.8271L80.9189 63.4016C80.9189 63.4016 71.2826 57.842 70.5199 57.842C69.7572 57.842 66.0057 62.6389 65.9399 63.4016C65.9295 63.643 65.9673 63.8841 66.051 64.1107C66.1348 64.3374 66.2628 64.5451 66.4277 64.7217L66.9117 69.5805C66.5955 70.2234 66.5468 70.9653 66.7762 71.644C67.1904 72.6351 68.8552 72.6352 68.8552 72.6352L68.2319 74.7335C68.2319 74.7335 68.3712 77.0758 68.7855 77.49C68.9481 77.6526 69.7689 77.7688 70.6825 77.5984C71.484 77.4513 71.7085 76.286 71.6698 75.7285C71.9253 76.1428 72.7964 75.7285 72.7964 75.7285C72.8777 76.7157 73.9075 77.4513 73.9075 77.4513C73.9075 77.4513 75.3787 83.3902 75.5878 84.1529C75.7968 84.9156 77.1132 86.863 79.0722 87.556C79.2361 87.6133 79.3965 87.6805 79.5522 87.7573C80.9576 93.0729 90.7835 129.709 92.8548 132.175C95.0886 134.827 101.14 136.488 106.587 136.21C112.034 135.931 113.649 123.681 113.37 119.632Z" fill="#FFBE9D"/>
<path d="M75.7039 62.5266C75.25 62.5911 74.7919 62.6209 74.3334 62.6157C73.4855 62.6428 72.3164 62.666 71.0233 62.6699C70.3767 62.6699 69.7611 62.6699 69.2036 62.6699C68.921 62.6699 68.6539 62.6699 68.4022 62.6389C68.1849 62.6304 67.9695 62.6812 67.7789 62.786C67.4882 62.9398 67.2199 63.1326 66.9814 63.359C66.8072 63.5177 66.7181 63.6145 66.7065 63.6029C66.6949 63.5913 66.7684 63.4829 66.9272 63.3048C67.1482 63.0484 67.4098 62.83 67.7015 62.6583C67.9133 62.5325 68.1559 62.4682 68.4022 62.4724C68.6461 62.4724 68.9133 62.4724 69.1765 62.4724H74.3063C74.7729 62.4555 75.2401 62.4736 75.7039 62.5266Z" fill="#EB996E"/>
<path d="M72.8001 62.5263C72.8001 62.5496 72.5717 62.4876 72.2736 62.2863C71.8887 62.0201 71.54 61.7052 71.236 61.3494L71.1276 61.2216L71.2941 61.1132C71.3461 61.2518 71.3461 61.4044 71.2941 61.543C71.2533 61.6586 71.1945 61.7671 71.1199 61.8643C71.0084 62.0202 70.8784 62.1619 70.7327 62.2863C70.4811 62.4992 70.303 62.5883 70.2875 62.5689C70.272 62.5496 70.4191 62.4179 70.6398 62.1818C70.7664 62.0497 70.8816 61.9073 70.9844 61.7559C71.0489 61.6801 71.0942 61.5898 71.1164 61.4928C71.1387 61.3957 71.1372 61.2948 71.1121 61.1984L70.8334 60.5635L71.2825 61.09L71.387 61.2139C71.6846 61.5572 72.0095 61.8757 72.3588 62.1663C72.622 62.3947 72.8156 62.4876 72.8001 62.5263Z" fill="#EB996E"/>
<path d="M75.0107 66.8625C74.613 66.8984 74.2137 66.9139 73.8144 66.9089C73.075 66.9283 72.0567 66.9825 70.934 67.0793C69.9882 67.1325 69.0645 67.3859 68.2239 67.8226C67.5774 68.1711 67.2328 68.4769 67.2096 68.4498C67.1864 68.4227 67.2793 68.353 67.4341 68.2175C67.6577 68.0246 67.8974 67.851 68.1504 67.6987C69.0017 67.2089 69.957 66.9277 70.9379 66.878C71.8994 66.7915 72.8646 66.754 73.8299 66.7657C74.2259 66.7542 74.6219 66.7866 75.0107 66.8625Z" fill="#EB996E"/>
<path d="M70.4577 67.0253C70.0103 67.0362 69.5728 66.8917 69.2199 66.6164C68.8669 66.3411 68.6203 65.9521 68.522 65.5154C68.7652 65.8566 69.04 66.1742 69.3427 66.4639C69.6965 66.6847 70.0697 66.8726 70.4577 67.0253Z" fill="#EB996E"/>
<path d="M74.9139 69.7237C74.6744 69.9097 74.4028 70.0501 74.1125 70.1379C73.4241 70.365 72.7185 70.5359 72.0025 70.649C71.2953 70.7562 70.6012 70.9366 69.9312 71.1871C69.428 71.3923 69.1569 71.5743 69.126 71.5743C69.3356 71.3543 69.5906 71.1826 69.8732 71.071C70.5405 70.7778 71.2433 70.5735 71.9638 70.4632C72.6723 70.3541 73.3741 70.2055 74.066 70.0179C74.5887 69.8437 74.8984 69.6966 74.9139 69.7237Z" fill="#EB996E"/>
<path d="M71.0347 73.657C71.0347 73.657 71.2399 73.7073 71.4916 73.9241C71.8294 74.2211 72.0389 74.6374 72.0762 75.0856C72.1128 75.3353 72.0651 75.59 71.9407 75.8096C71.8402 75.9839 71.709 76.1386 71.5535 76.2664C71.2825 76.4793 71.0541 76.4832 71.0541 76.46C71.0541 76.4367 71.2438 76.3748 71.4412 76.158C71.5652 76.0288 71.6683 75.8812 71.7471 75.7205C71.8413 75.5313 71.8763 75.3182 71.8478 75.1088C71.8047 74.7105 71.6335 74.3369 71.3599 74.0441C71.1819 73.7964 71.0154 73.6841 71.0347 73.657Z" fill="#EB996E"/>
<path d="M73.9421 73.3512C73.9654 73.3512 73.9189 73.5216 73.8066 73.7694C73.6644 74.1032 73.4359 74.3932 73.1446 74.6095C72.9758 74.7306 72.7783 74.8053 72.5716 74.8263C72.4021 74.8444 72.2309 74.8163 72.0761 74.745C71.8089 74.6172 71.7392 74.4314 71.7625 74.4236C71.7857 74.4159 71.8902 74.5398 72.1264 74.6133C72.2797 74.6564 72.4409 74.6633 72.5974 74.6338C72.7538 74.6043 72.9014 74.539 73.0285 74.443C73.2922 74.2456 73.5145 73.9983 73.6827 73.7152C73.8221 73.479 73.915 73.328 73.9421 73.3512Z" fill="#EB996E"/>
<path d="M74.8093 76.3168C74.8093 76.34 74.6429 76.402 74.3641 76.371C73.993 76.3263 73.6506 76.1489 73.4001 75.8716C73.155 75.59 73.0178 75.2305 73.0129 74.8572C73.0129 74.5746 73.0904 74.4159 73.1136 74.4236C73.1368 74.4314 73.1136 74.594 73.1562 74.8495C73.1958 75.1765 73.3304 75.4848 73.5433 75.7361C73.7665 75.9801 74.0579 76.1514 74.3796 76.2277C74.639 76.2936 74.8055 76.2858 74.8093 76.3168Z" fill="#EB996E"/>
<path d="M91.3137 59.0498C90.3356 58.0879 89.5913 56.9144 89.1379 55.6196C89.1844 55.6196 89.5948 56.3939 90.1987 57.3502C90.8027 58.3065 91.3525 59.0033 91.3137 59.0498Z" fill="#263238"/>
<path d="M91.7279 58.4226C89.6631 59.6279 87.5635 60.7739 85.429 61.8605L85.3903 61.8838C85.3725 61.9157 85.3619 61.9512 85.3595 61.9876C85.357 62.0241 85.3626 62.0607 85.3759 62.0947C85.3892 62.1288 85.4099 62.1594 85.4365 62.1846C85.4631 62.2097 85.4949 62.2286 85.5296 62.2399C85.6755 62.2791 85.8305 62.2654 85.9671 62.2012C86.3225 62.0577 86.6656 61.8855 86.9931 61.6863L91.1937 59.2937C91.3644 59.2108 91.517 59.095 91.6428 58.953C91.706 58.8819 91.7477 58.7942 91.7628 58.7002C91.7778 58.6063 91.7658 58.5099 91.7279 58.4226Z" fill="#263238"/>
<path d="M29.3152 121.11L22.513 131.606L22.1258 118.4L3.1321 119.988C3.10112 120.503 4.49875 136.043 6.61647 149.45C7.53402 155.296 13.4962 159.733 19.4157 159.733C21.7052 159.736 23.9478 159.084 25.8799 157.856C27.8119 156.628 29.353 154.873 30.3218 152.799L41.9364 123.658L29.3152 121.11Z" fill="#FFBE9D"/>
<path d="M43.3844 79.7587C43.3573 79.5806 43.9613 77.13 43.9613 77.13C43.9613 77.13 73.4701 75.6549 73.5359 75.6936L75.3129 76.7622L43.3844 79.7587Z" fill="white"/>
<path d="M43.3843 79.7587L43.5546 79.7316L44.0424 79.6813L45.9008 79.4916L52.7224 78.8218L75.305 76.6615L75.2624 76.8512L74.2752 76.255L73.7254 75.9259C73.6415 75.8647 73.5488 75.8165 73.4506 75.7827C73.362 75.795 73.2728 75.8015 73.1834 75.802L71.9174 75.8601L69.428 75.9763L64.6351 76.2047L55.9784 76.6151L43.9766 77.1687L44.0115 77.1377C43.8063 77.974 43.6475 78.6244 43.5353 79.0735C43.423 79.5226 43.3959 79.7549 43.3959 79.7549C43.4014 79.5219 43.4352 79.2905 43.4965 79.0657C43.5895 78.6166 43.7327 77.9624 43.934 77.13V77.1029H43.965L55.9667 76.4641L64.6196 76.0266L69.4164 75.7904L71.9058 75.6743L73.1718 75.6162C73.2918 75.6162 73.4196 75.6162 73.5396 75.6162C73.6417 75.6511 73.7382 75.7007 73.8261 75.7633L74.372 76.0963L75.3592 76.6886L75.6225 76.8474L75.3166 76.8745L52.6605 78.9573L45.8504 79.5652L44.0115 79.7239L43.5391 79.7626L43.3843 79.7587Z" fill="#263238"/>
<path d="M43.5391 80.2387L43.3842 79.7586L42.9932 77.2963L15.335 71.6555L12.6443 73.6803L16.6939 109.585L44.8012 116.585L43.5391 80.2387Z" fill="white"/>
<path d="M43.5393 80.2386C43.5393 80.2386 43.5393 80.2966 43.5393 80.4089C43.5393 80.5212 43.5393 80.6915 43.5625 80.9083C43.5625 81.3574 43.609 82.0117 43.6439 82.8635C43.7097 84.5824 43.8026 87.0912 43.9265 90.2736C44.1549 96.6538 44.484 105.76 44.875 116.6V116.716L44.7589 116.689L16.6709 109.682H16.6051V109.612L16.2993 106.937C14.9365 94.811 13.655 83.4287 12.5632 73.7112V73.6608L12.6019 73.6299L15.312 71.6089L15.343 71.5857H15.3778L43.0283 77.2807H43.0476V77.3001C43.249 78.628 43.369 79.4294 43.4348 79.7624C43.5664 80.1844 43.5819 80.2463 43.5819 80.2463C43.5819 80.2463 43.5587 80.1882 43.4193 79.7662C43.3651 79.4294 43.2296 78.6357 43.0089 77.3078L43.0322 77.331L15.3623 71.7444H15.4282L12.7374 73.7731L12.7723 73.6957C13.8718 83.4132 15.161 94.7916 16.5354 106.917C16.6399 107.835 16.7445 108.748 16.8374 109.596L16.7638 109.507L44.8673 116.519L44.755 116.608C44.3949 105.767 44.093 96.6887 43.88 90.3123C43.7794 87.126 43.7019 84.6173 43.6477 82.8983C43.6245 82.0427 43.6051 81.3884 43.5935 80.9393C43.5935 80.7186 43.5935 80.5522 43.5935 80.4321C43.5935 80.3121 43.5393 80.2386 43.5393 80.2386Z" fill="#263238"/>
<path d="M11.5913 73.3823L14.193 109.655L44.8013 116L75.6651 110.452L76.0251 76.6344L45.2697 78.3805C45.2697 78.3805 45.0839 79.7587 42.8268 79.7084L41.3092 79.1896L13.136 73.6843L11.5913 73.3823Z" fill="#455A64"/>
<path d="M46.0711 117.618C46.0131 117.618 45.7924 108.834 45.5678 98.0013C45.3433 87.1687 45.2155 78.3804 45.2697 78.3804C45.3239 78.3804 45.5485 87.161 45.7692 97.9974C45.9898 108.834 46.1253 117.614 46.0711 117.618Z" fill="#263238"/>
<path d="M42.134 116.581C42.134 116.581 42.134 116.55 42.134 116.488C42.134 116.426 42.134 116.317 42.1108 116.205C42.1108 115.938 42.0721 115.574 42.045 115.117C41.9869 114.173 41.9249 112.794 41.8552 111.11C41.7197 107.73 41.5881 103.054 41.4874 97.8928C41.3868 92.7321 41.3326 88.0514 41.3132 84.6677C41.3132 82.9874 41.3132 81.6208 41.3132 80.6568C41.3132 80.1999 41.3132 79.836 41.3132 79.5689V79.2862C41.3132 79.2204 41.3132 79.1895 41.3132 79.1895C41.3184 79.2215 41.3184 79.2542 41.3132 79.2862V79.5689C41.3132 79.8321 41.3326 80.196 41.3442 80.6568C41.3442 81.6208 41.3868 82.9797 41.4216 84.6638C41.4797 88.063 41.561 92.7321 41.6539 97.8889C41.7468 103.046 41.863 107.723 41.9637 111.106C42.014 112.787 42.0566 114.149 42.0875 115.113C42.0875 115.574 42.1108 115.938 42.1185 116.201C42.1185 116.317 42.1185 116.41 42.1185 116.484C42.1298 116.515 42.135 116.548 42.134 116.581Z" fill="#263238"/>
<path d="M52.2499 107.529C53.7482 106.05 55.2155 104.544 55.5523 103.998C56.2918 102.798 55.0877 101.966 54.2592 101.594C53.4307 101.222 42.5208 110.56 42.5208 110.56C42.5208 110.56 51.6692 102.43 52.2267 101.873C52.7842 101.315 53.1481 100.58 52.5945 99.1007C52.0409 97.6218 50.2716 98.1754 49.6366 98.2683C49.0017 98.3612 38.6415 107.049 38.6415 107.049C38.6415 107.049 44.6462 101.242 45.1999 100.765C45.7535 100.289 45.9393 99.4685 45.7574 98.3612C45.5754 97.254 44.3714 97.3469 43.539 97.3469C42.7066 97.3469 29.706 108.896 29.706 108.896L30.3255 114.993L28.1226 124.335L38.3627 128.304C40.1204 127.564 43.4461 123.236 44.0926 122.388C44.7392 121.54 48.4365 115.272 48.4365 115.272C49.9154 114.44 52.0409 111.114 52.8732 110.189C53.7056 109.263 53.4269 108.803 52.9623 108.063C52.7145 107.676 50.3025 109.612 48.1229 111.462L48.6223 111.021C48.6223 111.021 50.4535 109.294 52.2499 107.529Z" fill="#FFBE9D"/>
<path d="M33.6706 111.312C33.6706 111.331 33.4847 111.486 33.0976 111.579C32.5851 111.698 32.0471 111.635 31.5761 111.401C31.108 111.16 30.7375 110.764 30.5269 110.282C30.425 110.092 30.3806 109.877 30.3991 109.662C30.434 109.662 30.4804 109.891 30.6547 110.22C30.8855 110.645 31.2371 110.993 31.6651 111.219C32.1007 111.432 32.5905 111.509 33.0705 111.439C33.4422 111.385 33.659 111.269 33.6706 111.312Z" fill="#EB996E"/>
<path d="M37.8906 114.792C37.7176 114.863 37.5271 114.879 37.3447 114.839C36.8948 114.783 36.475 114.584 36.1483 114.27C35.8216 113.955 35.6057 113.544 35.5328 113.096C35.4842 112.916 35.4923 112.726 35.556 112.551C35.5909 112.551 35.5909 112.756 35.6722 113.065C35.7786 113.468 35.9912 113.834 36.2878 114.126C36.5907 114.411 36.9654 114.608 37.3718 114.695C37.6776 114.753 37.8906 114.753 37.8906 114.792Z" fill="#EB996E"/>
<path d="M42.5713 118.296C42.3582 118.334 42.139 118.314 41.9363 118.238C41.4245 118.097 40.9646 117.81 40.6122 117.413C40.2597 117.016 40.0298 116.525 39.9502 116C39.8971 115.788 39.9038 115.566 39.9696 115.357C40.0006 115.357 40.0006 115.601 40.0896 115.973C40.2017 116.457 40.4333 116.906 40.7633 117.278C41.0933 117.65 41.5112 117.933 41.9789 118.102C42.1797 118.156 42.3774 118.221 42.5713 118.296Z" fill="#EB996E"/>
<path d="M24.0036 129.516C24.05 129.547 21.8897 132.907 19.1796 137.019C16.4696 141.13 14.2396 144.444 14.1931 144.413C14.1467 144.382 16.3031 141.022 19.0132 136.91C21.7232 132.799 23.9571 129.485 24.0036 129.516Z" fill="#EB996E"/>
<path d="M57.5772 89.48L57.3565 92.0816L56.9693 92.1242L55.7266 90.4634L55.5717 92.283L55.1033 92.3372L55.3239 89.7355L55.7111 89.689L56.9577 91.3538L57.1087 89.5342L57.5772 89.48Z" fill="#263238"/>
<path d="M57.98 90.9474C57.9513 90.7437 57.9648 90.5363 58.0196 90.338C58.0745 90.1397 58.1694 89.9548 58.2987 89.7947C58.4279 89.6346 58.5886 89.5028 58.7709 89.4074C58.9531 89.312 59.153 89.2551 59.3582 89.2401C60.1325 89.1549 60.6242 89.546 60.6978 90.1925C60.7264 90.3966 60.7127 90.6045 60.6574 90.803C60.602 91.0016 60.5063 91.1866 60.3763 91.3465C60.2462 91.5064 60.0845 91.6377 59.9013 91.7322C59.7182 91.8268 59.5175 91.8825 59.3118 91.896C58.553 91.9811 58.0535 91.5901 57.98 90.9474ZM60.2332 90.2738C60.2252 90.1732 60.1952 90.0756 60.1454 89.9878C60.0955 89.9001 60.027 89.8243 59.9446 89.766C59.8623 89.7076 59.7681 89.6681 59.6688 89.6501C59.5695 89.6322 59.4674 89.6363 59.3698 89.6621C59.2287 89.6766 59.092 89.7198 58.9683 89.7892C58.8445 89.8585 58.7363 89.9525 58.6503 90.0654C58.5643 90.1782 58.5023 90.3075 58.4683 90.4452C58.4342 90.583 58.4288 90.7262 58.4523 90.8661C58.4604 90.9663 58.4903 91.0635 58.5399 91.1509C58.5896 91.2383 58.6577 91.3138 58.7396 91.3721C58.8215 91.4304 58.9151 91.4701 59.014 91.4883C59.1128 91.5066 59.2145 91.503 59.3118 91.4778C59.4533 91.4639 59.5904 91.421 59.7146 91.3519C59.8388 91.2827 59.9475 91.1888 60.0339 91.0759C60.1203 90.963 60.1825 90.8335 60.2168 90.6955C60.2511 90.5576 60.2567 90.414 60.2332 90.2738Z" fill="#263238"/>
<path d="M61.7701 89.4141L60.9299 89.5071L60.9648 89.0967L63.1212 88.8528L63.0825 89.2632L62.2385 89.36L62.0565 91.5512L61.5842 91.6054L61.7701 89.4141Z" fill="#263238"/>
<path d="M63.9111 89.1664L63.8569 89.8439L65.0881 89.7045L65.0571 90.0917L63.8221 90.2311L63.7601 90.9512L65.2003 90.7886L65.1655 91.1757L63.2568 91.3925L63.4775 88.7909L65.3358 88.5818L65.301 88.9883L63.9111 89.1664Z" fill="#263238"/>
<path d="M65.5103 90.897L65.669 90.5098C65.9273 90.6642 66.2297 90.7282 66.5285 90.6918C66.9156 90.6531 67.1247 90.4904 67.0976 90.2659C67.0434 89.7936 65.789 90.1846 65.6961 89.3677C65.6419 88.8644 66.0561 88.4927 66.7143 88.4192C67.0114 88.3777 67.3143 88.4192 67.5893 88.5392L67.446 88.9264C67.2249 88.8193 66.9777 88.7776 66.7336 88.8063C66.3465 88.8528 66.1374 89.0348 66.1607 89.2554C66.2149 89.7316 67.4692 89.3522 67.5583 90.1304C67.6164 90.6376 67.1982 91.0092 66.5285 91.0828C66.1779 91.1331 65.8205 91.0679 65.5103 90.897Z" fill="#263238"/>
<path d="M69.6253 91.9849C69.6253 92.0391 66.0171 92.6159 61.5455 93.2702C57.0739 93.9245 53.4462 94.4084 53.4385 94.3542C53.4307 94.3 57.0468 93.7232 61.5184 93.0689C65.99 92.4146 69.6176 91.9307 69.6253 91.9849Z" fill="#263238"/>
<path d="M69.9081 93.5412C69.9081 93.5954 66.6599 94.1567 62.6335 94.7917C58.6071 95.4266 55.3395 95.8951 55.3318 95.8409C55.3241 95.7866 58.58 95.2292 62.6025 94.5904C66.625 93.9516 69.8965 93.487 69.9081 93.5412Z" fill="#263238"/>
</svg>
