<svg width="104" height="140" viewBox="0 0 104 140" fill="none" xmlns="http://www.w3.org/2000/svg">
<path d="M85.2157 33.8658C85.9973 32.6207 86.4179 31.1831 86.4308 29.7131C86.4437 28.243 86.0483 26.7983 85.2887 25.5397C84.5291 24.281 83.435 23.258 82.1284 22.5843C80.8217 21.9107 79.3537 21.6129 77.8879 21.7242C78.8116 16.8009 75.6405 11.4395 70.8791 9.88253C70.5124 6.23052 66.6414 3.34033 63.037 4.02122C62.2335 2.80281 61.1441 1.79948 59.8638 1.09872C58.5836 0.397956 57.1513 0.0210469 55.692 0.000856299C54.2326 -0.0193343 52.7905 0.317808 51.4913 0.982882C50.1921 1.64796 49.0754 2.62076 48.2385 3.81648C46.8626 2.67707 45.2159 1.91222 43.4577 1.59598C41.6995 1.27974 39.8894 1.42282 38.2028 2.01138C36.5161 2.59995 35.01 3.61404 33.8302 4.95548C32.6505 6.29691 31.8371 7.92023 31.4688 9.66826C29.7365 9.29151 27.9412 9.31482 26.2193 9.73644C24.4974 10.1581 22.8944 10.9669 21.5322 12.1014C20.17 13.2358 19.0846 14.6661 18.3584 16.2832C17.6322 17.9004 17.2845 19.6619 17.3416 21.4337C17.4178 23.7002 18.0987 26.1952 16.8655 28.0997C15.9132 29.5901 14.0705 30.1995 12.6135 31.2089C8.56155 34.0134 7.90448 40.5985 11.3232 44.1505C10.0474 45.0655 9.03906 46.3046 8.40232 47.7397C7.76558 49.1748 7.52352 50.7539 7.70116 52.3138C7.8788 53.8737 8.46969 55.3579 9.4128 56.6131C10.3559 57.8683 11.617 58.8489 13.0659 59.4537C12.4707 64.6913 17.3511 69.8003 22.5887 69.4527L69.4554 66.0197C72.0933 66.3269 74.7656 65.9291 77.1997 64.8669C79.6337 63.8046 81.7426 62.1158 83.3111 59.9727C85.0586 57.5491 86.0061 54.6923 86.9346 51.8354C87.7964 49.2071 88.663 46.5312 88.7439 43.7648C88.8329 40.1423 87.5759 36.6154 85.2157 33.8658Z" fill="#263238"/>
<path d="M72.9932 28.0281C71.1314 19.7051 60.7372 12.7392 52.519 14.9532L26.155 24.4285L26.9597 28.9423L37.4967 84.689C37.4967 84.689 42.6962 102.397 57.7804 98.9495C71.3362 95.8498 68.2889 81.4941 68.2889 81.4894L66.1986 71.0142C66.1986 71.0142 77.1927 68.8144 77.1975 54.4445C77.2023 47.2642 75.0644 37.2605 72.9932 28.0281Z" fill="#FFBE9D"/>
<path d="M70.8455 41.9603C70.9232 42.4257 70.8178 42.903 70.5516 43.2926C70.2854 43.6822 69.8789 43.9537 69.4171 44.0505C69.1913 44.1046 68.9569 44.1129 68.7277 44.0751C68.4986 44.0373 68.2793 43.9541 68.0828 43.8303C67.8863 43.7065 67.7165 43.5447 67.5834 43.3544C67.4503 43.1641 67.3566 42.9491 67.3078 42.7221C67.2277 42.2564 67.332 41.7778 67.5987 41.3876C67.8653 40.9975 68.2733 40.7264 68.7362 40.6318C68.9621 40.5784 69.1963 40.5706 69.4252 40.6087C69.6541 40.6468 69.8731 40.7301 70.0694 40.8538C70.2658 40.9774 70.4355 41.139 70.5688 41.3289C70.702 41.5189 70.7961 41.7335 70.8455 41.9603Z" fill="#263238"/>
<path d="M71.6979 35.8561C71.5122 36.1275 69.9886 35.3371 68.0554 35.6466C66.1223 35.9561 64.8558 37.1512 64.6082 36.9464C64.4891 36.856 64.651 36.3989 65.1986 35.8513C65.9429 35.1359 66.8914 34.6699 67.9126 34.5181C68.9191 34.3612 69.9495 34.5279 70.8552 34.9943C71.5265 35.3418 71.7979 35.7323 71.6979 35.8561Z" fill="#263238"/>
<path d="M54.4093 43.9695C54.4881 44.4351 54.3833 44.9131 54.1169 45.3029C53.8505 45.6928 53.4432 45.9641 52.9808 46.0598C52.755 46.1138 52.5206 46.1222 52.2915 46.0844C52.0623 46.0466 51.8431 45.9633 51.6466 45.8396C51.45 45.7158 51.2803 45.554 51.1472 45.3637C51.0141 45.1734 50.9204 44.9584 50.8715 44.7314C50.7915 44.2657 50.8958 43.7871 51.1624 43.3969C51.429 43.0068 51.837 42.7357 52.3 42.6411C52.5258 42.5877 52.76 42.5799 52.9889 42.618C53.2178 42.6561 53.4368 42.7394 53.6331 42.863C53.8295 42.9867 53.9993 43.1482 54.1325 43.3382C54.2658 43.5282 54.3598 43.7428 54.4093 43.9695Z" fill="#263238"/>
<path d="M53.9475 38.9795C53.7618 39.2509 52.2381 38.4558 50.305 38.77C48.3719 39.0843 47.1053 40.2746 46.8577 40.0699C46.7387 39.9794 46.8958 39.5223 47.4434 38.9748C48.1882 38.2601 49.1365 37.7943 50.1574 37.6416C51.1655 37.4826 52.198 37.6494 53.1047 38.1177C53.7713 38.4653 54.0379 38.8557 53.9475 38.9795Z" fill="#263238"/>
<path d="M61.9942 52.1118C61.9704 52.0165 63.1465 51.6356 65.0606 51.1119C65.5367 50.9833 66.0128 50.8262 66.0414 50.5262C66.07 50.2262 65.8367 49.7834 65.5224 49.3359C64.9082 48.3836 64.2654 47.4313 63.5845 46.3885C62.9036 45.3458 59.1802 39.2035 59.0564 38.5798C59.2611 38.475 61.6228 41.8033 64.3321 46.0124L66.2128 48.993C66.4699 49.4406 66.8747 49.9453 66.7175 50.5976C66.6583 50.7704 66.5619 50.9281 66.4353 51.0597C66.3086 51.1913 66.1547 51.2936 65.9843 51.3595C65.7188 51.4665 65.4427 51.5447 65.1605 51.5928C63.2274 51.9927 62.0132 52.2022 61.9942 52.1118Z" fill="#263238"/>
<path d="M66.2985 71.0527C59.7129 72.2003 52.938 71.4965 46.729 69.0195C46.729 69.0195 53.076 78.0662 66.8984 74.5142L66.2985 71.0527Z" fill="#EB996E"/>
<path d="M56.2186 53.202C56.5281 53.1353 56.8661 55.2351 58.8992 56.4398C60.9324 57.6444 63.1322 57.0635 63.1845 57.354C63.2369 57.4825 62.7512 57.8301 61.8132 58.0158C60.5843 58.2268 59.3204 57.9992 58.2422 57.373C57.2098 56.7683 56.452 55.787 56.1281 54.6352C55.9186 53.7734 56.071 53.2163 56.2186 53.202Z" fill="#263238"/>
<path d="M52.281 32.6229C52.1524 33.2561 50.4193 33.0752 48.4242 33.5371C46.4292 33.9989 44.8484 34.8322 44.5437 34.2941C44.4056 34.0323 44.6484 33.4323 45.2674 32.7848C46.035 32.0098 47.0108 31.4739 48.0766 31.2421C49.1082 31.0082 50.1871 31.1031 51.162 31.5135C51.9286 31.861 52.3334 32.3134 52.281 32.6229Z" fill="#263238"/>
<path d="M70.7123 29.1948C70.4838 29.7947 68.9792 29.5852 67.3127 29.9471C65.6462 30.3089 64.3273 31.0136 63.8797 30.5518C63.675 30.3232 63.7749 29.7566 64.2796 29.1233C64.9463 28.3541 65.8503 27.8288 66.8488 27.6305C67.8472 27.4322 68.8833 27.5721 69.7934 28.0282C70.4933 28.4282 70.8123 28.9091 70.7123 29.1948Z" fill="#263238"/>
<path d="M48.8432 54.0971C48.7888 53.8963 48.6904 53.71 48.5552 53.5518C48.42 53.3936 48.2513 53.2674 48.0614 53.1823C47.8714 53.0973 47.6649 53.0555 47.4569 53.06C47.2488 53.0646 47.0443 53.1153 46.8583 53.2085C46.6722 53.3017 46.5091 53.4351 46.3809 53.599C46.2527 53.763 46.1626 53.9534 46.1169 54.1564C46.0713 54.3595 46.0714 54.5701 46.1171 54.7732C46.1629 54.9762 46.2532 55.1665 46.3815 55.3303C45.7577 55.27 45.1311 55.4137 44.596 55.7398C44.1198 56.116 43.958 56.9921 44.4865 57.3254C44.7341 57.4777 45.0578 57.473 45.3197 57.6015C45.5367 57.7465 45.7116 57.946 45.827 58.1801C45.9423 58.4141 45.994 58.6744 45.9768 58.9347C45.9352 59.4525 45.9786 59.9737 46.1053 60.4774C46.2863 60.9536 46.8719 61.3583 47.3243 61.106C47.7766 60.8536 47.7576 59.9918 48.1909 59.5775C48.3995 59.4293 48.6491 59.3497 48.9051 59.3497C49.161 59.3497 49.4106 59.4293 49.6193 59.5775C50.0621 59.8299 50.424 60.2203 50.8763 60.4632C51.094 60.6034 51.3517 60.6681 51.6098 60.6475C51.8679 60.6268 52.1121 60.5219 52.3047 60.3489C52.7285 59.8727 52.3666 59.0871 51.9524 58.5824C51.5381 58.0777 51.0239 57.492 51.1905 56.8588C51.3239 56.3826 51.8048 56.0827 52.1428 55.7113C52.4189 55.4145 52.596 55.0394 52.6498 54.6377C52.7035 54.236 52.6312 53.8275 52.4428 53.4686C52.3389 53.298 52.2023 53.1496 52.0408 53.032C51.8792 52.9144 51.6961 52.83 51.5018 52.7835C51.3075 52.737 51.1059 52.7294 50.9086 52.7612C50.7114 52.793 50.5224 52.8635 50.3525 52.9687C50.0948 53.2043 49.8604 53.4642 49.6526 53.7448C49.5469 53.8841 49.4076 53.9943 49.2477 54.0651C49.0878 54.1359 48.9126 54.1649 48.7384 54.1495" fill="#FF725E"/>
<path d="M15.2325 62.1628C14.997 63.2245 15.0317 64.3282 15.3334 65.373C15.6351 66.4178 16.1942 67.3702 16.9593 68.1429C17.7245 68.9157 18.6713 69.4841 19.7131 69.796C20.7548 70.108 21.8582 70.1536 22.9222 69.9287C22.6603 71.3571 23.484 72.8712 24.6886 73.714C25.9368 74.5087 27.3949 74.9101 28.8739 74.8662C31.0921 74.8994 33.2835 74.3785 35.2495 73.3508C37.2154 72.3231 38.8939 70.8211 40.1327 68.9808C41.3716 67.1405 42.1316 65.0202 42.344 62.812C42.5563 60.6037 42.2143 58.3774 41.3489 56.3348C44.3962 54.9064 45.9151 51.2639 45.8436 47.8928C45.7722 44.5217 44.4152 41.3268 43.1011 38.2271C45.3772 36.913 47.2311 34.9765 48.4448 32.6453C49.6585 30.314 50.1816 27.6848 49.9528 25.0665C52.4957 25.6903 55.1589 25.6246 57.668 24.8763C60.1771 24.128 62.4412 22.7241 64.2269 20.8092C66.0127 18.8944 67.2555 16.538 67.8272 13.9829C68.399 11.4278 68.279 8.76647 67.4796 6.27319L38.711 8.32537L22.3793 20.7432L19.213 39.1746L12.4661 55.9825L15.2325 62.1628Z" fill="#263238"/>
<path d="M30.6117 78.2044C30.6117 78.2044 22.3506 75.3475 15.6132 84.2466C13.2325 87.3749 1.90985 119.224 1.90985 119.224C1.90985 119.224 -4.31809 134.522 5.71899 138.584C15.7561 142.645 25.6217 136.679 25.6217 136.679L33.8781 128.418L28.0358 110.696L30.6117 78.2044Z" fill="#0B9346"/>
<path d="M74.5549 78.8186C74.5549 79.2662 86.2395 80.4613 92.0389 95.0074C93.6482 99.0451 102.843 137.56 102.843 137.56C102.843 137.56 82.5398 136.956 82.0875 137.56C81.6352 138.165 74.5549 78.8186 74.5549 78.8186Z" fill="#0B9346"/>
<path d="M76.4214 79.4183L67.2985 76.5138C60.304 84.313 43.4295 83.8131 35.7588 75.5044L23.9838 78.2327L15.7561 108.458L19.3224 137.374H83.1255C83.1255 137.374 84.6253 103.635 84.7301 103.03C84.8348 102.425 76.4214 79.4183 76.4214 79.4183Z" fill="#0B9346"/>
<path d="M84.0777 109.368C83.9901 109.187 83.9246 108.997 83.8825 108.801C83.7587 108.385 83.6 107.866 83.4064 107.244C83.0017 105.935 82.3922 104.14 81.5875 102.207C80.7828 100.274 79.9305 98.5785 79.283 97.3691L78.5069 95.9406C78.3989 95.7714 78.3095 95.591 78.2402 95.4026C78.3721 95.5501 78.49 95.7095 78.5926 95.8787C78.8021 96.1977 79.0925 96.6739 79.4353 97.2691C81.2231 100.388 82.6146 103.718 83.5778 107.182C83.7587 107.849 83.892 108.387 83.973 108.763C84.0288 108.961 84.0639 109.163 84.0777 109.368Z" fill="#263238"/>
<g opacity="0.3">
<path d="M59.8898 108.773C58.9375 108.03 57.7424 108.087 56.6045 108.158C54.5092 108.25 52.4206 108.457 50.3479 108.777C47.7958 109.215 45.2532 110.025 43.1725 111.572C40.7632 113.363 39.1538 115.996 37.5064 118.505C35.8589 121.014 34.021 123.557 31.3737 124.971L32.5974 125.899C33.7211 126.752 33.1782 128.28 32.3402 129.385L27.8931 134.07C30.1595 133.732 33.1306 130.97 34.5162 129.166C35.9018 127.361 37.0255 125.318 38.5444 123.6C40.6822 121.171 43.5534 119.519 46.3626 117.924C49.0671 116.391 51.7764 114.872 54.5142 113.405C55.4714 112.853 56.5 112.435 57.571 112.163C58.6995 111.92 60.1184 111.782 60.5136 110.687C60.6255 110.343 60.6255 109.972 60.5134 109.628C60.4013 109.284 60.183 108.985 59.8898 108.773Z" fill="black"/>
</g>
<path d="M23.66 113.125C23.2175 112.64 22.7401 112.188 22.2316 111.772C21.669 111.351 21.0175 111.065 20.327 110.934C19.4734 110.799 18.5997 110.871 17.7797 111.144C16.2881 111.69 14.8708 112.421 13.561 113.32C13.042 113.644 12.6088 113.905 12.3231 114.077C12.1736 114.175 12.014 114.256 11.8469 114.32C11.9758 114.194 12.1198 114.086 12.2754 113.996L13.4706 113.172C13.98 112.829 14.5847 112.42 15.2894 112.01C16.0532 111.552 16.8662 111.182 17.713 110.906C18.5705 110.622 19.4849 110.555 20.3746 110.71C21.0985 110.853 21.7768 111.17 22.3506 111.634C22.7357 111.939 23.0826 112.289 23.3839 112.677C23.4917 112.816 23.5843 112.966 23.66 113.125Z" fill="#263238"/>
<path d="M24.4599 112.62C24.4123 112.62 24.2933 112.191 23.8695 111.62C23.6161 111.291 23.3161 111.001 22.9791 110.758C22.5583 110.467 22.1044 110.227 21.6269 110.044C20.7456 109.726 19.824 109.534 18.8891 109.472C18.4974 109.467 18.1064 109.44 17.7178 109.391C18.1045 109.302 18.5025 109.27 18.8986 109.296C19.8607 109.309 20.8138 109.485 21.7174 109.815C22.213 110.007 22.6819 110.261 23.1125 110.572C23.4623 110.839 23.7663 111.16 24.0124 111.525C24.1072 111.661 24.1886 111.806 24.2552 111.958C24.3141 112.07 24.3604 112.188 24.3933 112.31C24.4334 112.409 24.456 112.513 24.4599 112.62Z" fill="#263238"/>
<path d="M30.7498 98.6974C30.8165 98.6974 30.1022 101.33 29.15 104.535C28.1977 107.739 27.3835 110.32 27.3168 110.301C27.2502 110.282 27.9644 107.668 28.9119 104.463C29.8594 101.259 30.6831 98.6783 30.7498 98.6974Z" fill="#263238"/>
<path d="M32.4544 125.823C32.4544 125.823 32.5115 125.847 32.602 125.914C32.7317 126.017 32.8456 126.139 32.94 126.276C33.1069 126.538 33.2116 126.834 33.2463 127.143C33.2809 127.451 33.2446 127.764 33.14 128.056C32.8297 128.907 32.3429 129.683 31.7116 130.332C31.064 131.104 30.3165 131.918 29.4928 132.737C28.0886 134.132 26.5691 135.406 24.9504 136.546C24.3266 136.984 23.8124 137.317 23.4505 137.536C23.2675 137.661 23.073 137.768 22.8696 137.855C23.0312 137.706 23.2066 137.572 23.3934 137.455C23.741 137.213 24.2409 136.86 24.8456 136.403C26.4266 135.228 27.9223 133.943 29.3214 132.556C30.1403 131.746 30.8831 130.942 31.5402 130.175C32.1572 129.553 32.6429 128.813 32.9686 127.999C33.074 127.728 33.1183 127.437 33.0986 127.146C33.0788 126.856 32.9954 126.573 32.8543 126.318C32.7322 126.145 32.5986 125.979 32.4544 125.823Z" fill="#263238"/>
<path d="M28.6692 131.027C28.5857 131.054 28.4993 131.07 28.412 131.075C28.2406 131.075 27.9883 131.132 27.6645 131.151C26.7469 131.222 25.8252 131.222 24.9076 131.151C24.2672 131.108 23.6307 131.019 23.0031 130.885C22.281 130.742 21.5813 130.503 20.9223 130.175C20.5605 129.991 20.2283 129.753 19.9367 129.47C19.6358 129.16 19.4265 128.773 19.332 128.352C19.1276 127.495 19.1017 126.605 19.2558 125.737C19.5653 123.981 19.8653 122.333 20.2081 120.828C20.5509 119.324 20.9128 117.972 21.2509 116.876C21.5889 115.781 21.8936 114.877 22.1222 114.267C22.2317 113.962 22.3269 113.729 22.3936 113.572C22.4194 113.488 22.4562 113.408 22.5031 113.334C22.4934 113.421 22.4709 113.506 22.4364 113.586L22.2127 114.301C22.0127 114.92 21.7365 115.815 21.4175 116.929C21.0985 118.043 20.7557 119.381 20.4319 120.876C20.1081 122.371 19.8129 124.042 19.5082 125.771C19.3575 126.606 19.3802 127.463 19.5748 128.29C19.6751 128.662 19.8582 129.006 20.1106 129.297C20.3629 129.588 20.6779 129.818 21.0318 129.97C21.6727 130.295 22.3529 130.535 23.0554 130.685C23.6686 130.824 24.2906 130.921 24.9171 130.975C25.8256 131.059 26.7385 131.084 27.6502 131.051L28.3977 131.018C28.4882 131.009 28.5795 131.012 28.6692 131.027Z" fill="#263238"/>
<g opacity="0.3">
<path d="M91.3819 125.48C90.6889 123.647 89.4976 122.043 87.942 120.85C86.3865 119.657 84.5287 118.922 82.578 118.729C80.4258 118.548 78.0832 119.005 76.2453 117.886L75.7168 117.196C75.6046 118.535 75.7931 119.882 76.2685 121.139C76.7439 122.396 77.4941 123.53 78.4644 124.46C79.4347 125.39 80.6004 126.091 81.8765 126.512C83.1525 126.933 84.5065 127.064 85.8396 126.895C86.449 128.404 87.068 130.042 86.6442 131.613C86.3728 132.608 85.692 133.451 85.3682 134.422C85.0444 135.394 85.1158 136.679 86.011 137.189C86.9061 137.698 88.1393 137.06 88.9154 136.298C90.2949 134.905 91.2569 133.153 91.6928 131.241C92.1287 129.33 92.021 127.334 91.3819 125.48Z" fill="black"/>
</g>
<path d="M92.4293 108.887C92.4293 108.887 90.939 108.011 91.9055 106.635C92.8721 105.259 96.5574 105.844 96.5574 105.844L100.005 106.658C100.397 106.799 100.737 107.058 100.977 107.399C101.217 107.74 101.347 108.146 101.347 108.563V113.053C101.347 113.053 103.352 114.839 103.576 116.772C103.722 117.757 103.722 118.758 103.576 119.743C103.791 120.619 103.825 121.529 103.676 122.419C103.428 123.904 101.943 125.914 101.943 125.914C101.943 125.914 100.457 131.865 99.2667 132.78C98.0763 133.694 92.5007 133.822 91.2389 133.151C89.9772 132.48 89.082 128.766 89.082 128.766L85.0681 122.3L87.8202 120.071L88.8582 119.495L91.4627 122.224L95.3242 115.639L95.548 109.649C95.548 109.649 92.8292 109.22 92.4293 108.887Z" fill="#FFBE9D"/>
<path d="M92.9387 111.115C92.9387 111.115 90.239 106.635 84.5253 108.334C79.4592 109.844 73.0217 114.824 76.8785 120.538C80.7352 126.252 88.882 121.704 90.6866 120.538C93.6006 118.681 94.7195 114.048 92.9387 111.115Z" fill="#E0E0E0"/>
<path d="M92.9387 111.115C92.9387 111.115 90.2389 106.635 84.5252 108.334C81.4494 109.253 77.8592 111.448 76.3927 114.31C76.3451 114.396 76.307 114.477 76.2642 114.562C76.2642 114.562 76.5594 117.367 77.7735 117.076C78.9877 116.786 80.6304 112.905 81.416 113.058C82.2017 113.21 79.2781 120.109 82.8016 119.633C86.3251 119.157 84.9918 114.596 86.2631 114.872C87.5344 115.148 86.8488 118.205 88.4867 117.524C90.1247 116.843 91.5102 112.158 91.5102 112.158L93.6957 115.158C93.6957 115.158 94.1909 112.524 92.9387 111.115Z" fill="#FF725E"/>
<path d="M101.347 113.058L96.9622 110.458L89.082 110.753C89.082 110.753 88.7868 113.205 90.6438 113.729C92.143 114.093 93.6679 114.341 95.2052 114.472L97.2574 116.995L88.4868 116.405C88.2242 116.892 88.1189 117.448 88.1854 117.997C88.2519 118.546 88.487 119.061 88.8582 119.471C89.7775 120.334 90.9746 120.841 92.2341 120.9L89.8534 121.062C89.775 121.416 89.8027 121.786 89.9331 122.124C90.0635 122.463 90.2908 122.756 90.5866 122.966C91.8274 123.825 93.1115 124.62 94.4338 125.347C94.4338 125.347 94.7529 128.47 95.3433 129.156C95.9337 129.842 99.6571 129.827 99.6571 129.827L102.852 120.833L101.347 113.058Z" fill="#FFBE9D"/>
<path d="M101.347 113.058C100.901 112.865 100.47 112.639 100.057 112.382C99.2619 111.939 98.1525 111.301 96.9003 110.563H96.9669L95.5766 110.62C93.7815 110.686 92.1627 110.734 90.9866 110.758C90.3962 110.758 89.9248 110.758 89.5963 110.758C89.4244 110.772 89.2513 110.763 89.082 110.729C89.249 110.689 89.4198 110.666 89.5915 110.663C89.92 110.634 90.3914 110.606 90.9771 110.572C92.1531 110.506 93.772 110.429 95.5671 110.363L96.9574 110.31H96.9955H97.0241C98.2763 111.058 99.3619 111.739 100.133 112.215C100.559 112.464 100.965 112.746 101.347 113.058Z" fill="#EB996E"/>
<path d="M102.705 122.305C102.741 122.092 102.792 121.882 102.857 121.676C102.92 121.432 102.966 121.184 102.995 120.933C103.016 120.783 103.016 120.631 102.995 120.481C102.971 120.324 102.857 120.191 102.733 120.21H102.705H102.676C101.3 119.448 99.343 118.348 97.2099 117.119H97.267H97.2241C94.8149 116.957 92.6294 116.796 91.0343 116.643L89.1678 116.477C88.9372 116.466 88.7078 116.435 88.4822 116.386C88.7117 116.363 88.9431 116.363 89.1726 116.386L91.0438 116.477C92.6246 116.558 94.8101 116.696 97.2337 116.858H97.3051H97.3289C99.4763 118.086 101.405 119.21 102.757 120.014H102.7C102.812 120.013 102.919 120.055 103.001 120.131C103.083 120.207 103.132 120.312 103.138 120.424C103.162 120.59 103.162 120.758 103.138 120.924C103.098 121.179 103.038 121.431 102.957 121.676C102.909 121.83 102.854 121.981 102.79 122.128C102.738 122.252 102.714 122.305 102.705 122.305Z" fill="#EB996E"/>
<path d="M97.8858 117.338C97.8572 117.362 97.7096 117.124 97.7096 116.729C97.7143 116.517 97.6837 116.307 97.6191 116.105C97.5429 115.905 97.3049 115.81 97.0335 115.672C96.3839 115.384 95.7702 115.022 95.2051 114.591C95.8839 114.802 96.5359 115.091 97.1477 115.453C97.2807 115.514 97.4095 115.584 97.5334 115.662C97.6674 115.747 97.7708 115.872 97.8286 116.019C97.8975 116.249 97.9154 116.491 97.881 116.729C97.8572 117.11 97.9286 117.319 97.8858 117.338Z" fill="#EB996E"/>
<path d="M98.5382 124.371C98.2864 124.109 98.0585 123.826 97.8574 123.523C97.4526 122.976 96.9051 122.195 96.2337 121.276L96.329 121.324C95.7147 121.324 95.0386 121.352 94.3339 121.324C92.935 121.33 91.5502 121.044 90.2677 120.486C89.8862 120.304 89.5254 120.082 89.1916 119.824C89.0643 119.732 88.9505 119.623 88.8535 119.5C89.3294 119.808 89.8258 120.083 90.3391 120.324C91.6145 120.825 92.9732 121.08 94.3434 121.076C95.0386 121.1 95.71 121.076 96.3242 121.076H96.3861L96.4242 121.128C97.0622 122.057 97.6003 122.857 97.9764 123.428C98.1937 123.724 98.3818 124.039 98.5382 124.371Z" fill="#EB996E"/>
<path d="M96.1525 129.823C96.0018 129.785 95.8617 129.714 95.7431 129.613C95.4127 129.355 95.1402 129.031 94.9431 128.661C94.6615 128.119 94.4227 127.555 94.2289 126.975C94.0085 126.282 93.6017 125.663 93.0529 125.185C92.4529 124.709 91.753 124.395 91.1816 123.99C90.6421 123.656 90.2272 123.154 90.0008 122.562C89.8624 122.153 89.8862 121.706 90.0674 121.314C90.115 121.209 90.1812 121.114 90.2627 121.033C90.3246 120.981 90.3531 120.957 90.3627 120.962C90.2847 121.087 90.2147 121.218 90.1532 121.352C90.0186 121.725 90.0186 122.132 90.1532 122.504C90.3868 123.048 90.7891 123.502 91.3007 123.8C91.853 124.181 92.5577 124.48 93.2052 124.995C93.7885 125.5 94.2162 126.16 94.4384 126.899C94.6205 127.474 94.8384 128.037 95.0907 128.585C95.3388 129.078 95.7033 129.503 96.1525 129.823Z" fill="#EB996E"/>
<path d="M99.7619 109.987C99.0144 110.16 98.2418 110.197 97.4812 110.096C96.7113 110.072 95.9518 109.911 95.2385 109.62C95.2385 109.548 96.2527 109.739 97.5002 109.834C98.7477 109.929 99.7571 109.925 99.7619 109.987Z" fill="#EB996E"/>
<path d="M88.8391 108.182C88.1326 108.102 87.4203 108.084 86.7107 108.13C85.0022 108.301 83.3398 108.785 81.8064 109.558C80.267 110.323 78.8858 111.371 77.7354 112.648C76.8546 113.629 76.4117 114.329 76.3784 114.301C76.4495 114.121 76.544 113.951 76.6593 113.796C76.9518 113.356 77.2698 112.933 77.6116 112.529C79.9188 109.858 83.1909 108.211 86.7107 107.949C87.2388 107.914 87.7692 107.939 88.2915 108.025C88.4328 108.049 88.5727 108.081 88.7105 108.12C88.8105 108.158 88.8391 108.177 88.8391 108.182Z" fill="#263238"/>
<path d="M88.6868 108.73C88.045 108.658 87.3994 108.626 86.7537 108.634C85.1974 108.739 83.6798 109.165 82.297 109.887C80.9061 110.596 79.6481 111.54 78.5783 112.677C77.7593 113.553 77.3546 114.186 77.3213 114.162C77.3823 113.992 77.469 113.831 77.5784 113.686C77.843 113.288 78.1341 112.908 78.4497 112.548C79.4967 111.353 80.7641 110.37 82.1827 109.653C83.594 108.911 85.1553 108.499 86.7489 108.449C87.228 108.442 87.7065 108.483 88.1773 108.573C88.3544 108.598 88.5263 108.651 88.6868 108.73Z" fill="white"/>
<path d="M89.082 128.742L86.5728 137.375H101.652L100.743 128.375L94.4148 131.028L89.082 128.742Z" fill="#FFBE9D"/>
<path d="M95.6243 134.208C95.5112 134.231 95.3946 134.231 95.2815 134.208C94.9699 134.17 94.6634 134.098 94.3673 133.994C93.3939 133.637 92.5135 133.066 91.7914 132.323C91.0765 131.584 90.4487 130.766 89.9201 129.885C89.6812 129.538 89.4786 129.168 89.3154 128.78C89.5989 129.095 89.8523 129.437 90.0725 129.799C90.6385 130.638 91.2757 131.426 91.9771 132.156C92.6803 132.875 93.5185 133.447 94.4435 133.841C95.1434 134.127 95.6338 134.179 95.6243 134.208Z" fill="#EB996E"/>
<path d="M37.1826 89.3081C41.9821 91.6269 78.6069 109.663 78.6069 109.663L79.4307 107.949L37.6539 88.3368C37.5301 88.277 37.3881 88.2668 37.2571 88.3084C37.126 88.3501 37.0159 88.4403 36.9493 88.5605C36.9133 88.6245 36.8908 88.6951 36.8831 88.768C36.8754 88.8409 36.8827 88.9147 36.9046 88.9847C36.9264 89.0547 36.9623 89.1195 37.0101 89.1751C37.058 89.2307 37.1166 89.276 37.1826 89.3081Z" fill="#FF725E"/>
<path d="M79.4353 107.949C79.4353 107.949 82.9397 107.906 83.5206 107.101L83.673 108.887L80.2019 110.358L78.6116 109.663L79.4353 107.949Z" fill="#FF725E"/>
<path d="M78.6115 109.663L79.4352 107.949L72.3836 104.64L71.3027 106.068L78.6115 109.663Z" fill="#E0E0E0"/>
<path d="M22.3506 113.943L37.649 104.33C37.649 104.33 43.2009 93.774 44.1484 93.0931C45.0959 92.4122 54.4378 91.4694 55.7901 92.1408C57.1423 92.8122 62.8322 99.5877 62.8322 99.5877C62.8322 99.5877 62.8322 101.621 61.2086 101.349L64.3178 104.735C64.3178 104.735 62.9655 106.901 62.018 106.639C62.018 106.639 62.5608 108.706 61.6133 108.891C61.0778 109.003 60.5251 109.003 59.9896 108.891C59.9896 108.891 60.5277 110.429 59.7182 110.563C58.9088 110.696 52.2714 111.106 52.2714 111.106C52.2714 111.106 48.2099 115.3 46.4482 115.843C45.2507 116.155 43.9936 116.155 42.7961 115.843L27.0834 131.008C27.0834 131.008 19.908 131.546 19.3699 127.756C18.8319 123.966 22.3506 113.943 22.3506 113.943Z" fill="#FFBE9D"/>
<path d="M48.0767 96.8833C48.2634 96.8339 48.455 96.8051 48.648 96.7976C49.0242 96.7595 49.5622 96.7166 50.2288 96.6738C50.8954 96.6309 51.6953 96.6023 52.581 96.5928C53.5455 96.5658 54.5105 96.6183 55.4664 96.7499C56.4082 97.031 57.2753 97.5191 58.0042 98.1784C58.6157 98.6724 59.2006 99.1985 59.7564 99.7544C60.2326 100.231 60.5992 100.621 60.8468 100.907C60.9865 101.05 61.108 101.21 61.2087 101.383C61.052 101.267 60.9069 101.136 60.7754 100.992C60.5087 100.73 60.1231 100.354 59.6326 99.8973C59.1422 99.4402 58.5566 98.9164 57.8614 98.3736C57.1543 97.7555 56.3231 97.296 55.4235 97.0261C54.4774 96.8919 53.5221 96.833 52.5667 96.8499C51.6858 96.8499 50.8907 96.8499 50.2241 96.8785L48.6433 96.9214C48.4536 96.9303 48.2635 96.9175 48.0767 96.8833Z" fill="#EB996E"/>
<path d="M62.0181 106.635C61.8488 106.529 61.6894 106.408 61.542 106.273C61.223 105.992 60.8182 105.649 60.3421 105.24C59.866 104.83 59.2232 104.287 58.5232 103.763C57.7932 103.161 56.994 102.648 56.1425 102.235C55.2422 101.937 54.3109 101.742 53.3666 101.654C52.4905 101.554 51.7001 101.502 51.0335 101.464L49.4527 101.397C49.2582 101.4 49.0638 101.386 48.8718 101.354C49.0624 101.312 49.2576 101.294 49.4527 101.302C49.8289 101.302 50.3669 101.278 51.0383 101.302C51.7096 101.326 52.5096 101.349 53.3904 101.44C54.3625 101.518 55.3217 101.713 56.2473 102.021C57.1232 102.441 57.9423 102.971 58.6851 103.597C59.3803 104.149 59.9802 104.673 60.4754 105.125C60.9706 105.578 61.3658 105.949 61.6277 106.216C61.7768 106.336 61.9082 106.477 62.0181 106.635Z" fill="#EB996E"/>
<path d="M59.9899 108.887C59.4513 108.733 58.9246 108.54 58.4138 108.311C57.8628 108.072 57.2984 107.865 56.7235 107.692C56.011 107.502 55.2875 107.355 54.5571 107.254C53.0049 107.02 51.5812 106.896 50.5527 106.806C49.9945 106.779 49.4382 106.722 48.8862 106.635C49.0278 106.599 49.1738 106.585 49.3195 106.592C49.61 106.592 50.029 106.592 50.5432 106.62C51.893 106.677 53.2391 106.803 54.5761 106.996C55.3161 107.106 56.0478 107.265 56.7664 107.473C57.3469 107.657 57.9134 107.883 58.4615 108.149C58.988 108.358 59.4989 108.604 59.9899 108.887Z" fill="#EB996E"/>
</svg>
