<svg width="176" height="181" viewBox="0 0 176 181" fill="none" xmlns="http://www.w3.org/2000/svg">
<g clip-path="url(#clip0_8494_15392)">
<path d="M-0.5 -0.5L45.8388 53.295L68.4492 40.7664L106.034 101.371L139.459 92.2138L162.375 131.881L169.512 127.445L168.561 148.427L150.89 139.019L157.338 135.011L134.244 104.438L100.201 113.808L63.3891 58.1685L39.5825 69.5662L-0.5 17V-0.5Z" fill="#555555" fill-opacity="0.5"/>
<path d="M162.794 175.649C162.794 175.704 125.661 175.748 79.865 175.748C34.0534 175.748 -3.07227 175.704 -3.07227 175.649C-3.07227 175.595 34.0534 175.551 79.865 175.551C125.661 175.55 162.794 175.595 162.794 175.649Z" fill="#263238"/>
<path d="M71.076 32.9925C70.7017 33.0282 70.3137 32.9856 69.9751 32.823C69.6362 32.6604 69.3512 32.3685 69.241 32.0094C69.1308 31.6499 69.2159 31.2262 69.4887 30.9675C68.9324 30.8717 68.5175 30.2713 68.6242 29.7173C68.731 29.1632 69.3398 28.76 69.8915 28.8782C69.8931 28.2239 70.0853 27.571 70.438 27.02L73.3264 28.6145L71.076 32.9925Z" fill="#263238"/>
<path d="M86.4332 29.0876C87.438 29.2293 88.4985 28.5932 88.8466 27.6401C88.9515 27.3532 88.9956 27.0325 88.8983 26.743C88.801 26.4534 88.5392 26.2075 88.2341 26.1942C88.6414 25.9142 88.9496 25.4772 89.0256 24.9889C89.1016 24.5006 88.926 23.969 88.5415 23.6585C88.1569 23.348 87.5687 23.2967 87.1602 23.5745C87.1701 23.0406 86.8433 22.5155 86.3607 22.2878L84.1855 22.7894L86.4332 29.0876Z" fill="#263238"/>
<path d="M83.1339 51.7618L83.1624 45.439C83.1624 45.439 87.7121 44.6942 87.7319 40.1391C87.7414 37.9393 87.3921 33.4078 87.0289 29.3103C86.6382 24.905 82.9294 21.5389 78.507 21.5743L78.0677 21.5777C73.3314 21.8923 70.953 26.0906 71.3987 30.8166L72.8351 48.4976L78.7631 53.348L83.1339 51.7618Z" fill="#FFBF9D"/>
<g opacity="0.3">
<path d="M86.1239 28.5297C86.0836 28.1968 85.9655 27.8578 85.7139 27.6363C85.4076 27.3661 84.9657 27.319 84.5579 27.3391C83.8078 27.3764 83.0608 27.5979 82.3163 27.4964C81.4944 27.3843 80.7401 26.8554 80.3548 26.1208L80.2529 25.9605C79.7388 26.2147 79.127 26.1246 78.5676 25.9985C78.0083 25.8723 77.4273 25.7158 76.8706 25.8533C76.2367 26.0103 75.7439 26.5354 75.4703 27.1282C75.1967 27.721 75.1104 28.3811 75.0405 29.0301C75.0245 29.1776 75.0101 29.3303 75.0591 29.4702C75.156 29.7457 75.4638 29.8825 75.7488 29.9463C76.4716 30.1078 77.2224 29.9965 77.9612 29.9429C78.6995 29.8889 79.4838 29.9037 80.1215 30.2799C80.4726 30.487 80.8112 30.81 81.2162 30.7637C81.5438 30.7264 81.7874 30.457 82.0636 30.2765C82.5094 29.9851 83.0638 29.9193 83.5962 29.9083C84.1286 29.8973 84.6681 29.933 85.1872 29.8133C85.5045 29.74 85.8275 29.5933 85.9982 29.3163C86.1403 29.0856 86.1562 28.7983 86.1239 28.5297Z" fill="#455A64"/>
</g>
<path d="M83.1622 45.4388C83.1622 45.4388 80.2932 45.7033 77.2129 44.2244C77.2129 44.2244 78.6155 47.0481 83.1568 46.6016L83.1622 45.4388Z" fill="#FF9A6C"/>
<path d="M84.6006 34.2263C84.6154 34.5694 84.3369 34.8655 83.9786 34.8875C83.621 34.9095 83.3181 34.65 83.3033 34.3065C83.2885 33.963 83.5666 33.6669 83.9246 33.6449C84.2829 33.6225 84.5858 33.8828 84.6006 34.2263Z" fill="#263238"/>
<path d="M86.0669 31.5465C85.9871 31.632 85.4916 31.2714 84.7913 31.2786C84.0921 31.276 83.5813 31.6404 83.505 31.5553C83.4673 31.5177 83.5483 31.3638 83.7706 31.1992C83.9895 31.0351 84.3638 30.8747 84.7996 30.8728C85.2355 30.8717 85.6037 31.0294 85.8157 31.192C86.0323 31.3554 86.1064 31.5082 86.0669 31.5465Z" fill="#263238"/>
<path d="M78.7174 34.226C78.7322 34.5695 78.4537 34.8652 78.0957 34.8872C77.7382 34.9093 77.4353 34.6497 77.4205 34.3062C77.4057 33.9631 77.6842 33.667 78.0418 33.6446C78.3997 33.6226 78.7022 33.8829 78.7174 34.226Z" fill="#263238"/>
<path d="M79.1884 31.732C79.1083 31.8175 78.612 31.4568 77.9128 31.4644C77.214 31.4618 76.7029 31.8262 76.6261 31.7411C76.5885 31.7035 76.6687 31.5496 76.8921 31.385C77.111 31.2209 77.4849 31.0605 77.9211 31.0586C78.357 31.0575 78.7252 31.2152 78.9373 31.3774C79.1531 31.5412 79.2276 31.694 79.1884 31.732Z" fill="#263238"/>
<path d="M81.7706 36.9022C81.7668 36.8623 82.2015 36.7837 82.9057 36.6879C83.0843 36.6681 83.253 36.6313 83.2823 36.5089C83.3233 36.3797 83.2469 36.1874 83.1587 35.98C82.9874 35.549 82.8076 35.0968 82.6195 34.6234C81.8698 32.6918 81.326 31.1027 81.4039 31.0734C81.4822 31.0441 82.1529 32.5858 82.9022 34.5173C83.0827 34.9939 83.2553 35.448 83.4194 35.8823C83.4886 36.0848 83.6068 36.3144 83.5179 36.583C83.4707 36.7172 83.3404 36.8152 83.226 36.8467C83.1116 36.8825 83.0113 36.8855 82.9228 36.8912C82.2133 36.9353 81.7736 36.9421 81.7706 36.9022Z" fill="#263238"/>
<path d="M79.1954 27.9205C79.1277 28.1113 78.4281 28.0269 77.6081 28.1326C76.7854 28.2215 76.1253 28.4674 76.0151 28.2975C75.9657 28.2162 76.0797 28.0361 76.3461 27.8499C76.6098 27.664 77.032 27.4855 77.5245 27.4269C78.017 27.3692 78.4692 27.4436 78.769 27.563C79.0715 27.6815 79.2242 27.8301 79.1954 27.9205Z" fill="#263238"/>
<path d="M85.3685 28.2849C85.2469 28.4449 84.7632 28.2838 84.1833 28.2807C83.6038 28.2572 83.1136 28.3963 82.9992 28.2306C82.9491 28.1504 83.0251 27.9904 83.2383 27.838C83.4484 27.6864 83.8011 27.561 84.1997 27.5698C84.5979 27.5793 84.9445 27.7206 85.1478 27.8817C85.3533 28.044 85.4221 28.207 85.3685 28.2849Z" fill="#263238"/>
<path d="M86.574 27.2252C86.574 27.2252 85.35 24.3828 83.9691 23.728C82.2975 22.9357 81.5956 24.7689 80.0053 24.3383C78.415 23.9074 76.8194 23.147 75.2078 24.3866C73.4438 25.7432 74.2829 26.6784 74.1894 28.7003C73.8105 36.8969 72.3331 39.226 71.8767 35.3701C71.8266 34.9475 70.6505 34.6207 70.4624 32.8359C70.2184 30.5213 70.1067 27.7097 70.6106 26.0616C71.0354 24.6727 71.8174 23.709 73.2257 22.6424C75.4487 20.9586 78.5199 20.8982 80.6076 21.0912C82.6946 21.2843 86.7355 23.6524 86.574 27.2252Z" fill="#263238"/>
<path d="M72.1657 35.2437C72.1315 34.5411 71.5212 33.9908 70.8212 34.063C69.9723 34.1504 69.0311 34.6406 69.1014 36.3951C69.2256 39.508 72.3257 38.7412 72.3272 38.6515C72.3287 38.5911 72.2292 36.5459 72.1657 35.2437Z" fill="#FFBF9D"/>
<path d="M71.6036 37.5076C71.5895 37.4981 71.5507 37.5479 71.4607 37.5935C71.3729 37.638 71.2205 37.6722 71.0556 37.6178C70.722 37.5103 70.4244 36.9992 70.3868 36.4387C70.3678 36.156 70.4161 35.8835 70.5076 35.6563C70.5935 35.4249 70.7345 35.2599 70.8987 35.2238C71.0617 35.179 71.1829 35.2736 71.2247 35.3595C71.2699 35.445 71.2528 35.5077 71.2695 35.5126C71.2787 35.5202 71.3341 35.4575 71.3041 35.3302C71.2885 35.2691 71.2494 35.1969 71.1738 35.1402C71.0966 35.0825 70.9857 35.0559 70.8709 35.073C70.6315 35.0992 70.4244 35.3287 70.3237 35.5784C70.2101 35.8296 70.1489 36.1358 70.1702 36.4535C70.215 37.0801 70.5597 37.6543 71.0149 37.7664C71.2361 37.8151 71.4162 37.7413 71.5078 37.6642C71.6009 37.5829 71.6146 37.5126 71.6036 37.5076Z" fill="#FF9A6C"/>
<path d="M82.3066 26.6848C82.3142 26.6848 82.3211 26.6871 82.3287 26.6875C82.3473 26.6886 82.3663 26.6886 82.3849 26.6905L82.3066 26.6848Z" fill="#0B622F"/>
<path d="M87.9621 21.2064C87.6764 20.4198 86.9175 19.8684 86.1043 19.67C85.2911 19.4717 84.4312 19.5838 83.6248 19.8087C83.6658 18.6767 82.3963 17.8578 81.2662 17.9361C80.136 18.0144 79.1541 18.7048 78.2376 19.3702C76.8335 18.5733 74.8039 19.2691 74.1837 20.7595C73.3473 20.3358 72.2871 20.3939 71.5024 20.9069C70.7177 21.4199 70.2389 22.368 70.2917 23.304C69.5606 23.4719 68.9443 24.0662 68.7493 24.7905C68.5544 25.5148 68.7896 26.3383 69.338 26.8501C68.8288 27.1993 68.5852 27.8925 68.7634 28.4837C68.942 29.0746 69.5287 29.517 70.1458 29.5261L72.3255 27.4452C73.5662 27.62 74.8331 26.5378 74.8537 25.2845C75.8101 25.6166 76.9543 25.31 77.6166 24.5447C77.8442 25.1173 78.3698 25.5619 78.9725 25.6911C79.5751 25.8203 80.2367 25.6299 80.6787 25.2002C80.7873 26.0335 81.4128 26.7772 82.215 27.0272C83.0176 27.2776 83.9543 27.0211 84.5174 26.3972C85.3211 27.0177 86.5991 26.8976 87.2728 26.1376C87.9465 25.378 87.9127 24.0947 87.2006 23.3712C87.9492 22.9962 88.2475 21.993 87.9621 21.2064Z" fill="#263238"/>
<path d="M74.7158 25.8101C74.7268 25.8124 74.7242 25.9074 74.6664 26.0693C74.6083 26.2292 74.4874 26.4591 74.2507 26.6723C74.0189 26.8828 73.6545 27.0759 73.2144 27.0744C72.7828 27.077 72.2891 26.8958 71.9483 26.4956L72.128 26.4835C71.9829 26.7141 71.7799 26.9197 71.5375 27.0736C71.0196 27.4008 70.3891 27.4718 69.8834 27.3035C69.37 27.1386 69.0261 26.7658 68.8346 26.4276C68.6404 26.0826 68.5917 25.7584 68.5898 25.543C68.5921 25.3248 68.6316 25.2101 68.643 25.212C68.689 25.2051 68.5803 25.7128 68.9717 26.3451C69.1652 26.6476 69.4912 26.9706 69.9457 27.104C70.3929 27.2427 70.9557 27.1735 71.4163 26.8821C71.6314 26.7449 71.8103 26.5652 71.9395 26.3653L72.0228 26.2368L72.1197 26.3531C72.4066 26.6982 72.8371 26.8703 73.2171 26.8794C73.6024 26.8935 73.9319 26.74 74.1576 26.5614C74.6155 26.1882 74.6801 25.7911 74.7158 25.8101Z" fill="#455A64"/>
<path d="M81.4751 40.2941C81.0457 40.3401 80.6083 40.3097 80.1892 40.2048C79.9935 40.1558 79.7921 40.0843 79.6606 39.932C79.5154 39.764 79.4809 39.5238 79.509 39.3034C79.561 38.8953 79.8164 38.5184 80.1766 38.3189C80.5365 38.1197 80.9921 38.103 81.3653 38.2759C81.3653 38.2759 82.0033 38.6601 82.0569 39.2917C82.1097 39.924 81.4751 40.2941 81.4751 40.2941Z" fill="#FF9A6C"/>
<path d="M81.6817 40.2918C81.6889 40.312 81.4169 40.4294 80.9457 40.4393C80.7116 40.4427 80.4296 40.4165 80.1294 40.3287C79.9801 40.2827 79.8258 40.2337 79.6685 40.1375C79.5085 40.0467 79.3766 39.8579 79.3485 39.6641C79.2873 39.2749 79.4272 38.9212 79.6198 38.665C79.8167 38.4066 80.0827 38.2539 80.3141 38.1919C80.7887 38.0665 81.079 38.2166 81.0661 38.2315C81.0627 38.2668 80.7724 38.1771 80.357 38.3249C80.153 38.3979 79.9307 38.5427 79.7661 38.7737C79.6046 38.9991 79.4925 39.3205 79.5431 39.628C79.5822 39.9437 79.9071 40.0596 80.1834 40.1546C80.4619 40.2462 80.7264 40.2854 80.9491 40.2994C81.3963 40.3256 81.6753 40.2595 81.6817 40.2918Z" fill="#263238"/>
<path d="M72.979 28.3557C72.7738 28.7369 72.5667 29.2331 72.5473 29.6656C72.5382 29.8643 72.5519 30.0718 72.6457 30.2474C72.74 30.4229 72.9319 30.5578 73.1295 30.5331C73.2906 30.513 73.4263 30.391 73.4973 30.2451C73.5688 30.0992 73.584 29.9323 73.5809 29.7701C73.5707 29.2647 73.3016 28.7448 72.979 28.3557Z" fill="#EBEBEB"/>
<path d="M71.6981 29.5229C71.4929 29.9041 71.2858 30.4004 71.2661 30.8328C71.2569 31.0315 71.2706 31.239 71.3649 31.4146C71.4591 31.5901 71.651 31.725 71.8486 31.7003C72.0097 31.6802 72.1454 31.5582 72.2164 31.4123C72.2879 31.2664 72.3031 31.0996 72.3 30.9369C72.2902 30.4319 72.0207 29.9121 71.6981 29.5229Z" fill="#EBEBEB"/>
<path d="M72.9746 44.2244L83.3422 48.1023L83.4995 50.3545L84.1842 54.0367L80.7821 49.3848L72.9746 45.413V44.2244Z" fill="white"/>
<path d="M70.988 109.071C70.988 109.574 65.7919 135.22 65.7919 135.22L43.666 160.698L52.3825 168.744C52.3825 168.744 78.699 142.93 79.3693 140.416C80.0396 137.901 84.733 126.838 84.0627 126.838C83.3916 126.839 70.988 109.071 70.988 109.071Z" fill="#263238"/>
<path d="M102.791 164.401L104.577 172.748C104.577 172.748 114.121 173.567 114.609 175.074L97.6713 179.441L94.3262 166.561L102.791 164.401Z" fill="#263238"/>
<path d="M99.1616 173.403C98.8553 173.573 98.7173 173.98 98.8731 174.275C99.0289 174.569 99.458 174.694 99.7669 174.53C100.076 174.365 100.257 173.88 100.067 173.606C99.8775 173.331 99.3645 173.211 99.1034 173.44" fill="#E0E0E0"/>
<path d="M97.6722 179.441L97.3887 178.128L113.735 174.432C113.735 174.432 114.568 174.548 114.61 175.074L97.6722 179.441Z" fill="#455A64"/>
<path d="M104.831 172.596C104.848 172.675 104.443 172.817 104.1 173.174C103.748 173.522 103.624 173.916 103.54 173.904C103.46 173.909 103.465 173.408 103.888 172.983C104.306 172.555 104.83 172.519 104.831 172.596Z" fill="white"/>
<path d="M106.783 172.834C106.821 172.905 106.497 173.13 106.3 173.534C106.091 173.933 106.111 174.31 106.028 174.327C105.953 174.36 105.78 173.916 106.034 173.418C106.284 172.918 106.762 172.759 106.783 172.834Z" fill="white"/>
<path d="M108.305 174.588C108.234 174.624 108.02 174.262 108.123 173.778C108.223 173.293 108.57 173.024 108.622 173.08C108.685 173.132 108.492 173.427 108.414 173.825C108.325 174.223 108.386 174.559 108.305 174.588Z" fill="white"/>
<path d="M57.3176 162.911L50.7736 168.391C50.7736 168.391 54.5113 177.211 53.407 178.347L41.6289 165.415L51.4519 156.437L57.3176 162.911Z" fill="#263238"/>
<path d="M47.665 163.911C47.372 163.719 46.9472 163.788 46.7602 164.063C46.5729 164.338 46.6629 164.776 46.9529 164.973C47.2424 165.169 47.7558 165.102 47.9101 164.806C48.0644 164.51 47.931 164 47.6061 163.877" fill="#E0E0E0"/>
<path d="M41.6289 165.415L42.6568 164.551L53.5651 177.274C53.5651 177.274 53.8516 178.064 53.407 178.347L41.6289 165.415Z" fill="#455A64"/>
<path d="M51.0265 168.544C50.9646 168.596 50.6499 168.305 50.1742 168.169C49.7011 168.02 49.2952 168.095 49.2663 168.015C49.2249 167.947 49.6692 167.717 50.243 167.892C50.8179 168.062 51.0942 168.508 51.0265 168.544Z" fill="white"/>
<path d="M51.7305 170.382C51.6856 170.449 51.3345 170.268 50.8854 170.283C50.4351 170.284 50.1117 170.478 50.057 170.413C49.9935 170.362 50.3047 170.001 50.8641 169.993C51.4231 169.981 51.7867 170.329 51.7305 170.382Z" fill="white"/>
<path d="M50.8901 172.547C50.8251 172.501 51.0447 172.142 51.5209 172.008C51.9959 171.869 52.3968 172.05 52.3713 172.122C52.3546 172.202 52.0039 172.17 51.6147 172.286C51.2226 172.393 50.9532 172.604 50.8901 172.547Z" fill="white"/>
<path d="M67.1332 103.707C67.1332 103.707 66.9656 111.25 74.0055 117.116C79.6538 121.823 86.4094 141.589 86.4094 141.589L95.1202 173.942L105.903 170.995L98.9813 135.89L90.4329 106.724L90.2653 99.8518L67.6367 98.0081L67.1332 103.707Z" fill="#263238"/>
<path d="M94.9726 174.2L94.9183 173.997L86.2075 141.643C86.1441 141.46 79.4105 121.893 73.8716 117.277C66.8355 111.414 66.9221 103.779 66.924 103.702L66.9248 103.688L67.4458 97.782L67.6533 97.7991L90.47 99.658L90.641 106.691L99.1819 135.831L106.145 171.145L94.9726 174.2Z" fill="#263238"/>
<g opacity="0.3">
<path d="M67.3218 106.74C67.3218 106.74 85.2528 108.923 87.9288 108.118C90.6047 107.313 90.6405 106.691 90.6405 106.691L90.5439 103.721L66.8848 103.521C66.8848 103.521 67.1261 105.965 67.3218 106.74Z" fill="black"/>
</g>
<path d="M72.3263 44.0452L71.6582 46.0994C71.6582 46.0994 66.1266 53.81 65.6238 58.5034C65.1211 63.1968 64.9535 66.5491 65.6238 69.3988C66.2942 72.2484 67.1321 80.1265 67.1321 80.1265L63.1094 104.934C63.1094 104.934 82.3853 107.617 87.3302 106.443C92.2751 105.27 93.1776 102.756 93.4805 100.241C93.7837 97.7266 89.0903 67.555 89.0903 66.0464C89.0903 64.5378 84.1272 52.637 84.1272 52.637L83.0389 50.3193C82.6376 49.4651 81.976 48.761 81.148 48.3084C78.6962 46.9681 73.4712 44.1725 72.3263 44.0452Z" fill="#0B622F"/>
<path d="M73.081 89.5634C73.0863 89.5592 73.1798 89.5527 73.3546 89.5432C73.5472 89.5341 73.7992 89.5223 74.1142 89.5075C74.7902 89.4798 75.7353 89.4406 76.9064 89.3924C79.2795 89.3065 82.5627 89.1875 86.3065 89.0523L86.2028 89.159C86.202 88.0791 86.2012 86.9611 86.2005 85.8162C86.2005 85.641 86.2005 85.4662 86.2005 85.2982L86.3145 85.4073C81.3828 85.6212 77.0045 85.8112 74.0963 85.9374L74.1598 85.8865C73.8311 87.0208 73.5685 87.9278 73.3812 88.5742C73.2911 88.8775 73.2193 89.1191 73.1646 89.3031C73.1148 89.4703 73.0863 89.5596 73.081 89.5634C73.0756 89.5675 73.0943 89.4862 73.1338 89.3247C73.1794 89.1427 73.239 88.9044 73.3139 88.605C73.4853 87.9427 73.7258 87.0124 74.0268 85.8492L74.0393 85.801L74.0906 85.7983C76.9976 85.6532 81.3748 85.435 86.305 85.1888L86.419 85.1831V85.2979C86.419 85.4662 86.419 85.6406 86.419 85.8158C86.4182 86.9607 86.4174 88.0787 86.4167 89.1587V89.2628L86.3133 89.2654C82.5335 89.3601 79.2183 89.4429 76.8228 89.5026C75.6638 89.5254 74.7283 89.544 74.0587 89.5573C73.7543 89.5615 73.5111 89.5649 73.3249 89.5672C73.1596 89.5691 73.076 89.5675 73.081 89.5634Z" fill="#263238"/>
<path d="M88.6158 65.2108C88.609 65.2142 88.5607 65.1348 88.4748 64.9801C88.3802 64.8046 88.259 64.5789 88.1089 64.2996C87.787 63.6802 87.3424 62.8248 86.7986 61.7786C85.7001 59.6187 84.2036 56.676 82.5499 53.4247C82.3895 53.1063 82.2303 52.7909 82.0737 52.4793L82.0802 52.4903C81.927 52.2574 81.7754 52.0275 81.6257 51.7998L81.6367 51.8139C81.4064 51.5654 81.1796 51.3203 80.9565 51.0794L80.9846 51.101C78.3816 49.7072 76.1047 48.4878 74.4505 47.602C73.6571 47.1673 73.0141 46.8154 72.5445 46.5581C72.3385 46.4411 72.1713 46.3457 72.0372 46.2693C71.9228 46.2017 71.8643 46.1637 71.8673 46.158C71.8703 46.1523 71.9346 46.1789 72.0546 46.2355C72.193 46.3031 72.3659 46.3879 72.5787 46.4924C73.0556 46.736 73.7084 47.0692 74.5144 47.4804C76.1776 48.3491 78.4668 49.5453 81.0838 50.9125L81.0994 50.9209L81.1119 50.9346C81.3358 51.1747 81.5634 51.4191 81.7944 51.6672L81.8005 51.6737L81.8054 51.6813C81.9555 51.9085 82.1075 52.1384 82.2614 52.3706L82.2649 52.3759L82.2679 52.3816C82.4248 52.6928 82.5841 53.0082 82.7448 53.3267C84.3761 56.5894 85.8528 59.5423 86.9366 61.7095C87.4545 62.7685 87.8782 63.6346 88.1849 64.2616C88.3202 64.5485 88.4292 64.7799 88.5143 64.9604C88.5873 65.1215 88.6223 65.2074 88.6158 65.2108Z" fill="#263238"/>
<g opacity="0.3">
<path d="M72.6191 46.2742C72.6191 46.2742 80.6466 51.1526 81.1836 52.1288C81.7205 53.105 87.2849 62.5712 87.2849 62.5712L81.7152 51.7401L81.0339 51.0067L72.6191 46.2742Z" fill="black"/>
</g>
<path d="M67.0277 105.448C67.0338 105.506 67.0444 105.608 67.068 105.832C67.0973 106.086 67.1569 106.461 67.2641 106.948C67.4773 107.918 67.92 109.333 68.7905 111.014C69.0311 111.421 69.2492 111.872 69.5467 112.306C69.6892 112.526 69.8348 112.752 69.9841 112.983C70.1471 113.205 70.3136 113.432 70.4842 113.664C70.5693 113.78 70.6556 113.897 70.7426 114.016C70.8368 114.129 70.9318 114.243 71.028 114.358C71.2203 114.589 71.4163 114.824 71.6162 115.064C71.8305 115.291 72.049 115.523 72.2713 115.759C72.4914 115.997 72.7205 116.235 72.9717 116.459C73.4577 116.921 73.984 117.38 74.4841 117.905C74.9872 118.426 75.4337 119.024 75.8912 119.638C76.7804 120.887 77.6149 122.276 78.4323 123.766C80.0602 126.75 81.6171 130.136 83.1576 133.825C83.9271 135.67 84.6894 137.592 85.4402 139.586C86.2641 141.557 86.7273 143.717 87.3361 145.877C89.6772 154.564 92.254 164.124 94.9634 174.175L94.8418 174.105C95.2686 173.988 95.7306 173.862 96.1939 173.735C99.531 172.823 102.816 171.925 106.015 171.051L105.945 171.165C103.342 157.926 100.961 145.819 99.0005 135.847L99.0021 135.854C96.4105 126.961 94.287 119.674 92.8096 114.606C92.0773 112.075 91.5058 110.099 91.1155 108.751C90.9244 108.081 90.7781 107.568 90.6782 107.218C90.5805 106.871 90.5364 106.692 90.5364 106.692C90.5364 106.692 90.5961 106.867 90.701 107.211C90.8058 107.56 90.9597 108.071 91.1604 108.738C91.5598 110.083 92.1453 112.055 92.8951 114.581C94.3877 119.645 96.534 126.925 99.1529 135.809L99.1541 135.813L99.1548 135.816C101.126 145.786 103.52 157.89 106.137 171.127L106.155 171.216L106.067 171.24C102.868 172.115 99.5831 173.013 96.2463 173.926C95.7831 174.052 95.321 174.179 94.8943 174.295L94.7985 174.322L94.7727 174.225C92.0697 164.174 89.499 154.615 87.1628 145.929C86.5544 143.762 86.0992 141.616 85.2787 139.646C84.5317 137.653 83.7732 135.731 83.0075 133.887C81.4753 130.199 79.9272 126.814 78.3107 123.832C77.4994 122.344 76.671 120.956 75.7901 119.711C75.3372 119.099 74.8949 118.502 74.3986 117.985C73.9088 117.466 73.3844 117.005 72.8957 116.537C72.6445 116.312 72.4154 116.072 72.195 115.831C71.9727 115.593 71.7542 115.36 71.5398 115.131C71.34 114.889 71.1439 114.652 70.952 114.42C70.8558 114.303 70.7608 114.188 70.667 114.074C70.58 113.955 70.4941 113.837 70.4093 113.72C70.2395 113.486 70.073 113.257 69.9108 113.034C69.7622 112.801 69.6167 112.573 69.4749 112.351C69.1789 111.914 68.9623 111.459 68.7233 111.049C67.8595 109.356 67.4271 107.932 67.2257 106.956C67.1246 106.467 67.0714 106.09 67.0486 105.835C67.0228 105.58 67.0277 105.448 67.0277 105.448Z" fill="#455A64"/>
<path d="M81.4516 85.299C82.3484 80.8553 83.7943 76.5058 84.1891 71.9899C84.4707 68.7706 84.4107 63.9795 86.0633 61.2025C87.8007 58.2833 91.2313 58.1116 94.6239 58.2841C98.0166 58.4566 101.027 59.4796 103.603 61.6938C106.179 63.9081 108.398 67.2988 110.391 70.0493C112.94 73.5665 115.464 77.1583 117.099 81.1825C118.464 84.5432 119.171 88.2676 118.656 91.8324C118.48 93.0514 115.915 103.719 103.568 103.697L103.037 103.561C83.8753 106.028 81.7416 98.3657 81.0386 96.3035C79.9244 93.0347 80.8288 88.385 81.4516 85.299Z" fill="#121212"/>
<g opacity="0.3">
<path d="M102.578 82.774C102.14 83.5959 101.38 84.24 100.298 84.7048L100.748 86.5987L99.2619 87.0061L98.823 85.1623C98.079 85.3177 97.3448 85.3626 96.622 85.2964C95.8985 85.2303 95.2913 85.0726 94.7984 84.823L95.1252 82.5354C95.5774 82.7478 96.0817 82.8926 96.638 82.9674C97.1939 83.0438 97.7472 83.0366 98.2959 82.9461L97.6233 80.1216C96.8732 80.1227 96.228 80.0711 95.6861 79.9673C95.1435 79.8636 94.6552 79.6284 94.2197 79.2605C93.7838 78.8938 93.476 78.3326 93.2963 77.5764C93.0732 76.6408 93.1811 75.755 93.6216 74.9198C94.0616 74.0845 94.8284 73.4397 95.924 72.9833L95.4775 71.1057L96.964 70.6987L97.4029 72.5425C98.649 72.3213 99.7365 72.3893 100.666 72.7477L100.419 75.0323C99.5598 74.7507 98.7314 74.6648 97.9342 74.775L98.6186 77.6508C99.3554 77.6417 99.9911 77.6866 100.528 77.7857C101.063 77.8857 101.549 78.1186 101.985 78.4861C102.42 78.8535 102.727 79.4095 102.904 80.1531C103.125 81.0773 103.016 81.9513 102.578 82.774ZM96.1052 77.4019C96.3359 77.5311 96.6448 77.6087 97.0313 77.6349L96.4598 75.2329C96.1071 75.4377 95.8685 75.6737 95.742 75.9431C95.6158 76.2122 95.5884 76.4926 95.658 76.7856C95.7245 77.0675 95.8734 77.2735 96.1052 77.4019ZM100.465 81.8115C100.595 81.5603 100.626 81.2931 100.559 81.0104C100.492 80.7288 100.346 80.5229 100.119 80.3929C99.8923 80.263 99.5902 80.1771 99.211 80.1372L99.7665 82.4715C100.102 82.2834 100.335 82.0634 100.465 81.8115Z" fill="#E6E6E6"/>
</g>
<path d="M105.784 106.06C105.617 104.98 105.755 103.877 105.917 102.795L89.5352 101.808C90.4027 102.373 90.9545 103.376 90.9628 104.403C90.9708 105.43 90.435 106.451 89.5766 107.043C90.2192 107.267 90.9218 106.958 91.5233 106.634C93.0768 105.798 94.1347 105.145 95.4966 104.032C96.1878 105.542 97.3875 106.679 98.2626 108.094C99.1632 107.225 99.992 106.285 100.739 105.285C102.424 107.191 104.823 108.471 107.374 108.828C106.464 108.207 105.952 107.139 105.784 106.06Z" fill="#121212"/>
<path d="M97.4851 103.08C97.4816 103.093 97.3635 103.073 97.1518 103.025C96.9409 102.975 96.6384 102.89 96.2717 102.764C95.5395 102.51 94.5511 102.069 93.5635 101.408C93.0695 101.079 92.6233 100.73 92.2392 100.389C91.8565 100.049 91.5206 99.7187 91.3025 99.3873C91.0802 99.0602 90.9768 98.7429 90.9631 98.5213C90.9464 98.299 90.9852 98.1801 90.9947 98.182C91.0285 98.174 90.9434 98.6954 91.4168 99.3068C91.6391 99.6127 91.9728 99.9216 92.3589 100.251C92.7442 100.581 93.1865 100.92 93.6733 101.244C94.6457 101.895 95.6086 102.348 96.3207 102.633C97.034 102.918 97.4938 103.049 97.4851 103.08Z" fill="white"/>
<path d="M98.9518 103.085C98.9404 103.106 98.69 103 98.3252 102.759C97.9604 102.519 97.4892 102.13 97.0575 101.617C96.627 101.104 96.3249 100.572 96.1512 100.172C95.9764 99.7706 95.9156 99.5061 95.9381 99.4985C95.9962 99.4731 96.361 100.493 97.2088 101.49C98.0452 102.497 98.9868 103.032 98.9518 103.085Z" fill="white"/>
<path d="M103.395 53.7557C103.221 53.1416 102.634 52.8707 102.117 52.887C101.599 52.9034 101.096 53.1249 100.578 53.1485C100.061 53.1716 99.4725 52.9189 99.2829 52.3117C99.0435 51.5452 99.5546 50.7317 99.5645 49.9086C99.5744 49.0703 99.0253 48.3304 98.3846 48.1032C97.7439 47.876 97.047 48.0815 96.4561 48.468C95.3818 49.1702 94.4216 50.4942 93.2189 50.3251C92.4885 50.2225 91.8934 49.5772 91.2725 49.0828C90.6512 48.5885 89.8277 48.2347 89.2045 48.7256C88.815 49.0327 88.6026 49.6152 88.5616 50.1917C88.5205 50.7681 88.6285 51.3442 88.7592 51.899C89.2992 54.1954 90.3331 57.1871 91.5906 58.9834L97.9761 60.2275C98.1532 59.0856 98.8052 58.1363 99.5664 57.477C100.328 56.8181 101.202 56.4028 102.05 55.9437C102.423 55.7423 102.802 55.5227 103.084 55.1556C103.365 54.7885 103.531 54.2368 103.395 53.7557Z" fill="#121212"/>
<path d="M99.0209 59.0832C99.0114 59.1125 98.5691 58.9878 97.8486 58.8195C97.1281 58.6519 96.1249 58.4532 95.0028 58.3582C93.8799 58.2654 92.8581 58.2996 92.1212 58.3585C91.3844 58.4174 90.9292 58.482 90.9239 58.4509C90.9216 58.4376 91.0325 58.4068 91.2362 58.3627C91.4395 58.3167 91.7371 58.267 92.1068 58.2191C92.8459 58.1241 93.8814 58.0667 95.0187 58.1609C96.1553 58.2571 97.1669 58.4801 97.8828 58.6838C98.2411 58.786 98.528 58.8784 98.723 58.9521C98.9191 59.0243 99.0251 59.0703 99.0209 59.0832Z" fill="white"/>
<path d="M93.2812 55.7651C93.2363 55.7879 92.8415 55.0275 92.6363 53.9988C92.4254 52.9713 92.4942 52.1171 92.544 52.1209C92.6029 52.1209 92.6242 52.9569 92.8301 53.9597C93.03 54.9633 93.3355 55.7419 93.2812 55.7651Z" fill="white"/>
<path d="M98.6028 54.4139C98.6336 54.463 98.1939 54.7757 97.7364 55.2473C97.2751 55.7158 96.9734 56.1627 96.9236 56.1331C96.8776 56.1099 97.114 55.5988 97.5951 55.109C98.0731 54.6169 98.5785 54.3687 98.6028 54.4139Z" fill="white"/>
<path d="M109.308 91.69C109.308 91.69 110.478 95.5618 112.079 96.8853C113.681 98.2089 114.428 98.7219 114.257 99.7931C114.085 100.864 115.408 100.495 116.3 100.172C117.191 99.8478 117.777 96.8329 117.777 96.8329C117.777 96.8329 118.893 96.2032 117.975 94.2949C117.14 92.5568 114.196 89.1717 113.115 88.2685C112.971 88.148 112.802 88.0633 112.622 88.012L110.398 87.3762L107.578 90.8756L109.308 91.69Z" fill="#FFBF9D"/>
<path d="M107.014 92.4523C107.014 92.4523 107.36 92.8809 107.667 92.7342C107.973 92.5875 111.637 87.8983 111.45 87.4591C111.264 87.0194 110.944 87.0061 110.944 87.0061L107.014 92.4523Z" fill="white"/>
<path d="M69.6768 52.6469C69.6768 52.6469 63.9034 58.231 69.6259 64.843C73.7895 69.6542 83.8295 85.1418 87.3646 86.8781C90.8998 88.6143 105.662 93.5349 106.505 92.9725C107.349 92.4101 111.155 86.8781 111.155 86.8781C111.155 86.8781 94.5649 78.2365 92.924 76.205C91.2832 74.1735 81.7 57.4341 79.5815 55.5782C77.4634 53.7223 73.3711 50.365 69.6768 52.6469Z" fill="#0B622F"/>
<path d="M72.284 51.671C72.2935 51.7064 71.8037 51.8067 71.0916 52.154C70.3829 52.4949 69.458 53.1295 68.7436 54.1012C68.0292 55.0732 67.6993 56.1455 67.5853 56.9238C67.4664 57.7073 67.5165 58.2044 67.4801 58.2059C67.4679 58.2071 67.4432 58.0847 67.425 57.8601C67.4063 57.6355 67.4037 57.3076 67.4462 56.9056C67.5264 56.1057 67.8445 54.9896 68.5836 53.9841C69.3227 52.979 70.2928 52.3429 71.0323 52.0275C71.4036 51.8668 71.7174 51.7714 71.9371 51.7223C72.1575 51.6722 72.2817 51.6593 72.284 51.671Z" fill="#263238"/>
<path d="M79.5798 55.5781C79.5798 55.5781 79.6372 55.6306 79.744 55.7404C79.8439 55.8555 80.0236 56.003 80.2007 56.2443C80.5784 56.7086 81.1047 57.4185 81.7447 58.3616C83.0283 60.2457 84.7968 63.0406 86.9472 66.5434C88.023 68.2948 89.2037 70.2172 90.4744 72.2871C91.1181 73.3161 91.7736 74.3912 92.4968 75.4647C92.5842 75.6018 92.6811 75.7303 92.7761 75.861C92.8753 75.9868 92.9577 76.135 93.0728 76.2421C93.2875 76.4751 93.5543 76.6757 93.815 76.8786C94.347 77.2765 94.9143 77.647 95.4908 78.0171C97.8084 79.4858 100.33 80.9063 102.96 82.3658C105.595 83.8201 108.35 85.3002 111.198 86.7913L111.297 86.843L111.234 86.9342C110.283 88.3064 109.262 89.7523 108.177 91.1815C107.911 91.5326 107.638 91.878 107.359 92.2177C107.216 92.3849 107.079 92.5552 106.923 92.7151C106.844 92.7946 106.776 92.8785 106.682 92.9511C106.635 92.9887 106.599 93.026 106.542 93.0632C106.462 93.1054 106.403 93.1058 106.342 93.1122C105.875 93.1217 105.457 93.0203 105.03 92.9363C104.605 92.8459 104.187 92.7417 103.771 92.6346C102.11 92.1995 100.493 91.7032 98.9108 91.2012C95.748 90.1878 92.7198 89.1424 89.8729 88.04C89.1619 87.7618 88.4627 87.4803 87.7825 87.174C87.4458 87.0243 87.0996 86.8574 86.801 86.6329C86.6474 86.5268 86.5011 86.414 86.3632 86.2928C86.2203 86.1769 86.0828 86.0568 85.952 85.931C84.8865 84.9411 83.9813 83.8627 83.1108 82.8215C81.3867 80.7231 79.8819 78.692 78.5109 76.8368C75.7817 73.117 73.621 70.0736 72.0759 68.0087C71.3064 66.9739 70.6939 66.182 70.2706 65.6515C70.0601 65.3912 69.8989 65.1914 69.7853 65.0508C69.6755 64.9159 69.623 64.8433 69.623 64.8433C69.623 64.8433 69.8693 65.1021 70.3013 65.6265C70.7349 66.1493 71.3577 66.9344 72.1371 67.9623C73.7016 70.0143 75.8805 73.046 78.623 76.7536C80.0005 78.6023 81.5113 80.6277 83.2369 82.7166C84.1075 83.7521 85.0146 84.8263 86.0691 85.8026C87.0772 86.8548 88.536 87.2884 89.9386 87.8701C92.7814 88.9657 95.8096 90.0069 98.9693 91.0162C100.55 91.5162 102.165 92.011 103.82 92.4438C104.234 92.5506 104.65 92.654 105.07 92.7433C105.486 92.8269 105.922 92.9245 106.326 92.915C106.372 92.9127 106.425 92.9029 106.442 92.8922C106.475 92.8702 106.517 92.8295 106.554 92.7995C106.634 92.7402 106.705 92.6536 106.779 92.5787C106.928 92.426 107.065 92.2557 107.206 92.0912C107.482 91.7549 107.753 91.411 108.019 91.0614C109.099 89.6371 110.12 88.1916 111.07 86.8225L111.106 86.9654C108.256 85.472 105.502 83.9896 102.867 82.5311C100.236 81.0674 97.7161 79.6428 95.3947 78.1649C94.8163 77.7918 94.2482 77.4194 93.7105 77.0154C93.4452 76.808 93.1781 76.6077 92.9459 76.3558C92.8202 76.2357 92.7419 76.0917 92.6393 75.9609C92.5427 75.8272 92.4436 75.6953 92.3569 75.5581C91.6327 74.4767 90.9806 73.4016 90.3395 72.3692C89.0756 70.2948 87.9022 68.3682 86.8325 66.6126C84.6976 63.101 82.947 60.2966 81.6831 58.4019C81.0531 57.4534 80.5374 56.7379 80.1703 56.2674C79.9982 56.0223 79.8249 55.873 79.7295 55.7537C79.6288 55.6401 79.5798 55.5781 79.5798 55.5781Z" fill="#263238"/>
<path d="M114.508 123.093C114.483 126.317 112.285 128.914 109.599 128.893C106.912 128.873 104.755 126.243 104.78 123.019C104.804 119.796 107.001 117.199 109.688 117.219C112.374 117.24 114.532 119.87 114.508 123.093Z" fill="#0B622F"/>
<g opacity="0.2">
<path d="M114.508 123.093C114.483 126.317 112.285 128.914 109.599 128.893C106.912 128.873 104.755 126.243 104.78 123.019C104.804 119.796 107.001 117.199 109.688 117.219C112.374 117.24 114.532 119.87 114.508 123.093Z" fill="black"/>
</g>
<path d="M113.564 123.086C113.539 126.31 111.342 128.906 108.656 128.886C105.969 128.866 103.811 126.236 103.836 123.012C103.861 119.789 106.058 117.192 108.745 117.213C111.431 117.233 113.589 119.863 113.564 123.086Z" fill="#0B622F"/>
<path d="M113.564 123.086C113.539 126.31 111.342 128.906 108.656 128.886C105.969 128.866 103.811 126.236 103.836 123.012C103.861 119.789 106.058 117.192 108.745 117.213C111.431 117.233 113.589 119.863 113.564 123.086Z" fill="#0B622F"/>
<g opacity="0.1">
<path d="M110.814 117.785C110.188 117.424 109.486 117.218 108.745 117.213C106.058 117.192 103.861 119.789 103.836 123.012C103.826 124.33 104.181 125.548 104.787 126.53C106.16 126.14 107.441 125.47 108.537 124.547C109.621 123.633 110.395 122.488 110.614 121.069C110.765 120.088 111.035 118.839 110.814 117.785Z" fill="white"/>
</g>
<path d="M112.289 122.968C112.271 125.446 110.612 127.442 108.584 127.426C106.557 127.411 104.928 125.39 104.947 122.912C104.966 120.435 106.625 118.439 108.653 118.455C110.68 118.47 112.308 120.491 112.289 122.968Z" fill="#0B622F"/>
<g opacity="0.2">
<path d="M112.289 122.968C112.271 125.446 110.612 127.442 108.584 127.426C106.557 127.411 104.928 125.39 104.947 122.912C104.966 120.435 106.625 118.439 108.653 118.455C110.68 118.47 112.308 120.491 112.289 122.968Z" fill="black"/>
</g>
<path d="M112.465 123.078C112.447 125.496 110.84 127.443 108.876 127.428C106.912 127.414 105.335 125.441 105.354 123.024C105.372 120.606 106.979 118.658 108.942 118.673C110.906 118.688 112.483 120.66 112.465 123.078Z" fill="#0B622F"/>
<g opacity="0.2">
<path d="M112.467 123.078C112.449 125.496 110.842 127.443 108.878 127.428C106.914 127.414 105.337 125.441 105.356 123.024C105.374 120.606 106.981 118.658 108.944 118.673C110.908 118.688 112.485 120.66 112.467 123.078Z" fill="white"/>
</g>
<path d="M109.101 122.534L109.11 121.373C109.111 121.373 109.113 121.373 109.114 121.373C109.274 121.398 109.44 121.453 109.604 121.538C109.74 121.628 109.832 121.722 109.832 121.722L109.844 121.686L109.99 121.269L110.023 121.173L109.861 120.955L109.781 120.999C109.581 120.871 109.352 120.769 109.115 120.751L109.12 120.113L108.963 119.951L108.962 120.111L108.745 120.11L108.74 120.76C108.026 120.841 107.684 121.35 107.679 121.937C107.673 122.736 108.216 122.948 108.722 123.107L108.713 124.257C108.366 124.214 108.024 124.045 107.802 123.813L107.592 124.392C107.827 124.653 108.261 124.84 108.708 124.878L108.704 125.361L108.526 125.363L108.703 125.517L109.078 125.52L109.083 124.876C109.802 124.79 110.148 124.286 110.153 123.699C110.159 122.899 109.607 122.694 109.101 122.534ZM108.727 122.411C108.462 122.311 108.267 122.183 108.269 121.907C108.271 121.654 108.41 121.448 108.735 121.387L108.727 122.411ZM109.11 121.373C109.11 121.372 109.11 121.372 109.11 121.373V121.373ZM109.088 124.248L109.095 123.23C109.369 123.33 109.569 123.464 109.567 123.746C109.565 123.993 109.422 124.188 109.088 124.248Z" fill="#0B622F"/>
<g opacity="0.3">
<path d="M109.101 122.534L109.11 121.373C109.111 121.373 109.113 121.373 109.114 121.373C109.274 121.398 109.44 121.453 109.604 121.538C109.74 121.628 109.832 121.722 109.832 121.722L109.844 121.686L109.99 121.269L110.023 121.173L109.861 120.955L109.781 120.999C109.581 120.871 109.352 120.769 109.115 120.751L109.12 120.113L108.963 119.951L108.962 120.111L108.745 120.11L108.74 120.76C108.026 120.841 107.684 121.35 107.679 121.937C107.673 122.736 108.216 122.948 108.722 123.107L108.713 124.257C108.366 124.214 108.024 124.045 107.802 123.813L107.592 124.392C107.827 124.653 108.261 124.84 108.708 124.878L108.704 125.361L108.526 125.363L108.703 125.517L109.078 125.52L109.083 124.876C109.802 124.79 110.148 124.286 110.153 123.699C110.159 122.899 109.607 122.694 109.101 122.534ZM108.727 122.411C108.462 122.311 108.267 122.183 108.269 121.907C108.271 121.654 108.41 121.448 108.735 121.387L108.727 122.411ZM109.11 121.373C109.11 121.372 109.11 121.372 109.11 121.373V121.373ZM109.088 124.248L109.095 123.23C109.369 123.33 109.569 123.464 109.567 123.746C109.565 123.993 109.422 124.188 109.088 124.248Z" fill="black"/>
</g>
<path d="M108.929 124.717L108.924 125.361L108.549 125.358L108.554 124.719C108.106 124.681 107.673 124.494 107.438 124.233L107.648 123.654C107.87 123.886 108.212 124.055 108.559 124.098L108.568 122.948C108.061 122.789 107.518 122.577 107.525 121.778C107.529 121.191 107.871 120.682 108.585 120.601L108.59 119.951L108.965 119.954L108.96 120.593C109.298 120.618 109.64 120.747 109.886 120.95L109.694 121.53C109.453 121.35 109.198 121.25 108.956 121.214L108.947 122.376C109.453 122.535 110.005 122.741 109.999 123.54C109.994 124.126 109.647 124.63 108.929 124.717ZM108.573 122.252L108.58 121.227C108.255 121.288 108.116 121.495 108.114 121.747C108.112 122.024 108.308 122.152 108.573 122.252ZM109.413 123.587C109.415 123.305 109.215 123.171 108.941 123.071L108.934 124.089C109.268 124.029 109.411 123.834 109.413 123.587Z" fill="#0B622F"/>
<path d="M110.739 119.235C110.742 119.232 110.771 119.254 110.825 119.298C110.876 119.344 110.962 119.404 111.053 119.5C111.246 119.68 111.5 119.973 111.751 120.376C112.004 120.778 112.234 121.303 112.378 121.915C112.444 122.222 112.494 122.549 112.505 122.892C112.514 123.234 112.49 123.589 112.425 123.947C112.29 124.657 112.061 125.322 111.723 125.856C111.394 126.396 110.953 126.783 110.535 127.011C110.115 127.242 109.732 127.32 109.472 127.364C109.341 127.38 109.238 127.384 109.169 127.389C109.099 127.394 109.062 127.394 109.062 127.391C109.062 127.388 109.099 127.381 109.167 127.37C109.235 127.359 109.337 127.349 109.466 127.327C109.722 127.273 110.097 127.186 110.503 126.953C110.907 126.723 111.332 126.341 111.65 125.81C111.976 125.286 112.2 124.631 112.333 123.93C112.397 123.579 112.42 123.231 112.413 122.895C112.404 122.558 112.356 122.236 112.294 121.934C112.156 121.331 111.937 120.811 111.695 120.41C111.454 120.008 111.211 119.712 111.027 119.526C110.845 119.337 110.733 119.242 110.739 119.235Z" fill="#263238"/>
<path d="M103.925 123.672C103.918 123.673 103.908 123.612 103.894 123.5C103.879 123.389 103.868 123.226 103.864 123.025C103.856 122.623 103.898 122.064 104.046 121.466C104.196 120.868 104.421 120.354 104.617 120.003C104.714 119.827 104.8 119.688 104.865 119.597C104.93 119.505 104.968 119.456 104.973 119.459C104.987 119.468 104.853 119.677 104.675 120.033C104.497 120.389 104.285 120.899 104.137 121.488C103.992 122.078 103.94 122.628 103.931 123.025C103.921 123.424 103.941 123.671 103.925 123.672Z" fill="white"/>
<path d="M104.451 125.46C104.426 125.469 104.329 125.266 104.233 125.007C104.137 124.747 104.079 124.53 104.103 124.521C104.128 124.511 104.225 124.714 104.321 124.974C104.417 125.233 104.475 125.451 104.451 125.46Z" fill="white"/>
<path d="M109.845 119.012C109.841 119.029 109.631 118.971 109.285 118.949C109.112 118.936 108.906 118.941 108.679 118.966C108.452 118.995 108.206 119.046 107.956 119.129C107.706 119.216 107.48 119.326 107.283 119.442C107.088 119.561 106.922 119.683 106.792 119.798C106.532 120.027 106.401 120.202 106.387 120.19C106.382 120.187 106.412 120.141 106.469 120.061C106.526 119.98 106.62 119.872 106.748 119.749C106.874 119.625 107.041 119.494 107.238 119.367C107.438 119.245 107.669 119.129 107.925 119.039C108.182 118.954 108.436 118.904 108.669 118.879C108.903 118.859 109.115 118.86 109.291 118.881C109.466 118.901 109.607 118.929 109.701 118.959C109.796 118.987 109.847 119.005 109.845 119.012Z" fill="white"/>
<path d="M107.778 121.746C107.768 121.751 107.735 121.713 107.713 121.635C107.691 121.559 107.688 121.444 107.729 121.328C107.77 121.211 107.844 121.124 107.909 121.078C107.974 121.031 108.024 121.021 108.029 121.032C108.042 121.055 107.885 121.154 107.817 121.358C107.743 121.561 107.803 121.736 107.778 121.746Z" fill="white"/>
<path d="M107.733 124.219C107.729 124.231 107.71 124.239 107.683 124.228C107.655 124.218 107.625 124.186 107.615 124.144C107.605 124.102 107.617 124.059 107.636 124.038C107.656 124.015 107.677 124.013 107.685 124.022C107.702 124.043 107.695 124.08 107.707 124.121C107.715 124.164 107.738 124.193 107.733 124.219Z" fill="white"/>
<path opacity="0.3" d="M109.687 117.22C109.528 117.219 109.371 117.228 109.215 117.245C109.06 117.226 108.904 117.214 108.745 117.213C108.241 117.209 107.754 117.297 107.296 117.464C106.685 117.686 106.124 118.049 105.64 118.522C104.551 119.584 103.85 121.199 103.836 123.012C103.835 123.198 103.842 123.381 103.855 123.562C103.859 123.62 103.866 123.676 103.871 123.734C103.883 123.857 103.897 123.98 103.915 124.1C103.925 124.165 103.936 124.23 103.947 124.294C103.968 124.408 103.991 124.52 104.017 124.632C104.031 124.693 104.045 124.754 104.061 124.815C104.093 124.938 104.129 125.058 104.168 125.177C104.183 125.222 104.195 125.267 104.21 125.311C104.265 125.468 104.326 125.623 104.392 125.773C104.412 125.819 104.435 125.863 104.456 125.908C104.505 126.013 104.556 126.117 104.61 126.218C104.641 126.275 104.673 126.329 104.705 126.385C104.733 126.433 104.758 126.483 104.787 126.529C104.789 126.529 104.79 126.528 104.792 126.528C105.669 127.947 107.068 128.874 108.655 128.886C108.815 128.887 108.971 128.878 109.127 128.861C109.282 128.88 109.439 128.892 109.598 128.893C112.284 128.914 114.481 126.317 114.506 123.093C114.532 119.87 112.374 117.24 109.687 117.22Z" fill="black"/>
<path d="M79.4176 172.06C81.8801 170.32 82.7008 167.246 81.2505 165.194C79.8003 163.142 76.6284 162.889 74.1658 164.629C71.7033 166.369 70.8827 169.444 72.3329 171.496C73.7831 173.548 76.9551 173.801 79.4176 172.06Z" fill="#0B622F"/>
<g opacity="0.2">
<path d="M79.4176 172.06C81.8801 170.32 82.7008 167.246 81.2505 165.194C79.8003 163.142 76.6284 162.889 74.1658 164.629C71.7033 166.369 70.8827 169.444 72.3329 171.496C73.7831 173.548 76.9551 173.801 79.4176 172.06Z" fill="black"/>
</g>
<path d="M78.921 171.344C76.4586 173.084 73.2863 172.832 71.8358 170.779C70.3854 168.727 71.2062 165.653 73.6686 163.912C76.1314 162.172 79.3032 162.425 80.7537 164.477C82.2042 166.529 81.3834 169.604 78.921 171.344Z" fill="#0B622F"/>
<path d="M78.921 171.344C76.4586 173.084 73.2863 172.832 71.8358 170.779C70.3854 168.727 71.2062 165.653 73.6686 163.912C76.1314 162.172 79.3032 162.425 80.7537 164.477C82.2042 166.529 81.3834 169.604 78.921 171.344Z" fill="#0B622F"/>
<g opacity="0.1">
<path d="M81.4469 166.362C81.3796 165.689 81.1531 165.044 80.7522 164.477C79.3018 162.425 76.1299 162.172 73.6671 163.912C72.6605 164.624 71.929 165.558 71.5137 166.554C72.5591 167.385 73.7667 167.992 75.0663 168.321C76.3522 168.646 77.6442 168.609 78.8427 168.001C79.67 167.582 80.7667 167.105 81.4469 166.362Z" fill="white"/>
</g>
<path d="M78.3126 170.311C76.4198 171.648 73.9985 171.477 72.9037 169.928C71.8089 168.379 72.456 166.039 74.3484 164.702C76.2412 163.364 78.6626 163.535 79.7574 165.084C80.8521 166.634 80.2054 168.974 78.3126 170.311Z" fill="#0B622F"/>
<g opacity="0.2">
<path d="M78.3126 170.311C76.4198 171.648 73.9985 171.477 72.9037 169.928C71.8089 168.379 72.456 166.039 74.3484 164.702C76.2412 163.364 78.6626 163.535 79.7574 165.084C80.8521 166.634 80.2054 168.974 78.3126 170.311Z" fill="black"/>
</g>
<path d="M78.3273 170.505C76.4801 171.81 74.1238 171.653 73.0632 170.152C72.003 168.652 72.641 166.378 74.4878 165.073C76.335 163.768 78.6914 163.925 79.7516 165.426C80.8121 166.925 80.1745 169.2 78.3273 170.505Z" fill="#0B622F"/>
<g opacity="0.2">
<path d="M78.3273 170.505C76.4801 171.81 74.1238 171.653 73.0632 170.152C72.003 168.652 72.641 166.378 74.4878 165.073C76.335 163.768 78.6914 163.925 79.7516 165.426C80.8121 166.925 80.1745 169.2 78.3273 170.505Z" fill="white"/>
</g>
<path d="M76.9037 167.651L77.7906 167.024C77.7913 167.025 77.7921 167.026 77.7932 167.027C77.862 167.162 77.9107 167.318 77.9354 167.489C77.9411 167.642 77.9202 167.763 77.9202 167.763L77.954 167.753L78.3503 167.636L78.4415 167.609L78.5187 167.366L78.4419 167.33C78.4301 167.107 78.3822 166.878 78.2663 166.688L78.7543 166.344L78.7915 166.136L78.6691 166.223L78.5521 166.057L78.0554 166.408C77.6044 165.91 77.0306 165.928 76.5826 166.245C75.9719 166.676 76.1072 167.204 76.2626 167.675L75.3837 168.297C75.2267 168.009 75.169 167.658 75.2241 167.362L74.6693 167.519C74.5997 167.84 74.6936 168.271 74.9094 168.632L74.5412 168.893L74.442 168.758L74.4219 168.977L74.6244 169.264L75.1165 168.916C75.5744 169.415 76.1463 169.404 76.5943 169.087C77.2039 168.654 77.0591 168.122 76.9037 167.651ZM76.7935 167.299C76.7251 167.044 76.7156 166.825 76.9265 166.676C77.1199 166.54 77.3521 166.533 77.5755 166.747L76.7935 167.299ZM75.5942 168.576L76.372 168.027C76.4454 168.289 76.453 168.514 76.2375 168.666C76.0487 168.8 75.8226 168.797 75.5942 168.576Z" fill="#0B622F"/>
<g opacity="0.3">
<path d="M76.9037 167.651L77.7906 167.024C77.7913 167.025 77.7921 167.026 77.7932 167.027C77.862 167.162 77.9107 167.318 77.9354 167.489C77.9411 167.642 77.9202 167.763 77.9202 167.763L77.954 167.753L78.3503 167.636L78.4415 167.609L78.5187 167.366L78.4419 167.33C78.4301 167.107 78.3822 166.878 78.2663 166.688L78.7543 166.344L78.7915 166.136L78.6691 166.223L78.5521 166.057L78.0554 166.408C77.6044 165.91 77.0306 165.928 76.5826 166.245C75.9719 166.676 76.1072 167.204 76.2626 167.675L75.3837 168.297C75.2267 168.009 75.169 167.658 75.2241 167.362L74.6693 167.519C74.5997 167.84 74.6936 168.271 74.9094 168.632L74.5412 168.893L74.442 168.758L74.4219 168.977L74.6244 169.264L75.1165 168.916C75.5744 169.415 76.1463 169.404 76.5943 169.087C77.2039 168.654 77.0591 168.122 76.9037 167.651ZM76.7935 167.299C76.7251 167.044 76.7156 166.825 76.9265 166.676C77.1199 166.54 77.3521 166.533 77.5755 166.747L76.7935 167.299ZM75.5942 168.576L76.372 168.027C76.4454 168.289 76.453 168.514 76.2375 168.666C76.0487 168.8 75.8226 168.797 75.5942 168.576Z" fill="black"/>
</g>
<path d="M75.1517 168.711L74.6596 169.059L74.457 168.772L74.9449 168.428C74.7295 168.067 74.6356 167.635 74.7052 167.314L75.26 167.158C75.2053 167.453 75.2626 167.805 75.4199 168.093L76.2989 167.472C76.1435 167 76.0078 166.473 76.6188 166.041C77.0669 165.724 77.6407 165.706 78.0917 166.204L78.5884 165.854L78.7909 166.14L78.303 166.485C78.4683 166.756 78.5569 167.086 78.536 167.384L77.991 167.554C77.9964 167.273 77.9329 167.024 77.8284 166.82L76.9407 167.448C77.0961 167.919 77.2409 168.451 76.6302 168.882C76.1815 169.198 75.6096 169.209 75.1517 168.711ZM76.8301 167.095L77.6122 166.543C77.3887 166.329 77.1562 166.336 76.9631 166.472C76.7522 166.621 76.7617 166.84 76.8301 167.095ZM76.2742 168.462C76.4893 168.31 76.482 168.085 76.4083 167.823L75.6305 168.373C75.8592 168.593 76.0853 168.596 76.2742 168.462Z" fill="#0B622F"/>
<path d="M80.3044 167.096C80.3075 167.097 80.3067 167.131 80.3025 167.196C80.2957 167.26 80.2968 167.358 80.2736 167.479C80.2425 167.725 80.1585 168.077 79.9894 168.488C79.8218 168.899 79.5482 169.36 79.1618 169.804C78.9645 170.021 78.7434 170.239 78.4888 170.433C78.2338 170.627 77.9507 170.803 77.6437 170.949C77.0303 171.234 76.3999 171.422 75.8102 171.457C75.2204 171.502 74.685 171.378 74.2845 171.184C73.8801 170.992 73.6111 170.743 73.4363 170.57C73.3519 170.479 73.2927 170.402 73.2509 170.353C73.2098 170.303 73.1893 170.275 73.1916 170.273C73.1939 170.271 73.2189 170.295 73.2642 170.342C73.3101 170.387 73.3732 170.459 73.4602 170.546C73.6407 170.71 73.9117 170.947 74.3103 171.129C74.7055 171.311 75.2276 171.425 75.8045 171.377C76.3813 171.339 77.0003 171.151 77.606 170.87C77.907 170.727 78.1848 170.555 78.436 170.366C78.6868 170.176 78.9053 169.964 79.101 169.751C79.4844 169.318 79.7595 168.867 79.932 168.465C80.1061 168.063 80.1984 167.717 80.2394 167.475C80.2843 167.232 80.2957 167.096 80.3044 167.096Z" fill="#263238"/>
<path d="M73.2151 164.34C73.2113 164.336 73.2516 164.294 73.3291 164.223C73.4055 164.151 73.5229 164.054 73.6741 163.941C73.9751 163.716 74.4231 163.443 74.9582 163.229C75.494 163.016 76.0073 162.907 76.3809 162.864C76.5678 162.842 76.7198 162.832 76.8251 162.832C76.9303 162.83 76.9881 162.833 76.9885 162.839C76.9892 162.854 76.7578 162.867 76.3896 162.926C76.0218 162.984 75.5186 163.101 74.9904 163.311C74.463 163.522 74.0169 163.782 73.7099 163.992C73.4017 164.201 73.2246 164.352 73.2151 164.34Z" fill="white"/>
<path d="M72.1432 165.714C72.123 165.701 72.2241 165.516 72.3689 165.301C72.5137 165.087 72.6471 164.924 72.6672 164.938C72.6873 164.951 72.5863 165.136 72.4415 165.351C72.2971 165.565 72.1633 165.728 72.1432 165.714Z" fill="white"/>
<path d="M79.9859 166.294C79.9703 166.3 79.9004 166.109 79.7282 165.834C79.6435 165.696 79.5264 165.542 79.3843 165.383C79.2384 165.226 79.0651 165.067 78.8652 164.922C78.6635 164.781 78.456 164.669 78.261 164.582C78.0642 164.499 77.8803 164.439 77.7222 164.404C77.4064 164.331 77.2024 164.327 77.2031 164.311C77.2031 164.305 77.254 164.302 77.3464 164.303C77.4387 164.301 77.5725 164.314 77.7351 164.344C77.8985 164.372 78.0885 164.427 78.2926 164.508C78.4947 164.593 78.7091 164.706 78.9165 164.851C79.1221 165 79.2988 165.166 79.4447 165.329C79.5876 165.495 79.702 165.657 79.7818 165.802C79.8627 165.946 79.9186 166.069 79.9475 166.156C79.9775 166.244 79.9916 166.292 79.9859 166.294Z" fill="white"/>
<path d="M76.7804 166.216C76.7709 166.211 76.7823 166.165 76.8291 166.106C76.8751 166.048 76.9609 165.983 77.0715 165.95C77.1821 165.918 77.2896 165.927 77.3599 165.951C77.431 165.975 77.4652 166.007 77.4603 166.017C77.45 166.04 77.2889 165.975 77.0962 166.035C76.902 166.088 76.8013 166.23 76.7804 166.216Z" fill="white"/>
<path d="M74.8766 167.531C74.8656 167.535 74.8493 167.525 74.8424 167.498C74.8352 167.471 74.8428 167.431 74.8694 167.4C74.896 167.369 74.9344 167.356 74.9614 167.359C74.9891 167.361 75.0016 167.376 74.9997 167.387C74.9929 167.411 74.9606 167.426 74.9359 167.458C74.9085 167.487 74.899 167.521 74.8766 167.531Z" fill="white"/>
<path d="M99.0429 118.217C95.9543 119.848 92.3484 119.085 90.9884 116.511C89.6284 113.937 91.0298 110.528 94.1185 108.896C97.2071 107.265 100.813 108.028 102.173 110.602C103.533 113.176 102.132 116.585 99.0429 118.217Z" fill="#0B622F"/>
<g opacity="0.2">
<path d="M99.0429 118.217C95.9543 119.848 92.3484 119.085 90.9884 116.511C89.6284 113.937 91.0298 110.528 94.1185 108.896C97.2071 107.265 100.813 108.028 102.173 110.602C103.533 113.176 102.132 116.585 99.0429 118.217Z" fill="black"/>
</g>
<path d="M98.5663 117.314C95.4781 118.945 91.8719 118.182 90.5119 115.608C89.1518 113.035 90.5533 109.625 93.6419 107.993C96.7306 106.362 100.336 107.125 101.696 109.699C103.056 112.273 101.655 115.682 98.5663 117.314Z" fill="#0B622F"/>
<g opacity="0.1">
<path d="M102.214 111.968C102.237 111.185 102.073 110.41 101.697 109.699C100.337 107.126 96.7315 106.362 93.6429 107.994C92.3805 108.661 91.4005 109.625 90.7754 110.707C91.8519 111.817 93.1489 112.695 94.5925 113.266C96.0209 113.832 97.5105 113.982 98.9781 113.463C99.9912 113.104 101.322 112.72 102.214 111.968Z" fill="white"/>
</g>
<path d="M98.0242 116.036C95.6507 117.29 92.8946 116.733 91.8682 114.79C90.8418 112.847 91.9339 110.256 94.3078 109.002C96.6813 107.748 99.4378 108.306 100.464 110.248C101.49 112.191 100.398 114.782 98.0242 116.036Z" fill="#0B622F"/>
<g opacity="0.2">
<path d="M98.0242 116.036C95.6507 117.29 92.8946 116.733 91.8682 114.79C90.8418 112.847 91.9339 110.256 94.3078 109.002C96.6813 107.748 99.4378 108.306 100.464 110.248C101.49 112.191 100.398 114.782 98.0242 116.036Z" fill="black"/>
</g>
<path d="M98.0097 116.261C95.6933 117.485 93.0097 116.952 92.0156 115.071C91.0215 113.189 92.0935 110.672 94.41 109.448C96.7265 108.224 99.41 108.758 100.404 110.639C101.398 112.52 100.326 115.037 98.0097 116.261Z" fill="#0B622F"/>
<g opacity="0.2">
<path d="M98.0097 116.261C95.6933 117.485 93.0097 116.952 92.0156 115.071C91.0215 113.189 92.0935 110.672 94.41 109.448C96.7265 108.224 99.41 108.758 100.404 110.639C101.398 112.52 100.326 115.037 98.0097 116.261Z" fill="white"/>
</g>
<path d="M96.8006 112.77L97.9129 112.182C97.9137 112.184 97.9144 112.185 97.9152 112.187C97.9741 112.352 98.0064 112.538 98.0094 112.738C97.9931 112.915 97.9509 113.05 97.9509 113.05L97.9916 113.044L98.4639 112.969L98.5726 112.952L98.6976 112.684L98.6148 112.631C98.6341 112.373 98.6136 112.103 98.5091 111.867L99.1209 111.544L99.1943 111.311L99.0407 111.392L98.9309 111.185L98.3081 111.514C97.8646 110.874 97.2027 110.809 96.6407 111.106C95.8746 111.511 95.9517 112.137 96.0596 112.701L94.9573 113.284C94.8201 112.931 94.806 112.518 94.9132 112.187L94.2524 112.283C94.1247 112.642 94.1684 113.152 94.3618 113.598L93.9001 113.842L93.8059 113.673L93.75 113.921L93.9396 114.28L94.5567 113.954C95.0082 114.595 95.6667 114.668 96.2291 114.371C96.996 113.967 96.9089 113.335 96.8006 112.77ZM96.7269 112.35C96.6863 112.046 96.7083 111.794 96.9728 111.654C97.2152 111.526 97.4831 111.553 97.7081 111.832L96.7269 112.35ZM95.1587 113.638L96.1341 113.123C96.1793 113.435 96.1543 113.694 95.8845 113.837C95.6473 113.962 95.3882 113.926 95.1587 113.638Z" fill="#0B622F"/>
<g opacity="0.3">
<path d="M96.8006 112.77L97.9129 112.182C97.9137 112.184 97.9144 112.185 97.9152 112.187C97.9741 112.352 98.0064 112.538 98.0094 112.738C97.9931 112.915 97.9509 113.05 97.9509 113.05L97.9916 113.044L98.4639 112.969L98.5726 112.952L98.6976 112.684L98.6148 112.631C98.6341 112.373 98.6136 112.103 98.5091 111.867L99.1209 111.544L99.1943 111.311L99.0407 111.392L98.9309 111.185L98.3081 111.514C97.8646 110.874 97.2027 110.809 96.6407 111.106C95.8746 111.511 95.9517 112.137 96.0596 112.701L94.9573 113.284C94.8201 112.931 94.806 112.518 94.9132 112.187L94.2524 112.283C94.1247 112.642 94.1684 113.152 94.3618 113.598L93.9001 113.842L93.8059 113.673L93.75 113.921L93.9396 114.28L94.5567 113.954C95.0082 114.595 95.6667 114.668 96.2291 114.371C96.996 113.967 96.9089 113.335 96.8006 112.77ZM96.7269 112.35C96.6863 112.046 96.7083 111.794 96.9728 111.654C97.2152 111.526 97.4831 111.553 97.7081 111.832L96.7269 112.35ZM95.1587 113.638L96.1341 113.123C96.1793 113.435 96.1543 113.694 95.8845 113.837C95.6473 113.962 95.3882 113.926 95.1587 113.638Z" fill="black"/>
</g>
<path d="M94.6313 113.726L94.0138 114.052L93.8242 113.693L94.436 113.37C94.2422 112.923 94.1985 112.414 94.3266 112.055L94.9874 111.958C94.8802 112.289 94.8939 112.702 95.0315 113.055L96.1335 112.473C96.0252 111.908 95.948 111.282 96.7145 110.877C97.2765 110.58 97.9385 110.645 98.3819 111.285L99.0048 110.956L99.1944 111.315L98.5826 111.638C98.7319 111.974 98.7844 112.366 98.7163 112.705L98.065 112.819C98.1129 112.497 98.0772 112.202 97.9875 111.953L96.8745 112.541C96.9828 113.105 97.0698 113.738 96.3037 114.142C95.7413 114.44 95.0828 114.368 94.6313 113.726ZM96.8004 112.121L97.7812 111.603C97.5562 111.324 97.2883 111.297 97.0459 111.425C96.7814 111.565 96.7597 111.817 96.8004 112.121ZM95.9579 113.609C96.2277 113.466 96.2528 113.206 96.2076 112.894L95.2321 113.409C95.4616 113.697 95.7208 113.734 95.9579 113.609Z" fill="#0B622F"/>
<path d="M100.791 112.641C100.794 112.642 100.788 112.681 100.774 112.755C100.756 112.828 100.744 112.94 100.698 113.076C100.626 113.354 100.477 113.746 100.221 114.193C99.9676 114.64 99.5845 115.129 99.0746 115.58C98.8154 115.801 98.5293 116.018 98.2074 116.203C97.8856 116.388 97.5341 116.548 97.1598 116.67C96.4127 116.905 95.6607 117.028 94.9778 116.98C94.2938 116.943 93.6972 116.721 93.2659 116.439C92.83 116.157 92.5583 115.832 92.3832 115.606C92.2996 115.489 92.2433 115.393 92.2027 115.329C92.1631 115.265 92.1438 115.231 92.1468 115.229C92.1498 115.227 92.1749 115.258 92.2201 115.318C92.2661 115.378 92.3277 115.47 92.4151 115.582C92.5979 115.798 92.8737 116.111 93.3047 116.378C93.7318 116.646 94.3139 116.855 94.9839 116.886C95.6519 116.928 96.3914 116.806 97.129 116.573C97.4964 116.453 97.8407 116.297 98.1576 116.117C98.4742 115.936 98.7565 115.725 99.0134 115.51C99.5184 115.069 99.9015 114.593 100.16 114.156C100.42 113.72 100.577 113.337 100.661 113.065C100.748 112.794 100.781 112.639 100.791 112.641Z" fill="#263238"/>
<path d="M93.0588 108.417C93.055 108.411 93.1078 108.369 93.2074 108.299C93.3058 108.227 93.4555 108.134 93.6455 108.027C94.0251 107.813 94.5803 107.566 95.2271 107.4C95.8742 107.236 96.4803 107.187 96.9158 107.193C97.1339 107.196 97.3098 107.206 97.4307 107.222C97.5515 107.236 97.618 107.247 97.6173 107.255C97.6157 107.272 97.3478 107.252 96.9165 107.265C96.4856 107.277 95.8902 107.337 95.2521 107.499C94.6149 107.662 94.0635 107.895 93.6793 108.09C93.294 108.286 93.0683 108.432 93.0588 108.417Z" fill="white"/>
<path d="M91.6212 109.835C91.6003 109.817 91.7439 109.619 91.9419 109.394C92.1403 109.17 92.3181 109.002 92.339 109.021C92.3599 109.04 92.2166 109.237 92.0183 109.462C91.8203 109.687 91.6424 109.854 91.6212 109.835Z" fill="white"/>
<path d="M100.545 111.672C100.526 111.676 100.474 111.446 100.317 111.105C100.241 110.934 100.129 110.739 99.9899 110.535C99.8459 110.334 99.6707 110.125 99.4625 109.929C99.2516 109.736 99.0304 109.576 98.8191 109.447C98.6052 109.323 98.403 109.227 98.2267 109.163C97.8748 109.032 97.6411 108.997 97.6446 108.978C97.6457 108.971 97.7042 108.975 97.8102 108.99C97.9166 109.002 98.0679 109.037 98.2507 109.095C98.4338 109.152 98.6443 109.244 98.8666 109.367C99.0859 109.495 99.3158 109.656 99.532 109.855C99.746 110.056 99.9242 110.273 100.067 110.482C100.207 110.695 100.314 110.897 100.384 111.076C100.455 111.254 100.501 111.403 100.521 111.508C100.543 111.612 100.552 111.67 100.545 111.672Z" fill="white"/>
<path d="M96.8735 111.104C96.8636 111.097 96.8834 111.046 96.9457 110.985C97.0073 110.925 97.1156 110.863 97.2474 110.842C97.3793 110.821 97.5017 110.847 97.5784 110.886C97.6563 110.924 97.6909 110.966 97.6837 110.976C97.6685 111.001 97.4929 110.903 97.263 110.943C97.0324 110.975 96.8955 111.123 96.8735 111.104Z" fill="white"/>
<path d="M94.49 112.331C94.4771 112.333 94.4596 112.319 94.4558 112.287C94.4516 112.256 94.4664 112.211 94.5014 112.179C94.5363 112.148 94.5827 112.137 94.6131 112.145C94.6446 112.152 94.6572 112.171 94.653 112.184C94.6416 112.21 94.6024 112.222 94.569 112.255C94.5333 112.284 94.5177 112.322 94.49 112.331Z" fill="white"/>
<path d="M73.9758 152.533C72.9836 155.515 70.1648 157.261 67.68 156.434C65.1951 155.607 63.9852 152.52 64.9778 149.538C65.97 146.556 68.7888 144.809 71.2736 145.636C73.7581 146.463 74.968 149.551 73.9758 152.533Z" fill="#0B622F"/>
<g opacity="0.2">
<path d="M73.9758 152.533C72.9836 155.515 70.1648 157.261 67.68 156.434C65.1951 155.607 63.9852 152.52 64.9778 149.538C65.97 146.556 68.7888 144.809 71.2736 145.636C73.7581 146.463 74.968 149.551 73.9758 152.533Z" fill="black"/>
</g>
<path d="M73.1028 152.242C72.1106 155.224 69.2917 156.971 66.8069 156.144C64.3221 155.317 63.1122 152.23 64.1047 149.248C65.0969 146.266 67.9158 144.519 70.4006 145.346C72.8854 146.173 74.0953 149.261 73.1028 152.242Z" fill="#0B622F"/>
<g opacity="0.1">
<path d="M72.1475 146.5C71.6751 145.976 71.0869 145.575 70.4002 145.346C67.9154 144.519 65.097 146.266 64.1044 149.248C63.6989 150.466 63.6613 151.703 63.9285 152.795C65.3189 152.847 66.7078 152.611 68.0017 152.084C69.2819 151.563 70.3436 150.734 70.9744 149.484C71.4091 148.621 72.0354 147.543 72.1475 146.5Z" fill="white"/>
</g>
<path d="M71.9549 151.749C71.1923 154.041 69.054 155.393 67.1783 154.769C65.303 154.145 64.4009 151.781 65.1636 149.489C65.9262 147.198 68.0649 145.846 69.9402 146.47C71.8159 147.094 72.7176 149.458 71.9549 151.749Z" fill="#0B622F"/>
<g opacity="0.2">
<path d="M71.9549 151.749C71.1923 154.041 69.054 155.393 67.1783 154.769C65.303 154.145 64.4009 151.781 65.1636 149.489C65.9262 147.198 68.0649 145.846 69.9402 146.47C71.8159 147.094 72.7176 149.458 71.9549 151.749Z" fill="black"/>
</g>
<path d="M72.088 151.905C71.3436 154.141 69.268 155.464 67.4516 154.859C65.6352 154.255 64.7661 151.952 65.5106 149.715C66.255 147.479 68.3305 146.156 70.1469 146.761C71.963 147.365 72.8324 149.668 72.088 151.905Z" fill="#0B622F"/>
<g opacity="0.2">
<path d="M72.088 151.905C71.3436 154.141 69.268 155.464 67.4516 154.859C65.6352 154.255 64.7661 151.952 65.5106 149.715C66.255 147.479 68.3305 146.156 70.1469 146.761C71.963 147.365 72.8324 149.668 72.088 151.905Z" fill="white"/>
</g>
<path d="M69.1284 150.388L69.4856 149.314C69.4872 149.315 69.4883 149.315 69.4898 149.315C69.6308 149.386 69.768 149.487 69.8941 149.615C69.9933 149.74 70.0507 149.855 70.0507 149.855L70.0731 149.825L70.3334 149.483L70.3935 149.404L70.3083 149.152L70.2213 149.169C70.0739 148.99 69.8919 148.827 69.6779 148.739L69.8744 148.149L69.7775 147.952L69.7281 148.1L69.5274 148.033L69.3272 148.634C68.6409 148.495 68.1705 148.864 67.9896 149.407C67.7433 150.146 68.183 150.506 68.6044 150.805L68.2503 151.869C67.9413 151.725 67.6753 151.465 67.5389 151.183L67.1699 151.657C67.3101 151.97 67.6552 152.274 68.0591 152.444L67.9105 152.89L67.7441 152.838L67.8623 153.034L68.2092 153.15L68.4076 152.554C69.0999 152.69 69.573 152.327 69.7535 151.785C69.9998 151.045 69.5499 150.688 69.1284 150.388ZM68.8187 150.161C68.6037 149.989 68.4608 149.811 68.5455 149.556C68.6234 149.322 68.8142 149.172 69.1338 149.214L68.8187 150.161ZM68.6006 151.974L68.9141 151.032C69.1379 151.207 69.2831 151.391 69.1965 151.652C69.1201 151.881 68.9289 152.018 68.6006 151.974Z" fill="#0B622F"/>
<g opacity="0.3">
<path d="M69.1284 150.388L69.4856 149.314C69.4872 149.315 69.4883 149.315 69.4898 149.315C69.6308 149.386 69.768 149.487 69.8941 149.615C69.9933 149.74 70.0507 149.855 70.0507 149.855L70.0731 149.825L70.3334 149.483L70.3935 149.404L70.3083 149.152L70.2213 149.169C70.0739 148.99 69.8919 148.827 69.6779 148.739L69.8744 148.149L69.7775 147.952L69.7281 148.1L69.5274 148.033L69.3272 148.634C68.6409 148.495 68.1705 148.864 67.9896 149.407C67.7433 150.146 68.183 150.506 68.6044 150.805L68.2503 151.869C67.9413 151.725 67.6753 151.465 67.5389 151.183L67.1699 151.657C67.3101 151.97 67.6552 152.274 68.0591 152.444L67.9105 152.89L67.7441 152.838L67.8623 153.034L68.2092 153.15L68.4076 152.554C69.0999 152.69 69.573 152.327 69.7535 151.785C69.9998 151.045 69.5499 150.688 69.1284 150.388ZM68.8187 150.161C68.6037 149.989 68.4608 149.811 68.5455 149.556C68.6234 149.322 68.8142 149.172 69.1338 149.214L68.8187 150.161ZM68.6006 151.974L68.9141 151.032C69.1379 151.207 69.2831 151.391 69.1965 151.652C69.1201 151.881 68.9289 152.018 68.6006 151.974Z" fill="black"/>
</g>
<path d="M68.3135 152.36L68.1151 152.956L67.7685 152.841L67.965 152.25C67.5611 152.08 67.216 151.776 67.0762 151.463L67.4452 150.989C67.5816 151.271 67.8472 151.531 68.1565 151.675L68.5107 150.611C68.0889 150.311 67.6492 149.952 67.8955 149.212C68.076 148.669 68.5464 148.3 69.2331 148.44L69.4333 147.839L69.7799 147.954L69.583 148.545C69.8889 148.67 70.1675 148.892 70.3335 149.155L69.9813 149.634C69.8122 149.395 69.6055 149.226 69.3919 149.119L69.0343 150.194C69.4561 150.494 69.9057 150.85 69.6598 151.59C69.4789 152.133 69.0058 152.496 68.3135 152.36ZM68.7246 149.967L69.0396 149.02C68.7201 148.979 68.5293 149.128 68.4514 149.362C68.3663 149.617 68.5095 149.795 68.7246 149.967ZM69.102 151.458C69.1886 151.197 69.0434 151.013 68.8196 150.838L68.5061 151.78C68.8348 151.824 69.026 151.686 69.102 151.458Z" fill="#0B622F"/>
<path d="M71.6418 147.822C71.6445 147.82 71.665 147.849 71.7015 147.906C71.7357 147.964 71.7969 148.045 71.8523 148.162C71.9781 148.387 72.1252 148.735 72.2369 149.184C72.3502 149.633 72.4052 150.188 72.3547 150.799C72.3235 151.104 72.2722 151.423 72.1784 151.743C72.0838 152.063 71.9549 152.386 71.7874 152.698C71.4484 153.316 71.0357 153.863 70.5619 154.257C70.0948 154.659 69.5685 154.885 69.1129 154.97C68.6546 155.058 68.2754 155.015 68.0212 154.978C67.8943 154.954 67.7977 154.926 67.7316 154.91C67.6659 154.893 67.6321 154.883 67.6328 154.88C67.6336 154.877 67.6693 154.882 67.7358 154.893C67.8027 154.903 67.9 154.925 68.0265 154.943C68.2796 154.969 68.6535 155.001 69.1 154.907C69.5442 154.815 70.053 154.589 70.5071 154.193C70.9677 153.805 71.372 153.265 71.7064 152.655C71.8706 152.349 71.9975 152.033 72.0917 151.719C72.1848 151.404 72.2373 151.091 72.27 150.792C72.3239 150.191 72.2768 149.644 72.1731 149.199C72.0708 148.754 71.9348 148.407 71.8197 148.178C71.7083 147.948 71.6338 147.827 71.6418 147.822Z" fill="#263238"/>
<path d="M63.9883 149.886C63.9822 149.885 63.9905 149.825 64.0114 149.718C64.0308 149.61 64.07 149.456 64.127 149.268C64.2406 148.893 64.4477 148.387 64.765 147.877C65.0834 147.368 65.4471 146.959 65.734 146.692C65.8772 146.558 65.9985 146.456 66.0866 146.391C66.174 146.325 66.2242 146.291 66.228 146.296C66.2379 146.308 66.0513 146.462 65.7788 146.739C65.5064 147.015 65.1564 147.424 64.8421 147.926C64.5298 148.428 64.3162 148.922 64.1881 149.289C64.0593 149.655 64.0035 149.89 63.9883 149.886Z" fill="white"/>
<path d="M63.9371 151.702C63.9116 151.703 63.8823 151.486 63.8713 151.216C63.8603 150.947 63.8721 150.727 63.8972 150.726C63.9223 150.725 63.9519 150.943 63.9629 151.212C63.9739 151.482 63.9625 151.701 63.9371 151.702Z" fill="white"/>
<path d="M70.88 147.345C70.8708 147.36 70.6938 147.243 70.3795 147.119C70.2229 147.055 70.0299 146.998 69.8122 146.952C69.5933 146.911 69.3493 146.884 69.0924 146.886C68.8356 146.892 68.5924 146.926 68.3746 146.974C68.1584 147.026 67.9669 147.089 67.8122 147.157C67.5018 147.291 67.3285 147.413 67.3186 147.399C67.3148 147.394 67.3558 147.36 67.4337 147.304C67.5101 147.245 67.6306 147.174 67.7852 147.098C67.9395 147.021 68.1333 146.95 68.3545 146.892C68.5764 146.838 68.8264 146.8 69.0905 146.795C69.3546 146.793 69.6054 146.823 69.8289 146.87C70.0516 146.921 70.2476 146.986 70.4042 147.059C70.5611 147.13 70.6835 147.198 70.7618 147.254C70.8416 147.308 70.8834 147.34 70.88 147.345Z" fill="white"/>
<path d="M68.1406 149.259C68.1292 149.261 68.1106 149.215 68.1136 149.137C68.1163 149.06 68.1478 148.952 68.2204 148.856C68.2933 148.761 68.3887 148.702 68.4628 148.679C68.5373 148.655 68.586 148.661 68.5879 148.672C68.5936 148.698 68.418 148.743 68.2933 148.912C68.1638 149.077 68.1668 149.258 68.1406 149.259Z" fill="white"/>
<path d="M67.3546 151.539C67.3478 151.549 67.3277 151.55 67.3052 151.532C67.2828 151.514 67.2646 151.476 67.268 151.433C67.271 151.391 67.295 151.356 67.3193 151.341C67.3444 151.327 67.3641 151.331 67.3695 151.342C67.3786 151.366 67.3603 151.398 67.3592 151.44C67.3539 151.482 67.3668 151.516 67.3546 151.539Z" fill="white"/>
<path d="M96.687 151.688C94.7084 149.143 94.8239 145.743 96.9447 144.094C99.0658 142.446 102.389 143.172 104.368 145.717C106.346 148.263 106.231 151.662 104.11 153.311C101.989 154.96 98.6657 154.233 96.687 151.688Z" fill="#0B622F"/>
<g opacity="0.2">
<path d="M96.687 151.688C94.7084 149.143 94.8239 145.743 96.9447 144.094C99.0658 142.446 102.389 143.172 104.368 145.717C106.346 148.263 106.231 151.662 104.11 153.311C101.989 154.96 98.6657 154.233 96.687 151.688Z" fill="black"/>
</g>
<path d="M97.4312 151.109C95.4525 148.564 95.568 145.164 97.6888 143.516C99.81 141.867 103.133 142.593 105.112 145.138C107.09 147.684 106.975 151.083 104.854 152.732C102.733 154.381 99.4098 153.655 97.4312 151.109Z" fill="#0B622F"/>
<g opacity="0.1">
<path d="M102.874 153.566C103.59 153.461 104.268 153.188 104.854 152.732C106.975 151.084 107.09 147.684 105.111 145.138C104.303 144.098 103.269 143.362 102.185 142.968C101.349 144.124 100.759 145.444 100.472 146.847C100.187 148.236 100.289 149.614 100.997 150.865C101.485 151.728 102.048 152.876 102.874 153.566Z" fill="white"/>
</g>
<path d="M98.5056 150.412C96.9849 148.456 97.0499 145.861 98.6508 144.617C100.252 143.372 102.782 143.949 104.303 145.905C105.823 147.861 105.758 150.456 104.157 151.7C102.556 152.945 100.026 152.368 98.5056 150.412Z" fill="#0B622F"/>
<g opacity="0.2">
<path d="M98.5056 150.412C96.9849 148.456 97.0499 145.861 98.6508 144.617C100.252 143.372 102.782 143.949 104.303 145.905C105.823 147.861 105.758 150.456 104.157 151.7C102.556 152.945 100.026 152.368 98.5056 150.412Z" fill="black"/>
</g>
<path d="M98.2973 150.435C96.8134 148.527 96.8674 146.002 98.4178 144.796C99.9682 143.591 102.428 144.161 103.912 146.07C105.396 147.979 105.342 150.503 103.792 151.709C102.241 152.914 99.7812 152.344 98.2973 150.435Z" fill="#0B622F"/>
<g opacity="0.2">
<path d="M98.2973 150.435C96.8134 148.527 96.8674 146.002 98.4178 144.796C99.9682 143.591 102.428 144.161 103.912 146.07C105.396 147.979 105.342 150.503 103.792 151.709C102.241 152.914 99.7812 152.344 98.2973 150.435Z" fill="white"/>
</g>
<path d="M101.276 148.776L101.989 149.692C101.987 149.693 101.986 149.694 101.985 149.695C101.844 149.775 101.68 149.834 101.499 149.869C101.336 149.882 101.206 149.866 101.206 149.866L101.218 149.901L101.362 150.319L101.395 150.415L101.659 150.486L101.694 150.402C101.931 150.378 102.174 150.316 102.371 150.183L102.762 150.688L102.985 150.717L102.887 150.59L103.058 150.457L102.659 149.944C103.169 149.439 103.123 148.827 102.762 148.364C102.272 147.732 101.715 147.903 101.219 148.092L100.513 147.183C100.812 147.002 101.185 146.923 101.503 146.967L101.309 146.382C100.962 146.324 100.506 146.445 100.131 146.693L99.8351 146.312L99.9738 146.199L99.7394 146.188L99.4434 146.418L99.8389 146.927C99.3286 147.441 99.3685 148.05 99.7287 148.514C100.22 149.145 100.78 148.964 101.276 148.776ZM101.646 148.641C101.916 148.556 102.149 148.535 102.318 148.753C102.473 148.953 102.492 149.2 102.275 149.449L101.646 148.641ZM100.224 147.422L100.849 148.226C100.573 148.317 100.333 148.336 100.16 148.114C100.008 147.919 99.9993 147.677 100.224 147.422Z" fill="#0B622F"/>
<g opacity="0.3">
<path d="M101.276 148.776L101.989 149.692C101.987 149.693 101.986 149.694 101.985 149.695C101.844 149.775 101.68 149.834 101.499 149.869C101.336 149.882 101.206 149.866 101.206 149.866L101.218 149.901L101.362 150.319L101.395 150.415L101.659 150.486L101.694 150.402C101.931 150.378 102.174 150.316 102.371 150.183L102.762 150.688L102.985 150.717L102.887 150.59L103.058 150.457L102.659 149.944C103.169 149.439 103.123 148.827 102.762 148.364C102.272 147.732 101.715 147.903 101.219 148.092L100.513 147.183C100.812 147.002 101.185 146.923 101.503 146.967L101.309 146.382C100.962 146.324 100.506 146.445 100.131 146.693L99.8351 146.312L99.9738 146.199L99.7394 146.188L99.4434 146.418L99.8389 146.927C99.3286 147.441 99.3685 148.05 99.7287 148.514C100.22 149.145 100.78 148.964 101.276 148.776ZM101.646 148.641C101.916 148.556 102.149 148.535 102.318 148.753C102.473 148.953 102.492 149.2 102.275 149.449L101.646 148.641ZM100.224 147.422L100.849 148.226C100.573 148.317 100.333 148.336 100.16 148.114C100.008 147.919 99.9993 147.677 100.224 147.422Z" fill="black"/>
</g>
<path d="M100.06 146.956L99.6641 146.448L99.9601 146.218L100.352 146.722C100.727 146.474 101.183 146.353 101.529 146.412L101.724 146.996C101.406 146.952 101.032 147.031 100.733 147.213L101.439 148.121C101.936 147.932 102.492 147.761 102.983 148.393C103.343 148.856 103.39 149.468 102.88 149.974L103.279 150.487L102.983 150.717L102.591 150.213C102.31 150.402 101.962 150.513 101.643 150.505L101.435 149.932C101.735 149.924 101.998 149.844 102.21 149.722L101.497 148.805C101.001 148.994 100.44 149.174 99.9494 148.543C99.5892 148.08 99.5493 147.469 100.06 146.956ZM101.867 148.67L102.495 149.479C102.712 149.229 102.694 148.982 102.538 148.782C102.369 148.564 102.136 148.585 101.867 148.67ZM100.38 148.143C100.553 148.366 100.793 148.347 101.07 148.255L100.445 147.452C100.22 147.707 100.228 147.948 100.38 148.143Z" fill="#0B622F"/>
<path d="M102.035 152.382C102.035 152.386 101.999 152.386 101.929 152.385C101.86 152.381 101.756 152.387 101.625 152.368C101.361 152.346 100.981 152.274 100.534 152.113C100.086 151.955 99.5811 151.685 99.0882 151.294C98.8461 151.094 98.6033 150.868 98.3833 150.606C98.164 150.343 97.9627 150.049 97.7917 149.728C97.4573 149.087 97.2254 148.423 97.1601 147.795C97.0829 147.168 97.1897 146.59 97.3767 146.152C97.5625 145.711 97.8152 145.412 97.9919 145.217C98.0846 145.122 98.1633 145.055 98.2142 145.008C98.2663 144.962 98.2944 144.939 98.2963 144.941C98.2986 144.944 98.2746 144.972 98.2271 145.022C98.1808 145.074 98.1067 145.144 98.0189 145.242C97.8521 145.443 97.6119 145.743 97.4379 146.178C97.2631 146.609 97.1662 147.172 97.246 147.785C97.3147 148.399 97.5446 149.051 97.8749 149.685C98.0424 149.999 98.2397 150.287 98.454 150.546C98.6691 150.805 98.9066 151.028 99.1433 151.227C99.6248 151.615 100.119 151.887 100.558 152.052C100.995 152.218 101.369 152.3 101.63 152.332C101.889 152.367 102.035 152.373 102.035 152.382Z" fill="#263238"/>
<path d="M104.633 144.676C104.638 144.671 104.684 144.712 104.764 144.792C104.845 144.869 104.955 144.99 105.082 145.146C105.337 145.457 105.651 145.922 105.906 146.483C106.159 147.045 106.3 147.588 106.365 147.984C106.397 148.183 106.416 148.345 106.421 148.457C106.427 148.569 106.428 148.631 106.421 148.632C106.405 148.633 106.381 148.387 106.299 147.996C106.219 147.607 106.069 147.075 105.82 146.521C105.569 145.968 105.269 145.505 105.03 145.187C104.791 144.869 104.622 144.687 104.633 144.676Z" fill="white"/>
<path d="M103.114 143.598C103.128 143.576 103.33 143.674 103.566 143.818C103.802 143.962 103.982 144.097 103.969 144.119C103.955 144.141 103.753 144.043 103.517 143.899C103.281 143.754 103.101 143.62 103.114 143.598Z" fill="white"/>
<path d="M102.875 152.002C102.868 151.985 103.069 151.901 103.354 151.704C103.497 151.607 103.656 151.474 103.819 151.315C103.979 151.151 104.141 150.959 104.285 150.738C104.427 150.516 104.536 150.289 104.62 150.076C104.698 149.862 104.754 149.663 104.784 149.492C104.846 149.151 104.841 148.934 104.858 148.934C104.865 148.934 104.87 148.988 104.874 149.086C104.88 149.184 104.872 149.328 104.849 149.503C104.827 149.678 104.777 149.884 104.701 150.106C104.62 150.326 104.51 150.561 104.364 150.79C104.215 151.016 104.047 151.213 103.88 151.377C103.709 151.538 103.541 151.668 103.39 151.76C103.24 151.854 103.113 151.919 103.02 151.954C102.929 151.99 102.878 152.008 102.875 152.002Z" fill="white"/>
<path d="M102.804 148.575C102.809 148.565 102.858 148.575 102.923 148.622C102.988 148.668 103.062 148.757 103.102 148.873C103.142 148.99 103.138 149.105 103.115 149.181C103.093 149.258 103.06 149.296 103.05 149.291C103.025 149.281 103.086 149.106 103.013 148.904C102.946 148.699 102.79 148.598 102.804 148.575Z" fill="white"/>
<path d="M101.306 146.606C101.301 146.595 101.312 146.576 101.34 146.568C101.368 146.559 101.411 146.565 101.445 146.592C101.48 146.619 101.496 146.66 101.494 146.688C101.493 146.718 101.477 146.732 101.465 146.731C101.439 146.724 101.422 146.691 101.387 146.666C101.354 146.638 101.318 146.629 101.306 146.606Z" fill="white"/>
<path d="M89.6322 133.316C88.9075 132.106 87.2314 130.783 85.0893 129.757C82.9472 128.731 80.8663 128.254 79.4691 128.447L78.5529 128.009L77.8932 129.386C77.1784 130.878 79.2844 133.374 82.5969 134.961C85.9093 136.548 89.1743 136.624 89.8891 135.132L90.5488 133.755L89.6322 133.316Z" fill="#0B622F"/>
<g opacity="0.3">
<path d="M89.6322 133.316C88.9075 132.106 87.2314 130.783 85.0893 129.757C82.9472 128.731 80.8663 128.254 79.4691 128.447L78.5529 128.009L77.8932 129.386C77.1784 130.878 79.2844 133.374 82.5969 134.961C85.9093 136.548 89.1743 136.624 89.8891 135.132L90.5488 133.755L89.6322 133.316Z" fill="black"/>
</g>
<path d="M83.2094 133.681C79.897 132.094 77.7902 129.599 78.5043 128.109C79.2183 126.618 82.4825 126.696 85.7949 128.283C89.1078 129.87 91.2141 132.364 90.5001 133.855C89.7861 135.345 86.5219 135.267 83.2094 133.681Z" fill="#0B622F"/>
<g opacity="0.1">
<path d="M81.9775 128.893C82.4377 129.394 82.8975 129.928 83.4257 130.36C85.3101 131.903 87.9009 132.536 90.2224 131.896C89.5 130.651 87.8892 129.285 85.7957 128.283C83.7912 127.322 81.8054 126.916 80.3906 127.074C80.9013 127.695 81.4337 128.3 81.9775 128.893Z" fill="white"/>
</g>
<path d="M83.8436 132.641C81.2976 131.422 79.4759 129.943 79.9559 128.942C80.4651 127.879 83.035 127.795 85.5806 129.015C88.1266 130.234 89.8013 132.035 89.3217 133.036C89.2039 133.281 89.0758 133.549 88.4469 133.782C87.4548 134.15 85.7649 133.561 83.8436 132.641Z" fill="#0B622F"/>
<g opacity="0.3">
<path d="M83.8436 132.641C81.2976 131.422 79.4759 129.943 79.9559 128.942C80.4651 127.879 83.035 127.795 85.5806 129.015C88.1266 130.234 89.8013 132.035 89.3217 133.036C89.2039 133.281 89.0758 133.549 88.4469 133.782C87.4548 134.15 85.7649 133.561 83.8436 132.641Z" fill="black"/>
</g>
<path d="M83.5343 133.001C81.0499 131.811 79.4246 130.035 79.9042 129.033C80.3838 128.032 82.7869 128.185 85.2713 129.375C87.7558 130.565 89.381 132.342 88.9011 133.343C88.4215 134.345 86.0188 134.191 83.5343 133.001Z" fill="#0B622F"/>
<g opacity="0.2">
<path d="M83.5343 133.001C81.0499 131.811 79.4246 130.035 79.9042 129.033C80.3838 128.032 82.7869 128.185 85.2713 129.375C87.7558 130.565 89.381 132.342 88.9011 133.343C88.4215 134.345 86.0188 134.191 83.5343 133.001Z" fill="white"/>
</g>
<path d="M84.7871 131.551L85.9012 132.067C85.9009 132.068 85.9001 132.069 85.8997 132.07C85.823 132.177 85.7154 132.274 85.5794 132.357C85.4471 132.418 85.3267 132.444 85.3267 132.444L85.3571 132.469L85.7101 132.759L85.791 132.825L86.0551 132.801L86.0388 132.724C86.2288 132.632 86.4025 132.509 86.4978 132.343L87.1104 132.626L87.3175 132.582L87.1636 132.511L87.2369 132.352L86.6134 132.063C86.7718 131.504 86.3952 131.029 85.8321 130.768C85.0649 130.414 84.6822 130.719 84.3615 131.021L83.2576 130.51C83.4138 130.274 83.69 130.098 83.9864 130.036L83.4985 129.628C83.1698 129.687 82.846 129.922 82.6614 130.235L82.1989 130.021L82.2555 129.888L82.0488 129.951L81.9219 130.225L82.5401 130.511C82.3855 131.077 82.7552 131.552 83.3184 131.813C84.086 132.168 84.4664 131.853 84.7871 131.551ZM85.0299 131.33C85.2134 131.18 85.4015 131.093 85.6664 131.215C85.9092 131.328 86.0616 131.52 86.0126 131.785L85.0299 131.33ZM83.1421 130.79L84.119 131.242C83.9325 131.399 83.7375 131.487 83.467 131.362C83.2298 131.252 83.09 131.062 83.1421 130.79Z" fill="#0B622F"/>
<g opacity="0.3">
<path d="M84.7871 131.551L85.9012 132.067C85.9009 132.068 85.9001 132.069 85.8997 132.07C85.823 132.177 85.7154 132.274 85.5794 132.357C85.4471 132.418 85.3267 132.444 85.3267 132.444L85.3571 132.469L85.7101 132.759L85.791 132.825L86.0551 132.801L86.0388 132.724C86.2288 132.632 86.4025 132.509 86.4978 132.343L87.1104 132.626L87.3175 132.582L87.1636 132.511L87.2369 132.352L86.6134 132.063C86.7718 131.504 86.3952 131.029 85.8321 130.768C85.0649 130.414 84.6822 130.719 84.3615 131.021L83.2576 130.51C83.4138 130.274 83.69 130.098 83.9864 130.036L83.4985 129.628C83.1698 129.687 82.846 129.922 82.6614 130.235L82.1989 130.021L82.2555 129.888L82.0488 129.951L81.9219 130.225L82.5401 130.511C82.3855 131.077 82.7552 131.552 83.3184 131.813C84.086 132.168 84.4664 131.853 84.7871 131.551ZM85.0299 131.33C85.2134 131.18 85.4015 131.093 85.6664 131.215C85.9092 131.328 86.0616 131.52 86.0126 131.785L85.0299 131.33ZM83.1421 130.79L84.119 131.242C83.9325 131.399 83.7375 131.487 83.467 131.362C83.2298 131.252 83.09 131.062 83.1421 130.79Z" fill="black"/>
</g>
<path d="M82.7848 130.362L82.1855 130.038L82.3292 129.772L82.9231 130.093C83.1268 129.793 83.4646 129.578 83.7964 129.54L84.2581 129.978C83.9583 130.021 83.6717 130.18 83.5011 130.406L84.5716 130.984C84.9105 130.703 85.3114 130.421 86.0555 130.824C86.6015 131.118 86.9481 131.616 86.755 132.165L87.3596 132.491L87.216 132.757L86.6221 132.436C86.4712 132.664 86.2219 132.843 85.9399 132.917L85.471 132.492C85.7298 132.41 85.9187 132.278 86.0437 132.124L84.9626 131.539C84.6236 131.821 84.2243 132.112 83.4802 131.71C82.9353 131.414 82.5956 130.917 82.7848 130.362ZM83.6569 131.269C83.9191 131.411 84.1194 131.335 84.3155 131.19L83.3681 130.677C83.2993 130.946 83.427 131.144 83.6569 131.269ZM85.2191 131.334L86.1718 131.849C86.2371 131.587 86.0969 131.386 85.8617 131.259C85.6048 131.12 85.4117 131.196 85.2191 131.334Z" fill="#0B622F"/>
<path d="M87.9343 134.004C87.9343 134.007 87.9066 134.009 87.8537 134.01C87.7922 134.01 87.7158 134.01 87.6223 134.01C87.5216 134.011 87.3989 134.008 87.2564 133.999C87.1135 133.992 86.9512 133.984 86.7723 133.964C86.0579 133.897 85.0657 133.713 84.0568 133.268C83.046 132.83 82.2176 132.265 81.6449 131.833C81.3603 131.613 81.1323 131.433 80.9811 131.301C80.9104 131.24 80.8526 131.19 80.8059 131.149C80.7664 131.114 80.7466 131.095 80.7481 131.093C80.75 131.091 80.7732 131.106 80.8158 131.138C80.8648 131.175 80.9256 131.221 80.9997 131.277C81.1566 131.402 81.3892 131.576 81.6772 131.789C82.2563 132.209 83.0847 132.763 84.0872 133.197C85.0873 133.638 86.0685 133.829 86.778 133.909C86.9554 133.933 87.1169 133.945 87.259 133.956C87.4008 133.969 87.5231 133.977 87.6235 133.98C87.7166 133.986 87.7929 133.991 87.8541 133.994C87.9066 133.998 87.9343 134.002 87.9343 134.004Z" fill="#263238"/>
<path d="M81.8328 132.932C81.8301 132.936 81.7537 132.891 81.6192 132.805C81.4847 132.718 81.2932 132.587 81.0625 132.418C80.6027 132.079 79.9772 131.586 79.3909 130.932C79.0987 130.606 78.849 130.267 78.6685 129.93C78.488 129.595 78.3778 129.261 78.3527 128.972C78.3235 128.682 78.3706 128.447 78.4227 128.295C78.4451 128.218 78.4747 128.162 78.493 128.124C78.5116 128.086 78.5222 128.067 78.5249 128.068C78.5332 128.071 78.4926 128.151 78.4515 128.304C78.4086 128.456 78.3714 128.686 78.4067 128.966C78.4379 129.246 78.55 129.569 78.7305 129.897C78.9106 130.225 79.1587 130.559 79.4479 130.882C80.0282 131.529 80.6449 132.026 81.0948 132.375C81.3209 132.549 81.5071 132.686 81.6359 132.78C81.7651 132.874 81.8358 132.928 81.8328 132.932Z" fill="#263238"/>
<path d="M81.9629 127.316C81.9621 127.327 81.7547 127.32 81.4203 127.311C81.0866 127.305 80.6223 127.295 80.1237 127.388C79.6255 127.482 79.2052 127.688 78.9453 127.892C78.682 128.094 78.5668 128.271 78.5551 128.262C78.5513 128.259 78.5763 128.213 78.633 128.138C78.6892 128.062 78.7815 127.959 78.9115 127.85C79.1695 127.63 79.5997 127.408 80.1093 127.313C80.6185 127.218 81.0885 127.237 81.4225 127.257C81.5901 127.268 81.7254 127.281 81.8185 127.291C81.912 127.302 81.9633 127.31 81.9629 127.316Z" fill="white"/>
<path d="M83.5237 129.779C83.5283 129.801 83.3687 129.848 83.1893 129.942C83.0092 130.034 82.8777 130.137 82.8625 130.12C82.8481 130.106 82.9629 129.972 83.154 129.874C83.3444 129.775 83.5207 129.759 83.5237 129.779Z" fill="white"/>
<path d="M78.1465 130.596C78.1313 130.607 77.9736 130.348 77.9587 129.985C77.9405 129.621 78.0739 129.348 78.0898 129.359C78.1123 129.366 78.0173 129.636 78.0355 129.981C78.0488 130.325 78.1681 130.586 78.1465 130.596Z" fill="white"/>
<path d="M57.8641 167.803C57.3153 166.623 55.9044 165.248 54.0371 164.1C52.1698 162.952 50.3059 162.314 49.0047 162.357L48.206 161.866L47.4676 163.067C46.6681 164.368 48.3606 166.861 51.2483 168.636C54.1359 170.412 57.125 170.796 57.9245 169.495L58.6624 168.294L57.8641 167.803Z" fill="#0B622F"/>
<g opacity="0.3">
<path d="M57.8641 167.803C57.3153 166.623 55.9044 165.248 54.0371 164.1C52.1698 162.952 50.3059 162.314 49.0047 162.357L48.206 161.866L47.4676 163.067C46.6681 164.368 48.3606 166.861 51.2483 168.636C54.1359 170.412 57.125 170.796 57.9245 169.495L58.6624 168.294L57.8641 167.803Z" fill="black"/>
</g>
<path d="M51.9349 167.52C49.0473 165.745 47.354 163.253 48.1528 161.953C48.9516 160.654 51.9403 161.039 54.8275 162.815C57.7151 164.59 59.4084 167.082 58.6096 168.382C57.8109 169.681 54.8226 169.295 51.9349 167.52Z" fill="#0B622F"/>
<g opacity="0.1">
<path d="M51.2642 163.007C51.6381 163.512 52.009 164.046 52.452 164.494C54.0332 166.091 56.3501 166.921 58.5423 166.557C57.9989 165.344 56.6522 163.937 54.827 162.814C53.0798 161.74 51.2961 161.176 49.9824 161.185C50.3917 161.805 50.8222 162.411 51.2642 163.007Z" fill="white"/>
</g>
<path d="M52.6171 166.627C50.3979 165.263 48.868 163.731 49.4046 162.858C49.9742 161.931 52.3409 162.102 54.5601 163.466C56.7793 164.83 58.1431 166.644 57.6069 167.517C57.4754 167.731 57.3322 167.964 56.7325 168.117C55.7863 168.359 54.2918 167.657 52.6171 166.627Z" fill="#0B622F"/>
<g opacity="0.3">
<path d="M52.6171 166.627C50.3979 165.263 48.868 163.731 49.4046 162.858C49.9742 161.931 52.3409 162.102 54.5601 163.466C56.7793 164.83 58.1431 166.644 57.6069 167.517C57.4754 167.731 57.3322 167.964 56.7325 168.117C55.7863 168.359 54.2918 167.657 52.6171 166.627Z" fill="black"/>
</g>
<path d="M52.2978 166.928C50.1322 165.597 48.8117 163.81 49.3479 162.937C49.8844 162.064 52.0751 162.436 54.2408 163.767C56.4064 165.099 57.7269 166.885 57.1903 167.758C56.6541 168.631 54.4634 168.259 52.2978 166.928Z" fill="#0B622F"/>
<g opacity="0.2">
<path d="M52.2978 166.928C50.1322 165.597 48.8117 163.81 49.3479 162.937C49.8844 162.064 52.0751 162.436 54.2408 163.767C56.4064 165.099 57.7269 166.885 57.1903 167.758C56.6541 168.631 54.4634 168.259 52.2978 166.928Z" fill="white"/>
</g>
<path d="M53.5879 165.717L54.5607 166.297C54.5603 166.298 54.5595 166.299 54.5591 166.3C54.4786 166.391 54.3703 166.47 54.2377 166.533C54.1107 166.576 53.9975 166.588 53.9975 166.588L54.023 166.614L54.319 166.914L54.387 166.983L54.6317 166.987L54.6241 166.914C54.8073 166.848 54.9783 166.751 55.082 166.608L55.6171 166.927L55.8116 166.906L55.6775 166.826L55.7599 166.688L55.2154 166.363C55.4149 165.865 55.1147 165.393 54.623 165.1C53.953 164.7 53.5723 164.944 53.2489 165.19L52.2848 164.615C52.4509 164.413 52.7211 164.278 52.9992 164.25L52.5907 163.828C52.2833 163.851 51.9637 164.036 51.7639 164.305L51.3599 164.064L51.4245 163.948L51.2288 163.985L51.0859 164.225L51.6259 164.547C51.4298 165.051 51.7232 165.523 52.2149 165.817C52.8852 166.216 53.2645 165.964 53.5879 165.717ZM53.8318 165.538C54.0146 165.418 54.1955 165.356 54.4269 165.494C54.6389 165.621 54.7602 165.812 54.6895 166.05L53.8318 165.538ZM52.1515 164.86L53.0046 165.369C52.8184 165.495 52.6306 165.558 52.3947 165.417C52.1872 165.293 52.0774 165.105 52.1515 164.86Z" fill="#0B622F"/>
<g opacity="0.3">
<path d="M53.5879 165.717L54.5607 166.297C54.5603 166.298 54.5595 166.299 54.5591 166.3C54.4786 166.391 54.3703 166.47 54.2377 166.533C54.1107 166.576 53.9975 166.588 53.9975 166.588L54.023 166.614L54.319 166.914L54.387 166.983L54.6317 166.987L54.6241 166.914C54.8073 166.848 54.9783 166.751 55.082 166.608L55.6171 166.927L55.8116 166.906L55.6775 166.826L55.7599 166.688L55.2154 166.363C55.4149 165.865 55.1147 165.393 54.623 165.1C53.953 164.7 53.5723 164.944 53.2489 165.19L52.2848 164.615C52.4509 164.413 52.7211 164.278 52.9992 164.25L52.5907 163.828C52.2833 163.851 51.9637 164.036 51.7639 164.305L51.3599 164.064L51.4245 163.948L51.2288 163.985L51.0859 164.225L51.6259 164.547C51.4298 165.051 51.7232 165.523 52.2149 165.817C52.8852 166.216 53.2645 165.964 53.5879 165.717ZM53.8318 165.538C54.0146 165.418 54.1955 165.356 54.4269 165.494C54.6389 165.621 54.7602 165.812 54.6895 166.05L53.8318 165.538ZM52.1515 164.86L53.0046 165.369C52.8184 165.495 52.6306 165.558 52.3947 165.417C52.1872 165.293 52.0774 165.105 52.1515 164.86Z" fill="black"/>
</g>
<path d="M51.8648 164.433L51.3457 164.078L51.503 163.848L52.0175 164.2C52.2334 163.944 52.564 163.779 52.8722 163.776L53.2537 164.223C52.9744 164.233 52.6962 164.351 52.5176 164.543L53.4444 165.177C53.7826 164.951 54.1778 164.731 54.8219 165.172C55.2947 165.495 55.5648 165.985 55.3349 166.47L55.8586 166.829L55.7013 167.059L55.1871 166.707C55.0264 166.902 54.7805 167.042 54.5149 167.083L54.1254 166.647C54.3709 166.597 54.5571 166.494 54.6867 166.364L53.7507 165.724C53.4125 165.95 53.0181 166.178 52.374 165.738C51.9013 165.414 51.6375 164.924 51.8648 164.433ZM52.5777 165.35C52.8049 165.505 52.9957 165.455 53.1898 165.34L52.3698 164.779C52.2805 165.019 52.3785 165.213 52.5777 165.35ZM54.0053 165.56L54.8303 166.125C54.9158 165.89 54.8064 165.692 54.6023 165.553C54.3796 165.4 54.1953 165.451 54.0053 165.56Z" fill="#0B622F"/>
<path d="M56.2392 168.272C56.2388 168.274 56.2134 168.274 56.1647 168.269C56.1081 168.264 56.0378 168.256 55.9523 168.248C55.86 168.239 55.7475 168.224 55.6175 168.202C55.4872 168.182 55.3386 168.159 55.1767 168.123C54.5277 167.994 53.6343 167.729 52.7516 167.223C51.8658 166.724 51.1601 166.126 50.676 165.674C50.4358 165.446 50.2439 165.258 50.1178 165.122C50.0589 165.059 50.0106 165.008 49.9715 164.966C49.9388 164.93 49.9221 164.911 49.924 164.909C49.9259 164.907 49.9456 164.924 49.9817 164.957C50.0232 164.995 50.0745 165.044 50.1372 165.103C50.269 165.232 50.4659 165.414 50.7098 165.638C51.2012 166.078 51.908 166.667 52.7861 167.162C53.6617 167.663 54.5436 167.933 55.187 168.074C55.3477 168.113 55.4948 168.139 55.624 168.163C55.7528 168.189 55.8645 168.207 55.9561 168.22C56.0408 168.234 56.1104 168.246 56.1666 168.255C56.2141 168.264 56.2396 168.269 56.2392 168.272Z" fill="#263238"/>
<path d="M50.7427 166.701C50.7397 166.705 50.6739 166.656 50.5588 166.564C50.444 166.471 50.2806 166.333 50.0849 166.155C49.6958 165.799 49.1691 165.287 48.6937 164.631C48.457 164.303 48.2605 163.968 48.1275 163.641C47.9942 163.316 47.925 162.999 47.9299 162.731C47.9307 162.463 47.9968 162.251 48.0591 162.117C48.0873 162.048 48.1199 162 48.1401 161.967C48.1606 161.934 48.1728 161.917 48.1747 161.918C48.1819 161.922 48.137 161.991 48.0846 162.128C48.0306 162.263 47.9744 162.47 47.9797 162.731C47.9812 162.991 48.0531 163.299 48.1876 163.616C48.3213 163.935 48.5167 164.265 48.7511 164.589C49.2216 165.238 49.7395 165.754 50.1187 166.118C50.3095 166.3 50.4672 166.443 50.5763 166.542C50.6861 166.641 50.7461 166.697 50.7427 166.701Z" fill="#263238"/>
<path d="M51.4032 161.558C51.4013 161.569 51.2117 161.543 50.9054 161.502C50.5999 161.464 50.1746 161.411 49.708 161.448C49.2417 161.486 48.8363 161.635 48.5779 161.797C48.3164 161.958 48.1941 162.109 48.1838 162.099C48.1808 162.097 48.2081 162.057 48.2674 161.992C48.3263 161.928 48.4209 161.843 48.5509 161.755C48.8089 161.577 49.2246 161.416 49.7019 161.378C50.1788 161.339 50.6078 161.402 50.9126 161.453C51.0654 161.479 51.1881 161.504 51.2728 161.522C51.3576 161.541 51.4039 161.554 51.4032 161.558Z" fill="white"/>
<path d="M52.5994 163.97C52.6017 163.99 52.4504 164.019 52.2768 164.087C52.1023 164.155 51.972 164.236 51.9598 164.219C51.9477 164.205 52.0662 164.093 52.2509 164.021C52.4352 163.948 52.5986 163.951 52.5994 163.97Z" fill="white"/>
<path d="M47.5849 164.201C47.5697 164.211 47.45 163.957 47.4713 163.622C47.4895 163.287 47.6381 163.05 47.6518 163.061C47.6719 163.069 47.5587 163.309 47.542 163.626C47.5214 163.944 47.6058 164.195 47.5849 164.201Z" fill="white"/>
<path d="M21.2826 171.268C19.0257 168.966 18.751 165.575 20.6692 163.694C22.5875 161.814 25.9721 162.155 28.229 164.457C30.4862 166.759 30.7605 170.149 28.8423 172.03C26.924 173.91 23.5394 173.569 21.2826 171.268Z" fill="#0B622F"/>
<g opacity="0.2">
<path d="M21.2826 171.268C19.0257 168.966 18.751 165.575 20.6692 163.694C22.5875 161.814 25.9721 162.155 28.229 164.457C30.4862 166.759 30.7605 170.149 28.8423 172.03C26.924 173.91 23.5394 173.569 21.2826 171.268Z" fill="black"/>
</g>
<path d="M21.9564 170.608C19.6996 168.306 19.4248 164.915 21.3431 163.034C23.2613 161.153 26.646 161.495 28.9028 163.797C31.1596 166.099 31.4344 169.489 29.5161 171.37C27.5979 173.251 24.2136 172.91 21.9564 170.608Z" fill="#0B622F"/>
<path d="M21.9564 170.608C19.6996 168.306 19.4248 164.915 21.3431 163.034C23.2613 161.153 26.646 161.495 28.9028 163.797C31.1596 166.099 31.4344 169.489 29.5161 171.37C27.5979 173.251 24.2136 172.91 21.9564 170.608Z" fill="#0B622F"/>
<g opacity="0.1">
<path d="M27.6437 172.425C28.3429 172.239 28.9848 171.89 29.5149 171.37C31.4331 169.49 31.1587 166.099 28.9015 163.797C27.9793 162.856 26.8682 162.243 25.7464 161.975C25.0483 163.22 24.6132 164.598 24.4882 166.026C24.3643 167.438 24.6235 168.795 25.4698 169.956C26.0534 170.758 26.7439 171.834 27.6437 172.425Z" fill="white"/>
</g>
<path d="M22.9424 169.791C21.2077 168.022 20.9751 165.438 22.4233 164.018C23.8711 162.598 26.4509 162.882 28.1852 164.651C29.9199 166.42 30.1521 169.005 28.7043 170.425C27.2565 171.844 24.6771 171.561 22.9424 169.791Z" fill="#0B622F"/>
<g opacity="0.2">
<path d="M22.9424 169.791C21.2077 168.022 20.9751 165.438 22.4233 164.018C23.8711 162.598 26.4509 162.882 28.1852 164.651C29.9199 166.42 30.1521 169.005 28.7043 170.425C27.2565 171.844 24.6771 171.561 22.9424 169.791Z" fill="black"/>
</g>
<path d="M22.7398 169.839C21.0473 168.112 20.8117 165.598 22.2139 164.223C23.6161 162.848 26.1249 163.133 27.8178 164.86C29.5103 166.586 29.7459 169.101 28.3437 170.475C26.9415 171.85 24.4327 171.565 22.7398 169.839Z" fill="#0B622F"/>
<g opacity="0.2">
<path d="M22.7398 169.839C21.0473 168.112 20.8117 165.598 22.2139 164.223C23.6161 162.848 26.1249 163.133 27.8178 164.86C29.5103 166.586 29.7459 169.101 28.3437 170.475C26.9415 171.85 24.4327 171.565 22.7398 169.839Z" fill="white"/>
</g>
<path d="M25.5091 167.849L26.3219 168.678C26.3208 168.679 26.3196 168.68 26.3189 168.681C26.1882 168.776 26.032 168.854 25.856 168.909C25.6957 168.942 25.5642 168.94 25.5642 168.94L25.5805 168.974L25.7717 169.372L25.8154 169.464L26.0852 169.504L26.1103 169.417C26.3432 169.366 26.5773 169.276 26.7574 169.122L27.2043 169.578L27.4292 169.582L27.3171 169.467L27.4718 169.315L27.0166 168.852C27.4653 168.291 27.3487 167.688 26.9379 167.269C26.3782 166.698 25.8446 166.931 25.3734 167.176L24.5678 166.354C24.8441 166.139 25.2059 166.019 25.527 166.026L25.267 165.467C24.9159 165.449 24.477 165.622 24.1327 165.911L23.7953 165.566L23.9199 165.439L23.6859 165.455L23.418 165.717L23.869 166.177C23.421 166.746 23.5304 167.347 23.9412 167.766C24.5021 168.337 25.0379 168.093 25.5091 167.849ZM25.8614 167.672C26.119 167.556 26.3481 167.509 26.5416 167.707C26.7186 167.887 26.7658 168.131 26.5784 168.403L25.8614 167.672ZM24.3091 166.625L25.0219 167.352C24.7575 167.474 24.5215 167.52 24.3239 167.319C24.1506 167.143 24.1153 166.904 24.3091 166.625Z" fill="#0B622F"/>
<g opacity="0.3">
<path d="M25.5091 167.849L26.3219 168.678C26.3208 168.679 26.3196 168.68 26.3189 168.681C26.1882 168.776 26.032 168.854 25.856 168.909C25.6957 168.942 25.5642 168.94 25.5642 168.94L25.5805 168.974L25.7717 169.372L25.8154 169.464L26.0852 169.504L26.1103 169.417C26.3432 169.366 26.5773 169.276 26.7574 169.122L27.2043 169.578L27.4292 169.582L27.3171 169.467L27.4718 169.315L27.0166 168.852C27.4653 168.291 27.3487 167.688 26.9379 167.269C26.3782 166.698 25.8446 166.931 25.3734 167.176L24.5678 166.354C24.8441 166.139 25.2059 166.019 25.527 166.026L25.267 165.467C24.9159 165.449 24.477 165.622 24.1327 165.911L23.7953 165.566L23.9199 165.439L23.6859 165.455L23.418 165.717L23.869 166.177C23.421 166.746 23.5304 167.347 23.9412 167.766C24.5021 168.337 25.0379 168.093 25.5091 167.849ZM25.8614 167.672C26.119 167.556 26.3481 167.509 26.5416 167.707C26.7186 167.887 26.7658 168.131 26.5784 168.403L25.8614 167.672ZM24.3091 166.625L25.0219 167.352C24.7575 167.474 24.5215 167.52 24.3239 167.319C24.1506 167.143 24.1153 166.904 24.3091 166.625Z" fill="black"/>
</g>
<path d="M24.0917 166.181L23.6406 165.721L23.9081 165.458L24.3554 165.914C24.6997 165.625 25.1386 165.452 25.4893 165.471L25.7492 166.03C25.4281 166.022 25.0664 166.143 24.7901 166.358L25.5953 167.179C26.0665 166.935 26.6001 166.702 27.1602 167.273C27.571 167.692 27.6876 168.294 27.2388 168.855L27.6941 169.319L27.4266 169.582L26.9797 169.126C26.722 169.347 26.3884 169.496 26.0711 169.525L25.7986 168.979C26.0966 168.937 26.3477 168.827 26.545 168.682L25.7314 167.853C25.2602 168.097 24.7244 168.341 24.1643 167.77C23.7531 167.351 23.6433 166.749 24.0917 166.181ZM26.0829 167.676L26.7999 168.408C26.9873 168.135 26.9402 167.891 26.7631 167.711C26.57 167.513 26.3409 167.561 26.0829 167.676ZM24.5454 167.323C24.743 167.524 24.979 167.478 25.2435 167.356L24.5306 166.629C24.3364 166.907 24.3725 167.146 24.5454 167.323Z" fill="#0B622F"/>
<path d="M26.6755 171.345C26.6759 171.348 26.6398 171.353 26.5703 171.36C26.5011 171.363 26.3985 171.381 26.2663 171.377C26.0018 171.387 25.6157 171.358 25.1532 171.25C24.6908 171.143 24.1576 170.933 23.6234 170.601C23.36 170.43 23.0929 170.234 22.8444 169.998C22.5966 169.762 22.3625 169.493 22.1562 169.194C21.7507 168.595 21.4444 167.962 21.3073 167.346C21.1591 166.731 21.1986 166.145 21.3346 165.689C21.4688 165.23 21.6854 164.903 21.8389 164.689C21.9202 164.585 21.9905 164.509 22.0357 164.457C22.0821 164.404 22.1075 164.378 22.1098 164.381C22.1121 164.383 22.0916 164.413 22.0502 164.469C22.0099 164.525 21.9445 164.604 21.8685 164.71C21.7256 164.929 21.5216 165.256 21.3985 165.707C21.2742 166.155 21.2423 166.725 21.3916 167.326C21.5303 167.928 21.8332 168.549 22.2337 169.141C22.4362 169.434 22.665 169.698 22.9074 169.93C23.1506 170.163 23.4121 170.357 23.6701 170.527C24.193 170.858 24.7151 171.072 25.1696 171.185C25.6237 171.3 26.0044 171.338 26.2666 171.34C26.5288 171.347 26.6748 171.335 26.6755 171.345Z" fill="#263238"/>
<path d="M28.3734 163.392C28.3776 163.387 28.4282 163.423 28.5167 163.492C28.606 163.561 28.7284 163.668 28.8728 163.808C29.1619 164.087 29.5267 164.514 29.8437 165.041C30.1591 165.571 30.362 166.094 30.4714 166.48C30.5265 166.674 30.5634 166.833 30.5812 166.944C30.6006 167.055 30.6082 167.116 30.6018 167.117C30.5862 167.121 30.533 166.878 30.408 166.5C30.2837 166.122 30.0739 165.611 29.7631 165.09C29.4507 164.569 29.0996 164.143 28.8253 163.854C28.5517 163.565 28.3632 163.404 28.3734 163.392Z" fill="white"/>
<path d="M26.7407 162.495C26.7517 162.471 26.9641 162.547 27.2149 162.663C27.4661 162.779 27.6607 162.892 27.6496 162.915C27.6386 162.939 27.4266 162.864 27.1754 162.748C26.9246 162.632 26.7297 162.519 26.7407 162.495Z" fill="white"/>
<path d="M27.4671 170.871C27.458 170.855 27.648 170.749 27.9087 170.52C28.0398 170.407 28.1827 170.257 28.3263 170.08C28.4661 169.899 28.6048 169.689 28.7234 169.454C28.8385 169.216 28.9214 168.979 28.9795 168.758C29.0331 168.536 29.0654 168.331 29.0753 168.159C29.0985 167.813 29.0681 167.597 29.0855 167.595C29.092 167.594 29.1034 167.647 29.1186 167.745C29.1361 167.842 29.1448 167.985 29.1418 168.162C29.1399 168.339 29.114 168.549 29.0639 168.778C29.0088 169.006 28.9263 169.252 28.8078 169.495C28.6862 169.737 28.541 169.952 28.3936 170.134C28.2423 170.313 28.0911 170.462 27.9512 170.57C27.8129 170.68 27.6936 170.76 27.6058 170.806C27.5196 170.853 27.4702 170.876 27.4671 170.871Z" fill="white"/>
<path d="M27.0025 167.475C27.0063 167.464 27.0568 167.468 27.1267 167.507C27.1959 167.546 27.2795 167.626 27.3331 167.737C27.3859 167.848 27.395 167.963 27.3817 168.041C27.3684 168.12 27.3403 168.162 27.3293 168.158C27.3034 168.151 27.3445 167.97 27.2483 167.777C27.1583 167.582 26.9915 167.499 27.0025 167.475Z" fill="white"/>
<path d="M25.2888 165.69C25.2831 165.679 25.2915 165.66 25.3184 165.648C25.345 165.636 25.3887 165.638 25.426 165.66C25.4632 165.683 25.4841 165.721 25.4856 165.75C25.4875 165.78 25.4742 165.796 25.4621 165.796C25.4355 165.793 25.415 165.761 25.377 165.741C25.3412 165.716 25.304 165.712 25.2888 165.69Z" fill="white"/>
</g>
<defs>
<clipPath id="clip0_8494_15392">
<rect width="190" height="190" fill="white" transform="translate(-14)"/>
</clipPath>
</defs>
</svg>
