<svg width="23" height="20" viewBox="0 0 23 20" fill="none" xmlns="http://www.w3.org/2000/svg">
<path d="M19.558 7.723C20.506 7.189 20.981 6.922 21.24 6.491C21.5 6.061 21.5 5.542 21.5 4.504V3.814C21.5 2.488 21.5 1.824 21.06 1.412C20.622 1 19.915 1 18.5 1H4.5C3.086 1 2.379 1 1.94 1.412C1.501 1.824 1.5 2.488 1.5 3.815V4.505C1.5 5.542 1.5 6.061 1.76 6.491C2.02 6.921 2.493 7.189 3.442 7.723L6.355 9.363C6.991 9.721 7.31 9.9 7.538 10.098C8.012 10.509 8.304 10.993 8.436 11.588C8.5 11.872 8.5 12.206 8.5 12.873V15.543C8.5 16.452 8.5 16.907 8.752 17.261C9.004 17.616 9.452 17.791 10.346 18.141C12.225 18.875 13.164 19.242 13.832 18.824C14.5 18.406 14.5 17.452 14.5 15.542V12.872C14.5 12.206 14.5 11.872 14.564 11.587C14.6896 11.0042 15.0059 10.4798 15.463 10.097" stroke="white" stroke-width="1.5" stroke-linecap="round"/>
</svg>
