<svg width="223" height="223" viewBox="0 0 223 223" fill="none" xmlns="http://www.w3.org/2000/svg">
<path d="M201.251 210.25C201.251 210.314 158.466 210.366 105.7 210.366C52.916 210.366 10.1406 210.314 10.1406 210.25C10.1406 210.186 52.9165 210.134 105.7 210.134C158.466 210.134 201.251 210.186 201.251 210.25Z" fill="#263238"/>
<path d="M60.9245 112.498C60.2384 112.005 59.3901 111.806 58.626 111.445C57.8625 111.084 57.1194 110.454 57.0493 109.612C56.9455 108.368 58.3202 107.428 58.4011 106.183C58.5145 104.428 56.1401 103.469 55.7924 101.745C55.5036 100.314 56.7201 98.9628 56.6675 97.5038C56.6154 96.0492 55.3546 94.9565 54.7776 93.6203C53.4365 90.5134 55.9107 86.5067 54.0369 83.6886C53.5334 82.9309 52.7762 82.3855 52.1343 81.7412C51.4925 81.0965 50.934 80.2565 51.0104 79.3497L47.4926 77.7515C46.3146 75.9517 43.6431 75.8816 41.6334 76.6495C39.6237 77.417 37.86 78.7995 35.7714 79.3157C34.7585 79.566 34.9036 78.0632 33.881 78.2716C32.5365 78.5458 30.8827 80.1191 30.5 81.4237C30.089 82.8233 29.8031 84.3704 29.3064 85.7416C28.7576 87.2571 27.1317 88.3157 26.9802 89.9198C26.803 91.7927 28.7386 93.3179 28.7416 95.199C28.745 97.2228 26.5108 99.0309 27.2227 100.926C27.6298 102.008 28.8789 102.589 29.3138 103.661C29.9142 105.141 28.7211 106.764 28.8302 108.358C28.9378 109.932 30.2599 111.116 31.5134 112.074C36.309 115.739 41.6062 118.795 47.3144 120.756C49.7833 121.605 52.3841 122.252 54.984 122.016C57.5839 121.78 60.1999 120.536 61.5615 118.308C62.68 116.478 62.6659 113.749 60.9245 112.498Z" fill="#263238"/>
<path d="M50.8737 78.4737C50.2358 75.9322 48.1535 73.8071 45.6262 73.1175C43.0983 72.428 40.2253 73.2013 38.3855 75.0664C37.6356 75.8265 37.04 76.7571 36.1538 77.3531C35.153 78.0266 35.007 77.8289 33.8845 78.2706C32.7621 78.7123 30.7071 81.8391 30.7416 83.0448L30.1797 88.3308C30.2255 89.5692 31.8164 90.266 32.988 89.8623C34.1601 89.4586 34.9373 88.3629 35.5572 87.2897C36.1766 86.2164 36.7576 85.0565 37.7715 84.3435C39.4524 83.1612 41.731 83.5678 43.7441 83.9798C45.7572 84.3917 48.0863 84.6859 49.6573 83.3613C51.0105 82.2213 51.3047 80.1907 50.8737 78.4737Z" fill="#263238"/>
<path d="M51.9799 86.0214C51.7554 82.5801 49.4657 78.3624 46.037 78.733L35.3345 81.4634C34.2929 81.5759 33.5108 82.4666 33.5337 83.5141L34.737 109.334C34.7117 109.34 34.6883 109.345 34.663 109.35C34.663 109.35 39.0169 118.578 46.0939 116.354C47.4974 115.912 46.2235 112.432 46.5015 110.853L46.5741 110.862C46.577 110.675 46.5794 110.5 46.5814 110.321C46.8147 108.499 46.6238 106.775 46.6238 106.775C46.6437 104.691 46.6413 103.836 46.6428 103.855C46.6428 103.855 51.0381 103.115 51.9365 97.3765C52.3831 94.5224 52.2292 89.8446 51.9799 86.0214Z" fill="#FFBE9D"/>
<path d="M51.0976 90.4429C51.1122 90.8315 50.7952 91.1641 50.3895 91.187C49.9849 91.2094 49.644 90.9138 49.6294 90.5252C49.6148 90.1366 49.9318 89.8035 50.3365 89.7811C50.7426 89.7577 51.083 90.0543 51.0976 90.4429Z" fill="#263238"/>
<path d="M50.9664 88.4576C50.8753 88.5541 50.3173 88.1426 49.5255 88.1465C48.7346 88.1392 48.1547 88.5477 48.0685 88.4508C48.0261 88.408 48.1186 88.2346 48.3714 88.0501C48.6197 87.866 49.0444 87.6868 49.5376 87.6877C50.0309 87.6892 50.4463 87.8699 50.6849 88.0554C50.9284 88.2409 51.0112 88.4143 50.9664 88.4576Z" fill="#263238"/>
<path d="M43.6083 90.6881C43.6229 91.0767 43.3059 91.4093 42.9008 91.4322C42.4961 91.4546 42.1557 91.159 42.1411 90.7704C42.1265 90.3818 42.4435 90.0487 42.8482 90.0258C43.2528 90.0034 43.5937 90.3 43.6083 90.6881Z" fill="#263238"/>
<path d="M43.1993 88.6254C43.1083 88.7213 42.5492 88.3103 41.7579 88.3142C40.9671 88.3064 40.3871 88.715 40.3009 88.6185C40.2586 88.5757 40.3506 88.4023 40.6038 88.2178C40.8527 88.0337 41.2768 87.8545 41.7701 87.8555C42.2634 87.8574 42.6783 88.0381 42.9174 88.2231C43.1609 88.4087 43.2441 88.582 43.1993 88.6254Z" fill="#263238"/>
<path d="M46.0866 94.4883C46.0827 94.4435 46.5746 94.3573 47.3722 94.2535C47.5743 94.2321 47.7657 94.1917 47.7993 94.0534C47.8465 93.9073 47.7618 93.6896 47.6629 93.4544C47.4715 92.9655 47.2719 92.4532 47.0615 91.9161C46.2264 89.7262 45.6216 87.9249 45.7097 87.8923C45.7983 87.8592 46.5473 89.6079 47.3819 91.7978C47.5831 92.3378 47.7754 92.8525 47.958 93.3453C48.035 93.5747 48.1674 93.8352 48.0647 94.1386C48.0106 94.2896 47.8626 94.3996 47.733 94.4352C47.6035 94.4751 47.4896 94.4775 47.3897 94.4834C46.5877 94.5287 46.09 94.5331 46.0866 94.4883Z" fill="#263238"/>
<path d="M46.6525 103.857C46.6525 103.857 42.7938 104.115 38.9648 101.825C38.9648 101.825 40.8377 105.761 46.578 105.212L46.6525 103.857Z" fill="#EB996E"/>
<path d="M45.7495 96.3967C45.4641 96.0207 44.9645 95.8152 44.4693 95.8698C44.126 95.9073 43.7788 96.0738 43.5708 96.3543C43.3629 96.6343 43.32 97.0317 43.5099 97.298C43.7242 97.598 44.1708 97.6662 44.5486 97.5581C44.9265 97.45 45.2508 97.2006 45.5591 96.9518C45.6443 96.8831 45.7315 96.8111 45.7846 96.7171C45.8376 96.6231 45.8488 96.4999 45.7826 96.4225" fill="#EB996E"/>
<path d="M43.7549 95.0389C43.8834 95.0311 43.8873 95.8906 44.6241 96.4988C45.3594 97.109 46.2754 97.0106 46.2822 97.1309C46.2944 97.185 46.0787 97.2984 45.692 97.3096C45.3127 97.3233 44.7585 97.203 44.3076 96.8309C43.8581 96.4579 43.6638 95.9593 43.6336 95.6067C43.601 95.2473 43.6959 95.034 43.7549 95.0389Z" fill="#263238"/>
<path d="M43.5499 87.2372C43.4725 87.4524 42.6817 87.3521 41.753 87.4665C40.822 87.562 40.0735 87.8356 39.9498 87.6428C39.8948 87.5508 40.0248 87.3477 40.3272 87.1388C40.6272 86.9299 41.1054 86.7312 41.663 86.6679C42.2205 86.6056 42.7314 86.6932 43.0698 86.8301C43.4116 86.9664 43.5835 87.1349 43.5499 87.2372Z" fill="#263238"/>
<path d="M50.6768 86.167C50.538 86.3472 49.9921 86.1617 49.3362 86.1544C48.6807 86.1242 48.1251 86.2781 47.997 86.0901C47.9406 85.999 48.0277 85.8189 48.2702 85.6479C48.5088 85.478 48.9086 85.3382 49.3596 85.3509C49.81 85.364 50.201 85.5262 50.4294 85.7103C50.6617 85.8939 50.7382 86.0789 50.6768 86.167Z" fill="#263238"/>
<path d="M45.8493 77.2644L45.3629 76.6421C42.0539 77.0205 38.7966 77.8517 35.7112 79.1052C34.4773 79.6062 33.2277 80.2077 32.3838 81.2381C31.2224 82.6566 31.0374 84.6123 30.9054 86.4408C30.4024 93.402 29.9855 100.572 32.1769 107.199C32.7038 106.351 33.7351 105.97 34.7149 105.781C35.6947 105.592 36.7232 105.528 37.6109 105.073C38.5848 104.574 39.2972 103.621 39.5699 102.561C39.8426 101.502 39.6897 100.351 39.2149 99.3654C38.6832 98.2619 37.7336 97.1974 37.9659 95.9946C38.2084 94.7358 39.6552 94.0141 39.9941 92.7777C40.5804 90.6404 37.5797 88.7218 38.1875 86.5903C38.4119 85.8034 39.099 85.2292 39.8314 84.8645C40.5638 84.4998 41.3668 84.2962 42.1085 83.9514C44.5837 82.8022 46.1649 79.9749 45.8493 77.2644Z" fill="#263238"/>
<path d="M74.8075 121.002L68.0977 131.444C68.0977 131.444 68.8447 132.682 70.4575 132.614C72.0703 132.546 74.2923 128.514 74.5572 127.697C74.8221 126.88 74.4618 126.096 74.7038 125.553C74.9458 125.011 74.8479 123.517 74.8479 123.517C74.8124 123.602 76.2976 121.615 74.8075 121.002Z" fill="#FFBE9D"/>
<path d="M66.2422 131.438L69.7386 117.615C69.8433 117.201 70.1126 116.847 70.4841 116.635L75.5641 113.739C75.8729 113.564 76.2644 113.648 76.4728 113.936C76.5941 114.103 76.6345 114.315 76.5838 114.516L72.8814 129.066L66.2422 131.438Z" fill="#263238"/>
<path d="M64.4779 142.153L72.5966 127.16L69.5399 123.199L58.1152 131.87L61.1076 140.109L64.4779 142.153Z" fill="#0B622F"/>
<path d="M72.694 130.41C72.6701 130.399 72.8035 130.203 72.8498 129.793C72.9034 129.388 72.8736 128.776 72.6798 128.061L72.6701 128.026L72.6886 127.994C72.8157 127.774 72.8771 127.494 72.7826 127.224C72.6964 126.955 72.4758 126.701 72.2162 126.519L72.1271 126.456L72.1875 126.365C72.4748 125.936 72.7826 125.476 73.1064 124.992C73.1834 124.873 73.2871 124.742 73.3207 124.638C73.3591 124.525 73.3455 124.4 73.2939 124.277C73.1887 124.031 72.9608 123.807 72.7246 123.634L72.6107 123.55L72.7022 123.445C72.952 123.161 73.2286 122.879 73.5082 122.592C73.9922 122.078 74.4568 121.571 74.8468 121.049C75.0338 120.785 75.2208 120.525 75.3435 120.253C75.4102 120.119 75.4511 119.981 75.4653 119.856C75.4765 119.729 75.4151 119.658 75.3416 119.644L75.3133 119.638C75.1955 119.605 75.01 119.65 74.8536 119.709C74.6929 119.769 74.5376 119.844 74.3886 119.92C74.0906 120.077 73.8149 120.246 73.5588 120.41C73.047 120.739 72.6121 121.051 72.2537 121.309C71.9236 121.55 71.6484 121.752 71.424 121.916C71.2311 122.057 71.1254 122.129 71.1177 122.119C71.1099 122.11 71.2 122.019 71.3792 121.86C71.5579 121.702 71.8247 121.476 72.1719 121.2C72.5196 120.926 72.9462 120.598 73.4551 120.252C73.7102 120.08 73.9859 119.903 74.2902 119.735C74.4436 119.653 74.6033 119.572 74.7772 119.504C74.9525 119.444 75.1375 119.364 75.3878 119.423L75.3591 119.417C75.5933 119.433 75.7263 119.692 75.6995 119.866C75.6839 120.043 75.6318 120.205 75.5617 120.352C75.4283 120.654 75.2379 120.921 75.046 121.196C74.6491 121.734 74.1807 122.248 73.6932 122.767C73.4132 123.054 73.1351 123.336 72.8892 123.614L72.8668 123.426C73.1395 123.631 73.3811 123.861 73.5223 124.183C73.59 124.342 73.6138 124.539 73.5525 124.713C73.4843 124.895 73.3893 124.993 73.309 125.12C72.9759 125.603 72.6599 126.062 72.3643 126.491L72.3356 126.338C72.636 126.559 72.8673 126.835 72.9701 127.165C73.0787 127.495 72.9895 127.842 72.8376 128.083L72.8464 128.015C73.0261 128.765 73.0275 129.39 72.9433 129.809C72.9038 130.018 72.8405 130.172 72.7904 130.271C72.7339 130.367 72.7013 130.414 72.694 130.41Z" fill="#0B9346"/>
<path d="M76.473 113.936C76.4818 113.951 76.3328 114.055 76.0552 114.231C75.7777 114.406 75.372 114.654 74.8675 114.954C74.3431 115.262 73.7441 115.614 73.0896 115.998C72.7512 116.193 72.3986 116.396 72.0344 116.606C71.6687 116.812 71.2771 117.011 70.9733 117.301C70.6684 117.585 70.5443 117.996 70.4391 118.398C70.3334 118.805 70.2307 119.198 70.1328 119.576C69.9365 120.309 69.7568 120.979 69.5996 121.566C69.4442 122.132 69.3142 122.589 69.2187 122.903C69.1233 123.217 69.0624 123.389 69.0459 123.385C69.0288 123.38 69.0571 123.201 69.1233 122.879C69.189 122.557 69.2928 122.094 69.4257 121.522C69.5674 120.931 69.7291 120.256 69.9063 119.518C70.0003 119.139 70.0977 118.744 70.1985 118.336C70.3008 117.932 70.4347 117.458 70.796 117.119C71.1447 116.789 71.5474 116.593 71.9146 116.388C72.2813 116.183 72.6353 115.984 72.9757 115.794C73.6394 115.427 74.2467 115.091 74.7784 114.798C75.2936 114.517 75.7129 114.294 76.0051 114.145C76.2982 113.996 76.4643 113.921 76.473 113.936Z" fill="#455A64"/>
<path d="M73.105 118.663C72.9789 118.964 72.9643 119.244 73.0724 119.29C73.1805 119.335 73.3704 119.128 73.4966 118.827C73.6227 118.526 73.6373 118.246 73.5292 118.2C73.4211 118.155 73.2312 118.362 73.105 118.663Z" fill="white"/>
<path d="M47.8262 110.28C51.3508 111.552 54.2258 114.172 55.8202 117.563L66.7204 140.748L76.1085 144.556L67.8423 146.938L60.4794 141.54L47.8262 110.28Z" fill="#0B622F"/>
<path d="M67.8405 146.937L63.8853 149.986L44.155 129.691L32.875 109.317L34.1791 105.528L42.8996 109.16L46.0225 113.775L46.7189 107.918L47.2789 108.711L48.189 111.179C48.189 111.179 56.7523 118.303 58.5998 123.952C60.142 128.666 59.6595 138.407 60.5983 141.054L67.8405 146.937Z" fill="#FAFAFA"/>
<path d="M30.7649 109.053C30.6329 109.45 22.3302 112.785 21.9338 115.692C21.5374 118.599 27.9001 141.077 27.9001 141.077L37.9861 149.987H63.8867L55.6702 134.604C53.8991 131.288 51.662 128.243 49.0216 125.568C46.5902 123.104 43.6475 120.056 42.1331 118.236C40.4915 116.264 33.5318 107.058 33.5318 107.058L30.7649 109.053Z" fill="#0B622F"/>
<path d="M35.9613 109.973C35.9774 109.942 36.5369 110.196 37.429 110.631C38.3206 111.067 39.5449 111.684 40.8894 112.38C41.4236 112.659 41.9378 112.928 42.415 113.177L42.2397 113.292C42.172 112.187 42.2777 111.236 42.4038 110.578C42.5304 109.918 42.6643 109.545 42.6882 109.552C42.7189 109.559 42.6356 109.944 42.5519 110.601C42.4681 111.258 42.397 112.194 42.4798 113.276L42.4963 113.49L42.3045 113.391C41.8253 113.146 41.3096 112.881 40.773 112.606C39.4285 111.91 38.2174 111.267 37.3467 110.791C36.4755 110.314 35.9452 110.004 35.9613 109.973Z" fill="#263238"/>
<path d="M55.9239 130.473C55.9083 130.482 55.7617 130.247 55.5095 129.815C55.2378 129.343 54.8818 128.725 54.4528 127.981C53.5641 126.43 52.3306 124.291 50.9349 121.95C49.5378 119.607 48.243 117.505 47.3012 115.986C46.8498 115.255 46.4758 114.648 46.19 114.184C45.9299 113.757 45.7931 113.516 45.8077 113.507C45.8223 113.498 45.9869 113.72 46.2728 114.131C46.5586 114.541 46.9623 115.142 47.4527 115.89C48.4339 117.386 49.7541 119.475 51.1531 121.82C52.5502 124.165 53.7608 126.32 54.6096 127.894C55.0342 128.681 55.3712 129.322 55.5962 129.769C55.8216 130.214 55.9395 130.465 55.9239 130.473Z" fill="#263238"/>
<g opacity="0.3">
<path d="M51.936 146.143C53.4407 146.398 54.9839 146.654 56.4833 146.368C57.9826 146.082 59.4528 145.138 59.9227 143.686C60.0697 143.231 60.1335 142.712 60.4846 142.388C61.0636 141.853 61.9864 142.182 62.7719 142.11C63.6484 142.03 64.4003 141.403 64.8571 140.65C65.3139 139.897 65.5242 139.026 65.7287 138.169C65.8296 137.746 65.9313 137.313 65.8831 136.881C65.8349 136.449 65.606 136.011 65.2096 135.832C64.6165 135.564 63.9474 135.954 63.4196 136.334C59.1499 139.41 55.2576 142.973 51.377 146.528" fill="black"/>
</g>
<path d="M61.6079 128.984C61.6079 128.984 63.0931 125.576 63.8849 125.103C64.6767 124.63 68.6148 122.334 68.6148 122.334L68.1074 124.208L71.9564 121.535C72.4297 121.217 75.1786 118.719 75.666 119.694C76.0172 120.396 73.7727 122.245 73.4718 122.657C72.7199 123.686 72.9697 123.591 72.9697 123.591C72.9697 123.591 73.7849 124.081 73.3754 124.808C72.9658 125.535 72.2763 126.426 72.2763 126.426C72.2763 126.426 73.3476 126.808 72.7224 128.2C72.7224 128.2 73.0072 128.949 72.8309 129.988C72.6542 131.027 70.7769 133.001 70.7769 133.001L61.4087 137.464L57.6309 131.051L61.6079 128.984Z" fill="#FFBE9D"/>
<path d="M39.7912 122.577L45.7983 135.403L59.1217 129.615C59.1217 129.615 64.6511 132.841 63.8852 136.366L51.8815 146.227C49.6088 148.094 46.6705 148.948 43.7511 148.591C40.6161 148.207 37.8082 146.464 36.0737 143.824L27.3848 130.601L22.5268 122.66C20.972 120.119 20.9715 116.845 22.7304 114.441C23.2105 113.785 23.7822 113.236 24.4469 112.831C26.6149 111.511 33.0608 110.938 39.7912 122.577Z" fill="#0B622F"/>
<path d="M69.3416 123.318C69.3762 123.374 68.5002 123.977 67.385 124.665C66.2699 125.353 65.3383 125.866 65.3037 125.81C65.2691 125.755 66.1452 125.151 67.2603 124.463C68.3755 123.775 69.307 123.262 69.3416 123.318Z" fill="#0B9346"/>
<path d="M73.0966 123.201C73.1414 123.249 72.3583 124.094 71.3474 125.089C70.3365 126.084 69.4789 126.854 69.4317 126.808C69.3849 126.762 70.1675 125.917 71.1808 124.92C72.1942 123.923 73.0518 123.153 73.0966 123.201Z" fill="#0B9346"/>
<path d="M72.5919 126.09C72.6416 126.132 72.2744 126.645 71.7714 127.236C71.2684 127.827 70.8204 128.271 70.7702 128.228C70.72 128.186 71.0877 127.673 71.5907 127.082C72.0938 126.491 72.5423 126.047 72.5919 126.09Z" fill="#0B9346"/>
<path d="M72.7667 128.038C72.8169 128.082 72.6099 128.398 72.3465 128.776C72.082 129.154 71.8561 129.456 71.7977 129.424C71.7412 129.394 71.879 129.029 72.1522 128.64C72.4239 128.25 72.7185 127.995 72.7667 128.038Z" fill="#0B9346"/>
<path d="M49.8356 147.499C49.8337 147.497 49.8541 147.477 49.8965 147.44C49.9476 147.397 50.0095 147.345 50.0874 147.28C50.2695 147.133 50.5208 146.931 50.8422 146.671C51.52 146.134 52.4925 145.364 53.7226 144.39C56.2221 142.43 59.7653 139.652 63.9941 136.336L63.9512 136.42C63.9527 135.766 63.8368 135.097 63.5738 134.456C63.2977 133.823 62.9198 133.218 62.4679 132.65C61.5437 131.533 60.3716 130.537 59.0607 129.722L59.1722 129.729C56.9662 130.689 54.6507 131.695 52.2738 132.729C50.0713 133.685 47.9214 134.618 45.8493 135.518L45.7422 135.564L45.6891 135.46C43.9205 131.982 42.2906 128.707 40.633 125.864C39.8124 124.438 38.9963 123.115 38.2288 121.887C37.4599 120.659 36.7587 119.515 36.0429 118.531C34.6428 116.532 33.0699 115.311 31.8925 114.683C31.6042 114.512 31.3373 114.382 31.106 114.271C30.8776 114.153 30.6785 114.066 30.5168 113.999C30.3653 113.932 30.2451 113.879 30.1525 113.837C30.0707 113.8 30.0298 113.779 30.0313 113.776C30.0313 113.776 30.7418 113.978 31.9353 114.607C32.5294 114.922 33.237 115.364 33.9689 115.997C34.7076 116.621 35.4483 117.451 36.1734 118.437C36.9028 119.422 37.6148 120.563 38.391 121.786C39.1667 123.01 39.9916 124.331 40.8205 125.756C42.4946 128.599 44.1372 131.875 45.9102 135.348L45.75 135.291C47.8215 134.39 49.9705 133.455 52.1726 132.498C54.5504 131.466 56.8664 130.461 59.0733 129.503L59.1332 129.477L59.1853 129.509C60.5284 130.348 61.7058 131.354 62.652 132.501C63.1132 133.084 63.5018 133.709 63.7866 134.368C64.0584 135.036 64.1796 135.74 64.1738 136.429L64.1733 136.48L64.1309 136.513C59.8792 139.798 56.3161 142.552 53.8034 144.494C52.5573 145.447 51.5716 146.201 50.885 146.726C50.5544 146.974 50.2963 147.168 50.1093 147.309C50.027 147.368 49.9613 147.416 49.9077 147.455C49.8619 147.486 49.8376 147.501 49.8356 147.499Z" fill="#263238"/>
<path d="M44.9911 139.436C44.9214 139.407 45.2896 138.491 45.4994 137.304C45.7181 136.12 45.6942 135.133 45.7697 135.13C45.8335 135.121 45.9733 136.128 45.7488 137.35C45.5316 138.573 45.0475 139.467 44.9911 139.436Z" fill="#263238"/>
<path d="M118.293 177.114L125.27 185.855C125.27 185.855 136.498 181.698 137.946 183.188L121.483 197.326L110.053 184.153L118.293 177.114Z" fill="#555555"/>
<g opacity="0.6">
<path d="M119.566 189.515C119.322 189.876 119.41 190.423 119.76 190.681C120.11 190.94 120.668 190.856 120.918 190.499C121.168 190.143 121.083 189.482 120.706 189.265C120.329 189.048 119.68 189.182 119.523 189.588" fill="white"/>
</g>
<g opacity="0.6">
<path d="M121.483 197.325L120.383 195.953L136.578 182.911C136.578 182.911 137.585 182.6 137.946 183.188L121.483 197.325Z" fill="white"/>
</g>
<path d="M125.471 185.541C125.538 185.624 125.167 186.005 124.993 186.604C124.804 187.197 124.899 187.721 124.798 187.753C124.71 187.801 124.418 187.217 124.641 186.497C124.857 185.774 125.425 185.453 125.471 185.541Z" fill="#263238"/>
<path d="M127.808 184.773C127.893 184.836 127.663 185.271 127.682 185.845C127.684 186.421 127.93 186.847 127.848 186.912C127.783 186.99 127.323 186.567 127.313 185.852C127.296 185.138 127.741 184.698 127.808 184.773Z" fill="#263238"/>
<path d="M130.558 185.999C130.5 186.079 130.043 185.773 129.871 185.156C129.695 184.54 129.925 184.041 130.016 184.079C130.119 184.106 130.077 184.552 130.226 185.057C130.363 185.564 130.631 185.923 130.558 185.999Z" fill="#263238"/>
<path d="M123.657 183.726C123.686 183.829 123.222 184.035 122.794 184.455C122.358 184.868 122.135 185.324 122.034 185.291C121.938 185.273 122.027 184.679 122.539 184.19C123.046 183.698 123.643 183.63 123.657 183.726Z" fill="#263238"/>
<g opacity="0.3">
<path d="M119.672 178.846L120.918 180.402L112.763 187.277L111.584 185.924L119.672 178.846Z" fill="black"/>
</g>
<path d="M122.214 181.988C122.243 182.02 121.968 182.343 121.385 182.692C121.095 182.865 120.726 183.038 120.295 183.168C120.08 183.232 119.849 183.286 119.606 183.323C119.489 183.34 119.357 183.367 119.191 183.343C119.03 183.336 118.796 183.166 118.787 182.947C118.762 182.749 118.865 182.566 118.981 182.461C119.099 182.353 119.218 182.293 119.327 182.238C119.548 182.125 119.772 182.039 119.991 181.974C120.428 181.847 120.839 181.808 121.179 181.82C121.865 181.846 122.253 182.034 122.239 182.073C122.225 182.131 121.823 182.039 121.184 182.081C120.865 182.102 120.489 182.165 120.092 182.298C119.895 182.366 119.693 182.451 119.494 182.559C119.28 182.663 119.131 182.789 119.153 182.905C119.162 182.949 119.17 182.962 119.25 182.982C119.328 182.996 119.438 182.982 119.555 182.966C119.782 182.936 119.999 182.893 120.204 182.841C120.614 182.737 120.972 182.599 121.264 182.462C121.848 182.188 122.178 181.943 122.214 181.988Z" fill="#263238"/>
<path d="M122.209 182.194C122.191 182.231 121.784 182.079 121.308 181.584C121.072 181.338 120.83 181.002 120.645 180.585C120.553 180.376 120.477 180.148 120.425 179.904C120.382 179.659 120.313 179.34 120.594 179.036C120.751 178.89 120.996 178.901 121.136 178.971C121.286 179.035 121.379 179.122 121.48 179.2C121.675 179.366 121.833 179.558 121.957 179.755C122.206 180.149 122.313 180.564 122.337 180.909C122.381 181.612 122.128 181.996 122.098 181.974C122.037 181.957 122.184 181.561 122.077 180.94C122.025 180.634 121.904 180.274 121.673 179.941C121.558 179.775 121.417 179.615 121.249 179.478C121.073 179.325 120.886 179.24 120.836 179.314C120.753 179.383 120.727 179.635 120.779 179.832C120.822 180.052 120.884 180.261 120.959 180.454C121.111 180.84 121.311 181.164 121.506 181.414C121.898 181.917 122.242 182.144 122.209 182.194Z" fill="#263238"/>
<path d="M110.716 204.061L110.282 215.496C110.282 215.496 121.76 219.777 121.886 221.899L99.6829 221.855L99.627 204.009L110.716 204.061Z" fill="#555555"/>
<g opacity="0.6">
<path d="M103.414 214.519C102.984 214.636 102.686 215.118 102.784 215.553C102.883 215.987 103.371 216.294 103.803 216.185C104.235 216.076 104.611 215.508 104.464 215.087C104.316 214.667 103.724 214.337 103.331 214.547" fill="white"/>
</g>
<g opacity="0.6">
<path d="M99.6777 221.855L99.7425 220.056L121.007 220.771C121.007 220.771 121.994 221.202 121.881 221.899L99.6777 221.855Z" fill="white"/>
</g>
<path d="M110.643 215.383C110.639 215.491 110.097 215.539 109.563 215.887C109.02 216.22 108.744 216.689 108.644 216.646C108.544 216.625 108.708 215.977 109.362 215.568C110.012 215.153 110.667 215.283 110.643 215.383Z" fill="#263238"/>
<path d="M112.971 216.352C112.996 216.457 112.525 216.641 112.156 217.098C111.773 217.545 111.68 218.041 111.572 218.036C111.47 218.053 111.396 217.418 111.866 216.857C112.331 216.293 112.969 216.249 112.971 216.352Z" fill="#263238"/>
<path d="M114.282 219.141C114.183 219.164 114.033 218.622 114.313 218.029C114.588 217.434 115.1 217.2 115.146 217.291C115.207 217.38 114.877 217.698 114.655 218.189C114.422 218.673 114.389 219.131 114.282 219.141Z" fill="#263238"/>
<path d="M110.451 212.766C110.405 212.865 109.908 212.714 109.296 212.754C108.682 212.782 108.205 212.987 108.148 212.894C108.085 212.816 108.552 212.416 109.275 212.378C109.997 212.335 110.505 212.681 110.451 212.766Z" fill="#263238"/>
<g opacity="0.3">
<path d="M110.626 206.325L110.551 208.363L99.6391 208.243L99.6289 206.406L110.626 206.325Z" fill="black"/>
</g>
<path d="M110.495 210.458C110.496 210.502 110.068 210.569 109.383 210.45C109.042 210.39 108.641 210.278 108.22 210.09C108.01 209.996 107.795 209.883 107.582 209.75C107.48 209.684 107.359 209.618 107.247 209.488C107.127 209.375 107.06 209.087 107.198 208.911C107.312 208.741 107.513 208.667 107.674 208.664C107.838 208.659 107.97 208.692 108.091 208.722C108.338 208.783 108.57 208.866 108.782 208.961C109.206 209.155 109.55 209.4 109.806 209.636C110.32 210.114 110.495 210.519 110.458 210.54C110.409 210.576 110.159 210.236 109.636 209.841C109.375 209.645 109.041 209.441 108.645 209.28C108.447 209.201 108.233 209.132 108.007 209.082C107.772 209.02 107.572 209.018 107.512 209.122C107.49 209.162 107.487 209.178 107.536 209.247C107.587 209.31 107.682 209.373 107.782 209.438C107.979 209.567 108.176 209.678 108.369 209.775C108.756 209.968 109.126 210.1 109.443 210.189C110.079 210.368 110.497 210.399 110.495 210.458Z" fill="#263238"/>
<path d="M110.348 210.611C110.31 210.628 110.095 210.239 110.057 209.537C110.039 209.188 110.076 208.766 110.211 208.32C110.28 208.097 110.373 207.869 110.495 207.645C110.626 207.426 110.785 207.132 111.206 207.085C111.425 207.077 111.607 207.249 111.669 207.396C111.742 207.547 111.757 207.675 111.783 207.804C111.823 208.064 111.818 208.318 111.782 208.553C111.711 209.025 111.517 209.418 111.305 209.701C110.869 210.275 110.417 210.404 110.408 210.367C110.372 210.313 110.75 210.104 111.083 209.552C111.247 209.28 111.393 208.921 111.437 208.508C111.459 208.303 111.457 208.084 111.418 207.866C111.384 207.63 111.296 207.439 111.207 207.463C111.097 207.461 110.909 207.638 110.818 207.826C110.703 208.026 110.612 208.229 110.541 208.429C110.401 208.83 110.339 209.214 110.323 209.538C110.292 210.189 110.407 210.595 110.348 210.611Z" fill="#263238"/>
<path d="M99.4531 149.987L121.426 179.188L111.149 188.016L100.567 174.18L99.4531 149.987Z" fill="#263238"/>
<path d="M52.9316 151.383C52.9316 151.383 88.2818 140.614 91.5201 140.75C94.7584 140.884 100.904 152.577 100.904 152.577L90.9801 152.218C88.4337 158.465 83.7297 164.896 78.432 171.377L58.1387 170.433L52.9316 151.383Z" fill="#263238"/>
<path d="M81.828 142.875C81.848 142.942 78.2143 144.081 73.7133 145.419C69.2108 146.757 65.5454 147.787 65.5255 147.72C65.5055 147.653 69.1383 146.514 73.6407 145.175C78.1422 143.838 81.8081 142.808 81.828 142.875Z" fill="#263238"/>
<path d="M90.0435 152.03H99.9688C104.922 152.03 109.335 155.156 110.98 159.828C111.754 162.027 112.094 164.355 111.981 166.684L111.208 207.06H97.8466L97.607 194.157L95.9178 169.626L84.3514 170.115L77.7969 169.707L90.0435 152.03Z" fill="#263238"/>
<path d="M90.3372 151.828C90.3543 151.833 90.2871 152.136 90.1502 152.682C90.026 153.231 89.7816 154.009 89.4485 154.959C89.0852 155.897 88.6363 157.016 87.9745 158.175C87.3278 159.34 86.518 160.568 85.5577 161.77C83.621 164.165 81.5928 166.073 80.1597 167.476C79.4584 168.15 78.8799 168.705 78.4456 169.123C78.0385 169.51 77.8076 169.718 77.7955 169.706C77.7828 169.694 77.9902 169.462 78.3759 169.053C78.7601 168.643 79.3289 168.063 80.0336 167.348C81.4345 165.913 83.4389 163.987 85.3595 161.613C87.2771 159.233 88.5579 156.758 89.281 154.895C89.6336 153.959 89.9028 153.194 90.0553 152.654C90.2208 152.119 90.3202 151.824 90.3372 151.828Z" fill="#455A64"/>
<path d="M102.478 152.303C102.474 152.341 101.786 152.278 100.675 152.215C99.564 152.151 98.0271 152.106 96.3296 152.142C94.631 152.174 93.0956 152.275 91.9839 152.351C90.8722 152.429 90.1841 152.48 90.1797 152.443C90.1778 152.426 90.3472 152.391 90.656 152.342C90.9647 152.293 91.4127 152.235 91.9678 152.172C93.0781 152.051 94.6179 151.921 96.3242 151.889C98.0301 151.853 99.5762 151.927 100.688 152.037C101.245 152.09 101.693 152.149 102.002 152.199C102.311 152.249 102.481 152.285 102.478 152.303Z" fill="#455A64"/>
<path d="M97.7896 199.683C97.7808 199.683 97.7687 199.568 97.7536 199.346C97.7399 199.1 97.7219 198.779 97.6995 198.38C97.6606 197.512 97.607 196.305 97.5408 194.827C97.4093 191.827 97.2276 187.682 96.9408 183.11C96.6521 178.536 96.3122 174.401 96.0667 171.408C95.9469 169.933 95.849 168.729 95.7784 167.863C95.7507 167.464 95.7283 167.144 95.7108 166.898C95.6981 166.677 95.6957 166.56 95.7044 166.56C95.7132 166.559 95.7327 166.674 95.7619 166.893C95.7911 167.138 95.8296 167.457 95.8768 167.853C95.9669 168.718 96.092 169.92 96.2454 171.391C96.5371 174.381 96.9053 178.516 97.1945 183.094C97.4814 187.669 97.6347 191.817 97.7205 194.82C97.7531 196.3 97.7794 197.507 97.7989 198.377C97.8013 198.776 97.8037 199.098 97.8052 199.345C97.8032 199.566 97.7984 199.682 97.7896 199.683Z" fill="#263238"/>
<path d="M111.999 165.127C112.069 165.128 112.022 174.38 111.893 185.789C111.765 197.202 111.604 206.45 111.534 206.45C111.464 206.449 111.512 197.199 111.64 185.786C111.768 174.377 111.929 165.127 111.999 165.127Z" fill="#455A64"/>
<path d="M101.098 163.619C101.122 163.696 99.7294 164.046 98.2486 164.965C96.7584 165.869 95.8162 166.952 95.7577 166.896C95.7339 166.876 95.9384 166.579 96.3421 166.161C96.7443 165.742 97.3584 165.214 98.1161 164.748C98.8748 164.284 99.6233 163.976 100.178 163.807C100.734 163.637 101.091 163.589 101.098 163.619Z" fill="#263238"/>
<g opacity="0.3">
<path d="M77.7949 169.71C80.4893 170.208 83.4495 169.383 85.7577 167.942C88.066 166.502 89.7747 164.18 90.4321 161.591C90.7272 160.427 90.8173 159.222 91.1105 158.059C91.4041 156.895 91.9393 155.731 92.9176 155.003C94.0488 154.161 96.8318 153.624 97.6611 152.498C97.6611 152.328 94.3619 152.71 93.2546 152.771C92.0493 152.837 90.0279 153.143 90.0688 153.001C90.0688 153.001 89.2619 155.83 88.9035 156.445C86.494 160.578 81.2105 166.651 77.7949 169.71Z" fill="black"/>
</g>
<path d="M22.7051 198.292L26.4615 222.869H30.1892L28.3539 198.385L22.7051 198.292Z" fill="#263238"/>
<path d="M88.8281 198.385V222.869H92.7633L94.2281 198.292L88.8281 198.385Z" fill="#263238"/>
<path d="M22.0373 122.336C22.0373 122.336 16.7742 122.545 15.1619 124.753C12.3209 128.644 13.9172 132.019 13.7589 133.169C13.6007 134.32 22.7035 198.293 22.7035 198.293H26.4507L94.2268 198.919L97.4787 191.01L95.9146 169.626L77.7937 169.707C77.7937 169.707 70.3733 148.406 63.8855 146.982C59.4921 146.018 49.1729 146.36 42.9675 146.681C39.869 146.841 36.9214 145.339 35.236 142.734L22.0373 122.336Z" fill="#455A64"/>
<path d="M82.1074 195.779C82.1074 195.779 81.7344 195.828 81.0137 195.862C80.294 195.883 79.2309 195.916 77.8567 195.928C75.1088 195.965 71.1191 195.978 66.1501 195.974C56.2126 195.966 42.36 195.888 26.6982 195.752L26.597 195.751L26.5765 195.652C26.295 194.311 26.0058 192.935 25.7121 191.535C25.4312 190.133 25.1453 188.707 24.8575 187.27C21.4551 169.924 19.4605 154.031 18.3882 142.505C17.8491 136.741 17.5263 132.067 17.3218 128.837C17.2331 127.227 17.1645 125.974 17.1172 125.115C17.0973 124.695 17.0822 124.373 17.0715 124.147C17.0627 123.929 17.0646 123.817 17.0646 123.817C17.0646 123.817 17.0802 123.928 17.0973 124.145C17.1138 124.372 17.1372 124.693 17.1679 125.112C17.2258 125.971 17.311 127.222 17.4201 128.83C17.6548 132.058 18.005 136.728 18.5664 142.488C19.684 154.005 21.7054 169.885 25.1059 187.221C25.3932 188.657 25.6785 190.082 25.9595 191.483C26.2527 192.882 26.541 194.259 26.8219 195.599L26.7002 195.499C42.357 195.621 56.2063 195.728 66.1501 195.805C71.1123 195.818 75.0995 195.829 77.8552 195.836C79.2226 195.827 80.2828 195.819 81.0113 195.814C81.3711 195.814 81.6424 195.788 81.8269 195.784C82.012 195.777 82.1074 195.779 82.1074 195.779Z" fill="#263238"/>
<path d="M81.3904 198.799C81.3816 198.798 81.3918 198.693 81.4181 198.495C81.4512 198.271 81.4941 197.985 81.5462 197.632C81.6071 197.258 81.6801 196.8 81.739 196.266C81.7999 195.732 81.8949 195.126 81.9426 194.451C82.0039 193.777 82.0726 193.039 82.1013 192.244C82.1549 191.45 82.1573 190.6 82.169 189.706C82.1588 187.918 82.0638 185.952 81.8301 183.902C81.5842 181.852 81.2224 179.917 80.8274 178.173C80.4184 176.431 79.9762 174.88 79.5565 173.594C79.3627 172.945 79.144 172.372 78.9711 171.863C78.7997 171.353 78.6346 170.92 78.4988 170.567C78.3751 170.232 78.2748 169.96 78.1964 169.748C78.1297 169.56 78.0985 169.459 78.1068 169.456C78.1151 169.452 78.1618 169.546 78.2436 169.729C78.3337 169.937 78.4486 170.202 78.5908 170.531C78.7413 170.879 78.9205 171.308 79.1046 171.815C79.2906 172.321 79.5214 172.89 79.7274 173.538C80.1705 174.822 80.6322 176.374 81.0553 178.12C81.4649 179.869 81.835 181.813 82.0823 183.873C82.3176 185.934 82.4057 187.91 82.4033 189.707C82.3848 190.606 82.375 191.459 82.3117 192.256C82.2742 193.054 82.1944 193.794 82.1218 194.47C82.0629 195.147 81.9548 195.753 81.8803 196.286C81.8082 196.821 81.7205 197.277 81.6446 197.649C81.573 197.999 81.5145 198.283 81.4693 198.505C81.4259 198.7 81.3991 198.801 81.3904 198.799Z" fill="#263238"/>
<path d="M31.7268 152.968C31.7214 152.961 31.8159 152.882 32.0009 152.737C32.2079 152.58 32.4796 152.372 32.819 152.113C33.0002 151.977 33.1989 151.828 33.4151 151.666C33.6425 151.518 33.8991 151.37 34.1704 151.205C34.7182 150.884 35.3215 150.477 36.0539 150.152C36.4148 149.976 36.7917 149.793 37.1837 149.603C37.5752 149.409 38.0086 149.267 38.443 149.087C38.8832 148.922 39.3283 148.72 39.8065 148.57C40.2847 148.419 40.7765 148.264 41.2805 148.104C43.3107 147.517 45.5853 146.993 48.0094 146.705C50.4301 146.399 52.7563 146.255 54.8702 146.289C55.9279 146.27 56.9306 146.356 57.8694 146.39C58.8054 146.477 59.6795 146.537 60.4708 146.649C62.0563 146.855 63.3254 147.118 64.1922 147.332C64.6036 147.446 64.9328 147.538 65.1836 147.607C65.4096 147.672 65.5264 147.711 65.524 147.719C65.5216 147.728 65.3998 147.706 65.17 147.656C64.9173 147.599 64.5847 147.523 64.1698 147.429C63.2991 147.245 62.0305 147.01 60.4489 146.828C59.6595 146.727 58.7878 146.677 57.8558 146.6C56.9203 146.575 55.9216 146.498 54.8688 146.523C52.7641 146.501 50.4496 146.652 48.041 146.957C45.6291 147.244 43.3672 147.758 41.3458 148.329C40.8437 148.484 40.3538 148.635 39.8776 148.781C39.4008 148.926 38.9582 149.123 38.5189 149.283C38.0856 149.457 37.6531 149.594 37.2621 149.782C36.8701 149.966 36.4932 150.143 36.1328 150.313C35.3995 150.626 34.7951 151.019 34.2429 151.326C33.9697 151.485 33.7112 151.626 33.4808 151.767C33.2617 151.922 33.0596 152.064 32.8755 152.194C32.5254 152.436 32.2449 152.63 32.0321 152.778C31.8373 152.909 31.7321 152.975 31.7268 152.968Z" fill="#263238"/>
<path d="M72.0051 156.431C72.0095 156.432 71.9934 156.486 71.9589 156.591C71.9223 156.694 71.8741 156.852 71.7943 157.052C71.6165 157.443 71.3307 158.022 70.7945 158.648C70.2618 159.272 69.4817 159.933 68.4522 160.487C67.9331 160.755 67.3575 161 66.7264 161.201C66.0924 161.392 65.4063 161.542 64.6749 161.621C63.211 161.778 61.5919 161.659 59.8997 161.351C58.2041 161.047 56.4325 160.558 54.5611 160.108C52.6926 159.669 50.6946 159.275 48.6094 159.322C47.5698 159.34 46.514 159.487 45.4904 159.8C44.4659 160.11 43.4914 160.62 42.6018 161.265C40.8122 162.563 39.4828 164.321 38.372 166.082C37.2593 167.852 36.3769 169.677 35.4371 171.366C34.505 173.057 33.5228 174.627 32.3896 175.933C31.2687 177.242 29.9836 178.277 28.6425 178.892C27.3038 179.503 25.9734 179.785 24.8062 179.797C23.636 179.812 22.6348 179.577 21.8829 179.25C21.4987 179.099 21.1948 178.893 20.9236 178.732C20.6728 178.54 20.46 178.377 20.3013 178.231C20.1605 178.083 20.049 177.965 19.9638 177.876C19.8893 177.794 19.8523 177.752 19.8557 177.749C19.8591 177.746 19.9019 177.783 19.9828 177.858C20.0719 177.943 20.1883 178.054 20.3353 178.194C20.498 178.332 20.7142 178.486 20.9655 178.669C21.2377 178.822 21.5406 179.017 21.9214 179.159C22.6669 179.467 23.653 179.684 24.8032 179.655C25.9505 179.631 27.2566 179.341 28.566 178.73C29.8764 178.116 31.1284 177.095 32.2304 175.795C33.3421 174.501 34.3097 172.942 35.2325 171.254C36.1631 169.569 37.0421 167.738 38.1611 165.95C39.2787 164.174 40.6223 162.389 42.4528 161.06C43.3624 160.4 44.3641 159.876 45.4159 159.56C46.4663 159.239 47.5459 159.09 48.6041 159.074C50.7258 159.03 52.7403 159.435 54.6156 159.882C56.4919 160.339 58.2562 160.835 59.9377 161.145C61.6158 161.46 63.2149 161.587 64.6568 161.443C65.3766 161.371 66.0535 161.23 66.6797 161.048C67.303 160.856 67.8727 160.62 68.387 160.362C69.4067 159.829 70.1839 159.19 70.7205 158.584C71.7894 157.348 71.9589 156.402 72.0051 156.431Z" fill="white"/>
<path d="M96.7744 187.582C96.7744 187.582 96.7023 187.604 96.5606 187.633C96.4077 187.664 96.1993 187.706 95.932 187.759C95.6529 187.803 95.3315 187.948 94.9386 188.067C94.7389 188.12 94.548 188.24 94.3308 188.333C94.1185 188.437 93.8819 188.528 93.6583 188.676C92.7185 189.188 91.6793 189.997 90.5554 191.021C89.4256 192.04 88.2185 193.293 86.7366 194.526C85.9921 195.135 85.1783 195.747 84.2346 196.226C83.7774 196.494 83.2626 196.668 82.7518 196.87C82.4859 196.941 82.2176 197.013 81.9469 197.086C81.6781 197.168 81.3922 197.18 81.1117 197.23C79.9805 197.377 78.786 197.313 77.6012 197.052C76.413 196.797 75.2462 196.328 74.1087 195.753C71.8326 194.59 69.6905 192.95 67.6442 191.092C65.6014 189.239 63.5119 187.274 61.0746 185.67C59.8572 184.873 58.5755 184.196 57.2325 183.754C55.8928 183.308 54.4953 183.107 53.1322 183.186C51.7683 183.265 50.4554 183.62 49.2375 184.119C48.0167 184.619 46.8835 185.254 45.8059 185.916C43.653 187.246 41.6944 188.668 39.7023 189.753C37.7038 190.823 35.7106 191.567 33.8383 192.016C30.0857 192.94 26.9127 192.819 24.7895 192.561C22.6556 192.277 21.5215 191.9 21.5215 191.9C21.5215 191.9 21.596 191.908 21.7377 191.937C21.8901 191.97 22.0985 192.015 22.3659 192.072C22.9176 192.189 23.7372 192.339 24.8012 192.463C26.9195 192.69 30.075 192.782 33.7949 191.842C35.6517 191.386 37.6249 190.637 39.6015 189.569C41.5732 188.485 43.523 187.06 45.6832 185.717C46.7652 185.049 47.9071 184.406 49.1455 183.896C50.3804 183.386 51.721 183.021 53.1176 182.938C54.5133 182.856 55.9454 183.061 57.3114 183.515C58.6812 183.965 59.9824 184.652 61.2124 185.458C63.6755 187.08 65.7709 189.054 67.8108 190.908C69.8444 192.761 71.969 194.39 74.2144 195.545C75.3363 196.116 76.4846 196.581 77.6494 196.835C78.8113 197.095 79.9786 197.161 81.0844 197.022C81.3586 196.973 81.6381 196.964 81.9011 196.884C82.166 196.815 82.429 196.745 82.689 196.677C83.1896 196.481 83.6936 196.314 84.1445 196.053C85.0732 195.587 85.881 194.987 86.6232 194.388C88.1011 193.174 89.3175 191.929 90.4604 190.916C91.597 189.898 92.6542 189.094 93.6101 188.591C93.8375 188.445 94.0786 188.356 94.2943 188.255C94.5154 188.164 94.7092 188.048 94.9123 187.998C95.3116 187.885 95.6378 187.747 95.9203 187.711C96.191 187.668 96.4024 187.634 96.5567 187.609C96.7004 187.587 96.7744 187.582 96.7744 187.582Z" fill="white"/>
<path d="M29.0037 134.391C29.0179 134.395 28.9818 134.616 28.8713 135.007C28.7617 135.397 28.5577 135.952 28.2207 136.597C27.5614 137.881 26.2417 139.528 24.2495 140.57C22.2549 141.61 20.1498 141.753 18.7191 141.56C17.9969 141.468 17.4252 141.319 17.042 141.185C16.6582 141.053 16.4562 140.956 16.461 140.942C16.4761 140.89 17.3108 141.246 18.7376 141.382C20.1478 141.525 22.1936 141.356 24.1317 140.345C26.0674 139.332 27.3753 137.75 28.0629 136.51C28.7671 135.262 28.9521 134.374 29.0037 134.391Z" fill="white"/>
<path d="M139.832 88.907H70.6369C69.2336 88.907 68.0957 87.7694 68.0957 86.3658V67.6352C68.0957 66.2319 69.2333 65.094 70.6369 65.094H139.832C141.235 65.094 142.373 66.2316 142.373 67.6352V86.3658C142.373 87.7694 141.236 88.907 139.832 88.907Z" fill="white"/>
<path d="M139.833 88.9071C139.832 88.8957 140.003 88.9111 140.323 88.8489C140.637 88.7826 141.123 88.6245 141.582 88.1802C141.807 87.9591 142.027 87.6696 142.167 87.3043C142.318 86.9398 142.364 86.5126 142.346 86.0445C142.343 85.1097 142.34 84.0322 142.337 82.8192C142.333 80.3915 142.327 77.4228 142.321 73.9764C142.319 72.2529 142.316 70.4096 142.314 68.4551C142.297 67.9669 142.361 67.464 142.225 66.9926C142.102 66.5182 141.822 66.0805 141.441 65.7529C141.059 65.4249 140.57 65.216 140.055 65.1709C139.538 65.149 138.993 65.1658 138.454 65.1614C121.096 65.1687 97.1218 65.1786 70.6428 65.1892C70.2435 65.1911 69.8478 65.2899 69.4957 65.4733C69.1443 65.6588 68.8438 65.9344 68.6169 66.2583C68.3951 66.5867 68.2557 66.9677 68.2088 67.3593C68.1755 67.7469 68.1997 68.1726 68.192 68.5763C68.192 70.2113 68.1916 71.8352 68.1916 73.4475C68.1913 76.6721 68.1905 79.8494 68.1901 82.9715C68.1898 83.7518 68.1898 84.5292 68.1898 85.3026C68.192 85.6876 68.185 86.0785 68.1942 86.4566C68.2077 86.8274 68.3058 87.1931 68.4782 87.5195C68.8277 88.1696 69.4767 88.652 70.1999 88.7739C70.5557 88.8375 70.9385 88.8083 71.3162 88.8156C71.6936 88.8156 72.0699 88.8159 72.4454 88.8159C75.4489 88.817 78.389 88.8181 81.2578 88.8192C92.7323 88.8269 103.065 88.8339 111.744 88.8397C120.419 88.8525 127.441 88.8628 132.297 88.8701C134.721 88.8778 136.604 88.884 137.885 88.888C138.521 88.8921 139.007 88.8954 139.338 88.8976C139.665 88.9005 139.833 88.9071 139.833 88.9071C139.833 88.9071 139.665 88.9137 139.338 88.917C139.007 88.9192 138.521 88.9224 137.885 88.9265C136.604 88.9305 134.721 88.9367 132.297 88.9444C127.441 88.9517 120.42 88.962 111.744 88.9748C103.065 88.9806 92.7323 88.9876 81.2578 88.9953C78.389 88.9964 75.4489 88.9975 72.4454 88.9986C72.0699 88.9986 71.6936 88.9989 71.3162 88.9989C70.9407 88.9913 70.5612 89.0235 70.1673 88.955C69.3892 88.8236 68.6912 88.3061 68.3153 87.6074C68.1294 87.2564 68.0236 86.8625 68.009 86.4643C67.9991 86.0727 68.006 85.6917 68.0039 85.3037C68.0035 84.5303 68.0035 83.7533 68.0035 82.9726C68.0031 79.8505 68.0024 76.6732 68.002 73.4486C68.002 71.8363 68.0017 70.2124 68.0017 68.5774C68.0097 68.1642 67.9837 67.7692 68.0196 67.3392C68.0697 66.9168 68.2205 66.5058 68.4595 66.1522C68.7033 65.8027 69.0276 65.5062 69.4064 65.306C69.786 65.108 70.2138 65.0015 70.6428 65C97.1218 65.011 121.096 65.0209 138.454 65.0278C138.999 65.0337 139.527 65.0172 140.067 65.0414C140.609 65.0897 141.124 65.3111 141.524 65.657C141.924 66.0021 142.217 66.4629 142.345 66.9618C142.418 67.2089 142.435 67.4691 142.436 67.7184C142.435 67.9662 142.435 68.2121 142.435 68.4566C142.432 70.4111 142.43 72.254 142.428 73.9779C142.421 77.4242 142.416 80.3929 142.412 82.8207C142.408 84.0336 142.405 85.1112 142.403 86.046C142.419 86.5104 142.368 86.9566 142.212 87.3237C142.065 87.6948 141.84 87.9873 141.609 88.2095C141.138 88.6556 140.645 88.8093 140.328 88.8694C140.165 88.8954 140.042 88.9085 139.958 88.9071C139.875 88.9082 139.833 88.9071 139.833 88.9071Z" fill="#263238"/>
<path d="M137.025 69.9819C137.002 69.9819 136.977 69.9724 136.959 69.9537C136.924 69.9171 136.925 69.8593 136.962 69.8242L138.792 68.071C138.829 68.0366 138.887 68.0369 138.922 68.0739C138.957 68.1105 138.955 68.1683 138.919 68.2035L137.088 69.9563C137.071 69.9735 137.048 69.9819 137.025 69.9819Z" fill="#263238"/>
<path d="M138.847 69.9896C138.824 69.9896 138.801 69.9812 138.783 69.9636L136.971 68.1954C136.935 68.1603 136.934 68.1024 136.97 68.0658C137.005 68.0303 137.063 68.0285 137.099 68.0644L138.911 69.8322C138.947 69.8673 138.948 69.9252 138.912 69.9618C138.894 69.9804 138.871 69.9896 138.847 69.9896Z" fill="#263238"/>
<path d="M84.1033 81.6267L83.3563 80.569C82.9061 79.9314 82.6641 79.1701 82.6638 78.3894L82.6631 76.0125C82.6623 74.0712 81.2356 72.4633 79.3737 72.1796L79.3733 71.0454C79.3733 70.757 79.1395 70.5234 78.8511 70.5234C78.5626 70.5234 78.3291 70.7573 78.3291 71.0457L78.3295 72.1628C76.4013 72.3883 74.9055 74.0269 74.9058 76.0154L74.9066 78.4779C74.9069 79.3245 74.6229 80.1466 74.1006 80.8127L73.459 81.6308L84.1033 81.6267Z" fill="#FF725E"/>
<path d="M78.2209 83.3557C78.7941 83.5958 79.5016 83.4742 79.9617 83.0563C80.163 82.8736 80.3123 82.6383 80.4013 82.3821L77.3008 82.3601C77.453 82.799 77.7909 83.1756 78.2209 83.3557Z" fill="#FF725E"/>
<path d="M125.892 73.1389C125.892 73.1916 117.572 73.234 107.31 73.234C97.0453 73.234 88.7266 73.1912 88.7266 73.1389C88.7266 73.0865 97.0453 73.0437 107.31 73.0437C117.572 73.0433 125.892 73.0862 125.892 73.1389Z" fill="#263238"/>
<path d="M134.65 77.6364C134.65 77.6891 124.369 77.7316 111.689 77.7316C99.0052 77.7316 88.7266 77.6888 88.7266 77.6364C88.7266 77.5837 99.0056 77.5413 111.689 77.5413C124.369 77.5413 134.65 77.5837 134.65 77.6364Z" fill="#E0E0E0"/>
<path d="M134.65 80.3305C134.65 80.3832 124.369 80.4257 111.689 80.4257C99.0052 80.4257 88.7266 80.3829 88.7266 80.3305C88.7266 80.2778 99.0056 80.2354 111.689 80.2354C124.369 80.2354 134.65 80.2782 134.65 80.3305Z" fill="#E0E0E0"/>
</svg>
