<svg width="66" height="200" viewBox="0 0 66 200" fill="none" xmlns="http://www.w3.org/2000/svg">
<path d="M17.7802 175.932L9.07032 187.372L4.80377 198.386C4.7311 198.574 4.6205 198.746 4.47885 198.889C4.3372 199.033 4.16754 199.146 3.98041 199.221C3.79328 199.296 3.59269 199.332 3.39111 199.326C3.18953 199.32 2.99127 199.273 2.80867 199.188C2.59591 199.09 2.40987 198.943 2.26646 198.758C2.12305 198.574 2.02655 198.357 1.98521 198.127C1.43255 195.137 -0.490712 184.139 0.194587 183.343C0.984892 182.414 8.56187 170.681 8.56187 170.681L17.7802 175.932Z" fill="#0B622F"/>
<g opacity="0.6">
<path d="M2.83081 199.176L0.780435 182.547L0.421205 183.039C0.112765 183.464 -0.0341768 183.985 0.0067094 184.509C0.111715 185.907 0.498578 189.776 1.96313 198.088C2.00296 198.329 2.10276 198.557 2.25337 198.75C2.40399 198.943 2.60062 199.096 2.82528 199.193L2.83081 199.176Z" fill="white"/>
</g>
<g opacity="0.6">
<path d="M5.88705 180.524C5.9612 180.736 5.95223 180.968 5.86194 181.173C5.77165 181.378 5.60679 181.541 5.40071 181.629C5.1918 181.713 4.95821 181.711 4.75106 181.623C4.54391 181.535 4.38007 181.368 4.29539 181.16C4.22674 180.939 4.24173 180.7 4.33749 180.489C4.43326 180.278 4.60315 180.11 4.81489 180.016C5.03754 179.959 5.27334 179.992 5.47241 180.107C5.67148 180.221 5.8182 180.408 5.88153 180.629" fill="white"/>
</g>
<path d="M3.85317 192.174C4.39121 192.019 4.95301 191.963 5.51115 192.008C6.06015 192.15 6.5776 192.394 7.03649 192.727C7.06413 192.727 6.98675 192.506 6.74358 192.268C6.4117 191.976 6.00336 191.784 5.56642 191.716C5.12825 191.636 4.67643 191.688 4.26766 191.865C3.97475 191.986 3.83106 192.147 3.85317 192.174Z" fill="#263238"/>
<path d="M3.54382 194.33C4.0122 194.387 4.47711 194.47 4.93653 194.578C5.66604 194.827 6.10264 195.313 6.17449 195.253C6.24634 195.192 5.87053 194.567 5.06917 194.28C4.82952 194.165 4.56588 194.11 4.30043 194.119C4.03498 194.127 3.7755 194.2 3.54382 194.33Z" fill="#263238"/>
<path d="M3.75928 189.063C4.48833 189.086 5.21451 189.165 5.93123 189.301C6.62836 189.53 7.30806 189.809 7.96502 190.135C7.47968 189.532 6.79285 189.124 6.03071 188.986C5.28858 188.74 4.48295 188.767 3.75928 189.063Z" fill="#263238"/>
<path d="M6.11353 185.371C6.11353 185.46 6.92594 185.659 7.77151 186.233C8.61708 186.808 9.1421 187.493 9.21948 187.438C8.98405 186.819 8.5405 186.301 7.96494 185.974C7.43918 185.559 6.78269 185.345 6.11353 185.371Z" fill="#263238"/>
<path d="M8.57861 181.95C9.2039 182.155 9.79875 182.443 10.3471 182.807C10.8347 183.247 11.2587 183.753 11.6072 184.31C11.6404 184.31 11.6072 184.061 11.4635 183.713C11.2511 183.261 10.9349 182.865 10.5406 182.558C10.1456 182.249 9.68372 182.037 9.19207 181.939C8.81626 181.878 8.57861 181.911 8.57861 181.95Z" fill="#263238"/>
<path d="M10.7948 182.144C10.7948 182.144 10.9495 182.016 11.1319 181.712C11.3829 181.281 11.5463 180.804 11.6127 180.309C11.695 179.951 11.6562 179.576 11.5022 179.242C11.4411 179.138 11.3497 179.054 11.2402 179.003C11.1306 178.952 11.0081 178.935 10.8887 178.955C10.6628 179.014 10.4662 179.153 10.3361 179.347C10.0808 179.757 9.97594 180.243 10.0395 180.722C10.103 181.201 10.3309 181.643 10.6842 181.972C11.0407 182.291 11.4837 182.496 11.9571 182.562C12.4304 182.628 12.9127 182.551 13.3425 182.342C13.4522 182.288 13.5487 182.211 13.6251 182.115C13.7015 182.02 13.756 181.909 13.7847 181.79C13.8022 181.669 13.7812 181.546 13.7246 181.438C13.668 181.33 13.5788 181.242 13.4696 181.187C13.1394 181.044 12.7771 180.991 12.4196 181.033C11.9211 181.052 11.4304 181.163 10.9716 181.359C10.6456 181.497 10.4908 181.613 10.5019 181.63C11.1104 181.427 11.7452 181.313 12.3864 181.292C12.6991 181.268 13.0129 181.323 13.2983 181.453C13.3586 181.481 13.4081 181.528 13.439 181.587C13.4699 181.646 13.4807 181.713 13.4696 181.779C13.4451 181.854 13.4048 181.923 13.3514 181.981C13.2981 182.039 13.2328 182.085 13.1602 182.116C12.7844 182.285 12.3679 182.343 11.9603 182.282C11.5527 182.221 11.1712 182.045 10.8611 181.773C10.5667 181.495 10.3746 181.125 10.3154 180.724C10.2563 180.323 10.3336 179.914 10.535 179.563C10.6228 179.423 10.7584 179.321 10.9164 179.275C10.9819 179.259 11.0509 179.265 11.1127 179.292C11.1746 179.319 11.226 179.366 11.259 179.424C11.3899 179.706 11.4286 180.021 11.3695 180.325C11.283 180.96 11.0886 181.575 10.7948 182.144Z" fill="#263238"/>
<path d="M26.8273 182.027L27.7116 193.694C27.7116 193.694 16.1057 197.662 16.1057 199.834L38.8145 199.784L38.1845 181.546L26.8273 182.027Z" fill="#0B622F"/>
<g opacity="0.6">
<path d="M34.6863 192.434C34.9072 192.493 35.0989 192.63 35.2252 192.821C35.3515 193.011 35.4036 193.241 35.3716 193.468C35.3211 193.69 35.1879 193.884 34.9989 194.012C34.81 194.139 34.5796 194.19 34.3547 194.153C34.1187 194.091 33.9142 193.944 33.7813 193.74C33.6484 193.535 33.5967 193.288 33.6363 193.048C33.71 192.82 33.8697 192.63 34.0814 192.519C34.293 192.407 34.5398 192.383 34.7692 192.451" fill="white"/>
</g>
<g opacity="0.6">
<path d="M38.7868 199.784L38.7205 197.944L16.8075 198.757C16.5772 198.879 16.3808 199.057 16.2361 199.274C16.0914 199.491 16.0029 199.74 15.9785 200L38.7868 199.784Z" fill="white"/>
</g>
<path d="M27.3357 193.595C27.3357 193.705 27.8884 193.733 28.441 194.07C28.9937 194.407 29.3087 194.855 29.4082 194.811C29.5077 194.766 29.3197 194.125 28.6344 193.733C27.9491 193.34 27.3081 193.495 27.3357 193.595Z" fill="#263238"/>
<path d="M24.9982 194.672C24.9982 194.783 25.4624 194.949 25.8603 195.407C26.2582 195.866 26.3798 196.352 26.4904 196.341C26.6009 196.33 26.6506 195.7 26.1477 195.148C25.6448 194.595 24.9982 194.556 24.9982 194.672Z" fill="#263238"/>
<path d="M23.7601 197.574C23.8596 197.574 23.9922 197.021 23.6827 196.468C23.3732 195.916 22.8482 195.65 22.804 195.744C22.7598 195.838 23.0969 196.153 23.3566 196.645C23.6164 197.137 23.6496 197.568 23.7601 197.574Z" fill="#263238"/>
<path d="M27.4298 190.914C27.4795 191.014 27.9825 190.837 28.6125 190.859C29.2425 190.881 29.7178 191.052 29.7897 190.953C29.8615 190.854 29.3586 190.483 28.618 190.472C27.8775 190.461 27.3745 190.826 27.4298 190.914Z" fill="#263238"/>
<g opacity="0.3">
<path d="M27.0042 184.338L27.1589 186.416L38.3061 185.874L38.2453 183.995L27.0042 184.338Z" fill="black"/>
</g>
<path d="M27.3082 188.554C27.683 188.645 28.0757 188.627 28.4412 188.505C28.8494 188.416 29.2449 188.277 29.6183 188.09C29.8395 187.983 30.052 187.86 30.2539 187.72C30.3808 187.645 30.4947 187.55 30.591 187.438C30.6601 187.356 30.7002 187.254 30.7052 187.147C30.7102 187.04 30.6798 186.934 30.6187 186.847C30.5595 186.772 30.4837 186.712 30.3974 186.672C30.311 186.632 30.2165 186.612 30.1213 186.614C29.9762 186.617 29.8325 186.644 29.6957 186.692C29.4554 186.759 29.2222 186.85 28.9994 186.963C28.6221 187.147 28.2784 187.394 27.9825 187.692C27.474 188.195 27.3082 188.621 27.3469 188.637C27.3856 188.654 27.6398 188.317 28.1649 187.891C28.4659 187.645 28.7986 187.441 29.1541 187.283C29.3606 187.189 29.5752 187.113 29.7952 187.057C30.0328 186.979 30.2373 186.974 30.3036 187.057C30.37 187.14 30.3036 187.112 30.3036 187.184C30.2312 187.264 30.1474 187.333 30.055 187.388C29.8673 187.522 29.6717 187.643 29.4691 187.753C29.118 187.946 28.7476 188.102 28.3638 188.217C28.0045 188.305 27.6518 188.417 27.3082 188.554Z" fill="#263238"/>
<path d="M27.4464 188.709C27.6461 188.377 27.7351 187.99 27.7006 187.604C27.7061 187.182 27.6368 186.763 27.4961 186.366C27.4141 186.131 27.3085 185.905 27.1811 185.691C27.1153 185.542 27.0119 185.413 26.8811 185.316C26.7503 185.22 26.5966 185.158 26.435 185.139C26.3342 185.147 26.2376 185.183 26.1557 185.242C26.0738 185.302 26.0099 185.383 25.9708 185.476C25.9194 185.611 25.886 185.752 25.8713 185.896C25.843 186.15 25.8542 186.407 25.9044 186.658C25.9887 187.084 26.1788 187.481 26.4571 187.814C26.9213 188.366 27.3911 188.499 27.3966 188.46C27.4022 188.421 27.0374 188.206 26.6782 187.653C26.4671 187.338 26.3293 186.979 26.2747 186.603C26.2419 186.385 26.2419 186.164 26.2747 185.946C26.2747 185.702 26.3853 185.503 26.4737 185.526C26.5621 185.548 26.7887 185.691 26.8882 185.879C27.0081 186.072 27.1098 186.276 27.1921 186.487C27.3335 186.841 27.4229 187.213 27.4574 187.592C27.4906 188.272 27.3856 188.692 27.4464 188.709Z" fill="#263238"/>
<path d="M19.4824 82.2058C19.4824 82.2058 14.1382 92.4522 14.1382 100.748C14.1382 102.5 24.9814 189.494 24.9814 189.494L40.3288 188.206L32.8844 107.827L35.294 91.4905L19.4824 82.2058Z" fill="#263238"/>
<path d="M53.6535 91.2858C53.6535 91.2858 50.0667 121.235 48.3866 132.78C46.6236 144.861 43.1584 147.149 43.1584 147.149L12.5797 185.835L2.53235 176.91L28.8611 137.345C28.8611 137.345 34.443 90.1142 34.2164 91.2858C33.9898 92.4575 53.6535 91.2858 53.6535 91.2858Z" fill="#263238"/>
<path d="M42.6171 147.646C42.5454 147.778 42.4602 147.902 42.3628 148.017L41.5725 149.033L38.6545 152.786L29.1487 165.232C25.4404 170.106 22.0581 174.495 19.5601 177.634C18.311 179.203 17.2886 180.463 16.5702 181.32L15.7301 182.309C15.6392 182.427 15.5374 182.536 15.4261 182.635C15.4988 182.503 15.5859 182.378 15.6859 182.265L16.4762 181.248L19.3887 177.496L28.9 165.044C32.6028 160.175 35.9851 155.787 38.4832 152.648C39.7322 151.078 40.7546 149.818 41.473 148.962L42.3131 147.972C42.404 147.854 42.5058 147.745 42.6171 147.646Z" fill="#455A64"/>
<path d="M37.035 101.709C37.0792 101.786 35.6754 102.66 34.1224 103.969C32.5695 105.279 31.4641 106.506 31.3978 106.445C31.571 106.124 31.7929 105.831 32.0555 105.578C32.6394 104.924 33.2692 104.312 33.9401 103.748C34.6112 103.186 35.3203 102.671 36.0623 102.206C36.361 101.995 36.6886 101.827 37.035 101.709Z" fill="#455A64"/>
<path d="M31.5192 106.258C30.897 106.186 30.2975 105.981 29.7623 105.655C29.227 105.33 28.7687 104.893 28.4188 104.373C28.4796 104.318 29.0599 104.898 29.911 105.412C30.7621 105.926 31.5414 106.175 31.5192 106.258Z" fill="#455A64"/>
<path d="M52.4431 99.2553C52.4431 99.3382 50.9288 99.1503 49.0663 99.0509C47.2039 98.9514 45.6951 98.9569 45.6896 98.874C46.8108 98.687 47.9519 98.6499 49.0829 98.7635C50.22 98.7758 51.3502 98.9412 52.4431 99.2553Z" fill="#455A64"/>
<path d="M32.2159 108.822C32.2232 108.866 32.2232 108.911 32.2159 108.954L32.1827 109.358C32.1441 109.728 32.0943 110.242 32.028 110.883C31.8843 112.237 31.6743 114.149 31.4145 116.509C30.8619 121.273 30.1103 127.811 29.2813 135.04C29.1873 135.836 29.0934 136.621 29.0049 137.361V137.394V137.422L19.5323 151.642L16.653 155.87L15.8737 157.003C15.7853 157.119 15.719 157.218 15.6637 157.296C15.6395 157.33 15.6117 157.361 15.5808 157.39C15.5972 157.351 15.6176 157.314 15.6416 157.279L15.824 156.975L16.5645 155.809L19.3278 151.531L28.7231 137.262V137.323C28.806 136.582 28.8999 135.797 28.9939 135.001C29.8616 127.778 30.6519 121.24 31.2045 116.476C31.4974 114.127 31.7572 112.215 31.9064 110.867C31.9948 110.226 32.0611 109.717 32.1164 109.341C32.1164 109.187 32.1606 109.054 32.1772 108.949C32.1825 108.905 32.1956 108.862 32.2159 108.822Z" fill="#455A64"/>
<path d="M25.374 34.1353C25.374 34.1353 20.0076 37.3573 18.3994 40.2145C16.7911 43.0718 8.19175 62.3707 8.55097 65.7862C8.9102 69.2016 16.9625 72.9708 16.9625 72.9708L25.374 62.0613L20.3669 58.6624L25.374 52.4007V34.1353Z" fill="#0B9346"/>
<path d="M34.0395 31.3551L25.3738 34.1184C25.3738 34.1184 21.4388 71.5005 19.4713 76.8668C17.5039 82.2332 15.1495 89.7438 15.1495 89.7438C15.1495 89.7438 18.0565 98.9622 30.2206 100.394C42.3847 101.825 54.4603 94.3862 54.4603 94.3862C54.4603 94.3862 58.4284 77.0768 60.5727 61.337C62.717 45.5972 61.1254 36.2241 61.1254 36.2241L47.4857 30.9683L34.0395 31.3551Z" fill="#0B9346"/>
<path d="M16.9624 72.9709C16.9624 72.9709 36.4492 76.8395 43.5233 68.4777L41.4729 61.365C41.4729 61.365 28.6014 64.4102 24.5781 63.1003L16.9624 72.9709Z" fill="#0B9346"/>
<path d="M43.1971 60.3038C43.1971 60.3038 46.8281 53.1192 47.2205 53.0528C47.6129 52.9865 53.3329 50.9583 53.3329 50.9583C53.5042 51.4238 53.5042 51.9351 53.3329 52.4007L55.3833 52.6605C55.3833 52.6605 55.0793 53.926 54.3775 54.1029L55.1236 54.755C54.7526 55.2496 54.2746 55.6539 53.7253 55.9377C53.5146 56.0412 53.283 56.0949 53.0483 56.0949C52.8136 56.0949 52.582 56.0412 52.3713 55.9377C52.3713 55.9377 52.6311 56.413 51.4539 57.1536C50.2767 57.8942 47.9003 61.3372 47.9003 61.3372L43.1971 60.3038Z" fill="#FFBF9D"/>
<path d="M53.1507 52.4229C51.9435 53.006 50.6925 53.4938 49.4092 53.8819C48.8897 54.0698 48.3646 54.2079 47.9557 54.4069C47.5943 54.5825 47.2967 54.8665 47.1046 55.2193C46.7619 55.8328 46.6348 56.2804 46.5851 56.2638C46.6065 55.8611 46.7179 55.4683 46.9112 55.1143C47.1038 54.7022 47.426 54.3645 47.8286 54.1527C48.3076 53.936 48.8006 53.7513 49.3042 53.6C50.5539 53.1087 51.84 52.7151 53.1507 52.4229Z" fill="#8B5D54"/>
<path d="M54.4825 54.1028C54.1652 54.293 53.8144 54.4206 53.449 54.4786C52.7913 54.6554 51.8684 54.8047 50.8902 55.0699C50.0537 55.2841 49.2671 55.6596 48.5745 56.1753C48.055 56.5787 47.8229 56.9324 47.7787 56.9048C47.9039 56.549 48.1306 56.2377 48.4308 56.0095C49.115 55.4197 49.9295 55.0011 50.8073 54.7881C51.8186 54.5173 52.7416 54.4012 53.4048 54.2796C53.7579 54.188 54.1186 54.1288 54.4825 54.1028Z" fill="#8B5D54"/>
<path d="M49.2434 57.1205C49.5815 56.6643 50.0649 56.3368 50.614 56.1921C51.1316 55.9479 51.7191 55.895 52.272 56.0428C52.272 56.1313 51.5535 56.1865 50.7301 56.485C49.9066 56.7834 49.2987 57.1924 49.2434 57.1205Z" fill="#EB996E"/>
<path d="M57.9699 35.9977C57.4559 36.147 53.9907 40.7562 52.2057 46.8354C50.4206 52.9147 48.4476 59.1764 48.4476 59.1764L47.8949 61.3373L25.7885 55.9378L20.8643 62.531C20.8643 62.531 35.1782 74.977 45.734 75.4412C48.3192 75.2147 50.8155 74.3859 53.0228 73.0212C55.2301 71.6565 57.0872 69.7938 58.4452 67.5824C63.0986 59.8948 65.9614 50.4111 65.9614 50.4111C65.9614 50.4111 65.6574 33.7318 57.9699 35.9977Z" fill="#0B9346"/>
<path d="M24.7328 50.7259C24.7922 49.7011 24.9533 48.6848 25.2136 47.6918C25.3742 46.6768 25.6371 45.6806 25.9984 44.7185C25.9389 45.7433 25.7779 46.7596 25.5176 47.7526C25.357 48.7677 25.0941 49.7639 24.7328 50.7259Z" fill="#263238"/>
<g opacity="0.3">
<path d="M40.0637 74.3908C38.9087 73.9044 37.8034 73.2468 36.5654 73.0589C35.0622 72.8323 33.8021 73.2799 32.3044 73.512C27.8223 74.2139 24.4842 73.6778 20.2564 73.512L20.0298 74.8108C21.8867 76.2588 24.2245 76.723 26.5788 76.6788C28.7231 76.6401 30.8177 75.9438 32.9565 76.0046C34.6479 76.1392 36.3174 76.4731 37.9305 76.9993C40.6551 77.7178 43.5013 78.1655 46.2867 77.7454C53.2944 76.6898 57.047 70.1795 58.2131 67.6096C57.2823 68.8798 56.2843 70.0992 55.2232 71.2627C50.7467 75.8885 43.761 75.9493 40.0637 74.3908Z" fill="black"/>
</g>
<path d="M44.7667 54.8877C43.8241 54.7242 42.8989 54.4726 42.0034 54.1361C41.0779 53.8838 40.1799 53.5394 39.323 53.1082C40.2673 53.2639 41.1932 53.5158 42.0863 53.8598C43.0126 54.1097 43.9108 54.4542 44.7667 54.8877Z" fill="white"/>
<path d="M61.6062 61.6357C61.6037 61.6793 61.5944 61.7222 61.5786 61.7629C61.5454 61.8623 61.5068 61.9839 61.457 62.1276C61.2836 62.5898 61.0843 63.0418 60.8601 63.4816C60.02 65.085 59.0534 66.6188 57.9697 68.0687C57.29 68.9917 56.5107 69.9809 55.6099 70.9812C55.1567 71.4842 54.6703 71.9816 54.1343 72.4734C53.562 72.9578 52.9261 73.3613 52.2442 73.6727C50.802 74.353 49.2792 74.847 47.7123 75.1428C46.018 75.4445 44.2821 75.4258 42.5947 75.0875C40.9233 74.7363 39.2919 74.2159 37.7258 73.5345C36.952 73.2472 36.2281 72.8714 35.5151 72.5508C34.8022 72.2303 34.1058 71.8545 33.4427 71.4952C31.085 70.2084 28.8109 68.7742 26.6339 67.201C24.7769 65.8691 23.3179 64.6975 22.3618 63.8851C21.8755 63.4706 21.5052 63.139 21.2565 62.9124C21.1242 62.8019 21.0022 62.6799 20.8917 62.5476C20.9297 62.5692 20.9649 62.5952 20.9967 62.625L21.2952 62.8682L22.4336 63.8022C23.4284 64.6035 24.8875 65.742 26.7555 67.0518C28.9389 68.5937 31.2125 70.0037 33.5642 71.2742C34.233 71.6334 34.9238 71.9705 35.6312 72.3187C36.3386 72.6669 37.0736 73.004 37.8418 73.2914C39.3937 73.9598 41.008 74.4726 42.661 74.8223C44.3136 75.155 46.0141 75.1737 47.6737 74.8775C49.2185 74.5941 50.721 74.115 52.1447 73.4516C52.8049 73.1522 53.422 72.7655 53.9795 72.3021C54.5045 71.8268 54.9909 71.335 55.4441 70.8376C56.3449 69.8483 57.1297 68.8756 57.815 67.9637C58.9109 66.5319 59.8992 65.0209 60.7717 63.4429C61.0702 62.8903 61.2802 62.4316 61.4128 62.1221C61.4736 61.9839 61.5178 61.8679 61.562 61.7739C61.5737 61.7269 61.5885 61.6808 61.6062 61.6357Z" fill="#263238"/>
<path d="M53.2831 43.3755C53.2632 43.4987 53.2355 43.6205 53.2002 43.7402L52.9183 44.7793C52.653 45.7077 52.2772 46.9899 51.813 48.6037C50.8514 51.8644 49.5305 56.3409 48.0438 61.3757L48.0052 61.5083L47.8559 61.4696C47.3309 61.337 46.7064 61.2099 46.104 61.0772C40.5498 59.889 35.5371 58.7284 31.9338 57.7613C30.1321 57.2915 28.6841 56.8715 27.6838 56.5731L26.5453 56.2083C26.4097 56.1722 26.2783 56.1222 26.153 56.0591C26.2921 56.0765 26.4291 56.108 26.5619 56.153L27.717 56.468C28.7228 56.7333 30.1763 57.1202 31.9835 57.5734C35.5924 58.4742 40.6106 59.6016 46.1648 60.7899C46.7782 60.928 47.3585 61.0441 47.9554 61.1988L47.7675 61.2928C49.2873 56.2691 50.6413 51.7981 51.6361 48.5429L52.8133 44.7406C52.9515 44.315 53.062 43.9779 53.1504 43.7181C53.1809 43.5991 53.2254 43.4841 53.2831 43.3755Z" fill="#263238"/>
<path d="M21.5772 62.4039L15.2769 62.636C14.6468 62.636 14.061 62.0834 13.7957 61.1825L8.86048 43.9008C8.55099 42.707 9.21418 41.7454 10.2863 41.6901L18.6149 41.1707C19.9524 41.1707 20.6653 41.7233 20.9085 42.7568L24.1526 56.4352C24.8379 59.3201 23.5447 62.3321 21.5772 62.4039Z" fill="#263238"/>
<path d="M26.9655 54.2465L25.3075 50.6984L22.5442 49.781L23.3843 53.1688C22.279 53.6883 20.6818 53.9591 19.7478 53.4451C18.8138 52.9312 15.1607 49.2947 14.4699 49.6428C13.779 49.991 13.1656 50.8255 13.7956 51.6214C14.4257 52.4172 17.8522 54.8931 17.1447 55.6282C16.4373 56.3632 12.4913 53.1522 11.3308 53.3899C10.1702 53.6275 9.46276 54.3018 10.1094 54.7992C10.756 55.2966 12.32 56.8827 12.624 57.5625C12.5577 58.4357 12.1432 59.6737 12.5245 59.8837C13.4527 60.3283 14.4278 60.6676 15.4315 60.895C16.4606 61.2127 17.4733 61.5816 18.4656 62.0003C19.9871 62.6163 21.6811 62.6556 23.2295 62.1109L24.0198 61.8346C24.6196 61.6243 25.1384 61.2313 25.5032 60.7108C25.868 60.1904 26.0605 59.5686 26.0536 58.9331L26.026 56.319L26.9655 54.2465Z" fill="#FFBF9D"/>
<path d="M22.7377 53.4284C22.6219 53.1597 22.533 52.8801 22.4724 52.5939L21.8479 50.3114C21.5882 49.3221 21.2953 48.1615 20.9581 46.8849C20.7923 46.2401 20.621 45.5659 20.4442 44.8621C20.2452 44.1768 20.1678 43.3755 19.6925 42.856C19.2173 42.3365 18.3938 42.3033 17.6974 42.342L15.6194 42.5023L12.0879 42.751L9.7115 42.9002C9.41924 42.9279 9.12502 42.9279 8.83276 42.9002C9.11865 42.8375 9.40859 42.7951 9.70044 42.7731L12.0769 42.541L15.6029 42.2259L17.6864 42.0491C18.0555 42.0241 18.4263 42.0408 18.7917 42.0988C19.2109 42.1564 19.5994 42.3507 19.897 42.6515C20.1652 42.9547 20.355 43.319 20.4497 43.7126C20.5547 44.0829 20.6321 44.4366 20.726 44.7903L21.2234 46.8186C21.5329 48.1007 21.8092 49.2613 22.0524 50.2561L22.6051 52.5828C22.6717 52.8607 22.716 53.1435 22.7377 53.4284Z" fill="#455A64"/>
<path d="M15.1496 45.0724C15.1496 45.1948 15.1133 45.3145 15.0453 45.4162C14.9773 45.518 14.8806 45.5974 14.7675 45.6442C14.6544 45.6911 14.5299 45.7033 14.4098 45.6794C14.2898 45.6556 14.1795 45.5966 14.0929 45.51C14.0064 45.4235 13.9474 45.3132 13.9235 45.1931C13.8996 45.073 13.9119 44.9486 13.9587 44.8355C14.0056 44.7224 14.0849 44.6257 14.1867 44.5577C14.2885 44.4897 14.4082 44.4534 14.5306 44.4534C14.6948 44.4534 14.8522 44.5186 14.9683 44.6347C15.0844 44.7508 15.1496 44.9082 15.1496 45.0724Z" fill="white"/>
<path d="M47.9998 20.0922C48.5549 17.9448 48.9247 15.7537 49.1051 13.5431C49.2777 11.3241 48.898 9.09685 47.9998 7.06041C47.8561 6.75644 46.6734 4.74476 46.3418 4.80555C46.1041 4.84976 46.8944 6.75644 46.795 6.97751C45.8859 9.09886 45.6431 11.4464 46.0986 13.7089C46.4944 15.9017 47.1359 18.0429 48.0108 20.0922" fill="#263238"/>
<path d="M47.3585 11.7909C47.5962 6.01009 44.4294 1.04719 38.6376 0.975342H38.0849C35.4916 1.09278 33.0373 2.18083 31.2088 4.02359C29.3804 5.86635 28.3116 8.32913 28.2144 10.9232C28.0375 15.9414 27.9049 21.4791 28.0596 24.1595C28.3802 29.6861 33.9676 30.3162 33.9676 30.3162L34.0284 32.2173C34.0569 33.1459 34.2776 34.0585 34.6764 34.8976C35.0752 35.7367 35.6435 36.4841 36.3455 37.0927C37.0475 37.7012 37.868 38.1577 38.7552 38.4334C39.6424 38.7091 40.5771 38.798 41.5003 38.6945C43.1518 38.5088 44.6761 37.7183 45.7793 36.4753C46.8825 35.2323 47.4864 33.625 47.4746 31.9631L47.3585 11.7909Z" fill="#FFBF9D"/>
<path d="M33.9733 30.3551C36.5409 30.2902 39.0309 29.4609 41.1247 27.9731C41.1247 27.9731 39.5993 32.0463 34.0396 31.792L33.9733 30.3551Z" fill="#8B5D54"/>
<path d="M30.2981 15.2563C30.3039 15.4625 30.3906 15.6581 30.5396 15.8009C30.6885 15.9436 30.8877 16.0219 31.0939 16.0189C31.1949 16.0234 31.2958 16.0075 31.3905 15.972C31.4851 15.9366 31.5717 15.8824 31.645 15.8128C31.7182 15.7431 31.7767 15.6594 31.8169 15.5666C31.857 15.4739 31.8781 15.3739 31.8787 15.2729C31.8729 15.0661 31.7864 14.8699 31.6376 14.7263C31.4888 14.5827 31.2897 14.5031 31.0829 14.5047C30.9816 14.501 30.8806 14.5176 30.7859 14.5537C30.6912 14.5897 30.6047 14.6444 30.5315 14.7145C30.4583 14.7846 30.4 14.8686 30.3599 14.9617C30.3198 15.0548 30.2988 15.1549 30.2981 15.2563Z" fill="#263238"/>
<path d="M29.4466 13.3441C29.5516 13.4436 30.1319 12.9738 30.983 12.9351C31.8341 12.8964 32.4808 13.2943 32.5692 13.1893C32.6576 13.0843 32.5029 12.9572 32.221 12.7693C31.8409 12.5325 31.397 12.4186 30.9499 12.4432C30.5052 12.4618 30.0777 12.6204 29.7285 12.8964C29.4798 13.1064 29.3969 13.2833 29.4466 13.3441Z" fill="#263238"/>
<path d="M37.9248 14.9081C37.9306 15.1143 38.0173 15.31 38.1663 15.4527C38.3152 15.5954 38.5144 15.6738 38.7206 15.6708C38.8219 15.6745 38.9229 15.6578 39.0176 15.6218C39.1123 15.5858 39.1988 15.5311 39.272 15.461C39.3452 15.3909 39.4035 15.3068 39.4436 15.2137C39.4837 15.1207 39.5047 15.0205 39.5054 14.9192C39.4982 14.7135 39.411 14.5186 39.2624 14.3762C39.1138 14.2338 38.9154 14.1549 38.7096 14.1565C38.6083 14.1528 38.5073 14.1695 38.4126 14.2055C38.3179 14.2416 38.2314 14.2962 38.1582 14.3663C38.085 14.4364 38.0267 14.5205 37.9866 14.6136C37.9465 14.7066 37.9255 14.8068 37.9248 14.9081Z" fill="#263238"/>
<path d="M37.9359 12.7305C38.0243 12.841 38.6544 12.4321 39.5055 12.4929C40.3566 12.5537 40.9534 13.0124 41.0529 12.9129C41.1524 12.8134 41.0142 12.6808 40.7545 12.4652C40.401 12.1869 39.9711 12.023 39.522 11.9955C39.0789 11.9682 38.6383 12.0803 38.262 12.316C37.9912 12.4873 37.8862 12.6697 37.9359 12.7305Z" fill="#263238"/>
<path d="M35.1229 19.8764C34.6684 19.7555 34.2005 19.6924 33.7302 19.6885C33.5091 19.6885 33.2991 19.6388 33.2604 19.4951C33.2277 19.2709 33.2684 19.0421 33.3765 18.843C33.5533 18.2903 33.7412 17.7376 33.9291 17.1573C34.7194 14.7533 35.2776 12.7858 35.1837 12.736C35.0897 12.6863 34.3657 14.6262 33.581 17.0247C33.3931 17.6216 33.2107 18.1853 33.0283 18.7214C32.9042 18.9913 32.8769 19.2958 32.9509 19.5835C32.9871 19.6583 33.0397 19.724 33.1047 19.7757C33.1698 19.8273 33.2457 19.8637 33.3267 19.882C33.4482 19.9096 33.5725 19.9225 33.697 19.9206C34.1724 19.963 34.6511 19.9482 35.1229 19.8764Z" fill="#263238"/>
<path d="M37.6483 9.0444C37.7423 9.27652 38.5879 9.1273 39.5937 9.19914C40.5995 9.27099 41.423 9.51416 41.5446 9.29862C41.5999 9.19914 41.4506 8.9836 41.1135 8.77359C40.6657 8.51862 40.1656 8.36917 39.6513 8.3366C39.1371 8.30404 38.6221 8.38923 38.1457 8.58569C37.8086 8.74596 37.6096 8.93939 37.6483 9.0444Z" fill="#263238"/>
<path d="M29.5575 11.6584C29.7178 11.8464 30.2981 11.6198 31 11.5756C31.7018 11.5313 32.3098 11.6474 32.4424 11.4374C32.4977 11.3379 32.3927 11.15 32.1219 10.9787C31.7635 10.7676 31.3478 10.6747 30.9337 10.7134C30.5195 10.7407 30.1239 10.8951 29.8007 11.1555C29.5631 11.3655 29.4857 11.57 29.5575 11.6584Z" fill="#263238"/>
<path d="M47.0934 15.9196C47.1873 15.8754 50.8515 14.6209 50.9012 18.4176C50.951 22.2144 47.1321 21.4849 47.121 21.3744C47.11 21.2638 47.0934 15.9196 47.0934 15.9196Z" fill="#FFBF9D"/>
<path d="M48.2652 19.9152C48.2652 19.9152 48.3315 19.9595 48.4421 20.0092C48.6015 20.0743 48.7801 20.0743 48.9395 20.0092C49.1809 19.8482 49.3758 19.6267 49.5048 19.3668C49.6338 19.1069 49.6923 18.8177 49.6745 18.5281C49.6798 18.2021 49.6118 17.8792 49.4755 17.583C49.4394 17.465 49.3746 17.3577 49.2868 17.2709C49.199 17.1841 49.0911 17.1204 48.9726 17.0856C48.897 17.0666 48.8171 17.0743 48.7466 17.1076C48.676 17.1409 48.6192 17.1975 48.5858 17.268C48.536 17.3785 48.5858 17.4504 48.5416 17.4614C48.4973 17.4725 48.4587 17.3951 48.4863 17.2404C48.5086 17.1454 48.5609 17.0601 48.6355 16.9972C48.7403 16.9194 48.8705 16.8839 49.0003 16.8977C49.1564 16.9264 49.3026 16.9948 49.4246 17.0965C49.5466 17.1981 49.6403 17.3295 49.6966 17.478C49.8622 17.8049 49.9457 18.1672 49.9398 18.5336C49.9644 18.8725 49.8878 19.2111 49.7195 19.5064C49.5512 19.8016 49.2989 20.0401 48.9947 20.1916C48.8937 20.2222 48.7871 20.2297 48.6828 20.2134C48.5785 20.1972 48.4792 20.1576 48.3923 20.0976C48.2707 20.0147 48.2486 19.9152 48.2652 19.9152Z" fill="#8B5D54"/>
<path d="M28.0045 21.1641C28.1462 21.058 28.3099 20.985 28.4835 20.9503C28.6571 20.9156 28.8362 20.9201 29.0079 20.9635C29.1795 21.007 29.3392 21.0882 29.4754 21.2013C29.6116 21.3144 29.7209 21.4565 29.7951 21.6172C29.9398 21.3799 30.1484 21.188 30.397 21.0636C30.6457 20.9392 30.9243 20.8873 31.2011 20.9138C31.4778 20.9403 31.7415 21.0442 31.962 21.2136C32.1825 21.3829 32.3509 21.6109 32.4479 21.8715C32.512 21.677 32.6245 21.502 32.7747 21.3629C32.9249 21.2237 33.108 21.125 33.3067 21.0758C33.5055 21.0267 33.7135 21.0288 33.9113 21.0819C34.109 21.135 34.29 21.2375 34.4374 21.3796C34.5323 21.2053 34.679 21.0649 34.8573 20.9778C35.0355 20.8906 35.2364 20.8611 35.4322 20.8933C35.3968 20.7092 35.4172 20.5188 35.4908 20.3465C35.5645 20.1742 35.6879 20.0278 35.8454 19.9262C36.0029 19.8246 36.1871 19.7724 36.3744 19.7763C36.5618 19.7803 36.7437 19.8401 36.8968 19.9482C36.9979 19.7588 37.1376 19.5927 37.3068 19.4606C37.4761 19.3285 37.6712 19.2334 37.8795 19.1813C38.0877 19.1292 38.3046 19.1214 38.5161 19.1583C38.7276 19.1952 38.9291 19.276 39.1074 19.3955C39.1383 19.2022 39.2353 19.0255 39.382 18.8957C39.5286 18.7659 39.7157 18.691 39.9114 18.6839C40.1071 18.6767 40.2992 18.7377 40.455 18.8564C40.6107 18.9751 40.7204 19.1442 40.7654 19.3348C40.9322 19.092 41.173 18.9097 41.4519 18.8151C41.7308 18.7205 42.0328 18.7186 42.3128 18.8097C42.3091 18.6712 42.3367 18.5336 42.3937 18.4073C42.4507 18.281 42.5356 18.1693 42.6419 18.0805C42.7483 17.9917 42.8734 17.9281 43.0078 17.8945C43.1423 17.861 43.2825 17.8584 43.4182 17.8868C43.2468 17.4281 43.9211 17.1628 44.2472 16.7815C44.3908 16.6212 44.4793 16.4056 44.634 16.262C44.7888 16.1183 45.0872 16.0575 45.2143 16.262C45.159 16.0766 45.1721 15.8776 45.2512 15.701C45.3303 15.5245 45.4702 15.3823 45.6454 15.3003C45.8257 15.2298 46.0252 15.2255 46.2084 15.2883C46.3915 15.351 46.5465 15.4767 46.6457 15.643C46.7361 15.8525 46.7957 16.074 46.8226 16.3006C46.9828 17.0136 47.4526 17.8481 46.9663 18.3952C46.8778 18.4947 46.7618 18.5776 46.7341 18.7047C46.6789 18.9203 46.8999 19.1026 46.9331 19.3237C46.9662 19.5448 46.7507 19.7935 46.6623 20.0311C46.6033 20.4021 46.6375 20.7819 46.7618 21.1364C46.817 21.5122 46.6347 22.0096 46.2533 22.0041C46.4023 22.2725 46.4539 22.5842 46.3995 22.8863C46.3451 23.1884 46.1881 23.4625 45.9549 23.6621C46.0328 23.8186 46.0782 23.9892 46.0886 24.1638C46.0989 24.3383 46.0739 24.5131 46.0151 24.6777C45.9563 24.8423 45.8648 24.9934 45.7462 25.1218C45.6276 25.2502 45.4843 25.3534 45.3249 25.4251C45.4458 25.5326 45.5237 25.6804 45.544 25.8409C45.5644 26.0015 45.5258 26.164 45.4354 26.2983C45.2485 26.5652 44.9951 26.7786 44.7003 26.9173C44.7642 26.9543 44.8201 27.0037 44.8645 27.0627C44.909 27.1217 44.9412 27.1889 44.9592 27.2605C44.9773 27.3321 44.9808 27.4066 44.9695 27.4796C44.9583 27.5526 44.9325 27.6226 44.8938 27.6855C44.7259 27.9337 44.4751 28.1139 44.1864 28.1939C44.0595 28.2206 43.946 28.291 43.8658 28.3929C43.7442 28.6029 43.9487 28.8571 43.9266 29.0948C43.9266 29.4595 43.374 29.5977 43.269 29.9459C43.1639 30.294 43.3629 30.6533 43.1418 30.8909C42.9208 31.1286 42.755 31.0401 42.5615 31.123C42.2134 31.2778 42.0863 31.6757 41.8818 32.0018C41.4377 32.5582 40.8182 32.9478 40.1243 33.1071C39.7761 33.2231 39.4335 33.3226 39.0798 33.4166C38.3834 33.5989 37.676 33.7426 36.9631 33.8808C36.6149 33.9471 36.1783 33.9858 35.9683 33.6984C35.8457 33.8469 35.6903 33.9648 35.5143 34.043C35.3383 34.1211 35.1466 34.1573 34.9542 34.1488C34.7619 34.1402 34.5741 34.0871 34.4058 33.9936C34.2375 33.9001 34.0932 33.7688 33.9843 33.61C33.3312 33.7563 32.6478 33.6785 32.0444 33.3889L31.3978 33.1624C30.7512 32.9358 30.0327 32.6097 29.8006 31.9962C29.6002 31.9666 29.4088 31.8932 29.2399 31.7813C29.071 31.6694 28.9288 31.5217 28.8233 31.3488C28.7179 31.1758 28.6517 30.9818 28.6296 30.7804C28.6075 30.579 28.6299 30.3752 28.6953 30.1835C28.4134 30.2885 28.1426 30.0232 28.0487 29.7303C28.0159 29.4349 28.0327 29.136 28.0984 28.8461C28.2255 27.6468 27.5071 26.4807 27.5789 25.2759C27.6342 24.4303 28.0708 23.5681 27.7723 22.7778C27.6919 22.6224 27.6395 22.4541 27.6176 22.2804C27.6176 22.1091 27.7613 21.9157 27.9326 21.9544C27.8766 21.8362 27.8514 21.7058 27.8594 21.5753C27.8674 21.4448 27.9084 21.3184 27.9785 21.208C28.0486 21.0976 28.1455 21.0068 28.2603 20.944C28.375 20.8812 28.5037 20.8486 28.6345 20.8491" fill="#263238"/>
<path d="M37.6596 20.3517C37.5214 20.3517 37.5601 21.2747 36.7975 21.9655C36.0348 22.6563 35.0455 22.601 35.0455 22.7337C35.0455 22.8663 35.2721 22.8995 35.6921 22.894C36.234 22.877 36.7526 22.6696 37.1567 22.3081C37.5435 21.9588 37.781 21.4739 37.8199 20.9541C37.8365 20.5672 37.7204 20.3407 37.6596 20.3517Z" fill="white"/>
<path d="M43.5453 26.4531C43.8974 25.1546 43.8238 23.7773 43.3353 22.5237C43.4614 22.6881 43.5535 22.876 43.6061 23.0763C43.779 23.5275 43.8797 24.0031 43.9046 24.4856C43.9279 24.9691 43.8795 25.4533 43.7609 25.9225C43.7187 26.1101 43.6459 26.2893 43.5453 26.4531Z" fill="#455A64"/>
<path d="M44.3135 25.0551C44.3135 25.0551 44.4185 24.9003 44.4959 24.6185C44.5724 24.254 44.5724 23.8776 44.4959 23.5131C44.3633 22.6234 44.0648 21.9491 44.109 21.927C44.4042 22.4023 44.5927 22.9359 44.6617 23.491C44.7422 23.8819 44.7232 24.2866 44.6064 24.6682C44.4849 24.9445 44.3246 25.0661 44.3135 25.0551Z" fill="#455A64"/>
<path d="M45.1867 24.2205C45.5834 23.1435 45.5458 21.9543 45.0817 20.9045C45.1979 21.0333 45.288 21.1835 45.3469 21.3467C45.5089 21.7304 45.5988 22.1407 45.6122 22.557C45.6274 22.9742 45.5636 23.3904 45.4243 23.7839C45.3747 23.9437 45.294 24.0921 45.1867 24.2205Z" fill="#455A64"/>
<path d="M29.8064 5.83335C29.6848 4.72803 31.2156 2.34606 32.741 1.58339C35.0511 0.428324 38.6158 -0.361985 40.8043 0.16857C43.446 0.809658 45.6622 2.02551 47.0604 4.35222C48.4124 6.72295 49.1104 9.41022 49.0832 12.1392C49.146 12.9694 48.9857 13.8014 48.6189 14.5488C48.1105 15.4331 47.0825 16.0134 47.171 17.2071C47.1941 17.4218 47.1743 17.6388 47.1126 17.8457C47.0509 18.0525 46.9486 18.245 46.8117 18.4119C46.1264 19.2022 45.2201 18.5225 44.7945 17.8206C43.8771 16.3174 43.6892 14.5046 43.5676 12.7416C43.3994 11.5023 43.4367 10.2438 43.6781 9.01669C43.8439 8.35902 44.1258 7.72898 44.2308 7.06579C44.3149 6.73514 44.3269 6.39026 44.2659 6.05457C44.2048 5.71889 44.0722 5.40029 43.8771 5.12042C43.7752 5.00835 43.6643 4.90483 43.5455 4.81093C42.9826 4.35539 42.3084 4.05835 41.5923 3.95051C40.8763 3.84267 40.1445 3.92792 39.4724 4.19747C37.3004 5.05963 33.5866 6.36391 32.5752 5.65098C31.1217 4.62855 30.9669 4.23616 30.9669 4.23616L29.8064 5.83335Z" fill="#263238"/>
<path d="M30.6738 31.239C30.047 30.8138 29.54 30.2348 29.2013 29.5574C28.8626 28.8799 28.7035 28.1269 28.7395 27.3704C28.9356 28.0708 29.1774 28.7575 29.4635 29.4263C29.8299 30.0544 30.2341 30.6598 30.6738 31.239Z" fill="#455A64"/>
<path d="M33.4592 32.9359C32.6996 32.643 32.0345 32.148 31.5359 31.5045C30.9685 30.9215 30.5694 30.1958 30.3809 29.4044C30.4638 29.3712 30.9004 30.3439 31.7515 31.3166C32.6026 32.2893 33.5034 32.8585 33.4592 32.9359Z" fill="#455A64"/>
<path d="M35.2498 32.0735C34.7202 32.1363 34.1838 32.0444 33.7053 31.8091C33.2267 31.5737 32.8265 31.2049 32.5529 30.7472C32.6192 30.6919 33.1055 31.1893 33.835 31.5485C34.5645 31.9077 35.2554 31.9962 35.2498 32.0735Z" fill="#455A64"/>
<path d="M48.5637 8.02169C47.9149 8.5701 47.1153 8.90921 46.2701 8.99438C45.4339 9.14208 44.5728 9.04021 43.7942 8.70147C43.7942 8.60199 44.8995 8.8949 46.2314 8.70147C47.5633 8.50803 48.5194 7.92773 48.5637 8.02169Z" fill="#455A64"/>
<path d="M49.0167 10.1497C48.1729 10.6798 47.2078 10.986 46.2127 11.0392C45.2176 11.0924 44.2253 10.8908 43.3298 10.4536C44.2729 10.6529 45.2342 10.7529 46.1981 10.7521C47.1567 10.6538 48.1017 10.4518 49.0167 10.1497Z" fill="#455A64"/>
</svg>
