<svg width="155" height="224" viewBox="0 0 155 224" fill="none" xmlns="http://www.w3.org/2000/svg">
<g clip-path="url(#clip0_9737_10922)">
<path d="M322.602 213.975C322.602 214.04 254.52 214.092 170.557 214.092C86.5648 214.092 18.4983 214.039 18.4983 213.975C18.4983 213.911 86.5648 213.858 170.557 213.858C254.52 213.858 322.602 213.911 322.602 213.975Z" fill="#263238"/>
<path d="M125.916 108.392L124.166 103.211C125.745 100.533 126.627 97.399 126.562 94.0628C126.375 84.4679 118.445 76.8414 108.85 77.028C99.255 77.2152 91.6284 85.1446 91.8151 94.7395C92.0022 104.334 99.9317 111.961 109.527 111.774C113.533 111.696 117.194 110.265 120.089 107.929L120.083 107.937L125.916 108.392Z" fill="white"/>
<path d="M125.91 108.392C125.91 108.392 125.793 108.391 125.548 108.376C125.284 108.359 124.917 108.336 124.443 108.307C123.435 108.239 121.97 108.141 120.07 108.013C120.028 108.01 119.997 107.974 120 107.933C120.001 107.918 120.006 107.904 120.014 107.893C120.014 107.893 120.018 107.888 120.02 107.885L120.129 107.989C118.376 109.416 115.764 110.972 112.319 111.61C110.608 111.944 108.704 111.994 106.723 111.718C104.744 111.445 102.682 110.812 100.727 109.735C98.7726 108.664 96.9296 107.151 95.4223 105.243C93.9146 103.339 92.7478 101.037 92.1309 98.506C90.8667 93.4676 92.0364 87.4603 95.7778 83.0972C97.6483 80.892 100.01 79.1609 102.601 78.1485C105.18 77.1091 107.934 76.7175 110.559 76.9152C113.189 77.1188 115.671 77.9387 117.803 79.1522C119.939 80.3672 121.724 81.9811 123.086 83.769C125.823 87.3667 126.821 91.5523 126.659 95.0241C126.524 98.5316 125.37 101.336 124.223 103.25L124.229 103.189C124.779 104.879 125.204 106.184 125.497 107.083C125.632 107.506 125.736 107.833 125.813 108.069C125.882 108.287 125.91 108.392 125.91 108.392C125.91 108.392 125.861 108.271 125.78 108.046C125.695 107.807 125.578 107.477 125.427 107.051C125.118 106.17 124.67 104.891 124.09 103.236C124.082 103.215 124.086 103.192 124.096 103.174C125.209 101.261 126.321 98.478 126.43 95.0159C126.566 91.5875 125.558 87.4738 122.854 83.9465C121.508 82.1938 119.748 80.6146 117.647 79.4272C115.55 78.2416 113.113 77.4424 110.534 77.248C107.958 77.0594 105.258 77.4477 102.731 78.4683C100.192 79.4624 97.8779 81.1606 96.0445 83.3224C92.3779 87.5987 91.226 93.4826 92.4565 98.4283C93.057 100.911 94.1962 103.172 95.6717 105.046C97.1462 106.924 98.9516 108.417 100.869 109.478C102.788 110.544 104.813 111.177 106.761 111.456C108.71 111.738 110.587 111.7 112.277 111.382C115.68 110.776 118.277 109.263 120.033 107.87C120.066 107.844 120.113 107.849 120.14 107.881C120.162 107.908 120.162 107.947 120.142 107.974C120.14 107.977 120.137 107.982 120.137 107.982L120.081 107.862C121.955 108.028 123.399 108.156 124.393 108.245C124.876 108.29 125.248 108.325 125.517 108.35C125.772 108.374 125.91 108.392 125.91 108.392Z" fill="#263238"/>
<path d="M104.254 90.8658H106.897C106.897 90.8658 106.897 88.6466 109.203 88.6071C110.4 88.5863 111.022 89.3711 111.274 89.972C111.567 90.67 111.478 91.4653 111.086 92.1126C110.638 92.8515 109.655 93.5234 107.874 93.2099V99.169H110.487V95.6784C110.487 95.6784 114.153 94.7311 114.153 90.6917C114.153 86.8268 110.687 85.9292 109.203 85.9292C108.068 85.9287 104.204 86.2027 104.254 90.8658Z" fill="#263238"/>
<path d="M110.523 100.395H107.87V102.872H110.523V100.395Z" fill="#263238"/>
<path d="M99.4981 139.024C99.4981 139.024 99.529 138.889 99.597 138.658C99.9255 137.545 101.118 134.22 103.865 133.282C107.181 132.15 114.217 130.775 115.996 130.047C117.775 129.319 118.907 128.753 119.392 129.643C119.878 130.532 119.15 131.907 118.179 132.312C117.209 132.716 114.055 134.106 114.055 134.106L115.753 139.024C115.753 139.024 106.614 142.421 105.24 143.876C103.865 145.332 104.144 147.191 104.144 147.191L98.2682 142.404L99.4981 139.024Z" fill="#FFBF9D"/>
<path d="M126.07 127.906C126.07 127.906 126.688 128.005 126.291 128.643C125.893 129.281 122.358 133.358 122.358 133.358C122.358 133.358 122.844 134.929 122.358 135.42C121.872 135.911 117.573 137.974 117.573 137.974C117.573 137.974 115.156 140.921 113.61 141.412C112.063 141.903 106.057 143.27 106.057 143.27L107.291 137.533L111.798 137.729L113.875 135.961C113.875 135.961 112.859 133.947 112.638 133.996C112.417 134.045 110.252 133.701 110.473 133.112C110.693 132.523 110.959 131.933 112.55 132.13C114.14 132.326 116.593 134.635 116.593 134.635L117.764 133.898L116.305 131.344C116.305 131.344 113.036 130.706 113.787 128.398C113.787 128.398 117.189 129.134 117.764 129.527C118.338 129.921 120.15 133.505 120.15 133.505L120.017 130.264C120.017 130.264 118.205 128.398 118.515 127.219C118.824 126.04 119.663 126.089 119.663 126.089L122.138 129.625L122.24 130.23C122.24 130.23 123.949 128.397 124.701 128.005C125.451 127.612 126.07 127.906 126.07 127.906Z" fill="#FFBF9D"/>
<path d="M106.072 143.34C106.072 143.34 106.15 143.331 106.298 143.301C106.457 143.268 106.676 143.222 106.957 143.162C107.547 143.03 108.397 142.838 109.488 142.593C110.586 142.333 111.933 142.035 113.484 141.598C114.285 141.374 114.974 140.799 115.656 140.198C116.333 139.58 117 138.879 117.658 138.101L117.628 138.125C118.646 137.636 119.725 137.108 120.847 136.52C121.127 136.372 121.41 136.221 121.692 136.059C121.835 135.979 121.975 135.893 122.116 135.806C122.25 135.709 122.409 135.634 122.523 135.464C122.724 135.129 122.701 134.762 122.678 134.421C122.643 134.075 122.575 133.737 122.476 133.396L122.454 133.498C123.172 132.663 123.92 131.791 124.692 130.891C125.072 130.435 125.458 129.972 125.849 129.502C126.04 129.259 126.236 129.032 126.416 128.755C126.499 128.615 126.584 128.441 126.543 128.229C126.486 128.004 126.285 127.898 126.104 127.861L126.136 127.871C125.743 127.713 125.319 127.72 124.926 127.856C124.529 127.992 124.215 128.267 123.912 128.519C123.306 129.045 122.733 129.62 122.166 130.218L122.375 130.28C122.344 130.093 122.308 129.884 122.273 129.676L122.268 129.648L122.252 129.626C121.468 128.504 120.631 127.306 119.78 126.088L119.743 126.035L119.685 126.035C119.18 126.038 118.779 126.391 118.58 126.801C118.482 127.012 118.4 127.214 118.377 127.463C118.361 127.701 118.396 127.937 118.468 128.154C118.761 129.028 119.33 129.747 119.942 130.421L119.906 130.339C119.912 130.468 119.917 130.609 119.923 130.75C119.962 131.701 120.001 132.645 120.039 133.58L120.276 133.518C119.93 132.841 119.577 132.175 119.211 131.522C118.834 130.872 118.49 130.222 117.998 129.631C117.853 129.466 117.656 129.391 117.486 129.32C117.311 129.253 117.136 129.195 116.961 129.14C116.611 129.032 116.26 128.936 115.911 128.844C115.212 128.664 114.518 128.5 113.827 128.349L113.715 128.324L113.686 128.429C113.582 128.811 113.526 129.219 113.636 129.613C113.751 130.001 113.995 130.33 114.283 130.583C114.871 131.091 115.581 131.359 116.297 131.528L116.218 131.471C116.718 132.343 117.204 133.192 117.68 134.023L117.717 133.872C117.318 134.124 116.931 134.369 116.548 134.611L116.683 134.624C116.024 134.024 115.346 133.485 114.637 133.015C113.929 132.565 113.175 132.121 112.335 132.076C111.93 132.044 111.517 132.05 111.124 132.183C110.929 132.25 110.74 132.36 110.604 132.526C110.465 132.691 110.395 132.905 110.392 133.11C110.381 133.317 110.459 133.545 110.607 133.689C110.75 133.839 110.925 133.936 111.1 134.01C111.453 134.154 111.819 134.216 112.177 134.246L112.118 134.218C112.725 134.881 113.29 135.498 113.828 136.086L113.836 135.968C113.089 136.609 112.405 137.196 111.766 137.744L111.842 137.733C111.27 137.483 110.712 137.283 110.173 137.141C109.631 137.007 109.113 136.927 108.626 136.893C107.651 136.843 106.819 136.974 106.171 137.152C105.521 137.328 105.041 137.524 104.722 137.664C104.562 137.732 104.445 137.792 104.364 137.83C104.285 137.869 104.245 137.89 104.246 137.893C104.247 137.896 104.29 137.881 104.372 137.848C104.464 137.811 104.584 137.763 104.737 137.7C105.06 137.573 105.542 137.389 106.19 137.226C106.836 137.061 107.658 136.945 108.618 137.005C109.097 137.043 109.608 137.128 110.14 137.265C110.671 137.411 111.22 137.614 111.782 137.865L111.824 137.884L111.859 137.854C112.502 137.311 113.191 136.729 113.942 136.094L114.007 136.039L113.95 135.976C113.415 135.385 112.854 134.764 112.251 134.097L112.227 134.071L112.191 134.068C111.847 134.037 111.495 133.974 111.172 133.839C110.853 133.711 110.552 133.464 110.584 133.117C110.58 132.765 110.84 132.477 111.189 132.37C111.535 132.254 111.929 132.245 112.318 132.279C113.098 132.322 113.823 132.747 114.519 133.193C115.212 133.657 115.887 134.196 116.53 134.786L116.594 134.844L116.665 134.799C117.048 134.559 117.436 134.315 117.837 134.065L117.928 134.007L117.874 133.913C117.401 133.081 116.917 132.231 116.42 131.357L116.394 131.313L116.34 131.301C115.668 131.142 114.971 130.873 114.44 130.407C114.177 130.174 113.965 129.884 113.866 129.55C113.772 129.212 113.822 128.853 113.915 128.506L113.774 128.587C114.46 128.738 115.153 128.903 115.848 129.083C116.195 129.175 116.542 129.27 116.886 129.377C117.217 129.493 117.607 129.583 117.815 129.801C118.263 130.34 118.624 131.005 118.992 131.645C119.355 132.295 119.707 132.96 120.051 133.632L120.311 134.143L120.288 133.571C120.25 132.636 120.211 131.692 120.173 130.74C120.167 130.6 120.161 130.459 120.156 130.329L120.154 130.283L120.12 130.247C119.532 129.601 118.97 128.878 118.706 128.08C118.64 127.882 118.613 127.678 118.625 127.484C118.639 127.298 118.717 127.091 118.801 126.914C118.968 126.557 119.318 126.287 119.669 126.284L119.575 126.231C120.427 127.447 121.266 128.644 122.051 129.765L122.031 129.716C122.066 129.924 122.102 130.133 122.133 130.32L122.174 130.561L122.343 130.383C122.903 129.791 123.474 129.216 124.066 128.7C124.367 128.448 124.662 128.194 125.004 128.079C125.339 127.956 125.729 127.96 126.034 128.082L126.051 128.089L126.066 128.092C126.182 128.116 126.3 128.189 126.315 128.283C126.336 128.38 126.291 128.516 126.215 128.635C126.059 128.878 125.855 129.12 125.669 129.357C125.28 129.827 124.896 130.29 124.519 130.746C123.75 131.648 123.005 132.521 122.291 133.358L122.253 133.402L122.27 133.459C122.365 133.781 122.434 134.114 122.468 134.441C122.496 134.762 122.499 135.11 122.351 135.35C122.182 135.561 121.854 135.72 121.59 135.884C121.312 136.045 121.031 136.197 120.753 136.345C119.639 136.936 118.562 137.47 117.549 137.963L117.531 137.972L117.518 137.987C116.872 138.761 116.211 139.464 115.546 140.079C114.875 140.68 114.202 141.246 113.442 141.463C111.904 141.909 110.557 142.222 109.464 142.497C108.379 142.762 107.532 142.969 106.945 143.113C106.666 143.183 106.45 143.237 106.292 143.277C106.146 143.314 106.072 143.34 106.072 143.34Z" fill="#6F4439"/>
<path d="M115.343 138.999C115.376 139.052 116.365 138.211 116.952 136.762C117.022 136.585 117.089 136.414 117.157 136.245C117.23 136.065 117.25 135.857 117.218 135.678C117.119 135.305 116.93 135.081 116.779 134.873C116.473 134.465 116.164 134.31 116.147 134.356C116.14 134.378 116.373 134.558 116.635 134.976C116.759 135.174 116.932 135.444 116.989 135.712C117.007 135.858 116.992 136.005 116.927 136.156C116.86 136.311 116.785 136.498 116.72 136.666C116.159 138.058 115.284 138.949 115.343 138.999Z" fill="#6F4439"/>
<path d="M119.532 136.261C119.538 136.29 119.736 136.282 120.004 136.122C120.268 135.967 120.59 135.63 120.699 135.151C120.805 134.671 120.656 134.229 120.484 133.977C120.31 133.718 120.134 133.627 120.116 133.65C120.089 133.679 120.213 133.813 120.329 134.064C120.446 134.311 120.543 134.695 120.454 135.096C120.363 135.497 120.112 135.803 119.901 135.977C119.689 136.156 119.52 136.224 119.532 136.261Z" fill="#6F4439"/>
<path d="M122.231 133.444C122.306 133.45 122.393 132.586 122.344 131.529C122.299 130.473 122.202 129.623 122.136 129.625C122.063 129.627 122.048 130.487 122.093 131.539C122.141 132.592 122.167 133.439 122.231 133.444Z" fill="#6F4439"/>
<path d="M76.7373 213.817C76.7373 213.817 30.9216 214.013 29.9526 213.817C28.9836 213.622 35.3991 189.515 35.3991 189.515L72.7383 188.187L76.7373 213.817Z" fill="#263238"/>
<path d="M75.994 139.135L73.0295 118.479C71.6872 102.365 71.9896 82.7853 69.592 77.6756C65.1632 68.2369 51.7698 68.0073 51.7698 68.0073C33.9863 67.636 31.5104 81.4116 30.349 93.9039C30.1522 96.0227 29.448 99.8065 28.5292 104.186C26.362 113.318 23.5332 122.724 17.2894 129.173C14.9067 131.634 13.3931 135.002 12.9952 138.405C12.5977 141.807 14.5965 145.783 17.9999 146.176C16.3599 147.904 15.5747 150.407 15.9326 152.762C16.2905 155.117 17.7847 157.273 19.8641 158.436C22.7942 160.074 26.3992 159.68 29.7099 159.127C32.9989 158.578 36.4375 157.838 38.9393 155.633C41.4465 153.424 42.6147 150.089 43.4694 146.858C44.4982 142.968 45.2149 138.995 45.6196 134.992L75.994 139.135Z" fill="#263238"/>
<path d="M54.3813 72.8995L53.2193 71.8992L41.4837 77.333C39.7555 77.5168 38.4547 78.9922 38.4899 80.7305L42.2617 120.739C42.3804 123.387 41.3352 124.671 43.0402 126.7L54.7464 140.21C58.839 145.08 57.9206 133.948 60.6757 128.214C60.8682 127.813 59.876 126.407 59.9257 126.126C59.9725 125.775 60.0554 125.541 60.0598 125.244C60.2575 122.086 60.1398 119.362 60.1398 119.362C60.1789 115.903 60.1779 114.485 60.1799 114.517C60.1799 114.517 67.4747 113.302 68.9815 103.783C69.731 99.0492 69.2188 92.6145 68.6207 86.2864C67.793 77.5279 61.4363 72.5334 54.3813 72.8995Z" fill="#FFBF9D"/>
<path d="M54.699 93.1221C54.7222 93.767 54.1955 94.3178 53.5226 94.354C52.8512 94.3906 52.2869 93.8991 52.2637 93.2543C52.2411 92.6099 52.7678 92.0581 53.4387 92.0215C54.1116 91.9848 54.6759 92.4777 54.699 93.1221Z" fill="#263238"/>
<path d="M66.7842 92.4866C66.8074 93.1315 66.2807 93.6823 65.6078 93.719C64.9364 93.7551 64.3721 93.2636 64.3489 92.6188C64.3258 91.9744 64.853 91.4226 65.5239 91.386C66.1972 91.3493 66.7616 91.8422 66.7842 92.4866Z" fill="#263238"/>
<path d="M67.4823 88.8575C67.3313 89.0166 66.4057 88.3332 65.0923 88.3366C63.7804 88.3216 62.8162 88.9983 62.6739 88.8372C62.6035 88.7658 62.7578 88.4784 63.1775 88.1726C63.5903 87.8682 64.2955 87.5721 65.1135 87.575C65.9316 87.5793 66.6203 87.8803 67.0159 88.1885C67.42 88.4981 67.557 88.7856 67.4823 88.8575Z" fill="#263238"/>
<path d="M54.197 89.6652C54.0297 89.8079 53.1784 89.0328 51.8722 88.9021C50.569 88.7521 49.5406 89.3261 49.4152 89.152C49.3535 89.0738 49.5344 88.8037 49.9849 88.5428C50.4271 88.2823 51.1584 88.06 51.9716 88.1468C52.7853 88.2351 53.4388 88.605 53.8011 88.9523C54.1705 89.301 54.2781 89.602 54.197 89.6652Z" fill="#263238"/>
<path d="M59.2528 98.9718C59.2465 98.897 60.0631 98.7557 61.3861 98.5859C61.7214 98.5512 62.0392 98.4842 62.0957 98.2556C62.1748 98.0129 62.0344 97.6517 61.8714 97.2615C61.5554 96.4497 61.225 95.5994 60.8783 94.7076C59.4993 91.0718 58.5004 88.0819 58.6475 88.0279C58.7946 87.9734 60.0318 90.8765 61.4107 94.5122C61.7426 95.4089 62.0604 96.2636 62.3619 97.0811C62.4892 97.4621 62.7077 97.8948 62.5365 98.3974C62.4463 98.6482 62.2003 98.83 61.9852 98.8884C61.7701 98.954 61.5815 98.9578 61.4156 98.9675C60.0839 99.0403 59.2576 99.0466 59.2528 98.9718Z" fill="#263238"/>
<path d="M60.1746 114.515C60.1746 114.515 53.7717 114.931 47.4256 111.121C47.4256 111.121 50.6336 117.709 60.1602 116.813L60.1746 114.515Z" fill="#6F4439"/>
<path d="M57.6068 101.44C57.1341 100.816 55.7286 99.8449 54.9067 99.9337C54.3366 99.9954 53.9594 100.408 53.6136 100.872C53.2677 101.336 53.63 102.613 53.9449 103.056C54.2999 103.554 54.9863 103.922 55.6128 103.744C56.2399 103.565 57.055 102.637 57.5672 102.225C57.7086 102.111 57.8537 101.993 57.942 101.836C58.0312 101.681 57.7158 101.57 57.6068 101.44Z" fill="#6F4439"/>
<path d="M55.1927 84.4963C55.0278 84.8387 53.7399 84.5372 52.1883 84.5657C50.6352 84.5628 49.3531 84.8855 49.1824 84.5464C49.1071 84.3843 49.3565 84.0723 49.8919 83.7795C50.4225 83.4867 51.2463 83.2408 52.1772 83.2321C53.1081 83.2253 53.9358 83.4573 54.4711 83.7414C55.0104 84.025 55.2651 84.3327 55.1927 84.4963Z" fill="#263238"/>
<path d="M67.017 83.2376C66.7864 83.5356 65.8811 83.227 64.793 83.2125C63.7053 83.1604 62.7836 83.4136 62.5713 83.102C62.4783 82.9506 62.6234 82.6515 63.0257 82.3689C63.4222 82.0872 64.0859 81.8572 64.834 81.8789C65.5816 81.9025 66.2298 82.1726 66.608 82.4779C66.9924 82.7847 67.1188 83.0919 67.017 83.2376Z" fill="#263238"/>
<path d="M39.5766 97.3762C39.5766 97.3762 46.3929 99.1251 49.3525 82.3706C50.3645 76.6415 55.3826 71.7898 55.3826 71.7898L53.2208 71.2568C53.2208 71.2568 40.1757 75.6547 39.9615 75.8327C39.7474 76.0106 36.9691 82.8457 36.9691 82.8457L39.5766 97.3762Z" fill="#263238"/>
<path d="M41.1999 96.6754C41.198 95.9668 40.3775 94.296 39.6777 94.187C37.8081 93.8967 34.4391 94.0481 34.4096 98.7957C34.3701 105.285 40.8936 103.986 40.9062 103.801C40.9158 103.655 41.2066 99.1232 41.1999 96.6754Z" fill="#FFBF9D"/>
<path d="M38.9305 101.329C38.902 101.308 38.8171 101.407 38.6252 101.494C38.4385 101.578 38.1173 101.635 37.7801 101.506C37.0957 101.25 36.5256 100.158 36.501 98.9882C36.488 98.3974 36.6153 97.8355 36.8275 97.371C37.0287 96.8978 37.3374 96.5674 37.6832 96.5086C38.0271 96.4314 38.2702 96.6393 38.3483 96.8221C38.4342 97.0044 38.3922 97.1337 38.4265 97.1448C38.4443 97.1616 38.5663 97.0372 38.5157 96.769C38.4896 96.6398 38.4144 96.4859 38.263 96.3605C38.1081 96.2327 37.8795 96.1671 37.6388 96.1912C37.1381 96.223 36.6848 96.6808 36.4518 97.1906C36.1913 97.7023 36.0341 98.3337 36.0491 98.9969C36.0823 100.305 36.7446 101.532 37.6813 101.81C38.1366 101.931 38.5186 101.796 38.7163 101.644C38.918 101.486 38.9527 101.341 38.9305 101.329Z" fill="#6F4439"/>
<path d="M43.962 93.9787C43.9582 93.9574 44.3175 93.9377 44.9214 93.7341C45.5219 93.5325 46.3578 93.0917 47.1585 92.2804C47.5564 91.8752 47.9437 91.3833 48.289 90.8117C48.6276 90.2363 48.9243 89.5823 49.1712 88.8708C49.6738 87.448 49.9589 85.8042 50.3269 84.0944C50.6959 82.3836 51.1083 80.7649 51.5776 79.3198C52.0396 77.8734 52.5688 76.6077 53.0791 75.5784C53.5908 74.5497 54.0818 73.7582 54.446 73.2295C54.624 72.9628 54.7812 72.7684 54.8806 72.6319C54.9828 72.4978 55.0388 72.4289 55.0436 72.4322C55.0484 72.4361 55.0016 72.5114 54.909 72.6522C54.8188 72.795 54.6708 72.9946 54.5019 73.2662C54.1561 73.804 53.6839 74.6013 53.1886 75.6315C52.6956 76.6618 52.1805 77.925 51.729 79.3676C51.2703 80.8083 50.8637 82.4226 50.4957 84.1301C50.1282 85.8346 49.8373 87.4856 49.3212 88.9229C49.0675 89.6411 48.7617 90.3019 48.4115 90.8846C48.0546 91.4629 47.6548 91.9592 47.2448 92.3658C46.419 93.1804 45.5581 93.6131 44.9431 93.7973C44.3233 93.9845 43.962 93.9787 43.962 93.9787Z" fill="#263238"/>
<path d="M55.5286 103.845C55.5421 103.779 54.9759 103.802 54.3705 103.272C54.0787 103.015 53.7941 102.613 53.7194 102.115C53.6417 101.623 53.8086 101.04 54.1935 100.6C54.425 100.332 54.7217 100.141 55.0241 100.046L54.9006 100.039C56.7393 100.804 57.8689 101.801 57.9321 101.72C57.9899 101.673 56.9327 100.536 55.0439 99.703L54.985 99.677L54.9204 99.6958C54.5456 99.8053 54.1848 100.034 53.9099 100.353C53.4531 100.875 53.2626 101.574 53.3774 102.172C53.4908 102.774 53.852 103.216 54.2027 103.479C54.9392 104.017 55.5513 103.878 55.5286 103.845Z" fill="#263238"/>
<path d="M29.1138 191.328C34.9616 193.911 41.6848 194.643 47.9899 193.382C52.5363 192.473 54.7464 193.535 59.3671 193.985C62.099 194.251 66.986 192.362 69.731 192.282C72.446 192.203 75.094 190.898 76.7373 188.83L71.1804 134.705L65.7763 120.362L60.1798 119.649C60.1798 119.649 60.6125 125.641 52.0328 126.17C43.4526 126.699 42.3847 119.852 42.3847 119.852C42.3847 119.852 26.0158 123.054 26.1542 123.554C26.2927 124.053 35.9258 178.165 35.9258 178.165L29.1138 191.328Z" fill="white"/>
<path d="M40.3987 117.878C40.6688 118.652 44.6659 161.238 45.071 172.473C45.4762 183.707 41.2659 213.904 41.2659 213.904L17.6119 213.737L27.2306 178.575L22.9349 123.723L36.6818 120.362L40.3987 117.878Z" fill="#0B622F"/>
<path opacity="0.3" d="M43.2449 162.099C43.2449 162.099 43.8652 172.28 40.3442 176.731C36.8232 181.182 33.4917 181.963 30.3127 182.228C28.106 182.413 26.3986 181.616 26.3986 181.616L28.0983 175.181L43.2449 162.099Z" fill="black"/>
<path d="M24.4126 123.362C24.4126 123.362 16.1344 125.915 15.0867 136.04C14.2349 144.279 19.4229 169.877 21.2823 173.495C23.9964 178.775 28.0557 182.212 36.3238 177.639C39.2158 176.04 42.3375 170.354 43.2877 161.704C44.5268 150.421 45.0714 137.074 45.0714 137.074L35.2115 135.524L30.2831 149.349L24.4126 123.362Z" fill="#0B622F"/>
<path d="M29.0675 179.735C29.0675 179.735 29.148 179.741 29.3062 179.741C29.4751 179.739 29.708 179.737 30.008 179.734C30.3162 179.725 30.7007 179.744 31.1459 179.66C31.3701 179.628 31.6108 179.594 31.8679 179.558C31.9962 179.537 32.1313 179.526 32.2658 179.495C32.3994 179.458 32.5369 179.42 32.6782 179.381C32.9618 179.302 33.2609 179.219 33.5749 179.132C33.8802 179.018 34.1918 178.875 34.5227 178.738C34.6847 178.663 34.8622 178.609 35.0214 178.511C35.1825 178.417 35.347 178.321 35.5148 178.223C35.6827 178.125 35.8534 178.025 36.0275 177.923C36.2021 177.822 36.355 177.682 36.5243 177.56C37.8739 176.574 39.167 175.123 40.2093 173.297C41.2502 171.473 42.0909 169.301 42.6152 166.889C43.1559 164.476 43.3932 161.848 43.6551 159.095C44.1461 153.582 44.5315 147.511 44.8851 141.137C44.9584 139.739 45.0303 138.355 45.1016 136.991L45.1074 136.878L44.9941 136.862C40.2499 136.188 35.7179 135.545 31.51 134.948L31.401 134.933L31.3798 135.041C30.9756 137.091 30.5863 139.065 30.2145 140.951C29.8629 142.841 29.4509 144.623 29.0467 146.301C28.2379 149.657 27.4898 152.602 26.9824 155.067C25.9454 159.996 25.8204 162.946 25.8204 162.946C25.8238 162.946 25.8315 162.901 25.8436 162.811C25.8561 162.712 25.8725 162.581 25.8933 162.413C25.9338 162.061 25.9917 161.54 26.0867 160.866C26.27 159.517 26.5825 157.551 27.1203 155.096C27.647 152.64 28.4115 149.702 29.2358 146.347C29.6473 144.67 30.0674 142.885 30.4253 140.996C30.8024 139.111 31.1975 137.136 31.6074 135.086L31.4772 135.178C35.6846 135.781 40.2156 136.43 44.9589 137.11L44.8518 136.98C44.7804 138.343 44.7076 139.726 44.6343 141.124C44.2807 147.496 43.9021 153.567 43.4246 159.076C43.1694 161.827 42.9398 164.45 42.4122 166.844C41.9004 169.242 41.0756 171.398 40.055 173.21C39.0325 175.022 37.7654 176.463 36.4404 177.448C36.274 177.57 36.124 177.709 35.9523 177.811C35.7811 177.913 35.6132 178.013 35.4482 178.111C35.2833 178.209 35.1217 178.306 34.9635 178.4C34.8068 178.499 34.6321 178.553 34.4725 178.629C34.1469 178.768 33.8397 178.913 33.5387 179.028C33.2286 179.119 32.9334 179.204 32.6536 179.286C32.5137 179.326 32.3777 179.366 32.2456 179.404C32.1124 179.436 31.9788 179.45 31.8515 179.472C31.5968 179.513 31.3581 179.55 31.1357 179.586C30.6939 179.677 30.3119 179.666 30.0051 179.683C29.7061 179.696 29.4736 179.707 29.3058 179.715C29.149 179.724 29.0675 179.735 29.0675 179.735Z" fill="#263238"/>
<path d="M26.5281 130.886C26.4606 130.901 27.0819 133.953 27.9158 137.702C28.7502 141.452 29.481 144.479 29.5485 144.463C29.616 144.449 28.9948 141.397 28.1608 137.647C27.3274 133.899 26.5961 130.871 26.5281 130.886Z" fill="#263238"/>
<path opacity="0.3" d="M79.497 214L67.7677 213.818C67.7677 213.818 58.6256 173.963 61.917 157.403" fill="black"/>
<path d="M72.7384 120.946C72.7384 120.946 78.3344 121.814 82.0045 127.675C85.3596 133.032 86.3908 153.628 86.3908 153.628L96.6794 138.446L107.232 144.554C107.232 144.554 94.1515 172.53 92.7976 175.457C89.3075 182.999 82.4077 181.802 77.1614 180.206C71.9156 178.61 75.5094 138.525 75.5094 138.525L72.7384 120.946Z" fill="#0B622F"/>
<path d="M75.4348 178.103C75.5679 178.132 84.163 213.476 84.163 213.476C84.163 214.365 72.4264 213.863 70.72 213.817C70.72 213.817 64.9315 191.744 63.2935 178.435C61.6555 165.125 60.1608 117.252 60.1608 117.252L64.4024 119.963L72.7376 120.946L78.1122 138.268C81.6867 149.788 81.2796 162.176 76.9575 173.437L75.4348 178.103Z" fill="#0B622F"/>
<path d="M63.1438 168.936C63.1477 168.938 63.1732 168.903 63.2195 168.831C63.2726 168.746 63.3382 168.64 63.4202 168.509C63.5827 168.219 63.8731 167.817 64.1451 167.244C64.7558 166.132 65.4759 164.433 66.113 162.256C66.7545 160.08 67.2441 157.413 67.5306 154.431C67.8321 151.449 67.9088 148.153 67.8885 144.7C67.9136 141.241 67.547 137.948 67.0526 134.998C66.5679 132.042 66.0161 129.405 65.5989 127.183C65.1764 124.962 64.8691 123.159 64.6916 121.907C64.5918 121.283 64.5382 120.795 64.4881 120.465C64.4649 120.313 64.4466 120.189 64.4316 120.09C64.4176 120.006 64.408 119.963 64.4037 119.964C64.3993 119.964 64.4003 120.008 64.4061 120.093C64.4143 120.193 64.4249 120.317 64.4379 120.471C64.4721 120.802 64.5098 121.293 64.5947 121.92C64.7423 123.177 65.0235 124.988 65.4243 127.215C65.8198 129.443 66.3532 132.084 66.8245 135.034C67.3054 137.983 67.6628 141.251 67.6377 144.702C67.6575 148.149 67.588 151.437 67.3005 154.408C67.0275 157.38 66.5582 160.037 65.9423 162.207C65.3307 164.378 64.6395 166.078 64.0583 167.199C63.8007 167.776 63.5253 168.185 63.3773 168.483C63.3044 168.619 63.2456 168.729 63.1983 168.817C63.1583 168.894 63.1399 168.934 63.1438 168.936Z" fill="#263238"/>
<path d="M77.5483 186.44C77.5527 186.439 77.5445 186.386 77.5232 186.284C77.4977 186.169 77.4649 186.021 77.4239 185.836C77.3265 185.425 77.1899 184.85 77.0168 184.119C76.6473 182.614 76.1206 180.47 75.4733 177.834L75.4709 177.887C76.2185 175.729 77.0404 173.188 77.8339 170.361C78.6201 167.534 79.3918 164.421 79.9339 161.112C80.2253 159.326 80.4385 157.552 80.4081 155.836C80.3931 154.123 80.2571 152.477 80.0868 150.916C79.7169 147.795 79.2085 145.013 78.7503 142.685C78.2781 140.375 77.8946 138.5 77.6255 137.181C77.4982 136.546 77.3983 136.045 77.3264 135.684C77.2937 135.525 77.2671 135.397 77.2459 135.295C77.2266 135.208 77.2145 135.163 77.2102 135.164C77.2059 135.164 77.2097 135.21 77.2208 135.299C77.2353 135.402 77.2536 135.532 77.2768 135.693C77.326 136.039 77.4128 136.547 77.53 137.2C77.7808 138.522 78.1372 140.402 78.5767 142.718C79.0122 145.049 79.5013 147.83 79.8577 150.941C80.0208 152.498 80.1515 154.137 80.163 155.837C80.1901 157.538 79.9773 159.288 79.687 161.071C79.1473 164.366 78.3837 167.473 77.6091 170.298C76.8277 173.122 76.0222 175.664 75.2944 177.826L75.2852 177.853L75.292 177.879C75.973 180.507 76.5272 182.644 76.916 184.145C77.1099 184.87 77.2628 185.441 77.3718 185.849C77.4234 186.031 77.4649 186.177 77.4972 186.291C77.5261 186.391 77.5435 186.441 77.5483 186.44Z" fill="#263238"/>
<path d="M80.5715 168.048C80.5889 168.049 80.6284 167.828 80.6853 167.428C80.7379 167.027 80.8325 166.451 80.9694 165.743C81.2405 164.328 81.7494 162.395 82.6012 160.368C83.4583 158.342 84.4876 156.628 85.3114 155.445C85.7223 154.854 86.0696 154.383 86.3195 154.066C86.5659 153.746 86.6966 153.563 86.6836 153.552C86.6706 153.541 86.5148 153.702 86.2442 154.004C85.9703 154.303 85.5993 154.759 85.1672 155.342C84.3004 156.506 83.2359 158.224 82.3701 160.27C81.5097 162.318 81.023 164.279 80.7953 165.712C80.6796 166.429 80.6115 167.013 80.5889 167.418C80.5609 167.822 80.5541 168.046 80.5715 168.048Z" fill="#263238"/>
<path d="M38.9818 88.9984C38.9818 89.2097 46.6779 112.669 46.6779 112.669L42.0373 120.433L40.5899 120.08L34.1194 98.5836C34.1194 98.5836 37.2198 89.2097 37.5724 88.9984C37.9245 88.7867 38.9818 88.9984 38.9818 88.9984Z" fill="#455A64"/>
<path d="M34.4356 125.83C34.4356 125.83 33.8664 120.903 32.9876 118.608C32.1083 116.314 32.296 114.866 32.296 113.506C32.296 112.441 33.1 110.518 33.1 110.518C33.1 110.518 35.2054 103.123 35.4639 101.934C35.7225 100.744 35.3665 98.4727 36.6596 98.5243C37.9523 98.5759 38.2629 99.5068 38.2629 101.265C38.2629 103.024 37.9007 103.644 37.9007 103.644C37.9007 103.644 40.2279 102.145 41.5206 102.248C42.8132 102.351 45.5543 103.282 45.5543 103.282C45.5543 103.282 46.5315 105.395 42.71 104.885C41.9344 104.782 40.6413 105.558 40.6413 105.558L45.0889 105.971L47.3129 108.764C47.3129 108.764 46.4857 110.367 44.0547 108.454L40.7966 108.299L39.1417 111.815L42.2484 109.973L46.3858 110.748L47.8217 113.506C47.8217 113.506 48.0369 114.504 46.7958 114.142C45.5548 113.78 44.8945 112.521 44.8945 112.521L42.6584 112.849L41.0035 115.021C41.0035 115.021 42.5031 121.899 42.2962 124.278C42.0892 126.657 41.469 128.777 41.469 128.777L41.2235 136.469L32.555 135.181L34.4356 125.83Z" fill="#FFBF9D"/>
<path d="M34.4343 125.83C34.4343 125.83 34.4179 125.882 34.3938 125.986C34.3692 126.097 34.3359 126.25 34.2921 126.449C34.2043 126.867 34.0769 127.471 33.9105 128.26C33.5821 129.857 33.1026 132.188 32.4896 135.169L32.4756 135.236L32.5441 135.247C34.9726 135.614 37.8984 136.056 41.2092 136.556L41.3061 136.571L41.3095 136.472C41.3876 134.148 41.4749 131.552 41.568 128.781L41.5642 128.806C41.8487 127.787 42.0735 126.726 42.2414 125.623C42.3181 125.069 42.401 124.514 42.416 123.933C42.4261 123.355 42.3875 122.776 42.3272 122.194C42.0817 119.866 41.6307 117.467 41.1156 114.997L41.0944 115.092C41.6081 114.419 42.1762 113.675 42.7507 112.921L42.674 112.967C43.3676 112.865 44.1355 112.753 44.9101 112.64L44.7866 112.577C45.1209 113.157 45.5936 113.684 46.2249 114.035C46.5442 114.2 46.8838 114.336 47.275 114.341C47.4631 114.343 47.7052 114.282 47.8374 114.087C47.9642 113.894 47.9724 113.685 47.9396 113.481L47.9372 113.468L47.9285 113.451C47.4795 112.587 46.989 111.644 46.4941 110.693L46.4666 110.64L46.4077 110.629C45.1035 110.384 43.6946 110.119 42.2708 109.852L42.2245 109.843L42.184 109.867C41.2024 110.449 40.1437 111.076 39.0768 111.709L39.2543 111.87C39.7795 110.754 40.3424 109.558 40.9092 108.354L40.7895 108.426C40.8088 108.427 40.8296 108.428 40.8503 108.429C41.923 108.48 42.989 108.531 44.0477 108.581L43.9763 108.554C44.4803 108.935 45.0186 109.303 45.6577 109.454C45.9712 109.536 46.318 109.548 46.6407 109.444C46.9624 109.334 47.2412 109.129 47.423 108.823L47.4631 108.755L47.4095 108.688C46.661 107.748 45.9191 106.817 45.185 105.896L45.1522 105.855L45.0997 105.85C43.5957 105.71 42.1131 105.573 40.6521 105.438L40.7037 105.664C41.1585 105.405 41.6462 105.174 42.1425 105.054C42.2664 105.026 42.3914 105.004 42.5129 105.001C42.6292 104.997 42.7526 105.013 42.8915 105.027C43.1578 105.055 43.4236 105.083 43.6922 105.08C44.2218 105.081 44.7832 105.053 45.2728 104.753C45.5121 104.605 45.7074 104.35 45.7585 104.063C45.8111 103.776 45.7706 103.498 45.6616 103.235L45.6428 103.189L45.5921 103.172C44.9226 102.95 44.257 102.745 43.5895 102.563C42.921 102.385 42.2587 102.21 41.5695 102.139C41.2097 102.108 40.8624 102.179 40.5349 102.27C40.2054 102.362 39.8905 102.484 39.5847 102.619C38.9721 102.889 38.3953 103.205 37.8396 103.552L37.9964 103.702C38.2076 103.247 38.2641 102.8 38.3195 102.345C38.3653 101.893 38.3764 101.444 38.3673 101C38.3576 100.555 38.3268 100.109 38.2139 99.6736C38.1092 99.2453 37.856 98.7958 37.4248 98.598C37.2179 98.4958 36.9931 98.4461 36.7746 98.4321C36.668 98.4153 36.547 98.4316 36.4312 98.4403C36.3183 98.4741 36.1973 98.504 36.1051 98.5831C35.9088 98.7225 35.7897 98.9333 35.7202 99.1368C35.6416 99.3423 35.6059 99.5516 35.5712 99.759C35.4482 100.587 35.5201 101.4 35.3025 102.15C34.47 105.195 33.706 107.99 33.0206 110.498L33.024 110.489C32.7925 111.064 32.5952 111.633 32.4404 112.201C32.3642 112.485 32.2981 112.768 32.2571 113.054C32.2113 113.342 32.2238 113.63 32.218 113.901C32.1847 115 32.2156 116.054 32.436 117.004C32.6319 117.961 33.024 118.78 33.2411 119.567C33.4668 120.355 33.6231 121.088 33.7552 121.746C34.0162 123.063 34.171 124.088 34.2757 124.78C34.3258 125.121 34.3639 125.382 34.3914 125.566C34.4165 125.74 34.4343 125.83 34.4343 125.83C34.4343 125.83 34.4314 125.738 34.4131 125.56C34.3914 125.375 34.3601 125.113 34.32 124.771C34.2298 124.076 34.089 123.049 33.8416 121.726C33.7157 121.065 33.5661 120.33 33.3452 119.534C33.1306 118.733 32.7467 117.918 32.561 116.974C32.3497 116.034 32.3251 115.002 32.3642 113.9C32.3714 113.621 32.3608 113.347 32.4061 113.073C32.4471 112.796 32.5137 112.518 32.5899 112.239C32.7447 111.681 32.9439 111.115 33.1745 110.549L33.1764 110.544L33.1774 110.54C33.8734 108.031 34.649 105.235 35.494 102.189C35.7193 101.412 35.6503 100.581 35.7723 99.7855C35.8379 99.4016 35.9267 98.9632 36.2248 98.749C36.369 98.6386 36.5547 98.6169 36.7558 98.6376C36.9574 98.6506 37.1557 98.6969 37.3303 98.7842C37.6906 98.9506 37.9057 99.323 38.006 99.7262C38.1107 100.131 38.1411 100.565 38.1493 101.001C38.157 101.438 38.1449 101.88 38.0996 102.32C38.0504 102.751 37.9766 103.215 37.8029 103.588L37.6404 103.936L37.9597 103.738C38.5018 103.4 39.0768 103.087 39.6749 102.825C40.2691 102.572 40.9121 102.327 41.5483 102.367C42.2033 102.435 42.8665 102.609 43.5273 102.786C44.1885 102.968 44.8527 103.173 45.5154 103.394L45.446 103.332C45.5323 103.54 45.569 103.794 45.5251 104.014C45.4831 104.239 45.3399 104.427 45.1421 104.552C44.7374 104.804 44.203 104.843 43.6951 104.838C43.4375 104.841 43.1785 104.813 42.9186 104.785C42.7946 104.774 42.6542 104.753 42.5052 104.758C42.3615 104.762 42.223 104.786 42.088 104.817C41.5483 104.948 41.0577 105.182 40.5783 105.454L40.2426 105.644L40.6299 105.68C42.0909 105.817 43.5736 105.955 45.077 106.095L44.9916 106.049C45.7252 106.971 46.4666 107.902 47.2147 108.842L47.2017 108.707C47.0685 108.93 46.8264 109.119 46.5645 109.205C46.2978 109.291 46.0002 109.284 45.7161 109.209C45.1402 109.075 44.6183 108.724 44.1321 108.355L44.0993 108.33L44.0602 108.328C43.002 108.278 41.9356 108.227 40.8629 108.176C40.8421 108.175 40.8214 108.174 40.8021 108.173L40.7182 108.169L40.6825 108.246C40.1157 109.45 39.5528 110.646 39.0281 111.762L38.8539 112.132L39.2051 111.923C40.272 111.29 41.3302 110.662 42.3118 110.08L42.2254 110.096C43.6493 110.362 45.0582 110.626 46.3629 110.87L46.2761 110.806C46.7719 111.757 47.2629 112.7 47.7129 113.563L47.7018 113.533C47.7264 113.674 47.712 113.846 47.6382 113.949C47.5677 114.054 47.4279 114.098 47.273 114.098C46.9595 114.098 46.6267 113.974 46.3417 113.823C45.7648 113.507 45.3056 112.996 45.0003 112.467L44.9574 112.392L44.8768 112.404C44.1022 112.518 43.3343 112.632 42.6412 112.734L42.5935 112.741L42.564 112.779C41.9906 113.533 41.4238 114.278 40.9111 114.953L40.8788 114.995L40.8899 115.048C41.4074 117.509 41.8622 119.907 42.1107 122.217C42.1719 122.794 42.211 123.368 42.2028 123.928C42.1902 124.486 42.1087 125.048 42.0344 125.593C41.8714 126.686 41.6495 127.746 41.3722 128.751L41.3683 128.764L41.3679 128.776C41.2844 131.548 41.2058 134.144 41.1359 136.468L41.2362 136.384C37.9235 135.901 34.9953 135.473 32.5648 135.119L32.6193 135.196C33.2068 132.207 33.666 129.868 33.981 128.267C34.1324 127.477 34.2486 126.871 34.3287 126.452C34.3649 126.253 34.3929 126.1 34.4131 125.988C34.43 125.883 34.4343 125.83 34.4343 125.83Z" fill="#6F4439"/>
<path d="M41.2304 105.632C41.2323 105.615 41.1079 105.585 40.8797 105.55C40.6516 105.519 40.3183 105.477 39.8992 105.495C39.4877 105.515 38.9576 105.601 38.4946 105.958C38.2539 106.148 38.1044 106.408 37.9525 106.664C37.8039 106.925 37.6679 107.2 37.5246 107.475C37.2565 108.016 36.8523 108.468 36.5387 108.908C36.2127 109.342 35.9281 109.744 35.7207 110.105C35.5133 110.464 35.3831 110.789 35.3739 111.034C35.3638 111.285 35.4844 111.392 35.4863 111.382C35.5095 111.369 35.4332 111.258 35.4709 111.044C35.5066 110.83 35.6513 110.535 35.8717 110.198C36.0921 109.859 36.3868 109.474 36.722 109.049C37.0452 108.615 37.4542 108.174 37.747 107.591C38.0407 107.046 38.2742 106.465 38.6383 106.139C39.0358 105.816 39.5171 105.713 39.9122 105.673C40.7153 105.609 41.2285 105.679 41.2304 105.632Z" fill="#6F4439"/>
<path d="M34.6234 107.407C34.6784 107.427 35.0319 106.29 35.9845 105.219C36.4389 104.668 37.0076 104.377 37.4171 104.117C37.829 103.862 38.0176 103.609 37.9906 103.589C37.9636 103.565 37.7494 103.756 37.3278 103.964C37.12 104.073 36.8634 104.194 36.5894 104.364C36.3116 104.534 36.0419 104.776 35.7969 105.053C35.3054 105.609 34.9842 106.202 34.8038 106.649C34.6234 107.099 34.5925 107.401 34.6234 107.407Z" fill="#6F4439"/>
<path d="M36.8023 115.461C36.8317 115.44 36.7299 115.263 36.7709 114.944C36.8119 114.626 36.905 114.177 37.0907 113.717C37.4558 112.784 38.0549 112.198 38.0013 112.146C37.9681 112.09 37.2508 112.628 36.8577 113.624C36.6609 114.114 36.591 114.589 36.5939 114.939C36.5963 115.304 36.7801 115.49 36.8023 115.461Z" fill="#6F4439"/>
<g opacity="0.3">
<path d="M67.6815 151.755C67.9883 154.661 68.2946 157.606 67.8489 160.495C67.4037 163.383 66.1135 166.257 63.7751 168.01C65.9239 163.176 67.6941 157.775 67.546 152.343" fill="black"/>
</g>
</g>
<defs>
<clipPath id="clip0_9737_10922">
<rect width="154.35" height="225" fill="white"/>
</clipPath>
</defs>
</svg>
