<svg width="223" height="223" viewBox="0 0 223 223" fill="none" xmlns="http://www.w3.org/2000/svg">
<path d="M201.252 210.25C201.252 210.314 158.467 210.366 105.701 210.366C52.917 210.366 10.1416 210.314 10.1416 210.25C10.1416 210.186 52.9175 210.134 105.701 210.134C158.467 210.134 201.252 210.186 201.252 210.25Z" fill="#263238"/>
<path d="M60.9253 112.498C60.2391 112.005 59.3908 111.806 58.6268 111.445C57.8632 111.084 57.1201 110.454 57.05 109.612C56.9463 108.368 58.321 107.428 58.4018 106.183C58.5153 104.428 56.1408 103.469 55.7931 101.745C55.5044 100.314 56.7208 98.9628 56.6682 97.5038C56.6161 96.0492 55.3554 94.9565 54.7783 93.6203C53.4372 90.5134 55.9115 86.5067 54.0376 83.6886C53.5341 82.9309 52.7769 82.3855 52.1351 81.7412C51.4932 81.0965 50.9347 80.2565 51.0112 79.3497L47.4933 77.7515C46.3154 75.9517 43.6439 75.8816 41.6342 76.6495C39.6245 77.417 37.8607 78.7995 35.7721 79.3157C34.7592 79.566 34.9043 78.0632 33.8817 78.2716C32.5372 78.5458 30.8835 80.1191 30.5007 81.4237C30.0897 82.8233 29.8039 84.3704 29.3072 85.7416C28.7584 87.2571 27.1324 88.3157 26.981 89.9198C26.8037 91.7927 28.7394 93.3179 28.7423 95.199C28.7457 97.2228 26.5115 99.0309 27.2235 100.926C27.6306 102.008 28.8796 102.589 29.3145 103.661C29.9149 105.141 28.7218 106.764 28.8309 108.358C28.9385 109.932 30.2607 111.116 31.5141 112.074C36.3097 115.739 41.6069 118.795 47.3151 120.756C49.784 121.605 52.3849 122.252 54.9848 122.016C57.5847 121.78 60.2006 120.536 61.5622 118.308C62.6808 116.478 62.6666 113.749 60.9253 112.498Z" fill="#263238"/>
<path d="M50.8744 78.4737C50.2365 75.9322 48.1542 73.8071 45.6269 73.1175C43.0991 72.428 40.226 73.2013 38.3862 75.0664C37.6363 75.8265 37.0408 76.7571 36.1545 77.3531C35.1538 78.0266 35.0077 77.8289 33.8852 78.2706C32.7628 78.7123 30.7078 81.8391 30.7424 83.0448L30.1804 88.3308C30.2262 89.5692 31.8171 90.266 32.9887 89.8623C34.1609 89.4586 34.9381 88.3629 35.558 87.2897C36.1774 86.2164 36.7583 85.0565 37.7722 84.3435C39.4532 83.1612 41.7317 83.5678 43.7448 83.9798C45.7579 84.3917 48.087 84.6859 49.658 83.3613C51.0113 82.2213 51.3054 80.1907 50.8744 78.4737Z" fill="#263238"/>
<path d="M51.9799 86.0214C51.7554 82.5801 49.4657 78.3624 46.037 78.733L35.3345 81.4634C34.2929 81.5759 33.5108 82.4666 33.5337 83.5141L34.737 109.334C34.7117 109.34 34.6883 109.345 34.663 109.35C34.663 109.35 39.0169 118.578 46.0939 116.354C47.4974 115.912 46.2235 112.432 46.5015 110.853L46.5741 110.862C46.577 110.675 46.5794 110.5 46.5814 110.321C46.8147 108.499 46.6238 106.775 46.6238 106.775C46.6437 104.691 46.6413 103.836 46.6428 103.855C46.6428 103.855 51.0381 103.115 51.9365 97.3765C52.3831 94.5224 52.2292 89.8446 51.9799 86.0214Z" fill="#FFBE9D"/>
<path d="M51.0985 90.4429C51.1131 90.8315 50.7961 91.1641 50.3905 91.187C49.9858 91.2094 49.6449 90.9138 49.6303 90.5252C49.6157 90.1366 49.9327 89.8035 50.3374 89.7811C50.7435 89.7577 51.0839 90.0543 51.0985 90.4429Z" fill="#263238"/>
<path d="M50.9664 88.4576C50.8753 88.5541 50.3173 88.1426 49.5255 88.1465C48.7346 88.1392 48.1547 88.5477 48.0685 88.4508C48.0261 88.408 48.1186 88.2346 48.3714 88.0501C48.6197 87.866 49.0444 87.6868 49.5376 87.6877C50.0309 87.6892 50.4463 87.8699 50.6849 88.0554C50.9284 88.2409 51.0112 88.4143 50.9664 88.4576Z" fill="#263238"/>
<path d="M43.6093 90.6881C43.6239 91.0767 43.3069 91.4093 42.9017 91.4322C42.4971 91.4546 42.1567 91.159 42.1421 90.7704C42.1275 90.3818 42.4445 90.0487 42.8492 90.0258C43.2538 90.0034 43.5947 90.3 43.6093 90.6881Z" fill="#263238"/>
<path d="M43.1995 88.6254C43.1085 88.7213 42.5494 88.3103 41.7581 88.3142C40.9673 88.3064 40.3873 88.715 40.3011 88.6185C40.2587 88.5757 40.3508 88.4023 40.604 88.2178C40.8528 88.0337 41.277 87.8545 41.7703 87.8555C42.2636 87.8574 42.6785 88.0381 42.9176 88.2231C43.1611 88.4087 43.2443 88.582 43.1995 88.6254Z" fill="#263238"/>
<path d="M46.0864 94.4883C46.0825 94.4435 46.5744 94.3573 47.372 94.2535C47.5741 94.2321 47.7655 94.1917 47.7991 94.0534C47.8463 93.9073 47.7616 93.6896 47.6627 93.4544C47.4714 92.9655 47.2717 92.4532 47.0613 91.9161C46.2262 89.7262 45.6214 87.9249 45.7095 87.8923C45.7981 87.8592 46.5471 89.6079 47.3818 91.7978C47.5829 92.3378 47.7752 92.8525 47.9578 93.3453C48.0348 93.5747 48.1672 93.8352 48.0645 94.1386C48.0104 94.2896 47.8624 94.3996 47.7329 94.4352C47.6033 94.4751 47.4894 94.4775 47.3895 94.4834C46.5875 94.5287 46.0898 94.5331 46.0864 94.4883Z" fill="#263238"/>
<path d="M46.6526 103.857C46.6526 103.857 42.7939 104.115 38.9649 101.825C38.9649 101.825 40.8378 105.761 46.5781 105.212L46.6526 103.857Z" fill="#EB996E"/>
<path d="M45.7496 96.3967C45.4642 96.0207 44.9646 95.8152 44.4693 95.8698C44.126 95.9073 43.7788 96.0738 43.5709 96.3543C43.3629 96.6343 43.3201 97.0317 43.51 97.298C43.7243 97.598 44.1708 97.6662 44.5487 97.5581C44.9266 97.45 45.2509 97.2006 45.5592 96.9518C45.6444 96.8831 45.7315 96.8111 45.7846 96.7171C45.8377 96.6231 45.8489 96.4999 45.7827 96.4225" fill="#EB996E"/>
<path d="M43.7549 95.0389C43.8835 95.0311 43.8874 95.8906 44.6242 96.4988C45.3595 97.109 46.2754 97.0106 46.2823 97.1309C46.2944 97.185 46.0787 97.2984 45.6921 97.3096C45.3127 97.3233 44.7586 97.203 44.3076 96.8309C43.8582 96.4579 43.6639 95.9593 43.6337 95.6067C43.601 95.2473 43.696 95.034 43.7549 95.0389Z" fill="#263238"/>
<path d="M43.55 87.2372C43.4726 87.4524 42.6817 87.3521 41.7531 87.4665C40.822 87.562 40.0736 87.8356 39.9499 87.6428C39.8948 87.5508 40.0249 87.3477 40.3273 87.1388C40.6272 86.9299 41.1054 86.7312 41.663 86.6679C42.2206 86.6056 42.7314 86.6932 43.0699 86.8301C43.4117 86.9664 43.5836 87.1349 43.55 87.2372Z" fill="#263238"/>
<path d="M50.6767 86.167C50.538 86.3472 49.9921 86.1617 49.3361 86.1544C48.6807 86.1242 48.1251 86.2781 47.997 86.0901C47.9405 85.999 48.0277 85.8189 48.2702 85.6479C48.5088 85.478 48.9086 85.3382 49.3595 85.3509C49.8099 85.364 50.201 85.5262 50.4294 85.7103C50.6616 85.8939 50.7381 86.0789 50.6767 86.167Z" fill="#263238"/>
<path d="M45.8499 77.2644L45.3634 76.6421C42.0545 77.0205 38.7972 77.8517 35.7118 79.1052C34.4778 79.6062 33.2283 80.2077 32.3844 81.2381C31.223 82.6566 31.0379 84.6123 30.9059 86.4408C30.4029 93.402 29.9861 100.572 32.1774 107.199C32.7043 106.351 33.7357 105.97 34.7155 105.781C35.6952 105.592 36.7237 105.528 37.6114 105.073C38.5854 104.574 39.2978 103.621 39.5705 102.561C39.8432 101.502 39.6903 100.351 39.2155 99.3654C38.6837 98.2619 37.7342 97.1974 37.9664 95.9946C38.2089 94.7358 39.6557 94.0141 39.9946 92.7777C40.5809 90.6404 37.5803 88.7218 38.188 86.5903C38.4125 85.8034 39.0996 85.2292 39.832 84.8645C40.5644 84.4998 41.3674 84.2962 42.109 83.9514C44.5843 82.8022 46.1654 79.9749 45.8499 77.2644Z" fill="#263238"/>
<path d="M74.8058 121.002L68.0959 131.444C68.0959 131.444 68.8429 132.682 70.4557 132.614C72.0685 132.546 74.2906 128.514 74.5555 127.697C74.8204 126.88 74.46 126.096 74.702 125.553C74.9441 125.011 74.8462 123.517 74.8462 123.517C74.8106 123.602 76.2959 121.615 74.8058 121.002Z" fill="#FFBE9D"/>
<path d="M66.2415 131.438L69.7379 117.615C69.8426 117.201 70.1119 116.847 70.4835 116.635L75.5635 113.739C75.8722 113.564 76.2637 113.648 76.4721 113.936C76.5934 114.103 76.6338 114.315 76.5832 114.516L72.8808 129.066L66.2415 131.438Z" fill="#263238"/>
<path d="M64.4771 142.153L72.5958 127.16L69.5391 123.199L58.1144 131.87L61.1068 140.109L64.4771 142.153Z" fill="#0B622F"/>
<path d="M72.6924 130.41C72.6686 130.399 72.802 130.203 72.8483 129.793C72.9018 129.388 72.8721 128.776 72.6783 128.061L72.6686 128.026L72.6871 127.994C72.8142 127.774 72.8755 127.494 72.7811 127.224C72.6949 126.955 72.4743 126.701 72.2147 126.519L72.1256 126.456L72.186 126.365C72.4733 125.936 72.7811 125.476 73.1049 124.992C73.1818 124.873 73.2856 124.742 73.3192 124.638C73.3576 124.525 73.344 124.4 73.2924 124.277C73.1872 124.031 72.9593 123.807 72.7231 123.634L72.6092 123.55L72.7007 123.445C72.9505 123.161 73.2271 122.879 73.5066 122.592C73.9907 122.078 74.4552 121.571 74.8453 121.049C75.0323 120.785 75.2193 120.525 75.342 120.253C75.4087 120.119 75.4496 119.981 75.4637 119.856C75.4749 119.729 75.4136 119.658 75.34 119.644L75.3118 119.638C75.194 119.605 75.0084 119.65 74.8521 119.709C74.6914 119.769 74.5361 119.844 74.3871 119.92C74.089 120.077 73.8134 120.246 73.5573 120.41C73.0455 120.739 72.6106 121.051 72.2522 121.309C71.9221 121.55 71.6469 121.752 71.4224 121.916C71.2296 122.057 71.1239 122.129 71.1161 122.119C71.1083 122.11 71.1984 122.019 71.3776 121.86C71.5563 121.702 71.8232 121.476 72.1704 121.2C72.5181 120.926 72.9447 120.598 73.4536 120.252C73.7087 120.08 73.9843 119.903 74.2887 119.735C74.4421 119.653 74.6018 119.572 74.7757 119.504C74.951 119.444 75.136 119.364 75.3863 119.423L75.3576 119.417C75.5918 119.433 75.7248 119.692 75.698 119.866C75.6824 120.043 75.6303 120.205 75.5602 120.352C75.4267 120.654 75.2363 120.921 75.0445 121.196C74.6476 121.734 74.1791 122.248 73.6917 122.767C73.4117 123.054 73.1336 123.336 72.8877 123.614L72.8653 123.426C73.138 123.631 73.3795 123.861 73.5208 124.183C73.5884 124.342 73.6123 124.539 73.5509 124.713C73.4828 124.895 73.3878 124.993 73.3075 125.12C72.9744 125.603 72.6583 126.062 72.3628 126.491L72.334 126.338C72.6345 126.559 72.8658 126.835 72.9685 127.165C73.0771 127.495 72.988 127.842 72.8361 128.083L72.8449 128.015C73.0245 128.765 73.026 129.39 72.9418 129.809C72.9023 130.018 72.839 130.172 72.7888 130.271C72.7324 130.367 72.6997 130.414 72.6924 130.41Z" fill="#0B9346"/>
<path d="M76.4723 113.936C76.481 113.951 76.332 114.055 76.0544 114.231C75.7769 114.406 75.3712 114.654 74.8667 114.954C74.3423 115.262 73.7433 115.614 73.0888 115.998C72.7504 116.193 72.3978 116.396 72.0336 116.606C71.6679 116.812 71.2763 117.011 70.9725 117.301C70.6676 117.585 70.5435 117.996 70.4383 118.398C70.3326 118.805 70.2299 119.198 70.132 119.576C69.9357 120.309 69.756 120.979 69.5988 121.566C69.4434 122.132 69.3134 122.589 69.218 122.903C69.1225 123.217 69.0616 123.389 69.0451 123.385C69.028 123.38 69.0563 123.201 69.1225 122.879C69.1882 122.557 69.292 122.094 69.4249 121.522C69.5666 120.931 69.7283 120.256 69.9055 119.518C69.9995 119.139 70.0969 118.744 70.1977 118.336C70.3 117.932 70.4339 117.458 70.7952 117.119C71.1439 116.789 71.5466 116.593 71.9138 116.388C72.2805 116.183 72.6345 115.984 72.9749 115.794C73.6386 115.427 74.2459 115.091 74.7776 114.798C75.2928 114.517 75.7121 114.294 76.0043 114.145C76.2974 113.996 76.4635 113.921 76.4723 113.936Z" fill="#455A64"/>
<path d="M73.1042 118.663C72.9781 118.964 72.9635 119.244 73.0716 119.29C73.1797 119.335 73.3696 119.128 73.4958 118.827C73.6219 118.526 73.6365 118.246 73.5284 118.2C73.4203 118.155 73.2304 118.362 73.1042 118.663Z" fill="white"/>
<path d="M47.8259 110.28C51.3506 111.552 54.2256 114.172 55.8199 117.563L66.7201 140.748L76.1083 144.556L67.8421 146.938L60.4792 141.54L47.8259 110.28Z" fill="#0B622F"/>
<path d="M67.8405 146.937L63.8853 149.986L44.155 129.691L32.875 109.317L34.1791 105.528L42.8996 109.16L46.0225 113.775L46.7189 107.918L47.2789 108.711L48.189 111.179C48.189 111.179 56.7523 118.303 58.5998 123.952C60.142 128.666 59.6595 138.407 60.5983 141.054L67.8405 146.937Z" fill="#FAFAFA"/>
<path d="M30.7649 109.053C30.6329 109.45 22.3302 112.785 21.9338 115.692C21.5374 118.599 27.9001 141.077 27.9001 141.077L37.9861 149.987H63.8867L55.6702 134.604C53.8991 131.288 51.662 128.243 49.0216 125.568C46.5902 123.104 43.6475 120.056 42.1331 118.236C40.4915 116.264 33.5318 107.058 33.5318 107.058L30.7649 109.053Z" fill="#0B622F"/>
<path d="M35.9613 109.973C35.9774 109.942 36.5369 110.196 37.429 110.631C38.3206 111.067 39.5449 111.684 40.8894 112.38C41.4236 112.659 41.9378 112.928 42.415 113.177L42.2397 113.292C42.172 112.187 42.2777 111.236 42.4038 110.578C42.5304 109.918 42.6643 109.545 42.6882 109.552C42.7189 109.559 42.6356 109.944 42.5519 110.601C42.4681 111.258 42.397 112.194 42.4798 113.276L42.4963 113.49L42.3045 113.391C41.8253 113.146 41.3096 112.881 40.773 112.606C39.4285 111.91 38.2174 111.267 37.3467 110.791C36.4755 110.314 35.9452 110.004 35.9613 109.973Z" fill="#263238"/>
<path d="M55.9232 130.473C55.9076 130.482 55.761 130.247 55.5087 129.815C55.237 129.343 54.8811 128.725 54.452 127.981C53.5633 126.43 52.3298 124.291 50.9342 121.95C49.5371 119.607 48.2423 117.505 47.3005 115.986C46.8491 115.255 46.4751 114.648 46.1892 114.184C45.9292 113.757 45.7924 113.516 45.807 113.507C45.8216 113.498 45.9862 113.72 46.272 114.131C46.5579 114.541 46.9616 115.142 47.4519 115.89C48.4332 117.386 49.7533 119.475 51.1524 121.82C52.5495 124.165 53.7601 126.32 54.6088 127.894C55.0335 128.681 55.3704 129.322 55.5954 129.769C55.8209 130.214 55.9387 130.465 55.9232 130.473Z" fill="#263238"/>
<g opacity="0.3">
<path d="M51.936 146.143C53.4408 146.398 54.984 146.654 56.4833 146.368C57.9827 146.082 59.4528 145.138 59.9227 143.686C60.0698 143.231 60.1336 142.712 60.4847 142.388C61.0637 141.853 61.9865 142.182 62.772 142.11C63.6485 142.03 64.4004 141.403 64.8571 140.65C65.3139 139.897 65.5243 139.026 65.7288 138.169C65.8296 137.746 65.9314 137.313 65.8832 136.881C65.835 136.449 65.6061 136.011 65.2097 135.832C64.6166 135.564 63.9475 135.954 63.4196 136.334C59.1499 139.41 55.2576 142.973 51.377 146.528" fill="black"/>
</g>
<path d="M61.6079 128.984C61.6079 128.984 63.0931 125.576 63.8849 125.103C64.6767 124.63 68.6148 122.334 68.6148 122.334L68.1074 124.208L71.9564 121.535C72.4297 121.217 75.1786 118.719 75.666 119.694C76.0172 120.396 73.7727 122.245 73.4718 122.657C72.7199 123.686 72.9697 123.591 72.9697 123.591C72.9697 123.591 73.7849 124.081 73.3754 124.808C72.9658 125.535 72.2763 126.426 72.2763 126.426C72.2763 126.426 73.3476 126.808 72.7224 128.2C72.7224 128.2 73.0072 128.949 72.8309 129.988C72.6542 131.027 70.7769 133.001 70.7769 133.001L61.4087 137.464L57.6309 131.051L61.6079 128.984Z" fill="#FFBE9D"/>
<path d="M39.7912 122.577L45.7983 135.403L59.1217 129.615C59.1217 129.615 64.6511 132.841 63.8852 136.366L51.8815 146.227C49.6088 148.094 46.6705 148.948 43.7511 148.591C40.6161 148.207 37.8082 146.464 36.0737 143.824L27.3848 130.601L22.5268 122.66C20.972 120.119 20.9715 116.845 22.7304 114.441C23.2105 113.785 23.7822 113.236 24.4469 112.831C26.6149 111.511 33.0608 110.938 39.7912 122.577Z" fill="#0B622F"/>
<path d="M69.3416 123.318C69.3762 123.374 68.5002 123.977 67.385 124.665C66.2699 125.353 65.3383 125.866 65.3037 125.81C65.2691 125.755 66.1452 125.151 67.2603 124.463C68.3755 123.775 69.307 123.262 69.3416 123.318Z" fill="#0B9346"/>
<path d="M73.0957 123.201C73.1405 123.249 72.3575 124.094 71.3465 125.089C70.3356 126.084 69.4781 126.854 69.4308 126.808C69.3841 126.762 70.1666 125.917 71.18 124.92C72.1934 123.923 73.0509 123.153 73.0957 123.201Z" fill="#0B9346"/>
<path d="M72.5929 126.09C72.6426 126.132 72.2754 126.645 71.7724 127.236C71.2693 127.827 70.8213 128.271 70.7712 128.228C70.721 128.186 71.0887 127.673 71.5917 127.082C72.0948 126.491 72.5432 126.047 72.5929 126.09Z" fill="#0B9346"/>
<path d="M72.7658 128.038C72.816 128.082 72.609 128.398 72.3456 128.776C72.0811 129.154 71.8552 129.456 71.7967 129.424C71.7403 129.394 71.8781 129.029 72.1513 128.64C72.423 128.25 72.7176 127.995 72.7658 128.038Z" fill="#0B9346"/>
<path d="M49.8346 147.499C49.8327 147.497 49.8531 147.477 49.8955 147.44C49.9466 147.397 50.0085 147.345 50.0864 147.28C50.2685 147.133 50.5198 146.931 50.8412 146.671C51.519 146.134 52.4915 145.364 53.7216 144.39C56.2212 142.43 59.7643 139.652 63.9931 136.336L63.9503 136.42C63.9517 135.766 63.8358 135.097 63.5729 134.456C63.2967 133.823 62.9189 133.218 62.467 132.65C61.5427 131.533 60.3706 130.537 59.0597 129.722L59.1712 129.729C56.9653 130.689 54.6497 131.695 52.2729 132.729C50.0703 133.685 47.9204 134.618 45.8484 135.518L45.7412 135.564L45.6881 135.46C43.9195 131.982 42.2896 128.707 40.632 125.864C39.8115 124.438 38.9953 123.115 38.2279 121.887C37.4589 120.659 36.7577 119.515 36.0419 118.531C34.6419 116.532 33.069 115.311 31.8915 114.683C31.6032 114.512 31.3363 114.382 31.105 114.271C30.8767 114.153 30.6775 114.066 30.5158 113.999C30.3644 113.932 30.2441 113.879 30.1516 113.837C30.0698 113.8 30.0289 113.779 30.0303 113.776C30.0303 113.776 30.7408 113.978 31.9343 114.607C32.5284 114.922 33.236 115.364 33.9679 115.997C34.7066 116.621 35.4473 117.451 36.1724 118.437C36.9019 119.422 37.6138 120.563 38.39 121.786C39.1658 123.01 39.9907 124.331 40.8195 125.756C42.4937 128.599 44.1362 131.875 45.9092 135.348L45.749 135.291C47.8206 134.39 49.9695 133.455 52.1716 132.498C54.5494 131.466 56.8654 130.461 59.0723 129.503L59.1322 129.477L59.1843 129.509C60.5274 130.348 61.7049 131.354 62.651 132.501C63.1122 133.084 63.5008 133.709 63.7857 134.368C64.0574 135.036 64.1786 135.74 64.1728 136.429L64.1723 136.48L64.1299 136.513C59.8783 139.798 56.3152 142.552 53.8024 144.494C52.5563 145.447 51.5707 146.201 50.884 146.726C50.5534 146.974 50.2953 147.168 50.1083 147.309C50.026 147.368 49.9603 147.416 49.9067 147.455C49.8609 147.486 49.8366 147.501 49.8346 147.499Z" fill="#263238"/>
<path d="M44.9903 139.436C44.9207 139.407 45.2888 138.491 45.4987 137.304C45.7174 136.12 45.6935 135.133 45.769 135.13C45.8328 135.121 45.9725 136.128 45.748 137.35C45.5309 138.573 45.0468 139.467 44.9903 139.436Z" fill="#263238"/>
<path d="M118.292 177.114L125.269 185.855C125.269 185.855 136.497 181.698 137.945 183.188L121.482 197.326L110.052 184.153L118.292 177.114Z" fill="#555555"/>
<g opacity="0.6">
<path d="M119.565 189.515C119.321 189.876 119.409 190.423 119.759 190.681C120.109 190.94 120.667 190.856 120.917 190.499C121.167 190.143 121.082 189.482 120.705 189.265C120.328 189.048 119.679 189.182 119.522 189.588" fill="white"/>
</g>
<g opacity="0.6">
<path d="M121.481 197.325L120.381 195.953L136.576 182.911C136.576 182.911 137.583 182.6 137.944 183.188L121.481 197.325Z" fill="white"/>
</g>
<path d="M125.47 185.541C125.537 185.624 125.166 186.005 124.992 186.604C124.803 187.197 124.898 187.721 124.797 187.753C124.709 187.801 124.417 187.217 124.64 186.497C124.856 185.774 125.424 185.453 125.47 185.541Z" fill="#263238"/>
<path d="M127.806 184.773C127.892 184.836 127.661 185.271 127.68 185.845C127.682 186.421 127.929 186.847 127.846 186.912C127.781 186.99 127.321 186.567 127.311 185.852C127.295 185.138 127.739 184.698 127.806 184.773Z" fill="#263238"/>
<path d="M130.557 185.999C130.498 186.079 130.042 185.773 129.87 185.156C129.694 184.54 129.924 184.041 130.015 184.079C130.118 184.106 130.076 184.552 130.225 185.057C130.362 185.564 130.63 185.923 130.557 185.999Z" fill="#263238"/>
<path d="M123.656 183.726C123.685 183.829 123.221 184.035 122.793 184.455C122.357 184.868 122.134 185.324 122.033 185.291C121.937 185.273 122.026 184.679 122.538 184.19C123.045 183.698 123.642 183.63 123.656 183.726Z" fill="#263238"/>
<g opacity="0.3">
<path d="M119.671 178.846L120.917 180.402L112.763 187.277L111.583 185.924L119.671 178.846Z" fill="black"/>
</g>
<path d="M122.213 181.988C122.242 182.02 121.967 182.343 121.384 182.692C121.094 182.865 120.725 183.038 120.294 183.168C120.079 183.232 119.848 183.286 119.605 183.323C119.488 183.34 119.356 183.367 119.19 183.343C119.029 183.336 118.795 183.166 118.786 182.947C118.761 182.749 118.864 182.566 118.98 182.461C119.098 182.353 119.217 182.293 119.326 182.238C119.547 182.125 119.771 182.039 119.99 181.974C120.427 181.847 120.838 181.808 121.178 181.82C121.864 181.846 122.252 182.034 122.238 182.073C122.224 182.131 121.822 182.039 121.183 182.081C120.864 182.102 120.488 182.165 120.091 182.298C119.894 182.366 119.692 182.451 119.493 182.559C119.279 182.663 119.13 182.789 119.152 182.905C119.161 182.949 119.169 182.962 119.249 182.982C119.327 182.996 119.437 182.982 119.554 182.966C119.781 182.936 119.998 182.893 120.203 182.841C120.613 182.737 120.971 182.599 121.263 182.462C121.847 182.188 122.177 181.943 122.213 181.988Z" fill="#263238"/>
<path d="M122.208 182.194C122.19 182.231 121.783 182.079 121.307 181.584C121.071 181.338 120.829 181.002 120.644 180.585C120.552 180.376 120.476 180.148 120.424 179.904C120.381 179.659 120.312 179.34 120.593 179.036C120.75 178.89 120.995 178.901 121.135 178.971C121.285 179.035 121.378 179.122 121.479 179.2C121.674 179.366 121.833 179.558 121.956 179.755C122.206 180.149 122.312 180.564 122.336 180.909C122.38 181.612 122.127 181.996 122.097 181.974C122.036 181.957 122.183 181.561 122.076 180.94C122.024 180.634 121.903 180.274 121.672 179.941C121.557 179.775 121.416 179.615 121.248 179.478C121.072 179.325 120.885 179.24 120.835 179.314C120.752 179.383 120.726 179.635 120.778 179.832C120.821 180.052 120.883 180.261 120.958 180.454C121.11 180.84 121.31 181.164 121.505 181.414C121.897 181.917 122.241 182.144 122.208 182.194Z" fill="#263238"/>
<path d="M110.717 204.061L110.283 215.496C110.283 215.496 121.761 219.777 121.887 221.899L99.6839 221.855L99.6279 204.009L110.717 204.061Z" fill="#555555"/>
<g opacity="0.6">
<path d="M103.414 214.519C102.984 214.636 102.686 215.118 102.784 215.553C102.883 215.987 103.371 216.294 103.803 216.185C104.235 216.076 104.611 215.508 104.463 215.087C104.316 214.667 103.724 214.337 103.331 214.547" fill="white"/>
</g>
<g opacity="0.6">
<path d="M99.6785 221.855L99.7433 220.056L121.008 220.771C121.008 220.771 121.995 221.202 121.882 221.899L99.6785 221.855Z" fill="white"/>
</g>
<path d="M110.644 215.383C110.64 215.491 110.098 215.539 109.564 215.887C109.021 216.22 108.745 216.689 108.645 216.646C108.545 216.625 108.708 215.977 109.362 215.568C110.013 215.153 110.668 215.283 110.644 215.383Z" fill="#263238"/>
<path d="M112.972 216.352C112.997 216.457 112.527 216.641 112.157 217.098C111.775 217.545 111.681 218.041 111.573 218.036C111.471 218.053 111.397 217.418 111.867 216.857C112.332 216.293 112.97 216.249 112.972 216.352Z" fill="#263238"/>
<path d="M114.284 219.141C114.185 219.164 114.035 218.622 114.315 218.029C114.59 217.434 115.102 217.2 115.148 217.291C115.208 217.38 114.879 217.698 114.657 218.189C114.423 218.673 114.391 219.131 114.284 219.141Z" fill="#263238"/>
<path d="M110.453 212.766C110.407 212.865 109.91 212.714 109.297 212.754C108.684 212.782 108.207 212.987 108.15 212.894C108.087 212.816 108.554 212.416 109.276 212.378C109.999 212.335 110.507 212.681 110.453 212.766Z" fill="#263238"/>
<g opacity="0.3">
<path d="M110.627 206.325L110.553 208.363L99.6402 208.243L99.63 206.406L110.627 206.325Z" fill="black"/>
</g>
<path d="M110.496 210.458C110.497 210.502 110.069 210.569 109.384 210.45C109.043 210.39 108.642 210.278 108.221 210.09C108.011 209.996 107.796 209.883 107.583 209.75C107.481 209.684 107.36 209.618 107.248 209.488C107.128 209.375 107.061 209.087 107.199 208.911C107.313 208.741 107.515 208.667 107.675 208.664C107.839 208.659 107.971 208.692 108.092 208.722C108.339 208.783 108.571 208.866 108.783 208.961C109.207 209.155 109.551 209.4 109.807 209.636C110.321 210.114 110.496 210.519 110.459 210.54C110.41 210.576 110.16 210.236 109.637 209.841C109.376 209.645 109.042 209.441 108.646 209.28C108.448 209.201 108.234 209.132 108.008 209.082C107.773 209.02 107.573 209.018 107.513 209.122C107.491 209.162 107.488 209.178 107.537 209.247C107.588 209.31 107.683 209.373 107.783 209.438C107.98 209.567 108.177 209.678 108.37 209.775C108.757 209.968 109.127 210.1 109.444 210.189C110.08 210.368 110.498 210.399 110.496 210.458Z" fill="#263238"/>
<path d="M110.349 210.611C110.31 210.628 110.096 210.239 110.058 209.537C110.04 209.188 110.077 208.766 110.212 208.32C110.28 208.097 110.374 207.869 110.496 207.645C110.626 207.426 110.786 207.132 111.206 207.085C111.426 207.077 111.608 207.249 111.67 207.396C111.743 207.547 111.758 207.675 111.784 207.804C111.824 208.064 111.819 208.318 111.783 208.553C111.712 209.025 111.518 209.418 111.305 209.701C110.87 210.275 110.418 210.404 110.408 210.367C110.372 210.313 110.751 210.104 111.084 209.552C111.248 209.28 111.394 208.921 111.438 208.508C111.46 208.303 111.457 208.084 111.419 207.866C111.385 207.63 111.297 207.439 111.208 207.463C111.097 207.461 110.909 207.638 110.818 207.826C110.704 208.026 110.613 208.229 110.542 208.429C110.402 208.83 110.34 209.214 110.324 209.538C110.293 210.189 110.408 210.595 110.349 210.611Z" fill="#263238"/>
<path d="M99.454 149.987L121.427 179.188L111.149 188.016L100.568 174.18L99.454 149.987Z" fill="#263238"/>
<path d="M52.9316 151.383C52.9316 151.383 88.2818 140.614 91.5201 140.75C94.7584 140.884 100.904 152.577 100.904 152.577L90.9801 152.218C88.4337 158.465 83.7297 164.896 78.432 171.377L58.1387 170.433L52.9316 151.383Z" fill="#263238"/>
<path d="M81.8273 142.875C81.8473 142.942 78.2136 144.081 73.7125 145.419C69.2101 146.757 65.5447 147.787 65.5247 147.72C65.5048 147.653 69.1375 146.514 73.64 145.175C78.1415 143.838 81.8073 142.808 81.8273 142.875Z" fill="#263238"/>
<path d="M90.0435 152.03H99.9688C104.922 152.03 109.335 155.156 110.98 159.828C111.754 162.027 112.094 164.355 111.981 166.684L111.208 207.06H97.8466L97.607 194.157L95.9178 169.626L84.3514 170.115L77.7969 169.707L90.0435 152.03Z" fill="#263238"/>
<path d="M90.3364 151.828C90.3534 151.833 90.2862 152.136 90.1494 152.682C90.0252 153.231 89.7807 154.009 89.4477 154.959C89.0844 155.897 88.6354 157.016 87.9736 158.175C87.3269 159.34 86.5171 160.568 85.5568 161.77C83.6202 164.165 81.592 166.073 80.1588 167.476C79.4576 168.15 78.8791 168.705 78.4447 169.123C78.0376 169.51 77.8068 169.718 77.7946 169.706C77.782 169.694 77.9894 169.462 78.3751 169.053C78.7593 168.643 79.3281 168.063 80.0327 167.348C81.4337 165.913 83.438 163.987 85.3586 161.613C87.2763 159.233 88.557 156.758 89.2801 154.895C89.6327 153.959 89.902 153.194 90.0544 152.654C90.22 152.119 90.3193 151.824 90.3364 151.828Z" fill="#455A64"/>
<path d="M102.478 152.303C102.474 152.341 101.786 152.278 100.675 152.215C99.564 152.151 98.0271 152.106 96.3296 152.142C94.631 152.174 93.0956 152.275 91.9839 152.351C90.8722 152.429 90.1841 152.48 90.1797 152.443C90.1778 152.426 90.3472 152.391 90.656 152.342C90.9647 152.293 91.4127 152.235 91.9678 152.172C93.0781 152.051 94.6179 151.921 96.3242 151.889C98.0301 151.853 99.5762 151.927 100.688 152.037C101.245 152.09 101.693 152.149 102.002 152.199C102.311 152.249 102.481 152.285 102.478 152.303Z" fill="#455A64"/>
<path d="M97.7896 199.683C97.7808 199.683 97.7687 199.568 97.7536 199.346C97.7399 199.1 97.7219 198.779 97.6995 198.38C97.6606 197.512 97.607 196.305 97.5408 194.827C97.4093 191.827 97.2276 187.682 96.9408 183.11C96.6521 178.536 96.3122 174.401 96.0667 171.408C95.9469 169.933 95.849 168.729 95.7784 167.863C95.7507 167.464 95.7283 167.144 95.7108 166.898C95.6981 166.677 95.6957 166.56 95.7044 166.56C95.7132 166.559 95.7327 166.674 95.7619 166.893C95.7911 167.138 95.8296 167.457 95.8768 167.853C95.9669 168.718 96.092 169.92 96.2454 171.391C96.5371 174.381 96.9053 178.516 97.1945 183.094C97.4814 187.669 97.6347 191.817 97.7205 194.82C97.7531 196.3 97.7794 197.507 97.7989 198.377C97.8013 198.776 97.8037 199.098 97.8052 199.345C97.8032 199.566 97.7984 199.682 97.7896 199.683Z" fill="#263238"/>
<path d="M112 165.127C112.07 165.128 112.023 174.38 111.894 185.789C111.766 197.202 111.605 206.45 111.535 206.45C111.465 206.449 111.512 197.199 111.641 185.786C111.769 174.377 111.93 165.127 112 165.127Z" fill="#455A64"/>
<path d="M101.097 163.619C101.121 163.696 99.7284 164.046 98.2476 164.965C96.7575 165.869 95.8152 166.952 95.7568 166.896C95.7329 166.876 95.9374 166.579 96.3411 166.161C96.7434 165.742 97.3574 165.214 98.1151 164.748C98.8738 164.284 99.6223 163.976 100.177 163.807C100.733 163.637 101.09 163.589 101.097 163.619Z" fill="#263238"/>
<g opacity="0.3">
<path d="M77.7941 169.71C80.4884 170.208 83.4487 169.383 85.7569 167.942C88.0651 166.502 89.7739 164.18 90.4313 161.591C90.7264 160.427 90.8164 159.222 91.1096 158.059C91.4032 156.895 91.9384 155.731 92.9167 155.003C94.0479 154.161 96.8309 153.624 97.6602 152.498C97.6602 152.328 94.3611 152.71 93.2537 152.771C92.0485 152.837 90.0271 153.143 90.068 153.001C90.068 153.001 89.2611 155.83 88.9027 156.445C86.4932 160.578 81.2096 166.651 77.7941 169.71Z" fill="black"/>
</g>
<path d="M22.7051 198.292L26.4615 222.869H30.1892L28.3539 198.385L22.7051 198.292Z" fill="#263238"/>
<path d="M88.8271 198.385V222.869H92.7623L94.2271 198.292L88.8271 198.385Z" fill="#263238"/>
<path d="M22.0373 122.336C22.0373 122.336 16.7742 122.545 15.1619 124.753C12.3209 128.644 13.9172 132.019 13.7589 133.169C13.6007 134.32 22.7035 198.293 22.7035 198.293H26.4507L94.2268 198.919L97.4787 191.01L95.9146 169.626L77.7937 169.707C77.7937 169.707 70.3733 148.406 63.8855 146.982C59.4921 146.018 49.1729 146.36 42.9675 146.681C39.869 146.841 36.9214 145.339 35.236 142.734L22.0373 122.336Z" fill="#455A64"/>
<path d="M82.1084 195.779C82.1084 195.779 81.7354 195.828 81.0147 195.862C80.2949 195.883 79.2319 195.916 77.8577 195.928C75.1097 195.965 71.12 195.978 66.1511 195.974C56.2136 195.966 42.3609 195.888 26.6992 195.752L26.5979 195.751L26.5775 195.652C26.296 194.311 26.0068 192.935 25.7131 191.535C25.4321 190.133 25.1463 188.707 24.8585 187.27C21.4561 169.924 19.4615 154.031 18.3892 142.505C17.8501 136.741 17.5273 132.067 17.3227 128.837C17.2341 127.227 17.1654 125.974 17.1182 125.115C17.0982 124.695 17.0831 124.373 17.0724 124.147C17.0637 123.929 17.0656 123.817 17.0656 123.817C17.0656 123.817 17.0812 123.928 17.0982 124.145C17.1148 124.372 17.1382 124.693 17.1689 125.112C17.2268 125.971 17.312 127.222 17.4211 128.83C17.6558 132.058 18.0059 136.728 18.5674 142.488C19.685 154.005 21.7064 169.885 25.1068 187.221C25.3942 188.657 25.6795 190.082 25.9605 191.483C26.2536 192.882 26.5419 194.259 26.8229 195.599L26.7012 195.499C42.358 195.621 56.2073 195.728 66.1511 195.805C71.1132 195.818 75.1005 195.829 77.8562 195.836C79.2236 195.827 80.2837 195.819 81.0122 195.814C81.3721 195.814 81.6433 195.788 81.8279 195.784C82.0129 195.777 82.1084 195.779 82.1084 195.779Z" fill="#263238"/>
<path d="M81.3904 198.799C81.3816 198.798 81.3918 198.693 81.4181 198.495C81.4512 198.271 81.4941 197.985 81.5462 197.632C81.6071 197.258 81.6801 196.8 81.739 196.266C81.7999 195.732 81.8949 195.126 81.9426 194.451C82.0039 193.777 82.0726 193.039 82.1013 192.244C82.1549 191.45 82.1573 190.6 82.169 189.706C82.1588 187.918 82.0638 185.952 81.8301 183.902C81.5842 181.852 81.2224 179.917 80.8274 178.173C80.4184 176.431 79.9762 174.88 79.5565 173.594C79.3627 172.945 79.144 172.372 78.9711 171.863C78.7997 171.353 78.6346 170.92 78.4988 170.567C78.3751 170.232 78.2748 169.96 78.1964 169.748C78.1297 169.56 78.0985 169.459 78.1068 169.456C78.1151 169.452 78.1618 169.546 78.2436 169.729C78.3337 169.937 78.4486 170.202 78.5908 170.531C78.7413 170.879 78.9205 171.308 79.1046 171.815C79.2906 172.321 79.5214 172.89 79.7274 173.538C80.1705 174.822 80.6322 176.374 81.0553 178.12C81.4649 179.869 81.835 181.813 82.0823 183.873C82.3176 185.934 82.4057 187.91 82.4033 189.707C82.3848 190.606 82.375 191.459 82.3117 192.256C82.2742 193.054 82.1944 193.794 82.1218 194.47C82.0629 195.147 81.9548 195.753 81.8803 196.286C81.8082 196.821 81.7205 197.277 81.6446 197.649C81.573 197.999 81.5145 198.283 81.4693 198.505C81.4259 198.7 81.3991 198.801 81.3904 198.799Z" fill="#263238"/>
<path d="M31.7268 152.968C31.7215 152.961 31.816 152.882 32.001 152.737C32.208 152.58 32.4797 152.372 32.8191 152.113C33.0002 151.977 33.1989 151.828 33.4151 151.666C33.6426 151.518 33.8992 151.37 34.1704 151.205C34.7183 150.884 35.3216 150.477 36.054 150.152C36.4148 149.976 36.7917 149.793 37.1838 149.603C37.5753 149.409 38.0087 149.267 38.443 149.087C38.8833 148.922 39.3283 148.72 39.8065 148.57C40.2847 148.419 40.7766 148.264 41.2806 148.104C43.3107 147.517 45.5853 146.993 48.0094 146.705C50.4301 146.399 52.7564 146.255 54.8703 146.289C55.928 146.27 56.9306 146.356 57.8695 146.39C58.8054 146.477 59.6795 146.537 60.4708 146.649C62.0564 146.855 63.3254 147.118 64.1922 147.332C64.6037 147.446 64.9329 147.538 65.1837 147.607C65.4096 147.672 65.5265 147.711 65.5241 147.719C65.5216 147.728 65.3999 147.706 65.17 147.656C64.9173 147.599 64.5847 147.523 64.1698 147.429C63.2991 147.245 62.0306 147.01 60.4489 146.828C59.6596 146.727 58.7879 146.677 57.8559 146.6C56.9204 146.575 55.9216 146.498 54.8688 146.523C52.7642 146.501 50.4496 146.652 48.0411 146.957C45.6292 147.244 43.3672 147.758 41.3458 148.329C40.8438 148.484 40.3539 148.635 39.8776 148.781C39.4009 148.926 38.9583 149.123 38.519 149.283C38.0856 149.457 37.6532 149.594 37.2622 149.782C36.8701 149.966 36.4932 150.143 36.1329 150.313C35.3995 150.626 34.7952 151.019 34.243 151.326C33.9698 151.485 33.7112 151.626 33.4809 151.767C33.2617 151.922 33.0597 152.064 32.8756 152.194C32.5255 152.436 32.245 152.63 32.0322 152.778C31.8374 152.909 31.7322 152.975 31.7268 152.968Z" fill="#263238"/>
<path d="M72.006 156.431C72.0104 156.432 71.9943 156.486 71.9597 156.591C71.9232 156.694 71.875 156.852 71.7951 157.052C71.6174 157.443 71.3315 158.022 70.7954 158.648C70.2626 159.272 69.4825 159.933 68.4531 160.487C67.934 160.755 67.3584 161 66.7273 161.201C66.0933 161.392 65.4071 161.542 64.6757 161.621C63.2119 161.778 61.5927 161.659 59.9005 161.351C58.2049 161.047 56.4334 160.558 54.562 160.108C52.6935 159.669 50.6955 159.275 48.6103 159.322C47.5706 159.34 46.5149 159.487 45.4913 159.8C44.4667 160.11 43.4923 160.62 42.6026 161.265C40.813 162.563 39.4836 164.321 38.3728 166.082C37.2601 167.852 36.3778 169.677 35.4379 171.366C34.5059 173.057 33.5237 174.627 32.3905 175.933C31.2695 177.242 29.9844 178.277 28.6433 178.892C27.3047 179.503 25.9743 179.785 24.807 179.797C23.6368 179.812 22.6356 179.577 21.8838 179.25C21.4996 179.099 21.1957 178.893 20.9245 178.732C20.6737 178.54 20.4609 178.377 20.3021 178.231C20.1614 178.083 20.0499 177.965 19.9646 177.876C19.8901 177.794 19.8531 177.752 19.8565 177.749C19.8599 177.746 19.9028 177.783 19.9836 177.858C20.0728 177.943 20.1891 178.054 20.3362 178.194C20.4988 178.332 20.7151 178.486 20.9663 178.669C21.2385 178.822 21.5414 179.017 21.9222 179.159C22.6678 179.467 23.6539 179.684 24.8041 179.655C25.9514 179.631 27.2574 179.341 28.5669 178.73C29.8773 178.116 31.1293 177.095 32.2313 175.795C33.343 174.501 34.3106 172.942 35.2334 171.254C36.164 169.569 37.043 167.738 38.162 165.95C39.2796 164.174 40.6231 162.389 42.4536 161.06C43.3633 160.4 44.3649 159.876 45.4168 159.56C46.4672 159.239 47.5468 159.09 48.6049 159.074C50.7266 159.03 52.7412 159.435 54.6165 159.882C56.4928 160.339 58.257 160.835 59.9385 161.145C61.6166 161.46 63.2158 161.587 64.6577 161.443C65.3774 161.371 66.0543 161.23 66.6805 161.048C67.3039 160.856 67.8736 160.62 68.3878 160.362C69.4075 159.829 70.1847 159.19 70.7214 158.584C71.7903 157.348 71.9597 156.402 72.006 156.431Z" fill="white"/>
<path d="M96.7734 187.582C96.7734 187.582 96.7014 187.604 96.5597 187.633C96.4068 187.664 96.1983 187.706 95.931 187.759C95.652 187.803 95.3306 187.948 94.9376 188.067C94.7379 188.12 94.547 188.24 94.3299 188.333C94.1175 188.437 93.8809 188.528 93.6574 188.676C92.7175 189.188 91.6783 189.997 90.5544 191.021C89.4247 192.04 88.2175 193.293 86.7357 194.526C85.9911 195.135 85.1774 195.747 84.2336 196.226C83.7764 196.494 83.2617 196.668 82.7508 196.87C82.485 196.941 82.2166 197.013 81.9459 197.086C81.6771 197.168 81.3912 197.18 81.1107 197.23C79.9795 197.377 78.785 197.313 77.6002 197.052C76.412 196.797 75.2453 196.328 74.1077 195.753C71.8316 194.59 69.6895 192.95 67.6433 191.092C65.6005 189.239 63.5109 187.274 61.0736 185.67C59.8562 184.873 58.5745 184.196 57.2315 183.754C55.8919 183.308 54.4943 183.107 53.1313 183.186C51.7673 183.265 50.4544 183.62 49.2365 184.119C48.0157 184.619 46.8825 185.254 45.8049 185.916C43.652 187.246 41.6935 188.668 39.7013 189.753C37.7028 190.823 35.7097 191.567 33.8373 192.016C30.0847 192.94 26.9117 192.819 24.7885 192.561C22.6546 192.277 21.5205 191.9 21.5205 191.9C21.5205 191.9 21.595 191.908 21.7367 191.937C21.8891 191.97 22.0976 192.015 22.3649 192.072C22.9166 192.189 23.7362 192.339 24.8002 192.463C26.9185 192.69 30.074 192.782 33.7939 191.842C35.6507 191.386 37.6239 190.637 39.6005 189.569C41.5722 188.485 43.522 187.06 45.6822 185.717C46.7642 185.049 47.9061 184.406 49.1445 183.896C50.3794 183.386 51.72 183.021 53.1167 182.938C54.5123 182.856 55.9445 183.061 57.3104 183.515C58.6802 183.965 59.9814 184.652 61.2115 185.458C63.6745 187.08 65.7699 189.054 67.8098 190.908C69.8434 192.761 71.968 194.39 74.2134 195.545C75.3354 196.116 76.4836 196.581 77.6484 196.835C78.8103 197.095 79.9776 197.161 81.0835 197.022C81.3576 196.973 81.6371 196.964 81.9001 196.884C82.165 196.815 82.428 196.745 82.688 196.677C83.1886 196.481 83.6926 196.314 84.1436 196.053C85.0722 195.587 85.8801 194.987 86.6222 194.388C88.1001 193.174 89.3166 191.929 90.4595 190.916C91.596 189.898 92.6532 189.094 93.6092 188.591C93.8366 188.445 94.0776 188.356 94.2933 188.255C94.5144 188.164 94.7082 188.048 94.9113 187.998C95.3106 187.885 95.6369 187.747 95.9193 187.711C96.1901 187.668 96.4014 187.634 96.5558 187.609C96.6994 187.587 96.7734 187.582 96.7734 187.582Z" fill="white"/>
<path d="M29.0037 134.391C29.0179 134.395 28.9818 134.616 28.8713 135.007C28.7617 135.397 28.5577 135.952 28.2207 136.597C27.5614 137.881 26.2417 139.528 24.2495 140.57C22.2549 141.61 20.1498 141.753 18.7191 141.56C17.9969 141.468 17.4252 141.319 17.042 141.185C16.6582 141.053 16.4562 140.956 16.461 140.942C16.4761 140.89 17.3108 141.246 18.7376 141.382C20.1478 141.525 22.1936 141.356 24.1317 140.345C26.0674 139.332 27.3753 137.75 28.0629 136.51C28.7671 135.262 28.9521 134.374 29.0037 134.391Z" fill="white"/>
<path d="M139.833 88.907H70.6378C69.2345 88.907 68.0966 87.7694 68.0966 86.3658V67.6352C68.0966 66.2319 69.2342 65.094 70.6378 65.094H139.833C141.236 65.094 142.374 66.2316 142.374 67.6352V86.3658C142.374 87.7694 141.236 88.907 139.833 88.907Z" fill="white"/>
<path d="M139.833 88.9071C139.832 88.8957 140.003 88.9111 140.323 88.8489C140.637 88.7826 141.123 88.6245 141.582 88.1802C141.807 87.9591 142.027 87.6696 142.167 87.3043C142.318 86.9398 142.364 86.5126 142.346 86.0445C142.343 85.1097 142.34 84.0322 142.337 82.8192C142.333 80.3915 142.327 77.4228 142.321 73.9764C142.319 72.2529 142.316 70.4096 142.314 68.4551C142.297 67.9669 142.361 67.464 142.225 66.9926C142.102 66.5182 141.822 66.0805 141.441 65.7529C141.059 65.4249 140.57 65.216 140.055 65.1709C139.538 65.149 138.993 65.1658 138.454 65.1614C121.096 65.1687 97.1218 65.1786 70.6428 65.1892C70.2435 65.1911 69.8478 65.2899 69.4957 65.4733C69.1443 65.6588 68.8438 65.9344 68.6169 66.2583C68.3951 66.5867 68.2557 66.9677 68.2088 67.3593C68.1755 67.7469 68.1997 68.1726 68.192 68.5763C68.192 70.2113 68.1916 71.8352 68.1916 73.4475C68.1913 76.6721 68.1905 79.8494 68.1901 82.9715C68.1898 83.7518 68.1898 84.5292 68.1898 85.3026C68.192 85.6876 68.185 86.0785 68.1942 86.4566C68.2077 86.8274 68.3058 87.1931 68.4782 87.5195C68.8277 88.1696 69.4767 88.652 70.1999 88.7739C70.5557 88.8375 70.9385 88.8083 71.3162 88.8156C71.6936 88.8156 72.0699 88.8159 72.4454 88.8159C75.4489 88.817 78.389 88.8181 81.2578 88.8192C92.7323 88.8269 103.065 88.8339 111.744 88.8397C120.419 88.8525 127.441 88.8628 132.297 88.8701C134.721 88.8778 136.604 88.884 137.885 88.888C138.521 88.8921 139.007 88.8954 139.338 88.8976C139.665 88.9005 139.833 88.9071 139.833 88.9071C139.833 88.9071 139.665 88.9137 139.338 88.917C139.007 88.9192 138.521 88.9224 137.885 88.9265C136.604 88.9305 134.721 88.9367 132.297 88.9444C127.441 88.9517 120.42 88.962 111.744 88.9748C103.065 88.9806 92.7323 88.9876 81.2578 88.9953C78.389 88.9964 75.4489 88.9975 72.4454 88.9986C72.0699 88.9986 71.6936 88.9989 71.3162 88.9989C70.9407 88.9913 70.5612 89.0235 70.1673 88.955C69.3892 88.8236 68.6912 88.3061 68.3153 87.6074C68.1294 87.2564 68.0236 86.8625 68.009 86.4643C67.9991 86.0727 68.006 85.6917 68.0039 85.3037C68.0035 84.5303 68.0035 83.7533 68.0035 82.9726C68.0031 79.8505 68.0024 76.6732 68.002 73.4486C68.002 71.8363 68.0017 70.2124 68.0017 68.5774C68.0097 68.1642 67.9837 67.7692 68.0196 67.3392C68.0697 66.9168 68.2205 66.5058 68.4595 66.1522C68.7033 65.8027 69.0276 65.5062 69.4064 65.306C69.786 65.108 70.2138 65.0015 70.6428 65C97.1218 65.011 121.096 65.0209 138.454 65.0278C138.999 65.0337 139.527 65.0172 140.067 65.0414C140.609 65.0897 141.124 65.3111 141.524 65.657C141.924 66.0021 142.217 66.4629 142.345 66.9618C142.418 67.2089 142.435 67.4691 142.436 67.7184C142.435 67.9662 142.435 68.2121 142.435 68.4566C142.432 70.4111 142.43 72.254 142.428 73.9779C142.421 77.4242 142.416 80.3929 142.412 82.8207C142.408 84.0336 142.405 85.1112 142.403 86.046C142.419 86.5104 142.368 86.9566 142.212 87.3237C142.065 87.6948 141.84 87.9873 141.609 88.2095C141.138 88.6556 140.645 88.8093 140.328 88.8694C140.165 88.8954 140.042 88.9085 139.958 88.9071C139.875 88.9082 139.833 88.9071 139.833 88.9071Z" fill="#263238"/>
<path d="M137.024 69.9819C137.001 69.9819 136.976 69.9724 136.958 69.9537C136.923 69.9171 136.924 69.8593 136.961 69.8242L138.791 68.071C138.828 68.0366 138.886 68.0369 138.921 68.0739C138.956 68.1105 138.954 68.1683 138.918 68.2035L137.087 69.9563C137.07 69.9735 137.047 69.9819 137.024 69.9819Z" fill="#263238"/>
<path d="M138.846 69.9896C138.823 69.9896 138.8 69.9812 138.782 69.9636L136.97 68.1954C136.934 68.1603 136.933 68.1024 136.969 68.0658C137.004 68.0303 137.062 68.0285 137.098 68.0644L138.91 69.8322C138.946 69.8673 138.947 69.9252 138.911 69.9618C138.893 69.9804 138.87 69.9896 138.846 69.9896Z" fill="#263238"/>
<path d="M84.1041 81.6267L83.3571 80.569C82.9069 79.9314 82.6649 79.1701 82.6646 78.3894L82.6638 76.0125C82.6631 74.0712 81.2364 72.4633 79.3745 72.1796L79.3741 71.0454C79.3741 70.757 79.1403 70.5234 78.8518 70.5234C78.5634 70.5234 78.3299 70.7573 78.3299 71.0457L78.3303 72.1628C76.4021 72.3883 74.9063 74.0269 74.9066 76.0154L74.9073 78.4779C74.9077 79.3245 74.6237 80.1466 74.1014 80.8127L73.4598 81.6308L84.1041 81.6267Z" fill="#FF725E"/>
<path d="M78.2217 83.3557C78.7949 83.5958 79.5024 83.4742 79.9625 83.0563C80.1638 82.8736 80.3131 82.6383 80.402 82.3821L77.3016 82.3601C77.4538 82.799 77.7917 83.1756 78.2217 83.3557Z" fill="#FF725E"/>
<path d="M125.891 73.1389C125.891 73.1916 117.571 73.234 107.309 73.234C97.0443 73.234 88.7256 73.1912 88.7256 73.1389C88.7256 73.0865 97.0443 73.0437 107.309 73.0437C117.571 73.0433 125.891 73.0862 125.891 73.1389Z" fill="#263238"/>
<path d="M134.649 77.6364C134.649 77.6891 124.368 77.7316 111.688 77.7316C99.0043 77.7316 88.7256 77.6888 88.7256 77.6364C88.7256 77.5837 99.0047 77.5413 111.688 77.5413C124.368 77.5413 134.649 77.5837 134.649 77.6364Z" fill="#E0E0E0"/>
<path d="M134.649 80.3305C134.649 80.3832 124.368 80.4257 111.688 80.4257C99.0043 80.4257 88.7256 80.3829 88.7256 80.3305C88.7256 80.2778 99.0047 80.2354 111.688 80.2354C124.368 80.2354 134.649 80.2782 134.649 80.3305Z" fill="#E0E0E0"/>
</svg>
