<svg width="187" height="201" viewBox="0 0 187 201" fill="none" xmlns="http://www.w3.org/2000/svg">
<path d="M77.8457 176.828L78.0618 189.426C78.0618 189.426 78.3592 189.616 78.9539 189.426V180.262L77.8457 176.828Z" fill="#223238"/>
<path d="M83.8214 175.044C83.8214 175.044 84.8552 182.125 86.929 184.962C87.5709 185.841 88.4593 187.89 88.8229 189.616C89.0665 190.772 88.9801 192.235 86.5116 192.475C84.8354 192.638 79.3338 192.212 79.0093 185.21C78.8292 181.32 76.0896 176.73 78.9552 175.346C81.8208 173.963 83.8214 175.044 83.8214 175.044Z" fill="#35464E"/>
<path d="M85.1908 159.147L83.9739 172.608C83.9739 172.608 84.5064 181.506 86.3313 185.156C88.1565 188.806 83.2261 189.048 81.8877 186.371C81.4816 185.56 81.2497 183.756 80.5496 182.113C79.4435 179.52 77.9769 176.835 78.9546 175.345C80.5516 172.912 79.7913 159.831 79.7913 159.831L85.1908 159.147Z" fill="#FFBF9D"/>
<path d="M93.9424 176.828L94.1585 189.426C94.1585 189.426 94.4559 189.616 95.0506 189.426V180.262L93.9424 176.828Z" fill="#223238"/>
<path d="M99.9171 175.044C99.9171 175.044 100.951 182.125 103.025 184.962C103.667 185.841 104.555 187.89 104.919 189.616C105.162 190.772 105.076 192.235 102.607 192.475C100.931 192.638 95.4294 192.212 95.105 185.21C94.9249 181.32 92.1853 176.73 95.0509 175.346C97.9165 173.963 99.9171 175.044 99.9171 175.044Z" fill="#35464E"/>
<path d="M101.286 159.147L100.069 172.608C100.069 172.608 100.601 181.506 102.426 185.156C104.252 188.806 99.3212 189.048 97.9827 186.371C97.5767 185.56 97.3448 183.756 96.6443 182.113C95.5385 179.52 94.0716 176.835 95.0493 175.345C96.6463 172.912 95.886 159.831 95.886 159.831L101.286 159.147Z" fill="#FFBF9D"/>
<path d="M94.4258 64.6067C94.4258 64.6067 101.362 64.683 106.615 71.2299C111.868 77.7767 113.887 83.7531 113.887 84.7429C113.887 85.7327 99.9828 96.1534 99.9828 96.1534C99.9828 96.1534 102.504 97.7981 101.362 99.7014C100.22 101.605 101.514 104.193 102.732 104.041C103.95 103.888 105.12 101.287 105.85 101.895C106.804 102.69 102.467 107.458 99.4221 105.403C96.3771 103.347 98.3199 93.9621 98.3199 93.9621L108.704 84.0989C108.952 83.8512 108.994 83.465 108.804 83.1705C107.317 80.8649 101.056 71.4775 97.7838 71.6108L94.4258 64.6067Z" fill="#FFBF9D"/>
<path d="M100.537 45.5987C100.537 33.4266 88.5006 32.8222 87.3055 32.7919V32.7903C87.3055 32.7903 87.2882 32.7903 87.2571 32.7911C87.2264 32.7907 87.2086 32.7903 87.2086 32.7903V32.7919C86.0131 32.8218 73.9772 33.4262 73.9772 45.5987C73.9772 58.4071 67.4077 59.2551 72.1931 64.7689L76.8973 63.5391L76.0861 60.3584L77.9921 63.2422L87.209 63.3262V63.327L87.2575 63.3266L87.3059 63.327V63.3262L96.5228 63.2422L98.4289 60.3584L97.6176 63.5391L102.322 64.7689C107.106 59.2551 100.537 58.4071 100.537 45.5987Z" fill="#36474F"/>
<path d="M91.3911 96.8901L88.6148 109.169H87.768C87.768 109.169 88.3328 131.681 87.627 137.185C86.9212 142.69 85.5804 167.883 85.5804 167.883C85.5804 167.883 81.9815 169.153 79.1584 167.883C79.1584 167.883 74.8538 141.278 77.9589 135.774C77.9589 135.774 64.6919 104.23 77.2531 95.1965L91.3911 96.8901Z" fill="#35464E"/>
<path d="M99.9873 96.8901L101.245 100.75C103.099 106.442 104.079 112.379 104.153 118.365C104.238 125.259 104.252 134.025 103.847 137.185C103.141 142.69 101.8 167.883 101.8 167.883C101.8 167.883 98.2013 169.153 95.3785 167.883C95.3785 167.883 91.0739 141.278 94.1786 135.774C94.1786 135.774 80.9117 104.23 93.4728 95.1965L99.9873 96.8901Z" fill="#35464E"/>
<path d="M79.8115 63.6334C79.8115 63.6334 90.9215 63.1465 93.6344 63.6334C93.6344 63.6334 92.5626 67.7158 86.9664 68.0402C81.3697 68.3646 79.8115 63.6334 79.8115 63.6334Z" fill="#AFAFAF"/>
<path d="M94.1104 47.8086C93.6895 49.4763 93.0754 52.3653 94.3726 52.693C95.6699 53.0202 98.3872 50.6617 98.8077 48.9939C99.2283 47.3262 98.5181 45.709 97.2208 45.3818C95.9236 45.0541 94.531 46.1409 94.1104 47.8086Z" fill="#FFBF9D"/>
<path d="M94.8675 48.1558C94.5927 49.2446 94.192 51.1305 95.0388 51.3442C95.8856 51.5579 97.6595 50.0182 97.9338 48.9295C98.2085 47.8407 97.7448 46.785 96.898 46.5713C96.0512 46.358 95.1418 47.0674 94.8675 48.1558Z" fill="#C97339"/>
<path d="M79.9172 47.8086C80.3381 49.4763 80.9522 52.3653 79.655 52.693C78.3577 53.0202 75.6404 50.6617 75.2199 48.9939C74.7989 47.3262 75.5095 45.709 76.8068 45.3818C78.1036 45.0541 79.4962 46.1409 79.9172 47.8086Z" fill="#FFBF9D"/>
<path d="M79.16 48.1558C79.4347 49.2446 79.8355 51.1305 78.9887 51.3442C78.1419 51.5579 76.3679 50.0182 76.0936 48.9295C75.8189 47.8407 76.2827 46.785 77.1295 46.5713C77.9763 46.358 78.8853 47.0674 79.16 48.1558Z" fill="#C97339"/>
<path d="M90.6922 54.9958V62.3357L93.5214 65.377C93.5214 65.377 92.3425 70.8112 86.2122 70.8112C80.0819 70.8112 79.5713 65.377 79.5713 65.377L82.5577 62.3357V55.3203L90.6922 54.9958Z" fill="#FFBF9D"/>
<path d="M90.6925 59.447V54.9954L82.5583 55.3198V59.6886C85.007 61.5899 88.4103 61.2893 90.6925 59.447Z" fill="#C97339"/>
<path d="M78.4138 44.4922C78.0094 49.3002 78.6328 56.8178 85.8341 59.321C86.1447 59.4289 86.476 59.4588 86.7996 59.4002C88.7574 59.0455 95.6824 56.9597 95.6181 45.2069C95.5943 40.8485 92.3708 37.0723 88.0395 36.5896C87.0654 36.4809 86.0207 36.5225 84.9218 36.7875C81.3246 37.6545 78.7241 40.8049 78.4138 44.4922Z" fill="#FFBF9D"/>
<path d="M58.9034 29.9208L67.7437 43.5057L63.5667 46.1822L56.2673 31.4213C56.2673 31.4213 49.2316 31.2185 47.5889 27.5081C47.5889 27.5081 45.8857 24.6696 47.2241 24.3452C48.5626 24.0208 49.1302 27.0823 51.6851 27.6706C52.8943 27.9489 54.0174 28.0548 54.8646 28.0887C55.7077 28.1226 56.4232 27.4843 56.4903 26.6432C56.6127 25.108 56.9072 22.9236 57.5851 23.1894C58.6198 23.5946 58.9442 27.1429 58.9034 29.9208Z" fill="#FFBF9D"/>
<path d="M99.7264 98.6706L97.1408 83.9097C97.1408 83.9097 103.278 75.7182 93.6341 63.6333C93.6341 63.6333 93.1772 65.1115 90.6498 66.2088C88.1531 67.2927 85.2923 67.2927 82.7956 66.2088C80.2682 65.1115 79.8113 63.6333 79.8113 63.6333C70.1674 75.7177 76.3041 83.9097 76.3041 83.9097L71.745 98.6706C75.9979 100.637 95.4739 100.637 99.7264 98.6706Z" fill="white"/>
<path d="M97.1408 83.9094C97.1408 83.9094 101.445 78.1613 97.1752 69.1929C96.6443 75.2605 96.1745 81.2042 92.4888 85.7403C87.3447 91.8197 80.4225 94.2033 73.0826 94.3386L71.745 98.6703C75.9975 100.637 95.4735 100.637 99.726 98.6703L97.1408 83.9094Z" fill="#C4C4C4"/>
<path d="M60.9307 43.7626L74.9891 73.5011L79.8108 63.6334L67.6896 40.1941L60.9307 43.7626Z" fill="#0B622F"/>
<path d="M53.3177 9.84558L54.4497 13.3297C54.5503 13.6387 54.8379 13.848 55.1632 13.848H58.8266C59.5534 13.848 59.8556 14.778 59.2674 15.205L56.3037 17.3584C56.0407 17.5495 55.9308 17.888 56.0314 18.1971L57.1634 21.6812C57.388 22.3724 56.597 22.9469 56.0091 22.5199L53.0454 20.3665C52.7824 20.1755 52.4265 20.1755 52.1635 20.3665L49.1997 22.5199C48.6119 22.9469 47.8209 22.3724 48.0455 21.6812L49.1775 18.1971C49.2781 17.888 49.1678 17.5495 48.9052 17.3584L45.9415 15.205C45.3536 14.778 45.6558 13.848 46.3822 13.848H50.0457C50.3705 13.848 50.6586 13.6387 50.7592 13.3297L51.8912 9.84558C52.1158 9.15434 53.0935 9.15434 53.3177 9.84558Z" fill="#FED22B"/>
<path d="M90.1556 39.3828C90.1556 39.3828 89.8716 44.0869 84.8026 44.4517L87.3575 41.2888C87.3575 41.2888 84.5998 45.263 76.9355 45.8714C76.9355 45.8714 77.99 35.6118 87.4387 35.4898C96.8875 35.3682 96.4007 45.9522 96.4007 45.9522C96.4007 45.9522 93.927 45.5874 92.9537 43.0325L93.7242 45.993C93.7242 45.993 89.2228 44.5737 90.1556 39.3828Z" fill="#36474F"/>
<path d="M93.6338 63.6333C93.6338 63.6333 101.484 62.6872 107.701 71.5004C107.701 71.5004 114.568 79.9893 114.731 84.0987C114.731 84.0987 113.703 86.9106 110.081 89.9382L106.025 85.8287L108.053 83.4633C108.053 83.4633 107.613 83.3756 107.627 83.2605C107.641 83.1457 108.006 83.0847 108.006 83.0847C108.006 83.0847 100.321 73.9874 97.9691 72.7169C95.6166 71.4463 93.6338 63.6333 93.6338 63.6333Z" fill="#0B622F"/>
<path d="M87.6869 45.0146C87.6275 46.8814 87.5685 48.7483 87.5091 50.6152C87.5006 50.8847 87.4921 51.1546 87.4833 51.424C87.52 51.3759 87.5568 51.3275 87.5935 51.2794C87.1928 51.3824 86.7924 51.485 86.3916 51.588C86.205 51.6361 86.2842 51.9254 86.4712 51.8773C86.872 51.7743 87.2724 51.6717 87.6731 51.5686C87.7386 51.5517 87.781 51.4895 87.783 51.424C87.8424 49.5571 87.9014 47.6903 87.9608 45.8234C87.9693 45.5539 87.9778 45.284 87.9862 45.0146C87.9931 44.8214 87.6929 44.8218 87.6869 45.0146Z" fill="#C97339"/>
<path d="M92.7564 52.1227C92.7895 52.9206 92.1423 53.5956 91.3109 53.6304C90.4794 53.6651 89.7785 53.0458 89.7454 52.2479C89.7122 51.45 90.3594 50.7749 91.1909 50.7402C92.0223 50.7054 92.7232 51.3243 92.7564 52.1227Z" fill="#D9806D"/>
<path d="M84.0005 52.4771C84.0336 53.275 83.3864 53.9501 82.555 53.9849C81.7236 54.0192 81.0226 53.4003 80.9895 52.6024C80.9564 51.8041 81.6036 51.1294 82.435 51.0947C83.266 51.0599 83.967 51.6788 84.0005 52.4771Z" fill="#D9806D"/>
<path d="M87.4526 56.2479C87.4583 56.3428 87.2971 56.4297 87.093 56.4414C86.889 56.4535 86.7189 56.3861 86.7133 56.2911C86.7076 56.1962 86.8688 56.1093 87.0728 56.0976C87.2769 56.0855 87.4469 56.153 87.4526 56.2479Z" fill="#C97339"/>
<path d="M81.6423 46.2549C81.7291 46.5995 82.378 46.387 83.192 46.1813C84.0061 45.9757 84.6779 45.8545 84.5907 45.5099C84.5038 45.1653 83.773 45.053 82.9589 45.2586C82.1449 45.4647 81.5554 45.9107 81.6423 46.2549Z" fill="#282F39"/>
<path d="M88.9397 45.6255C88.8921 45.9774 89.5728 46.0226 90.405 46.1353C91.2373 46.248 91.9055 46.3862 91.9532 46.0339C92.0008 45.682 91.3649 45.3051 90.5327 45.192C89.7009 45.0793 88.9874 45.2732 88.9397 45.6255Z" fill="#282F39"/>
<path d="M84.1818 53.2659C85.2431 55.0249 88.0751 55.3085 89.3465 53.6517C89.5138 53.4336 89.6669 53.1843 89.7489 52.9197C89.8063 52.7351 89.517 52.6559 89.4597 52.8401C89.2787 53.4219 88.7724 53.9208 88.2392 54.1834C87.1645 54.7122 85.8079 54.4694 84.9312 53.6784C84.7486 53.5136 84.5684 53.3269 84.4404 53.1148C84.341 52.9496 84.0816 53.1003 84.1818 53.2659Z" fill="#C97339"/>
<path d="M90.62 48.5976C90.6131 48.9972 90.3533 49.318 90.0394 49.3139C89.7255 49.3099 89.4771 48.9823 89.4835 48.5823C89.4904 48.1827 89.7502 47.862 90.0637 47.866C90.378 47.87 90.6268 48.1977 90.62 48.5976Z" fill="#0C143B"/>
<path d="M84.0752 48.5976C84.0683 48.9972 83.8085 49.318 83.4946 49.3139C83.1807 49.3099 82.9323 48.9823 82.9387 48.5823C82.9456 48.1827 83.2054 47.862 83.5189 47.866C83.8332 47.87 84.082 48.1977 84.0752 48.5976Z" fill="#0C143B"/>
<path d="M91.3628 52.5032C93.0032 52.5032 94.333 51.1734 94.333 49.533C94.333 47.8926 93.0032 46.5627 91.3628 46.5627C89.7224 46.5627 88.3926 47.8926 88.3926 49.533C88.3926 51.1734 89.7224 52.5032 91.3628 52.5032Z" stroke="white" stroke-width="1.1485" stroke-miterlimit="10"/>
<path d="M86.2002 49.533C86.2002 51.1736 84.8702 52.5032 83.23 52.5032C81.5893 52.5032 80.2598 51.1732 80.2598 49.533C80.2598 47.8923 81.5897 46.5627 83.23 46.5627C84.8702 46.5627 86.2002 47.8923 86.2002 49.533Z" stroke="white" stroke-width="1.1485" stroke-miterlimit="10"/>
<path d="M88.3705 49.3902C88.3705 49.3902 87.8227 48.053 86.2443 49.3902" stroke="white" stroke-width="1.1485" stroke-miterlimit="10"/>
<path d="M79.8115 63.6334L81.0538 63.5461C81.0538 63.5461 79.5804 66.2287 79.4293 83.231C79.2782 100.233 80.6385 106.203 80.6385 106.203C80.6385 106.203 72.7039 108.546 67.5654 104.541L73.8375 86.2538L72.4773 65.4728L79.8115 63.6334Z" fill="#0B622F"/>
<path d="M94.6886 63.6898L93.4463 63.6025C93.4463 63.6025 94.9197 66.2851 95.0708 83.2874C95.2219 100.29 93.8616 106.26 93.8616 106.26C93.8616 106.26 101.796 108.602 106.935 104.597L100.663 86.3102L101.696 70.519C101.885 67.6292 99.9814 65.0173 97.1724 64.3128L94.6886 63.6898Z" fill="#0B622F"/>
<path d="M87.3058 32.7919V32.7903C87.3058 32.7903 87.288 32.7903 87.2573 32.7907C87.2262 32.7903 87.2088 32.7903 87.2088 32.7903V32.7919C86.354 32.8133 79.9562 33.1313 76.38 37.7611C81.4938 37.6807 86.6291 36.5192 90.3786 33.1983C88.8361 32.8545 87.6419 32.8004 87.3058 32.7919Z" fill="#5B6E75"/>
</svg>
