<svg width="181" height="202" viewBox="0 0 181 202" fill="none" xmlns="http://www.w3.org/2000/svg">
<path d="M67.6544 193.685C127.079 193.685 175.252 190.871 175.252 187.401C175.252 183.931 127.079 181.117 67.6544 181.117C8.22979 181.117 -39.9434 183.931 -39.9434 187.401C-39.9434 190.871 8.22979 193.685 67.6544 193.685Z" fill="#F5F5F5"/>
<path d="M86.0865 135.961H49.449V187.806H86.0865V135.961Z" fill="#DE8E16"/>
<path opacity="0.5" d="M86.2057 135.961H58.8864V187.806H86.2057V135.961Z" fill="black"/>
<path d="M73.0986 69.1797C73.3287 70.2517 73.5397 71.1818 73.7957 72.1586C74.0517 73.1354 74.3077 74.0595 74.5983 75.0441C75.1623 76.938 75.8101 78.8198 76.5288 80.7388C77.9593 84.7101 79.9217 88.4694 82.3616 91.9138C83.0812 92.8768 83.8812 93.7766 84.753 94.6046C85.7286 95.5399 86.8391 96.3237 88.0465 96.9302C90.3644 98.0559 92.9366 98.5551 95.5079 98.3786C97.7583 98.2237 99.9699 97.7029 102.053 96.8377C103.038 96.4388 103.998 95.9803 104.927 95.4646C105.391 95.212 105.84 94.9411 106.277 94.6253C106.713 94.3104 107.124 94.0448 107.626 93.6814L105.349 89.5959L104.138 89.9169L102.866 90.2197C102.012 90.4075 101.168 90.5675 100.304 90.6843C98.7408 90.9223 97.1546 90.9534 95.584 90.7769C94.3273 90.6489 93.1217 90.2145 92.0725 89.5111C91.6202 89.1893 91.2042 88.8181 90.834 88.4045C90.3739 87.8698 89.951 87.304 89.5687 86.7105C88.6874 85.3227 87.922 83.8648 87.2811 82.3516C86.571 80.7864 85.9474 79.1304 85.3576 77.4372C84.7686 75.744 84.2401 74.0231 83.7108 72.2884L82.9705 69.6703C82.7361 68.8086 82.4801 67.8845 82.2933 67.1353L73.0986 69.1797Z" fill="#FFBF9D"/>
<path d="M72.3494 63.9293C76.2708 58.9414 82.2282 60.7705 85.5701 68.7096C87.4262 72.9378 88.8965 77.3261 89.9646 81.8191L76.0097 86.724C72.3382 79.2166 68.3139 69.0444 72.3494 63.9293Z" fill="#0B622F"/>
<path opacity="0.1" d="M72.3494 63.9293C76.2708 58.9414 82.2282 60.7705 85.5701 68.7096C87.4262 72.9378 88.8965 77.3261 89.9646 81.8191L76.0097 86.724C72.3382 79.2166 68.3139 69.0444 72.3494 63.9293Z" fill="black"/>
<path opacity="0.3" d="M78.1804 72.2699C77.031 71.486 74.6768 76.0257 73.5879 81.3796C74.3516 83.2458 75.1767 85.0325 75.9992 86.7006L84.3955 83.7476C83.0169 78.7338 80.7621 74.0349 78.1804 72.2699Z" fill="black"/>
<path d="M106.061 87.5322L109.117 85.865L110.182 92.6871C110.182 92.6871 105.084 95.7586 103.618 93.2192L103.774 91.4585C103.946 89.8847 104.777 88.458 106.061 87.5322Z" fill="#FFBF9D"/>
<path d="M112.946 85.5325L115.622 91.0153L110.157 92.692L109.092 85.869L112.946 85.5325Z" fill="#FFBF9D"/>
<path d="M72.2934 59.4659L65.1486 58.4614L56.2489 59.2427C53.47 59.4832 51.1953 61.5545 50.6963 64.2998C49.7095 69.6857 49.1715 77.322 48.8982 83.9053C48.5825 91.295 49.4007 102.222 50.5934 112.081L80.3248 108.484C80.6093 82.5322 82.5718 74.4876 82.8122 67.6135C82.9177 64.8432 81.162 62.3436 78.5224 61.5026L72.2934 59.4659Z" fill="#0B622F"/>
<path d="M81.2869 188.177L87.6118 189.929L93.2838 175.062L86.9649 173.308L81.2869 188.177Z" fill="#FFBF9D"/>
<path d="M90.4452 187.955C89.9548 187.303 89.2197 186.879 88.4188 186.723L81.9053 185.456C81.6035 185.385 81.2973 185.559 81.2047 185.855L79.1904 191.796C78.9517 192.474 79.308 193.217 79.9861 193.455C79.9999 193.46 80.0147 193.465 80.0285 193.47C82.4286 194.416 84.052 194.09 87.8082 194.817C90.1209 195.268 94.9807 196.807 98.2266 196.674C101.473 196.541 101.464 193.328 100.099 193.092C95.254 192.331 91.5462 189.42 90.4452 187.955Z" fill="#263238"/>
<g opacity="0.2">
<path d="M93.284 175.067L90.2655 182.977L84.034 180.974L86.9599 173.309L93.284 175.067Z" fill="black"/>
</g>
<path d="M109.063 131.212C108.852 133.514 108.4 135.837 107.787 138.179C106.118 144.635 103.264 151.21 100.902 157.625C96.2285 170.293 92.1782 181.333 92.1782 181.333L83.5042 178.337C83.5042 178.337 91.2934 141.689 96.5398 137.939H64.3573C63.7337 137.939 63.1309 137.899 62.5583 137.819C68.1066 137.105 76.7399 133.686 84.76 130.268C91.8461 127.241 98.4694 124.236 102.067 123.069H102.077V123.079C106.45 124.908 109.405 127.512 109.063 131.212Z" fill="#263238"/>
<path opacity="0.1" d="M109.063 131.212C108.852 133.514 108.4 135.837 107.787 138.179C106.118 144.635 103.264 151.21 100.902 157.625C96.2285 170.293 92.1782 181.333 92.1782 181.333L83.5042 178.337C83.5042 178.337 91.2934 141.689 96.5398 137.939H64.3573C63.7337 137.939 63.1309 137.899 62.5583 137.819C68.1066 137.105 76.7399 133.686 84.76 130.268C91.8461 127.241 98.4694 124.236 102.067 123.069H102.077V123.079C106.45 124.908 109.405 127.512 109.063 131.212Z" fill="black"/>
<path opacity="0.6" d="M102.069 123.068C98.4708 124.234 91.8475 127.241 84.7614 130.267C76.7413 133.685 68.108 137.104 62.5598 137.818C53.2224 136.571 49.7049 125.441 59.4738 112.601C65.8161 112.612 72.1877 118.674 72.1877 118.674C72.1877 118.674 91.3649 118.563 102.069 123.068Z" fill="black"/>
<path d="M125.368 175.393H132.448L125.03 157.621L120.229 165.78L125.368 175.393Z" fill="#FFBF9D"/>
<path d="M131.872 173.714L123.561 171.826C123.267 171.749 122.962 171.91 122.863 172.198L120.545 178.591C120.349 179.268 120.738 179.976 121.414 180.172C121.427 180.176 121.44 180.18 121.454 180.183C124.367 180.792 125.8 180.939 129.454 181.768C131.705 182.28 137.397 183.774 140.5 184.479C143.602 185.184 144.42 182.141 143.184 181.564C137.643 178.998 134.638 176.544 133.029 174.453C132.742 174.079 132.332 173.817 131.872 173.714Z" fill="#263238"/>
<g opacity="0.2">
<path d="M125.03 157.627L128.188 165.195L121.818 168.755L120.229 165.787L125.03 157.627Z" fill="black"/>
</g>
<path d="M128.285 162.501L120.494 167.218C120.494 167.218 114.003 153.573 107.793 138.179C108.406 135.836 108.858 133.514 109.069 131.212C109.411 127.512 106.456 124.908 102.084 123.078V123.068H102.074C98.4762 124.234 91.8528 127.241 84.7668 130.267C76.7467 133.685 68.1134 137.104 62.5651 137.818C61.8715 137.909 61.2384 137.959 60.6451 137.959C49.9914 137.959 46.313 128.618 50.615 112.762C56.9572 112.732 67.8115 112.079 67.8115 112.079C67.8115 112.079 88.7574 107.042 103.833 108.761C111.18 109.596 117.13 115.115 118.568 122.384C122.396 141.638 128.285 162.501 128.285 162.501Z" fill="#263238"/>
<path d="M128.285 162.501L120.494 167.218C120.494 167.218 114.003 153.573 107.793 138.179C108.406 135.836 108.858 133.514 109.069 131.212C109.411 127.512 106.456 124.908 102.084 123.078V123.068H102.074C98.4762 124.234 91.8528 127.241 84.7668 130.267C76.7467 133.685 68.1134 137.104 62.5651 137.818C61.8715 137.909 61.2384 137.959 60.6451 137.959C49.9914 137.959 46.313 128.618 50.615 112.762C56.9572 112.732 67.8115 112.079 67.8115 112.079C67.8115 112.079 88.7574 107.042 103.833 108.761C111.18 109.596 117.13 115.115 118.568 122.384C122.396 141.638 128.285 162.501 128.285 162.501Z" fill="#263238"/>
<path d="M72.2934 59.4659L65.1486 58.4614L56.2489 59.2427C53.47 59.4832 51.1953 61.5545 50.6963 64.2998C49.7095 69.6857 49.1715 77.322 48.8982 83.9053C48.5825 91.295 49.4007 102.222 50.5934 112.081L80.3248 108.484C80.6093 82.5322 82.5718 74.4876 82.8122 67.6135C82.9177 64.8432 81.162 62.3436 78.5224 61.5026L72.2934 59.4659Z" fill="#0B622F"/>
<path d="M50.5819 110.434L49.8164 112.85C49.7152 113.036 49.9289 113.233 50.2446 113.244L79.9258 111.464C80.1732 111.464 80.3764 111.357 80.3989 111.2L80.7146 108.773C80.7146 108.604 80.5286 108.457 80.264 108.446L51.061 110.242C50.8777 110.214 50.6943 110.288 50.5819 110.434Z" fill="#263238"/>
<path opacity="0.1" d="M50.5819 110.434L49.8164 112.85C49.7152 113.036 49.9289 113.233 50.2446 113.244L79.9258 111.464C80.1732 111.464 80.3764 111.357 80.3989 111.2L80.7146 108.773C80.7146 108.604 80.5286 108.457 80.264 108.446L51.061 110.242C50.8777 110.214 50.6943 110.288 50.5819 110.434Z" fill="black"/>
<path opacity="0.3" d="M53.5858 61.8529C59.5173 60.8104 59.2215 74.2807 56.5221 84.138C55.7412 86.9905 52.3663 85.7974 51.2238 85.0533C47.4866 82.6187 46.2213 66.1556 53.5858 61.8529Z" fill="black"/>
<path d="M52.8732 81.7957C53.0963 87.6254 51.2463 90.6753 54.3478 92.6194C57.4484 94.5635 75.8005 100.652 76.2451 99.8871C75.356 101.293 74.4971 102.495 73.608 103.902C68.3261 103.11 63.0348 102.377 57.7365 101.703C53.8713 101.212 47.638 100.217 44.6066 97.7673C41.8632 95.5498 42.3535 85.8223 42.8189 78.8142C45.2907 77.3728 52.8732 81.7957 52.8732 81.7957Z" fill="#FFBF9D"/>
<path d="M51.2837 59.4748C57.3829 57.6864 59.6887 62.5696 57.8335 70.9491C56.902 75.4723 55.5615 79.9005 53.83 84.1815L41.085 80.1557C42.4627 71.9268 45.047 61.309 51.2837 59.4748Z" fill="#0B622F"/>
<path d="M60.1224 59.4372C59.9036 60.7056 60.3369 62.0163 61.0418 63.0935C61.7467 64.1698 62.7059 65.0515 63.6546 65.9201C64.8603 67.0233 66.2969 68.2051 67.9168 67.9914C69.4139 67.7942 70.2728 67.0397 70.8756 65.2574C72.16 67.3226 72.2196 68.3531 73.6277 68.4829C74.5401 68.5676 75.3367 67.8997 75.9767 67.243C77.1071 66.0819 77.6131 65.4149 77.8189 63.8073C78.1554 61.1918 76.0321 58.7649 73.5611 57.8461C70.9085 56.8597 68.5516 56.6235 65.7961 56.306C63.4946 56.0395 60.5852 56.7585 60.1224 59.4372Z" fill="#0B622F"/>
<path opacity="0.3" d="M60.1224 59.4372C59.9036 60.7056 60.3369 62.0163 61.0418 63.0935C61.7467 64.1698 62.7059 65.0515 63.6546 65.9201C64.8603 67.0233 66.2969 68.2051 67.9168 67.9914C69.4139 67.7942 70.2728 67.0397 70.8756 65.2574C72.16 67.3226 72.2196 68.3531 73.6277 68.4829C74.5401 68.5676 75.3367 67.8997 75.9767 67.243C77.1071 66.0819 77.6131 65.4149 77.8189 63.8073C78.1554 61.1918 76.0321 58.7649 73.5611 57.8461C70.9085 56.8597 68.5516 56.6235 65.7961 56.306C63.4946 56.0395 60.5852 56.7585 60.1224 59.4372Z" fill="black"/>
<path d="M66.3518 46.8804L69.5787 50.6077L73.9654 55.6821C73.5597 56.222 73.2553 56.8302 73.0659 57.4782C72.6023 58.9067 72.7398 60.3204 74.2819 61.3665C74.9531 61.6797 75.2921 65.1785 70.8872 64.8134C67.8852 64.6482 65.9868 63.6056 64.2345 61.7826C63.4258 60.6977 63.2157 60.1145 64.0468 58.9318C66.4305 55.5895 66.6164 50.7383 66.3518 46.8804Z" fill="#FFBF9D"/>
<path opacity="0.2" d="M72.9116 54.4254L70.1465 50.7612C70.1128 50.8711 70.0765 50.987 70.0358 51.1108C69.9035 51.6273 69.8127 52.1533 69.7625 52.6846C69.5939 54.4998 71.3003 56.8298 72.9635 57.8265L73.0915 57.4613C73.2852 56.854 73.5603 56.276 73.9097 55.7422C73.9322 55.7119 73.9598 55.686 73.991 55.6652L72.9116 54.4254Z" fill="black"/>
<path d="M66.6568 40.0174C66.156 46.0341 65.6034 49.5295 68.1842 52.9427C72.084 58.1088 79.8455 56.2859 82.1106 50.5046C84.1526 45.3047 84.5782 36.3438 79.0602 33.2472C75.0142 31.009 69.9209 32.4755 67.6834 36.5229C67.0893 37.5992 66.739 38.7923 66.6568 40.0174Z" fill="#FFBF9D"/>
<path d="M65.7739 45.344L68.3435 46.4557C69.2309 46.095 69.4038 45.0481 69.3442 44.092C69.1167 40.4253 75.695 35.9055 75.695 35.9055C75.695 35.9055 68.6963 33.6101 66.5981 33.2614C65.8638 33.1394 63.2138 35.0645 62.8039 35.8959C61.6441 38.2493 62.1189 41.0456 63.7085 43.1325C64.3209 43.9345 65.0119 44.6751 65.7739 45.344Z" fill="#263238"/>
<path d="M63.565 44.2571C63.6896 45.6008 64.3019 46.8519 65.287 47.7733C66.574 48.9457 68.1403 47.6635 68.3237 45.9581C68.4785 44.4337 67.7122 42.2066 66.1597 41.6936C64.6072 41.1814 63.418 42.583 63.565 44.2571Z" fill="#FFBF9D"/>
<path d="M75.6752 43.6258C75.5835 44.1173 75.7643 44.5793 76.0886 44.6468C76.413 44.7143 76.7088 44.3794 76.8333 43.8897C76.9579 43.4 76.7442 42.9371 76.419 42.8627C76.0938 42.7875 75.7652 43.1275 75.6752 43.6258Z" fill="#263238"/>
<path d="M81.2219 44.8468C81.125 45.346 81.3118 45.8063 81.6361 45.8746C81.9605 45.9421 82.2883 45.6029 82.3808 45.1176C82.4725 44.6322 82.2848 44.165 81.9674 44.0966C81.6491 44.0274 81.3127 44.3545 81.2219 44.8468Z" fill="#263238"/>
<path d="M79.3727 44.8206C79.5423 46.2343 79.896 47.6186 80.4271 48.9398C79.5267 49.4156 78.3721 48.7382 78.3721 48.7382L79.3727 44.8206Z" fill="#FF5652"/>
<path d="M76.9711 51.5482C75.8589 51.1589 74.9551 50.3292 74.4716 49.2546C74.4413 49.1784 74.4777 49.0919 74.5529 49.0608C74.6307 49.0348 74.7146 49.0737 74.7466 49.149C75.2907 50.311 76.3441 51.1546 77.5982 51.4297C77.6803 51.4418 77.7366 51.5179 77.7245 51.6001C77.7123 51.6815 77.6362 51.7386 77.5541 51.7265C77.5471 51.7256 77.5402 51.7239 77.5342 51.7221C77.343 51.6763 77.1545 51.6183 76.9711 51.5482Z" fill="#263238"/>
<path d="M74.9145 41.6406C74.8669 41.625 74.8245 41.5974 74.7917 41.5584C74.687 41.433 74.7034 41.2461 74.8271 41.1397C75.5311 40.5124 76.5015 40.2779 77.414 40.515C77.5688 40.5609 77.6579 40.7235 77.6121 40.8784C77.6112 40.8818 77.6095 40.8853 77.6086 40.8888C77.5558 41.0436 77.3889 41.1276 77.2341 41.0774C76.5162 40.9061 75.7603 41.0964 75.2094 41.587C75.129 41.6614 75.0139 41.6813 74.9145 41.6406Z" fill="#263238"/>
<path d="M81.8521 41.6491C81.8331 41.6023 81.8262 41.5513 81.8322 41.5011C81.8772 41.3436 82.0398 41.2511 82.198 41.2943C83.1157 41.515 83.8612 42.1812 84.1838 43.068C84.2323 43.2229 84.1458 43.3872 83.991 43.4357C83.8362 43.4833 83.6718 43.3976 83.6234 43.2419C83.357 42.5515 82.7663 42.0367 82.0458 41.8662C81.9481 41.8316 81.8754 41.7494 81.8521 41.6491Z" fill="#263238"/>
<path d="M83.6849 109.819L121.637 109.93C122.976 109.933 124.171 108.84 124.292 107.501L126.03 88.2815C126.151 86.9422 125.155 85.8434 123.815 85.839L85.8627 85.7283C84.523 85.724 83.3286 86.8167 83.2075 88.1569L81.4699 107.377C81.3488 108.716 82.3452 109.815 83.6849 109.819Z" fill="#6B7280"/>
<path opacity="0.3" d="M83.6849 109.819L121.637 109.93C122.976 109.933 124.171 108.84 124.292 107.501L126.03 88.2815C126.151 86.9422 125.155 85.8434 123.815 85.839L85.8627 85.7283C84.523 85.724 83.3286 86.8167 83.2075 88.1569L81.4699 107.377C81.3488 108.716 82.3452 109.815 83.6849 109.819Z" fill="black"/>
<path d="M84.8001 109.74L122.752 109.85C124.091 109.855 125.286 108.762 125.408 107.423L127.145 88.2029C127.266 86.8636 126.269 85.7647 124.93 85.7604L86.9779 85.6497C85.6382 85.6453 84.4438 86.7381 84.3227 88.0774L82.5852 107.297C82.4641 108.636 83.4604 109.736 84.8001 109.74Z" fill="#6B7280"/>
<path opacity="0.2" d="M84.8001 109.74L122.752 109.85C124.091 109.855 125.286 108.762 125.408 107.423L127.145 88.2029C127.266 86.8636 126.269 85.7647 124.93 85.7604L86.9779 85.6497C85.6382 85.6453 84.4438 86.7381 84.3227 88.0774L82.5852 107.297C82.4641 108.636 83.4604 109.736 84.8001 109.74Z" fill="white"/>
<path d="M107.531 98.021C107.382 99.4944 106.066 100.567 104.593 100.418C103.12 100.269 102.047 98.9528 102.197 97.4794C102.346 96.0059 103.662 94.9331 105.135 95.0819C106.607 95.2316 107.681 96.5475 107.531 98.021Z" fill="white"/>
<path d="M123.273 109.826C123.273 110.975 122.59 111.911 121.76 111.911C121.751 111.911 121.751 111.911 121.742 111.911L82.5716 111.757C82.1478 111.757 81.8018 111.283 81.8018 110.715C81.8105 110.134 82.1478 109.661 82.5716 109.661L123.273 109.826Z" fill="#6B7280"/>
<path opacity="0.3" d="M123.273 109.826C123.273 110.975 122.59 111.911 121.76 111.911C121.751 111.911 121.751 111.911 121.742 111.911L82.5716 111.757C82.1478 111.757 81.8018 111.283 81.8018 110.715C81.8105 110.134 82.1478 109.661 82.5716 109.661L123.273 109.826Z" fill="black"/>
<path d="M82.3675 111.762H63.5155C62.5122 111.762 61.6984 110.947 61.6984 109.944C61.6984 109.787 61.8246 109.661 61.9812 109.661H82.3675C82.9478 109.661 83.4175 110.132 83.4175 110.711C83.4175 111.291 82.9469 111.762 82.3675 111.762Z" fill="#6B7280"/>
<path d="M72.1838 97.1975L75.3165 96.283L75.0302 103.991C75.0302 103.991 68.2348 105.596 67.8066 102.464L68.6819 100.775C69.4231 99.3164 70.4662 97.6283 72.1838 97.1975Z" fill="#FFBF9D"/>
<path d="M80.0056 98.4209L79.0801 102.749L75.0273 103.986L75.3179 96.283L80.0056 98.4209Z" fill="#FFBF9D"/>
<path d="M81.2383 177.673L94.2134 182.077L96.8634 176.715L82.5227 172.156L81.2383 177.673Z" fill="#0B622F"/>
<path d="M118.506 168.289L130.47 161.605L128.268 156.045L115.274 163.638L118.506 168.289Z" fill="#0B622F"/>
<path d="M84.1141 39.9553C85.8889 39.8558 86.6162 37.755 86.4017 36.8492C86.1241 35.6742 85.427 34.61 84.4004 33.975C84.9703 32.2004 84.198 30.1283 82.0548 28.6695C80.6606 27.7204 78.3738 27.6434 76.8689 28.2915C76.8689 26.7228 73.9914 25.6984 72.144 27.6434C70.5284 26.7436 68.5029 26.7972 67.1822 28.0916C66.7454 28.5199 66.4375 29.1817 66.6356 29.7597C65.173 29.777 63.7512 30.6448 63.0662 31.9391C62.382 33.2326 62.4642 34.8973 63.2729 36.1163C63.8593 37.0006 65.2301 36.9833 66.2663 36.7549C66.7549 37.8113 67.8326 38.3529 68.9379 38.7197C72.3611 39.8557 77.054 38.789 77.8826 38.6912C78.7111 38.5934 79.5985 38.6947 80.2835 39.1722C80.0543 39.6343 79.4325 39.8384 78.923 39.9206C78.4136 40.0028 77.8938 39.9232 77.3844 39.8428C78.6454 40.5557 79.89 40.9606 81.3041 40.6474C81.727 40.554 82.6749 39.893 83.1074 39.8601C83.5389 39.8263 84.1565 40.0193 84.1141 39.9553Z" fill="#263238"/>
</svg>
