<svg width="9" height="9" viewBox="0 0 6 6" fill="none" xmlns="http://www.w3.org/2000/svg">
<path d="M0.369802 6C0.491584 6 0.574381 5.95933 0.665718 5.91403L5.55631 3.63246C5.80415 3.51044 6 3.3117 6 3.02255C6 2.73803 5.8086 2.53004 5.55186 2.41265L0.665718 0.0769132C0.578651 0.0318062 0.500495 0 0.387252 0C0.160953 0 0 0.162694 0 0.4023C0 0.610101 0.104332 0.727495 0.287191 0.817901L4.96894 2.96395V3.01349L0.287005 5.17767C0.104332 5.26807 0 5.38547 0 5.59327C0 5.84193 0.156683 6 0.369802 6Z" fill="#404040"/>
</svg>
