<svg width="189" height="180" viewBox="0 0 189 180" fill="none" xmlns="http://www.w3.org/2000/svg">
<path d="M61.7764 157.214H0L3.47536 153.783H63.8058L61.7764 157.214Z" fill="#E0E0E0"/>
<path d="M113.666 84.8214C114.054 84.6327 114.423 84.4076 114.769 84.1492C115.435 83.7052 116.342 83.0837 117.306 82.3798L117.807 82.0246L117.623 81.9803C118.156 82.9125 118.631 83.7306 118.986 84.3077C119.164 84.6325 119.376 84.9367 119.621 85.2146C119.506 84.8675 119.351 84.5353 119.158 84.2253C118.847 83.6228 118.39 82.7857 117.889 81.8534L117.813 81.7266L117.699 81.809L117.192 82.1642C116.202 82.8681 115.289 83.515 114.655 83.997C114.296 84.2353 113.965 84.5117 113.666 84.8214Z" fill="#263238"/>
<path d="M186.729 154.902C187.531 143.445 178.893 133.508 167.436 132.706C155.98 131.904 146.042 140.541 145.24 151.998C144.438 163.455 153.075 173.392 164.532 174.194C175.989 174.996 185.927 166.359 186.729 154.902Z" fill="#263238"/>
<path d="M144.341 153.066V153.123C144.317 158.589 146.451 163.844 150.28 167.745C154.108 171.646 159.322 173.879 164.787 173.957C170.253 174.036 175.528 171.954 179.467 168.164C183.406 164.375 185.691 159.184 185.824 153.72C185.824 153.72 185.824 153.682 185.824 153.669L144.341 153.066Z" fill="#263238"/>
<path d="M150.518 153.212C150.472 156.099 151.284 158.934 152.85 161.359C154.416 163.784 156.667 165.69 159.317 166.835C161.967 167.981 164.897 168.314 167.737 167.792C170.576 167.271 173.197 165.919 175.268 163.907C177.338 161.895 178.765 159.314 179.368 156.491C179.97 153.668 179.722 150.729 178.653 148.047C177.585 145.365 175.744 143.061 173.365 141.425C170.986 139.79 168.175 138.897 165.289 138.861C161.429 138.811 157.707 140.294 154.938 142.984C152.169 145.675 150.58 149.352 150.518 153.212Z" fill="#FAFAFA"/>
<path d="M165.289 138.861C161.429 138.811 157.707 140.294 154.938 142.984C152.17 145.675 150.58 149.352 150.519 153.212L179.641 153.631C179.69 149.771 178.207 146.049 175.517 143.28C172.827 140.512 169.149 138.922 165.289 138.861Z" fill="#E0E0E0"/>
<path d="M156.207 153.295C156.181 155.051 156.676 156.776 157.631 158.251C158.585 159.725 159.955 160.884 161.568 161.58C163.181 162.276 164.964 162.477 166.691 162.16C168.419 161.842 170.013 161.019 171.273 159.795C172.532 158.571 173.401 157 173.768 155.283C174.135 153.565 173.984 151.777 173.334 150.145C172.685 148.513 171.566 147.11 170.119 146.114C168.672 145.118 166.963 144.574 165.206 144.55C162.854 144.517 160.584 145.42 158.897 147.06C157.21 148.7 156.242 150.943 156.207 153.295Z" fill="#263238"/>
<path d="M155.237 123.006C155.237 123.006 176.476 116.581 185.266 139.653L140.822 153.421L155.237 123.006Z" fill="#0B9346"/>
<path d="M16.3492 153.122C16.2907 157.225 17.45 161.253 19.6806 164.696C21.9112 168.14 25.1129 170.845 28.8808 172.469C32.6487 174.093 36.8135 174.563 40.8486 173.82C44.8836 173.076 48.6077 171.153 51.5499 168.294C54.4921 165.434 56.5202 161.766 57.3777 157.754C58.2352 153.742 57.8836 149.565 56.3675 145.753C54.8513 141.94 52.2386 138.663 48.8598 136.335C45.481 134.008 41.4878 132.734 37.3853 132.676C34.6613 132.637 31.9563 133.134 29.4247 134.141C26.8932 135.147 24.5847 136.642 22.6312 138.541C20.6777 140.44 19.1174 142.705 18.0395 145.207C16.9616 147.709 16.3873 150.398 16.3492 153.122Z" fill="#263238"/>
<path d="M16.3495 153.066V153.123C16.3254 158.589 18.4596 163.844 22.2881 167.745C26.1167 171.646 31.3302 173.879 36.7956 173.957C42.261 174.036 47.5365 171.954 51.4756 168.164C55.4146 164.375 57.6989 159.184 57.8319 153.72C57.8319 153.72 57.8319 153.682 57.8319 153.669L16.3495 153.066Z" fill="#263238"/>
<path d="M22.5266 153.212C22.4803 156.099 23.2922 158.936 24.8592 161.361C26.4263 163.787 28.6781 165.693 31.3293 166.837C33.9805 167.982 36.9118 168.314 39.7519 167.791C42.5919 167.268 45.2129 165.914 47.2826 163.9C49.3524 161.887 50.7779 159.304 51.3785 156.479C51.9791 153.655 51.7277 150.715 50.6563 148.034C49.5848 145.352 47.7415 143.049 45.3599 141.416C42.9782 139.783 40.1654 138.893 37.2778 138.86C33.4212 138.816 29.704 140.301 26.9395 142.991C24.1751 145.681 22.5884 149.356 22.5266 153.212Z" fill="#FAFAFA"/>
<path d="M37.2774 138.861C33.4175 138.811 29.6954 140.294 26.9268 142.984C24.1582 145.675 22.5689 149.352 22.5071 153.212L51.6291 153.631C51.6783 149.771 50.1954 146.049 47.5052 143.28C44.8151 140.512 41.1372 138.922 37.2774 138.861Z" fill="#E0E0E0"/>
<path d="M28.2149 153.295C28.1888 155.051 28.6841 156.776 29.6383 158.251C30.5925 159.725 31.9627 160.884 33.5755 161.58C35.1883 162.276 36.9713 162.477 38.6988 162.16C40.4263 161.842 42.0207 161.019 43.2804 159.795C44.5401 158.571 45.4083 157 45.7753 155.283C46.1423 153.565 45.9916 151.777 45.3422 150.145C44.6927 148.513 43.5738 147.11 42.127 146.114C40.6802 145.118 38.9704 144.574 37.2141 144.55C34.8614 144.517 32.5922 145.42 30.9048 147.06C29.2175 148.7 28.25 150.943 28.2149 153.295Z" fill="#263238"/>
<path d="M66.5963 145.095C66.4505 145.152 55.6692 143.408 55.6692 143.408C55.0855 144.171 54.342 144.798 53.4908 145.244C52.6397 145.69 51.7014 145.944 50.7416 145.989C46.0803 146.211 41.5141 146.421 37.5631 146.624C35.8011 146.704 34.1424 147.478 32.9485 148.777C31.7547 150.075 31.1224 151.793 31.1895 153.555C31.2613 155.235 31.9615 156.826 33.1515 158.014C34.3414 159.201 35.9341 159.898 37.6138 159.967L60.5842 160.867C64.3893 161.02 69.3868 158.724 71.7459 155.794L66.5963 145.095Z" fill="#0B9346"/>
<path d="M10.1596 135.91C10.1596 135.91 9.17028 115.698 28.1706 111.481V108.894H94.7225V115.071C94.7225 115.071 84.956 126.835 88.146 136.601C91.3359 146.368 92.3316 147.383 92.3316 147.383H130.212C133.198 143.179 134.863 138.18 134.994 133.025C135.196 124.457 131.632 109.794 128.975 100.427C126.559 91.9037 125.03 84.7817 125.03 84.7817L136.389 80.9766C136.389 80.9766 157.419 108.469 158.275 110.016C159.131 111.564 162.08 115.166 161.37 123.068C160.659 130.97 141.786 155.361 136.807 158.113C131.829 160.866 127.333 161.037 122.893 161.728C119.012 162.324 90.3402 161.925 82.8378 161.81C80.2299 161.796 77.673 161.087 75.4304 159.756C73.1854 158.398 71.4985 156.147 69.6403 152.45L65.6893 144.719L10.1596 135.91Z" fill="#0B9346"/>
<path d="M15.2519 134.529L6.86792 147.638C6.62773 148.004 6.5117 148.438 6.53697 148.876C6.56224 149.313 6.72746 149.73 7.00824 150.067C7.28902 150.403 7.67048 150.64 8.09629 150.743C8.5221 150.846 8.96969 150.809 9.37297 150.638C10.4159 150.177 11.3675 149.533 12.1824 148.735C16.0193 145.082 22.8558 135.474 22.8558 135.474L15.2519 134.529Z" fill="#0B9346"/>
<path d="M75.3675 136.868C75.3768 136.804 75.3917 136.74 75.4119 136.678C75.4541 136.547 75.5112 136.363 75.5831 136.126C75.7848 135.418 75.9311 134.695 76.0207 133.964C76.3128 131.255 75.8748 128.518 74.7523 126.036C73.9898 124.327 72.9458 122.758 71.6638 121.394C70.1879 119.839 68.4756 118.527 66.5903 117.506C64.5002 116.378 62.2633 115.546 59.944 115.033C57.4437 114.493 54.8916 114.229 52.3337 114.247C49.7875 114.266 47.2453 114.453 44.7234 114.805C42.2691 115.141 39.9099 115.547 37.6902 116.073C33.7446 116.908 29.9418 118.314 26.4017 120.246C24.0253 121.566 21.8528 123.224 19.952 125.167C19.2797 125.859 18.8041 126.436 18.4806 126.829L18.1191 127.279C18.0814 127.332 18.0389 127.381 17.9923 127.425C18.5562 126.594 19.1929 125.816 19.8949 125.098C21.778 123.115 23.9478 121.426 26.3319 120.088C29.876 118.116 33.6932 116.682 37.6585 115.832C39.8845 115.319 42.2437 114.906 44.7044 114.564C47.2468 114.203 49.8103 114.013 52.3781 113.993C54.9493 113.975 57.5145 114.243 60.0264 114.792C62.369 115.325 64.6268 116.179 66.7361 117.329C68.6469 118.366 70.3808 119.699 71.8731 121.28C73.1674 122.665 74.2161 124.261 74.9743 125.998C76.0997 128.51 76.5227 131.281 76.1983 134.014C76.0973 134.75 75.9339 135.476 75.7099 136.183L75.5133 136.729C75.4675 136.778 75.4188 136.825 75.3675 136.868Z" fill="#263238"/>
<path d="M71.5244 132.333C71.4927 132.333 71.6322 132.01 71.778 131.433C71.9654 130.6 71.9891 129.738 71.8478 128.896C71.6536 127.658 71.2368 126.466 70.6175 125.376C70.2646 124.725 69.8528 124.107 69.3871 123.531C68.8918 122.912 68.3328 122.346 67.7192 121.844C66.5298 120.869 65.1944 120.088 63.7619 119.529C62.5873 119.077 61.3697 118.745 60.128 118.54C59.288 118.399 58.4413 118.301 57.5912 118.248C57.2772 118.245 56.9636 118.222 56.6526 118.178C56.7347 118.167 56.8179 118.167 56.9 118.178C57.0585 118.178 57.2931 118.178 57.5976 118.178C58.4469 118.191 59.2944 118.261 60.1343 118.387C61.3947 118.571 62.6319 118.888 63.8253 119.332C65.2888 119.89 66.6529 120.681 67.8651 121.673C68.4871 122.193 69.0507 122.78 69.5457 123.423C70.0249 124.018 70.4494 124.654 70.8141 125.325C71.4386 126.445 71.8494 127.671 72.0254 128.94C72.1486 129.799 72.0924 130.673 71.8605 131.509C71.8016 131.728 71.7209 131.94 71.6195 132.143C71.5932 132.209 71.5614 132.273 71.5244 132.333Z" fill="#F5F5F5"/>
<g opacity="0.4">
<path d="M58.4978 114.621C62.0816 115.281 65.492 116.669 68.518 118.699C71.5614 120.722 73.9068 123.634 75.234 127.039C76.5595 130.457 76.3629 134.985 74.9613 137.82L79.667 138.207C81.2525 132.93 79.5275 126.449 75.7224 122.314C73.5438 119.905 70.8868 117.976 67.921 116.652C64.9552 115.327 61.7459 114.636 58.4978 114.621Z" fill="black"/>
</g>
<path d="M94.6911 111.248C94.6911 111.325 79.7305 111.382 61.282 111.382C42.8334 111.382 27.8728 111.325 27.8728 111.248C27.8728 111.172 42.8334 111.115 61.282 111.115C79.7305 111.115 94.6911 111.179 94.6911 111.248Z" fill="#263238"/>
<path d="M94.7225 108.894C95.3975 108.034 95.8153 107.001 95.9275 105.914C96.029 104.239 95.2933 102.146 93.4732 102.146H70.4901C69.6043 102.146 68.7272 102.321 67.9088 102.66C67.0905 102.999 66.3471 103.497 65.721 104.123C65.0949 104.75 64.5984 105.494 64.26 106.312C63.9216 107.131 63.7479 108.008 63.7487 108.894H94.7225Z" fill="#0B9346"/>
<path d="M125.031 84.7705L121.029 76.4373C120.495 75.2937 120.406 73.992 120.78 72.7864C121.154 71.5809 121.964 70.5581 123.052 69.9178L135 62.7895C135.625 62.4159 136.34 62.2186 137.068 62.2188H139.649L140.689 79.0628L136.7 80.6229L139.237 84.7198L125.031 84.7705Z" fill="#0B9346"/>
<path d="M139.687 62.8262C139.687 62.8262 143.777 63.7648 144.291 70.0686C144.805 76.3725 140.689 78.3131 140.689 78.3131L139.687 62.8262Z" fill="white"/>
<path d="M139.687 62.8276C139.715 62.9375 139.73 63.0503 139.731 63.1637L139.807 64.0706C139.877 64.8951 139.959 66.0112 140.067 67.3811C140.283 70.1715 140.568 74.0084 140.847 78.3272L140.612 78.1877C141.052 77.9471 141.455 77.6461 141.811 77.2935C142.621 76.5095 143.238 75.5477 143.612 74.484C143.966 73.4919 144.157 72.4488 144.177 71.3955C144.243 69.5996 143.898 67.8122 143.168 66.1698C142.657 65.072 141.863 64.1306 140.866 63.4428C140.493 63.196 140.098 62.9837 139.687 62.8086C139.804 62.8163 139.919 62.8419 140.029 62.8847C140.345 62.9974 140.649 63.1419 140.936 63.3159C141.991 63.9794 142.837 64.9268 143.378 66.0493C144.158 67.7162 144.536 69.5431 144.481 71.3828C144.47 72.4638 144.279 73.5353 143.917 74.5538C143.519 75.667 142.868 76.6724 142.014 77.4901C141.637 77.8643 141.21 78.1845 140.746 78.4414L140.524 78.5555V78.3019C140.245 73.9069 140.029 69.994 139.89 67.2099C139.826 65.859 139.769 64.7556 139.731 63.9375L139.693 63.0686C139.684 62.9886 139.682 62.908 139.687 62.8276Z" fill="#263238"/>
<path d="M124.967 73.3741C124.967 73.3741 114.078 78.5364 112.746 79.3545C111.827 79.9443 111.034 80.9717 111.757 82.7854C112.994 85.8676 118.099 82.9694 118.099 82.9694L128.246 77.8958C128.246 77.8958 132.14 76.0504 130.7 73.7546C129.064 71.2051 124.967 73.3741 124.967 73.3741Z" fill="#263238"/>
<path d="M123.591 66.6137C125.374 66.6137 126.819 64.0668 126.819 60.925C126.819 57.7832 125.374 55.2363 123.591 55.2363C121.808 55.2363 120.363 57.7832 120.363 60.925C120.363 64.0668 121.808 66.6137 123.591 66.6137Z" fill="#263238"/>
<path d="M124.117 64.8371L125.893 70.9824C126.217 70.8199 126.475 70.5513 126.625 70.2212C126.775 69.8912 126.808 69.5197 126.717 69.1686C126.273 67.0631 126.019 65.5664 125.531 63.7209C125.474 63.537 124.117 64.8371 124.117 64.8371Z" fill="#263238"/>
<g opacity="0.3">
<path d="M89.0206 139.228C88.843 138.721 88.6654 138.207 88.4942 137.675C88.323 137.142 88.1518 136.666 88.0186 136.172C87.811 135.413 87.6626 134.639 87.5746 133.857C84.5813 146.04 89.1474 154.62 96.9987 155.223C108.459 156.104 122.436 156.745 128.074 155.261C138.38 152.559 142.159 143.966 143.06 142.577C143.96 141.188 152.161 126.177 147.138 111.755C142.115 97.3337 133.363 82.0117 133.357 82.0117L125.017 84.7958C125.017 84.7958 126.546 91.9178 128.962 100.441C131.619 109.808 135.183 124.471 134.98 133.039C134.85 138.194 133.185 143.193 130.199 147.397H92.3311C92.3311 147.397 91.5193 146.585 89.0206 139.254" fill="black"/>
</g>
<path d="M8.64351 132.74L8.90987 129.848L78.0366 137.813C78.9608 137.922 79.8529 138.219 80.6584 138.685C81.4639 139.152 82.1657 139.777 82.7208 140.524C83.276 141.271 83.6728 142.124 83.8869 143.029C84.1011 143.935 84.1281 144.875 83.9662 145.791L83.6555 147.542L12.1125 137.141C11.0807 136.991 10.1457 136.451 9.50032 135.632C8.8549 134.813 8.54823 133.778 8.64351 132.74Z" fill="#0B9346"/>
<g opacity="0.3">
<path d="M8.64351 132.74L8.90987 129.848L78.0366 137.813C78.9608 137.922 79.8529 138.219 80.6584 138.685C81.4639 139.152 82.1657 139.777 82.7208 140.524C83.276 141.271 83.6728 142.124 83.8869 143.029C84.1011 143.935 84.1281 144.875 83.9662 145.791L83.6555 147.542L12.1125 137.141C11.0807 136.991 10.1457 136.451 9.50032 135.632C8.8549 134.813 8.54823 133.778 8.64351 132.74Z" fill="black"/>
</g>
<g opacity="0.3">
<path d="M143.073 152.082C143.073 152.082 158.293 135.346 161.432 122.18C163.01 122.172 164.585 122.289 166.144 122.529C166.144 122.529 157.139 146.996 143.073 152.082Z" fill="black"/>
</g>
<path d="M161.211 116.283C161.253 116.422 161.28 116.564 161.293 116.708C161.332 116.987 161.414 117.393 161.471 117.932C161.61 119.445 161.57 120.969 161.351 122.473C160.999 124.705 160.321 126.874 159.34 128.91C158.136 131.384 156.792 133.787 155.313 136.108C152.661 140.35 149.682 144.379 146.403 148.158C145.166 149.623 144.145 150.789 143.428 151.589L142.61 152.508C142.518 152.62 142.416 152.724 142.306 152.819C142.382 152.697 142.469 152.582 142.566 152.476L143.352 151.525L146.263 148.037C149.489 144.237 152.437 140.21 155.085 135.987C156.558 133.672 157.906 131.28 159.125 128.821C160.101 126.814 160.789 124.679 161.167 122.479C161.404 120.989 161.47 119.476 161.363 117.97C161.332 117.437 161.262 117.025 161.243 116.746C161.219 116.593 161.208 116.438 161.211 116.283Z" fill="#263238"/>
<path d="M134.898 151.963C133.215 150.561 131.648 149.025 130.212 147.371C131.081 148.038 131.895 148.774 132.647 149.572C133.461 150.306 134.214 151.106 134.898 151.963Z" fill="#263238"/>
<path d="M89.7313 151.449C89.9738 150.667 90.3516 149.933 90.8475 149.281C91.2742 148.583 91.8143 147.961 92.4457 147.441C92.5091 147.492 91.8115 148.329 91.0695 149.426C90.3275 150.524 89.8011 151.481 89.7313 151.449Z" fill="#263238"/>
<path d="M60.4893 161.114C61.3207 160.354 62.0213 159.463 62.5631 158.475C63.1322 157.397 63.4794 156.215 63.5842 155C63.7388 153.519 63.4806 152.024 62.8381 150.681C62.1956 149.338 61.1939 148.199 59.9439 147.39C58.9353 146.704 57.7985 146.229 56.6017 145.994C55.4938 145.792 54.3598 145.777 53.2469 145.95C53.2469 145.95 53.323 145.918 53.4752 145.88C53.6832 145.823 53.8952 145.78 54.1094 145.753C54.9399 145.639 55.7836 145.658 56.6081 145.811C57.8364 146.028 59.0066 146.496 60.0454 147.187C61.3469 148.01 62.3893 149.185 63.0524 150.575C63.7155 151.965 63.9724 153.514 63.7934 155.044C63.6766 156.287 63.303 157.492 62.6963 158.583C62.2954 159.318 61.7818 159.986 61.1742 160.562C60.9649 160.771 60.7683 160.898 60.6542 160.999C60.6038 161.044 60.5485 161.082 60.4893 161.114Z" fill="#263238"/>
<path d="M35.2421 155.811C35.0706 155.011 34.9877 154.195 34.9947 153.376C34.9105 152.56 34.9105 151.738 34.9947 150.922C35.1664 151.724 35.2494 152.543 35.2421 153.364C35.3298 154.177 35.3298 154.998 35.2421 155.811Z" fill="#263238"/>
<path d="M37.0748 155.818C36.8424 155.024 36.6936 154.208 36.6309 153.383C36.4853 152.569 36.4237 151.742 36.4469 150.916C36.6838 151.709 36.8327 152.526 36.8909 153.351C37.044 154.164 37.1057 154.992 37.0748 155.818Z" fill="#263238"/>
<path d="M65.588 108.895C65.588 108.965 57.185 109.028 46.816 109.028C36.447 109.028 28.0376 108.965 28.0376 108.895C28.0376 108.825 36.447 108.762 46.816 108.762C57.185 108.762 65.588 108.819 65.588 108.895Z" fill="#263238"/>
<path d="M21.5753 167.507C21.4932 167.442 21.4187 167.367 21.3534 167.285C21.2202 167.133 21.0046 166.911 20.7636 166.6C20.0526 165.74 19.4161 164.822 18.861 163.854C17.0267 160.648 16.0686 157.016 16.083 153.322C16.0975 149.628 17.084 146.003 18.9434 142.812C19.4978 141.847 20.1343 140.933 20.846 140.078C21.087 139.768 21.309 139.552 21.4422 139.4C21.5105 139.318 21.587 139.244 21.6705 139.178C21.6172 139.268 21.5556 139.353 21.4865 139.431C21.3597 139.596 21.1568 139.825 20.9285 140.142C20.2537 141.013 19.6473 141.936 19.1147 142.9C17.321 146.081 16.3712 149.667 16.3556 153.318C16.3401 156.969 17.2593 160.564 19.0259 163.759C19.554 164.728 20.1539 165.657 20.8206 166.537C21.0426 166.86 21.2456 167.082 21.366 167.253C21.4458 167.329 21.5161 167.414 21.5753 167.507Z" fill="#0B9346"/>
<path d="M92.4521 159.262C92.4521 159.262 93.0355 172.827 93.0482 173.48L95.9274 175.662L102.834 173.943L102.2 158.951L92.4521 159.262Z" fill="#FFBE9D"/>
<path d="M111.478 39.9076L118.702 43.7698L130.783 34.9609L134.296 41.0238C134.296 41.0238 126.94 48.1204 124.327 50.5366C121.714 52.9529 120.002 54.2403 118.093 53.8661C116.184 53.492 105.555 47.5877 105.555 47.5877C105.555 47.5877 108.65 40.0345 111.478 39.9076Z" fill="#FFBE9D"/>
<path d="M118.74 46.458C118.74 46.458 118.784 46.5024 118.809 46.5785V46.6419H118.651V46.5848V46.3946C118.607 46.0326 118.584 45.6684 118.581 45.3038C118.521 44.7821 118.567 44.2538 118.714 43.75C118.892 44.2453 118.959 44.7734 118.911 45.2974C118.911 45.7223 118.911 46.1092 118.879 46.3946V46.5848V46.6419C118.549 46.6419 118.784 46.6419 118.714 46.6419V46.5721C118.695 46.5024 118.721 46.458 118.74 46.458Z" fill="#EB996E"/>
<path d="M132.285 42.6714C132.526 42.7475 134.778 40.3186 134.778 40.3186C134.778 40.3186 138.995 40.2424 140.003 39.6844C141.012 39.1263 142.54 37.0461 142.54 37.0461L140.504 30.8438C138.621 30.967 136.747 31.1999 134.892 31.5414C133.547 31.9155 130.332 35.2831 130.332 35.2831L128.949 37.433C128.949 37.433 128.518 41.5108 132.285 42.6714Z" fill="#FFBE9D"/>
<path d="M139.414 40.0338C139.931 39.9968 140.445 39.9312 140.955 39.8372C141.97 39.6659 143.016 39.5772 142.985 38.5688C142.987 38.4017 142.954 38.236 142.888 38.0828C142.821 37.9297 142.722 37.7926 142.598 37.6809C142.598 37.6809 143.346 37.3702 143.34 36.8057C143.338 36.6416 143.297 36.4801 143.221 36.3346C143.145 36.1891 143.036 36.0637 142.902 35.9686C142.902 35.9686 143.936 35.493 143.968 34.6558C143.972 34.3464 143.89 34.042 143.731 33.7765C143.571 33.5111 143.342 33.2951 143.067 33.1528C143.067 33.1528 146.238 32.2459 146.492 32.1444C147.392 31.7766 149.111 30.9585 148.394 30.2863C148.134 30.0389 148.033 29.7662 146.219 29.9882C144.57 30.1848 141.976 30.7936 141.976 30.7936C141.976 30.7936 139.757 30.9014 138.59 31.0219C137.143 31.1543 135.711 31.4111 134.309 31.7893C132.812 32.4806 131.506 34.4466 131.506 34.4466L134.797 40.3192L139.414 40.0338Z" fill="#FFBE9D"/>
<path d="M142.35 37.6558C142.054 37.6155 141.755 37.5985 141.456 37.6051H140.486C140.293 37.59 140.1 37.59 139.908 37.6051C139.689 37.6329 139.484 37.7307 139.325 37.8841C139.238 37.9621 139.174 38.0625 139.14 38.1744C139.107 38.2863 139.105 38.4053 139.135 38.5183C139.199 38.7166 139.338 38.8824 139.522 38.9813C139.672 39.074 139.831 39.1505 139.997 39.2096L140.416 39.3681C140.682 39.4633 140.891 39.5267 141.05 39.5647C141.208 39.6028 141.285 39.6218 141.285 39.6091C141.285 39.5964 140.967 39.4823 140.46 39.2793C140.162 39.1669 139.874 39.0312 139.598 38.8735C139.445 38.7873 139.329 38.6471 139.274 38.4803C139.253 38.3922 139.257 38.3 139.285 38.2139C139.313 38.1278 139.364 38.051 139.433 37.9919C139.571 37.8605 139.746 37.7743 139.934 37.7446C140.119 37.7292 140.306 37.7292 140.492 37.7446H141.462C141.76 37.7386 142.057 37.7089 142.35 37.6558Z" fill="#EB996E"/>
<path d="M138.888 33.3238C139.217 33.1833 139.509 32.9659 139.737 32.6896C140.004 32.452 140.207 32.151 140.327 31.8145C140.295 31.8145 140.035 32.1823 139.636 32.5945C139.236 33.0067 138.862 33.2921 138.888 33.3238Z" fill="#EB996E"/>
<path d="M136.211 31.8594C137.052 32.0616 137.816 32.502 138.412 33.1278C139.002 33.7519 139.494 34.4618 139.871 35.2333C140.188 35.8675 140.461 36.5968 140.112 37.1866C139.899 37.4753 139.588 37.6761 139.238 37.7509C138.887 37.8257 138.521 37.7693 138.209 37.5924C137.601 37.2257 137.122 36.6781 136.839 36.026C136.56 35.3762 136.202 34.7629 135.774 34.1995" fill="#FFBE9D"/>
<path d="M135.818 34.1942C135.818 34.1942 135.932 34.34 136.116 34.6318C136.348 35.0438 136.56 35.4671 136.75 35.9001C136.894 36.206 137.063 36.4989 137.257 36.7753C137.479 37.1001 137.769 37.3728 138.107 37.5744C138.492 37.7933 138.945 37.8589 139.376 37.7583C139.613 37.7049 139.832 37.5889 140.01 37.4222C140.181 37.2497 140.294 37.0279 140.333 36.788C140.378 36.3166 140.283 35.8425 140.061 35.4245C139.87 35.041 139.658 34.6684 139.426 34.3083C139.046 33.692 138.566 33.1433 138.006 32.6848C137.627 32.3775 137.198 32.1372 136.737 31.9745C136.612 31.929 136.482 31.8951 136.351 31.873C136.262 31.873 136.217 31.873 136.217 31.873C136.217 31.873 136.401 31.9238 136.718 32.0443C137.164 32.2246 137.579 32.4727 137.949 32.7799C138.493 33.2401 138.958 33.7864 139.325 34.3971C139.545 34.7543 139.746 35.1226 139.927 35.5006C140.136 35.8888 140.227 36.3299 140.187 36.769C140.155 36.9833 140.058 37.1825 139.908 37.3398C139.754 37.4858 139.564 37.5886 139.357 37.6378C138.958 37.7382 138.535 37.6814 138.177 37.4793C137.855 37.2877 137.576 37.0306 137.359 36.7246C137.165 36.4555 136.993 36.1714 136.845 35.8748C136.637 35.4379 136.402 35.0143 136.141 34.6064C136.046 34.4669 135.957 34.3654 135.9 34.2956C135.843 34.2259 135.818 34.1878 135.818 34.1942Z" fill="#EB996E"/>
<path d="M142.255 37.6561C140.955 37.6572 139.655 37.7249 138.361 37.8591C137.991 37.927 137.61 37.8942 137.258 37.7639C136.985 37.6308 136.884 36.9458 136.814 36.6541L141.583 35.9121" fill="#FFBE9D"/>
<path d="M141.583 35.9122C141.46 35.9112 141.336 35.9218 141.215 35.9439L140.2 36.0834L136.801 36.5844H136.731V36.6605C136.782 36.8761 136.826 37.1171 136.903 37.3518C136.933 37.4497 136.976 37.5435 137.029 37.6308C137.056 37.6751 137.088 37.7156 137.125 37.7513C137.166 37.7883 137.213 37.8183 137.264 37.8401C137.444 37.9105 137.636 37.9449 137.828 37.9416C138.203 37.9416 138.545 37.8908 138.875 37.8655C139.509 37.8084 140.143 37.7577 140.625 37.726C141.107 37.6942 141.526 37.6816 141.811 37.6689C141.955 37.6795 142.099 37.6795 142.242 37.6689C142.1 37.645 141.956 37.6344 141.811 37.6372C141.526 37.6372 141.12 37.6372 140.619 37.6372C140.118 37.6372 139.522 37.6942 138.862 37.745C138.532 37.745 138.184 37.8147 137.835 37.8084C137.659 37.8127 137.484 37.7803 137.321 37.7133C137.169 37.6625 137.099 37.485 137.036 37.3137C136.972 37.1425 136.922 36.8571 136.871 36.6351L136.814 36.7176C138.158 36.5083 139.351 36.3117 140.2 36.1658L141.209 35.9883C141.335 35.9731 141.46 35.9477 141.583 35.9122Z" fill="#EB996E"/>
<path d="M142.972 35.6462L138.006 36.5974C137.658 36.685 137.298 36.7129 136.94 36.6799C136.763 36.6621 136.592 36.6007 136.444 36.5011C136.296 36.4015 136.174 36.2669 136.091 36.1091C136.018 35.8762 136.023 35.6257 136.107 35.3964C136.191 35.1671 136.348 34.9718 136.554 34.8407C136.978 34.5882 137.452 34.4283 137.942 34.3714C139.452 34.0746 140.936 33.6611 142.382 33.1348" fill="#FFBE9D"/>
<path d="M142.369 33.1152C142.319 33.1221 142.27 33.1348 142.223 33.1533L141.811 33.2865C141.455 33.3943 140.942 33.5592 140.301 33.7304C139.661 33.9016 138.887 34.0982 138.025 34.2695C137.559 34.3304 137.105 34.463 136.68 34.6627C136.452 34.782 136.261 34.962 136.128 35.1827C135.981 35.4121 135.923 35.687 135.963 35.9564C135.994 36.0902 136.053 36.2159 136.136 36.3252C136.219 36.4346 136.325 36.525 136.445 36.5906C136.671 36.7135 136.924 36.7768 137.181 36.7745C137.645 36.7406 138.105 36.6706 138.557 36.5652L140.859 36.1086L142.407 35.7915L142.825 35.6964L142.971 35.652C142.921 35.645 142.869 35.645 142.819 35.652L142.394 35.7218L140.84 35.9945L138.532 36.4257C138.088 36.5275 137.636 36.5933 137.181 36.6223C136.949 36.6258 136.719 36.569 136.515 36.4574C136.412 36.402 136.322 36.3252 136.251 36.2323C136.18 36.1393 136.129 36.0323 136.103 35.9184C136.068 35.684 136.12 35.4451 136.249 35.2461C136.369 35.0485 136.54 34.8865 136.743 34.7768C137.157 34.5819 137.597 34.4514 138.05 34.39C138.912 34.2124 139.686 34.0094 140.327 33.8255C140.967 33.6416 141.481 33.4577 141.83 33.3309L142.229 33.1723L142.369 33.1152Z" fill="#EB996E"/>
<path d="M133.04 36.8633C133.04 36.8633 133.11 37.0091 133.301 37.1804C133.555 37.3932 133.854 37.5469 134.176 37.6307C134.496 37.7176 134.832 37.7306 135.159 37.6687C135.406 37.618 135.546 37.5482 135.539 37.5292C135.099 37.5993 134.65 37.5885 134.214 37.4975C133.785 37.3644 133.387 37.149 133.04 36.8633Z" fill="#EB996E"/>
<path d="M106.17 71.998C106.17 71.998 118.219 74.2241 119.056 74.4524C119.893 74.6807 123.337 76.3042 123.496 77.3443C123.588 78.7126 123.588 80.0855 123.496 81.4538C123.496 81.4538 122.861 81.9548 122.494 80.9528C122.239 79.9785 122.13 78.972 122.17 77.9658L120.268 77.2301L121.308 79.082L121.479 83.4198C121.479 83.4198 120.147 83.2993 119.887 82.2592C119.724 81.5391 119.639 80.8034 119.633 80.0649L118.238 78.8854L119.285 80.2996L119.633 83.4198C119.633 83.4198 118.619 83.7496 118.295 83.0583C118.064 82.1572 117.948 81.23 117.953 80.2996L114.021 78.9234L111.421 80.3757L108.599 78.8283C108.204 78.61 107.862 78.3078 107.597 77.9429C107.331 77.578 107.15 77.1593 107.064 76.7164L106.17 71.998Z" fill="#FFBE9D"/>
<path d="M82.1083 12.1303L82.5079 33.1537C82.5392 34.8077 83.1956 36.3884 84.3452 37.5779C85.4947 38.7674 87.052 39.4775 88.7039 39.5654C89.5977 39.6114 90.4914 39.4737 91.3298 39.1606C92.1683 38.8476 92.9336 38.3659 93.5785 37.7454C94.2234 37.1248 94.7342 36.3786 95.0793 35.5529C95.4244 34.7271 95.5965 33.8394 95.5849 32.9445C95.5849 30.9404 95.5214 29.3042 95.5214 29.3042C95.5214 29.3042 100.633 28.7778 100.963 23.7106C101.147 20.7807 100.963 14.109 100.817 8.99744C100.761 7.32471 100.078 5.73424 98.9028 4.5426C97.7276 3.35095 96.1468 2.64553 94.475 2.56675L91.4119 2.4082C90.1582 2.42101 88.9198 2.68435 87.7694 3.18273C86.6189 3.68111 85.5798 4.40446 84.713 5.31027C83.8462 6.21608 83.1692 7.28605 82.7219 8.45727C82.2746 9.62849 82.066 10.8773 82.1083 12.1303Z" fill="#FFBE9D"/>
<path d="M95.5221 29.2528C93.1807 29.123 90.9252 28.3264 89.0216 26.957C89.0216 26.957 90.4612 30.7622 95.5474 30.5339L95.5221 29.2528Z" fill="#EB996E"/>
<path d="M99.6121 13.7597C99.5233 13.8549 98.9779 13.4173 98.2106 13.3792C97.4432 13.3412 96.8407 13.7027 96.7646 13.6012C96.6885 13.4997 96.8217 13.3919 97.0817 13.2207C97.4323 13.0078 97.8391 12.906 98.2486 12.929C98.6545 12.9485 99.0434 13.0974 99.3585 13.3539C99.5868 13.5441 99.6629 13.7217 99.6121 13.7597Z" fill="#263238"/>
<path d="M92.1098 15.4279C92.1031 15.6174 92.0223 15.7967 91.8847 15.9272C91.7471 16.0577 91.5637 16.1289 91.3741 16.1255C91.2817 16.1271 91.1898 16.1106 91.1037 16.0768C91.0177 16.0429 90.9391 15.9925 90.8726 15.9283C90.806 15.8641 90.7528 15.7874 90.7159 15.7026C90.679 15.6179 90.6591 15.5267 90.6575 15.4342C90.6641 15.2447 90.7449 15.0653 90.8825 14.9348C91.0201 14.8043 91.2035 14.7331 91.3931 14.7366C91.4858 14.7341 91.578 14.75 91.6645 14.7835C91.7509 14.8171 91.8298 14.8675 91.8965 14.9319C91.9632 14.9962 92.0164 15.0732 92.0531 15.1584C92.0897 15.2435 92.109 15.3352 92.1098 15.4279Z" fill="#263238"/>
<path d="M99.2064 15.4279C99.1998 15.6174 99.1189 15.7967 98.9813 15.9272C98.8437 16.0577 98.6603 16.1289 98.4707 16.1255C98.3781 16.128 98.2858 16.112 98.1994 16.0785C98.113 16.045 98.0341 15.9946 97.9674 15.9302C97.9006 15.8658 97.8474 15.7888 97.8108 15.7037C97.7742 15.6185 97.7549 15.5269 97.7541 15.4342C97.7607 15.2447 97.8415 15.0653 97.9791 14.9348C98.1168 14.8043 98.3001 14.7331 98.4898 14.7366C98.5824 14.7341 98.6747 14.75 98.7611 14.7835C98.8475 14.8171 98.9264 14.8675 98.9931 14.9319C99.0598 14.9962 99.1131 15.0732 99.1497 15.1584C99.1863 15.2435 99.2056 15.3352 99.2064 15.4279Z" fill="#263238"/>
<path d="M92.0847 13.4814C91.9896 13.5702 91.4505 13.1326 90.6832 13.0946C89.9158 13.0565 89.3133 13.418 89.2309 13.3165C89.1484 13.2151 89.2943 13.1073 89.5543 12.9424C89.9025 12.7234 90.3107 12.6191 90.7212 12.6443C91.127 12.6638 91.516 12.8127 91.8311 13.0692C92.0594 13.2658 92.1291 13.4371 92.0847 13.4814Z" fill="#263238"/>
<path d="M94.5446 19.6831C94.959 19.576 95.385 19.5207 95.813 19.5182C96.0096 19.5182 96.2062 19.4801 96.2442 19.3469C96.269 19.1426 96.2338 18.9354 96.1427 18.7508L95.6227 17.2034C95.1435 15.8909 94.7703 14.5421 94.5065 13.1699C95.0904 14.4401 95.5718 15.755 95.9461 17.1019C96.1174 17.6473 96.2759 18.161 96.4345 18.6557C96.5468 18.9026 96.5671 19.1815 96.4915 19.4421C96.4596 19.5117 96.4121 19.573 96.3527 19.6214C96.2934 19.6697 96.2237 19.7039 96.1491 19.7211C96.0375 19.736 95.9245 19.736 95.813 19.7211C95.3902 19.7604 94.9642 19.7476 94.5446 19.6831Z" fill="#263238"/>
<path d="M92.2173 20.1017C92.3504 20.1017 92.3061 20.9515 92.9973 21.5857C93.6886 22.2199 94.5955 22.1755 94.5955 22.296C94.5955 22.4165 94.3862 22.4482 94.0057 22.4419C93.5097 22.4215 93.0364 22.2286 92.6675 21.8965C92.3147 21.5649 92.1015 21.1113 92.0714 20.6281C92.0587 20.2983 92.1602 20.0954 92.2173 20.1017Z" fill="#263238"/>
<path d="M92.1796 10.6514C92.0908 10.8543 91.3234 10.7148 90.3975 10.7782C89.4716 10.8416 88.7296 11.0509 88.6154 10.8543C88.5647 10.7655 88.7042 10.5689 89.015 10.3787C89.4241 10.1447 89.8824 10.0101 90.3531 9.98548C90.824 9.95317 91.2957 10.0336 91.7293 10.2201C92.0591 10.3723 92.2176 10.5499 92.1796 10.6514Z" fill="#263238"/>
<path d="M99.3774 10.9443C99.2316 11.1155 98.7052 10.8999 98.0583 10.8619C97.4115 10.8238 96.8597 10.9189 96.7456 10.7223C96.6948 10.6335 96.79 10.4623 97.0373 10.3038C97.3679 10.1192 97.7461 10.0375 98.1235 10.0692C98.5008 10.1008 98.8602 10.2443 99.1555 10.4813C99.3775 10.6716 99.4282 10.8619 99.3774 10.9443Z" fill="#263238"/>
<path d="M83.6244 15.9992C83.542 15.9548 80.1935 14.7879 80.1237 18.2569C80.0539 21.7259 83.5737 21.0854 83.5737 21.0093C83.5737 20.9332 83.6244 15.9992 83.6244 15.9992Z" fill="#FFBE9D"/>
<path d="M82.5269 19.6457C82.5269 19.6457 82.4698 19.6901 82.362 19.7345C82.217 19.7895 82.0568 19.7895 81.9117 19.7345C81.6966 19.5834 81.5248 19.3787 81.4135 19.1405C81.3022 18.9024 81.2554 18.6392 81.2775 18.3773C81.2763 18.0799 81.339 17.7858 81.4615 17.5148C81.4968 17.4064 81.558 17.3081 81.6398 17.2286C81.7215 17.1491 81.8214 17.0906 81.9308 17.0582C81.9997 17.0416 82.0724 17.0496 82.136 17.0809C82.1997 17.1122 82.2505 17.1647 82.2796 17.2294C82.324 17.3309 82.2796 17.4006 82.324 17.407C82.3683 17.4133 82.4001 17.3499 82.3747 17.204C82.3549 17.1178 82.3082 17.0401 82.2415 16.9821C82.1453 16.9094 82.0254 16.8755 81.9054 16.8869C81.7644 16.9153 81.6326 16.9783 81.5219 17.0701C81.4112 17.162 81.3251 17.2799 81.2712 17.4133C81.1149 17.7102 81.0363 18.0418 81.0429 18.3773C81.0195 18.6864 81.0876 18.9955 81.2388 19.2662C81.3899 19.5369 81.6173 19.7571 81.8927 19.8993C81.9863 19.926 82.0844 19.9325 82.1806 19.9183C82.2769 19.904 82.369 19.8695 82.4508 19.8169C82.5206 19.7408 82.5396 19.652 82.5269 19.6457Z" fill="#EB996E"/>
<path d="M81.7028 15.7767C82.0334 15.7737 82.3586 15.86 82.6444 16.0262C82.9301 16.1925 83.1657 16.4328 83.3264 16.7216C83.523 17.229 83.5483 17.7934 83.7449 18.3008C83.821 18.5622 83.982 18.7908 84.2025 18.9505C84.423 19.1101 84.6905 19.1917 84.9626 19.1823C85.1457 19.1353 85.3131 19.0408 85.4479 18.9083C85.5826 18.7757 85.6799 18.6099 85.7299 18.4276C85.8231 18.0632 85.8468 17.6846 85.7997 17.3114C85.6729 15.6816 85.4192 14.058 85.4382 12.4218C85.3904 10.7768 85.8318 9.15451 86.7066 7.76052C87.1517 7.07223 87.7743 6.51684 88.5088 6.15296C89.2433 5.78907 90.0623 5.63019 90.8796 5.69307C91.9514 5.83259 92.909 6.44775 93.9744 6.65703C94.6032 6.76906 95.2491 6.73771 95.864 6.56531C96.4789 6.39291 97.047 6.08391 97.5259 5.66136C97.6527 5.55354 98.2108 5.22376 98.2108 5.22376C98.2159 4.83763 98.1079 4.45844 97.9001 4.13296C95.877 2.05916 92.0782 1.31081 89.237 1.87524C87.793 2.15057 86.4265 2.7375 85.2326 3.59512C84.0387 4.45274 83.0462 5.56043 82.3244 6.84095C80.9799 9.40942 81.1511 13.0877 81.6902 15.7767" fill="#263238"/>
<path d="M96.6438 4.66497C94.7412 4.73473 91.0566 5.44503 89.5409 6.62462C89.3633 6.76414 89.1667 6.99245 89.2872 7.18905C89.4077 7.38565 89.5853 7.34125 89.7565 7.33491C91.5163 7.42474 93.2626 7.69031 94.9696 8.12765C96.0558 8.51139 97.2049 8.6857 98.3561 8.64134C98.9312 8.60981 99.4884 8.42961 99.973 8.11837C100.458 7.80713 100.853 7.37548 101.121 6.86561L101.61 7.04953C101.054 6.26141 100.306 5.62855 99.4369 5.21116C98.5677 4.79378 97.6062 4.60575 96.6438 4.66497Z" fill="#263238"/>
<path d="M100.621 6.99924C99.5861 6.02591 98.2601 5.41978 96.8472 5.27424C92.4586 4.8747 85.2542 6.19381 81.4364 13.7343C81.0205 12.4294 80.7608 11.0797 80.6627 9.71357C80.6627 8.67984 81.2968 2.53453 87.6387 0.631965C87.6514 0.631965 97.2023 -2.96389 100.621 6.99924Z" fill="#0B9346"/>
<g opacity="0.3">
<path d="M100.621 6.99924C99.5205 5.82421 98.0049 5.12554 96.3969 5.05227C92.4649 4.86201 85.0322 6.62506 81.4364 13.7343C81.0205 12.4294 80.7608 11.0797 80.6627 9.71357C80.6627 8.67984 81.2968 2.53453 87.6387 0.631965C87.6514 0.631965 97.2023 -2.96389 100.621 6.99924Z" fill="black"/>
</g>
<path d="M82.0326 12.6622C83.9351 9.49123 86.789 7.30327 89.8648 5.4007C92.9406 3.49813 98.0078 1.63996 101.502 0.726724C102.537 0.393017 103.631 0.284892 104.711 0.409629C105.249 0.479857 105.757 0.700376 106.175 1.04588C106.593 1.39138 106.906 1.84787 107.077 2.36294C107.406 3.68205 105.06 5.69877 103.956 6.49151C102.935 7.17184 101.877 7.79433 100.786 8.35603C100.786 8.35603 100.659 5.99684 96.7521 5.48315C91.4312 4.78554 81.8677 12.7954 82.0326 12.6622Z" fill="#0B9346"/>
<path d="M89.2814 2.92804C90.4399 2.38279 91.6512 1.95778 92.8963 1.65966C94.1548 1.46531 95.4293 1.39521 96.7015 1.45038C96.3435 1.32022 95.9661 1.2516 95.5853 1.24743C94.6652 1.17383 93.7393 1.22503 92.8329 1.39964C91.9299 1.57634 91.0552 1.87503 90.2327 2.28751C89.8836 2.44904 89.5624 2.66527 89.2814 2.92804Z" fill="white"/>
<path d="M102.922 173.1L102.96 173.696C102.96 173.696 113.742 177.292 113.989 179.201L93.0859 180L92.9591 173.322C94.5451 173.975 96.2492 174.292 97.9639 174.254C99.6787 174.216 101.367 173.823 102.922 173.1Z" fill="#0B9346"/>
<g opacity="0.6">
<path d="M93.0858 179.999L93.0541 178.395L113.082 178.211C113.082 178.211 114.033 178.566 113.97 179.2L93.0858 179.999Z" fill="white"/>
</g>
<path d="M103.037 173.746C103.037 173.841 102.536 173.905 102.054 174.241C101.572 174.577 101.331 174.996 101.23 174.964C101.128 174.932 101.23 174.33 101.864 173.962C102.498 173.594 103.056 173.657 103.037 173.746Z" fill="#263238"/>
<path d="M105.281 174.533C105.313 174.628 104.882 174.806 104.558 175.237C104.235 175.668 104.165 176.106 104.064 176.106C103.962 176.106 103.861 175.554 104.273 175.028C104.685 174.501 105.275 174.438 105.281 174.533Z" fill="#263238"/>
<path d="M106.684 177.019C106.589 177.019 106.417 176.556 106.646 176.011C106.874 175.465 107.343 175.237 107.388 175.313C107.432 175.389 107.159 175.694 106.975 176.144C106.791 176.594 106.785 177.019 106.684 177.019Z" fill="#263238"/>
<path d="M104.597 126.417L101.058 114.621L96.3463 99.6035L96.6063 91.8728L88.717 86.4378C83.561 86.5265 68.537 85.6387 68.537 85.6387C68.537 85.6387 68.9239 93.4773 69.6976 99.1216C69.8545 100.241 70.2691 101.309 70.9089 102.242L77.8279 112.332L89.7253 134.528C89.7253 134.528 90.5181 142.456 90.8478 149.305C91.2157 156.979 92.4523 170.867 92.4523 170.867L104.692 171.159L105.46 140.414C105.77 135.797 106.113 130.793 104.597 126.417Z" fill="#263238"/>
<path d="M112.176 126.043C113.584 127.185 114.846 142.703 112.525 141.574L115.283 144.181L122.665 142.912L123.686 126.607L112.176 126.043Z" fill="#FFBE9D"/>
<path d="M91.3104 79.6641C91.3104 79.6641 121.891 87.9846 125.062 94.5675C126.34 96.7231 126.937 99.2143 126.774 101.715C126.59 106.154 124.066 138.073 124.066 138.073L112.518 137.312L111.408 125.535L111.218 107.708L112.023 105.679C111.139 105.883 110.219 105.872 109.34 105.647C108.028 105.26 88.1014 99.2288 88.1014 99.2288L80.3199 86.9636L91.3104 79.6641Z" fill="#263238"/>
<path d="M122.842 142.019V142.653C122.842 142.653 133.674 147.492 133.674 149.578L111.852 148.665L112.448 141.416C114.036 142.257 115.786 142.746 117.579 142.85C119.373 142.954 121.168 142.67 122.842 142.019Z" fill="#0B9346"/>
<g opacity="0.6">
<path d="M111.872 148.664L112.011 146.92L132.882 148.436C132.882 148.436 133.834 148.899 133.694 149.577L111.872 148.664Z" fill="white"/>
</g>
<path d="M122.894 142.734C122.894 142.842 122.348 142.867 121.809 143.185C121.27 143.502 120.972 143.946 120.877 143.895C120.782 143.844 120.966 143.261 121.625 142.867C122.285 142.474 122.925 142.633 122.894 142.734Z" fill="#263238"/>
<path d="M125.144 143.774C125.144 143.882 124.701 144.041 124.314 144.478C123.927 144.916 123.813 145.385 123.68 145.379C123.546 145.373 123.534 144.745 124.016 144.231C124.498 143.717 125.151 143.673 125.144 143.774Z" fill="#263238"/>
<path d="M126.33 146.577C126.235 146.577 126.108 146.057 126.406 145.486C126.704 144.916 127.212 144.7 127.256 144.789C127.3 144.878 126.977 145.182 126.736 145.651C126.495 146.121 126.438 146.577 126.33 146.577Z" fill="#263238"/>
<path d="M116.907 99.7559C116.54 99.925 116.202 100.15 115.905 100.422C115.149 101.036 114.469 101.738 113.881 102.515C113.293 103.297 112.803 104.149 112.423 105.051C112.24 105.412 112.116 105.799 112.055 106.199C112.636 104.977 113.319 103.806 114.097 102.698C114.948 101.639 115.888 100.655 116.907 99.7559Z" fill="#0B9346"/>
<path d="M114.427 97.334C114.142 97.6821 113.907 98.0685 113.729 98.4819C112.762 100.427 112.212 102.552 112.112 104.722C112.072 105.169 112.091 105.619 112.169 106.06C112.245 105.622 112.289 105.179 112.302 104.735C112.401 103.665 112.584 102.605 112.848 101.564C113.114 100.53 113.462 99.5184 113.888 98.5389C114.091 98.1485 114.271 97.7461 114.427 97.334Z" fill="#0B9346"/>
<path d="M93.9425 92.8047C94.0249 92.8047 95.4074 96.6098 97.0246 101.303C98.6418 105.996 99.8848 109.877 99.796 109.909C99.7072 109.941 98.3311 106.135 96.7139 101.411C95.0967 96.6859 93.8537 92.8364 93.9425 92.8047Z" fill="#0B9346"/>
<path d="M98.6033 36.6857L103.594 34.6816L116.614 41.7529L111.3 53.9166L99.84 48.228L98.6033 36.6857Z" fill="#0B9346"/>
<path d="M103.595 34.6815L95.6804 31.6882C95.6804 31.6882 93.9491 35.3474 90.163 34.2249C86.3768 33.1024 82.2039 29.7285 82.2039 29.7285C82.2039 29.7285 75.0058 32.5824 72.8115 33.8825C70.6172 35.1826 69.4313 68.9151 69.4313 68.9151L68.8352 81.9668L68.48 84.4274C68.3285 85.6053 68.2502 86.7914 68.2454 87.9789C81.6585 90.9913 94.9194 87.8013 102.029 83.8566C102.029 83.8566 102.967 83.121 102.561 81.4404C102.155 79.7598 101.293 79.468 101.293 79.468L101.471 64.7168L102.79 49.6294L103.595 34.6815Z" fill="#0B9346"/>
<path d="M110.678 72.8339L92.8702 65.4646L81.8353 41.0293L72.0181 45.1515C72.0181 45.1515 82.5583 71.648 86.6488 73.8486C90.7394 76.0493 107.609 77.064 107.609 77.064L110.678 72.8339Z" fill="#FFBE9D"/>
<path d="M72.7928 33.8822C72.7928 33.8822 69.0828 35.7404 69.0891 42.8433C69.0891 49.014 70.9092 58.8503 70.9092 58.8503L88.3875 52.7684L82.9842 40.2114C81.7158 37.2181 78.9 31.7133 72.7928 33.8822Z" fill="#0B9346"/>
<path d="M72.925 58.1534C73.019 58.1041 73.1165 58.0617 73.2167 58.0265L74.0729 57.6967L77.2882 56.5298L88.3548 52.6169L88.2597 52.8198C87.708 51.1582 87.1055 49.3825 86.4459 47.5751C85.4058 44.7276 84.3214 42.0576 83.2115 39.6794C82.7212 38.5473 82.1245 37.4643 81.4295 36.445C80.8421 35.5534 80.0248 34.8369 79.0639 34.3712C77.6443 33.7276 76.0819 33.4632 74.5295 33.6039C74.1114 33.6519 73.7029 33.7631 73.3182 33.9336C73.1928 34.0154 73.0613 34.0874 72.925 34.1493C72.925 34.1493 72.925 34.1176 73.0138 34.0732C73.0972 33.9978 73.1887 33.9319 73.2865 33.8766C73.6676 33.672 74.082 33.5367 74.5105 33.477C76.0928 33.2817 77.6986 33.5161 79.1591 34.1556C80.1667 34.6284 81.0278 35.3646 81.6514 36.2865C82.3679 37.3125 82.9818 38.4065 83.4843 39.5526C84.6194 41.9308 85.7103 44.6261 86.7567 47.4609C87.3909 49.2747 88.025 51.0504 88.5578 52.7183L88.6085 52.8705L88.4626 52.9213L77.358 56.7264L74.1109 57.8045L73.2357 58.0836C73.1358 58.1207 73.0312 58.1442 72.925 58.1534Z" fill="#263238"/>
<path d="M100.494 79.9883C100.222 80.2427 99.9319 80.4759 99.6249 80.6859C99.3395 80.9015 98.9907 81.1615 98.5531 81.4279C98.1155 81.6942 97.6398 82.0304 97.0754 82.3284C96.511 82.6265 95.8958 82.9626 95.2045 83.2924C94.5133 83.6222 93.7776 83.9266 92.9849 84.2374C91.2523 84.8676 89.4704 85.3533 87.6577 85.6896C85.8406 85.9917 84.0013 86.1402 82.1593 86.1336C81.3095 86.1336 80.4977 86.0955 79.7493 86.0004C79.0518 85.9478 78.3575 85.8589 77.6692 85.734C77.035 85.6453 76.4706 85.4994 75.9696 85.3916C75.4686 85.2838 75.05 85.1633 74.7012 85.0555C74.3403 84.9663 73.988 84.8453 73.6484 84.694C74.0151 84.746 74.3775 84.8244 74.7329 84.9286C75.0817 85.0174 75.5003 85.1252 76.0013 85.2077C76.5023 85.2901 77.0604 85.4296 77.6946 85.4994C78.3288 85.5692 79.02 85.6896 79.7684 85.7277C80.5167 85.7657 81.3094 85.8101 82.1529 85.8292C83.9764 85.8208 85.7962 85.6638 87.5943 85.3599C89.3902 85.0332 91.1568 84.5624 92.8771 83.952C93.6571 83.6412 94.4118 83.3685 95.0841 83.0451C95.7563 82.7216 96.3905 82.4109 96.9866 82.1255C97.5828 81.8401 98.0394 81.5294 98.477 81.2693C98.8542 81.0576 99.2203 80.8269 99.5741 80.5781C99.8645 80.3574 100.172 80.1602 100.494 79.9883Z" fill="#263238"/>
<path d="M100.569 48.9316H95.6799V51.2464H100.569V48.9316Z" fill="white"/>
<path d="M103.341 41.7461C103.436 41.7461 103.252 45.3229 102.942 49.7115C102.631 54.1001 102.307 57.6643 102.212 57.6579C102.117 57.6516 102.301 54.0811 102.612 49.6925C102.923 45.3039 103.233 41.7398 103.341 41.7461Z" fill="#263238"/>
<path d="M61.2819 58.1523H15.0875V68.2423H61.2819V58.1523Z" fill="#FF725E"/>
<path d="M64.3957 68.3516H12.0053V108.756H64.3957V68.3516Z" fill="#FF725E"/>
<path d="M51.2678 108.475C51.2107 108.475 51.16 99.4697 51.16 88.3587C51.16 77.2477 51.2107 68.2422 51.2678 68.2422C51.3249 68.2422 51.3693 77.2477 51.3693 88.3587C51.3693 99.4697 51.3249 108.475 51.2678 108.475Z" fill="#263238"/>
<path d="M62.5694 99.5664H55.9358V106.2H62.5694V99.5664Z" fill="#F5F5F5"/>
<path opacity="0.3" d="M33.9034 68.3516H27.9547V76.9766H33.9034V68.3516Z" fill="white"/>
<path opacity="0.3" d="M33.9352 100.137H27.9865V108.762H33.9352V100.137Z" fill="white"/>
<path opacity="0.3" d="M64.396 68.2422H51.2682V108.868H64.396V68.2422Z" fill="black"/>
<path d="M64.2178 68.3504C64.2178 68.4456 52.5487 68.5153 38.159 68.5153C23.7692 68.5153 12.0938 68.4456 12.0938 68.3504C12.0938 68.2553 23.7628 68.1855 38.159 68.1855C52.5551 68.1855 64.2178 68.2616 64.2178 68.3504Z" fill="#263238"/>
<path opacity="0.3" d="M61.2819 58.1523H48.3508V68.1725H61.2819V58.1523Z" fill="black"/>
<path d="M48.2493 68.1093C48.0862 66.4891 48.0311 64.8599 48.0844 63.2324C48.0309 61.6049 48.086 59.9756 48.2493 58.3555C48.4164 59.9754 48.4714 61.6049 48.4141 63.2324C48.4712 64.8599 48.4161 66.4894 48.2493 68.1093Z" fill="#263238"/>
<path d="M35.1533 58.1523H28.6529V61.2091H35.1533V58.1523Z" fill="white"/>
<path d="M37.7532 58.3497C37.745 58.3014 37.745 58.2521 37.7532 58.2038L37.804 57.7662C37.8484 57.3921 37.9308 56.834 38.083 56.1173C38.4921 54.0912 39.268 52.1568 40.3724 50.4096C40.7513 49.8335 41.1754 49.2885 41.6408 48.7798C42.1133 48.1962 42.679 47.6948 43.3151 47.2958C43.6755 47.0793 44.0948 46.9817 44.5137 47.0167C44.7345 47.0544 44.9424 47.1466 45.1185 47.2851C45.2946 47.4235 45.4333 47.6038 45.5221 47.8095C45.7986 48.6296 45.8185 49.5145 45.5791 50.3462C45.1111 52.1195 44.145 53.7216 42.7951 54.9631C41.3548 56.2588 39.7718 57.3865 38.0767 58.3243L37.842 58.4638L37.7469 58.5209L37.6581 58.4575C36.0912 57.3451 34.6075 56.12 33.2188 54.7919C31.9166 53.547 30.8433 52.083 30.0478 50.4667C29.8456 50.0843 29.6942 49.6771 29.5976 49.2554C29.4942 48.8322 29.5321 48.3868 29.7054 47.987C29.7911 47.7822 29.9254 47.6012 30.0967 47.4598C30.2679 47.3184 30.471 47.2208 30.6884 47.1753C31.1092 47.132 31.5312 47.2448 31.8743 47.4924C32.186 47.7124 32.4712 47.9677 32.7241 48.2534C32.9778 48.5197 33.2124 48.7925 33.4408 49.0588C33.8752 49.5758 34.2816 50.1156 34.6584 50.676C35.8098 52.3605 36.6933 54.2131 37.2776 56.1681C37.4312 56.6979 37.5561 57.2357 37.6518 57.7789L37.7152 58.2038C37.718 58.2524 37.718 58.3011 37.7152 58.3497C37.7152 58.3497 37.7152 58.3053 37.6708 58.2102L37.5757 57.7916C37.4932 57.4238 37.36 56.8847 37.1444 56.2061C36.5251 54.2898 35.63 52.4738 34.4872 50.8155C34.1095 50.2659 33.7031 49.7367 33.2695 49.23C33.0412 48.9637 32.8066 48.6973 32.5529 48.4437C32.3115 48.1736 32.039 47.9331 31.7411 47.727C31.4571 47.5209 31.1074 47.4261 30.7581 47.4606C30.588 47.4954 30.4291 47.5714 30.2953 47.682C30.1615 47.7925 30.0569 47.9343 29.9908 48.0948C29.6673 48.7798 29.9908 49.6106 30.3396 50.3399C31.1267 51.9383 32.1869 53.387 33.4725 54.6207C34.8475 55.9348 36.3164 57.1472 37.8674 58.2482H37.6835L37.9181 58.1087C39.5917 57.182 41.1554 56.0693 42.5794 54.7919C43.8899 53.602 44.8319 52.0614 45.2938 50.3526C45.5325 49.5821 45.5325 48.7575 45.2938 47.987C45.2237 47.8221 45.1131 47.6776 44.9723 47.5667C44.8316 47.4559 44.6651 47.3823 44.4883 47.3528C44.1311 47.3231 43.7736 47.4074 43.4673 47.5938C42.8547 47.9764 42.3067 48.4537 41.8438 49.0081C41.381 49.5055 40.957 50.0377 40.5754 50.5999C39.4659 52.3118 38.6653 54.205 38.2099 56.1935C38.045 56.8974 37.9435 57.4618 37.8737 57.8233L37.7976 58.2482L37.7532 58.3497Z" fill="#263238"/>
<path d="M64.5478 86.2157C64.5478 86.3045 52.8026 86.3806 38.3241 86.3806C23.8455 86.3806 12.1003 86.3045 12.1003 86.2157C12.1003 86.1269 23.8392 86.0508 38.3241 86.0508C52.809 86.0508 64.5478 86.1205 64.5478 86.2157Z" fill="#263238"/>
<path d="M37.8551 109.408C37.7663 109.408 37.6902 97.8528 37.6902 83.6026C37.6902 69.3523 37.7663 57.791 37.8551 57.791C37.9439 57.791 38.02 69.346 38.02 83.6026C38.02 97.8592 37.9502 109.408 37.8551 109.408Z" fill="#263238"/>
</svg>
