<svg width="66" height="137" viewBox="0 0 66 137" fill="none" xmlns="http://www.w3.org/2000/svg">
<path d="M0 102.266L0.506893 130.576L44.9357 130.682L45 101.99L0 102.266Z" fill="#CFCECE"/>
<path d="M26.173 130.602C26.2336 130.602 26.173 124.281 26.0255 116.485C25.878 108.689 25.7267 102.371 25.6699 102.375C25.6132 102.379 25.6699 108.692 25.8174 116.489C25.965 124.285 26.1163 130.602 26.173 130.602Z" fill="#A6A6A6"/>
<path d="M44.9358 130.682C44.8819 130.578 44.8213 130.479 44.7542 130.383L44.2057 129.555L42.1441 126.528L35.2859 116.561C32.6077 112.676 30.1981 109.15 28.4769 106.578C27.6144 105.296 26.9335 104.244 26.4645 103.522C26.2413 103.17 26.0635 102.886 25.9311 102.682C25.8732 102.58 25.8061 102.484 25.7306 102.394C25.7791 102.499 25.8334 102.602 25.8933 102.701L26.3964 103.563C26.8427 104.32 27.5085 105.364 28.3521 106.661C30.0392 109.252 32.4299 112.793 35.1119 116.682C37.7939 120.571 40.2376 124.066 42.0193 126.593L44.1338 129.585L44.7164 130.391C44.7808 130.494 44.8543 130.591 44.9358 130.682Z" fill="#A6A6A6"/>
<path d="M26.1733 130.602C26.25 130.516 26.3184 130.422 26.3775 130.322L26.9298 129.502L28.9385 126.475L35.6038 116.519C38.2177 112.634 40.563 109.105 42.2274 106.529C43.0558 105.239 43.7405 104.191 44.1755 103.465L44.6938 102.621C44.759 102.527 44.8159 102.427 44.864 102.322C44.788 102.408 44.7197 102.501 44.6597 102.598L44.1075 103.419C43.6233 104.149 42.9424 105.182 42.1026 106.446L35.4335 116.402C32.8196 120.287 30.4781 123.816 28.8137 126.396C27.9814 127.682 27.3005 128.73 26.8617 129.46L26.3435 130.3C26.2796 130.396 26.2227 130.498 26.1733 130.602Z" fill="#A6A6A6"/>
<path d="M21.5865 127.389L14.4534 127.517L14.4271 126.057L21.5603 125.929L21.5865 127.389Z" fill="#A6A6A6"/>
<path d="M21.2251 124.75C20.0662 124.638 18.9014 124.596 17.7374 124.626C16.5729 124.584 15.407 124.612 14.2459 124.709C15.405 124.819 16.5696 124.861 17.7336 124.834C18.898 124.875 20.0639 124.847 21.2251 124.75Z" fill="#A6A6A6"/>
<path d="M11.7417 102.103L11.9384 113.031L13.478 111.81L15.4753 112.967L15.2786 102.039L11.7417 102.103Z" fill="#A6A6A6"/>
<path d="M5.32993 80.821L5.71577 102.428L39.6209 102.508L39.6738 80.6091L5.32993 80.821Z" fill="#E9E7E7"/>
<path d="M25.3032 102.447C25.3486 102.447 25.3032 97.624 25.1897 91.6736C25.0762 85.7233 24.9627 80.9041 24.9173 80.9041C24.8719 80.9041 24.9173 85.7271 25.0308 91.6774C25.1443 97.6277 25.2616 102.447 25.3032 102.447Z" fill="#A6A6A6"/>
<path d="M39.6208 102.508C39.5814 102.429 39.5359 102.353 39.4847 102.281C39.3788 102.124 39.2388 101.913 39.0648 101.645C38.6865 101.089 38.1493 100.302 37.4911 99.3377C36.1445 97.382 34.2985 94.7038 32.2558 91.7456C30.2131 88.7875 28.3746 86.0715 27.062 84.1271C26.4076 83.1436 25.8856 82.3454 25.5262 81.7931L25.1214 81.1501C25.0747 81.0744 25.0242 81.0012 24.9701 80.9307C25.0057 81.0131 25.0474 81.0928 25.095 81.169L25.4732 81.8234C25.8137 82.387 26.3206 83.2003 26.9637 84.1876C28.2536 86.166 30.0769 88.8707 32.1234 91.8364C34.1699 94.8021 36.0386 97.469 37.3966 99.402L39.008 101.672C39.1972 101.929 39.3447 102.137 39.4544 102.288C39.5034 102.366 39.5591 102.439 39.6208 102.508Z" fill="#A6A6A6"/>
<path d="M25.303 102.447C25.3629 102.382 25.4161 102.311 25.4619 102.235L25.8818 101.607C26.2601 101.051 26.7707 100.264 27.4138 99.2997L32.513 91.7001C34.5065 88.7382 36.2958 86.0259 37.5668 84.074C38.1985 83.0905 38.7016 82.2923 39.0534 81.7362L39.4317 81.0932C39.5187 80.9456 39.5641 80.8662 39.5603 80.8662C39.5014 80.9312 39.4494 81.0022 39.4052 81.078L38.9816 81.7022C38.6033 82.2621 38.0926 83.0451 37.4684 84.0135L32.3768 91.6131C30.3833 94.575 28.594 97.2684 27.3268 99.2354C26.6913 100.219 26.192 101.021 25.8364 101.577L25.4392 102.216C25.3885 102.29 25.343 102.367 25.303 102.447Z" fill="#A6A6A6"/>
<path d="M21.5513 99.8394L16.1079 99.9482L16.0856 98.8323L21.529 98.7234L21.5513 99.8394Z" fill="#A6A6A6"/>
<path d="M21.543 97.9797C20.6629 97.8968 19.7788 97.8652 18.895 97.8851C18.0119 97.856 17.1278 97.8775 16.2471 97.9494C17.127 98.0345 18.0113 98.0661 18.895 98.044C19.7781 98.0774 20.6625 98.056 21.543 97.9797Z" fill="#CFCECE"/>
<path d="M12.1845 80.7001L12.3358 89.0411L13.5085 88.1067L15.033 88.9919L14.8854 80.6509L12.1845 80.7001Z" fill="#A6A6A6"/>
<path d="M1.65319 128.639C2.0505 127.461 2.79435 126.431 3.78727 125.683C4.7802 124.935 5.97588 124.505 7.21767 124.448L8.25793 67.1954H3.24953V68.0503H2.30761V66H10.0888C10.0888 66 9.16202 108.239 8.48868 124.505C8.82335 124.559 9.1534 124.639 9.47599 124.743C10.7202 125.162 11.7984 125.966 12.5542 127.04C13.3099 128.113 13.7038 129.4 13.6787 130.712L31.4199 130.478L30.913 132.808L13.4252 132.327C13.4025 132.407 13.3836 132.486 13.3571 132.569C13.1127 133.356 12.7135 134.086 12.1829 134.716C11.6524 135.346 11.0012 135.863 10.2677 136.238C9.53424 136.612 8.73324 136.836 7.91185 136.897C7.09045 136.957 6.26526 136.853 5.4848 136.59C4.70434 136.327 3.98436 135.91 3.36723 135.365C2.7501 134.82 2.24828 134.156 1.89128 133.414C1.53427 132.672 1.3293 131.866 1.28841 131.043C1.24752 130.22 1.37155 129.398 1.65319 128.624V128.639Z" fill="#A6A6A6"/>
<path d="M28.019 136.216H27.0809L25.2727 132.668L26.7669 132.709L28.019 136.216Z" fill="#A6A6A6"/>
<path d="M18.5021 24.8144C25.3031 24.8144 30.8164 19.3011 30.8164 12.5001C30.8164 5.6991 25.3031 0.185791 18.5021 0.185791C11.701 0.185791 6.18774 5.6991 6.18774 12.5001C6.18774 19.3011 11.701 24.8144 18.5021 24.8144Z" fill="#FAFAFA"/>
<path d="M18.5 25C16.0277 25 13.611 24.2669 11.5554 22.8934C9.49976 21.5199 7.89761 19.5676 6.95151 17.2835C6.00542 14.9995 5.75787 12.4861 6.24019 10.0614C6.7225 7.63661 7.91302 5.40933 9.66117 3.66117C11.4093 1.91301 13.6366 0.722505 16.0614 0.24019C18.4861 -0.242125 20.9995 0.00541587 23.2835 0.951511C25.5676 1.89761 27.5199 3.49976 28.8934 5.55538C30.2669 7.61099 31 10.0277 31 12.5C30.996 15.814 29.6777 18.991 27.3344 21.3344C24.991 23.6777 21.814 24.9959 18.5 25ZM18.5 0.371379C16.1007 0.371379 13.7552 1.08289 11.7603 2.41594C9.76531 3.74899 8.21048 5.64369 7.29239 7.86043C6.3743 10.0772 6.1342 12.5164 6.60245 14.8696C7.07069 17.2228 8.22626 19.3843 9.923 21.0807C11.6197 22.7772 13.7814 23.9323 16.1347 24.4002C18.488 24.868 20.9272 24.6274 23.1438 23.709C25.3604 22.7905 27.2548 21.2353 28.5875 19.2401C29.9202 17.2449 30.6312 14.8993 30.6308 12.5C30.6273 9.28398 29.3481 6.2007 27.0738 3.92683C24.7995 1.65296 21.716 0.37427 18.5 0.371379Z" fill="#263238"/>
<path d="M18.6328 3.94965C18.5851 3.55836 18.569 3.16386 18.5847 2.76999C18.5689 2.37612 18.585 1.98161 18.6328 1.59033C18.6806 1.98161 18.6967 2.37612 18.6809 2.76999C18.6966 3.16386 18.6805 3.55836 18.6328 3.94965Z" fill="#263238"/>
<path d="M12.2652 6.27617C11.9827 6.05424 11.7209 5.8071 11.4832 5.53779C11.2226 5.29047 10.9843 5.02074 10.771 4.73169C11.0535 4.95361 11.3153 5.20075 11.5531 5.47007C11.8136 5.71738 12.0519 5.98712 12.2652 6.27617Z" fill="#263238"/>
<path d="M10.6356 12.7578C10.1434 12.8055 9.64869 12.8216 9.15446 12.8058C8.66024 12.8216 8.16551 12.8055 7.67334 12.7578C8.16551 12.71 8.66024 12.694 9.15446 12.7097C9.64869 12.694 10.1434 12.71 10.6356 12.7578Z" fill="#263238"/>
<path d="M12.2369 18.8025C12.0481 19.0637 11.8384 19.3092 11.6099 19.5365C11.4045 19.7865 11.1698 20.0109 10.9109 20.205C11.1017 19.9447 11.312 19.6993 11.54 19.471C11.7443 19.2207 11.9783 18.9962 12.2369 18.8025Z" fill="#263238"/>
<path d="M26.2202 20.0804C28.017 18.2717 29.1244 15.8914 29.3507 13.352C29.7352 8.76446 27.7341 6.36145 26.253 4.74707L24.9663 5.97916C26.277 7.38382 28.3087 10.1757 27.7582 13.4875C27.4149 15.5479 26.4919 17.468 25.0974 19.0231L26.2202 20.0804Z" fill="#E0E0E0"/>
<path d="M18.2006 14.0773C17.9207 14.0222 17.6635 13.8852 17.4615 13.6838C17.2595 13.4825 17.1217 13.2257 17.0657 12.946C17.0097 12.6663 17.0378 12.3763 17.1467 12.1126C17.2555 11.8489 17.4401 11.6235 17.6771 11.4648C17.9141 11.306 18.1929 11.2212 18.4782 11.2209C18.7634 11.2207 19.0423 11.3051 19.2796 11.4634C19.5169 11.6217 19.7019 11.8468 19.8112 12.1103C19.9205 12.3738 19.9492 12.6638 19.8936 12.9436C19.857 13.1292 19.7842 13.3059 19.6793 13.4634C19.5744 13.6209 19.4394 13.7562 19.2822 13.8615C19.1249 13.9668 18.9485 14.0401 18.7629 14.0771C18.5773 14.1141 18.3862 14.1142 18.2006 14.0773Z" fill="#263238"/>
<path d="M23.6093 16.0675L15.2512 9.66455L14.4561 10.877L23.6093 16.0675Z" fill="#263238"/>
<path d="M29.3922 12.3974C29.3922 12.3974 29.3922 12.3385 29.3922 12.2205C29.3922 12.1025 29.3922 11.93 29.3681 11.7028C29.2634 10.15 28.8271 8.63781 28.0885 7.268C27.3498 5.89819 26.3262 4.70263 25.0864 3.76192C23.7407 2.73989 22.1751 2.04576 20.5142 1.73466C19.5926 1.56319 18.6527 1.51179 17.7179 1.58174C17.229 1.61829 16.743 1.68688 16.263 1.78709C15.771 1.89266 15.2864 2.03059 14.8125 2.19997C12.7202 2.96206 10.9129 4.34931 9.63589 6.17354C8.35886 7.99776 7.67389 10.1707 7.67389 12.3974C7.67389 14.6242 8.35886 16.7971 9.63589 18.6214C10.9129 20.4456 12.7202 21.8328 14.8125 22.5949C15.2867 22.764 15.7712 22.9026 16.263 23.01C17.6642 23.3016 19.1087 23.3186 20.5163 23.0602C22.1765 22.7486 23.7412 22.0545 25.0864 21.033C26.3258 20.0919 27.3491 18.8962 28.0877 17.5265C28.8263 16.1568 29.2629 14.6447 29.3681 13.0921C29.3878 12.8737 29.3834 12.6902 29.3922 12.5744C29.4009 12.4586 29.3922 12.3974 29.3922 12.3974C29.3922 12.3974 29.3922 12.6377 29.3769 13.0921C29.3404 13.7553 29.2416 14.4135 29.082 15.0582C28.8309 16.084 28.4305 17.0674 27.8936 17.9768C27.175 19.1794 26.2333 20.2338 25.1192 21.0832C23.7668 22.1154 22.1922 22.8177 20.5207 23.1345C19.5922 23.3096 18.6448 23.3625 17.7026 23.2918C17.2098 23.2591 16.72 23.1912 16.2368 23.0886C15.7408 22.9836 15.2525 22.845 14.7753 22.6736C12.6636 21.9076 10.839 20.51 9.54957 18.6706C8.26011 16.8312 7.56836 14.6394 7.56836 12.3931C7.56836 10.1468 8.26011 7.95492 9.54957 6.11555C10.839 4.27619 12.6636 2.87853 14.7753 2.11258C15.2525 1.94118 15.7408 1.80251 16.2368 1.69752C16.7203 1.59695 17.21 1.52907 17.7026 1.49436C18.6449 1.42436 19.5923 1.47798 20.5207 1.65383C21.3882 1.81361 22.2321 2.08149 23.0329 2.45119C23.7737 2.7878 24.4736 3.20776 25.1192 3.70294C26.2342 4.55493 27.1759 5.61231 27.8936 6.8181C28.4284 7.72389 28.8287 8.70261 29.082 9.72356C29.2415 10.3683 29.3402 11.0265 29.3769 11.6897C29.4009 12.1571 29.3922 12.3974 29.3922 12.3974Z" fill="#263238"/>
<path d="M29.3961 12.3276C29.0108 12.3766 28.622 12.3927 28.2339 12.3757C27.8452 12.3927 27.4556 12.3766 27.0696 12.3276C27.4557 12.2799 27.8452 12.2638 28.2339 12.2795C28.622 12.2638 29.0107 12.2799 29.3961 12.3276Z" fill="#263238"/>
<path d="M26.2224 20.0804C25.8949 19.8342 25.588 19.5617 25.3049 19.2656C24.9989 18.9926 24.7141 18.6968 24.4529 18.3809C24.7804 18.6271 25.0872 18.8996 25.3704 19.1957C25.6769 19.4681 25.9618 19.7639 26.2224 20.0804Z" fill="#263238"/>
<path d="M26.2528 4.74707C26.2834 4.77547 25.9251 5.14247 25.4642 5.56409C25.1946 5.83085 24.9022 6.07353 24.5903 6.28936C24.8376 6.00199 25.1079 5.73532 25.3986 5.492C25.6302 5.27355 25.8355 5.09223 25.9972 4.95897C26.0785 4.88381 26.1638 4.81307 26.2528 4.74707Z" fill="#263238"/>
<path d="M24.3062 16.4954C24.1229 16.6884 23.8916 16.8293 23.636 16.9037C23.3804 16.9782 23.1096 16.9835 22.8513 16.9192C23.1065 16.9039 23.36 16.8681 23.6094 16.8121C23.8496 16.725 24.0826 16.6191 24.3062 16.4954Z" fill="#263238"/>
<path d="M24.6844 16.832C24.6122 16.9274 24.5207 17.0063 24.4157 17.0636C24.1738 17.2186 23.9035 17.324 23.6205 17.3738C23.3373 17.4227 23.0471 17.4161 22.7664 17.3541C22.6487 17.3359 22.5362 17.2927 22.4365 17.2274C22.8174 17.3288 23.2159 17.3459 23.6041 17.2776C23.9923 17.2093 24.3609 17.0573 24.6844 16.832Z" fill="#263238"/>
<path d="M15.8018 8.78402C15.5513 8.73596 15.2966 8.714 15.0416 8.71849C14.7887 8.75563 14.5405 8.81933 14.301 8.90854C14.5046 8.73263 14.7638 8.63436 15.0329 8.63111C15.2992 8.59092 15.5711 8.645 15.8018 8.78402Z" fill="#263238"/>
<path d="M15.968 8.46093C15.6077 8.39647 15.2412 8.37302 14.8757 8.39103C14.514 8.44257 14.1593 8.53491 13.8184 8.66628C14.1255 8.44533 14.4892 8.31651 14.8669 8.29491C15.2423 8.243 15.6246 8.30065 15.968 8.46093Z" fill="#263238"/>
<path d="M24.6273 134.389L25.2463 130.524L18.3239 129.385L17.3442 135.156L17.7657 135.255C19.6643 135.684 27.4335 137.176 28.7777 136.983C30.2776 136.755 24.6273 134.389 24.6273 134.389Z" fill="#E0E0E0"/>
<path d="M28.9978 136.641C28.9978 136.706 26.3891 136.345 23.1918 135.832C19.9946 135.32 17.4125 134.853 17.4239 134.788C17.4353 134.723 20.0326 135.084 23.2298 135.597C26.4271 136.109 29.0092 136.576 28.9978 136.641Z" fill="#263238"/>
<path d="M24.6236 135.198C24.5705 135.16 24.6502 134.963 24.8325 134.784C25.0147 134.606 25.2122 134.53 25.2502 134.583C25.2881 134.636 25.1666 134.792 24.9995 134.963C24.8325 135.134 24.6768 135.24 24.6236 135.198Z" fill="#263238"/>
<path d="M25.0223 135.525C24.9654 135.49 25.0223 135.266 25.2084 135.05C25.3945 134.834 25.5881 134.712 25.6299 134.761C25.6717 134.811 25.5578 134.993 25.3945 135.198C25.2312 135.403 25.0831 135.559 25.0223 135.525Z" fill="#263238"/>
<path d="M19.5162 135.096C19.4858 135.096 19.3984 134.993 19.2731 134.799C19.1274 134.548 18.957 134.311 18.7643 134.093C18.575 133.885 18.334 133.73 18.0656 133.645C17.8606 133.584 17.7163 133.596 17.7125 133.558C17.7087 133.52 17.8492 133.455 18.0922 133.482C18.4155 133.529 18.7123 133.688 18.9314 133.93C19.1407 134.162 19.3054 134.431 19.4174 134.724C19.5124 134.944 19.5427 135.084 19.5162 135.096Z" fill="#263238"/>
<path d="M24.7602 134.477C24.783 134.534 24.6463 134.651 24.4337 134.689C24.221 134.727 24.054 134.689 24.054 134.613C24.054 134.538 24.2058 134.496 24.3881 134.458C24.5704 134.42 24.7337 134.412 24.7602 134.477Z" fill="#263238"/>
<path d="M24.7108 134.082C24.7108 134.15 24.5134 134.177 24.2779 134.142C24.0425 134.108 23.8678 134.029 23.8982 133.964C23.9286 133.899 24.1033 133.873 24.3273 133.907C24.5513 133.941 24.7146 134.017 24.7108 134.082Z" fill="#263238"/>
<path d="M49.1155 133.554L48.9712 129.643L41.9578 129.855L42.1135 135.707H42.5501C44.4905 135.76 52.4229 135.707 53.6874 135.263C55.1151 134.777 49.1155 133.554 49.1155 133.554Z" fill="#E0E0E0"/>
<path d="M53.8394 134.913C53.8394 134.982 51.2232 135.13 47.9879 135.251C44.7527 135.373 42.1288 135.411 42.125 135.346C42.1212 135.282 44.7451 135.13 47.9803 135.012C51.2156 134.894 53.8356 134.849 53.8394 134.913Z" fill="#263238"/>
<path d="M49.2675 134.348C49.2067 134.321 49.2485 134.112 49.3928 133.903C49.5371 133.694 49.7156 133.577 49.7725 133.622C49.8295 133.668 49.7345 133.843 49.6016 134.036C49.4687 134.23 49.3282 134.378 49.2675 134.348Z" fill="#263238"/>
<path d="M49.723 134.591C49.6623 134.572 49.6851 134.336 49.8142 134.089C49.9433 133.843 50.1179 133.687 50.1711 133.71C50.2243 133.733 50.1445 133.949 50.0268 134.181C49.9091 134.412 49.7876 134.613 49.723 134.591Z" fill="#263238"/>
<path d="M44.2362 135.244C44.2097 135.244 44.1033 135.164 43.9439 134.997C43.7497 134.78 43.5362 134.582 43.3059 134.405C43.0832 134.24 42.8216 134.135 42.5465 134.101C42.3338 134.101 42.1933 134.12 42.1668 134.101C42.1402 134.082 42.2807 133.972 42.5465 133.949C42.8734 133.931 43.1962 134.029 43.4578 134.226C43.7081 134.413 43.9218 134.645 44.0882 134.91C44.2021 135.088 44.2628 135.225 44.2362 135.244Z" fill="#263238"/>
<path d="M49.2601 133.615C49.298 133.668 49.1841 133.808 48.9867 133.888C48.7892 133.968 48.6069 133.949 48.6069 133.888C48.6069 133.827 48.7322 133.74 48.9069 133.668C49.0816 133.596 49.2221 133.558 49.2601 133.615Z" fill="#263238"/>
<path d="M49.1385 133.239C49.1385 133.303 48.96 133.368 48.7246 133.379C48.4892 133.391 48.2993 133.349 48.2993 133.28C48.2993 133.212 48.4854 133.151 48.7132 133.14C48.941 133.129 49.1271 133.174 49.1385 133.239Z" fill="#263238"/>
<path d="M58.624 36.1893L58.2443 34.9134C58.109 34.1772 57.9017 33.456 57.6253 32.7604C57.4937 32.4095 57.3037 32.0834 57.0633 31.7959C56.7808 31.4279 56.45 31.0996 56.0799 30.82C55.7001 30.596 55.7951 30.0605 56.1748 30.0188C56.5545 29.977 57.576 30.5732 58.3582 31.7085C59.1404 32.8439 59.2847 30.7061 59.3531 29.9276C59.4214 29.1492 59.7328 26.7532 59.9948 26.5937C60.3745 26.3545 60.7011 26.719 60.6176 27.4936C60.534 28.2683 60.4391 30.6149 60.8492 30.6415C61.2593 30.6681 61.5441 26.7 61.5441 26.7C61.5441 26.7 61.4681 25.838 61.9466 25.8532C62.8048 25.8798 62.1858 30.0681 62.1174 30.4631C62.0719 30.7403 62.5162 30.782 62.5541 30.4858C62.5921 30.1897 62.7478 26.5177 63.6212 26.5367C64.2933 26.5367 63.1465 29.9846 63.5338 30.7744C63.9211 31.5642 64.1376 28.0708 64.7793 28.1164C65.0147 28.1164 65.1932 28.1733 64.7793 30.1517C64.3654 32.13 62.3225 37.4575 62.3225 37.4575L58.5936 36.1247" fill="#FFBE9D"/>
<path d="M32.9698 35.1413L39.2808 35.6084C39.3643 34.8793 39.4896 32.0428 39.4896 32.0428C39.4896 32.0428 42.1249 31.7959 42.3148 29.1873C42.5046 26.5786 42.4287 20.56 42.4287 20.56C40.9842 19.8308 39.3713 19.5005 37.7564 19.6033C36.1416 19.7061 34.5835 20.2383 33.2432 21.1447L32.8369 21.4181L32.9698 35.1413Z" fill="#FFBE9D"/>
<path d="M41.5479 25.0104C41.4774 24.9379 41.4386 24.8403 41.44 24.7392C41.4414 24.6381 41.4829 24.5417 41.5554 24.4712C41.628 24.4007 41.7255 24.3619 41.8266 24.3633C41.9277 24.3647 42.0242 24.4063 42.0947 24.4788C42.1296 24.5147 42.1571 24.5571 42.1756 24.6037C42.1941 24.6502 42.2032 24.6999 42.2025 24.75C42.2018 24.8 42.1913 24.8495 42.1715 24.8955C42.1516 24.9415 42.123 24.9831 42.0871 25.018C42.0511 25.0529 42.0087 25.0804 41.9622 25.0989C41.9157 25.1174 41.8659 25.1266 41.8159 25.1259C41.7658 25.1252 41.7164 25.1146 41.6704 25.0948C41.6244 25.075 41.5828 25.0463 41.5479 25.0104Z" fill="#263238"/>
<path d="M42.2198 24.4446C42.1742 24.4863 41.9312 24.2737 41.5704 24.2509C41.2097 24.2281 40.9401 24.3952 40.9021 24.3458C40.8642 24.2965 40.9325 24.2471 41.0502 24.1674C41.2104 24.0648 41.3999 24.0181 41.5894 24.0345C41.7784 24.0469 41.9582 24.1202 42.102 24.2433C42.2046 24.3496 42.2387 24.4446 42.2198 24.4446Z" fill="#263238"/>
<path d="M38.058 24.5091C38.1405 24.567 38.1967 24.6553 38.2142 24.7547C38.2316 24.854 38.2089 24.9562 38.151 25.0388C38.0931 25.1214 38.0048 25.1776 37.9054 25.195C37.8061 25.2125 37.7039 25.1897 37.6213 25.1318C37.5802 25.103 37.5453 25.0664 37.5184 25.0241C37.4916 24.9817 37.4734 24.9344 37.4649 24.885C37.4565 24.8356 37.4579 24.785 37.4691 24.7361C37.4803 24.6872 37.501 24.641 37.5301 24.6002C37.5882 24.5183 37.6763 24.4628 37.7753 24.4457C37.8742 24.4286 37.9758 24.4514 38.058 24.5091Z" fill="#263238"/>
<path d="M38.2934 24.528C38.2517 24.5698 38.0086 24.3571 37.6479 24.3344C37.2872 24.3116 37.0176 24.4787 36.9796 24.4293C36.9416 24.3799 37.0062 24.3306 37.1277 24.2508C37.2862 24.1477 37.4748 24.1009 37.6631 24.1179C37.8522 24.1296 38.0323 24.2029 38.1757 24.3268C38.2821 24.4445 38.3162 24.509 38.2934 24.528Z" fill="#263238"/>
<path d="M39.5541 27.581C39.7445 27.5214 39.9433 27.4932 40.1427 27.4975C40.2376 27.4975 40.3136 27.4747 40.325 27.4253C40.3341 27.3301 40.3171 27.2343 40.2756 27.1481C40.1959 26.9051 40.1199 26.6583 40.0364 26.3887C39.8048 25.7551 39.6369 25.1 39.5352 24.4331C39.8271 25.0418 40.0585 25.6778 40.2263 26.3317C40.3022 26.5899 40.3743 26.8405 40.4503 27.0912C40.4993 27.2117 40.5086 27.3447 40.4769 27.4709C40.461 27.5058 40.4374 27.5366 40.4078 27.561C40.3781 27.5854 40.3433 27.6026 40.306 27.6114C40.2531 27.6184 40.1994 27.6184 40.1465 27.6114C39.9487 27.6324 39.7488 27.6221 39.5541 27.581Z" fill="#263238"/>
<path d="M38.362 27.9076C38.0013 27.6608 39.3607 28.519 40.0936 28.5266C39.9601 28.7077 39.7691 28.8382 39.5519 28.8969C39.3346 28.9555 39.1039 28.9387 38.8974 28.8493C38.1342 28.5152 38.362 27.9076 38.362 27.9076Z" fill="white"/>
<path d="M39.4934 32.0048C38.2876 31.9517 37.1247 31.542 36.1519 30.8276C36.1519 30.8276 36.8392 32.7566 39.4592 32.6807L39.4934 32.0048Z" fill="#EB996E"/>
<path d="M32.8936 24.0648L33.2088 25.9368L34.3707 25.914L34.2948 22.0143C34.2948 22.0143 38.9046 22.3712 39.4324 20.5258C39.4324 20.5258 40.788 22.5649 42.4702 22.5573C42.4702 22.5573 43.9435 22.4054 42.5423 20.3511C40.3779 17.1918 32.6696 19.7322 32.6696 19.7322C32.4752 20.3093 32.3814 20.9155 32.3924 21.5244C32.362 23.5446 32.8936 24.0648 32.8936 24.0648Z" fill="#263238"/>
<path d="M32.2598 22.1661L42.5123 20.1308C42.5123 20.1308 41.7833 16.0222 36.2431 17.2183C30.8663 18.3917 32.2598 22.1661 32.2598 22.1661Z" fill="#0B622F"/>
<path d="M32.2598 22.1661C32.4041 22.1395 44.8134 22.4319 45.6981 20.7155C46.1196 19.8953 42.4477 19.8726 42.4477 19.8726L42.5313 20.1308L32.2598 22.1661Z" fill="#E0E0E0"/>
<path opacity="0.2" d="M32.2598 22.1661C32.4041 22.1395 44.8134 22.4319 45.6981 20.7155C46.1196 19.8953 42.4477 19.8726 42.4477 19.8726L42.5313 20.1308L32.2598 22.1661Z" fill="#0B9346"/>
<path d="M33.3384 23.7345C33.2815 23.7117 31.4018 23.4687 31.5803 25.6863C31.7588 27.9039 33.9384 26.9925 33.9384 26.928C33.9384 26.8634 33.3384 23.7345 33.3384 23.7345Z" fill="#FFBE9D"/>
<path d="M33.1979 26.2026C33.1979 26.2026 33.1599 26.233 33.0954 26.271C33.0065 26.3176 32.9027 26.3272 32.8068 26.2975C32.6566 26.2185 32.5303 26.1008 32.4409 25.9566C32.3514 25.8124 32.3021 25.647 32.2979 25.4773C32.2758 25.2875 32.2979 25.0952 32.3625 24.9154C32.3766 24.8437 32.4083 24.7768 32.4547 24.7204C32.5011 24.6641 32.5607 24.6202 32.6283 24.5926C32.6716 24.5776 32.7187 24.5781 32.7617 24.594C32.8046 24.6099 32.8407 24.6403 32.8637 24.6799C32.8979 24.7407 32.8903 24.7862 32.9017 24.79C32.9131 24.7938 32.9473 24.7483 32.9017 24.6571C32.8845 24.6031 32.8498 24.5563 32.803 24.5242C32.7384 24.4843 32.6609 24.4707 32.5865 24.4863C32.4963 24.5122 32.4141 24.5607 32.3476 24.6271C32.2812 24.6935 32.2328 24.7757 32.2068 24.866C32.1297 25.0666 32.101 25.2826 32.1233 25.4963C32.1283 25.6951 32.1919 25.888 32.306 26.0507C32.4202 26.2135 32.5798 26.339 32.765 26.4115C32.8261 26.4233 32.889 26.4217 32.9494 26.4066C33.0097 26.3915 33.0661 26.3633 33.1144 26.3241C33.1979 26.2596 33.2055 26.2064 33.1979 26.2026Z" fill="#EB996E"/>
<path d="M39.3865 19.0164L38.1299 19.0405L38.154 20.2972L39.4107 20.273L39.3865 19.0164Z" fill="#263238"/>
<path d="M39.3741 18.3345L38.7439 18.3467L38.7561 18.9769L39.3863 18.9647L39.3741 18.3345Z" fill="#263238"/>
<path d="M58.1606 34.5566C58.1606 34.5566 56.2202 46.9052 54.8532 46.9697C53.2925 47.0457 48.4928 40.2372 48.4928 40.2372C45.4209 35.4983 41.3693 34.7313 39.8921 34.6136V34.0288L32.6318 33.4326C32.6318 33.4326 32.6318 34.0592 32.6318 34.606H29.4156C29.4156 34.606 23.659 34.3402 22.7932 42.0751L26.936 45.3483L28.6334 51.6631C29.1498 53.5921 28.36 56.0527 27.4942 60.3739L26.974 60.2524L26.7537 64.6078C26.7234 64.8129 26.693 65.0217 26.6664 65.2306H26.7234L24.969 100.009L16 133.694L26.0968 134.074L35.4076 101.209C35.4076 101.209 36.2164 74.9325 37.0366 74.9173C38.415 74.8907 39.296 133.372 39.8238 133.239C40.3516 133.106 50.7218 133.212 50.7218 133.212C50.7218 133.212 47.2891 65.0749 47.3233 65.0749L46.4348 52.1643L46.0968 48.4354C48.0676 51.2074 51.7926 55.5363 55.7721 55.4603C62.254 55.335 63.1653 35.2401 63.1653 35.2401L58.1606 34.5566Z" fill="#0B9346"/>
<path d="M36.6646 74.6553C36.8916 74.2905 37.0921 73.9097 37.2645 73.5161C37.6088 72.5503 37.7747 71.53 37.7544 70.5049C37.7544 69.3202 37.7544 68.2532 37.7544 67.4026C37.7345 66.9742 37.7511 66.5448 37.8037 66.1191C37.8649 66.5442 37.8953 66.9732 37.8949 67.4026C37.9176 68.1962 37.967 69.3012 37.9556 70.5087C37.9502 71.0827 37.8994 71.6553 37.8037 72.2213C37.7236 72.6867 37.5871 73.1406 37.3974 73.5731C37.2661 73.8624 37.1031 74.1362 36.9114 74.3895C36.7595 74.568 36.6911 74.6667 36.6646 74.6553Z" fill="#263238"/>
<path d="M30.7065 69.1377C30.7435 69.253 30.7615 69.3736 30.7597 69.4946C30.7787 69.7263 30.8014 70.0566 30.8128 70.4743C30.8712 71.5677 30.6531 72.6582 30.1787 73.645C29.8984 74.1894 29.4825 74.6524 28.9712 74.9892C28.5491 75.2557 28.0649 75.4075 27.5662 75.4297C27.2313 75.4468 26.8968 75.3897 26.5865 75.2626C26.4704 75.2223 26.3642 75.1575 26.2751 75.0727C26.6811 75.2412 27.1197 75.3165 27.5586 75.293C28.0275 75.2495 28.4786 75.0917 28.8724 74.8335C29.3527 74.5067 29.7441 74.0657 30.0116 73.5501C30.4683 72.59 30.697 71.5373 30.6799 70.4743C30.6658 70.0286 30.6746 69.5825 30.7065 69.1377Z" fill="#263238"/>
<path d="M48.041 75.1867C48.041 75.1867 47.9802 75.2969 47.7941 75.4222C47.5218 75.5892 47.2058 75.6711 46.8866 75.6576C46.4107 75.6378 45.9534 75.4676 45.5804 75.1715C45.1321 74.8218 44.7468 74.398 44.4412 73.9185C43.8675 73.0629 43.5068 72.0825 43.3894 71.0592C43.3559 70.7502 43.347 70.4392 43.3628 70.1288C43.3605 70.0152 43.3785 69.902 43.4159 69.7947C43.4501 69.7947 43.4159 70.2769 43.5299 71.0402C43.6823 72.0301 44.049 72.9748 44.6045 73.8083C44.8986 74.2704 45.2653 74.682 45.6905 75.0273C46.031 75.3093 46.4498 75.4802 46.8904 75.5171C47.1884 75.5407 47.4873 75.4844 47.7562 75.3538C47.9422 75.2589 48.0296 75.1716 48.041 75.1867Z" fill="#263238"/>
<path d="M26.56 131.838C26.56 131.894 24.3196 131.856 21.5628 131.758C18.806 131.659 16.5657 131.526 16.5657 131.477C16.5657 131.427 18.806 131.458 21.5666 131.56C24.3272 131.663 26.5638 131.784 26.56 131.838Z" fill="#263238"/>
<path d="M50.3612 130.319C50.2238 130.356 50.0821 130.375 49.9397 130.376L48.8005 130.463C47.8284 130.524 46.488 130.596 45.0033 130.664C43.5186 130.733 42.1744 130.782 41.2061 130.812L40.0669 130.831C39.9249 130.843 39.782 130.836 39.6416 130.812C39.7794 130.777 39.9209 130.758 40.0631 130.755L41.2023 130.672C42.1744 130.607 43.5148 130.535 44.9995 130.467C46.4842 130.398 47.8284 130.349 48.7967 130.322L49.9359 130.3C50.0779 130.291 50.2205 130.297 50.3612 130.319Z" fill="#263238"/>
<path d="M31.7318 75.4602C31.7377 75.5094 31.7377 75.5591 31.7318 75.6083V76.045C31.7318 76.4247 31.7128 77.0019 31.7014 77.7233C31.6673 79.1777 31.6027 81.2851 31.4964 83.89C31.3901 86.4949 31.2458 89.5859 31.0407 93.03C30.9382 94.7501 30.8243 96.5538 30.661 98.422C30.5812 99.3561 30.5091 100.321 30.3458 101.27C30.1825 102.219 29.9661 103.188 29.7686 104.163C28.0371 111.929 26.0929 118.862 24.574 123.848C23.8146 126.343 23.1311 128.337 22.6526 129.715L22.0717 131.287C22.0033 131.458 21.954 131.595 21.9122 131.693C21.8996 131.741 21.8804 131.787 21.8552 131.83C21.8619 131.782 21.8747 131.735 21.8932 131.689C21.9274 131.587 21.9729 131.45 22.0337 131.276L22.5805 129.688C23.0362 128.306 23.7197 126.305 24.4411 123.81C25.9221 118.817 27.8586 111.876 29.575 104.118C29.7838 103.15 29.9927 102.189 30.1522 101.24C30.3116 100.29 30.3876 99.3409 30.4673 98.4068C30.623 96.5386 30.7407 94.7349 30.8471 93.0186C31.0597 89.6011 31.2268 86.4835 31.3445 83.8824C31.4622 81.2813 31.5495 79.1853 31.6141 77.7195C31.6407 76.9981 31.6635 76.4361 31.6786 76.0412C31.6786 75.8589 31.6862 75.7146 31.7014 75.6083C31.709 75.5584 31.7191 75.509 31.7318 75.4602Z" fill="#263238"/>
<path d="M45.6678 130.573C45.6558 130.528 45.6494 130.483 45.6488 130.436C45.6488 130.338 45.6488 130.205 45.6185 130.034C45.5919 129.654 45.5577 129.149 45.5121 128.485C45.4324 127.129 45.3185 125.185 45.1742 122.789C44.9046 117.978 44.5666 111.325 44.2553 103.981C43.9439 96.6372 43.716 89.9731 43.5679 85.1582C43.5034 82.7584 43.4464 80.8104 43.4123 79.4624C43.4123 78.7979 43.3857 78.2777 43.3781 77.9131V77.5068C43.374 77.4613 43.374 77.4156 43.3781 77.3701C43.3822 77.4156 43.3822 77.4613 43.3781 77.5068C43.3781 77.6093 43.3781 77.7422 43.4009 77.9093C43.4009 78.289 43.4388 78.7979 43.4692 79.4624C43.5224 80.818 43.5945 82.766 43.6895 85.1582C43.8793 89.9807 44.1451 96.6296 44.4489 103.973C44.7527 111.317 45.0755 117.97 45.3109 122.785C45.4286 125.185 45.5197 127.129 45.5881 128.481C45.6146 129.145 45.6374 129.665 45.6526 130.034C45.6526 130.201 45.6526 130.334 45.6526 130.436C45.6618 130.481 45.6669 130.527 45.6678 130.573Z" fill="#263238"/>
<path d="M37.3291 33.8162C37.3578 34.156 37.3578 34.4977 37.3291 34.8376C37.3188 35.69 37.235 36.54 37.0785 37.378L37.0557 37.5033L36.9418 37.4425C36.6988 37.3172 36.4482 37.1843 36.2013 37.0362C35.1457 36.4211 34.2496 35.7793 33.5851 35.3389C32.9205 34.8984 32.5142 34.6288 32.5256 34.606C32.9257 34.7708 33.3075 34.9769 33.6648 35.2211C34.3483 35.635 35.2596 36.2578 36.3039 36.8653C36.5507 37.0096 36.7975 37.1463 37.0329 37.2716L36.8924 37.3362C37.0523 36.5087 37.1563 35.6715 37.2038 34.83C37.2183 34.4893 37.2602 34.1502 37.3291 33.8162Z" fill="#263238"/>
<path d="M39.911 34.6628C39.8641 34.9822 39.7956 35.2981 39.706 35.6083C39.6338 35.8969 39.5579 36.2462 39.4326 36.6297C39.3683 36.8308 39.2909 37.0274 39.201 37.2183C39.1719 37.2847 39.1245 37.3413 39.0643 37.3816C39.0231 37.4095 38.9733 37.4217 38.9239 37.4161C38.8744 37.4106 38.8286 37.3875 38.7947 37.3512C38.7207 37.2494 38.663 37.1366 38.6238 37.017C38.2706 36.1741 37.9593 35.4108 37.7466 34.8526C37.6162 34.5588 37.5169 34.2521 37.4504 33.9375C37.6261 34.2105 37.7737 34.5006 37.8909 34.8033C38.1377 35.3501 38.4681 36.1057 38.8212 36.9487C38.8551 37.0432 38.8971 37.1347 38.9465 37.2221C38.9655 37.2221 38.9465 37.2221 38.9769 37.2221C39.0047 37.1997 39.0268 37.1711 39.0415 37.1386C39.1305 36.9545 39.2091 36.7657 39.2769 36.5728C39.406 36.1931 39.4971 35.8627 39.5845 35.5741C39.6525 35.2572 39.7624 34.9508 39.911 34.6628Z" fill="#263238"/>
<path d="M38.548 60.6093C38.5275 60.5196 38.5173 60.4279 38.5176 60.3359C38.5176 60.1384 38.4872 59.8802 38.4644 59.5574C38.4303 58.8587 38.3771 57.8829 38.3163 56.6867C38.2062 54.2451 38.0581 50.9074 37.891 47.2203C37.724 43.5332 37.6214 40.1954 37.5113 37.75C37.4734 36.5539 37.4468 35.5818 37.424 34.8793C37.424 34.5565 37.424 34.2983 37.424 34.1198C37.4182 34.0288 37.4182 33.9375 37.424 33.8464C37.4451 33.9348 37.4565 34.0252 37.4582 34.116C37.4582 34.3135 37.4885 34.5717 37.5075 34.8945C37.5455 35.597 37.5949 36.569 37.6594 37.7652C37.7695 40.2068 37.9176 43.5445 38.0809 47.2316C38.2442 50.9188 38.3543 54.2603 38.4606 56.7019C38.4986 57.898 38.529 58.8739 38.5518 59.5726C38.5518 59.8954 38.5518 60.1574 38.5518 60.3549C38.5598 60.4395 38.5585 60.5249 38.548 60.6093Z" fill="#263238"/>
<path d="M43.1755 41.6817L39.6865 41.7493L39.7005 42.4706L43.1895 42.403L43.1755 41.6817Z" fill="white"/>
<path d="M46.4917 53.4705C46.4348 53.4705 46.2145 50.8352 45.9981 47.5734C45.7816 44.3116 45.6487 41.6725 45.7019 41.6687C45.7551 41.6649 45.9753 44.304 46.1955 47.562C46.4158 50.82 46.5639 53.4667 46.4917 53.4705Z" fill="#263238"/>
<path d="M63.0515 37.7688C62.1672 37.6672 61.2915 37.501 60.4315 37.2714C59.5578 37.1032 58.6974 36.8723 57.8569 36.5803C58.7413 36.6819 59.617 36.8482 60.477 37.0778C61.3512 37.2438 62.2117 37.4748 63.0515 37.7688Z" fill="#263238"/>
<path d="M58.9161 35.4337C58.9868 35.4322 59.0564 35.4517 59.116 35.4899C59.1756 35.528 59.2225 35.583 59.2508 35.6478C59.2791 35.7127 59.2875 35.7845 59.2749 35.8541C59.2623 35.9237 59.2293 35.988 59.1801 36.0388C59.1308 36.0897 59.0676 36.1247 58.9985 36.1395C58.9293 36.1544 58.8572 36.1483 58.7915 36.1221C58.7258 36.0959 58.6693 36.0508 58.6293 35.9924C58.5893 35.9341 58.5675 35.8652 58.5667 35.7944C58.5657 35.7477 58.574 35.7013 58.5911 35.6578C58.6081 35.6143 58.6336 35.5747 58.6661 35.5411C58.6986 35.5076 58.7374 35.4808 58.7803 35.4624C58.8232 35.4439 58.8694 35.4342 58.9161 35.4337Z" fill="#263238"/>
<path d="M43.1395 40.0718L41.8828 40.0959L41.9069 41.3526L43.1636 41.3285L43.1395 40.0718Z" fill="#E0E0E0"/>
<path d="M43.1229 39.3857L42.4927 39.3979L42.5049 40.0282L43.1351 40.016L43.1229 39.3857Z" fill="#E0E0E0"/>
<path d="M61.9542 46.5139L61.4378 66.7911L29.6208 66.6278L29.7234 46.0811L61.9542 46.5139Z" fill="#DE8E16"/>
<path d="M43.0553 66.6735C43.0022 66.6735 43.0553 62.1434 43.2148 56.5615C43.3743 50.9796 43.5262 46.4685 43.568 46.4685C43.6097 46.4685 43.568 50.9948 43.4123 56.5805C43.2566 62.1662 43.1085 66.6735 43.0553 66.6735Z" fill="#263238"/>
<path d="M29.6208 66.628C29.6543 66.5525 29.6964 66.4812 29.7462 66.4153L30.1259 65.8192L31.6106 63.6585L36.5698 56.5653C38.5101 53.7971 40.2569 51.2872 41.5062 49.4569C42.1327 48.5418 42.6453 47.7975 42.9719 47.2811L43.3516 46.685C43.4014 46.6064 43.46 46.5338 43.5263 46.4685C43.4992 46.547 43.4608 46.6212 43.4124 46.6887L43.0554 47.3077C42.7327 47.8355 42.2504 48.595 41.6429 49.5177C40.424 51.3707 38.6924 53.8959 36.7558 56.6641C34.8193 59.4322 33.0383 61.9232 31.7473 63.7231L30.2284 65.8495C30.0537 66.085 29.9094 66.2748 29.8031 66.4229C29.752 66.4992 29.6906 66.5682 29.6208 66.628Z" fill="#263238"/>
<path d="M42.7401 66.833C42.6945 66.8634 39.763 62.2953 36.1975 56.6299C32.6319 50.9644 29.7726 46.347 29.8219 46.3204C29.8713 46.2938 32.7951 50.8581 36.3645 56.5236C39.9339 62.189 42.7856 66.8064 42.7401 66.833Z" fill="#263238"/>
<path d="M46.7609 63.8417L51.8682 63.9949L51.8996 62.9468L46.7923 62.7936L46.7609 63.8417Z" fill="#263238"/>
<path d="M46.6321 62.508C47.461 62.4084 48.2966 62.3766 49.1307 62.4131C49.9649 62.3788 50.8006 62.413 51.6292 62.5156C50.8 62.6108 49.9647 62.6425 49.1307 62.6105C48.2964 62.6401 47.4611 62.6058 46.6321 62.508Z" fill="#263238"/>
<path d="M55.5175 46.3508L55.3201 54.1807L54.2265 53.2959L52.7874 54.1161L52.9886 46.29L55.5175 46.3508Z" fill="#263238"/>
<path d="M29.0969 44.285C29.0969 44.285 27.5552 55.0463 28.2843 55.6766C32.3246 59.0752 37.9406 60.8561 39.9494 61.418C40.2418 61.3459 40.5873 61.2548 40.9784 61.1295C41.3199 61.0211 41.6398 60.854 41.9239 60.6358C42.2893 60.381 42.6177 60.0769 42.8998 59.7321C42.9436 59.6609 43.0079 59.6046 43.0843 59.5706C43.1607 59.5366 43.2455 59.5266 43.3277 59.5418C43.4099 59.557 43.4856 59.5968 43.5448 59.6558C43.604 59.7148 43.6439 59.7904 43.6593 59.8726C43.6783 60.2523 43.0821 61.2016 41.9619 61.8965C41.9619 61.8965 44.5364 66.0393 45.3566 66.4114C46.1768 66.7835 48.5273 67.8429 48.1286 68.048C47.7299 68.253 44.8744 67.4177 44.8744 67.4177L39.0798 65.8684C39.0798 65.8684 19.9076 62.8648 21.1873 54.0704C21.9695 48.6822 22.8239 43.8179 23.1315 42.5952L29.0969 44.285Z" fill="#FFBE9D"/>
<path d="M22.8006 42.0789L21.0805 53.8199C20.7008 57.4386 23.1044 60.3055 26.3624 61.9231C31.3216 64.38 38.6844 66.1305 38.6237 66.1191C38.5629 66.1077 39.1211 60.8979 39.1211 60.8979C39.1211 60.8979 28.8003 56.4286 28.4889 54.5072C28.1775 52.5858 29.7989 44.5546 29.7989 44.5546L22.8006 42.0789Z" fill="#0B9346"/>
<path d="M38.6239 66.119C38.6188 66.0888 38.6188 66.058 38.6239 66.0279C38.6239 65.9557 38.6239 65.8646 38.6239 65.7545C38.6429 65.5001 38.6694 65.1507 38.7036 64.7102C38.7833 63.7875 38.8973 62.4813 39.0378 60.875L39.0795 60.9434L33.8849 58.4296L32.366 57.6968C31.861 57.4272 31.356 57.1348 30.8472 56.812C30.3366 56.4849 29.847 56.1259 29.3814 55.7374C29.146 55.5399 28.9144 55.3349 28.6903 55.1146C28.5679 55.0076 28.4662 54.8788 28.3904 54.7349C28.3525 54.6604 28.3244 54.5812 28.3068 54.4995C28.2833 54.4199 28.2655 54.3386 28.2537 54.2565C28.0866 52.9768 28.4321 51.7617 28.6068 50.6073C28.7815 49.453 28.9865 48.329 29.1878 47.2582C29.5675 45.128 29.8941 43.2104 30.1788 41.5927C30.3317 40.8756 30.4194 40.1461 30.4409 39.4131C30.4462 38.8612 30.3322 38.3145 30.1067 37.8107C29.9607 37.4941 29.7543 37.2091 29.4991 36.9715C29.3207 36.8082 29.2106 36.7475 29.2143 36.7361C29.3269 36.7901 29.4317 36.859 29.5257 36.9411C29.7985 37.1709 30.0197 37.4555 30.175 37.7765C30.4217 38.2857 30.5514 38.8436 30.5548 39.4093C30.5459 40.1505 30.4671 40.8892 30.3193 41.6155C30.0497 43.2369 29.727 45.1583 29.37 47.2924L28.8005 50.6453C28.7511 50.9339 28.7017 51.2301 28.6486 51.5263C28.5954 51.8225 28.5422 52.111 28.5005 52.411C28.4018 53.0111 28.3865 53.6219 28.4549 54.2261C28.4642 54.3006 28.4795 54.3742 28.5005 54.4463C28.5165 54.5173 28.5407 54.5861 28.5726 54.6514C28.6354 54.7811 28.7247 54.8962 28.8346 54.9893C29.0511 55.2058 29.2789 55.407 29.5105 55.6045C29.9701 55.9859 30.452 56.3396 30.9535 56.6639C31.4471 56.9867 31.9484 57.2791 32.4458 57.5449L33.9419 58.2815L39.1099 60.8333L39.1555 60.8561V60.8978C38.9884 62.504 38.8517 63.8103 38.7758 64.7292C38.7264 65.1697 38.6884 65.5152 38.6618 65.7697C38.6618 65.8798 38.6353 65.9671 38.6239 66.0393C38.6125 66.1114 38.6277 66.1228 38.6239 66.119Z" fill="#263238"/>
<path d="M37.6668 60.1611C37.6808 60.4297 37.6604 60.699 37.6061 60.9623C37.5415 61.456 37.439 62.1319 37.3023 62.861C37.1656 63.59 37.0099 64.2735 36.8808 64.7596C36.8278 65.0223 36.7424 65.2774 36.6264 65.519C36.5732 65.519 36.8314 64.3115 37.1086 62.8306C37.2406 61.9303 37.4271 61.0389 37.6668 60.1611Z" fill="#263238"/>
<path d="M38.624 66.1192C38.5636 66.119 38.5035 66.1101 38.4456 66.0926L37.9329 65.9673L36.0647 65.4813C34.4965 65.056 32.3093 64.5016 29.9892 63.6396C28.8869 63.2378 27.8136 62.7608 26.7767 62.2119C25.9326 61.7577 25.1251 61.2384 24.3617 60.6588C23.8497 60.2643 23.3663 59.8342 22.9149 59.3716C22.7592 59.2083 22.6377 59.0754 22.5618 58.9918C22.518 58.9481 22.4809 58.8982 22.4517 58.8438C22.4517 58.8438 22.6377 59.0146 22.9719 59.326C23.4386 59.7647 23.9319 60.1743 24.449 60.5525C25.2136 61.1203 26.021 61.6282 26.864 62.0714C27.8965 62.6094 28.9633 63.0788 30.0575 63.4764C32.3814 64.3307 34.561 64.9079 36.1331 65.375L37.9823 65.9256L38.4835 66.0813C38.5312 66.0905 38.5782 66.1032 38.624 66.1192Z" fill="#263238"/>
<path d="M38.7532 61.4181C38.7542 61.462 38.7466 61.5057 38.7307 61.5466C38.7149 61.5875 38.6911 61.6249 38.6608 61.6567C38.6304 61.6884 38.5941 61.7138 38.554 61.7315C38.5138 61.7493 38.4706 61.7589 38.4267 61.7599C38.339 61.7599 38.2547 61.7259 38.1916 61.6649C38.1286 61.604 38.0917 61.5209 38.0887 61.4333C38.0877 61.3894 38.0953 61.3458 38.1112 61.3048C38.1271 61.2639 38.1509 61.2265 38.1812 61.1948C38.2115 61.163 38.2478 61.1376 38.288 61.1199C38.3281 61.1022 38.3714 61.0925 38.4153 61.0916C38.503 61.0915 38.5872 61.1255 38.6503 61.1865C38.7134 61.2474 38.7503 61.3305 38.7532 61.4181Z" fill="#263238"/>
</svg>
