<svg width="175" height="245" viewBox="0 0 175 245" fill="none" xmlns="http://www.w3.org/2000/svg">
<path d="M72.7781 241.685L74.1345 235.902L85.401 236.181L84.4599 244.409L83.7449 244.467C80.5537 244.682 67.5102 245.339 65.3442 244.719C63.0047 244.02 72.7781 241.685 72.7781 241.685Z" fill="#0B622F"/>
<g opacity="0.4">
<path d="M80.2637 244.367C80.4216 243.388 80.9367 242.502 81.7094 241.88C82.4653 241.262 83.4262 240.95 84.4012 241.007L84.4433 244.241L80.2637 244.367Z" fill="black"/>
</g>
<g opacity="0.4">
<path d="M67.993 243C67.993 243 64.56 244.051 64.9963 244.577C65.4327 245.103 78.6655 244.971 84.4485 244.388V244.13L69.0445 244.456C69.0445 244.456 68.666 243.016 67.993 243Z" fill="black"/>
</g>
<path d="M84.6169 244.135C84.5516 244.152 84.4845 244.161 84.4171 244.162L83.8493 244.204L81.7464 244.319C79.9747 244.409 77.5405 244.493 74.8067 244.53C72.0729 244.566 69.6387 244.53 67.8617 244.53L65.7588 244.466H65.1857H64.9912C65.0576 244.458 65.1246 244.458 65.191 244.466H65.7588H67.8617C69.6335 244.466 72.0676 244.466 74.8014 244.466C77.5352 244.466 79.9641 244.356 81.7359 244.293L83.8388 244.225H84.4119L84.6169 244.135Z" fill="#263238"/>
<path d="M69.0389 244.656C68.9422 244.309 68.8064 243.974 68.6341 243.657C68.4225 243.363 68.1772 243.095 67.9033 242.858C68.2635 242.987 68.5643 243.243 68.7497 243.578C68.9742 243.89 69.0771 244.273 69.0389 244.656Z" fill="#263238"/>
<path d="M72.4301 242.889C72.3986 242.889 72.2306 242.715 72.0573 242.448C71.8839 242.18 71.7737 241.954 71.8052 241.922C71.8367 241.891 72.0047 242.101 72.178 242.363C72.3514 242.626 72.4669 242.857 72.4301 242.889Z" fill="#263238"/>
<path d="M73.36 242.363C73.36 242.389 73.1499 242.269 72.9504 242.095C72.7508 241.922 72.6037 241.749 72.63 241.722C72.6563 241.696 72.8401 241.812 73.0396 241.99C73.2392 242.169 73.3863 242.363 73.36 242.363Z" fill="#263238"/>
<path d="M73.9387 241.27C73.7469 241.347 73.5398 241.378 73.3341 241.36C73.1307 241.384 72.9245 241.364 72.7295 241.302C72.9221 241.228 73.1288 241.2 73.3341 241.218C73.537 241.19 73.7436 241.208 73.9387 241.27Z" fill="#263238"/>
<path d="M74.1329 240.498C73.9251 240.612 73.6958 240.682 73.4596 240.702C73.2233 240.723 72.9853 240.695 72.7607 240.618C72.9884 240.582 73.2188 240.564 73.4495 240.566C73.6749 240.524 73.9036 240.501 74.1329 240.498Z" fill="#263238"/>
<path d="M72.0252 241.875C71.7782 241.917 71.5257 241.917 71.2787 241.875C71.0097 241.844 70.7441 241.79 70.4848 241.712C70.3283 241.666 70.1768 241.604 70.0327 241.528C69.9437 241.482 69.8746 241.405 69.8382 241.312C69.8258 241.257 69.8296 241.199 69.8492 241.146C69.8688 241.093 69.9033 241.047 69.9486 241.013C70.231 240.87 70.554 240.83 70.8627 240.899C71.1714 240.968 71.4466 241.142 71.6414 241.391C71.7583 241.536 71.8426 241.705 71.8885 241.885C71.9201 242.011 71.9201 242.08 71.8885 242.085C71.811 241.856 71.6935 241.642 71.5416 241.454C71.3722 241.259 71.1491 241.118 70.9002 241.049C70.7554 241.003 70.6028 240.985 70.4512 240.998C70.2996 241.01 70.152 241.053 70.0169 241.123C69.9013 241.207 69.9486 241.349 70.08 241.423C70.213 241.497 70.3542 241.555 70.5006 241.596C70.7511 241.679 71.0078 241.742 71.2682 241.785C71.7413 241.838 72.0252 241.838 72.0252 241.875Z" fill="#263238"/>
<path d="M71.831 241.917C71.738 241.759 71.7062 241.572 71.7417 241.391C71.7644 241.203 71.8311 241.023 71.9362 240.866C71.997 240.754 72.0855 240.659 72.1931 240.591C72.3008 240.523 72.4241 240.484 72.5513 240.477C72.627 240.492 72.6936 240.536 72.7369 240.6C72.7801 240.664 72.7966 240.742 72.7826 240.818C72.7682 240.936 72.7268 241.05 72.6617 241.15C72.566 241.316 72.4494 241.47 72.3147 241.607C72.0834 241.838 71.9047 241.928 71.8941 241.912C71.8836 241.896 72.0413 241.775 72.2411 241.539C72.359 241.399 72.4612 241.248 72.546 241.086C72.6459 240.929 72.7143 240.65 72.546 240.619C72.3778 240.587 72.1675 240.787 72.0571 240.939C71.9543 241.084 71.8843 241.249 71.8521 241.423C71.8313 241.587 71.8243 241.752 71.831 241.917Z" fill="#263238"/>
<path d="M84.3433 240.976C84.3433 241.002 84.0121 240.95 83.4864 241.018C82.8054 241.099 82.1617 241.372 81.6309 241.806C81.1 242.24 80.7041 242.817 80.4897 243.468C80.3162 243.967 80.3057 244.304 80.2794 244.298C80.2636 244.222 80.2636 244.143 80.2794 244.067C80.2985 243.855 80.339 243.645 80.4003 243.441C80.5993 242.759 81 242.153 81.5498 241.703C82.0997 241.252 82.7729 240.979 83.4811 240.918C83.6925 240.896 83.9058 240.896 84.1172 240.918C84.1958 240.922 84.2727 240.941 84.3433 240.976Z" fill="#263238"/>
<path d="M83.0804 236.176C83.1679 236.965 83.2118 237.758 83.2119 238.552C83.2566 239.344 83.2566 240.137 83.2119 240.928C83.1213 240.141 83.0775 239.35 83.0804 238.557C83.0357 237.764 83.0357 236.969 83.0804 236.176Z" fill="#263238"/>
<path d="M78.776 243.257C77.6627 243.485 76.5176 243.51 75.3955 243.331C75.3955 243.289 76.1578 243.331 77.0884 243.331C78.0189 243.331 78.776 243.215 78.776 243.257Z" fill="#263238"/>
<path d="M81.0555 243.226C81.087 243.252 80.9977 243.384 80.9242 243.557C80.8507 243.73 80.8087 243.888 80.7666 243.883C80.7246 243.877 80.7089 243.704 80.7929 243.504C80.8769 243.305 81.0345 243.195 81.0555 243.226Z" fill="#263238"/>
<path d="M81.8975 242.148C81.929 242.174 81.8555 242.295 81.7347 242.421C81.6139 242.547 81.4984 242.621 81.4721 242.595C81.4459 242.568 81.5194 242.447 81.6349 242.321C81.7505 242.195 81.8713 242.122 81.8975 242.148Z" fill="#263238"/>
<path d="M83.1181 241.649C83.1181 241.685 82.9553 241.691 82.7872 241.748C82.6192 241.806 82.4984 241.906 82.4669 241.88C82.4354 241.854 82.5299 241.691 82.74 241.617C82.95 241.544 83.1286 241.612 83.1181 241.649Z" fill="#263238"/>
<path d="M83.9846 241.407C83.9846 241.444 83.9321 241.507 83.8376 241.544C83.743 241.58 83.6538 241.58 83.638 241.544C83.6223 241.507 83.6905 241.444 83.7851 241.407C83.8796 241.37 83.9689 241.37 83.9846 241.407Z" fill="#263238"/>
<path d="M118.88 241.712L118.916 235.54L107.35 235.398L107.203 244.435L107.923 244.488C111.109 244.703 124.158 245.361 126.298 244.74C128.679 244.046 118.88 241.712 118.88 241.712Z" fill="#0B622F"/>
<g opacity="0.4">
<path d="M111.372 244.393C111.213 243.414 110.698 242.529 109.926 241.906C109.169 241.29 108.209 240.979 107.234 241.034L107.192 244.267L111.372 244.393Z" fill="black"/>
</g>
<g opacity="0.4">
<path d="M123.664 243.026C123.664 243.026 127.097 244.078 126.66 244.603C126.224 245.129 113.017 244.998 107.208 244.414V244.151L122.612 244.482C122.612 244.482 122.991 243.047 123.664 243.026Z" fill="black"/>
</g>
<path d="M107.039 244.167H107.239L107.807 244.209L109.91 244.33C111.681 244.414 114.115 244.498 116.849 244.541C119.583 244.583 122.017 244.541 123.794 244.514L125.897 244.456H126.47H126.67C126.604 244.449 126.537 244.449 126.47 244.456H125.897H123.794C122.017 244.456 119.562 244.456 116.849 244.456C114.136 244.456 111.687 244.346 109.915 244.288L107.812 244.215H107.239L107.039 244.167Z" fill="#263238"/>
<path d="M122.617 244.682C122.714 244.336 122.85 244.001 123.022 243.684C123.231 243.389 123.476 243.122 123.752 242.89C123.389 243.014 123.087 243.271 122.906 243.61C122.683 243.921 122.58 244.302 122.617 244.682Z" fill="#263238"/>
<path d="M119.226 242.889C119.258 242.889 119.426 242.715 119.599 242.453C119.772 242.19 119.883 241.959 119.851 241.928C119.82 241.896 119.651 242.101 119.478 242.363C119.305 242.626 119.195 242.889 119.226 242.889Z" fill="#263238"/>
<path d="M118.295 242.4C118.321 242.426 118.505 242.311 118.71 242.132C118.915 241.954 119.051 241.791 119.025 241.759C118.999 241.728 118.815 241.849 118.615 242.027C118.416 242.206 118.269 242.363 118.295 242.4Z" fill="#263238"/>
<path d="M117.717 241.312C117.91 241.383 118.116 241.412 118.321 241.397C118.525 241.424 118.732 241.404 118.926 241.339C118.734 241.269 118.53 241.24 118.327 241.255C118.122 241.227 117.913 241.247 117.717 241.312Z" fill="#263238"/>
<path d="M117.527 240.529C117.734 240.643 117.963 240.713 118.198 240.734C118.433 240.755 118.671 240.726 118.894 240.65C118.669 240.609 118.44 240.59 118.211 240.592C117.986 240.547 117.757 240.526 117.527 240.529Z" fill="#263238"/>
<path d="M119.631 241.901C119.878 241.947 120.131 241.947 120.377 241.901C120.647 241.873 120.913 241.819 121.171 241.738C121.327 241.692 121.478 241.632 121.623 241.56C121.711 241.507 121.778 241.425 121.813 241.328C121.825 241.273 121.821 241.215 121.802 241.162C121.782 241.109 121.748 241.063 121.702 241.029C121.42 240.887 121.099 240.848 120.791 240.917C120.483 240.986 120.209 241.159 120.015 241.407C119.895 241.551 119.808 241.72 119.762 241.901C119.747 241.967 119.747 242.035 119.762 242.101C119.84 241.872 119.957 241.658 120.109 241.47C120.28 241.277 120.503 241.136 120.751 241.065C120.895 241.019 121.048 241.001 121.2 241.014C121.351 241.026 121.499 241.069 121.634 241.139C121.75 241.228 121.702 241.365 121.571 241.444C121.437 241.515 121.296 241.571 121.15 241.612C120.9 241.698 120.643 241.763 120.383 241.807C119.915 241.88 119.631 241.88 119.631 241.901Z" fill="#263238"/>
<path d="M119.825 241.943C119.918 241.785 119.95 241.598 119.914 241.417C119.891 241.23 119.824 241.05 119.72 240.892C119.659 240.78 119.57 240.685 119.463 240.617C119.355 240.549 119.232 240.51 119.105 240.503C119.03 240.519 118.964 240.564 118.921 240.627C118.878 240.691 118.861 240.769 118.873 240.844C118.888 240.964 118.93 241.079 118.994 241.181C119.091 241.345 119.208 241.497 119.341 241.633C119.572 241.864 119.751 241.954 119.762 241.938C119.772 241.922 119.614 241.807 119.415 241.565C119.297 241.427 119.195 241.278 119.11 241.118C119.01 240.96 118.942 240.676 119.11 240.645C119.278 240.613 119.483 240.813 119.593 240.965C119.696 241.11 119.766 241.275 119.798 241.449C119.821 241.613 119.83 241.778 119.825 241.943Z" fill="#263238"/>
<path d="M107.312 241.002C107.312 241.002 107.649 240.976 108.169 241.044C108.85 241.127 109.494 241.402 110.024 241.837C110.555 242.272 110.951 242.848 111.166 243.499C111.34 243.994 111.35 244.33 111.376 244.325C111.392 244.249 111.392 244.17 111.376 244.093C111.36 243.881 111.319 243.671 111.256 243.468C111.054 242.787 110.655 242.182 110.109 241.728C109.555 241.283 108.882 241.01 108.175 240.944C107.963 240.922 107.75 240.922 107.539 240.944C107.461 240.954 107.385 240.974 107.312 241.002Z" fill="#263238"/>
<path d="M108.575 236.202C108.488 236.991 108.444 237.784 108.444 238.578C108.399 239.371 108.399 240.167 108.444 240.96C108.534 240.171 108.578 239.377 108.575 238.583C108.62 237.79 108.62 236.995 108.575 236.202Z" fill="#263238"/>
<path d="M112.864 243.284C113.978 243.511 115.123 243.536 116.245 243.357C116.245 243.321 115.482 243.357 114.552 243.331C113.621 243.305 112.87 243.242 112.864 243.284Z" fill="#263238"/>
<path d="M110.599 243.252C110.568 243.279 110.657 243.41 110.731 243.588C110.804 243.767 110.846 243.914 110.888 243.914C110.93 243.914 110.951 243.73 110.862 243.531C110.773 243.331 110.62 243.226 110.599 243.252Z" fill="#263238"/>
<path d="M109.758 242.18C109.727 242.206 109.8 242.327 109.921 242.448C110.042 242.569 110.157 242.647 110.184 242.621C110.21 242.595 110.136 242.474 110.021 242.353C109.905 242.233 109.795 242.148 109.758 242.18Z" fill="#263238"/>
<path d="M108.539 241.675C108.539 241.717 108.701 241.717 108.869 241.78C109.037 241.843 109.158 241.932 109.19 241.906C109.221 241.88 109.127 241.717 108.917 241.644C108.707 241.57 108.528 241.638 108.539 241.675Z" fill="#263238"/>
<path d="M107.69 241.433C107.69 241.47 107.743 241.533 107.837 241.57C107.932 241.607 108.021 241.612 108.037 241.57C108.053 241.528 107.985 241.475 107.89 241.433C107.795 241.391 107.69 241.402 107.69 241.433Z" fill="#263238"/>
<path d="M125.456 128.973L120.194 240.256L105.752 240.597L106.887 144.109L85.2745 240.781L72.9775 240.224L92.2615 129.199L125.456 128.973Z" fill="#263238"/>
<path d="M110.43 130.477C110.432 131.089 110.388 131.701 110.299 132.307C110.178 133.432 109.994 134.983 109.773 136.697C109.695 137.511 109.562 138.319 109.374 139.115C109.206 139.785 108.84 140.388 108.322 140.845C107.974 141.151 107.552 141.359 107.097 141.449C106.933 141.489 106.762 141.489 106.598 141.449C107.211 141.344 107.779 141.057 108.228 140.626C108.677 140.195 108.986 139.639 109.116 139.031C109.283 138.243 109.406 137.446 109.484 136.644C109.71 134.935 109.926 133.384 110.099 132.27C110.158 131.664 110.269 131.064 110.43 130.477Z" fill="#455A64"/>
<path d="M106.871 131.139C106.913 131.166 106.777 131.35 106.871 131.639C106.893 131.716 106.932 131.788 106.983 131.849C107.035 131.911 107.099 131.961 107.171 131.996C107.261 132.03 107.359 132.036 107.452 132.015C107.546 131.993 107.631 131.945 107.697 131.875C107.772 131.813 107.826 131.729 107.853 131.636C107.879 131.542 107.876 131.442 107.844 131.35C107.811 131.276 107.764 131.21 107.706 131.154C107.647 131.099 107.578 131.057 107.502 131.029C107.218 130.918 107.029 131.029 107.003 131.003C106.976 130.976 107.155 130.745 107.56 130.819C107.673 130.845 107.779 130.897 107.87 130.97C107.961 131.042 108.035 131.134 108.086 131.239C108.138 131.383 108.146 131.539 108.11 131.688C108.075 131.837 107.996 131.972 107.884 132.077C107.772 132.182 107.632 132.251 107.481 132.277C107.33 132.303 107.175 132.284 107.034 132.222C106.929 132.165 106.839 132.084 106.771 131.986C106.703 131.887 106.66 131.773 106.645 131.655C106.608 131.276 106.861 131.102 106.871 131.139Z" fill="#455A64"/>
<path d="M97.7019 133.058C97.478 132.567 97.3804 132.028 97.418 131.49C97.4557 130.952 97.6274 130.432 97.9174 129.977C98.0015 130.009 97.7755 130.671 97.7229 131.507C97.6703 132.343 97.7913 133.011 97.7019 133.058Z" fill="#455A64"/>
<path d="M99.7622 132.848C99.5431 132.339 99.4389 131.787 99.4571 131.233C99.4753 130.679 99.6154 130.135 99.8674 129.641C99.8637 130.168 99.8285 130.695 99.7622 131.218C99.7945 131.761 99.7945 132.305 99.7622 132.848Z" fill="#455A64"/>
<path d="M117.538 132.643C117.506 132.089 117.518 131.533 117.575 130.982C117.531 130.427 117.531 129.87 117.575 129.315C117.984 130.39 117.967 131.58 117.528 132.643H117.538Z" fill="#455A64"/>
<path d="M119.782 132.438C119.698 132.406 119.94 131.676 119.966 130.745C119.993 129.815 119.809 129.068 119.893 129.042C120.209 129.552 120.34 130.155 120.266 130.75C120.299 131.351 120.128 131.946 119.782 132.438Z" fill="#455A64"/>
<path d="M116.476 59.198C117.065 58.4988 117.528 57.2528 117.165 56.4117C117.87 56.0489 117.933 55.4233 117.933 54.6347C117.892 53.8417 117.658 53.0707 117.249 52.3898C116.695 51.2328 115.812 50.2652 114.71 49.6086C114.155 49.2903 113.521 49.1362 112.881 49.1641C112.242 49.192 111.624 49.4009 111.098 49.7664C110.72 49.3178 110.257 48.9496 109.734 48.6837C109.211 48.4178 108.641 48.2595 108.056 48.2183C107.471 48.1771 106.883 48.2539 106.329 48.4439C105.774 48.634 105.263 48.9335 104.826 49.3247C104.551 49.6567 104.23 49.9486 103.875 50.1922C103.249 50.5392 102.481 50.4078 101.772 50.4761C101.19 50.5263 100.629 50.714 100.134 51.0238C99.6399 51.3336 99.226 51.7565 98.9271 52.2578C98.6283 52.759 98.4528 53.3242 98.4154 53.9066C98.378 54.4889 98.4796 55.0719 98.7118 55.6073C98.2151 55.9561 97.8041 56.4133 97.5099 56.9443C97.2157 57.4753 97.0461 58.0661 97.0137 58.6723C96.9642 59.8832 97.1025 61.0945 97.4238 62.2631C97.7497 63.7194 98.1178 65.2493 99.1482 66.327C99.8636 67.0674 100.824 67.5216 101.85 67.6045C102.581 67.6533 103.312 67.5152 103.974 67.2034C104.636 66.8916 105.208 66.4163 105.636 65.8223" fill="#263238"/>
<path d="M101.087 84.0074L112.769 83.4817C112.838 82.2409 112.201 74.5442 112.201 74.5442C112.201 74.5442 116.618 73.8607 116.675 69.4446C116.733 65.0284 115.96 54.8922 115.96 54.8922C113.45 53.8135 110.698 53.4241 107.988 53.7642C105.277 54.1043 102.706 55.1616 100.541 56.8269L99.8887 57.3527L101.087 84.0074Z" fill="#FFBF9D"/>
<path d="M112.213 74.4969C110.165 74.5402 108.151 73.9708 106.43 72.8618C106.43 72.8618 107.791 76.0162 112.213 75.643V74.4969Z" fill="#FFBF9D"/>
<path d="M100.43 61.921C100.357 61.8895 97.3967 61.022 97.4966 64.024C97.5965 67.0259 100.604 66.3267 100.604 66.2373C100.604 66.1479 100.43 61.921 100.43 61.921Z" fill="#FFBF9D"/>
<path d="M99.6474 65.1388C99.6474 65.1388 99.5948 65.1809 99.5055 65.223C99.3806 65.2727 99.2413 65.2727 99.1164 65.223C98.9161 65.1062 98.7509 64.9377 98.6381 64.7351C98.5252 64.5326 98.4689 64.3034 98.475 64.0716C98.4586 63.8129 98.5017 63.5539 98.6012 63.3145C98.6268 63.2202 98.6744 63.1333 98.7403 63.0611C98.8061 62.9889 98.8882 62.9334 98.9797 62.8992C99.04 62.8814 99.1046 62.8854 99.1622 62.9103C99.2199 62.9353 99.2669 62.9798 99.2952 63.0359C99.3372 63.12 99.3215 63.1778 99.3372 63.1831C99.353 63.1884 99.4003 63.1305 99.374 63.0044C99.353 62.931 99.3087 62.8664 99.2479 62.8203C99.2058 62.7899 99.1581 62.7682 99.1076 62.7564C99.057 62.7447 99.0046 62.7432 98.9534 62.752C98.8318 62.7827 98.7198 62.8437 98.6279 62.9291C98.5361 63.0146 98.4672 63.1218 98.4277 63.2409C98.3061 63.5058 98.2519 63.7965 98.27 64.0874C98.2642 64.3564 98.338 64.6211 98.482 64.8483C98.626 65.0756 98.8339 65.2553 99.0796 65.3649C99.1614 65.3857 99.2468 65.3879 99.3295 65.3716C99.4123 65.3552 99.4903 65.3206 99.558 65.2703C99.6422 65.1914 99.6579 65.1441 99.6474 65.1388Z" fill="#FFBF9D"/>
<path d="M114.988 61.8263C114.991 61.9904 114.929 62.1491 114.816 62.2681C114.703 62.3871 114.547 62.4569 114.383 62.4624C114.303 62.4688 114.222 62.4592 114.146 62.434C114.069 62.4088 113.999 62.3686 113.938 62.3157C113.877 62.2628 113.828 62.1983 113.792 62.126C113.757 62.0537 113.736 61.975 113.731 61.8946C113.73 61.7308 113.792 61.5729 113.905 61.4542C114.018 61.3355 114.172 61.2653 114.336 61.2585C114.417 61.2513 114.498 61.2604 114.574 61.2854C114.651 61.3103 114.722 61.3505 114.783 61.4035C114.844 61.4565 114.893 61.5213 114.929 61.594C114.964 61.6666 114.984 61.7456 114.988 61.8263Z" fill="#263238"/>
<path d="M115.124 61.1168C115.05 61.2009 114.572 60.8434 113.894 60.8487C113.215 60.8539 112.716 61.1904 112.642 61.1063C112.569 61.0222 112.684 60.9223 112.9 60.7646C113.195 60.5608 113.545 60.4525 113.904 60.4544C114.257 60.4528 114.601 60.5632 114.887 60.7698C115.092 60.9328 115.166 61.08 115.124 61.1168Z" fill="#263238"/>
<path d="M108.343 61.984C108.346 62.1482 108.285 62.3069 108.171 62.4259C108.058 62.5449 107.903 62.6147 107.739 62.6202C107.659 62.6266 107.578 62.6169 107.501 62.5917C107.425 62.5665 107.354 62.5263 107.293 62.4734C107.233 62.4205 107.183 62.356 107.148 62.2837C107.112 62.2114 107.092 62.1328 107.087 62.0524C107.085 61.8877 107.148 61.729 107.262 61.6102C107.376 61.4913 107.532 61.4217 107.697 61.4162C107.777 61.4098 107.857 61.4195 107.933 61.4448C108.01 61.47 108.08 61.5103 108.14 61.5633C108.201 61.6162 108.25 61.6808 108.285 61.753C108.319 61.8253 108.339 61.9039 108.343 61.984Z" fill="#263238"/>
<path d="M108.458 61.243C108.379 61.3271 107.901 60.9696 107.223 60.9749C106.544 60.9802 106.045 61.3166 105.971 61.2325C105.898 61.1484 106.013 61.0485 106.234 60.8908C106.527 60.6868 106.876 60.5784 107.233 60.5806C107.586 60.579 107.93 60.6895 108.216 60.896C108.427 61.059 108.495 61.2062 108.458 61.243Z" fill="#263238"/>
<path d="M110.919 66.274C111.278 66.1642 111.649 66.0972 112.023 66.0742C112.197 66.0742 112.36 66.0216 112.391 65.906C112.403 65.7233 112.363 65.5411 112.276 65.3802L111.75 64.0606C111.277 62.9428 110.892 61.7896 110.599 60.6118C111.164 61.6875 111.64 62.8075 112.023 63.9607L112.518 65.2909C112.626 65.4995 112.657 65.7395 112.607 65.9691C112.582 66.0298 112.543 66.084 112.494 66.1277C112.445 66.1714 112.386 66.2035 112.323 66.2214C112.227 66.2493 112.128 66.2635 112.029 66.2635C111.661 66.3159 111.288 66.3195 110.919 66.274Z" fill="#263238"/>
<path d="M108.922 66.7683C109.032 66.7683 109.037 67.4991 109.668 68.0248C110.299 68.5506 111.082 68.4664 111.088 68.5506C111.093 68.6347 110.909 68.6978 110.562 68.703C110.132 68.7101 109.713 68.5649 109.379 68.2929C109.059 68.0294 108.852 67.6531 108.801 67.2415C108.79 66.9208 108.874 66.7683 108.922 66.7683Z" fill="#263238"/>
<path d="M108.632 58.5825C108.564 58.7665 107.891 58.6824 107.091 58.7771C106.292 58.8717 105.651 59.0925 105.546 58.9243C105.499 58.8454 105.609 58.6719 105.872 58.4932C106.216 58.2704 106.609 58.1334 107.018 58.0936C107.425 58.0426 107.838 58.0913 108.222 58.2356C108.516 58.3565 108.663 58.4984 108.632 58.5825Z" fill="#263238"/>
<path d="M114.878 59.1506C114.757 59.3084 114.289 59.1506 113.726 59.1506C113.164 59.1506 112.675 59.2558 112.58 59.0928C112.533 59.014 112.606 58.8615 112.817 58.7143C113.096 58.5392 113.421 58.4512 113.751 58.4615C114.08 58.4718 114.399 58.5799 114.667 58.7721C114.867 58.9193 114.93 59.077 114.878 59.1506Z" fill="#263238"/>
<path d="M99.6532 57.1475C99.7111 58.4303 99.4272 59.8655 99.6532 61.1273C99.6901 61.3218 100.179 61.8318 100.232 62.021C100.489 63.1356 100.952 63.5982 101.619 62.4627C101.875 61.759 102.052 61.029 102.145 60.2861L102.95 56.2064C103.986 56.7467 105.14 57.0213 106.309 57.0055C106.891 56.989 107.459 56.8249 107.96 56.5289C108.461 56.2328 108.879 55.8143 109.174 55.3127C109.451 55.7711 109.827 56.1613 110.275 56.4544C110.723 56.7475 111.232 56.9359 111.762 57.0056C112.293 57.0753 112.833 57.0245 113.341 56.857C113.85 56.6896 114.314 56.4097 114.7 56.0382C114.916 56.3407 115.238 56.5511 115.602 56.628C115.966 56.7049 116.346 56.6426 116.666 56.4535C116.976 56.2466 117.212 55.9471 117.342 55.5977C117.471 55.2484 117.487 54.8671 117.386 54.5083C117.081 53.4305 115.925 52.847 114.852 52.5315C110.646 51.296 106.009 52.2634 102.235 54.4767C101.672 54.7825 101.158 55.1705 100.71 55.6281C100.279 56.096 99.6848 56.6796 99.6585 57.2894" fill="#263238"/>
<path d="M109.653 64.4023C109.653 64.4023 109.81 64.213 110.021 63.8398C110.313 63.3116 110.424 62.7021 110.336 62.1048C110.267 61.6218 110.064 61.1676 109.751 60.7931C109.438 60.4186 109.027 60.1386 108.564 59.9844C108.101 59.8303 107.605 59.8081 107.13 59.9203C106.655 60.0325 106.22 60.2747 105.875 60.6198C105.53 60.9648 105.288 61.3992 105.176 61.8741C105.064 62.349 105.086 62.8458 105.24 63.3089C105.394 63.7719 105.674 64.1829 106.049 64.4958C106.423 64.8087 106.877 65.0111 107.36 65.0805C107.957 65.1695 108.566 65.0605 109.095 64.7703C109.469 64.56 109.621 64.3813 109.653 64.4023C109.684 64.4233 109.621 64.4549 109.542 64.539C109.423 64.6606 109.291 64.7682 109.148 64.8597C108.611 65.2068 107.969 65.3538 107.334 65.275C106.803 65.2089 106.3 64.9949 105.885 64.6574C105.469 64.3199 105.156 63.8724 104.982 63.3659C104.808 62.8594 104.78 62.3142 104.901 61.7924C105.021 61.2707 105.286 60.7933 105.665 60.4146C106.044 60.0359 106.521 59.7711 107.043 59.6505C107.564 59.5298 108.11 59.558 108.616 59.732C109.123 59.9059 109.57 60.2186 109.908 60.6344C110.245 61.0502 110.459 61.5524 110.525 62.0838C110.605 62.7161 110.46 63.3564 110.115 63.8923C110.025 64.0381 109.917 64.1723 109.794 64.2919C109.71 64.369 109.663 64.4058 109.653 64.4023Z" fill="#455A64"/>
<path d="M116.63 64.4025C116.63 64.4025 116.787 64.2132 116.998 63.8399C117.288 63.3111 117.397 62.7017 117.308 62.105C117.238 61.622 117.036 61.1677 116.723 60.7933C116.41 60.4188 115.999 60.1388 115.536 59.9846C115.073 59.8305 114.576 59.8082 114.101 59.9204C113.626 60.0327 113.192 60.2749 112.847 60.6199C112.502 60.965 112.26 61.3993 112.148 61.8743C112.035 62.3492 112.058 62.846 112.212 63.309C112.366 63.7721 112.646 64.183 113.02 64.4959C113.395 64.8088 113.849 65.0113 114.332 65.0807C114.929 65.1697 115.538 65.0607 116.067 64.7705C116.44 64.5602 116.593 64.3814 116.63 64.4025C116.666 64.4235 116.598 64.455 116.519 64.5392C116.4 64.662 116.265 64.7696 116.12 64.8599C115.584 65.2062 114.944 65.3532 114.311 65.2752C113.779 65.21 113.276 64.9968 112.86 64.6598C112.443 64.3228 112.13 63.8755 111.955 63.369C111.78 62.8625 111.752 62.3171 111.872 61.795C111.992 61.2728 112.256 60.7949 112.635 60.4158C113.013 60.0366 113.491 59.7714 114.013 59.6503C114.535 59.5293 115.08 59.5573 115.587 59.7312C116.094 59.9051 116.542 60.2178 116.879 60.6338C117.217 61.0498 117.431 61.5523 117.497 62.084C117.577 62.7163 117.432 63.3566 117.087 63.8925C116.997 64.0383 116.889 64.1725 116.766 64.2921C116.693 64.3709 116.63 64.4077 116.63 64.4025Z" fill="#455A64"/>
<path d="M112.009 62.2468C112.009 62.3257 111.662 62.3835 111.231 62.3835C110.8 62.3835 110.447 62.3257 110.447 62.2468C110.447 62.1679 110.8 62.1101 111.231 62.1101C111.662 62.1101 112.009 62.1732 112.009 62.2468Z" fill="#455A64"/>
<path d="M100.227 62.0365C101.016 61.871 101.822 61.7969 102.629 61.8157C103.433 61.7462 104.243 61.7655 105.042 61.8736C104.253 62.0387 103.446 62.111 102.64 62.0891C101.836 62.1619 101.026 62.1442 100.227 62.0365Z" fill="#455A64"/>
<path d="M102.76 61.1903L98.9848 59.8286L95.4098 61.0693L90.4626 66.2426L87.2451 69.3129L92.5025 71.6471L95.2836 70.5378L99.7156 67.5201L102.223 62.7885C102.223 62.7885 101.508 62.452 100.704 63.5824L99.9521 64.5865L99.2371 61.8527V61.0431L101.456 61.7213C101.679 61.7937 101.918 61.7974 102.143 61.7317C102.368 61.6661 102.568 61.5342 102.717 61.3532L102.76 61.1903Z" fill="#FFBF9D"/>
<path d="M95.6771 65.1909C95.7086 65.1909 95.8611 65.3907 96.003 65.7903C96.1829 66.3145 96.2573 66.869 96.2221 67.4221C96.187 67.9752 96.0428 68.5158 95.798 69.013C95.6035 69.3915 95.4247 69.5861 95.3984 69.565C95.6618 68.8691 95.8384 68.1434 95.9242 67.4043C95.9354 66.659 95.8524 65.9153 95.6771 65.1909Z" fill="#FFBF9D"/>
<path d="M95.7156 65.2436C96.1611 65.0901 96.6207 64.9809 97.0877 64.9176H97.1193C97.2074 64.9704 97.2767 65.0496 97.3173 65.1439C97.3578 65.2383 97.3677 65.3431 97.3453 65.4433C97.3005 65.632 97.2202 65.8104 97.1088 65.9691C97.0581 66.0366 97.0233 66.1147 97.0069 66.1975C96.9905 66.2803 96.993 66.3658 97.0141 66.4475C97.0971 66.6252 97.2259 66.7777 97.3874 66.8891H97.2244C97.6079 66.6553 97.9347 66.3393 98.1813 65.9638C98.5493 65.3803 98.1287 64.7651 97.9026 64.2026C97.8531 64.076 97.7915 63.9545 97.7186 63.8399C97.6778 63.8072 97.63 63.7845 97.5789 63.7735C97.5278 63.7626 97.4748 63.7637 97.4242 63.7768L96.6777 63.8924C96.186 63.9929 95.6863 64.0492 95.1846 64.0607C95.6595 63.8959 96.1488 63.7762 96.6461 63.7032L97.3927 63.556C97.4791 63.5338 97.5696 63.5328 97.6565 63.5529C97.7434 63.5731 97.8242 63.6138 97.8921 63.6716C97.9914 63.8012 98.0711 63.9447 98.1287 64.0975C98.2549 64.3814 98.4073 64.6547 98.523 64.9912C98.586 65.1717 98.6097 65.3636 98.5925 65.554C98.5753 65.7445 98.5175 65.929 98.4231 66.0953C98.1543 66.5076 97.7946 66.8529 97.3716 67.1047L97.2875 67.1625L97.2086 67.0942C97.0153 66.9492 96.8646 66.7549 96.7723 66.5316C96.7417 66.4168 96.7377 66.2966 96.7605 66.18C96.7832 66.0634 96.8322 65.9535 96.9037 65.8587C97.0063 65.7212 97.0829 65.5662 97.1298 65.4013C97.1483 65.3416 97.1487 65.2778 97.131 65.2179C97.1132 65.158 97.078 65.1047 97.0299 65.0648H97.0877C96.6369 65.1669 96.1775 65.2268 95.7156 65.2436Z" fill="#FFBF9D"/>
<path d="M98.5069 65.6434C98.5069 65.6434 98.57 65.7538 98.7487 65.8117C98.8088 65.8308 98.8721 65.8375 98.9348 65.8313C98.9975 65.8251 99.0583 65.8062 99.1135 65.7757C99.1686 65.7452 99.2169 65.7037 99.2554 65.6538C99.294 65.604 99.3219 65.5468 99.3376 65.4857C99.4189 65.0828 99.3396 64.664 99.1168 64.3186C98.9275 63.877 98.733 63.3512 98.5069 62.8728C98.2808 62.3944 97.6973 62.4732 97.2241 62.5258C96.7509 62.5784 96.3093 62.6362 95.9466 62.6941C95.5578 62.7845 95.1621 62.8426 94.7637 62.8676C95.1261 62.6916 95.5121 62.5694 95.9098 62.5048C96.2725 62.4207 96.7089 62.3366 97.1978 62.2735C97.46 62.2292 97.7263 62.2151 97.9917 62.2314C98.1519 62.2461 98.3055 62.3024 98.4373 62.3945C98.5692 62.4867 98.6747 62.6117 98.7435 62.7571C99.0011 63.2829 99.1641 63.8086 99.3533 64.2397C99.4466 64.4589 99.5205 64.6858 99.5741 64.9179C99.6247 65.1358 99.6044 65.3642 99.5163 65.5698C99.4832 65.6596 99.4307 65.7411 99.3625 65.8083C99.2944 65.8756 99.2123 65.927 99.122 65.9589C99.0543 65.9822 98.9825 65.9914 98.9111 65.986C98.8397 65.9806 98.7701 65.9606 98.7067 65.9273C98.4964 65.8012 98.4964 65.6382 98.5069 65.6434Z" fill="#FFBF9D"/>
<path d="M99.973 64.5812C99.8089 64.2618 99.6869 63.9225 99.6102 63.5718C99.5103 63.2248 99.3999 62.8515 99.2895 62.4625C99.2264 62.2574 99.1686 62.0209 99.1055 61.8158C99.0716 61.7176 99.0169 61.6278 98.9453 61.5525C98.8736 61.4772 98.7866 61.4182 98.6902 61.3795C98.2562 61.2905 97.8055 61.3345 97.3969 61.5056L96.2771 61.8053C95.9364 61.917 95.5832 61.9859 95.2256 62.0103C95.5403 61.8368 95.876 61.7042 96.2245 61.616L97.3233 61.2638C97.7855 61.0573 98.303 61.0092 98.7953 61.1271C98.9266 61.1808 99.0448 61.2621 99.1419 61.3655C99.2389 61.4689 99.3126 61.592 99.3579 61.7264C99.4315 61.9735 99.4735 62.1838 99.5314 62.3994L99.7995 63.5245C99.9033 63.8676 99.9616 64.2229 99.973 64.5812Z" fill="#FFBF9D"/>
<path d="M90.4629 66.2427C90.4858 66.2069 90.5122 66.1734 90.5418 66.1428C90.6154 66.0692 90.6942 65.9746 90.7941 65.8641L91.7772 64.8127L95.3627 61.0221L98.9377 59.7656H98.964L102.744 61.122H102.797V61.3691C102.642 61.5603 102.433 61.6998 102.197 61.7687C101.953 61.824 101.7 61.824 101.456 61.7687L99.9051 61.2955L99.2427 61.0905L99.3478 61.0169C99.3478 61.285 99.3478 61.5426 99.3478 61.8265V61.8002C99.5897 62.736 99.8315 63.6508 100.063 64.534H99.9209C100.247 64.1029 100.546 63.6823 100.878 63.2723C101.031 63.0503 101.247 62.8788 101.498 62.7796C101.748 62.6803 102.023 62.6579 102.287 62.715H102.36L102.318 62.7939L99.7999 67.5255L96.5404 69.7125L95.5993 70.3382C95.3943 70.4748 95.2839 70.5379 95.2839 70.5379C95.2839 70.5379 95.3838 70.4538 95.5783 70.3119L96.4563 69.702L99.6843 67.4729L102.176 62.7413L102.213 62.8464C102.104 62.8128 101.989 62.8011 101.876 62.8119C101.762 62.8228 101.651 62.8559 101.551 62.9095C101.334 63.0248 101.142 63.18 100.983 63.3669C100.673 63.756 100.362 64.1976 100.042 64.6234L99.9419 64.7548L99.8998 64.5971C99.6633 63.7086 99.4267 62.7991 99.1796 61.8633C99.1796 61.5952 99.1796 61.3376 99.1796 61.0537V60.9433L99.2847 60.9748L99.9472 61.1799L101.498 61.653C101.718 61.7029 101.946 61.7029 102.166 61.653C102.372 61.5938 102.556 61.4727 102.691 61.306V61.3586V61.2009L102.744 61.2745L98.9693 59.9076H99.0219L95.4416 61.1431L91.814 64.8915L90.8099 65.943L90.5418 66.2111C90.5165 66.2241 90.4901 66.2346 90.4629 66.2427Z" fill="#FFBF9D"/>
<path d="M91.9981 99.5215L91.751 81.3573L96.4826 79.7801C97.9704 79.4962 99.4162 78.9547 101.167 78.8811C102.764 80.1443 104.735 80.8432 106.771 80.8689C108.807 80.8946 110.794 80.2455 112.423 79.0231L112.581 78.9021C113.033 78.9547 113.632 79.0125 114.384 79.1019H114.531C116.401 79.3364 118.181 80.0459 119.699 81.1628L143.21 95.1999L157.016 84.6852L164.008 90.1686C164.008 90.1686 145.923 108.254 144.167 108.685C142.952 108.985 130.887 102.376 123.574 98.3175C123.873 102.697 125.508 127.038 125.43 130.387H91.8351L91.8088 115.036V110.856L91.9981 99.5215Z" fill="#0B622F"/>
<path d="M123.122 87.9343C123.082 88.2023 123.074 88.474 123.096 88.744C123.096 89.3275 123.138 90.0636 123.159 90.931C123.227 92.7816 123.348 95.3314 123.501 98.1494C123.653 100.967 123.806 103.517 123.937 105.362C124.006 106.23 124.063 106.94 124.105 107.544C124.117 107.815 124.154 108.085 124.216 108.349C124.256 108.082 124.264 107.812 124.242 107.544C124.242 106.955 124.2 106.225 124.174 105.352C124.105 103.501 123.99 100.952 123.837 98.1336C123.685 95.3156 123.532 92.7606 123.401 90.9152C123.333 90.0478 123.275 89.338 123.227 88.7334C123.219 88.4642 123.184 88.1966 123.122 87.9343Z" fill="#263238"/>
<path d="M153.319 87.6924C153.24 87.7765 154.76 89.2118 156.7 90.9046C158.64 92.5975 160.259 93.9118 160.322 93.8382C160.385 93.7646 158.861 92.3451 156.921 90.647C155.953 89.8006 155.065 89.0698 154.413 88.5125C154.075 88.2056 153.709 87.931 153.319 87.6924Z" fill="#263238"/>
<path d="M151.716 88.8914C151.653 88.965 153.193 90.4055 155.138 92.1299C156.111 92.9921 157.005 93.7544 157.662 94.2959C157.998 94.6155 158.373 94.8927 158.776 95.1213C158.502 94.7489 158.182 94.4116 157.825 94.1172C157.204 93.5283 156.337 92.7345 155.359 91.8723C154.381 91.0101 153.493 90.2478 152.83 89.7115C152.495 89.3922 152.12 89.1167 151.716 88.8914Z" fill="#263238"/>
<path d="M88.307 66.3005C88.307 66.3005 74.8692 78.8603 70.6265 84.0073C68.7076 86.3258 68.2713 89.7904 69.8169 92.3665C70.4206 93.3801 71.2934 94.2066 72.3384 94.7542C73.3834 95.3017 74.5597 95.5489 75.7367 95.4683L91.9188 94.3853L93.1438 80.9212L83.3598 83.9757L94.7578 72.0573L88.307 66.3005Z" fill="#0B622F"/>
<path d="M91.8247 105.042C91.7458 105.042 91.7248 102.15 91.7721 98.5909C91.8194 95.0317 91.9193 92.1506 91.9982 92.1506C92.077 92.1506 92.0928 95.0369 92.0455 98.5961C91.9982 102.155 91.9193 105.042 91.8247 105.042Z" fill="#263238"/>
<path d="M87.7922 79.3438C87.676 79.5326 87.5403 79.7088 87.3874 79.8695L86.1993 81.1996C85.1846 82.3194 83.7493 83.8756 82.109 85.6368L82.1406 85.579C81.9829 86.1468 81.7883 86.7303 81.5675 87.3139C81.1187 88.5825 80.5204 89.7932 79.7853 90.9204C79.1515 91.8279 78.3416 92.5985 77.4037 93.1864C76.7765 93.592 76.0767 93.8723 75.3428 94.0118C75.1453 94.0505 74.9448 94.0716 74.7435 94.0748C74.6068 94.0748 74.5332 94.0748 74.5332 94.0748C74.5332 94.0748 74.8224 94.0328 75.3218 93.9119C76.0267 93.7336 76.6955 93.4348 77.2986 93.0286C78.1939 92.4327 78.9667 91.6707 79.575 90.7837C80.2847 89.6652 80.8683 88.4715 81.3152 87.2245C81.5307 86.6462 81.72 86.0679 81.883 85.5106V85.4791C83.5285 83.7231 84.9901 82.1932 86.0415 81.105L87.2823 79.8327C87.4371 79.6546 87.6078 79.4909 87.7922 79.3438Z" fill="#263238"/>
<path d="M81.3256 87.6453C81.565 88.4687 81.6348 89.3322 81.5309 90.1834C81.427 91.0347 81.1514 91.856 80.721 92.5977C80.6421 92.5661 81.0995 91.5462 81.2467 90.1478C81.3939 88.7493 81.2415 87.6558 81.3256 87.6453Z" fill="#263238"/>
<path d="M96.6977 130.051C96.6695 130.019 96.6448 129.984 96.6241 129.946L96.419 129.62L95.662 128.358C95.2524 127.695 94.8786 127.011 94.5422 126.308C94.0661 125.365 93.9005 124.296 94.069 123.253C94.2846 122.097 94.9733 121.003 95.478 119.778C95.7419 119.149 95.8898 118.478 95.9143 117.796C95.9263 117.07 95.8504 116.344 95.6883 115.636C95.3833 114.169 94.8103 112.66 94.6631 110.993C94.5489 109.282 94.7014 107.563 95.1152 105.899C95.499 104.19 95.9722 102.55 96.3086 100.946C96.4711 100.161 96.5939 99.368 96.6766 98.5702C96.6766 98.1811 96.7292 97.7921 96.745 97.4083C96.7608 97.0245 96.745 96.6407 96.745 96.2675C96.5525 93.6033 96.1107 90.9631 95.4254 88.3814C94.8997 86.1576 94.5264 84.3385 94.3739 83.0663C94.2846 82.4301 94.2372 81.9359 94.2162 81.5995C94.2162 81.447 94.2162 81.3208 94.2162 81.2157C94.2107 81.172 94.2107 81.1279 94.2162 81.0842C94.2162 81.0842 94.2162 81.1315 94.2425 81.2157C94.2688 81.2998 94.274 81.4417 94.2951 81.5942C94.3266 81.9307 94.395 82.4196 94.5001 83.0505C94.6999 84.3122 95.0994 86.1155 95.6515 88.3341C96.3686 90.9239 96.8317 93.5774 97.0341 96.2569C97.0341 96.6355 97.0341 97.0245 97.0341 97.4136C97.0341 97.8026 96.9973 98.1969 96.9763 98.5965C96.8975 99.3903 96.7713 100.174 96.6083 101.004C96.2718 102.624 95.7987 104.259 95.4201 105.957C95.0128 107.594 94.8603 109.284 94.968 110.967C95.1047 112.592 95.6672 114.09 95.9722 115.583C96.1368 116.312 96.2092 117.059 96.1877 117.807C96.1607 118.515 96.0039 119.211 95.7251 119.862C95.1993 121.114 94.5106 122.181 94.3003 123.29C94.1248 124.295 94.2721 125.329 94.7209 126.245C95.0359 126.949 95.3868 127.637 95.7724 128.306L96.4821 129.594L96.6609 129.93C96.6872 130.009 96.7029 130.051 96.6977 130.051Z" fill="#FAFAFA"/>
<path d="M104.011 80.916C104.029 80.9564 104.041 80.9988 104.048 81.0422L104.132 81.4155C104.2 81.7414 104.29 82.2251 104.395 82.856C104.676 84.6319 104.829 86.4258 104.852 88.2237C104.89 90.8916 104.659 93.5564 104.163 96.1781C103.638 99.138 102.765 102.34 102.481 105.783C102.197 109.227 102.723 112.518 103.133 115.488C103.567 118.118 103.832 120.774 103.927 123.437C103.973 125.239 103.761 127.038 103.296 128.779L103.18 129.215L103.049 129.589L102.828 130.172L102.691 130.524C102.66 130.603 102.639 130.645 102.639 130.645C102.633 130.602 102.633 130.557 102.639 130.514L102.755 130.151L102.944 129.562C102.981 129.447 103.023 129.326 103.065 129.189C103.107 129.052 103.128 128.905 103.165 128.753C103.582 127.013 103.758 125.225 103.69 123.437C103.565 120.794 103.278 118.16 102.833 115.551C102.413 112.581 101.903 109.279 102.16 105.789C102.418 102.298 103.328 99.1064 103.869 96.1623C104.375 93.5555 104.623 90.9054 104.61 88.25C104.6 86.4601 104.477 84.6725 104.242 82.898C104.158 82.2671 104.085 81.7782 104.027 81.4523C104.027 81.2998 103.985 81.1736 103.974 81.0737C103.973 81.0189 103.985 80.9645 104.011 80.916Z" fill="#FAFAFA"/>
<path d="M116.361 130.072L116.287 129.962L116.093 129.625C115.984 129.442 115.894 129.248 115.824 129.047C115.782 128.931 115.725 128.805 115.682 128.663C115.64 128.521 115.609 128.374 115.567 128.216C115.398 127.438 115.341 126.64 115.399 125.845C115.479 124.797 115.617 123.755 115.814 122.722C116.058 121.484 116.214 120.229 116.282 118.969C116.304 117.532 116.053 116.105 115.541 114.763C114.946 113.262 114.458 111.721 114.079 110.152C113.813 108.426 113.847 106.667 114.179 104.953C114.452 103.191 114.81 101.498 114.91 99.8371C114.98 98.2401 114.854 96.6405 114.536 95.074C113.948 92.0668 113.133 89.4013 112.854 87.0723C112.569 85.2446 112.626 83.3799 113.022 81.5731C113.167 80.9105 113.401 80.2703 113.716 79.6699C113.709 79.7156 113.695 79.76 113.674 79.8014L113.537 80.1641C113.369 80.631 113.232 81.1088 113.127 81.5941C112.772 83.3917 112.745 85.2389 113.049 87.046C113.343 89.3487 114.179 91.9984 114.783 95.0266C115.115 96.6128 115.247 98.234 115.178 99.8529C115.083 101.54 114.72 103.249 114.447 104.995C114.122 106.678 114.086 108.404 114.342 110.099C114.714 111.657 115.194 113.187 115.777 114.679C116.026 115.393 116.223 116.123 116.366 116.866C116.493 117.57 116.541 118.286 116.508 119C116.426 120.273 116.25 121.538 115.982 122.785C115.775 123.807 115.625 124.839 115.53 125.877C115.462 126.66 115.503 127.449 115.651 128.222C115.812 128.865 116.05 129.486 116.361 130.072Z" fill="#FAFAFA"/>
<path d="M120.803 82.8347C120.821 82.8737 120.835 82.9141 120.846 82.9556L120.945 83.3079C121.04 83.6181 121.14 84.0807 121.256 84.6853C121.523 86.3996 121.591 88.139 121.461 89.8691C121.334 92.0561 120.909 94.6375 120.514 97.4975C120.106 100.602 119.911 103.73 119.931 106.861C120.054 112.552 120.559 118.229 121.445 123.853C121.766 125.998 122.028 127.743 122.212 128.978C122.302 129.562 122.365 130.03 122.417 130.372C122.417 130.519 122.449 130.635 122.465 130.734C122.469 130.776 122.469 130.819 122.465 130.861C122.448 130.822 122.435 130.781 122.428 130.74C122.428 130.64 122.386 130.524 122.36 130.377C122.297 130.04 122.212 129.578 122.102 128.994C121.892 127.79 121.576 126.045 121.25 123.884C120.314 118.255 119.787 112.566 119.673 106.861C119.654 103.717 119.858 100.576 120.283 97.4607C120.693 94.5954 121.129 92.0298 121.282 89.8533C121.431 88.1368 121.393 86.4091 121.166 84.7011C121.072 84.1017 120.987 83.6496 120.909 83.3184L120.835 82.9609C120.817 82.921 120.807 82.8783 120.803 82.8347Z" fill="#FAFAFA"/>
<path d="M128.9 101.63C128.85 101.459 128.823 101.282 128.821 101.104C128.789 100.757 128.752 100.252 128.721 99.6267C128.652 98.3807 128.595 96.6563 128.589 94.7478C128.584 92.8394 128.621 91.115 128.679 89.869C128.71 89.2434 128.737 88.7387 128.768 88.3917C128.771 88.2144 128.794 88.0381 128.836 87.866C128.872 88.0388 128.884 88.2156 128.873 88.3917V89.869C128.873 91.1834 128.873 92.8762 128.873 94.7426C128.873 96.6089 128.91 98.3018 128.926 99.6161C128.926 100.189 128.926 100.668 128.926 101.093C128.937 101.273 128.928 101.453 128.9 101.63Z" fill="#FAFAFA"/>
<path d="M133.977 89.7903C133.908 89.9552 133.827 90.1151 133.736 90.2687C133.526 90.7009 133.422 91.1764 133.431 91.6566C133.431 92.2612 133.557 92.9973 133.641 93.8069C133.725 94.6165 133.92 95.4998 134.041 96.4356C134.157 97.3264 134.174 98.2274 134.093 99.1221C134.037 99.8612 133.86 100.586 133.567 101.267C133.367 101.72 133.107 102.144 132.795 102.529C132.574 102.802 132.432 102.934 132.416 102.923C132.787 102.374 133.113 101.796 133.389 101.193C133.885 99.6678 134.011 98.0459 133.757 96.4619C133.641 95.5313 133.467 94.6428 133.378 93.8332C133.286 93.1076 133.236 92.3774 133.226 91.6461C133.234 91.1407 133.373 90.6462 133.63 90.2109C133.718 90.0499 133.836 89.9072 133.977 89.7903Z" fill="#FAFAFA"/>
<path d="M77.3457 94.5954C77.5801 94.5754 77.8158 94.5754 78.0502 94.5954C78.6806 94.6157 79.3111 94.5575 79.9271 94.4219C80.8209 94.1608 81.6134 93.6324 82.1982 92.9078C82.8975 92.114 83.5967 91.1624 84.3695 90.2055C85.9047 88.2708 87.3031 86.5254 88.3283 85.2847L89.548 83.8126C89.6897 83.6219 89.8499 83.4458 90.0264 83.2869C89.9148 83.4924 89.7827 83.6862 89.6321 83.8652L88.4808 85.3951C87.4924 86.6726 86.1202 88.4338 84.5851 90.3633C83.807 91.3254 83.113 92.2612 82.3875 93.0655C81.7633 93.8168 80.9194 94.3537 79.9744 94.6007C79.3393 94.7263 78.6889 94.7564 78.0449 94.6901C77.809 94.6854 77.5744 94.6537 77.3457 94.5954Z" fill="#FAFAFA"/>
<path d="M90.6995 69.4443C90.6662 69.5511 90.624 69.6548 90.5733 69.7545C90.4446 70.0462 90.2934 70.3274 90.1212 70.5957C89.4961 71.5967 88.707 72.4854 87.7869 73.2244C86.6566 74.1865 85.1583 75.1538 83.6073 76.2999C82.0564 77.446 80.3741 78.8497 79.3647 80.8475C78.9075 81.8498 78.3914 82.8241 77.819 83.7654C77.2158 84.6113 76.4598 85.3371 75.5899 85.9051C74.7802 86.4676 73.9811 86.9566 73.2819 87.435C72.6219 87.8751 72.0272 88.4061 71.5154 89.0122C71.1396 89.4459 70.8585 89.9533 70.6901 90.5019C70.5218 91.0505 70.4698 91.6283 70.5376 92.1981C70.6109 92.6154 70.7587 93.0161 70.9739 93.381C70.9739 93.381 70.9739 93.381 70.9161 93.318C70.8585 93.2561 70.809 93.1872 70.7689 93.1129C70.6053 92.837 70.4914 92.5345 70.4324 92.2192C70.343 91.6302 70.3797 91.029 70.5401 90.4552C70.7006 89.8815 70.981 89.3484 71.363 88.8913C71.8766 88.2581 72.4786 87.7022 73.1505 87.2405C73.855 86.7147 74.6541 86.2468 75.4427 85.6895C76.2849 85.1277 77.0157 84.4147 77.5982 83.5866C78.1633 82.6548 78.6707 81.6891 79.1176 80.6951C80.169 78.6394 81.8829 77.1989 83.4601 76.0686C85.0373 74.9383 86.5304 73.9657 87.666 73.0509C88.5819 72.3408 89.3803 71.491 90.0318 70.5326C90.2137 70.2746 90.3771 70.0041 90.5208 69.723C90.5692 69.6234 90.6292 69.5299 90.6995 69.4443Z" fill="#FAFAFA"/>
<g opacity="0.3">
<path d="M74.8057 93.9803C75.9008 93.997 76.9883 93.7964 78.0055 93.3901C79.0226 92.9839 79.949 92.38 80.7313 91.6134C81.5135 90.8468 82.136 89.9327 82.5627 88.924C82.9895 87.9153 83.212 86.832 83.2174 85.7368C83.2174 85.4582 83.1701 85.1269 82.923 85.0008C82.8041 84.9584 82.6743 84.9577 82.5549 84.9988C82.4355 85.0399 82.3336 85.1203 82.2658 85.2268C82.1366 85.4435 82.0559 85.6857 82.0293 85.9366C81.6694 87.7309 80.889 89.4142 79.752 90.8481C78.6151 92.2821 77.1541 93.4259 75.4891 94.1854" fill="black"/>
</g>
<g opacity="0.3">
<path d="M139.435 93.5809C139.083 93.8621 138.802 94.2223 138.615 94.6323C137.474 96.4304 135.218 97.1559 133.709 98.6542C132.558 99.8056 131.638 101.167 131.633 102.797L134.099 103.917L140.512 93.9279C140.455 93.4705 139.819 93.3285 139.435 93.5809Z" fill="black"/>
</g>
<path d="M24.0993 217.896C24.0993 217.896 15.4562 219.757 19.9408 230.272C24.4253 240.787 21.744 243.652 18.6475 244.393L42.3581 244.241L44.461 217.802L24.0993 217.896Z" fill="#E0E0E0"/>
<path d="M41.3437 244.383C39.6618 244.393 38.0352 243.783 36.7751 242.669C34.8246 240.955 32.4167 237.748 31.9383 232.186C30.9342 220.414 24.0996 217.901 24.0996 217.901L44.4508 217.812C44.4508 217.812 51.0593 217.812 51.5955 228.258C52.1581 239.209 67.3413 245.497 76.7152 244.272L41.3437 244.383Z" fill="#F5F5F5"/>
<path d="M71.635 199.706C71.635 199.706 60.9731 198.428 59.7902 222.044C58.6073 245.66 40.748 244.377 40.748 244.377H76.3508C76.3508 244.377 83.7584 242.732 82.034 226.066C81.3138 219.074 93.8578 199.722 93.8578 199.722L71.635 199.706Z" fill="#EBEBEB"/>
<path d="M65.6966 202.376C64.561 203.738 65.0236 205.92 66.0173 207.392C67.0109 208.864 68.5618 209.858 70.139 210.678C71.7162 211.498 73.3671 212.192 74.7813 213.27C76.9683 214.941 78.4246 217.423 79.3079 220.03C80.1097 222.666 80.6486 225.375 80.9166 228.116C80.9166 228.116 79.7495 208.522 76.3059 203.086C72.8623 197.65 67.8731 199.779 65.6966 202.376Z" fill="#E0E0E0"/>
<path d="M93.1373 244.377C93.1373 244.377 82.6226 244.903 81.1611 232.701C79.6995 220.498 78.4746 200.436 71.6348 199.706H93.1899C94.6712 199.702 96.1191 200.146 97.3441 200.979C98.5691 201.812 99.5142 202.995 100.056 204.374C100.992 206.782 101.943 210.341 102.532 215.525C103.778 226.476 109.982 244.514 125.523 244.356L93.1373 244.377Z" fill="#F5F5F5"/>
<path d="M100.215 234.325C100.215 234.399 97.0604 234.462 93.1963 234.462C89.3321 234.462 86.1777 234.399 86.1777 234.325C86.1777 234.252 89.3321 234.188 93.1963 234.188C97.0604 234.188 100.215 234.246 100.215 234.325Z" fill="#263238"/>
<path d="M103.796 235.172C103.719 234.486 103.68 233.796 103.68 233.106L103.796 233.221H101.73L101.866 233.085V233.61C101.866 233.794 101.866 233.968 101.866 234.136C101.866 234.473 101.866 234.799 101.866 235.109L101.746 234.993C102.436 234.993 103.126 235.032 103.812 235.109C103.127 235.2 102.436 235.241 101.746 235.23H101.63V235.109C101.63 234.799 101.63 234.473 101.63 234.136C101.63 233.957 101.63 233.784 101.63 233.61V233.085L101.767 232.948H103.833H103.954V233.064C103.954 233.769 103.902 234.474 103.796 235.172Z" fill="#263238"/>
<path d="M103.437 238.852C103.437 238.931 100.283 238.988 96.4238 238.988C92.5649 238.988 89.4053 238.931 89.4053 238.852C89.4053 238.773 92.5597 238.715 96.4238 238.715C100.288 238.715 103.437 238.778 103.437 238.852Z" fill="#263238"/>
<path d="M107.023 239.703C106.943 239.018 106.903 238.328 106.902 237.637L107.023 237.753H104.957L105.094 237.616V238.699C105.094 239.05 105.094 239.376 105.094 239.677L104.978 239.556C105.669 239.557 106.358 239.597 107.044 239.677C106.359 239.764 105.669 239.803 104.978 239.793H104.857V239.672C104.857 239.363 104.857 239.037 104.857 238.694V237.632C104.731 237.753 105.02 237.464 104.994 237.495H107.06H107.165V237.632C107.167 238.325 107.119 239.017 107.023 239.703Z" fill="#263238"/>
<path d="M97.5075 222.912C97.5075 222.985 94.353 223.048 90.4941 223.048C86.6352 223.048 83.4756 222.985 83.4756 222.912C83.4756 222.838 86.63 222.775 90.4941 222.775C94.3583 222.775 97.5075 222.838 97.5075 222.912Z" fill="#263238"/>
<path d="M101.092 223.764C101.012 223.078 100.971 222.388 100.971 221.697L101.092 221.818H99.0261L99.1628 221.682V222.733C99.1628 223.07 99.1628 223.395 99.1628 223.706L99.0471 223.59C99.7374 223.59 100.427 223.629 101.113 223.706C100.428 223.797 99.7378 223.837 99.0471 223.827H98.9262V223.706C98.9262 223.395 98.9262 223.07 98.9262 222.733V221.682C98.8053 221.803 99.0944 221.513 99.0681 221.545H101.134H101.255V221.661C101.252 222.365 101.197 223.067 101.092 223.764Z" fill="#263238"/>
<path d="M96.7393 216.96C96.7393 217.034 93.5849 217.097 89.7207 217.097C85.8566 217.097 82.7021 217.034 82.7021 216.96C82.7021 216.887 85.8566 216.823 89.7207 216.823C93.5849 216.823 96.7393 216.887 96.7393 216.96Z" fill="#263238"/>
<path d="M100.331 217.812C100.255 217.124 100.216 216.433 100.216 215.74L100.331 215.861H98.2654L98.402 215.725V216.25C98.402 216.434 98.402 216.613 98.402 216.776C98.402 217.118 98.402 217.439 98.402 217.754L98.2811 217.633C98.9716 217.633 99.6615 217.674 100.347 217.754C99.6618 217.838 98.9716 217.877 98.2811 217.87H98.1655V217.749C98.1655 217.433 98.1655 217.113 98.1655 216.771C98.1655 216.597 98.1655 216.419 98.1655 216.245V215.719C98.0445 215.846 98.3337 215.556 98.3022 215.583H100.368H100.489V215.698C100.49 216.406 100.437 217.112 100.331 217.812Z" fill="#263238"/>
<path d="M95.7197 211.508C95.7197 211.582 92.5653 211.645 88.7012 211.645C84.837 211.645 81.6826 211.582 81.6826 211.508C81.6826 211.435 84.837 211.372 88.7012 211.372C92.5653 211.372 95.7197 211.429 95.7197 211.508Z" fill="#263238"/>
<path d="M99.2798 212.355C99.2023 211.669 99.1619 210.979 99.1588 210.289L99.2798 210.41H97.2136L97.3503 210.273V210.799C97.3503 210.983 97.3503 211.161 97.3503 211.324C97.3503 211.661 97.3503 211.987 97.3503 212.297L97.2347 212.181C97.925 212.181 98.6148 212.22 99.3008 212.297C98.616 212.388 97.9254 212.428 97.2347 212.418H97.119V212.297C97.119 211.987 97.119 211.661 97.119 211.324C97.119 211.151 97.119 210.972 97.119 210.799V210.273C96.9981 210.394 97.282 210.105 97.2557 210.136H99.3218H99.4427V210.294C99.436 210.984 99.3815 211.672 99.2798 212.355Z" fill="#263238"/>
<path d="M94.2744 206.509C94.2744 206.582 91.12 206.646 87.2559 206.646C83.3917 206.646 80.2373 206.582 80.2373 206.509C80.2373 206.435 83.3917 206.367 87.2559 206.367C91.12 206.367 94.2744 206.43 94.2744 206.509Z" fill="#263238"/>
<path d="M97.8545 207.355C97.7776 206.669 97.739 205.979 97.7388 205.289L97.8545 205.405H95.7884L95.9251 205.268V205.82C95.9251 205.999 95.9251 206.178 95.9251 206.346C95.9251 206.682 95.9251 207.008 95.9251 207.318L95.8041 207.197C96.4945 207.201 97.1842 207.241 97.8703 207.318C97.1852 207.406 96.4948 207.447 95.8041 207.439H95.6885V207.318C95.6885 207.008 95.6885 206.682 95.6885 206.346C95.6885 206.167 95.6885 205.988 95.6885 205.82V205.268L95.8252 205.131H97.8913H98.0122V205.252C98.0124 205.956 97.9597 206.659 97.8545 207.355Z" fill="#263238"/>
<path d="M91.8408 202.313C91.8408 202.387 88.6864 202.45 84.8223 202.45C80.9581 202.45 77.8037 202.387 77.8037 202.313C77.8037 202.24 80.9581 202.177 84.8223 202.177C88.6864 202.177 91.8408 202.24 91.8408 202.313Z" fill="#263238"/>
<path d="M95.4199 203.16C95.3428 202.474 95.3042 201.784 95.3043 201.094L95.4199 201.214H93.3538L93.4905 201.078V201.603C93.4905 201.787 93.4905 201.966 93.4905 202.129C93.4905 202.471 93.4905 202.792 93.4905 203.102L93.3696 202.986C94.0598 202.989 94.7494 203.028 95.4357 203.102C94.7509 203.193 94.0603 203.234 93.3696 203.223H93.2539V203.097C93.2539 202.786 93.2539 202.466 93.2539 202.124C93.2539 201.95 93.2539 201.772 93.2539 201.598V201.072L93.3906 200.936H95.4567H95.5777V201.051C95.5788 201.757 95.526 202.462 95.4199 203.16Z" fill="#263238"/>
<path d="M96.7363 213.028C96.9746 212.522 97.2943 212.058 97.6827 211.655C97.8036 211.519 97.914 211.382 98.0349 211.24L98.1243 211.135L98.2189 211.224C98.7026 211.666 99.018 212.008 98.9812 212.055C98.9444 212.102 98.5554 211.834 98.0507 211.419H98.2347L97.8929 211.845C97.5738 212.299 97.1832 212.698 96.7363 213.028Z" fill="#0B622F"/>
<path d="M97.8174 218.233C98.0557 217.727 98.3754 217.263 98.7637 216.86L99.1159 216.445L99.2053 216.345L99.3 216.429C99.7836 216.871 100.099 217.213 100.062 217.26C100.025 217.307 99.6364 217.039 99.1317 216.629H99.3157L98.974 217.055C98.6539 217.507 98.2634 217.904 97.8174 218.233Z" fill="#0B622F"/>
<path d="M100.898 236.055C101.137 235.549 101.456 235.085 101.845 234.683C101.966 234.546 102.076 234.409 102.197 234.268L102.286 234.162L102.381 234.252C102.865 234.693 103.18 235.035 103.143 235.082C103.107 235.13 102.717 234.862 102.213 234.446H102.397L102.055 234.872C101.736 235.326 101.345 235.726 100.898 236.055Z" fill="#0B622F"/>
<path d="M98.5957 224.226C98.8316 223.718 99.1516 223.255 99.542 222.854L99.8943 222.438L99.9836 222.333L100.078 222.423C100.557 222.864 100.877 223.206 100.841 223.253C100.804 223.301 100.415 223.032 99.91 222.617H100.094L99.7523 223.043C99.4316 223.496 99.0413 223.895 98.5957 224.226Z" fill="#0B622F"/>
<path d="M98.8633 228.621C98.8633 228.695 95.7089 228.758 91.8447 228.758C87.9806 228.758 84.8262 228.695 84.8262 228.621C84.8262 228.547 87.9806 228.484 91.8447 228.484C95.7089 228.484 98.8633 228.542 98.8633 228.621Z" fill="#263238"/>
<path d="M102.435 229.468C102.358 228.782 102.317 228.092 102.314 227.401L102.435 227.522H100.369L100.506 227.386V227.911C100.506 228.095 100.506 228.269 100.506 228.437C100.506 228.774 100.506 229.1 100.506 229.41L100.39 229.294C101.08 229.294 101.77 229.333 102.456 229.41C101.771 229.501 101.081 229.541 100.39 229.531H100.274V229.41C100.274 229.1 100.274 228.774 100.274 228.437C100.274 228.258 100.274 228.085 100.274 227.911V227.386C100.148 227.507 100.437 227.217 100.411 227.249H102.477H102.598V227.365C102.594 228.069 102.54 228.771 102.435 229.468Z" fill="#263238"/>
<path d="M99.6523 230.172C99.8928 229.667 100.212 229.204 100.599 228.8C100.72 228.663 100.835 228.527 100.951 228.385L101.04 228.28L101.135 228.369C101.619 228.811 101.939 229.152 101.897 229.194C101.855 229.236 101.471 228.979 100.967 228.563H101.151L100.814 228.989C100.492 229.443 100.1 229.842 99.6523 230.172Z" fill="#0B622F"/>
<path d="M40.5234 237.506C40.5234 237.427 43.3729 237.37 46.8901 237.37C50.4073 237.37 53.262 237.427 53.262 237.506C53.262 237.585 50.4125 237.643 46.8901 237.643C43.3677 237.643 40.5234 237.58 40.5234 237.506Z" fill="#263238"/>
<path d="M37.2743 236.733C37.3503 237.356 37.3889 237.983 37.39 238.61L37.2743 238.494H39.1512C39.1775 238.463 38.8883 238.752 39.0092 238.631V237.632C39.0092 237.322 39.0092 237.028 39.0092 236.744L39.1301 236.865C38.5026 236.864 37.8757 236.824 37.2533 236.744C37.8749 236.656 38.5024 236.617 39.1301 236.628H39.2458V236.749C39.2458 237.033 39.2458 237.327 39.2458 237.638V238.621L39.1091 238.757H37.2322H37.1113V238.642C37.1126 238.002 37.1671 237.364 37.2743 236.733Z" fill="#263238"/>
<path d="M39.8086 236.097C39.6001 236.561 39.3118 236.984 38.9569 237.348L38.6362 237.727L38.5468 237.832L38.4522 237.743C38.0158 237.343 37.7266 237.028 37.7687 236.98C37.8108 236.933 38.1577 237.175 38.6204 237.548H38.4364L38.7413 237.159C39.2723 236.533 39.7455 236.055 39.8086 236.097Z" fill="#0B622F"/>
<path d="M37.9902 233.768C37.9902 233.689 40.845 233.631 44.3621 233.631C47.8793 233.631 50.7288 233.689 50.7288 233.768C50.7288 233.847 47.8793 233.904 44.3621 233.904C40.845 233.904 37.9902 233.841 37.9902 233.768Z" fill="#263238"/>
<path d="M34.7394 232.995C34.8154 233.618 34.8541 234.245 34.8551 234.872L34.7394 234.756H36.6163L36.4796 234.893V234.394C36.4796 234.231 36.4796 234.068 36.4796 233.91C36.4796 233.6 36.4796 233.305 36.4796 233.021L36.6005 233.142C35.973 233.142 35.3461 233.101 34.7237 233.021C35.3453 232.934 35.9728 232.895 36.6005 232.906H36.7162V233.027C36.7162 233.311 36.7162 233.605 36.7162 233.915C36.7162 234.073 36.7162 234.236 36.7162 234.399V234.898L36.5795 235.035H34.7026H34.6133V234.919C34.6015 234.276 34.6437 233.632 34.7394 232.995Z" fill="#263238"/>
<path d="M37.2735 232.375C37.0651 232.839 36.7768 233.262 36.4218 233.626L36.1011 234.005L36.0118 234.11L35.9171 234.02C35.4808 233.621 35.1969 233.305 35.2337 233.258C35.2705 233.211 35.628 233.453 36.0854 233.826H35.9014L36.1905 233.426C36.7162 232.796 37.242 232.312 37.2735 232.375Z" fill="#0B622F"/>
<path d="M37.126 229.546C37.126 229.468 39.9755 229.41 43.4926 229.41C47.0098 229.41 49.8645 229.468 49.8645 229.546C49.8645 229.625 47.015 229.683 43.4926 229.683C39.9702 229.683 37.126 229.62 37.126 229.546Z" fill="#263238"/>
<path d="M33.8778 228.773C33.9541 229.396 33.9927 230.023 33.9935 230.65L33.8778 230.535H35.7494L35.6127 230.671V229.688C35.6127 229.378 35.6127 229.084 35.6127 228.8L35.7284 228.921C35.1026 228.92 34.4775 228.879 33.8568 228.8C34.4766 228.712 35.1025 228.673 35.7284 228.684H35.8493V228.805C35.8493 229.089 35.8493 229.383 35.8493 229.693V230.676C35.9702 230.556 35.6811 230.845 35.7074 230.813H33.8358H33.7148V230.698C33.7152 230.053 33.7697 229.409 33.8778 228.773Z" fill="#263238"/>
<path d="M36.4078 228.137C36.2048 228.603 35.9179 229.027 35.5614 229.388L35.2407 229.767L35.1513 229.872L35.0566 229.783C34.6203 229.383 34.3311 229.068 34.3732 229.02C34.4153 228.973 34.7622 229.215 35.2249 229.588H35.0409L35.3458 229.199C35.8768 228.574 36.35 228.09 36.4078 228.137Z" fill="#0B622F"/>
<path d="M36.1904 225.23C36.1904 225.151 39.0399 225.088 42.5571 225.088C46.0742 225.088 48.9237 225.151 48.9237 225.23C48.9237 225.309 46.0742 225.367 42.5571 225.367C39.0399 225.367 36.1904 225.303 36.1904 225.23Z" fill="#263238"/>
<path d="M32.9419 224.457C33.0219 225.08 33.0623 225.707 33.0628 226.334L32.9419 226.213H34.8188L34.6821 226.35V225.861C34.6821 225.693 34.6821 225.535 34.6821 225.372C34.6821 225.067 34.6821 224.773 34.6821 224.489L34.803 224.61C34.1756 224.606 33.5489 224.565 32.9261 224.489C33.5478 224.401 34.1752 224.36 34.803 224.368H34.9187V224.489C34.9187 224.773 34.9187 225.067 34.9187 225.372C34.9187 225.535 34.9187 225.693 34.9187 225.861V226.35L34.782 226.487H32.9051H32.7842V226.371C32.7853 225.73 32.8381 225.09 32.9419 224.457Z" fill="#263238"/>
<path d="M35.4766 223.821C35.2692 224.285 34.9808 224.709 34.625 225.072L34.3043 225.451L34.2149 225.551L34.1202 225.467C33.6839 225.062 33.4 224.752 33.4368 224.704C33.4736 224.657 33.8311 224.899 34.2885 225.267H34.1045L34.4147 224.883C34.9404 224.252 35.4188 223.768 35.4766 223.821Z" fill="#0B622F"/>
<path d="M33.7822 220.966C33.7822 220.893 36.6317 220.83 40.1489 220.83C43.666 220.83 46.5155 220.893 46.5155 220.966C46.5155 221.04 43.666 221.103 40.1489 221.103C36.6317 221.103 33.7822 221.045 33.7822 220.966Z" fill="#263238"/>
<path d="M30.5291 220.199C30.609 220.819 30.6493 221.444 30.65 222.07L30.5291 221.955H32.406L32.2693 222.091V221.592C32.2693 221.429 32.2693 221.266 32.2693 221.108C32.2693 220.803 32.2693 220.509 32.2693 220.225L32.3849 220.341C31.7576 220.34 31.1308 220.301 30.5081 220.225C31.1293 220.134 31.7571 220.093 32.3849 220.104H32.5111V220.225C32.5111 220.509 32.5111 220.803 32.5111 221.108C32.5111 221.266 32.5111 221.429 32.5111 221.592V222.091C32.632 221.97 32.3429 222.26 32.3744 222.233H30.4975H30.4082V222.112C30.3966 221.472 30.4371 220.832 30.5291 220.199Z" fill="#263238"/>
<path d="M33.0631 219.557C32.8572 220.023 32.5686 220.447 32.2114 220.809L31.8907 221.187L31.8066 221.292L31.7067 221.203C31.2756 220.803 30.9864 220.488 31.0285 220.446C31.0705 220.404 31.4175 220.635 31.8802 221.008H31.6909L32.0011 220.619C32.511 219.994 33.0052 219.51 33.0631 219.557Z" fill="#0B622F"/>
<path d="M71.2783 199.685H71.3887H71.7147H72.9764L77.6765 199.653H93.7535C94.8964 199.511 96.055 199.732 97.0656 200.284C98.1205 200.846 99.0227 201.656 99.6943 202.644C100.754 204.333 101.456 206.22 101.755 208.191C102.128 210.068 102.397 211.871 102.623 213.632C103.091 217.107 103.374 220.262 103.932 222.843C104.378 224.864 105.054 226.827 105.945 228.695C106.261 229.362 106.55 229.862 106.744 230.203C106.834 230.356 106.907 230.482 106.97 230.582C106.999 230.625 107.022 230.671 107.039 230.719C107.002 230.683 106.97 230.642 106.944 230.598L106.697 230.23C106.388 229.749 106.103 229.252 105.845 228.742C104.903 226.863 104.186 224.88 103.711 222.833C103.122 220.204 102.822 217.086 102.344 213.611C102.107 211.876 101.818 210.057 101.461 208.191C101.163 206.257 100.474 204.404 99.4367 202.744C98.7944 201.794 97.9324 201.013 96.9237 200.468C95.961 199.942 94.8581 199.731 93.7693 199.863L77.6765 199.779L72.9764 199.732L71.7147 199.706H71.3887L71.2783 199.685Z" fill="#263238"/>
<path d="M18.6473 244.393C18.7988 244.363 18.9481 244.322 19.0942 244.272C19.5292 244.14 19.9395 243.938 20.3087 243.673C20.9072 243.243 21.3837 242.665 21.6913 241.996C22.0893 241.075 22.2693 240.074 22.2171 239.073C22.1965 237.813 22.0199 236.561 21.6913 235.345C21.2555 233.911 20.7287 232.506 20.1141 231.139C19.8092 230.387 19.5148 229.604 19.2519 228.773C18.9672 227.917 18.7579 227.038 18.6263 226.145C18.314 224.193 18.6854 222.193 19.6778 220.483C20.2353 219.568 21.0387 218.828 21.9963 218.348C22.2434 218.23 22.5002 218.133 22.7638 218.059C22.8953 218.027 23.0267 217.98 23.1634 217.954L23.5787 217.901C24.1496 217.838 24.7259 217.957 25.2243 218.243C26.2139 218.833 27.0711 219.62 27.7426 220.556C28.4569 221.502 29.09 222.506 29.6352 223.558C30.2025 224.642 30.6876 225.767 31.0862 226.923C31.3028 227.517 31.4784 228.124 31.612 228.742C31.7276 229.373 31.7802 229.998 31.8748 230.629C32.0431 231.908 32.28 233.177 32.5846 234.43C32.9121 235.715 33.3052 236.982 33.7622 238.226C33.9631 238.863 34.2383 239.473 34.5824 240.045C34.9478 240.613 35.3921 241.127 35.902 241.57C36.4186 242.021 36.9766 242.422 37.5685 242.769C38.1587 243.131 38.7797 243.441 39.4244 243.694C40.0752 243.942 40.7629 244.078 41.459 244.099C42.1477 244.099 42.8732 244.02 43.5619 243.962C44.9972 243.865 46.4124 243.571 47.7678 243.089C49.1392 242.564 50.4337 241.857 51.6162 240.986C52.8266 240.121 53.8793 239.054 54.7285 237.832C56.4772 235.322 57.7709 232.525 58.5506 229.567C58.9065 228.235 59.1751 226.881 59.355 225.514C59.5285 224.158 59.6073 222.791 59.723 221.434C59.9078 218.755 60.2483 216.088 60.7429 213.448C61.0058 212.15 61.337 210.877 61.7103 209.637C62.0584 208.394 62.4905 207.177 63.0036 205.993C63.5285 204.835 64.2076 203.753 65.0224 202.776C65.814 201.803 66.7939 201 67.9034 200.415C68.8369 199.856 69.9015 199.553 70.9895 199.537C72.0689 199.541 73.1113 199.931 73.9284 200.636C74.6964 201.336 75.3105 202.189 75.7316 203.139C76.1451 204.051 76.5049 204.987 76.8094 205.941C77.9855 209.509 78.8199 213.181 79.3014 216.908C79.7956 220.425 80.0479 223.742 80.2687 226.839C80.4895 229.935 80.7945 232.769 81.5988 235.251C82.2372 237.471 83.3777 239.514 84.932 241.223C86.1062 242.479 87.578 243.419 89.2115 243.957C90.2281 244.29 91.2975 244.432 92.3659 244.377C92.7286 244.346 93.002 244.314 93.186 244.277L93.4647 244.241L93.1913 244.298C92.9192 244.358 92.6435 244.398 92.3659 244.419C91.2891 244.496 90.2076 244.366 89.1799 244.036C87.526 243.506 86.0324 242.567 84.8374 241.307C83.2582 239.592 82.096 237.535 81.4411 235.298C80.642 232.822 80.3055 229.956 80.0742 226.886C79.8429 223.816 79.5853 220.477 79.0858 216.971C78.5874 213.261 77.7408 209.607 76.557 206.056C76.2623 205.111 75.9112 204.184 75.5056 203.281C75.1 202.362 74.5073 201.539 73.7654 200.862C72.9922 200.19 72.0036 199.817 70.979 199.811C69.9371 199.83 68.9183 200.122 68.0244 200.657C66.9518 201.223 66.0055 202.001 65.2432 202.944C64.4435 203.901 63.7785 204.962 63.2665 206.099C62.7585 207.27 62.3316 208.475 61.9889 209.705C61.6157 210.946 61.2897 212.208 61.0268 213.496C60.5343 216.124 60.1938 218.778 60.0069 221.445C59.8965 222.796 59.8124 224.163 59.6441 225.54C59.4595 226.919 59.1891 228.285 58.8345 229.63C58.0422 232.618 56.7326 235.444 54.9651 237.979C54.1076 239.229 53.0404 240.321 51.8107 241.207C50.609 242.092 49.2933 242.81 47.8992 243.342C46.5177 243.83 45.0763 244.129 43.6145 244.23C42.889 244.283 42.1897 244.356 41.459 244.362C40.7393 244.34 40.0284 244.198 39.356 243.941C38.694 243.682 38.057 243.364 37.4529 242.989C36.8495 242.633 36.281 242.222 35.7547 241.759C35.224 241.303 34.7634 240.772 34.3878 240.182C34.035 239.593 33.7526 238.965 33.5467 238.31C33.0856 237.058 32.6908 235.782 32.3638 234.488C32.0614 233.226 31.8262 231.948 31.6593 230.661C31.4218 228.203 30.679 225.821 29.4775 223.663C28.9443 222.621 28.3216 221.627 27.6164 220.693C26.9652 219.78 26.1331 219.01 25.1717 218.432C24.2201 217.849 23.0688 218.112 22.133 218.532C21.2135 218.998 20.4444 219.714 19.9144 220.598C18.9378 222.268 18.5665 224.223 18.8629 226.134C18.9789 227.003 19.1707 227.86 19.4359 228.695C19.6935 229.515 19.9617 230.272 20.2824 231.05C20.8998 232.427 21.4267 233.842 21.8596 235.287C22.1889 236.516 22.3654 237.78 22.3853 239.052C22.4179 240.07 22.2164 241.083 21.7965 242.011C21.4758 242.688 20.9848 243.269 20.3717 243.699C19.9946 243.959 19.5772 244.154 19.1363 244.277C18.9775 244.332 18.8137 244.371 18.6473 244.393Z" fill="#263238"/>
<path d="M55.5637 236.828C55.5637 236.828 55.5269 236.828 55.469 236.765C55.4112 236.702 55.3166 236.649 55.2062 236.555C54.8783 236.27 54.5659 235.968 54.2703 235.65C53.7987 235.155 53.3614 234.628 52.9613 234.073C52.4272 233.33 51.9925 232.521 51.668 231.665C51.3462 230.611 51.1054 229.534 50.9477 228.443C50.7637 227.27 50.6165 226.014 50.3904 224.71C50.1755 223.345 49.7498 222.022 49.1287 220.788C48.7972 220.145 48.3719 219.555 47.8669 219.037C47.6298 218.766 47.3424 218.542 47.0205 218.38C46.6835 218.234 46.3306 218.128 45.969 218.065C44.4984 217.852 43.0112 217.776 41.5265 217.839C40.0808 217.839 38.6876 217.933 37.3575 217.944L30.2863 218.007H25.5179H24.2246C24.0734 218.013 23.922 218.004 23.7725 217.98C23.9223 217.96 24.0734 217.949 24.2246 217.949L25.5179 217.907L30.2811 217.802L37.3469 217.681C38.677 217.681 40.0702 217.581 41.5213 217.56C43.0251 217.493 44.532 217.569 46.0216 217.786C46.4094 217.85 46.7875 217.963 47.1466 218.122C47.3358 218.205 47.5127 218.313 47.6724 218.443C47.8143 218.569 47.9563 218.695 48.0877 218.837C48.6106 219.373 49.0501 219.985 49.3915 220.651C50.0223 221.91 50.4516 223.26 50.6638 224.652C50.8846 225.972 51.0213 227.228 51.1895 228.395C51.3329 229.477 51.5596 230.545 51.8677 231.592C52.1739 232.436 52.5893 233.237 53.1032 233.973C53.4901 234.535 53.9115 235.072 54.365 235.582C54.7383 235.997 55.0432 236.308 55.2587 236.513C55.4743 236.718 55.5689 236.823 55.5637 236.828Z" fill="#263238"/>
<path d="M166.047 77.8827C166.06 77.2521 166.242 76.6366 166.574 76.1003C166.906 75.564 167.376 75.1265 167.934 74.8334C168.112 74.7302 168.313 74.6741 168.518 74.6704C168.62 74.6696 168.72 74.6985 168.806 74.7536C168.892 74.8087 168.96 74.8875 169.002 74.9806C169.031 75.0855 169.03 75.1965 169.001 75.3012C168.971 75.406 168.913 75.5006 168.833 75.5747C168.668 75.7216 168.492 75.8569 168.308 75.9795C168.047 76.196 167.849 76.4786 167.735 76.7977C167.622 77.1169 167.596 77.4608 167.661 77.7933" fill="#FFBF9D"/>
<path d="M156.132 55.3337C153.728 55.5154 151.493 56.6416 149.917 58.4661C148.341 60.2907 147.551 62.6651 147.721 65.0703C148.199 72.1678 148.052 81.8097 144.661 87.6769C138.794 97.8341 129.993 99.6374 130.666 119.947C131.339 140.256 132.243 142.406 128.184 147.653C124.126 152.9 115.325 150.187 111.487 162.147C107.649 174.108 110.357 233.905 104.263 240.224C104.263 240.224 99.3003 244.956 94.1113 244.509H123.269C125.749 244.54 128.143 243.596 129.935 241.88C130.674 241.172 131.261 240.321 131.659 239.378C132.056 238.435 132.257 237.42 132.248 236.397C132.248 232.28 133.599 174.118 135.86 169.15C138.121 164.182 149.85 159.119 151.632 147.663C153.414 136.208 152.799 117.67 152.783 114.337C152.783 111.183 153.398 104.989 159.465 97.771C168.676 86.862 167.42 74.9384 167.625 70.8744C167.83 66.8105 166.048 54.5767 166.048 54.5767L156.132 55.3337Z" fill="#EBEBEB"/>
<path d="M148.535 63.5508C148.677 63.034 148.963 62.5685 149.361 62.2094C149.759 61.8502 150.251 61.6123 150.779 61.5239C151.308 61.4354 151.851 61.5001 152.344 61.7102C152.836 61.9203 153.259 62.2671 153.561 62.7096C154.429 63.9714 154.229 65.864 155.396 66.8629C156.137 67.4991 157.21 67.5411 158.188 67.5254C161.266 67.4633 164.33 67.0827 167.33 66.3898L166.657 56.7793C166.657 56.7793 152.068 55.4965 150.291 57.8939C148.514 60.2912 148.535 63.5508 148.535 63.5508Z" fill="#E0E0E0"/>
<path d="M147.84 68.4769C147.84 66.3109 148.329 64.4025 148.839 62.2995C149.454 59.755 151.226 57.8991 153.376 57.5679C156.094 57.1789 158.775 61.1009 158.775 61.1009C158.775 61.1009 169.343 59.5657 174.369 59.1924C174.001 57.8834 171.362 54.5081 169.464 54.0981C167.555 53.7623 165.614 53.6582 163.681 53.7879C160.211 53.8825 156.62 54.0034 153.487 55.4965C150.353 56.9896 147.125 59.1767 147.887 67.2414" fill="#F5F5F5"/>
<path d="M168.402 54.3558C168.23 54.3971 168.054 54.4182 167.876 54.4188L166.441 54.5292C165.232 54.6186 163.56 54.7448 161.71 54.9393C159.859 55.1338 158.208 55.3704 157.015 55.5807L155.606 55.8383C155.433 55.8794 155.257 55.9057 155.08 55.9172C155.251 55.8538 155.427 55.8062 155.606 55.7752C155.937 55.6911 156.415 55.586 157.01 55.4651C158.203 55.2285 159.864 54.9393 161.704 54.7763C163.544 54.6134 165.221 54.4767 166.436 54.4136L167.871 54.3558C168.048 54.3417 168.225 54.3417 168.402 54.3558Z" fill="#263238"/>
<path d="M135.665 169.781C135.665 169.86 131.191 170.585 125.676 171.405C120.161 172.225 115.635 172.83 115.624 172.756C115.614 172.683 120.093 171.957 125.613 171.132C131.133 170.307 135.655 169.707 135.665 169.781Z" fill="#263238"/>
<path d="M136.722 167.594C136.722 167.668 132.605 167.757 127.527 167.788C122.448 167.82 118.326 167.788 118.326 167.704C118.326 167.62 122.443 167.541 127.521 167.51C132.6 167.478 136.722 167.515 136.722 167.594Z" fill="#263238"/>
<path d="M95.4199 244.577L95.9457 244.509C96.4394 244.444 96.9278 244.344 97.4072 244.209C99.2448 243.667 100.973 242.805 102.512 241.664C103.049 241.284 103.565 240.875 104.058 240.439C104.576 239.941 104.975 239.332 105.225 238.657C105.805 237.127 106.228 235.542 106.487 233.926C107.134 229.963 107.577 225.969 107.811 221.96C108.427 213.054 108.679 202.424 109.047 190.626C109.241 184.722 109.436 178.534 109.93 172.115C110.056 170.538 110.209 168.903 110.419 167.278C110.601 165.634 110.911 164.006 111.344 162.41C111.607 161.616 111.912 160.833 112.212 160.049L112.774 158.919L113.058 158.351C113.163 158.172 113.284 157.994 113.4 157.825C114.282 156.355 115.449 155.075 116.833 154.061C118.224 153.075 119.737 152.273 121.333 151.674C122.901 151.117 124.42 150.431 125.876 149.624L126.401 149.298C126.564 149.177 126.717 149.04 126.875 148.914L127.348 148.53L127.758 148.078C127.889 147.931 128.031 147.784 128.163 147.631L128.525 147.137C128.778 146.817 128.999 146.475 129.219 146.133C129.657 145.459 130.025 144.742 130.318 143.993C130.588 143.243 130.785 142.468 130.907 141.68C131.121 140.112 131.211 138.53 131.175 136.949C131.175 135.371 131.117 133.794 131.065 132.269C130.942 129.182 130.825 126.162 130.713 123.211C130.67 121.734 130.581 120.283 130.597 118.837C130.597 118.117 130.597 117.402 130.597 116.692C130.597 115.982 130.67 115.278 130.702 114.589C130.739 113.185 130.986 111.818 131.149 110.467C131.382 109.148 131.698 107.846 132.095 106.566C132.846 104.13 133.969 101.825 135.423 99.7317C136.792 97.8343 138.262 96.0125 139.829 94.2746C141.229 92.6833 142.527 91.0046 143.714 89.2486L144.503 87.9921C144.765 87.582 144.965 87.1456 145.191 86.7303C145.583 85.9043 145.922 85.0544 146.206 84.1858C147.088 81.2806 147.618 78.2799 147.783 75.2483C147.951 72.7563 147.946 70.8163 147.936 69.5072C147.936 68.8553 147.936 68.3559 147.909 68.0089C147.883 67.6619 147.909 67.4832 147.909 67.4832C147.909 67.4832 147.967 68.1719 147.999 69.4862C148.03 70.8005 148.046 72.7458 147.894 75.2377C147.742 78.2684 147.223 81.2695 146.348 84.1752C146.066 85.0526 145.729 85.9113 145.338 86.7461C145.112 87.1614 144.913 87.6083 144.644 88.0184C144.376 88.4284 144.119 88.8543 143.861 89.2854C142.674 91.0515 141.376 92.7407 139.976 94.343C138.404 96.0824 136.928 97.9059 135.555 99.8053C134.119 101.883 133.011 104.169 132.269 106.582C131.883 107.853 131.575 109.147 131.349 110.457C131.186 111.797 130.949 113.154 130.912 114.552C130.881 115.246 130.818 115.945 130.807 116.655C130.797 117.365 130.807 118.075 130.807 118.795C130.807 120.225 130.886 121.686 130.928 123.158C131.044 126.11 131.165 129.131 131.291 132.222C131.343 133.763 131.401 135.324 131.401 136.906C131.442 138.506 131.353 140.106 131.133 141.691C131.011 142.497 130.81 143.289 130.534 144.056C130.235 144.824 129.858 145.559 129.409 146.249C129.188 146.596 128.962 146.943 128.709 147.269L128.341 147.763C128.205 147.926 128.058 148.073 127.921 148.231L127.495 148.699L127.011 149.098C126.848 149.224 126.691 149.366 126.517 149.487L125.991 149.824C124.525 150.64 122.993 151.332 121.412 151.895C119.836 152.485 118.342 153.276 116.97 154.25C115.615 155.241 114.471 156.492 113.605 157.931C113.495 158.104 113.374 158.278 113.269 158.456L112.99 159.014L112.464 160.128C112.17 160.906 111.865 161.679 111.607 162.457C111.178 164.038 110.871 165.65 110.687 167.278C110.477 168.897 110.325 170.506 110.193 172.11C109.699 178.508 109.499 184.701 109.299 190.6C108.916 202.397 108.647 213.033 108.006 221.944C107.762 225.968 107.306 229.976 106.639 233.952C106.373 235.584 105.937 237.184 105.341 238.726C105.087 239.419 104.675 240.044 104.137 240.55C103.634 240.985 103.107 241.392 102.559 241.77C101.006 242.909 99.2612 243.76 97.4072 244.283C96.9247 244.413 96.4324 244.505 95.9351 244.556L95.4199 244.577Z" fill="#263238"/>
<path d="M147.874 67.4622L147.826 66.7997C147.826 66.3528 147.758 65.7062 147.705 64.8492C147.688 64.3684 147.706 63.887 147.758 63.4087C147.816 62.883 147.958 62.3152 148.079 61.7001C148.382 60.27 149.058 58.9457 150.04 57.8622C151.354 56.5909 152.929 55.6204 154.656 55.018C156.696 54.2853 158.828 53.836 160.991 53.6826C162.153 53.5827 163.357 53.5302 164.603 53.5091C165.893 53.4566 167.184 53.5911 168.435 53.9087C169.089 54.081 169.726 54.3115 170.338 54.5974C170.961 54.9093 171.542 55.2979 172.068 55.754C172.619 56.2094 173.119 56.7223 173.561 57.2839C173.788 57.5709 173.987 57.879 174.155 58.204C174.345 58.5354 174.456 58.9059 174.481 59.287V59.3763H174.387C172.026 59.5814 169.497 60.1019 166.847 60.4278L166.942 60.3122C167.252 62.8777 167.568 65.5695 167.736 68.3191C167.773 69.0078 167.799 69.7123 167.789 70.422C167.778 71.1318 167.736 71.831 167.736 72.525C167.736 73.955 167.736 75.406 167.626 76.8781C167.464 79.9053 166.956 82.904 166.111 85.8156C165.199 88.869 163.857 91.7774 162.126 94.4534C160.381 97.2135 157.973 99.5425 156.343 102.487C154.582 105.415 153.468 108.686 153.078 112.081C152.951 113.831 152.93 115.587 153.015 117.339C153.036 119.091 153.057 120.868 153.078 122.67C153.105 126.245 153.078 129.867 152.958 133.526C152.81 137.732 152.59 141.938 152.053 146.007C151.843 148.051 151.355 150.057 150.602 151.969C149.804 153.827 148.767 155.573 147.516 157.163C145.051 160.317 141.985 162.825 139.178 165.407L138.184 166.421C137.864 166.768 137.538 167.11 137.228 167.473L136.802 168.03C136.651 168.206 136.521 168.398 136.413 168.603L136.071 169.208C135.983 169.417 135.906 169.631 135.84 169.849C135.454 171.653 135.182 173.479 135.025 175.317C134.326 182.593 134 189.543 133.684 196.041C133.369 202.539 133.158 208.596 132.969 214.126C132.78 219.657 132.638 224.641 132.522 229.052C132.473 231.25 132.428 233.289 132.386 235.172C132.41 236.077 132.36 236.982 132.238 237.879C132.096 238.69 131.815 239.471 131.408 240.187C130.715 241.386 129.741 242.399 128.569 243.137C127.712 243.674 126.775 244.07 125.793 244.309C125.191 244.459 124.577 244.551 123.958 244.582C123.543 244.582 123.327 244.582 123.327 244.582H123.485C123.59 244.582 123.748 244.582 123.958 244.556C125.579 244.451 127.148 243.941 128.521 243.073C129.676 242.336 130.634 241.329 131.313 240.14C131.71 239.432 131.984 238.663 132.123 237.863C132.24 236.973 132.284 236.074 132.254 235.177C132.291 233.295 132.328 231.25 132.37 229.052C132.47 224.657 132.601 219.652 132.775 214.121C132.948 208.59 133.164 202.555 133.453 196.036C133.742 189.517 134.078 182.588 134.772 175.296C134.916 173.439 135.178 171.594 135.556 169.77C135.635 169.544 135.698 169.302 135.798 169.087L136.155 168.461C136.267 168.25 136.401 168.051 136.555 167.867L136.991 167.299C137.306 166.936 137.632 166.589 137.958 166.248L139.01 165.249C141.828 162.652 144.877 160.17 147.316 157.032C148.551 155.461 149.576 153.736 150.366 151.9C151.103 150.009 151.584 148.026 151.796 146.007C152.321 141.933 152.548 137.763 152.695 133.547C152.816 129.893 152.842 126.276 152.816 122.701C152.795 120.914 152.774 119.138 152.753 117.375C152.67 115.623 152.693 113.868 152.821 112.118C153.215 108.685 154.342 105.377 156.128 102.418C157.773 99.4426 160.197 97.0978 161.911 94.3745C163.636 91.7218 164.972 88.8361 165.88 85.805C166.72 82.9105 167.228 79.9296 167.394 76.9201C167.478 75.4533 167.499 74.0023 167.51 72.5723C167.51 71.8625 167.541 71.137 167.562 70.4693C167.584 69.8017 167.562 69.0709 167.515 68.3664C167.352 65.6063 167.042 62.9356 166.737 60.37V60.2648H166.842C169.471 59.9389 172.01 59.4237 174.397 59.2134L174.302 59.3133C174.199 58.6133 173.896 57.958 173.43 57.4259C172.996 56.8755 172.506 56.3716 171.968 55.9223C171.453 55.4774 170.887 55.0961 170.281 54.7867C169.677 54.5063 169.051 54.2777 168.409 54.1032C167.173 53.7898 165.898 53.6553 164.624 53.7037C163.383 53.7037 162.184 53.7667 161.028 53.8666C158.875 54.0083 156.752 54.4471 154.719 55.1705C153.007 55.7586 151.443 56.711 150.134 57.9621C149.16 59.03 148.484 60.3354 148.173 61.7474C148.052 62.3573 147.9 62.9198 147.847 63.4455C147.785 63.9195 147.762 64.3978 147.779 64.8755C147.821 65.7272 147.853 66.3791 147.874 66.8208C147.895 67.2624 147.874 67.4622 147.874 67.4622Z" fill="#263238"/>
<path d="M174.38 59.2872C174.285 59.321 174.186 59.3422 174.086 59.3503L173.223 59.4765L170.069 59.8918L159.633 61.1641L158.797 61.264H158.713L158.671 61.1956C158.165 60.4001 157.576 59.66 156.915 58.9875C156.314 58.3682 155.551 57.9309 154.712 57.7258C153.951 57.573 153.163 57.6201 152.425 57.8625C151.782 58.0724 151.198 58.4329 150.722 58.9139C150.038 59.6333 149.502 60.48 149.145 61.4059C149.024 61.7319 148.934 61.9895 148.882 62.1682C148.857 62.2575 148.827 62.3452 148.792 62.4311C148.789 62.3368 148.802 62.2427 148.829 62.1525C148.888 61.8874 148.962 61.6259 149.05 61.3691C149.369 60.4107 149.884 59.5295 150.564 58.7825C151.055 58.2695 151.66 57.8803 152.331 57.6469C153.106 57.3803 153.939 57.3223 154.744 57.4787C155.632 57.6828 156.443 58.1392 157.078 58.793C157.757 59.4742 158.36 60.2269 158.876 61.0379L158.745 60.9801L159.581 60.8802L170.027 59.6868L173.181 59.3555L174.044 59.2767C174.156 59.266 174.269 59.2696 174.38 59.2872Z" fill="#263238"/>
<path d="M167.624 78.8182C167.619 78.9494 167.576 79.0762 167.499 79.1828C167.422 79.2894 167.316 79.3711 167.193 79.4175L164.039 80.6109C163.555 80.7949 162.908 80.9316 162.609 80.511C162.52 80.3574 162.485 80.1791 162.508 80.0034C162.53 79.8278 162.61 79.6644 162.735 79.5384C162.99 79.2988 163.295 79.1192 163.629 79.0127C164.843 78.4869 166.173 77.9928 167.403 77.4828C167.432 77.471 167.462 77.4667 167.493 77.4702C167.523 77.4737 167.552 77.485 167.577 77.5029C167.602 77.5209 167.622 77.5449 167.634 77.5726C167.647 77.6004 167.653 77.631 167.65 77.6615L167.624 78.8182Z" fill="#FFBF9D"/>
<path d="M167.746 79.8747C167.815 80.1877 167.77 80.5152 167.618 80.7978C167.467 81.0804 167.219 81.2994 166.92 81.4151L163.992 82.5401C163.508 82.7241 162.861 82.8608 162.562 82.4455C162.473 82.2919 162.438 82.1136 162.461 81.9379C162.484 81.7622 162.563 81.5989 162.688 81.4729C162.942 81.2318 163.248 81.052 163.582 80.9472C164.744 80.4635 166.011 79.9745 167.188 79.4909C167.24 79.4687 167.297 79.4583 167.353 79.4605C167.41 79.4627 167.465 79.4774 167.516 79.5035C167.566 79.5296 167.61 79.5666 167.644 79.6116C167.678 79.6567 167.702 79.7088 167.714 79.7643L167.746 79.8747Z" fill="#FFBF9D"/>
<path d="M167.22 81.4467C167.33 81.9056 167.269 82.3888 167.048 82.8059C166.828 83.2229 166.463 83.5453 166.021 83.7126L163.582 84.6432C163.098 84.8272 162.452 84.9639 162.152 84.5433C162.065 84.3892 162.031 84.2113 162.054 84.036C162.076 83.8608 162.155 83.6976 162.278 83.5707C162.536 83.332 162.843 83.1525 163.177 83.0449C164.476 82.5192 165.911 81.9514 167.204 81.4099L167.22 81.4467Z" fill="#FFBF9D"/>
<path d="M154.335 106.382C154.335 106.456 150.492 107.881 145.697 109.568C140.903 111.256 136.991 112.57 136.965 112.497C136.939 112.423 140.808 110.998 145.603 109.311C150.398 107.623 154.309 106.309 154.335 106.382Z" fill="#263238"/>
<path d="M152.257 108.485C151.821 108.859 151.353 109.193 150.859 109.484C149.976 110.068 148.756 110.846 147.342 111.671C145.927 112.497 144.671 113.212 143.735 113.706C143.244 114.002 142.726 114.252 142.189 114.452C142.65 114.113 143.135 113.807 143.64 113.538L147.205 111.435L150.759 109.332C151.236 109.012 151.737 108.73 152.257 108.485Z" fill="#263238"/>
</svg>
