<svg width="187" height="201" viewBox="0 0 187 201" fill="none" xmlns="http://www.w3.org/2000/svg">
<path d="M77.8457 176.828L78.0618 189.426C78.0618 189.426 78.3592 189.616 78.9539 189.426V180.262L77.8457 176.828Z" fill="#223238"/>
<path d="M83.8204 175.044C83.8204 175.044 84.8542 182.125 86.928 184.962C87.5699 185.841 88.4583 187.89 88.8219 189.616C89.0655 190.772 88.9791 192.235 86.5106 192.475C84.8345 192.638 79.3328 192.212 79.0084 185.21C78.8282 181.32 76.0887 176.73 78.9542 175.346C81.8198 173.963 83.8204 175.044 83.8204 175.044Z" fill="#35464E"/>
<path d="M85.1898 159.147L83.9729 172.608C83.9729 172.608 84.5054 181.506 86.3303 185.156C88.1556 188.806 83.2251 189.048 81.8867 186.371C81.4807 185.56 81.2488 183.756 80.5486 182.113C79.4425 179.52 77.976 176.835 78.9536 175.345C80.5507 172.912 79.7903 159.831 79.7903 159.831L85.1898 159.147Z" fill="#FFBF9D"/>
<path d="M93.9414 176.828L94.1575 189.426C94.1575 189.426 94.4549 189.616 95.0496 189.426V180.262L93.9414 176.828Z" fill="#223238"/>
<path d="M99.9161 175.044C99.9161 175.044 100.95 182.125 103.024 184.962C103.666 185.841 104.554 187.89 104.918 189.616C105.161 190.772 105.075 192.235 102.606 192.475C100.93 192.638 95.4285 192.212 95.1041 185.21C94.9239 181.32 92.1844 176.73 95.0499 175.346C97.9155 173.963 99.9161 175.044 99.9161 175.044Z" fill="#35464E"/>
<path d="M101.286 159.147L100.069 172.608C100.069 172.608 100.601 181.506 102.426 185.156C104.252 188.806 99.3212 189.048 97.9827 186.371C97.5767 185.56 97.3448 183.756 96.6443 182.113C95.5385 179.52 94.0716 176.835 95.0493 175.345C96.6463 172.912 95.886 159.831 95.886 159.831L101.286 159.147Z" fill="#FFBF9D"/>
<path d="M94.4258 64.6067C94.4258 64.6067 101.362 64.683 106.615 71.2299C111.868 77.7767 113.887 83.7531 113.887 84.7429C113.887 85.7327 99.9828 96.1534 99.9828 96.1534C99.9828 96.1534 102.504 97.7981 101.362 99.7014C100.22 101.605 101.514 104.193 102.732 104.041C103.95 103.888 105.12 101.287 105.85 101.895C106.804 102.69 102.467 107.458 99.4221 105.403C96.3771 103.347 98.3199 93.9621 98.3199 93.9621L108.704 84.0989C108.952 83.8512 108.994 83.465 108.804 83.1705C107.317 80.8649 101.056 71.4775 97.7838 71.6108L94.4258 64.6067Z" fill="#FFBF9D"/>
<path d="M100.537 45.5987C100.537 33.4266 88.5006 32.8222 87.3055 32.7919V32.7903C87.3055 32.7903 87.2882 32.7903 87.2571 32.7911C87.2264 32.7907 87.2086 32.7903 87.2086 32.7903V32.7919C86.0131 32.8218 73.9772 33.4262 73.9772 45.5987C73.9772 58.4071 67.4077 59.2551 72.1931 64.7689L76.8973 63.5391L76.0861 60.3584L77.9921 63.2422L87.209 63.3262V63.327L87.2575 63.3266L87.3059 63.327V63.3262L96.5228 63.2422L98.4289 60.3584L97.6176 63.5391L102.322 64.7689C107.106 59.2551 100.537 58.4071 100.537 45.5987Z" fill="#36474F"/>
<path d="M91.3911 96.8901L88.6148 109.169H87.768C87.768 109.169 88.3328 131.681 87.627 137.185C86.9212 142.69 85.5804 167.883 85.5804 167.883C85.5804 167.883 81.9815 169.153 79.1584 167.883C79.1584 167.883 74.8538 141.278 77.9589 135.774C77.9589 135.774 64.6919 104.23 77.2531 95.1965L91.3911 96.8901Z" fill="#35464E"/>
<path d="M99.9883 96.8901L101.246 100.75C103.1 106.442 104.08 112.379 104.154 118.365C104.239 125.259 104.253 134.025 103.848 137.185C103.142 142.69 101.801 167.883 101.801 167.883C101.801 167.883 98.2022 169.153 95.3795 167.883C95.3795 167.883 91.0749 141.278 94.1796 135.774C94.1796 135.774 80.9126 104.23 93.4738 95.1965L99.9883 96.8901Z" fill="#35464E"/>
<path d="M79.8105 63.6334C79.8105 63.6334 90.9205 63.1465 93.6334 63.6334C93.6334 63.6334 92.5616 67.7158 86.9654 68.0402C81.3688 68.3646 79.8105 63.6334 79.8105 63.6334Z" fill="#AFAFAF"/>
<path d="M94.1096 47.8086C93.6886 49.4763 93.0745 52.3653 94.3718 52.693C95.669 53.0202 98.3863 50.6617 98.8069 48.9939C99.2274 47.3262 98.5172 45.709 97.22 45.3818C95.9227 45.0541 94.5301 46.1409 94.1096 47.8086Z" fill="#FFBF9D"/>
<path d="M94.8684 48.1558C94.5937 49.2446 94.193 51.1305 95.0397 51.3442C95.8865 51.5579 97.6605 50.0182 97.9348 48.9295C98.2095 47.8407 97.7457 46.785 96.8989 46.5713C96.0522 46.358 95.1428 47.0674 94.8684 48.1558Z" fill="#C97339"/>
<path d="M79.9181 47.8086C80.3391 49.4763 80.9532 52.3653 79.6559 52.693C78.3587 53.0202 75.6414 50.6617 75.2208 48.9939C74.7999 47.3262 75.5105 45.709 76.8077 45.3818C78.1046 45.0541 79.4972 46.1409 79.9181 47.8086Z" fill="#FFBF9D"/>
<path d="M79.1591 48.1558C79.4339 49.2446 79.8346 51.1305 78.9878 51.3442C78.1411 51.5579 76.3671 50.0182 76.0928 48.9295C75.8181 47.8407 76.2818 46.785 77.1286 46.5713C77.9754 46.358 78.8844 47.0674 79.1591 48.1558Z" fill="#C97339"/>
<path d="M90.6932 54.9958V62.3357L93.5224 65.377C93.5224 65.377 92.3435 70.8112 86.2132 70.8112C80.0829 70.8112 79.5723 65.377 79.5723 65.377L82.5586 62.3357V55.3203L90.6932 54.9958Z" fill="#FFBF9D"/>
<path d="M90.6927 59.447V54.9954L82.5586 55.3198V59.6886C85.0072 61.5899 88.4105 61.2893 90.6927 59.447Z" fill="#C97339"/>
<path d="M78.4145 44.4922C78.0101 49.3002 78.6335 56.8178 85.8348 59.321C86.1455 59.4289 86.4767 59.4588 86.8003 59.4002C88.7581 59.0455 95.6831 56.9597 95.6189 45.2069C95.595 40.8485 92.3715 37.0723 88.0402 36.5896C87.0662 36.4809 86.0214 36.5225 84.9226 36.7875C81.3253 37.6545 78.7248 40.8049 78.4145 44.4922Z" fill="#FFBF9D"/>
<path d="M58.9032 29.9208L67.7436 43.5057L63.5666 46.1822L56.2671 31.4213C56.2671 31.4213 49.2315 31.2185 47.5888 27.5081C47.5888 27.5081 45.8856 24.6696 47.224 24.3452C48.5625 24.0208 49.1301 27.0823 51.685 27.6706C52.8942 27.9489 54.0173 28.0548 54.8645 28.0887C55.7076 28.1226 56.4231 27.4843 56.4902 26.6432C56.6126 25.108 56.9071 22.9236 57.585 23.1894C58.6196 23.5946 58.944 27.1429 58.9032 29.9208Z" fill="#FFBF9D"/>
<path d="M99.7256 98.6706L97.14 83.9097C97.14 83.9097 103.277 75.7182 93.6333 63.6333C93.6333 63.6333 93.1763 65.1115 90.6489 66.2088C88.1522 67.2927 85.2915 67.2927 82.7948 66.2088C80.2673 65.1115 79.8104 63.6333 79.8104 63.6333C70.1665 75.7177 76.3033 83.9097 76.3033 83.9097L71.7441 98.6706C75.997 100.637 95.4731 100.637 99.7256 98.6706Z" fill="white"/>
<path d="M97.14 83.9094C97.14 83.9094 101.444 78.1613 97.1743 69.1929C96.6435 75.2605 96.1736 81.2042 92.4879 85.7403C87.3438 91.8197 80.4217 94.2033 73.0818 94.3386L71.7441 98.6703C75.9966 100.637 95.4727 100.637 99.7252 98.6703L97.14 83.9094Z" fill="#C4C4C4"/>
<path d="M60.9316 43.7626L74.99 73.5011L79.8118 63.6334L67.6906 40.1941L60.9316 43.7626Z" fill="#0B622F"/>
<path d="M53.3177 9.84558L54.4497 13.3297C54.5503 13.6387 54.8379 13.848 55.1632 13.848H58.8266C59.5534 13.848 59.8556 14.778 59.2674 15.205L56.3037 17.3584C56.0407 17.5495 55.9308 17.888 56.0314 18.1971L57.1634 21.6812C57.388 22.3724 56.597 22.9469 56.0091 22.5199L53.0454 20.3665C52.7824 20.1755 52.4265 20.1755 52.1635 20.3665L49.1997 22.5199C48.6119 22.9469 47.8209 22.3724 48.0455 21.6812L49.1775 18.1971C49.2781 17.888 49.1678 17.5495 48.9052 17.3584L45.9415 15.205C45.3536 14.778 45.6558 13.848 46.3822 13.848H50.0457C50.3705 13.848 50.6586 13.6387 50.7592 13.3297L51.8912 9.84558C52.1158 9.15434 53.0935 9.15434 53.3177 9.84558Z" fill="#FED22B"/>
<path d="M90.1556 39.3828C90.1556 39.3828 89.8716 44.0869 84.8026 44.4517L87.3575 41.2888C87.3575 41.2888 84.5998 45.263 76.9355 45.8714C76.9355 45.8714 77.99 35.6118 87.4387 35.4898C96.8875 35.3682 96.4007 45.9522 96.4007 45.9522C96.4007 45.9522 93.927 45.5874 92.9537 43.0325L93.7242 45.993C93.7242 45.993 89.2228 44.5737 90.1556 39.3828Z" fill="#36474F"/>
<path d="M93.6348 63.6333C93.6348 63.6333 101.484 62.6872 107.702 71.5004C107.702 71.5004 114.569 79.9893 114.732 84.0987C114.732 84.0987 113.704 86.9106 110.082 89.9382L106.026 85.8287L108.054 83.4633C108.054 83.4633 107.614 83.3756 107.628 83.2605C107.642 83.1457 108.007 83.0847 108.007 83.0847C108.007 83.0847 100.322 73.9874 97.9701 72.7169C95.6176 71.4463 93.6348 63.6333 93.6348 63.6333Z" fill="#0B622F"/>
<path d="M87.6869 45.0146C87.6275 46.8814 87.5685 48.7483 87.5091 50.6152C87.5006 50.8847 87.4921 51.1546 87.4833 51.424C87.52 51.3759 87.5568 51.3275 87.5935 51.2794C87.1928 51.3824 86.7924 51.485 86.3916 51.588C86.205 51.6361 86.2842 51.9254 86.4712 51.8773C86.872 51.7743 87.2724 51.6717 87.6731 51.5686C87.7386 51.5517 87.781 51.4895 87.783 51.424C87.8424 49.5571 87.9014 47.6903 87.9608 45.8234C87.9693 45.5539 87.9778 45.284 87.9862 45.0146C87.9931 44.8214 87.6929 44.8218 87.6869 45.0146Z" fill="#C97339"/>
<path d="M92.7564 52.1227C92.7895 52.9206 92.1423 53.5956 91.3109 53.6304C90.4794 53.6651 89.7785 53.0458 89.7454 52.2479C89.7122 51.45 90.3594 50.7749 91.1909 50.7402C92.0223 50.7054 92.7232 51.3243 92.7564 52.1227Z" fill="#D9806D"/>
<path d="M84.0005 52.4771C84.0336 53.275 83.3864 53.9501 82.555 53.9849C81.7236 54.0192 81.0226 53.4003 80.9895 52.6024C80.9564 51.8041 81.6036 51.1294 82.435 51.0947C83.266 51.0599 83.967 51.6788 84.0005 52.4771Z" fill="#D9806D"/>
<path d="M87.4524 56.2479C87.458 56.3428 87.2968 56.4297 87.0928 56.4414C86.8888 56.4535 86.7187 56.3861 86.713 56.2911C86.7074 56.1962 86.8686 56.1093 87.0726 56.0976C87.2766 56.0855 87.4467 56.153 87.4524 56.2479Z" fill="#C97339"/>
<path d="M81.6433 46.2549C81.7301 46.5995 82.3789 46.387 83.193 46.1813C84.0071 45.9757 84.6789 45.8545 84.5917 45.5099C84.5048 45.1653 83.774 45.053 82.9599 45.2586C82.1458 45.4647 81.5564 45.9107 81.6433 46.2549Z" fill="#282F39"/>
<path d="M88.9399 45.6255C88.8922 45.9774 89.5729 46.0226 90.4052 46.1353C91.2374 46.248 91.9056 46.3862 91.9533 46.0339C92.001 45.682 91.3651 45.3051 90.5328 45.192C89.701 45.0793 88.9875 45.2732 88.9399 45.6255Z" fill="#282F39"/>
<path d="M84.1828 53.2659C85.2441 55.0249 88.0761 55.3085 89.3475 53.6517C89.5148 53.4336 89.6679 53.1843 89.7499 52.9197C89.8073 52.7351 89.518 52.6559 89.4606 52.8401C89.2796 53.4219 88.7734 53.9208 88.2401 54.1834C87.1655 54.7122 85.8089 54.4694 84.9322 53.6784C84.7496 53.5136 84.5694 53.3269 84.4413 53.1148C84.3419 52.9496 84.0826 53.1003 84.1828 53.2659Z" fill="#C97339"/>
<path d="M90.619 48.5976C90.6121 48.9972 90.3524 49.318 90.0385 49.3139C89.7245 49.3099 89.4761 48.9823 89.4825 48.5823C89.4894 48.1827 89.7492 47.862 90.0627 47.866C90.377 47.87 90.6259 48.1977 90.619 48.5976Z" fill="#0C143B"/>
<path d="M84.076 48.5976C84.0692 48.9972 83.8094 49.318 83.4955 49.3139C83.1816 49.3099 82.9331 48.9823 82.9396 48.5823C82.9464 48.1827 83.2062 47.862 83.5197 47.866C83.834 47.87 84.0829 48.1977 84.076 48.5976Z" fill="#0C143B"/>
<path d="M91.3628 52.5032C93.0032 52.5032 94.333 51.1734 94.333 49.533C94.333 47.8926 93.0032 46.5627 91.3628 46.5627C89.7224 46.5627 88.3926 47.8926 88.3926 49.533C88.3926 51.1734 89.7224 52.5032 91.3628 52.5032Z" stroke="white" stroke-width="1.1485" stroke-miterlimit="10"/>
<path d="M86.2002 49.533C86.2002 51.1736 84.8702 52.5032 83.23 52.5032C81.5893 52.5032 80.2598 51.1732 80.2598 49.533C80.2598 47.8923 81.5897 46.5627 83.23 46.5627C84.8702 46.5627 86.2002 47.8923 86.2002 49.533Z" stroke="white" stroke-width="1.1485" stroke-miterlimit="10"/>
<path d="M88.3704 49.3902C88.3704 49.3902 87.8226 48.053 86.2441 49.3902" stroke="white" stroke-width="1.1485" stroke-miterlimit="10"/>
<path d="M79.8105 63.6334L81.0528 63.5461C81.0528 63.5461 79.5794 66.2287 79.4283 83.231C79.2772 100.233 80.6375 106.203 80.6375 106.203C80.6375 106.203 72.7029 108.546 67.5645 104.541L73.8366 86.2538L72.4763 65.4728L79.8105 63.6334Z" fill="#0B622F"/>
<path d="M94.6876 63.6898L93.4453 63.6025C93.4453 63.6025 94.9187 66.2851 95.0698 83.2874C95.2209 100.29 93.8606 106.26 93.8606 106.26C93.8606 106.26 101.795 108.602 106.934 104.597L100.662 86.3102L101.695 70.519C101.884 67.6292 99.9804 65.0173 97.1714 64.3128L94.6876 63.6898Z" fill="#0B622F"/>
<path d="M87.3066 32.7919V32.7903C87.3066 32.7903 87.2889 32.7903 87.2582 32.7907C87.2271 32.7903 87.2097 32.7903 87.2097 32.7903V32.7919C86.3548 32.8133 79.9571 33.1313 76.3809 37.7611C81.4947 37.6807 86.6299 36.5192 90.3795 33.1983C88.837 32.8545 87.6428 32.8004 87.3066 32.7919Z" fill="#5B6E75"/>
</svg>
