<svg width="24" height="24" viewBox="0 0 24 24" fill="none" xmlns="http://www.w3.org/2000/svg">
<path d="M8.61603 20C8.17136 20 7.79103 19.8417 7.47503 19.525C7.15903 19.2083 7.00069 18.8287 7.00003 18.386V16H5.19203C4.74803 16 4.36803 15.8417 4.05203 15.525C3.73603 15.2083 3.57769 14.8283 3.57703 14.385V10.615C3.57703 10.0483 3.76936 9.57368 4.15403 9.19101C4.53869 8.80701 5.01303 8.61501 5.57703 8.61501H18.423C18.9897 8.61501 19.4647 8.80701 19.848 9.19101C20.2314 9.57501 20.423 10.0497 20.423 10.615V14.385C20.423 14.829 20.265 15.209 19.949 15.525C19.633 15.841 19.2527 15.9993 18.808 16H17V18.385C17 18.829 16.8417 19.209 16.525 19.525C16.2084 19.841 15.8284 19.9993 15.385 20H8.61603ZM5.19203 15H7.00003C7.02603 14.578 7.19336 14.216 7.50203 13.914C7.81069 13.6127 8.18203 13.462 8.61603 13.462H15.385C15.8184 13.462 16.1894 13.613 16.498 13.915C16.8067 14.2163 16.974 14.578 17 15H18.808C18.9874 15 19.1347 14.9423 19.25 14.827C19.3654 14.7117 19.423 14.5643 19.423 14.385V10.615C19.423 10.3323 19.3274 10.095 19.136 9.90301C18.9447 9.71101 18.707 9.61501 18.423 9.61501H5.57703C5.29369 9.61501 5.05636 9.71101 4.86503 9.90301C4.67369 10.095 4.57769 10.3327 4.57703 10.616V14.385C4.57703 14.5643 4.63469 14.7117 4.75003 14.827C4.86536 14.9423 5.01269 15 5.19203 15ZM16 8.61601V6.23001C16 6.05001 15.9424 5.90268 15.827 5.78801C15.7117 5.67268 15.5644 5.61501 15.385 5.61501H8.61503C8.43569 5.61501 8.28836 5.67268 8.17303 5.78801C8.05769 5.90335 8.00003 6.05068 8.00003 6.23001V8.61501H7.00003V6.23001C7.00003 5.78601 7.15836 5.40568 7.47503 5.08901C7.79103 4.77235 8.17103 4.61401 8.61503 4.61401H15.385C15.829 4.61401 16.209 4.77235 16.525 5.08901C16.8417 5.40568 17 5.78568 17 6.22901V8.61501L16 8.61601ZM17.616 12.116C17.8994 12.116 18.1367 12.02 18.328 11.828C18.5194 11.636 18.6154 11.3987 18.616 11.116C18.6167 10.8333 18.5207 10.5957 18.328 10.403C18.1354 10.2103 17.898 10.1143 17.616 10.115C17.334 10.1157 17.0964 10.2117 16.903 10.403C16.7097 10.5943 16.614 10.832 16.616 11.116C16.618 11.4 16.7137 11.6373 16.903 11.828C17.0924 12.0187 17.33 12.1147 17.616 12.116ZM16 18.384V15.077C16 14.897 15.9424 14.7493 15.827 14.634C15.7117 14.5187 15.5644 14.461 15.385 14.461H8.61503C8.43569 14.461 8.28836 14.5187 8.17303 14.634C8.05769 14.75 8.00003 14.8977 8.00003 15.077V18.385C8.00003 18.5643 8.05769 18.7117 8.17303 18.827C8.28836 18.9423 8.43603 19 8.61603 19H15.385C15.5644 19 15.7117 18.9423 15.827 18.827C15.9424 18.7117 16 18.564 16 18.384ZM5.19203 9.61601H4.57703H19.423H5.19203Z" fill="#121212"/>
</svg>
