<svg width="129" height="160" viewBox="0 0 129 160" fill="none" xmlns="http://www.w3.org/2000/svg">
<path d="M34.3941 21.1707L37.0428 58.6867C37.2526 61.6391 38.5737 64.4021 40.74 66.4189C42.9062 68.4358 45.7564 69.5564 48.7162 69.5551C50.3183 69.5554 51.9034 69.2265 53.3731 68.589C54.8429 67.9514 56.1661 67.0188 57.2606 65.8488C58.355 64.6788 59.1975 63.2965 59.7358 61.7876C60.274 60.2786 60.4966 58.6751 60.3896 57.0766C60.1562 53.5062 59.9428 50.5838 59.9428 50.5838C59.9428 50.5838 69.028 49.1709 69.1407 40.0898C69.2051 34.8568 68.2994 22.9419 67.5306 13.8245C67.2764 10.8515 65.9157 8.08209 63.7175 6.06428C61.5193 4.04647 58.6438 2.92722 55.6599 2.92798H50.1573C47.913 3.05887 45.7179 3.6387 43.7017 4.63314C41.6856 5.62758 39.8894 7.01641 38.4196 8.71742C36.9498 10.4184 35.8362 12.397 35.1448 14.5361C34.4533 16.6752 34.1981 18.9312 34.3941 21.1707Z" fill="#FFBE9D"/>
<path d="M59.9518 50.4709C59.9518 50.4709 54.2116 50.9378 48.1133 47.1057C48.1133 47.1057 50.9109 53.6428 59.9719 52.8257L59.9518 50.4709Z" fill="#AA6550"/>
<path d="M64.6928 24.8176C64.6962 25.1559 64.5671 25.4821 64.3332 25.7266C64.0993 25.971 63.7791 26.1143 63.441 26.1258C63.2762 26.139 63.1104 26.119 62.9534 26.0671C62.7964 26.0152 62.6514 25.9325 62.5268 25.8237C62.4023 25.7149 62.3008 25.5823 62.2283 25.4338C62.1558 25.2852 62.1137 25.1236 62.1046 24.9585C62.1011 24.6205 62.2295 24.2944 62.4625 24.0494C62.6954 23.8044 63.0146 23.6598 63.3524 23.6462C63.5178 23.6331 63.6841 23.6532 63.8415 23.7053C63.999 23.7574 64.1445 23.8404 64.2694 23.9496C64.3943 24.0587 64.4961 24.1917 64.5688 24.3408C64.6415 24.4899 64.6837 24.652 64.6928 24.8176Z" fill="#263238"/>
<path d="M65.9488 22.95C65.7878 23.1191 64.8056 22.3946 63.4128 22.3986C62.0201 22.4026 60.9976 23.099 60.8407 22.9299C60.7682 22.8534 60.9332 22.5274 61.376 22.2215C61.9801 21.8038 62.6986 21.5831 63.433 21.5895C64.1562 21.5865 64.8615 21.815 65.4456 22.2416C65.8844 22.5717 66.0293 22.8776 65.9488 22.95Z" fill="#263238"/>
<path d="M51.0756 24.8175C51.079 25.1559 50.9499 25.4821 50.716 25.7265C50.4821 25.9709 50.1619 26.1142 49.8238 26.1258C49.659 26.1389 49.4932 26.1189 49.3362 26.0671C49.1792 26.0152 49.0342 25.9324 48.9097 25.8236C48.7851 25.7149 48.6836 25.5823 48.6111 25.4337C48.5386 25.2851 48.4965 25.1235 48.4874 24.9584C48.484 24.6197 48.6129 24.2931 48.8467 24.048C49.0805 23.8029 49.4008 23.6587 49.7392 23.6462C49.9043 23.6336 50.0701 23.6541 50.2271 23.7064C50.3842 23.7588 50.5291 23.8419 50.6536 23.951C50.7781 24.0601 50.8795 24.193 50.952 24.3417C51.0244 24.4905 51.0665 24.6523 51.0756 24.8175Z" fill="#263238"/>
<path d="M52.2353 23.2074C52.0743 23.3764 51.0881 22.6478 49.6953 22.6519C48.3025 22.6559 47.2801 23.3563 47.1231 23.1832C47.0507 23.1067 47.2117 22.8048 47.6585 22.4788C48.2638 22.0632 48.9812 21.8414 49.7154 21.8428C50.4378 21.8453 51.1414 22.0733 51.7281 22.4949C52.1668 22.829 52.3118 23.1349 52.2353 23.2074Z" fill="#263238"/>
<path d="M57.299 33.5606C57.299 33.4801 58.1604 33.3311 59.5652 33.1581C59.9194 33.1178 60.2576 33.0494 60.318 32.8038C60.3488 32.4362 60.2659 32.0681 60.0805 31.7492C59.7477 30.8878 59.3962 29.9834 59.0258 29.0361C57.5646 25.1718 56.5019 21.9958 56.6589 21.9395C56.8159 21.8831 58.1282 24.9665 59.5934 28.8268C59.9449 29.7822 60.2817 30.6932 60.6038 31.56C60.7366 31.9625 60.9701 32.4214 60.7849 32.9568C60.7343 33.0825 60.6553 33.1949 60.554 33.285C60.4528 33.3751 60.332 33.4405 60.2012 33.4761C60.0048 33.532 59.8016 33.5604 59.5974 33.5606C58.1805 33.633 57.303 33.6411 57.299 33.5606Z" fill="#263238"/>
<path d="M53.1925 34.5267C53.4179 34.5267 53.4219 36.0282 54.718 37.103C56.0142 38.1777 57.6243 38.0127 57.6364 38.222C57.6606 38.3186 57.2782 38.5158 56.5979 38.536C55.7102 38.5484 54.8465 38.2477 54.1585 37.6866C53.4981 37.1473 53.0737 36.372 52.9751 35.525C52.9187 34.881 53.0878 34.5187 53.1925 34.5267Z" fill="#263238"/>
<path d="M52.5931 17.7412C52.4562 18.1438 51.0635 17.9425 49.4252 18.1438C47.7869 18.345 46.4625 18.7878 46.2452 18.4457C46.1486 18.2847 46.378 17.9264 46.9134 17.5601C47.6252 17.1104 48.43 16.8284 49.2669 16.7357C50.1037 16.6429 50.9507 16.7418 51.7438 17.0247C52.3677 17.2663 52.6535 17.5722 52.5931 17.7412Z" fill="#263238"/>
<path d="M65.438 18.9123C65.1924 19.2303 64.2304 18.9123 63.0751 18.8841C61.9199 18.856 60.9417 19.0975 60.7163 18.7674C60.6157 18.6064 60.7686 18.2884 61.1993 17.9865C61.7737 17.6267 62.4422 17.446 63.1197 17.4675C63.7971 17.489 64.4528 17.7117 65.0033 18.1073C65.4098 18.4293 65.5467 18.7795 65.438 18.9123Z" fill="#263238"/>
<path d="M37.4745 27.9856C37.3175 27.9172 31.2353 26.142 31.4365 32.3491C31.6378 38.5561 37.8247 37.0788 37.8328 36.8977C37.8408 36.7165 37.4745 27.9856 37.4745 27.9856Z" fill="#FFBE9D"/>
<path d="M35.8402 34.6072C35.812 34.6072 35.7355 34.6877 35.5544 34.7762C35.3015 34.8933 35.0135 34.9091 34.7493 34.8205C34.0851 34.5991 33.5015 33.5767 33.433 32.4577C33.402 31.9261 33.4886 31.3942 33.6866 30.8999C33.7406 30.7021 33.8423 30.5206 33.9826 30.3711C34.1229 30.2216 34.2977 30.1088 34.4917 30.0425C34.6151 30.0058 34.7475 30.0135 34.8659 30.0642C34.9843 30.115 35.0812 30.2055 35.1398 30.3202C35.2283 30.4893 35.1921 30.6141 35.2243 30.6261C35.2565 30.6382 35.3571 30.5175 35.2968 30.2598C35.2569 30.1079 35.1659 29.9743 35.0391 29.8815C34.9528 29.8192 34.855 29.7747 34.7513 29.7506C34.6477 29.7264 34.5403 29.723 34.4353 29.7406C34.1823 29.7996 33.9486 29.9223 33.7562 30.097C33.5639 30.2717 33.4194 30.4926 33.3364 30.7388C33.0916 31.2857 32.9825 31.8837 33.0184 32.4818C33.0989 33.7337 33.7752 34.897 34.6809 35.1144C34.8495 35.1577 35.0257 35.1624 35.1965 35.1283C35.3672 35.0941 35.5281 35.022 35.6671 34.9171C35.8321 34.7601 35.8643 34.6193 35.8402 34.6072Z" fill="#AA6550"/>
<path d="M34.0049 27.7765C34.9508 27.547 36.5891 28.4205 36.9917 29.3061C37.3942 30.1917 37.4828 31.198 37.8853 32.0876C38.2878 32.9772 39.1976 33.7742 40.1475 33.5488C40.4685 33.4484 40.7571 33.2648 40.9841 33.0166C41.2111 32.7684 41.3683 32.4645 41.4397 32.1359C41.5765 31.4726 41.5834 30.7891 41.4598 30.1232C41.0935 27.225 40.4857 24.3509 40.3689 21.4285C40.2522 18.5062 40.6668 15.4751 42.2004 12.9754C43.7341 10.4756 46.5478 8.65619 49.446 8.89369C51.3742 9.04665 53.1453 10.053 55.0613 10.3227C56.203 10.4737 57.364 10.3626 58.4562 9.99777C59.5485 9.63299 60.5432 9.02414 61.365 8.21743C61.5743 8.01214 62.5404 7.37212 62.5404 7.37212C62.5404 7.22318 62.3995 5.92702 61.8883 5.45204C58.0844 1.93793 51.2333 0.955751 46.2097 2.23178C41.1861 3.50781 36.4764 7.06216 34.3148 11.7476C32.1532 16.4331 32.7973 23.0185 33.9888 27.7684" fill="#263238"/>
<path d="M67.6157 12.4438C67.6157 12.4438 43.7938 4.79564 33.489 25.3892C33.489 25.3892 31.9473 20.2327 31.9473 17.4674C31.9473 15.6197 33.0502 4.62255 44.3694 1.16078C44.3694 1.16078 61.4167 -5.34415 67.6157 12.4438Z" fill="#0B9346"/>
<path d="M47.1339 12.9592C47.5572 13.6416 48.1331 14.2164 48.8164 14.6382C49.4996 15.06 50.2715 15.3173 51.0712 15.3899C51.8709 15.4625 52.6765 15.3484 53.4246 15.0565C54.1726 14.7646 54.8426 14.3029 55.3818 13.7079C55.6187 14.3002 56.035 14.8034 56.5723 15.1471C57.1096 15.4908 57.7411 15.6577 58.378 15.6245C59.015 15.5912 59.6256 15.3593 60.1242 14.9615C60.6228 14.5636 60.9843 14.0197 61.1582 13.406C61.804 14.1258 62.5939 14.7018 63.4767 15.0967C64.3824 15.4308 65.5297 15.302 66.1214 14.5452C66.7131 13.7884 66.5521 12.5929 65.9563 11.812C65.3057 11.0736 64.473 10.5185 63.5411 10.2019C60.717 8.95993 57.6137 8.49041 54.5486 8.84131C51.5095 9.24384 48.5669 10.7252 46.667 13.1323" fill="#263238"/>
<g opacity="0.4">
<path d="M67.6161 12.4438C65.6343 10.3554 62.9171 9.1209 60.0405 9.0021C53.0123 8.69215 39.8615 12.645 33.4733 25.3892C33.4733 25.3892 31.9316 20.2327 31.9316 17.4674C31.9316 15.6197 33.0346 4.62255 44.3538 1.16078C44.3699 1.16078 61.4171 -5.34415 67.6161 12.4438Z" fill="black"/>
</g>
<path d="M34.4834 22.9782C38.0136 17.5722 42.8842 13.1041 48.3627 9.69463C53.8412 6.28518 62.8941 2.89183 69.1334 1.24145C71.0092 0.742311 72.9615 0.307576 74.8735 0.637653C76.7855 0.967729 78.6533 2.24778 79.1242 4.11956C79.72 6.47437 75.5417 10.1052 73.5814 11.5302C71.621 12.9551 67.6158 15.0523 67.6158 15.0523C67.6158 15.0523 67.6722 10.6889 60.6842 9.79123C51.1845 8.54741 34.4834 22.9782 34.4834 22.9782Z" fill="#0B9346"/>
<path d="M54.0222 5.17393C54.0222 5.17393 57.4518 3.27398 60.9015 2.8312C60.3254 2.38343 59.6968 2.00764 59.0297 1.71216C57.1573 2.02166 55.3469 2.63056 53.668 3.5155L54.0222 5.17393Z" fill="#E0E0E0"/>
<path d="M73.3552 58.4128L65.7996 56.7464L62.7243 55.9775L60.1642 52.0085C60.1642 52.0085 58.9566 59.1052 54.3717 62.9252C53.7509 63.4331 53.0232 63.794 52.2432 63.9808C51.4632 64.1676 50.6509 64.1756 49.8674 64.004C48.8329 63.7866 47.6173 63.521 46.7156 63.2794C46.5224 63.2271 46.313 63.1587 46.0876 63.0782C42.773 61.8473 40.0113 59.4657 38.3067 56.368C37.2923 54.5646 36.4349 52.713 36.7288 52.0085L33.1422 59.4353L12.0093 69.1685L0.00976562 98.4809L23.2641 105.356L23.9886 129.508L19.6091 159.956L85.3949 160L83.0602 92.2577" fill="#0B9346"/>
<path d="M56.3483 84.6379C56.2143 84.6486 56.0797 84.6486 55.9457 84.6379L54.7744 84.6098L50.5921 84.4608H50.5115V84.3924C50.4431 82.577 50.3586 80.4274 50.266 78.129C50.1573 74.8161 50.0607 71.8213 49.9842 69.6194C49.9601 68.5487 49.9399 67.6752 49.9238 67.0392C49.9238 66.7534 49.9238 66.5199 49.9238 66.3388C49.9134 66.2573 49.9134 66.1748 49.9238 66.0933C49.9424 66.1724 49.9518 66.2535 49.952 66.3348C49.952 66.5199 49.9802 66.7373 49.9963 67.0352C50.0285 67.6712 50.0728 68.5447 50.1251 69.6114C50.2137 71.8132 50.3344 74.8081 50.4673 78.1169C50.5478 80.4194 50.6202 82.5689 50.6846 84.3843L50.5961 84.2998L54.7784 84.5212L55.9457 84.5977C56.081 84.5964 56.216 84.6099 56.3483 84.6379Z" fill="#263238"/>
<path d="M52.7698 74.8525C52.8621 74.7879 52.9712 74.7515 53.0838 74.7479C53.3451 74.7308 53.6058 74.7898 53.8344 74.9176C54.063 75.0455 54.2496 75.2368 54.3719 75.4684C54.4867 75.6943 54.5275 75.9506 54.4886 76.201C54.4457 76.4848 54.3213 76.75 54.1305 76.9643C53.9397 77.1787 53.6907 77.3331 53.4138 77.4086C53.1336 77.4674 52.8425 77.4477 52.5727 77.3519C52.3028 77.256 52.0646 77.0876 51.8842 76.8652C51.738 76.686 51.6357 76.4751 51.5854 76.2494C51.5351 76.0237 51.5382 75.7893 51.5944 75.565C51.6569 75.2597 51.8081 74.9796 52.0291 74.7599C52.1821 74.611 52.2948 74.5627 52.2988 74.5748C52.3029 74.5868 52.2183 74.6593 52.0895 74.8163C51.9111 75.0367 51.7907 75.2982 51.7393 75.5771C51.6984 75.7778 51.7032 75.9851 51.7534 76.1837C51.8036 76.3823 51.8978 76.5671 52.0291 76.7243C52.1901 76.9141 52.3988 77.0575 52.6338 77.1396C52.8688 77.2217 53.1214 77.2395 53.3655 77.1912C53.6031 77.1242 53.8167 76.991 53.9814 76.8071C54.1461 76.6232 54.255 76.3962 54.2954 76.1527C54.3288 75.9531 54.3063 75.7481 54.2303 75.5605C54.1542 75.3729 54.0277 75.21 53.8647 75.09C53.6438 74.9137 53.3704 74.816 53.0878 74.8123C52.8785 74.8284 52.7698 74.8686 52.7698 74.8525Z" fill="#263238"/>
<path d="M52.0576 66.3468C52.1507 66.2652 52.2653 66.2121 52.3877 66.1939C52.7219 66.1233 53.0703 66.1747 53.3699 66.3388C53.5825 66.4471 53.7639 66.6078 53.8972 66.8057C54.052 67.0375 54.1295 67.3122 54.1186 67.5907C54.1059 67.9082 53.9977 68.2144 53.8081 68.4694C53.6185 68.7244 53.3563 68.9162 53.0559 69.0197C52.7487 69.0982 52.4252 69.0844 52.1259 68.9798C51.8266 68.8753 51.5648 68.6847 51.3733 68.432C51.2034 68.2139 51.1013 67.9508 51.0795 67.6752C51.0669 67.4377 51.1053 67.2003 51.1922 66.9788C51.3171 66.6637 51.5382 66.3961 51.8242 66.214C51.9237 66.1395 52.0424 66.0949 52.1663 66.0852C52.1663 66.0852 52.0496 66.1456 51.8725 66.2824C51.6235 66.474 51.436 66.7343 51.3331 67.0312C51.2523 67.2438 51.2276 67.4736 51.2615 67.6985C51.2953 67.9234 51.3865 68.1358 51.5263 68.3152C51.6963 68.5322 51.9256 68.6953 52.1863 68.7846C52.4471 68.8739 52.7282 68.8856 52.9955 68.8184C53.2547 68.7264 53.4811 68.5602 53.6464 68.3405C53.8118 68.1207 53.9088 67.8571 53.9254 67.5826C53.9361 67.357 53.8833 67.1329 53.773 66.9358C53.6627 66.7387 53.4993 66.5765 53.3015 66.4676C53.0309 66.3082 52.716 66.2404 52.4038 66.2744C52.1824 66.3026 52.0657 66.3629 52.0576 66.3468Z" fill="#263238"/>
<path d="M49.916 98.8352C49.916 98.8352 49.9482 98.8151 50.0166 98.791L50.3185 98.6742C50.5882 98.5816 50.9707 98.4126 51.4577 98.1872C52.8178 97.5014 54.0664 96.6138 55.161 95.5546C56.7701 93.97 58.1923 92.2061 59.3997 90.2975C60.9095 87.9774 62.2884 85.5745 63.5297 83.1003C65.7618 78.5904 67.7203 73.9502 69.3945 69.2048C70.0507 67.3854 70.5619 65.9081 70.9201 64.8897L71.3227 63.7143C71.367 63.5935 71.4072 63.4929 71.4354 63.4124C71.4468 63.3775 71.4616 63.3438 71.4797 63.3118C71.4767 63.3489 71.4686 63.3855 71.4555 63.4204C71.4314 63.501 71.3992 63.6016 71.3629 63.7304C71.2703 64.0162 71.1456 64.4107 70.9886 64.938C70.6545 65.9645 70.1634 67.4498 69.5193 69.2733C67.8884 74.0315 65.9495 78.6785 63.7148 83.1848C62.4705 85.6661 61.0835 88.0733 59.5607 90.3941C58.3391 92.3129 56.8962 94.0814 55.2616 95.6633C54.1496 96.7208 52.8782 97.597 51.4939 98.2596C51.1152 98.4334 50.7268 98.5853 50.3306 98.7145L50.0207 98.8111C49.9872 98.8244 49.9519 98.8326 49.916 98.8352Z" fill="#263238"/>
<path d="M63.7753 90.7967C63.9484 90.7967 67.9536 90.5229 67.9536 90.5229C67.9536 90.5229 66.2992 93.4453 64.5764 94.5483H61.0703L63.7753 90.7967Z" fill="#FAFAFA"/>
<path d="M49.2158 107.687C49.2844 107.621 49.36 107.563 49.4412 107.514L50.1175 107.047C50.7012 106.644 51.5425 106.04 52.5528 105.264C54.5655 103.722 57.2463 101.419 60.1124 98.7868C61.5454 97.4705 62.9301 96.2307 64.1135 95.0392C65.1755 93.9945 66.1615 92.8753 67.0641 91.6901C67.6698 90.8906 68.2084 90.0424 68.6742 89.1542C68.8513 88.8442 68.96 88.5906 69.0446 88.4216C69.0828 88.3325 69.13 88.2475 69.1854 88.168C69.1596 88.2606 69.126 88.3508 69.0848 88.4377C69.0124 88.6107 68.9117 88.8724 68.7467 89.1904C68.3044 90.0989 67.7803 90.9653 67.1808 91.7787C66.2903 92.984 65.3093 94.1197 64.2464 95.1761C63.0589 96.3837 61.6822 97.6275 60.2492 98.9397C57.3832 101.572 54.6983 103.867 52.6414 105.38C51.6149 106.141 50.7575 106.721 50.1618 107.111C49.8599 107.304 49.6224 107.445 49.4614 107.546C49.3851 107.602 49.3027 107.649 49.2158 107.687Z" fill="#263238"/>
<path d="M37.9287 152.42C37.9287 152.42 37.9287 152.384 37.977 152.324C38.0253 152.263 38.0776 152.167 38.1421 152.058C38.291 151.829 38.5164 151.49 38.8183 151.064C39.4221 150.218 40.356 149.027 41.5877 147.626C44.0673 144.845 47.5412 141.049 51.3652 136.846L61.2233 126.103L64.2221 122.882L65.0272 122.009L65.2445 121.788L65.3251 121.715C65.3251 121.715 65.3049 121.747 65.2607 121.8L65.0594 122.037L64.2543 122.939L61.3038 126.219L51.5222 136.975L41.7004 147.715C40.4566 149.099 39.5066 150.271 38.8827 151.1C38.5728 151.502 38.3353 151.845 38.1783 152.07L37.9971 152.324C37.977 152.358 37.9541 152.39 37.9287 152.42Z" fill="#263238"/>
<path d="M72.832 58.2278C73.1782 58.747 80.9551 59.6125 82.8591 61.5124C84.7631 63.4124 103.791 77.9358 103.791 77.9358L90.2295 96.1866L81.4784 94.2584L72.832 58.2278Z" fill="#0B9346"/>
<path opacity="0.4" d="M101.485 76.1648L86.2812 95.3173L90.2301 96.1867L103.775 77.9158L101.485 76.1648Z" fill="black"/>
<path d="M76.9748 77.2274C76.9066 77.0196 76.8542 76.807 76.8178 76.5914C76.7735 76.3861 76.7212 76.1325 76.6849 75.8346C76.6487 75.5367 76.5883 75.1986 76.5682 74.8202C76.5481 74.4419 76.5078 74.0152 76.5078 73.5845C76.5078 73.1538 76.5078 72.6667 76.544 72.1676C76.6222 71.082 76.7905 70.0049 77.0472 68.9473C77.3212 67.8949 77.6834 66.8675 78.13 65.876C78.3434 65.4251 78.5326 64.9904 78.762 64.604C78.9914 64.2175 79.1887 63.8593 79.394 63.5413C79.5993 63.2233 79.7965 62.9496 79.9736 62.704C80.12 62.4934 80.2772 62.2906 80.4446 62.0962C80.5764 61.9214 80.7232 61.7584 80.8833 61.6091C80.7734 61.7975 80.6482 61.9766 80.509 62.1445C80.3842 62.3136 80.2312 62.5189 80.0702 62.7724C79.9092 63.026 79.7039 63.2957 79.5188 63.6218C79.3336 63.9478 79.1162 64.294 78.915 64.6885C78.7137 65.083 78.5124 65.4936 78.3071 65.9525C77.8832 66.94 77.536 67.9587 77.2686 68.9996C77.0179 70.0438 76.847 71.1055 76.7574 72.1756C76.7292 72.6707 76.693 73.1417 76.705 73.5804C76.7171 74.0192 76.7051 74.4298 76.7373 74.788C76.7695 75.1463 76.7936 75.5005 76.8218 75.7984C76.85 76.0963 76.8862 76.3499 76.9184 76.5552C76.9588 76.7769 76.9777 77.002 76.9748 77.2274Z" fill="#263238"/>
<path d="M83.0605 92.2338C82.4371 91.0252 81.8768 89.7851 81.3819 88.5184C80.8212 87.2807 80.3241 86.0151 79.8926 84.7266C80.516 85.9344 81.0775 87.1731 81.5752 88.4379C82.1369 89.6761 82.6327 90.9432 83.0605 92.2338Z" fill="#263238"/>
<path d="M23.265 78.9743C23.2328 78.9743 22.9068 78.3906 22.2909 77.4849C21.4873 76.3052 20.5676 75.2088 19.5456 74.2123C18.5185 73.2233 17.3968 72.3375 16.1966 71.5677C15.2707 70.98 14.6629 70.674 14.679 70.6418C14.8333 70.6844 14.9819 70.7452 15.1218 70.823C15.5157 71.0101 15.9 71.217 16.2731 71.4429C17.5113 72.1808 18.6595 73.0602 19.6946 74.0634C20.7262 75.0695 21.6392 76.1905 22.4157 77.4044C22.7095 77.8713 22.9309 78.2578 23.0678 78.5355C23.1513 78.6731 23.2176 78.8205 23.265 78.9743Z" fill="#263238"/>
<path opacity="0.4" d="M0.00976562 98.4691L0.947667 96.1868L26.6695 103.191L25.6511 106.053L0.00976562 98.4691Z" fill="black"/>
<path d="M68.6786 89.4482H78.4722V93.4736L65.9414 93.3931C65.9414 93.3931 67.8776 91.0624 68.6786 89.4482Z" fill="#FAFAFA"/>
<g opacity="0.2">
<path d="M33.7461 60.321C34.1003 63.4608 34.4868 66.7011 36.0405 69.4545C37.5943 72.2078 40.6334 74.3774 43.7611 73.9145C45.8462 73.6046 47.6133 72.2118 49.0343 70.65C50.4552 69.0882 51.6467 67.321 53.1964 65.892C54.1336 66.9014 55.1814 67.802 56.3201 68.5769C57.4704 69.3562 58.8516 69.721 60.2367 69.6114C61.6013 69.4464 62.3541 68.903 62.7848 67.5988C61.3276 68.0496 60.5266 67.9812 59.0734 67.7034C57.4689 67.3959 55.9623 66.7054 54.6818 65.6908C53.8284 65.0186 53.5185 64.0082 52.4357 64.0807C51.4334 64.137 50.6484 64.93 49.9883 65.6908C48.9225 66.9109 47.7535 68.0368 46.4943 69.056C45.2867 70.01 44.1193 70.6661 42.5817 70.6218C40.0497 70.5654 37.9767 68.5769 36.5799 66.4636C35.2906 64.5152 34.3381 62.3639 33.7622 60.0996" fill="black"/>
</g>
<path d="M63.3894 56.4043C63.4124 56.4776 63.4272 56.5532 63.4337 56.6297C63.4337 56.7787 63.482 56.996 63.5101 57.2778C63.5705 57.8413 63.6309 58.6585 63.6551 59.693C63.7095 62.3391 63.4569 64.9826 62.9023 67.5705V67.6349V67.6993H62.8419C61.4109 68.0348 59.9175 67.9946 58.5067 67.5826C57.353 67.2743 56.2628 66.7646 55.2864 66.0771C54.6255 65.628 54.0331 65.0857 53.5273 64.467C53.3913 64.3 53.265 64.1252 53.149 63.9437C53.1039 63.8818 53.0648 63.8158 53.0322 63.7465C53.6889 64.6052 54.4768 65.3551 55.3669 65.9685C56.3382 66.6245 57.4133 67.1117 58.5469 67.4095C59.9274 67.7995 61.3841 67.8341 62.7816 67.5102L62.7051 67.5866V67.5222C63.2533 64.9475 63.5232 62.3214 63.5101 59.689C63.5101 58.6786 63.4659 57.8615 63.4337 57.2939C63.4337 57.0322 63.4055 56.8189 63.3934 56.6458C63.3804 56.5659 63.379 56.4846 63.3894 56.4043Z" fill="#263238"/>
<path d="M51.1596 64.3463C51.1277 64.4322 51.0844 64.5134 51.0308 64.5878C50.896 64.811 50.7482 65.0261 50.588 65.2318C49.9869 65.9819 49.3245 66.6807 48.6076 67.321C48.1607 67.7235 47.6576 68.1703 47.1142 68.6292C46.8404 68.8587 46.5667 69.1002 46.2608 69.3417C45.9458 69.5795 45.6134 69.7934 45.2665 69.9817C44.5215 70.3926 43.6989 70.6435 42.8513 70.7184C41.9266 70.7968 41 70.5918 40.1946 70.1307C39.4106 69.6636 38.7078 69.0722 38.1135 68.3797C37.5502 67.7523 37.0259 67.0909 36.5437 66.3992C35.7308 65.2255 35.044 63.9694 34.4948 62.6516C34.1268 61.7656 33.8254 60.8533 33.5931 59.9225C33.5086 59.5924 33.4562 59.3347 33.424 59.1576C33.4017 59.0693 33.3882 58.979 33.3838 58.8879C33.4207 58.9717 33.4477 59.0595 33.4643 59.1496C33.5126 59.3227 33.577 59.5763 33.6696 59.9023C33.9337 60.8192 34.255 61.7186 34.6316 62.5953C35.1956 63.8928 35.8902 65.1296 36.7047 66.2865C37.1848 66.9686 37.7064 67.6206 38.2665 68.2388C38.8414 68.9132 39.5209 69.4908 40.2792 69.9495C41.0496 70.3894 41.935 70.5858 42.8191 70.5131C43.6423 70.4422 44.4422 70.2039 45.1699 69.8127C45.5115 69.6316 45.8385 69.4244 46.1481 69.1928C46.4419 68.9673 46.7237 68.7218 46.9974 68.4964C47.5449 68.0415 48.0521 67.6148 48.5029 67.2123C49.2224 66.5918 49.8951 65.9191 50.5156 65.1996C50.7289 64.942 50.8859 64.7287 50.9905 64.5838C51.0399 64.4999 51.0965 64.4204 51.1596 64.3463Z" fill="#263238"/>
<path d="M42.4893 110.597L45.5928 106.073C45.5928 106.073 47.7262 98.6584 47.4364 97.6198C47.1466 96.5813 46.2046 92.717 46.426 92.6687C46.6474 92.6204 48.97 91.759 50.2299 94.8585C51.0149 96.7906 51.2725 99.3346 51.357 100.977C51.3663 101.18 51.4194 101.378 51.5127 101.559C51.6061 101.739 51.7374 101.897 51.8978 102.022C52.0581 102.147 52.2436 102.235 52.4414 102.281C52.6392 102.327 52.8447 102.33 53.0436 102.289C55.1891 101.846 58.7596 101.174 59.609 101.38C60.8407 101.673 61.9436 103.243 62.0483 103.771C62.1529 104.298 61.3076 105.485 61.3076 105.485C61.3076 105.485 62.3542 106.021 62.6762 106.83C62.7205 106.938 62.7568 107.047 62.789 107.152C62.8872 107.476 62.8992 107.821 62.8236 108.151C62.7481 108.481 62.5877 108.786 62.3582 109.036L62.0282 109.398C62.0282 109.398 63.3364 109.756 63.4974 110.505C63.5847 111.052 63.5697 111.61 63.4531 112.151L62.2254 113.419C62.5676 113.738 62.7918 114.164 62.8614 114.627C62.9258 115.319 61.0862 117.042 61.0862 117.042L53.1926 119.86L50.0609 120.665L42.4893 110.597Z" fill="#FFBE9D"/>
<path d="M61.3321 105.493C60.4301 105.736 59.5166 105.933 58.5949 106.085C57.6894 106.306 56.7731 106.481 55.8496 106.608C56.0968 106.487 56.3576 106.397 56.6265 106.338C57.1136 106.202 57.7938 106.033 58.5546 105.88C59.3154 105.727 60.0037 105.614 60.5109 105.55C60.7809 105.494 61.0571 105.475 61.3321 105.493Z" fill="#AA6550"/>
<path d="M62.0521 109.398C61.3812 109.712 60.6816 109.962 59.963 110.142C59.2655 110.393 58.5457 110.576 57.8135 110.69C58.4844 110.375 59.184 110.126 59.9026 109.945C60.6001 109.695 61.3199 109.512 62.0521 109.398Z" fill="#AA6550"/>
<path d="M62.5234 113.25C61.8163 113.673 61.0742 114.036 60.3054 114.333C59.5647 114.695 58.7944 114.994 58.0029 115.226C58.71 114.803 59.4521 114.441 60.2209 114.144C60.9616 113.781 61.7319 113.482 62.5234 113.25Z" fill="#AA6550"/>
<path d="M24.3031 138.557L53.3338 119.083L46.0077 105.799L19.513 119.425L22.5199 105.111L4.5388 99.7893L0.0384892 124.304C-0.653866 135.204 8.08913 144.003 18.6274 141.141C20.6475 140.595 22.5647 139.722 24.3031 138.557Z" fill="#FFBE9D"/>
<path d="M15.6765 127.129C15.6242 127.013 15.5902 126.89 15.5759 126.763C15.5161 126.424 15.4825 126.081 15.4752 125.737C15.4601 124.591 15.7167 123.459 16.224 122.432C16.7383 121.407 17.4905 120.521 18.4178 119.848C18.694 119.643 18.9876 119.462 19.2953 119.308C19.4056 119.244 19.525 119.196 19.6495 119.167C19.6495 119.203 19.1785 119.433 18.5063 119.972C17.6261 120.66 16.9105 121.535 16.4119 122.534C15.9132 123.534 15.6441 124.632 15.6242 125.749C15.6041 126.594 15.7369 127.125 15.6765 127.129Z" fill="#AA6550"/>
<path d="M90.2295 96.1864C90.4106 95.9369 110.904 108.423 110.904 108.423L117.473 138.352L126.928 141.822C126.928 141.822 129.879 108.516 127.633 103.331C125.387 98.1468 102.615 79.4934 102.615 79.4934L90.2295 96.1864Z" fill="#FFBE9D"/>
<path d="M115.38 106.129C114.924 106.815 114.317 107.388 113.605 107.804C112.93 108.279 112.157 108.595 111.343 108.73C112.078 108.4 112.796 108.032 113.492 107.627C114.149 107.163 114.779 106.663 115.38 106.129Z" fill="#AA6550"/>
<path d="M65.583 96.2509L67.1891 124.976L99.9391 122.762L98.9489 101.379L94.1789 94.9587L65.583 96.2509Z" fill="#263238"/>
<path d="M58.1396 125.616C58.2363 126.167 61.0178 152.183 61.0178 152.183L109.76 148.797L118.008 147.691L114.204 123.466L108.38 122.069L58.1396 125.616Z" fill="#0B9346"/>
<path opacity="0.4" d="M108.38 122.065L58.1396 125.616C58.2363 126.167 61.0178 152.183 61.0178 152.183L111.765 148.653L108.38 122.065Z" fill="black"/>
<path d="M95.0283 123.092L67.1891 124.976L65.583 96.2509L94.1789 94.9587L95.0283 123.092Z" fill="#455A64"/>
<path d="M75.9639 95.784L76.5516 104.636L78.0409 103.782L78.8661 104.636L79.8926 103.782L81.4786 104.636V95.5344L75.9639 95.784Z" fill="#263238"/>
<path d="M87.6012 123.696L85.6973 102.136L104.306 107.264L106.102 122.146L87.6012 123.696Z" fill="#0B9346"/>
<path d="M104.294 107.268C104.261 107.323 104.222 107.375 104.177 107.421L103.819 107.844L102.45 109.406L97.6965 114.739L97.6241 114.82L97.5476 114.743L95.0358 112.087L88.4061 105.083L86.4135 102.941L85.8782 102.353C85.8118 102.288 85.7537 102.215 85.7051 102.136C85.7787 102.192 85.8474 102.254 85.9104 102.321L86.4739 102.885L88.5107 104.978L95.1847 111.942L97.7126 114.602H97.5637L102.394 109.317L103.807 107.796L104.189 107.393C104.22 107.348 104.255 107.306 104.294 107.268Z" fill="#263238"/>
<path d="M93.8727 111.261C93.925 111.29 92.5967 113.834 90.91 116.945C89.2234 120.057 87.8146 122.557 87.7622 122.528C87.7099 122.5 89.0383 119.956 90.7249 116.845C92.4115 113.733 93.8284 111.233 93.8727 111.261Z" fill="#263238"/>
<path d="M105.667 122.146C105.618 122.174 104.33 120.113 102.789 117.545C101.247 114.977 100.035 112.863 100.088 112.831C100.14 112.799 101.424 114.864 102.966 117.436C104.507 120.008 105.719 122.118 105.667 122.146Z" fill="#263238"/>
<path d="M97.5955 122.854L96.3799 109.124L108.23 112.393L109.374 121.868L97.5955 122.854Z" fill="#0B9346"/>
<path opacity="0.4" d="M97.5955 122.854L96.3799 109.124L108.23 112.393L109.374 121.868L97.5955 122.854Z" fill="white"/>
<path d="M108.23 112.393C108.146 112.527 108.047 112.653 107.936 112.767C107.715 113.029 107.425 113.363 107.075 113.769L104.056 117.175L103.984 117.259L103.907 117.179L102.297 115.488C100.643 113.753 99.1532 112.171 98.0825 111.02L96.8266 109.647C96.6641 109.486 96.5159 109.311 96.3838 109.124C96.5626 109.266 96.7295 109.422 96.8829 109.591L98.1912 110.915C99.2901 112.042 100.796 113.608 102.45 115.343L104.06 117.038H103.891L106.962 113.681L107.872 112.719C107.981 112.599 108.101 112.49 108.23 112.393Z" fill="#263238"/>
<path d="M101.59 114.937C101.638 114.965 100.809 116.591 99.7341 118.559C99.1173 119.773 98.4374 120.954 97.6973 122.098C98.2509 120.859 98.869 119.649 99.5489 118.475C100.166 117.26 100.847 116.079 101.59 114.937Z" fill="#263238"/>
<path d="M109.101 121.868C108.421 120.936 107.797 119.965 107.233 118.958C106.608 117.987 106.045 116.977 105.547 115.935C106.846 117.842 108.033 119.823 109.101 121.868Z" fill="#263238"/>
<path d="M105.147 111.813V112.916L106.878 113.117L106.971 112.276L105.147 111.813Z" fill="white"/>
<path d="M99.0371 106.214V107.824L102.306 108.363L102.487 107.132L99.0371 106.214Z" fill="white"/>
<path d="M86.2813 131.722L86.1203 123.696L79.6113 124.134L80.3077 132.29L86.2813 131.722Z" fill="#0B9346"/>
<path d="M107.507 135.939L96.5791 136.976L97.4962 146.641L108.424 145.605L107.507 135.939Z" fill="#FAFAFA"/>
<path d="M108.408 145.618C108.395 145.557 108.386 145.495 108.38 145.432C108.38 145.3 108.344 145.127 108.32 144.909C108.272 144.442 108.199 143.778 108.111 142.945C107.937 141.246 107.708 138.847 107.402 135.961L107.499 136.041L96.5779 137.092C96.5538 137.116 96.7551 136.879 96.6705 136.979V137.052V137.136V137.297L96.7027 137.627L96.7631 138.279C96.8074 138.71 96.8477 139.137 96.8879 139.564C96.9644 140.413 97.0449 141.242 97.1214 142.055C97.2703 143.665 97.4152 145.215 97.544 146.636L97.4434 146.556L105.329 145.855L107.567 145.666L108.167 145.622C108.238 145.616 108.309 145.616 108.38 145.622C108.318 145.636 108.255 145.646 108.191 145.65L107.611 145.718L105.397 145.952L97.4635 146.757H97.3709V146.664C97.2301 145.239 97.0811 143.702 96.9241 142.083C96.849 141.278 96.7698 140.448 96.6866 139.592C96.6464 139.165 96.6061 138.738 96.5659 138.304C96.5457 138.09 96.5256 137.873 96.5015 137.656L96.4733 137.325V137.164V137.08V137.007C96.3888 137.108 96.586 136.867 96.5699 136.891L107.495 135.872H107.583V135.961C107.841 138.871 108.054 141.294 108.207 143.009C108.276 143.834 108.328 144.491 108.368 144.957C108.368 145.171 108.396 145.34 108.404 145.469C108.409 145.518 108.411 145.568 108.408 145.618Z" fill="#263238"/>
<path d="M106.637 138.267C106.637 138.328 104.733 138.573 102.37 138.823C100.948 139.01 99.5169 139.126 98.083 139.169C98.083 139.113 99.987 138.863 102.35 138.613C104.713 138.364 106.633 138.211 106.637 138.267Z" fill="#263238"/>
<path d="M106.573 139.91C106.193 140.046 105.801 140.145 105.401 140.204C104.669 140.348 103.65 140.517 102.519 140.65C101.388 140.783 100.354 140.856 99.609 140.88C99.2072 140.916 98.8031 140.916 98.4014 140.88C98.7995 140.801 99.2034 140.755 99.609 140.743C100.35 140.674 101.372 140.582 102.499 140.449C103.626 140.316 104.645 140.171 105.381 140.047C105.774 139.971 106.173 139.926 106.573 139.91Z" fill="#263238"/>
<path d="M107.036 143.5C106.654 143.636 106.261 143.734 105.86 143.794C105.128 143.939 104.109 144.108 102.978 144.241C101.847 144.373 100.817 144.446 100.068 144.47C99.6664 144.509 99.2619 144.509 98.8604 144.47C99.2584 144.391 99.6623 144.346 100.068 144.333C100.809 144.269 101.835 144.172 102.962 144.039C104.089 143.907 105.108 143.762 105.844 143.637C106.237 143.561 106.636 143.516 107.036 143.5Z" fill="#263238"/>
<path d="M106.485 141.661C105.171 141.958 103.842 142.183 102.504 142.337C101.171 142.563 99.8276 142.719 98.4785 142.804C99.7933 142.511 101.122 142.286 102.46 142.128C103.793 141.904 105.136 141.748 106.485 141.661Z" fill="#263238"/>
<path d="M116.133 156.631C116.133 156.631 125.129 150.677 125.822 147.634C126.514 144.591 126.929 141.822 126.929 141.822L117.316 137.841L118.27 141.302C118.27 141.302 114.824 143.351 114.47 145.835C114.237 147.489 109.781 150.323 109.781 150.323C109.41 149.875 108.938 149.522 108.404 149.291C107.87 149.061 107.29 148.961 106.709 148.999L102.966 149.264L105.498 154.968L116.133 156.631Z" fill="#FFBE9D"/>
<path d="M119.647 148.472C119.516 148.552 119.373 148.61 119.224 148.645C118.942 148.737 118.523 148.83 118.016 148.991C117.444 149.195 116.914 149.503 116.454 149.901C115.875 150.395 115.227 150.801 114.53 151.108C113.242 151.657 111.811 151.777 110.449 151.45C110.209 151.404 109.98 151.319 109.768 151.197C109.682 151.148 109.612 151.074 109.567 150.985C109.523 150.896 109.506 150.796 109.519 150.698C109.526 150.636 109.548 150.578 109.583 150.527C109.618 150.477 109.665 150.436 109.72 150.408C109.801 150.38 109.845 150.408 109.845 150.408C109.845 150.408 109.801 150.408 109.74 150.452C109.698 150.483 109.663 150.523 109.639 150.569C109.615 150.615 109.601 150.666 109.599 150.718C109.592 150.801 109.61 150.884 109.652 150.956C109.694 151.028 109.757 151.086 109.833 151.12C110.039 151.221 110.258 151.291 110.485 151.326C111.817 151.597 113.2 151.456 114.45 150.923C115.131 150.62 115.765 150.222 116.334 149.74C116.816 149.339 117.371 149.036 117.968 148.846C118.483 148.701 118.902 148.633 119.176 148.56C119.33 148.518 119.487 148.489 119.647 148.472Z" fill="#AA6550"/>
<path d="M113.415 153.089C113.415 153.121 112.952 152.855 112.188 152.537C111.19 152.129 110.14 151.868 109.068 151.76C108.754 151.728 108.444 151.72 108.146 151.712H108.09L108.058 151.664C107.592 150.934 107.03 150.271 106.387 149.691C105.9 149.252 105.582 149.027 105.582 149.003C105.582 148.979 105.679 149.035 105.832 149.132C106.049 149.272 106.258 149.424 106.46 149.587C107.146 150.146 107.739 150.81 108.219 151.555L108.134 151.507C108.44 151.507 108.754 151.507 109.076 151.555C110.169 151.66 111.237 151.947 112.236 152.404C112.537 152.541 112.828 152.697 113.109 152.871C113.222 152.927 113.325 153.001 113.415 153.089Z" fill="#AA6550"/>
<path d="M115.847 151.454C115.847 151.511 115.239 151.74 114.531 152.143C113.822 152.545 113.303 152.968 113.263 152.92C113.927 152.145 114.841 151.627 115.847 151.454Z" fill="#AA6550"/>
<path d="M120.722 140.747C120.722 140.812 120.094 140.747 119.377 140.928C118.661 141.109 118.17 141.48 118.113 141.427C118.446 141.089 118.864 140.847 119.324 140.727C119.783 140.608 120.266 140.614 120.722 140.747Z" fill="#AA6550"/>
</svg>
