<svg width="110" height="170" viewBox="0 0 110 170" fill="none" xmlns="http://www.w3.org/2000/svg">
<g clip-path="url(#clip0_8511_37602)">
<path d="M158.732 147.906C158.732 147.955 125.815 147.994 85.2202 147.994C44.6109 147.994 11.7012 147.955 11.7012 147.906C11.7012 147.857 44.6109 147.818 85.2202 147.818C125.815 147.818 158.732 147.857 158.732 147.906Z" fill="#263238"/>
<path d="M33.5715 73.3088C33.5715 74.0816 32.9461 74.7079 32.1744 74.7079C31.4027 74.7079 30.7773 74.0816 30.7773 73.3088C30.7773 72.5359 31.4027 71.9097 32.1744 71.9097C32.9461 71.9097 33.5715 72.5359 33.5715 73.3088Z" fill="white"/>
<path d="M33.5719 73.3088C33.5553 73.3095 33.5556 73.1844 33.4949 72.9756C33.4348 72.7706 33.2912 72.4731 32.9822 72.2463C32.6834 72.0189 32.1959 71.8941 31.7267 72.0712C31.2612 72.2341 30.861 72.7302 30.8661 73.3085C30.8606 73.8872 31.2612 74.3832 31.7267 74.5461C32.1959 74.7232 32.6834 74.5985 32.9822 74.371C33.2912 74.1442 33.4348 73.8467 33.4949 73.6417C33.5556 73.4333 33.5553 73.3082 33.5719 73.3088C33.5794 73.3078 33.6042 73.434 33.5617 73.6587C33.5196 73.8787 33.3859 74.2088 33.0583 74.4706C32.7418 74.7324 32.2027 74.8898 31.6714 74.6994C31.1448 74.5264 30.6831 73.9661 30.6895 73.3085C30.6834 72.6513 31.1448 72.091 31.6714 71.9179C32.2027 71.7278 32.7422 71.8849 33.0583 72.1467C33.3859 72.4085 33.5196 72.7387 33.5617 72.9586C33.6042 73.1837 33.5797 73.3095 33.5719 73.3088Z" fill="#263238"/>
<path d="M23.2441 75.0158C27.6397 74.6177 30.8806 70.7261 30.4827 66.3244C30.0848 61.9224 26.1991 58.6771 21.8039 59.0753C17.4083 59.4734 14.1674 63.3651 14.5653 67.7667C14.9628 72.1683 18.8485 75.414 23.2441 75.0158Z" fill="white"/>
<path d="M23.2439 75.0159C23.2442 75.019 23.2004 75.0238 23.1149 75.0302C23.0205 75.0364 22.8945 75.0442 22.7346 75.054C22.6501 75.0588 22.5564 75.0639 22.4539 75.0697C22.3507 75.0703 22.2376 75.0608 22.115 75.0561C21.8699 75.0442 21.5864 75.0377 21.2724 74.9772C20.6395 74.9003 19.8784 74.6841 19.0561 74.3026C18.2369 73.9171 17.3623 73.3282 16.5869 72.484C15.8182 71.6418 15.128 70.5494 14.7681 69.2455C14.4171 67.9497 14.3186 66.4575 14.7243 64.9876C14.8065 64.6157 14.9528 64.2594 15.0879 63.8949C15.2567 63.5454 15.4088 63.1802 15.6301 62.8491C15.8247 62.5009 16.0786 62.1888 16.3217 61.8641C16.596 61.5656 16.8632 61.2541 17.1817 60.9889C17.8023 60.4483 18.5034 59.9621 19.2931 59.6344C20.077 59.2978 20.9224 59.0784 21.7942 58.9877C22.6684 58.92 23.5396 58.9836 24.3714 59.1736C25.2073 59.3542 25.9844 59.7064 26.6923 60.1267C27.0532 60.3303 27.372 60.5884 27.6952 60.8332C27.9926 61.1089 28.2985 61.3704 28.5521 61.6781C28.8291 61.964 29.0447 62.2962 29.2732 62.6097C29.4715 62.9442 29.6796 63.2683 29.8269 63.6195C30.4896 64.9927 30.6604 66.4786 30.547 67.8165C30.4265 69.1642 29.9434 70.3631 29.338 71.3293C28.7266 72.2994 27.9715 73.0358 27.2348 73.5621C26.4943 74.0854 25.7844 74.4345 25.1757 74.6239C24.8779 74.7399 24.5999 74.7973 24.3612 74.8531C24.2417 74.88 24.1324 74.9095 24.0305 74.9275C23.9287 74.9405 23.8357 74.952 23.7518 74.9629C23.5926 74.9816 23.4673 74.9966 23.3736 75.0078C23.2877 75.0159 23.2439 75.019 23.2439 75.0159C23.2436 75.0129 23.2867 75.0037 23.3712 74.9887C23.4642 74.9734 23.5882 74.9527 23.746 74.9269C23.8292 74.9136 23.9212 74.8993 24.022 74.8833C24.1229 74.8629 24.2308 74.8303 24.349 74.8011C24.5849 74.7402 24.8593 74.6783 25.1529 74.558C25.7532 74.3604 26.4509 74.0051 27.1767 73.4812C27.8992 72.9535 28.637 72.2212 29.2321 71.2617C29.8215 70.3059 30.289 69.1251 30.401 67.8015C30.5056 66.4874 30.3331 65.0305 29.6792 63.6878C29.5339 63.3441 29.3289 63.0272 29.134 62.7001C28.9089 62.3938 28.6977 62.0687 28.4254 61.7896C28.1766 61.489 27.8761 61.2337 27.5848 60.9641C27.2677 60.7254 26.9554 60.4728 26.6019 60.2746C25.9087 59.8645 25.1482 59.5201 24.3307 59.3447C23.5169 59.1594 22.665 59.0975 21.8098 59.1638C20.9566 59.2525 20.1303 59.4671 19.3633 59.7955C18.5906 60.1155 17.9048 60.5904 17.2964 61.1184C16.9844 61.3772 16.7227 61.6818 16.4534 61.9735C16.2154 62.2911 15.9656 62.5961 15.7748 62.9368C15.5571 63.2605 15.4078 63.6181 15.2411 63.9598C15.108 64.3165 14.9633 64.665 14.8819 65.0291C14.4795 66.4673 14.5709 67.9317 14.909 69.2053C15.2563 70.4875 15.9279 71.5646 16.6789 72.3993C17.4363 73.236 18.2936 73.8243 19.0989 74.2132C19.9069 74.5984 20.6572 74.8225 21.2829 74.9089C21.5932 74.9741 21.8743 74.986 22.1174 75.0034C22.239 75.0109 22.3513 75.0234 22.4539 75.0255C22.5557 75.0231 22.6491 75.0207 22.7333 75.0187C22.8932 75.016 23.0188 75.0139 23.1132 75.0122C23.1994 75.0115 23.2436 75.0129 23.2439 75.0159Z" fill="#263238"/>
<path d="M22.5416 69.9204L19.2949 67.5179L20.1321 66.3834L22.3091 67.9943L25.2791 64.4192L26.3621 65.3212L22.5416 69.9204Z" fill="#FF725E"/>
<path d="M34.4926 130.084L32.1152 150.274H35.7659L42.303 130.084H34.4926Z" fill="#E0E0E0"/>
<path d="M47.8232 122.352L45.4463 142.542H49.0969L55.6341 122.352H47.8232Z" fill="#E0E0E0"/>
<path d="M97.1755 130.084L99.7669 150.275H95.7871L88.6602 130.084H97.1755Z" fill="#E0E0E0"/>
<path d="M84.7884 122.847L87.3802 143.037H83.3999L76.2734 122.847H84.7884Z" fill="#E0E0E0"/>
<path d="M45.4147 55.8399C45.4147 55.8399 35.4381 56.5459 28.7485 59.995C23.4968 62.7026 20.9451 66.4977 19.9142 76.0396C18.8834 85.5815 12.1826 87.5416 12.011 90.8086C11.8432 93.9958 13.475 107.625 25.2042 134.899C25.7431 136.153 26.9777 136.963 28.3406 136.963H68.9947V55.2012L45.4147 55.8399Z" fill="#455A64"/>
<path d="M84.1552 55.8397C84.1552 55.8397 94.1318 56.5456 100.821 59.9947C106.073 62.7024 108.625 66.4975 109.656 76.0393C110.687 85.5812 117.387 87.5413 117.559 90.8083C117.728 94.0062 116.084 107.717 104.246 135.178C103.78 136.261 102.712 136.963 101.534 136.963H60.5752V55.2009L84.1552 55.8397Z" fill="#455A64"/>
<path d="M94.2149 123.25C94.2121 123.234 94.4676 123.183 94.9361 123.116C95.4052 123.08 96.1003 123.027 96.9386 123.207C97.7713 123.379 98.7416 123.82 99.5402 124.637C100.338 125.448 100.954 126.561 101.366 127.788C101.788 129.016 102.006 130.236 102.147 131.344C102.286 132.453 102.342 133.458 102.368 134.302C102.392 135.145 102.389 135.827 102.377 136.299C102.367 136.77 102.349 137.03 102.333 137.03C102.316 137.03 102.301 136.77 102.283 136.299C102.265 135.828 102.243 135.148 102.196 134.309C102.149 133.469 102.075 132.471 101.925 131.372C101.774 130.275 101.55 129.071 101.136 127.867C100.732 126.661 100.138 125.581 99.3803 124.793C98.6218 124.001 97.7037 123.562 96.9004 123.374C95.269 123.023 94.2135 123.325 94.2149 123.25Z" fill="#263238"/>
<path d="M98.2721 111.63C98.2721 111.697 83.1785 111.751 64.5634 111.751C45.9423 111.751 30.8516 111.697 30.8516 111.63C30.8516 111.563 45.9419 111.509 64.5634 111.509C83.1785 111.509 98.2721 111.563 98.2721 111.63Z" fill="#263238"/>
<path d="M33.8358 122.671C33.8358 122.687 33.5878 122.715 33.142 122.751C32.9187 122.765 32.652 122.834 32.3401 122.882C32.1839 122.907 32.0249 122.968 31.852 123.014C31.6785 123.058 31.499 123.116 31.319 123.201C30.5843 123.491 29.7767 124.023 29.1193 124.838C28.4577 125.648 27.9756 126.724 27.6679 127.897C27.3644 129.076 27.2395 130.239 27.1998 131.296C27.1579 132.355 27.1919 133.311 27.2488 134.111C27.3047 134.912 27.3798 135.558 27.4343 136.005C27.4894 136.451 27.5243 136.698 27.508 136.701C27.4917 136.704 27.425 136.463 27.3411 136.019C27.2576 135.576 27.156 134.93 27.0777 134.125C26.9984 133.322 26.9462 132.359 26.9765 131.288C27.0045 130.219 27.1229 129.039 27.4329 127.835C27.7472 126.638 28.2493 125.529 28.9459 124.696C29.6383 123.857 30.4919 123.318 31.2566 123.041C31.4445 122.959 31.6305 122.904 31.81 122.865C31.9886 122.824 32.1536 122.768 32.3135 122.748C32.6338 122.711 32.9071 122.656 33.1341 122.657C33.5873 122.65 33.8358 122.654 33.8358 122.671Z" fill="#263238"/>
<path d="M33.8365 122.671C33.8327 122.672 33.8159 122.635 33.7875 122.562C33.7553 122.476 33.7152 122.368 33.6663 122.236C33.5614 121.948 33.4085 121.521 33.2434 120.963C32.8923 119.853 32.4503 118.228 31.9226 116.215C31.4041 114.194 30.7891 111.798 30.1065 109.139C29.4165 106.478 28.6542 103.553 27.732 100.52C27.2527 99.0113 26.7888 97.5312 26.1967 96.1654C26.0643 95.8162 25.8983 95.4889 25.7295 95.1676C25.5714 94.8422 25.3943 94.5256 25.2087 94.2147C24.8506 93.5895 24.5089 92.9741 24.1503 92.3918C23.4407 91.2273 22.6267 90.1908 21.6285 89.5096C20.6358 88.8265 19.5295 88.4884 18.5177 88.3376C16.4663 88.0579 14.7873 88.5417 13.7532 89.0254C12.7028 89.5138 12.2267 89.9671 12.2062 89.9368C12.2034 89.9335 12.2333 89.906 12.2934 89.856C12.3657 89.7977 12.4552 89.7258 12.5652 89.637C12.8109 89.4535 13.1886 89.1991 13.7127 88.9404C14.7472 88.4249 16.4443 87.9048 18.541 88.1677C19.5761 88.311 20.71 88.6448 21.7422 89.3438C22.7782 90.0404 23.6193 91.1022 24.3406 92.2746C24.7052 92.8615 25.0502 93.4774 25.4097 94.0993C25.5938 94.4061 25.7729 94.7231 25.937 95.0584C26.1109 95.3871 26.2806 95.7209 26.4149 96.0721C27.0168 97.4527 27.483 98.9352 27.9637 100.45C28.8883 103.49 29.6445 106.419 30.3229 109.085C30.9863 111.749 31.5845 114.15 32.0885 116.174C32.5949 118.191 33.0112 119.821 33.3339 120.938C33.4849 121.499 33.6225 121.928 33.7124 122.221C33.7521 122.357 33.7847 122.466 33.8108 122.555C33.8318 122.63 33.8402 122.669 33.8365 122.671Z" fill="#263238"/>
<path d="M86.7318 102.729C86.7318 102.729 86.5905 102.737 86.3145 102.741C86.032 102.743 85.6236 102.745 85.0893 102.749C84.0057 102.75 82.4196 102.753 80.3784 102.756C76.2811 102.752 70.3636 102.746 63.0525 102.738C59.3944 102.73 55.3884 102.722 51.0878 102.714C48.9375 102.7 46.7136 102.685 44.4225 102.67C43.2783 102.672 42.1151 102.673 40.9439 102.73C40.6581 102.75 40.3448 102.761 40.093 102.823C39.8282 102.912 39.5619 103.056 39.3013 103.19C38.7801 103.472 38.2677 103.783 37.7595 104.107C36.7445 104.757 35.7444 105.461 34.7625 106.211C33.7838 106.964 32.8155 107.76 31.9324 108.654C31.5044 109.107 31.0624 109.58 30.7981 110.13C30.7351 110.267 30.6922 110.409 30.6852 110.544C30.6834 110.661 30.7384 110.836 30.7715 110.988L30.9999 111.927C31.3109 113.181 31.6382 114.445 31.973 115.718C32.3161 116.99 32.6621 118.272 33.0113 119.565C33.1955 120.208 33.3806 120.854 33.5661 121.502C33.6626 121.824 33.761 122.149 33.8729 122.46C33.8869 122.503 33.8995 122.516 33.9097 122.548C33.9149 122.558 33.9195 122.583 33.9247 122.582C33.9298 122.575 33.927 122.571 33.9288 122.575C34.0062 122.586 34.0832 122.599 34.168 122.605C34.3326 122.623 34.5023 122.631 34.6706 122.642C37.3786 122.772 40.1387 122.797 42.9273 122.84C54.09 122.974 64.7253 122.985 74.3979 122.964C79.2342 122.95 83.8295 122.923 88.1296 122.865C90.2794 122.834 92.356 122.8 94.3492 122.727C94.8472 122.707 95.3404 122.685 95.8253 122.648C95.9466 122.639 96.0669 122.628 96.1853 122.614C96.2459 122.608 96.3004 122.596 96.3568 122.586C96.4161 122.574 96.4235 122.563 96.4669 122.522C96.6091 122.371 96.7075 122.138 96.7979 121.925C97.1476 121.044 97.3826 120.132 97.6129 119.25C98.0614 117.477 98.4237 115.771 98.7612 114.157C98.8447 113.753 98.9268 113.355 99.0079 112.962C99.0746 112.568 99.2093 112.183 99.1711 111.818C99.0713 111.068 98.6041 110.435 98.1533 109.886C97.2082 108.791 96.1475 107.938 95.1763 107.166C94.1968 106.399 93.2759 105.732 92.453 105.123C91.6255 104.52 90.9326 103.926 90.2207 103.589C89.5218 103.232 88.8802 103.039 88.3571 102.924C87.8326 102.808 87.4228 102.771 87.1482 102.753C87.0111 102.741 86.9067 102.742 86.8367 102.737C86.7672 102.734 86.7318 102.729 86.7318 102.729C86.7318 102.729 86.8731 102.72 87.1496 102.729C87.4256 102.739 87.8377 102.769 88.3674 102.877C88.8956 102.986 89.5442 103.172 90.2533 103.526C90.9769 103.86 91.6814 104.454 92.509 105.048C93.3356 105.651 94.2611 106.313 95.2472 107.076C96.2254 107.845 97.2931 108.693 98.2563 109.799C98.7151 110.358 99.2009 110.993 99.3151 111.804C99.3562 112.22 99.2172 112.602 99.1543 112.994C99.0745 113.386 98.9939 113.785 98.9123 114.189C98.5803 115.806 98.2232 117.514 97.7789 119.293C97.5495 120.181 97.3192 121.092 96.9634 121.995C96.8655 122.218 96.7825 122.446 96.5937 122.652C96.5569 122.7 96.4566 122.759 96.396 122.765C96.3331 122.776 96.2683 122.79 96.2077 122.796C96.0846 122.811 95.9619 122.823 95.8393 122.832C95.3493 122.871 94.8551 122.894 94.3557 122.915C92.3588 122.993 90.2822 123.032 88.1315 123.067C83.8299 123.134 79.2342 123.168 74.3975 123.189C64.7239 123.222 54.0881 123.218 42.9231 123.084C40.1322 123.04 37.3767 123.016 34.6557 122.885C34.4851 122.874 34.3158 122.865 34.1429 122.846C34.0585 122.84 33.968 122.826 33.878 122.812C33.8398 122.802 33.7974 122.783 33.7624 122.762C33.734 122.74 33.7312 122.715 33.7144 122.691C33.6906 122.644 33.6584 122.585 33.6472 122.547C33.5297 122.22 33.4323 121.897 33.3353 121.572C33.1493 120.922 32.9642 120.275 32.78 119.63C32.4318 118.336 32.0858 117.052 31.7431 115.779C31.4088 114.505 31.082 113.24 30.7715 111.984L30.543 111.042C30.5104 110.879 30.4563 110.747 30.4512 110.541C30.46 110.355 30.515 110.187 30.585 110.033C30.8796 109.425 31.3291 108.956 31.7664 108.492C32.6644 107.584 33.6388 106.786 34.624 106.03C35.612 105.277 36.6167 104.571 37.6392 103.918C38.1511 103.593 38.6672 103.28 39.1969 102.995C39.4659 102.857 39.7261 102.714 40.0231 102.615C40.348 102.535 40.631 102.535 40.9313 102.512C42.1137 102.455 43.276 102.457 44.4225 102.457C46.7131 102.476 48.9371 102.495 51.0878 102.512C55.3884 102.532 59.3944 102.55 63.0525 102.567C70.3636 102.607 76.2811 102.639 80.3784 102.662C82.4196 102.679 84.0057 102.691 85.0893 102.7C85.6231 102.707 86.032 102.712 86.3145 102.716C86.5905 102.721 86.7318 102.729 86.7318 102.729Z" fill="#263238"/>
<path d="M96.8085 122.671C96.8048 122.669 96.8127 122.63 96.8328 122.554C96.8579 122.465 96.8887 122.355 96.9269 122.22C97.0137 121.929 97.147 121.501 97.2803 120.939C97.5755 119.822 97.9279 118.186 98.3438 116.162C98.7499 114.128 99.2316 111.715 99.7659 109.039C100.313 106.359 100.917 103.412 101.721 100.355C102.143 98.8323 102.569 97.3451 103.15 95.9617C103.3 95.6185 103.481 95.2893 103.643 94.9573C103.814 94.6305 104.014 94.3289 104.203 94.0226C104.587 93.4156 104.991 92.8375 105.419 92.2992C106.273 91.2215 107.241 90.3078 108.291 89.6644C109.339 89.0186 110.457 88.6661 111.489 88.5382C113.575 88.2832 115.26 88.808 116.288 89.3193C116.809 89.578 117.185 89.8306 117.428 90.0132C117.538 90.1014 117.627 90.1728 117.698 90.2312C117.758 90.2812 117.787 90.3082 117.785 90.3115C117.765 90.3419 117.291 89.8918 116.248 89.4048C115.219 88.9252 113.553 88.4364 111.512 88.7086C110.5 88.8454 109.416 89.1979 108.396 89.8357C107.376 90.4717 106.432 91.3719 105.595 92.4379C105.175 92.9711 104.778 93.544 104.398 94.1468C104.213 94.4503 104.013 94.7533 103.847 95.0741C103.691 95.3986 103.516 95.7179 103.368 96.055C102.799 97.4189 102.375 98.9009 101.955 100.417C101.154 103.464 100.544 106.408 99.985 109.083C99.4316 111.76 98.9495 114.175 98.5122 116.197C98.0744 118.219 97.6962 119.851 97.3722 120.963C97.2244 121.523 97.0761 121.948 96.974 122.235C96.9265 122.368 96.8882 122.475 96.857 122.562C96.8286 122.635 96.8122 122.672 96.8085 122.671Z" fill="#263238"/>
<path d="M97.9019 62.5938C97.9671 62.6096 95.8392 71.6155 93.1504 82.7061C90.4602 93.801 88.2274 102.779 88.1626 102.763C88.0973 102.747 90.2248 93.7431 92.9145 82.6487C95.6033 71.5581 97.8366 62.5779 97.9019 62.5938Z" fill="#263238"/>
<path d="M31.1458 65.4617C31.1537 65.4594 31.1994 65.5868 31.2787 65.832C31.3617 66.0986 31.4735 66.4572 31.6134 66.9073C31.8992 67.8677 32.3011 69.218 32.7949 70.8774C33.7777 74.2341 35.1042 78.8804 36.5211 84.0253C37.9375 89.1721 39.1753 93.8436 40.0486 97.2306C40.4734 98.9087 40.8193 100.274 41.065 101.246C41.175 101.705 41.2627 102.07 41.3275 102.341C41.3849 102.593 41.4114 102.725 41.403 102.728C41.3951 102.73 41.3527 102.601 41.28 102.354C41.204 102.085 41.1018 101.724 40.9732 101.27C40.7093 100.304 40.3382 98.9446 39.8822 97.275C38.9567 93.881 37.688 89.23 36.2865 84.0902C34.8612 78.9593 33.5712 74.3144 32.6294 70.9251C32.1668 69.2572 31.7901 67.8995 31.522 66.9339C31.3999 66.4782 31.3029 66.1158 31.2311 65.8455C31.1677 65.5962 31.1379 65.464 31.1458 65.4617Z" fill="#263238"/>
<path d="M49.367 11.2482C49.4416 9.89512 50.6482 8.70075 51.9998 8.64145C51.2053 7.33969 51.8707 5.45662 53.2162 4.74131C54.5618 4.02553 56.3223 4.39439 57.4548 5.41507C58.1197 4.30848 59.5701 3.74444 60.8066 4.1119C62.0431 4.47937 62.9508 5.74471 62.9051 7.03573C64.1416 6.63932 65.5375 7.65766 65.7832 8.93421C66.0289 10.2108 65.3091 11.5396 64.2456 12.2848C64.8778 12.7629 64.8125 13.8051 64.2969 14.4069C63.7807 15.0088 62.97 15.2604 62.1909 15.4038L57.2772 16.8629C56.0981 17.5231 54.6481 17.856 53.3873 17.3709C52.1262 16.8858 51.2198 15.3963 51.6968 14.1305C50.3596 13.9218 49.2924 12.6014 49.367 11.2482Z" fill="#263238"/>
<path d="M49.4085 10.693C49.4038 10.6879 49.4593 10.6281 49.5801 10.5263C49.7059 10.4329 49.906 10.3031 50.1974 10.2153C50.4869 10.1304 50.8683 10.0804 51.2981 10.1659C51.7229 10.2476 52.2092 10.4698 52.564 10.9153L52.4162 10.9605C52.4516 10.3638 52.7001 9.70407 53.1901 9.17226C53.6713 8.63904 54.3571 8.20901 55.1628 8.03532C55.9703 7.86443 56.8632 7.97602 57.6879 8.31873C58.5169 8.65725 59.282 9.21194 59.9222 9.91278C60.2238 10.2504 60.4896 10.637 60.6141 11.0829C60.7469 11.5232 60.6756 12.033 60.4159 12.4047C60.2914 12.5947 60.1143 12.7526 59.9058 12.852C59.6951 12.9449 59.4517 12.972 59.2326 12.9108C58.7911 12.7899 58.4778 12.4224 58.3663 12.0176C58.2558 11.6007 58.3789 11.1786 58.5883 10.8569C58.799 10.531 59.1104 10.2919 59.4382 10.1518C60.1021 9.86889 60.7824 9.89551 61.3614 9.99449C62.5392 10.2158 63.3332 10.8433 63.7714 11.3201C63.9971 11.5601 64.136 11.7762 64.2283 11.921C64.3127 12.0718 64.3533 12.1521 64.3458 12.1563C64.323 12.1717 64.1607 11.8416 63.7034 11.3854C63.2544 10.9381 62.4664 10.3536 61.3321 10.1635C60.7758 10.0781 60.1217 10.0683 59.5203 10.3358C59.2223 10.4679 58.9519 10.6827 58.7678 10.9727C58.5855 11.257 58.4889 11.6231 58.5827 11.9583C58.674 12.2898 58.9468 12.5971 59.2909 12.6853C59.6359 12.782 60.0135 12.5947 60.2192 12.2712C60.4364 11.9495 60.498 11.5372 60.3819 11.1468C60.2718 10.7551 60.0299 10.396 59.7417 10.0748C58.5281 8.72542 56.7438 7.934 55.208 8.25243C54.4513 8.40792 53.7958 8.80806 53.3361 9.3044C52.8675 9.79979 52.6265 10.4114 52.5812 10.9694L52.5635 11.1856L52.433 11.0147C52.1183 10.6024 51.6711 10.3811 51.2716 10.2924C50.8678 10.1995 50.5023 10.2336 50.2211 10.3017C49.6523 10.453 49.4243 10.7196 49.4085 10.693Z" fill="#455A64"/>
<path d="M53.9743 15.7688C53.9794 15.7711 53.9645 15.8136 53.9253 15.8925C53.8806 15.9673 53.806 16.0784 53.6722 16.1867C53.5388 16.2932 53.3481 16.3996 53.1015 16.4458C52.8586 16.4907 52.5485 16.4757 52.2637 16.3016L51.8161 16.028L52.3205 16.1802C52.4893 16.2311 52.6665 16.2843 52.8525 16.3408L53.5146 16.5406L52.8227 16.4883C52.4105 16.457 51.9592 16.1993 51.7321 15.7385C51.5046 15.2814 51.5741 14.6426 51.9895 14.2154L52.1462 14.3466C51.63 15.1137 50.6141 15.6255 49.5371 15.5372C48.4447 15.4775 47.418 14.6221 47.0576 13.4996C46.8063 12.7446 46.8483 11.8911 47.2553 11.2304C47.6386 10.5552 48.5748 10.2363 49.2186 10.6584L49.0853 10.8391C48.6578 10.4717 48.4377 9.94311 48.3981 9.44305C48.3542 8.93971 48.4745 8.45272 48.7109 8.06378C48.9524 7.67858 49.3142 7.40077 49.6919 7.28637C50.0677 7.16404 50.4393 7.1617 50.7568 7.22427C51.4011 7.34987 51.8193 7.70473 52.0296 7.97554C52.2417 8.25428 52.2776 8.44478 52.2776 8.44478C52.2585 8.45412 52.1951 8.27529 51.9737 8.02269C51.7545 7.7771 51.3428 7.45866 50.7325 7.35968C50.4318 7.30972 50.0854 7.32279 49.745 7.44232C49.4019 7.55531 49.0858 7.81025 48.8722 8.16184C48.6643 8.51716 48.5599 8.96493 48.606 9.42344C48.648 9.87961 48.8536 10.3484 49.2289 10.6659L49.0956 10.8466C48.5841 10.5156 47.7887 10.763 47.4572 11.3569C47.0996 11.9406 47.0548 12.7283 47.2884 13.4226C47.6246 14.4624 48.5627 15.2454 49.5576 15.3047C50.5484 15.3934 51.4981 14.926 51.9783 14.2299L52.135 14.3611C51.7811 14.7122 51.7074 15.2701 51.8963 15.661C52.0823 16.0616 52.4777 16.302 52.8371 16.338L52.8078 16.4855C52.6236 16.4239 52.4478 16.3655 52.2804 16.31L52.3373 16.1886C52.5802 16.3478 52.859 16.3744 53.0852 16.3431C53.3141 16.3109 53.4978 16.2213 53.6297 16.1302C53.8932 15.9383 53.957 15.7571 53.9743 15.7688Z" fill="#263238"/>
<path d="M67.9139 12.8753C67.8943 12.8576 68.1036 12.6825 68.3279 12.2646C68.5475 11.8579 68.7825 11.1678 68.6174 10.3428C68.4724 9.53176 67.7763 8.64416 66.7166 8.3374C66.4555 8.26129 66.1762 8.2272 65.8946 8.23794C65.62 8.25008 65.329 8.33319 65.184 8.5433C65.0251 8.75622 65.0661 9.06158 65.3151 9.15496C65.5622 9.25675 65.8792 9.20259 66.1645 9.08679C66.7431 8.86174 67.2192 8.40556 67.4383 7.86721C67.6714 7.32792 67.5786 6.72234 67.318 6.25122C66.7879 5.28004 65.7295 4.86868 64.915 4.87708C64.0739 4.87708 63.4482 5.24922 63.0892 5.54104C62.7251 5.84407 62.5834 6.07473 62.5643 6.06025C62.5582 6.05605 62.5876 5.99582 62.6589 5.88983C62.7298 5.78384 62.8487 5.63583 63.0272 5.4696C63.3788 5.14743 64.0175 4.72954 64.9132 4.70526C65.3538 4.69405 65.8428 4.78511 66.3119 5.01576C66.7781 5.24455 67.2266 5.62182 67.5143 6.14336C67.8057 6.6523 67.9199 7.34473 67.6588 7.95686C67.4131 8.56525 66.8919 9.06391 66.2527 9.31371C65.9403 9.43604 65.572 9.52055 65.2181 9.37721C65.0423 9.30484 64.8903 9.13675 64.8577 8.93831C64.8236 8.74174 64.8861 8.55358 64.9887 8.40697C65.2116 8.09927 65.5794 8.02083 65.8825 8.00635C66.1935 7.99655 66.497 8.03717 66.7791 8.12261C67.9209 8.46626 68.6515 9.43698 68.7853 10.3106C68.9377 11.194 68.6613 11.9056 68.409 12.3122C68.2831 12.5219 68.1531 12.6615 68.0649 12.753C67.9712 12.8399 67.9195 12.8814 67.9139 12.8753Z" fill="#263238"/>
<path d="M53.1397 16.8131C53.6936 15.7513 55.2187 15.6164 56.3181 16.0884C56.2178 15.269 56.6328 14.4089 57.3354 13.9775C58.038 13.5461 58.9919 13.5671 59.6754 14.0284C59.9384 14.2058 60.1981 14.4528 60.5142 14.4318C60.8462 14.4099 61.0737 14.1045 61.3143 13.8748C62.1782 13.0502 63.7378 13.1389 64.5034 14.0559C65.2689 14.973 65.0792 16.5259 64.1154 17.231L63.9648 16.6469C62.1316 18.3997 59.7449 19.5632 57.2361 19.9265C56.1828 20.0791 55.0462 20.0782 54.1309 19.5347C53.2162 18.9917 52.6469 17.7576 53.1397 16.8131Z" fill="#0B622F"/>
<path d="M50.44 26.177C49.5243 24.8281 49.6007 22.8839 50.6195 21.6111C51.0153 21.1166 51.5422 20.7435 52.1254 20.5017C52.2229 19.4866 52.5371 18.5047 53.2062 17.752C54.1834 16.6524 56.0614 16.2929 57.1366 17.2968C57.9376 15.5379 60.389 14.7852 62.0372 15.7919C63.4546 14.1339 66.432 14.2408 67.7277 15.9959C68.5739 15.4184 69.7642 15.3983 70.6291 15.9469C71.4944 16.4955 71.9849 17.5816 71.825 18.5948C72.8218 18.4295 73.8932 18.8348 74.5319 19.6187C75.1707 20.4027 75.3525 21.5349 74.9917 22.48C75.8351 22.5285 76.6207 23.1285 76.8911 23.9302C77.1615 24.7319 76.8995 25.6858 76.258 26.2368C77.3574 27.4984 77.0301 29.7204 75.6141 30.6113C75.9027 31.8136 75.1143 33.1733 73.9282 33.5179L56.3025 38.7655C53.3414 38.5549 52.539 36.627 52.4182 34.8341C51.7114 34.582 51.1146 34.0305 50.8204 33.339C50.5025 32.5906 50.5435 31.6988 50.9291 30.983C50.1379 30.4955 49.5933 29.6271 49.4991 28.7016C49.4054 27.7753 49.7635 26.8144 50.44 26.177Z" fill="#263238"/>
<path d="M57.3246 22.1992L68.1376 19.796C71.5859 19.5322 73.7478 23.8381 73.8644 27.2993C73.994 31.1448 74.0005 35.8448 73.463 38.6953C72.3818 44.4276 67.953 45.0313 67.953 45.0313C67.952 45.0117 67.9366 45.1168 67.8541 46.8266L67.7762 49.601C67.745 50.7226 67.3725 51.8287 66.6288 52.6677C64.9266 54.5886 62.0592 54.6633 58.7853 53.1879C56.8877 52.3325 57.0057 51.2544 56.773 48.6028L55.2354 23.535C55.4647 23.1484 56.2774 22.279 57.3246 22.1992Z" fill="#FFBF9D"/>
<path d="M71.6047 32.4927C71.607 32.883 71.2788 33.207 70.8717 33.2168C70.4656 33.2267 70.1337 32.9194 70.1309 32.5286C70.1285 32.1383 70.4568 31.8138 70.8629 31.804C71.2699 31.7937 71.6019 32.1023 71.6047 32.4927Z" fill="#263238"/>
<path d="M72.5172 30.2516C72.423 30.3454 71.8761 29.9149 71.0826 29.8934C70.29 29.8608 69.6955 30.253 69.6125 30.153C69.5715 30.1087 69.6699 29.9378 69.9286 29.7599C70.1837 29.5829 70.6149 29.4162 71.1091 29.4331C71.6033 29.4503 72.0141 29.6446 72.2477 29.8383C72.4855 30.033 72.5633 30.2095 72.5172 30.2516Z" fill="#263238"/>
<path d="M64.717 32.2666C64.7193 32.6569 64.3911 32.9809 63.984 32.9907C63.5779 33.0006 63.246 32.6933 63.2432 32.3025C63.2408 31.9122 63.5691 31.5877 63.9756 31.5779C64.3827 31.5681 64.7146 31.8762 64.717 32.2666Z" fill="#263238"/>
<path d="M65.0166 30.2515C64.9219 30.3449 64.3746 29.9149 63.5815 29.8939C62.7889 29.8612 62.1944 30.2529 62.1114 30.1535C62.0709 30.1091 62.1678 29.9382 62.428 29.7608C62.683 29.5838 63.1138 29.4171 63.6081 29.4335C64.1023 29.4508 64.5126 29.645 64.7466 29.8388C64.9839 30.033 65.0623 30.2095 65.0166 30.2515Z" fill="#263238"/>
<path d="M67.2569 35.5763C67.2545 35.531 67.7506 35.46 68.5526 35.3811C68.7558 35.3662 68.9489 35.3316 68.9871 35.1939C69.0393 35.0487 68.961 34.8274 68.8691 34.5883C68.6929 34.0915 68.5087 33.5709 68.3148 33.0255C67.5469 30.8011 66.9972 28.9741 67.0867 28.9442C67.1762 28.9139 67.8718 30.6928 68.6397 32.9172C68.8239 33.4654 69.0006 33.9883 69.1685 34.4884C69.2384 34.7214 69.3629 34.9866 69.2505 35.2877C69.1913 35.4376 69.0398 35.5436 68.9088 35.5749C68.7778 35.6108 68.6635 35.6094 68.5633 35.6127C67.7581 35.6323 67.2587 35.6216 67.2569 35.5763Z" fill="#263238"/>
<path d="M67.9747 45.0323C67.9747 45.0323 64.0988 45.1691 60.333 42.7495C60.333 42.7495 62.1196 46.835 67.8907 46.4648L67.9747 45.0323Z" fill="#6F4439"/>
<path d="M64.5661 37.1613C64.781 36.8335 65.1573 36.6686 65.5382 36.6672C66.087 36.6654 66.5406 36.8671 66.8819 37.3835C66.9994 37.5334 66.9766 37.9457 66.923 38.0577C66.8693 38.1703 66.9099 38.1156 66.8194 38.1913C66.4907 38.4653 66.1443 38.738 65.7298 38.8244C65.3154 38.9108 64.8137 38.7632 64.5563 38.3523C64.3274 37.9886 64.3512 37.489 64.5661 37.1613Z" fill="#6F4439"/>
<path d="M64.7605 36.0824C64.8896 36.0777 64.871 36.9411 65.5941 37.5705C66.3158 38.2022 67.2366 38.127 67.2404 38.2475C67.2511 38.3021 67.032 38.4104 66.6441 38.4118C66.2636 38.416 65.7111 38.2806 65.2687 37.8954C64.8276 37.5093 64.6458 37.0036 64.6248 36.6488C64.6005 36.2878 64.7017 36.0763 64.7605 36.0824Z" fill="#263238"/>
<path d="M65.1278 26.7864C65.0555 27.0045 64.2601 26.9246 63.3323 27.0638C62.4012 27.1838 61.6585 27.4779 61.5294 27.2879C61.4715 27.1968 61.597 26.9895 61.8944 26.772C62.1895 26.5544 62.6642 26.3424 63.2213 26.2644C63.7785 26.1874 64.2928 26.2616 64.6359 26.39C64.9814 26.518 65.1586 26.6828 65.1278 26.7864Z" fill="#263238"/>
<path d="M72.3634 27.4156C72.1979 27.5875 71.5978 27.3671 70.8649 27.3181C70.1333 27.2461 69.5035 27.3652 69.3706 27.1686C69.3128 27.0734 69.4205 26.8983 69.7011 26.7423C69.9781 26.5869 70.4327 26.4725 70.9362 26.5136C71.4393 26.5556 71.8673 26.7428 72.1121 26.9417C72.362 27.1411 72.437 27.3316 72.3634 27.4156Z" fill="#263238"/>
<path d="M68.2167 19.179C68.2238 19.2212 68.2289 19.264 68.2355 19.3063L68.2148 19.3133C68.2158 19.2687 68.2162 19.2241 68.2167 19.179Z" fill="#263238"/>
<path d="M56.7633 32.4744C56.7862 32.1013 56.5358 31.7689 56.1707 31.6913C55.2415 31.4934 53.5957 31.4906 53.432 33.8307C53.2059 37.0683 56.498 36.6276 56.5101 36.5351C56.5199 36.4637 56.6878 33.7112 56.7633 32.4744Z" fill="#FFBF9D"/>
<path d="M55.6104 35.2393C55.5969 35.2281 55.5512 35.2748 55.4528 35.3117C55.3572 35.3476 55.1955 35.3659 55.0313 35.2907C54.6985 35.1413 54.449 34.5782 54.4742 33.9936C54.4863 33.6985 54.5679 33.4221 54.6882 33.197C54.8034 32.9668 54.9679 32.8123 55.1418 32.7936C55.3158 32.7661 55.43 32.8777 55.4635 32.9715C55.5004 33.0649 55.4757 33.1284 55.4925 33.1349C55.5008 33.1438 55.5657 33.0854 55.5489 32.95C55.54 32.8847 55.5074 32.8058 55.436 32.7385C55.3628 32.6699 55.2509 32.6297 55.1302 32.6344C54.8798 32.6344 54.6392 32.8482 54.5068 33.0952C54.3609 33.3422 54.2625 33.6523 54.2485 33.9838C54.2238 34.6375 54.5143 35.2715 54.9726 35.4392C55.1959 35.5148 55.3904 35.4592 55.4939 35.3897C55.5988 35.3173 55.6211 35.2463 55.6104 35.2393Z" fill="#6F4439"/>
<path d="M75.0062 29.2117C74.4043 29.2248 73.8029 28.9498 73.4187 28.4856C73.0345 28.0215 72.8755 27.3786 72.9995 26.7889C72.3501 26.8033 71.7015 26.4942 71.3029 25.9806C70.9043 25.467 70.7653 24.7615 70.9392 24.1349C70.2389 24.479 69.382 24.4842 68.678 24.1485C67.9739 23.8128 67.4373 23.1432 67.2629 22.3821C67.2615 22.6441 67.083 22.8831 66.8536 23.0087C66.6242 23.1343 66.3528 23.1619 66.0917 23.1432C65.232 23.0816 64.4273 22.5147 64.0795 21.7252C63.5587 22.6039 62.3474 22.9933 61.413 22.5824C61.0708 22.4321 60.7375 22.1127 60.7957 21.7429C60.8172 21.6075 60.8885 21.4861 60.964 21.3722C61.945 19.8823 63.7307 19.0628 65.5057 18.9064C67.2806 18.75 69.0566 19.1809 70.7443 19.7534C71.7365 20.09 72.7412 20.4958 73.4835 21.2358C74.2831 22.0329 74.6929 23.1311 75.0799 24.1919C75.3615 24.9646 75.645 25.7434 75.7732 26.5563C75.9014 27.3692 75.8655 28.2274 75.5279 28.9773C75.4538 28.9838 75.3797 28.9899 75.3051 28.9964" fill="#263238"/>
<path d="M61.4152 21.6814C61.4049 23.071 60.2813 24.3681 58.9092 24.5744C59.609 24.8396 60.0314 25.6829 59.8253 26.4029C59.6193 27.1229 58.8145 27.614 58.0811 27.4674C58.2741 27.939 58.4704 28.4279 58.4564 28.9373C58.4425 29.4467 58.1599 29.9855 57.6732 30.134C57.91 30.4422 58.1944 30.9044 58.0443 31.4073C57.9329 31.7799 57.6168 32.3304 56.8689 32.3304C56.3877 32.3304 56.0078 31.7453 55.535 31.6561C54.83 31.5231 54.0663 31.7551 53.5539 32.2575L52.96 26.2189L53.6901 21.3793L56.5122 19.3132L61.9514 20.2863L61.4152 21.6814Z" fill="#263238"/>
<path d="M52.3585 21.8484C52.3613 21.8209 52.5753 21.8741 52.9297 21.7849C53.2686 21.7004 53.7899 21.4236 54.0085 20.8338L54.1424 20.4734L54.1964 20.8558C54.2547 21.2685 54.4846 21.7233 54.8902 22.039C55.2865 22.3635 55.8665 22.497 56.4204 22.3457C56.7747 22.2533 57.0927 22.0581 57.3156 21.8018L57.42 21.6818L57.5053 21.8153C57.8177 22.3037 58.2835 22.6389 58.7427 22.8075C59.2043 22.9803 59.6575 22.984 60.0188 22.9228C60.7504 22.7888 61.1047 22.4601 61.1257 22.4979C61.1336 22.5073 61.0562 22.5946 60.8818 22.716C60.7079 22.835 60.4301 22.9873 60.0487 23.0736C59.671 23.1596 59.181 23.1764 58.6737 23.0027C58.1711 22.8336 57.6559 22.4793 57.3058 21.9437L57.4955 21.9572C57.2419 22.2547 56.8829 22.4765 56.4824 22.581C55.8604 22.7538 55.1863 22.5922 54.7471 22.2192C54.2971 21.8573 54.0528 21.3442 54.0039 20.8791L54.1913 20.9011C53.9139 21.5706 53.3222 21.833 52.953 21.8928C52.5641 21.954 52.3525 21.8587 52.3585 21.8484Z" fill="#455A64"/>
<path d="M60.8326 15.5128C60.8521 15.5581 60.3206 15.6907 59.6348 16.1702C59.3014 16.414 58.9424 16.7786 58.7508 17.2843C58.5499 17.7764 58.5909 18.432 59.003 18.8877C59.1364 19.038 59.3024 19.1491 59.4744 19.2131L59.6166 19.2659L59.5345 19.3924C59.2455 19.8388 59.3182 20.4112 59.5103 20.8268C59.7033 21.2526 60.025 21.5542 60.3006 21.7802C60.8708 22.221 61.2676 22.4362 61.2461 22.4708C61.2387 22.4839 61.1347 22.4428 60.9524 22.3527C60.771 22.2611 60.5076 22.1243 60.2036 21.9081C59.9057 21.6906 59.5481 21.388 59.3173 20.9183C59.0949 20.4682 58.9844 19.8159 59.3331 19.2612L59.3937 19.4405C59.1811 19.3639 58.9797 19.2281 58.8221 19.0506C58.3368 18.5179 58.3051 17.7437 58.5424 17.2035C58.7676 16.6474 59.1737 16.2678 59.5364 16.0302C59.9043 15.7902 60.2367 15.6669 60.4652 15.5931C60.6955 15.5189 60.8274 15.4979 60.8326 15.5128Z" fill="#455A64"/>
<path d="M78.3786 34.8428C78.3814 34.8508 78.3432 34.8718 78.2658 34.9049C78.1874 34.9348 78.0676 34.9708 77.9072 34.9871C77.593 35.0231 77.0913 34.967 76.6185 34.6084C76.1378 34.2681 75.8124 33.5042 76.0231 32.7375C76.1201 32.3593 76.3453 31.9811 76.7029 31.7285C76.8806 31.6043 77.0992 31.5081 77.3412 31.5072C77.5818 31.5077 77.8312 31.6071 77.9893 31.8191C78.1497 32.0334 78.1422 32.335 78.0317 32.5433C77.9263 32.7576 77.759 32.9201 77.5673 33.0335C77.1785 33.2497 76.7398 33.2754 76.3593 33.1914C75.9756 33.1078 75.6455 32.9154 75.3914 32.682C75.1382 32.442 74.9741 32.1585 74.8706 31.8882C74.6683 31.3396 74.6944 30.8586 74.7447 30.5481C74.7988 30.2334 74.8762 30.0738 74.8883 30.078C74.9079 30.0836 74.8622 30.2517 74.8389 30.5594C74.8175 30.8633 74.8217 31.3232 75.0301 31.8242C75.1359 32.0712 75.2963 32.3252 75.5275 32.5335C75.7616 32.7375 76.0637 32.9042 76.4059 32.9728C76.744 33.0429 77.1291 33.0088 77.447 32.829C77.752 32.6586 78.0051 32.244 77.7935 31.9624C77.696 31.8275 77.5137 31.7486 77.3417 31.7491C77.1659 31.7486 76.9897 31.82 76.8386 31.9246C76.5337 32.1366 76.3309 32.462 76.2395 32.7963C76.0437 33.4771 76.3071 34.1499 76.7267 34.4749C77.1417 34.8167 77.6037 34.8998 77.9026 34.8928C78.2075 34.8891 78.3716 34.8204 78.3786 34.8428Z" fill="#263238"/>
<path d="M52.9354 30.7733C52.9419 30.785 52.8039 30.8854 52.5181 30.9974C52.2341 31.1104 51.7935 31.2155 51.2434 31.2173C50.6932 31.2094 50.0428 31.1459 49.3505 30.8653C49.0115 30.7173 48.6646 30.438 48.5257 30.022C48.4576 29.8171 48.4413 29.5803 48.535 29.3571C48.6287 29.1419 48.8054 28.9659 49.0348 28.8809C49.17 28.8305 49.3267 28.8263 49.46 28.8659L49.3733 29.0919C48.5989 28.7114 48.2492 27.8588 48.3168 27.1575C48.3424 26.7998 48.493 26.4749 48.6893 26.2293C48.8921 25.986 49.1383 25.8184 49.3775 25.7105C49.8624 25.4953 50.3081 25.5154 50.5841 25.5873C50.8648 25.6606 50.9926 25.7619 50.987 25.7703C50.9781 25.7899 50.8373 25.7189 50.5664 25.6769C50.2997 25.6354 49.8848 25.6447 49.4484 25.8618C49.018 26.0673 48.5704 26.5309 48.535 27.1757C48.4847 27.7972 48.8143 28.5536 49.4759 28.8725L49.3892 29.0985C49.3062 29.0751 49.2092 29.0756 49.1155 29.1101C48.9579 29.1671 48.8217 29.2997 48.756 29.4519C48.6907 29.6013 48.6973 29.7858 48.7504 29.9464C48.859 30.2802 49.1383 30.5212 49.4437 30.6612C50.0708 30.9297 50.7235 31.0189 51.2453 31.045C52.3162 31.0875 52.9223 30.7275 52.9354 30.7733Z" fill="#263238"/>
<path d="M75.1592 74.1301C75.3056 74.3504 80.5083 81.3495 80.5083 81.3495L86.8035 75.4958L82.7747 65.3306L80.3577 61.1853L75.1592 74.1301Z" fill="#FFBF9D"/>
<g opacity="0.3">
<path d="M54.6767 136.963L52.0486 136.911L51.1156 114.055L45.4121 111.63L55.778 105.237L83.425 124.807L88.9439 136.963H54.6767Z" fill="black"/>
</g>
<path d="M72.8878 129.108C72.8672 129.119 77.7646 138.364 77.7646 138.364L85.0086 134.324L81.8246 124.24L72.8878 129.108Z" fill="#FFBF9D"/>
<path d="M76.9504 137.108C76.9504 137.108 84.3977 137.336 84.5604 132.527L84.959 133.494L96.0835 140.819C97.8529 142.079 97.7121 143.522 97.2454 144.261C96.8859 144.83 96.2481 145.128 95.6023 145.045C92.1424 144.603 79.4229 142.912 78.7818 141.885L78.1193 140.99C77.0591 139.733 76.7094 138.19 77.0651 137.629L76.9504 137.108Z" fill="#263238"/>
<g opacity="0.6">
<path d="M97.0467 144.51L78.1113 140.989L78.5272 141.551C78.9226 142.202 79.3664 142.248 79.9436 142.426C81.6538 142.955 85.9371 143.801 95.5543 145.075C96.1142 145.149 96.6765 144.937 97.0467 144.51Z" fill="white"/>
</g>
<g opacity="0.6">
<path d="M79.449 138.578C79.9511 138.561 80.4318 138.984 80.4686 139.485C80.5059 139.987 80.0807 140.48 79.5791 140.506C79.0774 140.531 78.4848 140.041 78.5044 139.539C78.5235 139.036 79.0541 138.484 79.5474 138.58" fill="white"/>
</g>
<path d="M88.2059 140.068C88.308 140.049 88.0926 139.132 88.6045 138.173C89.0875 137.199 89.9585 136.844 89.9142 136.749C89.9016 136.708 89.6573 136.729 89.3151 136.915C88.9738 137.098 88.5579 137.474 88.2824 138.007C88.0087 138.541 87.9443 139.098 87.9938 139.483C88.0408 139.87 88.1653 140.082 88.2059 140.068Z" fill="white"/>
<path d="M90.3183 140.861C90.4237 140.871 90.53 140.124 91.0699 139.419C91.5944 138.701 92.2807 138.39 92.2411 138.292C92.2294 138.195 91.3827 138.387 90.7803 139.202C90.1691 140.009 90.2227 140.876 90.3183 140.861Z" fill="white"/>
<path d="M85.8153 139.191C85.9095 139.206 86.0466 138.208 86.6919 137.194C87.3213 136.168 88.1572 135.61 88.1027 135.531C88.0761 135.455 87.1035 135.929 86.4256 137.027C85.7361 138.117 85.7361 139.2 85.8153 139.191Z" fill="white"/>
<path d="M86.0822 136.248C86.0967 136.233 85.96 136.054 85.6421 135.804C85.3255 135.558 84.8168 135.24 84.11 135.049C83.7645 134.969 83.35 134.835 82.8768 135.024C82.6404 135.116 82.4381 135.394 82.4642 135.687C82.487 135.974 82.6428 136.204 82.8297 136.387C83.606 137.091 84.9595 137.127 85.8743 136.369C86.7769 135.593 87.0161 134.347 86.6757 133.387C86.575 133.151 86.4137 132.903 86.1228 132.806C85.8314 132.705 85.5209 132.874 85.3889 133.075C85.1078 133.483 85.1026 133.902 85.0588 134.256C85.0043 134.984 85.1148 135.57 85.2253 135.956C85.3372 136.344 85.4486 136.539 85.4682 136.531C85.539 136.519 85.1614 135.672 85.3134 134.281C85.3651 133.943 85.4094 133.539 85.6262 133.259C85.7311 133.121 85.8822 133.06 86.0253 133.11C86.1657 133.155 86.2929 133.322 86.3666 133.513C86.6366 134.308 86.4156 135.446 85.6421 136.09C84.8779 136.737 83.6881 136.704 83.0577 136.143C82.908 136.006 82.7957 135.827 82.7822 135.665C82.7682 135.506 82.8558 135.365 83.0046 135.296C83.3183 135.15 83.7184 135.229 84.0494 135.298C85.408 135.618 86.044 136.313 86.0822 136.248Z" fill="white"/>
<path d="M57.1748 141.269C57.2093 141.273 57.2625 152.675 57.2625 152.675C57.2625 152.675 65.1554 153.914 65.1554 153.712C65.1554 153.509 67.488 142.614 67.488 142.614L57.1748 141.269Z" fill="#FFBF9D"/>
<path d="M65.7887 150.545C65.7887 150.545 60.0488 154.873 57.2388 150.97L57.1278 152.011L51.9637 164.3C51.1954 166.333 52.1148 167.454 52.9135 167.807C53.5284 168.079 54.2236 167.97 54.7141 167.541C57.3413 165.244 66.9645 156.744 66.9253 155.534L66.9776 154.42C67.1585 152.784 66.591 151.308 65.9835 151.041L65.7887 150.545Z" fill="#263238"/>
<g opacity="0.6">
<path d="M53.207 167.907L66.9737 154.419L66.941 155.118C66.9746 155.879 66.6315 156.165 66.2515 156.635C65.125 158.028 62.039 161.121 54.7605 167.543C54.3367 167.917 53.7516 168.054 53.207 167.907Z" fill="white"/>
</g>
<g opacity="0.6">
<path d="M64.5474 153.156C64.1212 153.422 63.9571 154.042 64.2056 154.479C64.4541 154.916 65.0812 155.089 65.512 154.83C65.9428 154.571 66.1624 153.834 65.8668 153.427C65.5712 153.02 64.8238 152.858 64.4676 153.213" fill="white"/>
</g>
<path d="M58.0864 159.285C57.9913 159.326 57.6598 158.444 56.7012 157.934C55.7584 157.394 54.8372 157.584 54.8208 157.481C54.8082 157.44 55.0232 157.321 55.4111 157.285C55.7957 157.246 56.3506 157.327 56.876 157.616C57.4001 157.906 57.7637 158.333 57.9367 158.68C58.1134 159.028 58.1279 159.274 58.0864 159.285Z" fill="white"/>
<path d="M56.7893 161.119C56.7077 161.187 56.2037 160.626 55.3631 160.342C54.5285 160.039 53.7853 160.163 53.7634 160.059C53.7196 159.972 54.529 159.659 55.4829 159.999C56.4392 160.329 56.877 161.079 56.7893 161.119Z" fill="white"/>
<path d="M59.592 157.221C59.5216 157.286 58.8535 156.534 57.7532 156.051C56.6599 155.551 55.6551 155.553 55.6565 155.457C55.6369 155.38 56.7079 155.231 57.8814 155.764C59.0601 156.285 59.6629 157.184 59.592 157.221Z" fill="white"/>
<path d="M57.7344 154.919C57.7139 154.915 57.7279 154.69 57.8533 154.305C57.9792 153.923 58.2249 153.376 58.7056 152.823C58.9481 152.564 59.218 152.222 59.7155 152.114C59.9631 152.059 60.2862 152.177 60.4274 152.435C60.5682 152.686 60.5668 152.964 60.5132 153.22C60.26 154.238 59.1555 155.023 57.9745 154.903C56.7931 154.762 55.9021 153.861 55.6503 152.873C55.6033 152.622 55.5991 152.326 55.787 152.083C55.973 151.837 56.325 151.804 56.546 151.897C57.0066 152.079 57.2439 152.424 57.4771 152.694C57.9279 153.268 58.1615 153.816 58.2841 154.198C58.4067 154.583 58.4231 154.807 58.4026 154.812C58.3363 154.841 58.1792 153.927 57.2794 152.857C57.0486 152.605 56.7866 152.294 56.4509 152.182C56.2872 152.127 56.1278 152.16 56.0369 152.281C55.9455 152.397 55.9324 152.607 55.9776 152.806C56.1963 153.617 57.0127 154.439 58.0128 154.543C59.0073 154.654 59.977 153.962 60.1887 153.145C60.2367 152.948 60.2302 152.736 60.1519 152.594C60.075 152.454 59.9239 152.386 59.7616 152.412C59.4199 152.465 59.1317 152.755 58.8954 152.996C57.9442 154.021 57.802 154.952 57.7344 154.919Z" fill="white"/>
<path d="M46.8438 51.0249L56.6865 47.2312C56.6865 47.2312 59.1678 51.5222 63.5384 51.1477C68.0101 50.7643 67.8693 47.4978 67.8693 47.4978L80.2386 51.0123C80.2386 51.0123 81.0531 67.7615 80.2386 70.3785C79.4241 72.9956 77.105 76.3975 77.105 76.3975C77.105 76.3975 79.549 82.0897 79.612 83.6599C79.6749 85.2302 78.9853 84.8375 78.9853 84.8375L49.1423 85.1961L46.8438 51.0249Z" fill="#0B622F"/>
<g opacity="0.3">
<path d="M73.0911 68.1861C72.7092 67.8406 72.1068 68.0722 71.6536 68.3168C69.0814 69.7082 66.5054 71.102 64.0647 72.7142C60.9866 74.7477 58.1434 77.1159 55.1292 79.2436C53.3528 80.4977 51.5177 81.6683 49.6313 82.7497L48.9902 83.8679C49.6691 84.9745 51.0748 85.4746 52.3672 85.3728C53.6596 85.271 54.8579 84.6631 55.9535 83.9688C61.0192 80.7573 64.5864 75.5601 69.6525 72.3487C70.9058 71.5544 72.3003 70.8316 73.0603 69.5565C73.3149 69.1302 73.4585 68.519 73.0911 68.1861Z" fill="black"/>
</g>
<path d="M74.2454 76.1184C74.244 76.1539 73.7736 76.1637 73.0155 76.1842C72.2569 76.2043 71.2107 76.2421 70.0577 76.3281C68.9042 76.4154 67.864 76.534 67.111 76.6278C66.358 76.7212 65.8913 76.7814 65.8848 76.7464C65.8792 76.7151 66.3352 76.5951 67.0849 76.4579C67.8342 76.3201 68.8785 76.1735 70.0395 76.0857C71.1999 75.9993 72.2541 75.9881 73.0159 76.0124C73.7773 76.0358 74.2463 76.0867 74.2454 76.1184Z" fill="#263238"/>
<path d="M42.3633 71.3113C42.3633 71.3113 45.1192 79.0985 46.3398 81.0833C47.5604 83.0682 48.0817 85.6274 51.9934 84.5829C55.9047 83.5384 57.8914 80.9862 62.1682 77.4727C66.445 73.9591 69.2042 71.3113 69.2042 71.3113L66.1928 67.66L53.7143 73.3531L50.7416 66.8242L42.3633 71.3113Z" fill="#FFBF9D"/>
<path d="M80.0944 59.6177L71.5189 64.1458L64.5029 68.6221C64.5029 68.6221 67.989 71.7112 68.9709 71.6356C69.9533 71.56 71.2881 70.198 71.2881 70.198C71.2881 70.198 71.4392 70.6014 71.8676 70.7531C72.2957 70.9044 72.7997 70.4002 72.7997 70.4002C72.7997 70.4002 73.3032 70.6018 73.7317 70.6018C74.1597 70.6018 74.6581 68.9569 74.9103 67.8723C75.1621 66.7876 74.7392 66.2628 74.7392 66.2628L75.074 66.069L75.5467 66.8978L74.8147 69.5168C74.4268 70.9539 75.8139 70.7592 75.8139 70.7592C75.8139 70.7592 77.3404 68.102 77.4961 66.5925C77.6518 65.0829 76.1449 64.1201 76.1449 64.1201C76.1449 64.1201 79.3153 61.3877 80.0949 60.8671C80.874 60.3465 80.0944 59.6177 80.0944 59.6177Z" fill="#FFBF9D"/>
<path d="M52.6839 79.0729C52.6587 79.0822 52.5095 78.7657 52.4032 78.2128C52.2955 77.6628 52.2619 76.8709 52.4401 76.0263C52.6214 75.1821 52.9748 74.4729 53.297 74.0148C53.6192 73.5535 53.884 73.3256 53.9036 73.3443C53.9712 73.3868 53.0135 74.4308 52.6774 76.0772C52.3137 77.7174 52.7627 79.0617 52.6839 79.0729Z" fill="#6F4439"/>
<path d="M47.3499 50.8262C47.3499 50.8262 41.839 52.4562 40.7732 58.2791C40.1381 61.7501 41.6721 73.0177 41.6721 73.0177L52.3247 69.0485L47.3499 50.8262Z" fill="#0B622F"/>
<path d="M49.1421 58.5677C49.1752 58.5611 49.329 59.163 49.5645 60.1388C49.8144 61.1801 50.1296 62.4958 50.4788 63.9507C50.841 65.4379 51.1856 66.7798 51.4537 67.7454C51.7204 68.7109 51.9115 69.3007 51.877 69.3137C51.8612 69.3193 51.7954 69.1783 51.6891 68.9173C51.5796 68.6572 51.4476 68.272 51.2891 67.7944C50.9772 66.8377 50.6056 65.4986 50.2424 64.0082C49.8787 62.5187 49.5887 61.1614 49.3962 60.1753C49.2045 59.1891 49.1094 58.5742 49.1421 58.5677Z" fill="#263238"/>
<path d="M49.4636 85.1974C49.4636 85.1974 42.4243 93.4608 42.5908 100.135C42.7577 106.809 45.7318 111.631 45.7318 111.631L55.065 112.18C55.065 112.18 55.8945 107.723 59.2313 107.723C59.9545 107.723 72.1224 131.065 72.1224 131.065L84.0436 125.607C84.0436 125.607 76.2034 104.982 74.2848 100.134C72.3667 95.2869 70.5689 92.9477 68.0064 92.2548L65.1507 85.0186L49.4636 85.1974Z" fill="#263238"/>
<path d="M51.4357 93.1857C51.4245 93.2268 50.9956 93.1077 50.2901 93.0531C49.588 92.9952 48.5963 93.0335 47.5771 93.3757C46.5523 93.7077 45.7546 94.3016 45.2562 94.7966C44.7601 95.2994 44.5256 95.6795 44.4869 95.6543C44.4724 95.6454 44.5214 95.5455 44.6235 95.3704C44.719 95.1911 44.8953 94.9548 45.1317 94.6784C45.6119 94.1373 46.4334 93.4906 47.5002 93.1456C48.5613 92.7898 49.5931 92.779 50.3083 92.8827C51.0282 92.9831 51.4441 93.1628 51.4357 93.1857Z" fill="#455A64"/>
<path d="M62.8478 91.4498C62.7807 91.4498 62.7266 90.0159 62.7266 88.2477C62.7266 86.4786 62.7811 85.0452 62.8478 85.0452C62.9149 85.0452 62.969 86.4786 62.969 88.2477C62.969 90.0159 62.9149 91.4498 62.8478 91.4498Z" fill="#455A64"/>
<path d="M54.6262 85.018C54.6402 85.0241 54.6015 85.1586 54.5031 85.3916C54.4052 85.6246 54.2383 85.9523 53.9884 86.3315C53.4965 87.0883 52.6148 88.0404 51.3765 88.6903C50.1382 89.3403 48.8542 89.5242 47.9529 89.4986C47.4997 89.4883 47.1356 89.4393 46.8885 89.387C46.6414 89.3356 46.5085 89.2908 46.5118 89.2758C46.5188 89.2333 47.0657 89.3496 47.9525 89.3267C48.8336 89.3085 50.0682 89.1026 51.2641 88.4751C52.4596 87.848 53.331 86.9483 53.8476 86.2334C54.3712 85.5162 54.587 84.9998 54.6262 85.018Z" fill="#455A64"/>
<path d="M79.2367 84.8386C79.2367 84.8386 83.0772 88.6589 84.0427 94.4445C85.0083 100.23 85.0671 107.778 83.4226 110.57L78.7146 111.631L74.5706 115.838L68.7007 147.841L55.3714 146.009C55.3714 146.009 54.1237 118.201 54.5527 115.552C54.9816 112.903 55.0637 112.18 55.0637 112.18C55.0637 112.18 54.7671 107.82 57.9128 104.669C61.0586 101.519 65.5624 98.226 65.5624 98.226L65.1498 85.0193L79.2367 84.8386Z" fill="#263238"/>
<path d="M82.1471 89.3798C82.1526 89.3956 81.9983 89.4601 81.7125 89.5637C81.4234 89.6534 80.9987 89.778 80.4569 89.8448C79.3902 89.9886 77.804 89.9545 76.2985 89.1692C75.927 88.9749 75.5861 88.7261 75.2915 88.4753C74.9912 88.2251 74.711 87.9715 74.4532 87.7217C73.9366 87.2221 73.51 86.7361 73.1631 86.321C72.8167 85.905 72.5495 85.559 72.3682 85.3176C72.1873 85.0757 72.094 84.9366 72.1066 84.9259C72.135 84.902 72.5738 85.4072 73.2927 86.2085C73.654 86.6072 74.0895 87.076 74.6075 87.5597C75.132 88.0304 75.7055 88.5804 76.4128 88.9549C77.8525 89.7075 79.3893 89.7729 80.4378 89.6748C81.5032 89.5773 82.1335 89.3321 82.1471 89.3798Z" fill="#455A64"/>
<path d="M55.0636 112.18C55.0636 112.18 55.0828 112.026 55.1359 111.728C55.162 111.579 55.1895 111.392 55.2655 111.179C55.3327 110.965 55.4003 110.712 55.5364 110.448C55.7751 109.911 56.1784 109.268 56.8619 108.727C57.5366 108.185 58.4709 107.734 59.6011 107.614L59.6379 107.611L59.657 107.647C62.4158 112.777 66.8632 121.048 72.2208 131.012L72.0734 130.962C75.7768 129.264 79.8023 127.419 83.9919 125.498L83.9299 125.652C83.321 124.097 82.6743 122.446 82.0202 120.776C79.7608 114.999 77.5946 109.459 75.5935 104.342C74.5949 101.783 73.6377 99.3304 72.7308 97.0061C72.3056 95.8435 71.6319 94.8219 70.7782 94.0384C69.9301 93.2554 68.9058 92.6984 67.8717 92.4397L67.8633 92.4378C65.0356 91.6207 62.3388 91.3896 59.9932 91.4993C57.641 91.5904 55.6381 92.0269 54.0417 92.4873C52.4438 92.9589 51.2512 93.4809 50.4516 93.8502C50.053 94.0375 49.7569 94.1995 49.5527 94.2975C49.3499 94.3984 49.2422 94.4446 49.2422 94.4446C49.2422 94.4446 49.3406 94.3825 49.5392 94.2728C49.7392 94.1663 50.0311 93.9964 50.4274 93.8003C51.2209 93.4141 52.4107 92.8744 54.0109 92.3851C55.6096 91.9074 57.62 91.4536 59.9857 91.348C62.3449 91.2243 65.0617 91.4438 67.9155 92.2562L67.9071 92.2543C68.9967 92.5223 70.0327 93.0864 70.913 93.8899C71.7928 94.6902 72.4926 95.7487 72.9267 96.9281C73.8386 99.2501 74.8014 101.701 75.8057 104.258C77.811 109.373 79.9818 114.911 82.2458 120.687C82.8995 122.357 83.5457 124.007 84.1546 125.563L84.1961 125.67L84.0922 125.717C79.9007 127.633 75.8728 129.474 72.1681 131.168L72.0711 131.212L72.0212 131.118C66.7038 121.133 62.2894 112.845 59.5512 107.703L59.6071 107.735C58.5143 107.842 57.5837 108.276 56.9197 108.799C56.2437 109.322 55.8385 109.948 55.5938 110.474C55.4544 110.733 55.3826 110.982 55.3112 111.193C55.2306 111.402 55.1984 111.586 55.1672 111.734C55.1047 112.03 55.0636 112.18 55.0636 112.18Z" fill="#455A64"/>
<path d="M82.1501 94.907C82.124 94.9472 81.6121 94.583 80.6931 94.1903C80.2357 93.9895 79.6688 93.806 79.0282 93.6552C78.3843 93.5184 77.6644 93.4222 76.9044 93.4124C76.144 93.4129 75.4232 93.4997 74.7775 93.6286C74.135 93.7715 73.5657 93.9484 73.106 94.1431C72.1824 94.5246 71.6662 94.8823 71.6401 94.8416C71.6308 94.8276 71.7544 94.7324 71.9875 94.5704C72.1027 94.4872 72.2477 94.3911 72.4267 94.2977C72.6043 94.202 72.8015 94.081 73.0375 93.9848C73.4972 93.7659 74.0734 93.5679 74.729 93.4091C75.3873 93.2649 76.1263 93.1687 76.9058 93.1682C77.6849 93.178 78.4225 93.2835 79.0785 93.4358C79.7317 93.6024 80.3057 93.8074 80.7626 94.032C80.9976 94.1305 81.1929 94.2542 81.3692 94.3523C81.5473 94.448 81.6909 94.5456 81.8051 94.6301C82.0373 94.7959 82.1599 94.893 82.1501 94.907Z" fill="#455A64"/>
<g opacity="0.3">
<path d="M59.6064 107.675C59.6064 107.675 63.1321 122.772 66.9809 126.996C70.8297 131.221 71.8592 132.11 71.8592 132.11L72.1236 131.065L59.6064 107.675Z" fill="black"/>
</g>
<path d="M80.4141 81.2253C80.4141 81.2253 80.8015 78.8706 81.9447 77.5409C83.0879 76.2111 85.1902 74.6231 85.1902 74.6231H85.7805L87.3293 71.1488L91.6779 70.9382C91.6779 70.9382 90.759 79.4239 88.6572 82.0093C86.5549 84.5946 84.4321 84.4526 83.5472 84.1944C82.6618 83.9362 80.4141 81.2253 80.4141 81.2253Z" fill="#FFBF9D"/>
<path d="M72.9127 48.4394L69.4807 65.4033C69.2918 66.3371 70.0043 67.2098 70.9554 67.2098H94.5741C95.2786 67.2098 95.8885 66.7205 96.0428 66.0322L99.8384 49.0683C100.049 48.1265 99.334 47.2314 98.3698 47.2314H74.3874C73.6717 47.2314 73.0549 47.7366 72.9127 48.4394Z" fill="#263238"/>
<path d="M72.9119 48.4397C72.9119 48.4397 72.9143 48.3575 72.966 48.2081C73.0164 48.0596 73.119 47.8383 73.3428 47.6212C73.5623 47.4064 73.9241 47.2038 74.3853 47.1963C74.8338 47.193 75.3485 47.1893 75.9271 47.1851C78.2578 47.1758 81.6124 47.1627 85.7531 47.1463C87.8283 47.1417 90.1003 47.137 92.5383 47.1314C93.758 47.1295 95.0191 47.1272 96.3185 47.1253C96.968 47.1244 97.6273 47.1235 98.2954 47.1225C99.0069 47.0786 99.7393 47.5838 99.9258 48.3076C100.039 48.6605 99.9669 49.0621 99.8825 49.3833C99.8069 49.7228 99.7309 50.0636 99.6545 50.4068C99.5016 51.0932 99.3468 51.7875 99.1906 52.4888C98.8777 53.8919 98.5579 55.3244 98.2329 56.783C97.5811 59.6998 96.9065 62.7194 96.215 65.8122C96.1726 65.999 96.1348 66.2114 96.0388 66.4056C95.9474 66.5985 95.8178 66.7731 95.6588 66.9141C95.3464 67.2022 94.9077 67.3493 94.4979 67.3315C93.7165 67.3315 92.9397 67.3311 92.169 67.3311C90.6276 67.3306 89.1086 67.3297 87.6162 67.3292C84.6313 67.3269 81.7523 67.3245 79.009 67.3222C76.2665 67.3185 73.6603 67.3147 71.2204 67.311C70.9267 67.3208 70.5794 67.3068 70.2921 67.1649C70.0012 67.0327 69.7555 66.8114 69.5923 66.5448C69.4282 66.2777 69.3433 65.9653 69.3569 65.6572C69.3751 65.3415 69.4576 65.0787 69.507 64.7962C69.7345 63.6859 69.9527 62.6199 70.1611 61.602C70.9994 57.5413 71.6783 54.2514 72.1501 51.9663C72.3884 50.8378 72.5744 49.9581 72.7031 49.3488C72.7674 49.0579 72.8168 48.8324 72.8527 48.6694C72.8877 48.5167 72.9119 48.4397 72.9119 48.4397C72.9119 48.4397 72.904 48.52 72.877 48.6746C72.8467 48.8384 72.8047 49.0658 72.7506 49.3586C72.6327 49.9698 72.4616 50.8527 72.2424 51.985C71.7888 54.2743 71.1356 57.5688 70.329 61.6361C70.1252 62.6549 69.9122 63.7218 69.6902 64.8335C69.6422 65.1086 69.5592 65.4004 69.5476 65.6628C69.5364 65.9336 69.6124 66.2077 69.7574 66.4421C69.9019 66.676 70.1187 66.8698 70.3737 66.9842C70.6334 67.107 70.9071 67.1191 71.2204 67.1093C73.6603 67.1055 76.2665 67.1018 79.009 67.0981C81.7523 67.0957 84.6313 67.0934 87.6162 67.0911C89.1086 67.0906 90.6276 67.0897 92.169 67.0892C92.9397 67.0892 93.7165 67.0887 94.4979 67.0887C94.8695 67.1032 95.2257 66.9785 95.497 66.7329C95.6327 66.613 95.7427 66.4645 95.8201 66.3006C95.9008 66.1395 95.9334 65.9574 95.9786 65.759C96.6715 62.6666 97.348 59.6475 98.0012 56.7312C98.3285 55.2735 98.6497 53.841 98.9649 52.4384C99.1225 51.737 99.2782 51.0432 99.4326 50.3573C99.5095 50.0141 99.5864 49.6733 99.6624 49.3343C99.751 48.9883 99.8046 48.682 99.7109 48.3678C99.5458 47.7435 98.9309 47.306 98.2959 47.342C97.6277 47.341 96.9685 47.3401 96.319 47.3392C95.0201 47.3368 93.7584 47.335 92.5387 47.3331C90.1003 47.328 87.8288 47.3228 85.7536 47.3182C81.6129 47.3018 78.2583 47.2887 75.9276 47.2794C75.349 47.2752 74.8342 47.2715 74.3857 47.2682C73.9461 47.2682 73.5945 47.454 73.3763 47.6567C72.9353 48.0825 72.9371 48.4574 72.9119 48.4397Z" fill="#455A64"/>
<path d="M86.9761 56.172C86.9761 56.172 89.8263 61.0269 90.12 61.6746C90.4137 62.3222 91.266 63.3074 91.3248 63.9181C91.3835 64.5288 92.0595 68.0302 92.0003 69.2955C91.9416 70.5609 91.2418 72.1223 91.2418 72.1223L87.3286 71.1497C87.3286 71.1497 86.4041 70.355 85.8674 69.1489C85.3308 67.9424 84.8604 67.5012 84.361 67.1188C83.8617 66.7364 81.8932 65.4967 81.6596 65.0508C81.3766 64.5101 81.6596 64.095 81.6596 64.095C81.6596 64.095 80.7491 63.6557 80.5999 63.1463C80.4409 62.6042 80.5999 61.8809 81.6284 62.352C82.6569 62.8232 86.447 65.5299 86.8293 65.2357C87.2111 64.9416 86.7412 64.23 86.7412 64.23C86.7412 64.23 82.7157 60.5572 82.51 59.9096C82.3044 59.2625 82.8919 58.3501 83.8323 59.1448C84.7727 59.939 87.8578 63.0585 88.1809 63.0585C88.504 63.0585 88.1515 62.1461 88.1515 62.1461C88.1515 62.1461 86.5677 58.733 86.302 57.8206C86.0357 56.9078 86.1826 55.7013 86.9761 56.172Z" fill="#FFBF9D"/>
<path d="M100.018 48.2312C100.018 48.2354 99.9785 48.2396 99.9025 48.2438C99.812 48.2471 99.7011 48.2508 99.5645 48.2559C99.2474 48.2615 98.8138 48.269 98.2655 48.2788C97.1162 48.2882 95.4895 48.3012 93.488 48.3176C89.4359 48.3269 83.8722 48.3395 77.7267 48.3531C76.957 48.3531 76.1966 48.3526 75.4473 48.3526C75.079 48.3264 74.7512 48.4292 74.5046 48.6654C74.3838 48.7803 74.292 48.9227 74.2379 49.0777C74.1885 49.2262 74.1549 49.426 74.1125 49.596C73.7903 51.0126 73.4928 52.3816 73.2145 53.6876C72.6657 56.2971 72.171 58.6485 71.7538 60.631C71.3318 62.6066 70.9714 64.2015 70.7089 65.3002C70.5779 65.8339 70.4739 66.2555 70.3984 66.5637C70.363 66.6958 70.3345 66.8032 70.3108 66.8905C70.2898 66.9638 70.2772 67.0012 70.273 66.9998C70.2688 66.9988 70.2735 66.9596 70.2865 66.8844C70.3038 66.7953 70.3247 66.6865 70.3504 66.552C70.4152 66.2415 70.5042 65.8166 70.6166 65.2787C70.8497 64.1521 71.1798 62.5575 71.5854 60.5951C71.9878 58.6093 72.4652 56.2537 72.9954 53.6404C73.2676 52.3326 73.5609 50.9612 73.8803 49.5423C73.9255 49.3602 73.9479 49.1972 74.0122 48.9974C74.0784 48.806 74.1913 48.6313 74.3381 48.4908C74.623 48.2027 75.0687 48.0785 75.4468 48.1093C76.1965 48.1093 76.957 48.1089 77.7263 48.1089C83.8722 48.1229 89.4359 48.1355 93.4875 48.1443C95.4891 48.1607 97.1158 48.1738 98.265 48.1831C98.8133 48.1929 99.2474 48.2004 99.564 48.206C99.7001 48.2106 99.8116 48.2148 99.902 48.2181C99.9789 48.2228 100.018 48.227 100.018 48.2312Z" fill="#455A64"/>
<path d="M80.9816 78.1358C80.9662 78.1297 81.0086 77.9948 81.1028 77.7548C81.2115 77.5232 81.3709 77.1823 81.6483 76.8116C82.1794 76.0687 83.1823 75.1545 84.5712 74.7847C84.9306 74.6834 85.2948 74.6437 85.6421 74.6227L85.547 74.6773C86.079 73.7057 86.4893 72.783 86.8054 72.1555C87.1168 71.5186 87.308 71.1409 87.3299 71.1493C87.3625 71.1619 87.2185 71.5649 86.9453 72.219C86.6613 72.8741 86.2949 73.7818 85.7466 74.8062L85.72 74.8557L85.651 74.8608C85.3209 74.8851 84.9754 74.9239 84.6332 75.02C83.3128 75.3712 82.3346 76.2214 81.784 76.9166C81.2231 77.6198 81.0231 78.1554 80.9816 78.1358Z" fill="#6F4439"/>
<path d="M86.051 66.7124C86.016 66.7698 85.0131 66.2217 83.8112 65.4882C82.6087 64.7542 81.6623 64.1131 81.6972 64.0556C81.7322 63.9982 82.7351 64.5464 83.9375 65.2804C85.1395 66.0139 86.0859 66.655 86.051 66.7124Z" fill="#6F4439"/>
<path d="M87.3091 52.3256C87.1678 52.7865 86.7221 53.0577 86.3141 52.9321C85.9062 52.8065 85.6898 52.3312 85.8316 51.8704C85.9733 51.4095 86.4185 51.1382 86.8265 51.2638C87.2345 51.3894 87.4508 51.8648 87.3091 52.3256Z" fill="#E0E0E0"/>
<path d="M46.5503 49.9908C46.5423 49.9959 46.4463 49.8767 46.3474 49.6203C46.2555 49.3653 46.1668 48.9603 46.258 48.4694C46.3412 47.9841 46.6529 47.4162 47.217 47.0608C47.4932 46.8803 47.827 46.7544 48.1859 46.7141C48.3654 46.6976 48.5497 46.6873 48.7449 46.7401C48.9365 46.7893 49.1376 46.9379 49.186 47.169C49.212 47.2838 49.1805 47.4104 49.1182 47.5013C49.0563 47.5942 48.9717 47.6606 48.8823 47.7086C48.7003 47.8007 48.4966 47.8253 48.3094 47.7904C47.9339 47.7236 47.6251 47.4654 47.4896 47.1433C47.3537 46.8146 47.4178 46.4617 47.5592 46.1998C47.7035 45.9342 47.9281 45.7423 48.1651 45.6462C48.6515 45.4598 49.0772 45.6066 49.3094 45.7364C49.5497 45.8755 49.638 46.0061 49.6311 46.0112C49.6197 46.0244 49.5138 45.9144 49.2757 45.8028C49.0453 45.6975 48.642 45.5886 48.2178 45.7705C48.013 45.8619 47.82 46.0376 47.6991 46.2735C47.5801 46.5064 47.5357 46.8098 47.6511 47.0743C47.7643 47.3363 48.0321 47.5553 48.3405 47.6059C48.4933 47.6341 48.6559 47.6103 48.7929 47.5413C48.9296 47.4698 49.0299 47.3381 48.9988 47.2075C48.9699 47.071 48.8428 46.9613 48.6929 46.9232C48.542 46.8803 48.3676 46.8858 48.205 46.9004C47.8768 46.9349 47.568 47.0464 47.3105 47.2097C46.7837 47.5314 46.4851 48.0432 46.3895 48.497C46.287 48.9552 46.3496 49.3444 46.4174 49.5975C46.4921 49.8514 46.565 49.9827 46.5503 49.9908Z" fill="#263238"/>
</g>
<defs>
<clipPath id="clip0_8511_37602">
<rect width="110" height="170" fill="white"/>
</clipPath>
</defs>
</svg>
