<svg width="190" height="178" viewBox="0 0 190 178" fill="none" xmlns="http://www.w3.org/2000/svg">
<path d="M90.0009 171.024C132.834 171.024 167.557 168.997 167.557 166.495C167.557 163.994 132.834 161.966 90.0009 161.966C47.1681 161.966 12.4453 163.994 12.4453 166.495C12.4453 168.997 47.1681 171.024 90.0009 171.024Z" fill="#F5F5F5"/>
<path d="M73.377 163.996L77.6976 164.482L79.291 154.683L74.9704 154.197L73.377 163.996Z" fill="#FFBF9D"/>
<path d="M54.0331 164.937H58.3475L59.4219 154.946H55.1074L54.0331 164.937Z" fill="#FFBF9D"/>
<path d="M58.7023 164.438H53.4424C53.2659 164.438 53.1133 164.56 53.075 164.732L52.2227 168.567C52.1342 168.965 52.4467 169.341 52.8545 169.335C54.5468 169.306 55.7815 169.206 57.9136 169.206C59.225 169.206 63.1798 169.342 64.991 169.342C66.7624 169.342 67.0383 167.552 66.2972 167.389C62.9728 166.662 60.468 165.659 59.4035 164.702C59.211 164.53 58.9606 164.438 58.7023 164.438Z" fill="#263238"/>
<path d="M77.7703 163.742L73.0884 163.211C72.913 163.191 72.7474 163.296 72.6899 163.463L71.4107 167.177C71.2782 167.562 71.5354 167.971 71.9411 168.01C73.6334 168.173 76.0848 168.35 78.2076 168.591C80.6895 168.873 81.103 169.538 84.0316 169.469C85.8025 169.427 86.2517 167.625 85.507 167.481C82.1152 166.822 81.4601 166.308 78.7644 164.193C78.472 163.963 78.1403 163.784 77.7703 163.742Z" fill="#263238"/>
<path d="M73.9588 38.1555C75.4078 39.352 76.8346 40.3921 78.3105 41.4577C79.7813 42.5098 81.2924 43.5117 82.8433 44.4717C84.3964 45.4275 85.9861 46.3481 87.6546 47.1824C89.3235 48.0197 91.0489 48.8016 92.9642 49.3978C93.4475 49.5525 93.9184 49.6793 94.4623 49.8108C95.0958 49.9552 95.5672 50.0054 96.0707 50.069C97.0421 50.1772 97.957 50.2201 98.8684 50.2626C100.685 50.3459 102.468 50.3438 104.248 50.3319C107.809 50.289 111.339 50.1177 114.886 49.8041L114.939 46.565C111.457 46.1163 107.959 45.7282 104.498 45.34C102.768 45.1517 101.041 44.9416 99.3553 44.7206C98.5165 44.6072 97.6817 44.4732 96.9137 44.3304C96.5494 44.2579 96.1504 44.1756 95.9326 44.0996C95.6288 43.9992 95.2562 43.877 94.9115 43.7378C93.5029 43.1851 92.0461 42.4456 90.6126 41.6352C89.1807 40.8134 87.7487 39.9316 86.3406 38.9938C84.9278 38.0634 83.5326 37.0848 82.1431 36.0942C80.7614 35.1136 79.3667 34.0542 78.0637 33.0637L73.9588 38.1555Z" fill="#FFBF9D"/>
<path d="M69.7416 34.4678C70.3615 38.5463 78.9495 44.7859 78.9495 44.7859L85.1094 37.1387C85.1094 37.1387 80.6697 32.3611 76.5385 28.9828C73.7667 26.7161 69.0673 30.0302 69.7416 34.4678Z" fill="#0B622F"/>
<path d="M113.747 46.9169L116.196 45.1724L116.465 50.6823C116.465 50.6823 115.108 50.6823 114.587 49.6928L113.747 46.9169Z" fill="#FFBF9D"/>
<path d="M118.414 43.5684L118.916 48.968L116.468 50.682L116.199 45.1726L118.414 43.5684Z" fill="#FFBF9D"/>
<path opacity="0.2" d="M79.2891 154.686L78.4683 159.737L74.1461 159.251L74.9663 154.2L79.2891 154.686Z" fill="black"/>
<path opacity="0.2" d="M55.1034 154.948H59.4199L58.8641 160.098H54.5476L55.1034 154.948Z" fill="black"/>
<path d="M55.0429 29.1139C53.6865 29.4172 52.8564 30.7725 53.1876 32.1227C54.1662 36.108 54.8338 40.1104 55.3001 43.9152C55.7079 47.2583 55.9532 50.4492 56.1053 53.3426C56.464 60.1245 56.3149 65.2955 56.5168 67.0467C59.8904 66.8128 72.6044 65.9284 79.5369 65.4435C81.877 47.1242 79.1353 35.4337 77.5942 30.6825C77.1051 29.1745 75.8031 28.0717 74.2314 27.8672C73.3475 27.7518 72.2908 27.6395 71.1756 27.5743C70.7854 27.549 70.389 27.5355 69.9858 27.5272C67.3787 27.4719 63.1284 27.8631 60.1988 28.2083C59.583 28.2813 58.9599 28.3718 58.3544 28.4691C57.1465 28.6658 55.9961 28.9007 55.0429 29.1139Z" fill="#263238"/>
<path d="M60.4002 17.1218C61.237 20.2274 62.256 25.9541 60.1999 28.2089C65.5354 31.7983 68.9421 36.8513 69.9248 35.7536C70.4387 35.1797 70.6628 28.5334 69.9859 27.5263C66.4162 26.9327 66.3251 24.3214 66.766 21.8322L60.4002 17.1218Z" fill="#FFBF9D"/>
<path d="M60.6123 26.9209C60.6123 26.9209 69.3074 30.7691 70.4609 39.3732C68.0654 36.5993 62.7744 33.5817 62.7744 33.5817L65.1084 32.911C65.1084 32.911 63.0203 32.0727 60.5207 31.6763C60.78 30.4876 59.3993 28.1179 59.3993 28.1179L60.6123 26.9209Z" fill="#0B622F"/>
<path d="M68.457 26.7817C68.457 26.7817 67.2983 31.6955 70.4598 39.3727C70.9488 36.4421 73.0137 31.5387 73.0137 31.5387L70.8841 32.1178C70.8841 32.1178 70.9908 31.1272 72.713 29.8086C72.0729 28.5744 70.066 27.1217 70.066 27.1217L68.457 26.7817Z" fill="#0B622F"/>
<path opacity="0.2" d="M62.9962 19.0435L66.7637 21.8292C66.6571 22.4186 66.5841 23.0138 66.5831 23.5872C65.2282 23.4868 63.2824 22.1433 63.0423 20.7486C62.9228 20.0531 62.9052 19.3778 62.9962 19.0435Z" fill="black"/>
<path d="M71.4512 8.12856C73.5553 8.21913 74.7166 11.8474 72.5809 14.8349C70.4451 17.822 68.6163 8.00695 71.4512 8.12856Z" fill="#263238"/>
<path d="M61.0725 11.321C60.823 15.5956 60.4598 18.0848 62.3409 20.5208C65.1706 24.1847 70.6422 22.8708 72.1641 18.7571C73.534 15.0538 73.712 8.68535 69.7614 6.49733C65.8687 4.34139 61.3219 7.04641 61.0725 11.321Z" fill="#FFBF9D"/>
<path d="M60.445 14.6059C63.683 12.5255 64.8262 9.80496 65.0777 8.43304C66.3352 8.73009 72.5763 11.6033 74.4968 8.43304C76.4172 5.26279 74.0005 3.40338 70.408 5.35439C71.9972 2.55001 70.5518 1.17811 65.5595 1.05649C60.5666 0.93436 61.2373 3.83033 61.2373 3.83033C61.2373 3.83033 57.4574 2.18414 56.1161 5.08011C54.5713 8.41493 57.4279 14.1029 60.445 14.6059Z" fill="#263238"/>
<path d="M62.0898 3.06504C62.0443 3.06504 60.1989 3.50906 58.0725 1.36865C58.4533 3.19442 61.7545 4.40901 61.7545 4.40901L62.0898 3.06504Z" fill="#263238"/>
<path d="M59.6121 9.31829C61.603 8.63053 64.0146 11.5793 63.1239 15.1423C62.2333 18.7048 56.9304 10.2451 59.6121 9.31829Z" fill="#263238"/>
<path d="M58.4818 14.8769C58.666 16.0164 59.3595 16.965 60.1378 17.5079C61.3084 18.3245 62.3631 17.3909 62.4309 16.0402C62.492 14.8246 61.9563 12.9347 60.5922 12.6557C59.2482 12.381 58.2712 13.5738 58.4818 14.8769Z" fill="#FFBF9D"/>
<path d="M73.05 114.055C72.0135 101.435 64.4067 66.4985 64.4067 66.4985L79.5411 65.4438C79.5411 65.4438 85.377 100.124 85.8236 113.284C86.2893 126.968 80.7857 157.382 80.7857 157.382L73.5272 156.556C73.5272 156.556 74.0907 126.728 73.05 114.055Z" fill="#0B622F"/>
<path opacity="0.5" d="M73.05 114.055C72.0135 101.435 64.4067 66.4985 64.4067 66.4985L79.5411 65.4438C79.5411 65.4438 85.377 100.124 85.8236 113.284C86.2893 126.968 80.7857 157.382 80.7857 157.382L73.5272 156.556C73.5272 156.556 74.0907 126.728 73.05 114.055Z" fill="white"/>
<path opacity="0.2" d="M70.1088 78.3303C73.1595 82.2313 73.2143 95.9323 72.0344 106.055C70.9094 98.7522 69.1374 89.4795 67.5844 81.7485L70.1088 78.3303Z" fill="black"/>
<path d="M71.377 66.0125C71.377 66.0125 69.7437 102.951 67.9221 115.461C65.9276 129.161 60.8618 159.101 60.8618 159.101H52.9595C52.9595 159.101 54.2595 130.901 55.3022 117.443C56.4904 102.113 56.522 67.049 56.522 67.049L71.377 66.0125Z" fill="#0B622F"/>
<path opacity="0.5" d="M71.377 66.0125C71.377 66.0125 69.7437 102.951 67.9221 115.461C65.9276 129.161 60.8618 159.101 60.8618 159.101H52.9595C52.9595 159.101 54.2595 130.901 55.3022 117.443C56.4904 102.113 56.522 67.049 56.522 67.049L71.377 66.0125Z" fill="white"/>
<path d="M61.8038 159.272H52.4986V156.492L62.9004 156.312L61.8038 159.272Z" fill="#0B622F"/>
<path d="M81.1004 158.2L72.4498 157.218L72.7665 154.424L82.4531 155.373L81.1004 158.2Z" fill="#0B622F"/>
<path d="M67.3663 13.2808C67.3249 13.6265 67.474 13.9287 67.7001 13.9557C67.9257 13.9826 68.1426 13.7248 68.1845 13.3791C68.2259 13.0335 68.0769 12.7317 67.8507 12.7043C67.6246 12.6774 67.4077 12.9356 67.3663 13.2808Z" fill="#263238"/>
<path d="M71.2706 13.7496C71.2292 14.0953 71.3783 14.397 71.6044 14.4245C71.83 14.4514 72.0469 14.1937 72.0888 13.848C72.1302 13.5023 71.9812 13.2006 71.755 13.1731C71.5289 13.1457 71.3125 13.4045 71.2706 13.7496Z" fill="#263238"/>
<path d="M70.0094 13.7729C70.0094 13.7729 70.5553 15.8606 71.3047 16.9266C70.6247 17.424 69.6171 17.0379 69.6171 17.0379L70.0094 13.7729Z" fill="#ED847E"/>
<path d="M66.3056 11.8725C66.377 11.8942 66.4577 11.8766 66.5126 11.8187C67.1449 11.1625 67.8865 11.296 67.8938 11.2975C68.0045 11.3188 68.1116 11.2463 68.1329 11.135C68.1541 11.0243 68.0863 10.9167 67.9704 10.896C67.931 10.8887 67.0026 10.721 66.2176 11.5351C66.1394 11.6163 66.1415 11.7457 66.2228 11.8238C66.2481 11.8471 66.2761 11.8632 66.3056 11.8725Z" fill="#263238"/>
<path d="M67.8059 18.416L67.8038 18.4155C66.0893 18.0035 65.5863 16.6394 65.5661 16.5814C65.5459 16.524 65.5754 16.4613 65.6329 16.4412C65.6898 16.421 65.7529 16.4505 65.7731 16.5079C65.7778 16.5209 66.2606 17.8188 67.8551 18.2017C67.914 18.2157 67.9508 18.2752 67.9363 18.3342C67.9223 18.3927 67.8644 18.4289 67.8059 18.416Z" fill="#263238"/>
<path d="M73.1091 12.6069C73.1489 12.6188 73.1929 12.6193 73.2353 12.6043C73.342 12.5675 73.3989 12.4511 73.3616 12.3445C72.9926 11.2758 72.0813 11.0352 72.0409 11.0269C71.9312 10.9995 71.8205 11.0662 71.7931 11.1754C71.7662 11.2846 71.8376 11.3969 71.9406 11.4228C71.9711 11.4332 72.6801 11.6236 72.975 12.4775C72.9973 12.5422 73.0485 12.5882 73.1091 12.6069Z" fill="#263238"/>
<path d="M60.1278 165.192C60.4559 165.192 60.7633 165.136 60.9589 164.972C61.1131 164.842 61.1845 164.66 61.17 164.431C61.1592 164.262 61.0691 164.18 60.9946 164.143C60.5154 163.896 59.1254 164.753 58.9686 164.851C58.9334 164.872 58.9153 164.913 58.9215 164.954C58.9282 164.994 58.9587 165.027 58.9986 165.036C59.2987 165.109 59.7288 165.192 60.1278 165.192ZM60.769 164.298C60.8223 164.298 60.8673 164.307 60.902 164.324C60.9294 164.338 60.9615 164.365 60.9667 164.444C60.977 164.607 60.9315 164.729 60.828 164.815C60.5915 165.014 60.0289 165.041 59.2962 164.893C59.7826 164.611 60.4383 164.298 60.769 164.298Z" fill="#0B622F"/>
<path d="M59.0228 165.04C59.0393 165.04 59.0564 165.035 59.0719 165.028C59.5185 164.785 60.3817 163.839 60.2901 163.359C60.2736 163.271 60.2094 163.121 59.9646 163.091C59.8068 163.072 59.6598 163.115 59.5294 163.222C59.0284 163.632 58.925 164.877 58.9208 164.929C58.9177 164.967 58.9358 165.003 58.9669 165.023C58.9839 165.034 59.0036 165.04 59.0228 165.04ZM59.8937 163.29C59.9092 163.29 59.9242 163.291 59.9398 163.293C60.0728 163.309 60.0842 163.37 60.0888 163.396C60.1426 163.68 59.5931 164.394 59.149 164.732C59.1992 164.368 59.3369 163.642 59.6582 163.379C59.7323 163.32 59.8099 163.29 59.8937 163.29Z" fill="#0B622F"/>
<path d="M78.1183 164.381C78.1234 164.383 78.1291 164.386 78.1348 164.388C78.8102 164.604 80.0201 164.912 80.5366 164.549C80.6923 164.44 80.7751 164.281 80.7829 164.076C80.7875 163.955 80.7399 163.854 80.6458 163.787C80.1598 163.446 78.3356 164.117 78.1296 164.195C78.0888 164.21 78.0629 164.25 78.0639 164.293C78.065 164.33 78.0862 164.363 78.1183 164.381ZM80.5024 163.938C80.5112 163.943 80.5195 163.948 80.5273 163.953C80.5655 163.981 80.5811 164.015 80.579 164.069C80.5738 164.208 80.5221 164.31 80.4201 164.382C80.1298 164.585 79.4198 164.546 78.4909 164.282C79.2149 164.032 80.2033 163.779 80.5024 163.938Z" fill="#0B622F"/>
<path d="M78.1197 164.38C78.1435 164.393 78.172 164.396 78.1989 164.388C78.7428 164.214 79.873 163.403 79.8492 162.91C79.8435 162.794 79.7778 162.643 79.5035 162.583C79.2986 162.539 79.1025 162.576 78.9203 162.693C78.3242 163.079 78.0778 164.221 78.068 164.27C78.0607 164.305 78.0721 164.342 78.099 164.366C78.1052 164.372 78.112 164.376 78.1197 164.38ZM79.5719 162.821C79.6422 162.858 79.6443 162.902 79.6448 162.92C79.6588 163.216 78.8794 163.865 78.3154 164.123C78.4085 163.792 78.6398 163.118 79.0311 162.865C79.1672 162.776 79.3074 162.75 79.459 162.782C79.5092 162.793 79.5455 162.806 79.5719 162.821Z" fill="#0B622F"/>
<path d="M51.4087 35.3369C51.5178 37.0224 51.7166 38.592 51.922 40.2118C52.1264 41.8197 52.4043 43.4209 52.7081 45.0236C53.3358 48.2259 54.1255 51.4252 55.3619 54.6353L55.8747 55.8431L56.0046 56.1443L56.0372 56.2193L56.0905 56.3337L56.2406 56.6313C56.4517 57.0106 56.697 57.3579 56.9521 57.6399C57.4671 58.2211 58.0011 58.617 58.5119 58.9244C59.0242 59.2318 59.5169 59.4569 59.994 59.6437C61.8928 60.3677 63.6093 60.5897 65.3073 60.7527C68.6954 61.0239 71.9085 60.8464 75.1797 60.3837L75.0612 57.1462L72.7785 56.8885C72.0131 56.7974 71.2518 56.681 70.4952 56.579C68.9841 56.356 67.4891 56.1081 66.0633 55.7769C64.6521 55.4539 63.2507 55.0343 62.2467 54.5105C61.7603 54.2626 61.3985 53.9314 61.4141 53.873C61.4001 53.7984 61.5657 54.124 61.3716 53.6049L61.0306 52.6077C60.1917 49.8581 59.594 46.8845 59.1158 43.8814C58.8706 42.3791 58.6604 40.8639 58.4576 39.3455C58.2537 37.839 58.0876 36.2756 57.9292 34.8188L51.4087 35.3369Z" fill="#FFBF9D"/>
<path d="M51.0262 32.2082C48.9138 35.7515 50.7173 46.8862 50.7173 46.8862L61.7883 44.8405C61.7883 44.8405 62.3881 38.4669 60.2808 33.5697C57.9862 28.2347 53.5853 27.916 51.0262 32.2082Z" fill="#0B622F"/>
<path d="M78.1527 67.1597L84.0264 39.8389C84.5284 37.5034 86.8292 35.6099 89.1647 35.6099H107.441H111.67C109.334 35.6099 107.034 37.5034 106.532 39.8389L100.658 67.1597C100.156 69.4952 97.8551 71.3888 95.5196 71.3888H77.2435H73.0144C75.3499 71.3888 77.6507 69.4952 78.1527 67.1597Z" fill="#263238"/>
<path opacity="0.7" d="M78.1527 67.1597L84.0264 39.8389C84.5284 37.5034 86.8292 35.6099 89.1647 35.6099H107.441H111.67C109.334 35.6099 107.034 37.5034 106.532 39.8389L100.658 67.1597C100.156 69.4952 97.8551 71.3888 95.5196 71.3888H77.2435H73.0144C75.3499 71.3888 77.6507 69.4952 78.1527 67.1597Z" fill="#E6E6E6"/>
<path d="M120.786 69.1042L121.375 75.4907L120.86 75.5382L120.271 69.1517L120.786 69.1042Z" fill="#E6E6E6"/>
<path d="M121.61 78.0259L121.857 80.7129L121.342 80.7604L121.094 78.0734L121.61 78.0259Z" fill="#E6E6E6"/>
<path d="M111.669 35.6099H93.3928H89.1637C91.4992 35.6099 93.5646 37.5034 93.7773 39.8389L99.6158 103.326C99.8285 105.661 101.894 107.555 104.229 107.555H118.276C120.612 107.555 122.333 105.661 122.121 103.326L116.282 39.8389C116.07 37.5034 114.004 35.6099 111.669 35.6099Z" fill="#E6E6E6"/>
<path d="M108.075 103.326C108.287 105.661 106.566 107.555 104.23 107.555H108.459H126.735C129.071 107.555 130.792 105.661 130.58 103.326H108.075Z" fill="#263238"/>
<path opacity="0.7" d="M108.075 103.326C108.287 105.661 106.566 107.555 104.23 107.555H108.459H126.735C129.071 107.555 130.792 105.661 130.58 103.326H108.075Z" fill="#E6E6E6"/>
<g opacity="0.5">
<path d="M97.6769 42.7231H112.905C113.412 42.7231 113.788 42.3086 113.742 41.8025C113.696 41.2958 113.244 40.8818 112.738 40.8818H97.5092C97.0026 40.8818 96.6263 41.2964 96.6724 41.8025C96.7185 42.3091 97.1708 42.7231 97.6769 42.7231Z" fill="white"/>
<path d="M98.1325 47.7043H113.361C113.867 47.7043 114.243 47.2898 114.197 46.7837C114.151 46.277 113.7 45.863 113.193 45.863H97.9648C97.4582 45.863 97.0819 46.2776 97.128 46.7837C97.1741 47.2903 97.6258 47.7043 98.1325 47.7043Z" fill="white"/>
<path d="M102.316 52.6865H113.812C114.318 52.6865 114.695 52.272 114.649 51.7659C114.602 51.2592 114.151 50.8452 113.644 50.8452H102.148C101.642 50.8452 101.265 51.2597 101.311 51.7659C101.357 52.272 101.81 52.6865 102.316 52.6865Z" fill="white"/>
<path d="M110.366 57.6684H114.265C114.771 57.6684 115.148 57.2539 115.102 56.7478C115.056 56.2412 114.604 55.8271 114.097 55.8271H110.198C109.692 55.8271 109.315 56.2417 109.361 56.7478C109.408 57.2539 109.86 57.6684 110.366 57.6684Z" fill="white"/>
<path d="M99.4913 62.6496H114.72C115.227 62.6496 115.603 62.2351 115.557 61.729C115.511 61.2224 115.059 60.8083 114.552 60.8083H99.3237C98.817 60.8083 98.4408 61.2229 98.4869 61.729C98.5329 62.2351 98.9847 62.6496 99.4913 62.6496Z" fill="white"/>
<path d="M105.94 67.6311H115.171C115.678 67.6311 116.054 67.2166 116.008 66.7104C115.962 66.2038 115.51 65.7898 115.003 65.7898H105.773C105.266 65.7898 104.89 66.2043 104.936 66.7104C104.982 67.2166 105.434 67.6311 105.94 67.6311Z" fill="white"/>
<path d="M100.396 72.613H115.624C116.131 72.613 116.507 72.1985 116.461 71.6924C116.415 71.1857 115.963 70.7717 115.457 70.7717H100.228C99.7213 70.7717 99.3451 71.1863 99.3912 71.6924C99.4372 72.199 99.889 72.613 100.396 72.613Z" fill="white"/>
<path d="M104.583 77.5942H116.079C116.586 77.5942 116.962 77.1797 116.916 76.6736C116.87 76.1669 116.418 75.7529 115.912 75.7529H104.416C103.909 75.7529 103.533 76.1674 103.579 76.6736C103.625 77.1802 104.077 77.5942 104.583 77.5942Z" fill="white"/>
<path d="M112.632 82.5757H116.53C117.037 82.5757 117.413 82.1611 117.367 81.655C117.321 81.1484 116.869 80.7344 116.363 80.7344H112.464C111.957 80.7344 111.581 81.1489 111.627 81.655C111.673 82.1617 112.125 82.5757 112.632 82.5757Z" fill="white"/>
<path d="M101.755 87.5581H116.984C117.49 87.5581 117.866 87.1436 117.82 86.6374C117.774 86.1308 117.323 85.7168 116.816 85.7168H101.587C101.081 85.7168 100.704 86.1313 100.751 86.6374C100.797 87.1436 101.248 87.5581 101.755 87.5581Z" fill="white"/>
<path d="M108.206 92.5395H117.437C117.943 92.5395 118.32 92.125 118.274 91.6189C118.227 91.1128 117.776 90.6982 117.269 90.6982H108.038C107.532 90.6982 107.155 91.1128 107.202 91.6189C107.248 92.125 107.7 92.5395 108.206 92.5395Z" fill="white"/>
<path d="M102.661 97.5207H117.89C118.396 97.5207 118.773 97.1062 118.727 96.6001C118.681 96.094 118.229 95.6794 117.722 95.6794H102.494C101.987 95.6794 101.611 96.094 101.657 96.6001C101.703 97.1062 102.155 97.5207 102.661 97.5207Z" fill="white"/>
</g>
<path d="M73.7297 57.4965L77.036 54.6238L78.5859 59.9127C78.5859 59.9127 75.2278 61.7333 74.065 60.0617L73.7297 57.4965Z" fill="#FFBF9D"/>
<path d="M80.6331 54.417L81.709 58.8479L78.5848 59.9129L77.0349 54.6245L80.6331 54.417Z" fill="#FFBF9D"/>
</svg>
