<svg width="158" height="163" viewBox="0 0 158 163" fill="none" xmlns="http://www.w3.org/2000/svg">
<path d="M82.0602 164C123.939 164 157.888 161.347 157.888 158.074C157.888 154.801 123.939 152.148 82.0602 152.148C40.1817 152.148 6.23242 154.801 6.23242 158.074C6.23242 161.347 40.1817 164 82.0602 164Z" fill="#F5F5F5"/>
<path d="M154.146 25.6998L144.01 57.3189C143.895 57.6814 143.687 58.0077 143.407 58.2658C143.128 58.5239 142.786 58.7049 142.415 58.7912C142.045 58.8775 141.658 58.8661 141.293 58.7581C140.928 58.65 140.598 58.4491 140.334 58.175L135.064 52.7196C134.666 52.3096 134.124 52.07 133.553 52.0513C132.981 52.0327 132.425 52.2365 132.001 52.6198L87.9922 92.5717C87.5992 92.928 87.0907 93.1305 86.5603 93.1418C86.0299 93.1532 85.5132 92.9727 85.1052 92.6335L57.1627 69.3996C56.7589 69.0674 56.25 68.8897 55.7271 68.8984C55.2043 68.9072 54.7016 69.1017 54.309 69.4471L-0.582031 118.093L0 99.5C0.0534883 98.9495 1.81467 97.5327 2.22887 97.1661L54.0284 51.2595C54.422 50.9156 54.9248 50.7225 55.4474 50.7147C55.97 50.7069 56.4784 50.8848 56.8821 51.2167L84.7105 74.4078C85.1184 74.747 85.6351 74.9275 86.1655 74.9162C86.6959 74.9048 87.2044 74.7023 87.5975 74.346L122.318 42.8078C122.536 42.6097 122.712 42.3696 122.836 42.102C122.959 41.8344 123.028 41.5446 123.037 41.2499C123.047 40.9552 122.997 40.6617 122.89 40.3868C122.784 40.1119 122.623 39.8612 122.417 39.6497L117.233 34.2562C116.962 33.9761 116.77 33.6291 116.677 33.2505C116.584 32.872 116.593 32.4756 116.703 32.1017C116.814 31.7279 117.021 31.39 117.305 31.1225C117.588 30.8551 117.938 30.6678 118.318 30.5796L151.554 22.8841C151.933 22.7953 152.329 22.8088 152.701 22.9232C153.073 23.0376 153.408 23.2488 153.672 23.5353C153.936 23.8217 154.118 24.1731 154.202 24.5534C154.285 24.9337 154.266 25.3294 154.146 25.6998Z" fill="#555555" fill-opacity="0.5"/>
<path opacity="0.1" d="M154.132 25.7523L144.03 57.2857C143.911 57.6528 143.699 57.9829 143.415 58.2439C143.13 58.5048 142.784 58.6878 142.408 58.7749C142.032 58.8621 141.64 58.8505 141.27 58.7412C140.9 58.6319 140.564 58.4287 140.296 58.1514L135.064 52.7578C134.66 52.3407 134.11 52.0967 133.53 52.0772C132.95 52.0576 132.385 52.2642 131.954 52.6532L87.9923 92.5718C87.5585 92.9679 86.9858 93.1764 86.3989 93.1521C85.9069 93.1363 85.4344 92.9553 85.0577 92.6384L57.177 69.433C56.765 69.0949 56.2466 68.9138 55.7138 68.9216C55.1809 68.9294 54.6681 69.1258 54.2662 69.4758L-0.582031 118.093V99.5L54.0094 51.3167C54.4103 50.9649 54.9235 50.7674 55.4569 50.7596C55.9903 50.7517 56.509 50.9341 56.9202 51.2739L68.7678 61.1335L84.6867 74.408C85.1015 74.7503 85.6254 74.9324 86.1631 74.921C86.7008 74.9097 87.2165 74.7057 87.6165 74.3461L122.322 42.827C122.545 42.6264 122.724 42.3831 122.851 42.1115C122.977 41.8399 123.047 41.5457 123.057 41.2464C123.066 40.9471 123.016 40.6489 122.907 40.3696C122.799 40.0904 122.636 39.8359 122.427 39.6213L117.286 34.2991C117.011 34.0145 116.817 33.6623 116.723 33.2784C116.63 32.8944 116.639 32.4924 116.751 32.1134C116.864 31.7343 117.074 31.3918 117.362 31.1208C117.65 30.8497 118.004 30.6597 118.389 30.5703L151.511 22.8938C151.895 22.8075 152.295 22.824 152.67 22.9417C153.046 23.0594 153.383 23.2741 153.649 23.5641C153.915 23.8541 154.1 24.2092 154.184 24.5934C154.269 24.9776 154.251 25.3773 154.132 25.7523Z" fill="#404040"/>
<path d="M39.2873 50.76C39.2873 50.76 36.2576 55.2308 35.549 55.6921C34.8403 56.1535 25.2756 54.3366 20.5813 51.8872L18.1604 48.8528L14.5076 47.5686L12.4102 51.735L15.3067 53.6375C15.3067 53.6375 17.1616 55.773 19.24 55.1785C19.24 55.1785 26.7167 60.0583 32.0817 61.3044C37.4467 62.5506 38.688 61.1094 40.2528 59.8348C41.8176 58.5601 45.9602 52.515 45.9602 52.515L39.2873 50.76Z" fill="#FFBF9D"/>
<path d="M68.0391 31.9541C68.0391 31.9541 80.0056 28.3013 84.0579 25.2717C84.0579 25.2717 90.2076 17.7474 91.2302 9.7142L89.8461 5.53352L90.5786 0.777344L95.135 1.79517C95.135 1.79517 97.5131 6.79866 94.6166 10.7178C94.6166 10.7178 93.8413 22.3609 88.9092 28.4298C83.977 34.4986 68.548 38.5557 68.548 38.5557L68.0391 31.9541Z" fill="#FFBF9D"/>
<path d="M72.3295 75.9248L71.3497 40.7291L79.0405 37.0526L74.0988 28.2346C74.0988 28.2346 68.1013 29.9944 62.9075 29.9944C56.0063 29.9944 49.0623 35.2262 45.3097 36.7101C41.557 38.1941 37.3906 50.9549 37.3906 50.9549L46.0659 55.6017L47.6925 50.8169C47.6925 50.8169 50.0278 68.5004 50.0373 76.2577L72.3295 75.9248Z" fill="#0B622F"/>
<path d="M54.7827 26.784C54.7827 26.784 48.7757 27.4118 47.6865 22.6318C47.6865 22.6318 44.1004 21.205 46.6497 17.6664C46.6497 17.6664 43.3489 12.7533 47.5629 11.2931C48.1389 9.90654 49.0375 8.67744 50.1841 7.70794C51.3306 6.73844 52.6919 6.05654 54.1549 5.71887C57.5651 4.88179 56.5996 6.71291 56.5996 6.71291C56.5996 6.71291 63.672 3.97811 64.6851 7.02682C65.6982 10.0755 60.1905 11.4263 60.1905 11.4263L54.7827 26.784Z" fill="#263238"/>
<path d="M58.5217 25.8947C58.5394 26.1803 58.5743 26.4646 58.6264 26.746C58.8689 28.1729 59.8487 30.4463 62.2268 31.1978C62.2268 31.1978 62.555 33.7376 58.6264 33.3C54.6978 32.8625 52.8286 32.1633 52.8286 32.1633C53.4304 29.0906 53.3915 25.9267 52.7144 22.8697C52.7144 22.8697 50.498 23.2407 49.2472 21.9756C47.9963 20.7104 48.4481 17.5095 52.3625 19.3216C52.3625 19.3216 53.2091 14.6558 50.46 13.2527C50.46 13.2527 55.844 14.0328 60.1483 11.4121C60.1483 11.4121 63.8629 16.1683 63.3445 20.7104C62.8261 25.2526 58.5217 25.8947 58.5217 25.8947Z" fill="#FFBF9D"/>
<path d="M59.478 20.4109C59.478 20.4109 58.0796 21.3193 56.4863 20.0066" stroke="#263238" stroke-width="0.722314" stroke-linecap="round" stroke-linejoin="round"/>
<path d="M56.2098 16.487C56.2954 16.8342 56.5379 17.072 56.752 17.0197C56.966 16.9674 57.0706 16.6439 56.985 16.2967C56.8994 15.9495 56.6568 15.707 56.4428 15.7593C56.2288 15.8116 56.1004 16.1398 56.2098 16.487Z" fill="#263238"/>
<path d="M59.944 15.0934C60.0296 15.4454 60.2721 15.6832 60.4862 15.6309C60.7002 15.5786 60.8048 15.2504 60.7192 14.9032C60.6336 14.556 60.391 14.3182 60.177 14.3705C59.963 14.4228 59.8583 14.7462 59.944 15.0934Z" fill="#263238"/>
<path d="M55.9631 13.9614C55.6419 14.05 55.3551 14.2337 55.1403 14.4884C54.9256 14.7431 54.7929 15.0568 54.7598 15.3883" stroke="#263238" stroke-width="0.963085" stroke-linecap="round" stroke-linejoin="round"/>
<path d="M61.0367 12.7533C61.0367 12.7533 60.1901 12.1207 59.4434 12.663" stroke="#263238" stroke-width="0.963085" stroke-linecap="round" stroke-linejoin="round"/>
<path d="M60.0526 18.6416L59.168 15.7261L61.6602 17.7998C61.5258 18.1003 61.2941 18.3469 61.0025 18.4996C60.7108 18.6523 60.3762 18.7024 60.0526 18.6416Z" fill="#A02724"/>
<path opacity="0.19" d="M58.6261 26.7603C58.2675 26.8256 57.8992 26.8136 57.5456 26.725C57.1921 26.6364 56.8616 26.4733 56.5762 26.2466C57.3039 26.1705 58.5214 25.9089 58.5214 25.9089C58.5391 26.1946 58.574 26.4789 58.6261 26.7603Z" fill="black"/>
<path d="M60.7376 33.3668L60.7139 37.9232L58.4784 38.1277C58.4784 38.1277 56.771 36.4535 56.6616 35.5784C56.5522 34.7033 59.1205 32.406 60.7376 33.3668Z" fill="#263238"/>
<path d="M60.3922 37.457C60.3922 37.457 63.7501 49.8231 65.3624 56.0061L63.5266 59.6636L60.435 56.5769L58.7656 37.6616L60.3922 37.457Z" fill="#263238"/>
<path d="M75.7478 149.555L68.9369 150.626C68.9369 150.626 66.8394 124.604 66.302 114.845C66.2116 113.156 66.0404 111.359 65.8264 109.532C64.7705 100.771 62.6112 91.4063 62.6112 91.4063C62.6112 91.4063 61.9073 107.03 59.9573 118.992C58.0072 130.954 49.7553 148.48 49.7553 148.48L43.2773 145.498C48.3379 131.021 49.4984 112.99 49.936 106.246C50.3736 99.5014 49.8789 71.7633 49.8789 71.7633L72.1854 70.7883C74.3399 81.29 77.1413 105.294 77.4505 113.594C77.7596 121.893 75.7478 149.555 75.7478 149.555Z" fill="#263238"/>
<path d="M74.5395 151.534L74.901 157.003L70.8725 157.912L70.4492 151.795L74.5395 151.534Z" fill="#FFBF9D"/>
<path d="M76.8319 148.661L68.209 150.331L68.6323 153.008L76.6702 151.548L76.8319 148.661Z" fill="#407BFF"/>
<path d="M48.3631 149.227L45.985 154.297L42.1562 152.818L44.7103 147.534L48.3631 149.227Z" fill="#FFBF9D"/>
<path d="M42.4162 152.884L46.9061 154.654C47.1009 154.729 47.2616 154.873 47.3579 155.058C47.7003 155.719 48.6373 157.341 49.7598 157.959C51.1866 158.749 51.9428 159.301 51.4292 160.119C50.9155 160.937 50.1355 160.656 49.3365 160.447C48.6849 160.276 42.5446 157.702 40.2997 156.751C40.1971 156.708 40.1051 156.643 40.0303 156.56C39.9555 156.477 39.8996 156.379 39.8665 156.273C39.8334 156.167 39.824 156.054 39.8389 155.944C39.8537 155.833 39.8925 155.727 39.9525 155.634L41.5078 153.189C41.6026 153.043 41.744 152.934 41.9089 152.878C42.0739 152.823 42.2527 152.825 42.4162 152.884Z" fill="#263238"/>
<path d="M70.7879 157.703L75.5441 156.751C75.7478 156.712 75.9588 156.748 76.1386 156.851C76.7854 157.217 78.4453 158.083 79.7247 158.002C81.3466 157.898 82.2836 157.955 82.2931 158.92C82.3026 159.886 81.494 160.071 80.7045 160.323C80.0672 160.528 73.5084 161.669 71.0875 162.088C70.9778 162.107 70.8652 162.102 70.7576 162.074C70.65 162.045 70.55 161.993 70.4647 161.921C70.3795 161.849 70.311 161.76 70.2641 161.659C70.2172 161.558 70.193 161.448 70.1934 161.336V158.435C70.1973 158.264 70.2578 158.1 70.3654 157.967C70.473 157.835 70.6216 157.741 70.7879 157.703Z" fill="#263238"/>
<path d="M52.1717 147.372L42.9305 145.389L42.1172 148.067L50.5023 150.53L52.1717 147.372Z" fill="#407BFF"/>
<path opacity="0.61" d="M65.8217 109.603C64.7659 100.847 62.6065 91.4777 62.6065 91.4777L61.6934 79.8203C61.6934 79.8203 66.8491 99.958 65.8217 109.603Z" fill="black"/>
<path d="M53.0669 30.7747C54.7596 31.9361 56.6407 32.7954 58.6268 33.3145L57.1619 37.6283C57.1619 37.6283 53.5805 35.9827 51.7637 34.494L53.0669 30.7747Z" fill="white"/>
<path d="M58.627 33.3144L61.0383 37.0528C62.1433 35.5237 62.9427 33.7957 63.3926 31.9637L60.6816 29.9946C60.6816 29.9946 59.5401 32.4869 58.627 33.3144Z" fill="white"/>
</svg>
