<svg width="167" height="186" viewBox="0 0 167 186" fill="none" xmlns="http://www.w3.org/2000/svg">
<path d="M102.799 51.0909C101.519 51.0899 100.261 50.7524 99.1523 50.1124C98.0434 49.4723 97.1222 48.5521 96.4808 47.444C95.8395 46.3358 95.5006 45.0786 95.4981 43.7982C95.4956 42.5178 95.8295 41.2593 96.4665 40.1486L117.399 3.63545C118.035 2.52505 118.954 1.6034 120.063 0.964699C121.172 0.325993 122.43 -0.00686684 123.71 0.000132499C124.989 -0.00761959 126.248 0.324919 127.357 0.9637C128.466 1.60248 129.385 2.52455 130.021 3.63545L151.178 40.025C151.834 41.1315 152.185 42.3923 152.195 43.6786C152.204 44.965 151.872 46.2309 151.233 47.3471C150.594 48.4633 149.669 49.3899 148.555 50.0323C147.44 50.6747 146.175 51.0099 144.889 51.0036L102.792 51.1345L102.799 51.0909ZM123.739 2.14497C122.839 2.14434 121.955 2.38221 121.177 2.83433C120.4 3.28646 119.756 3.93668 119.311 4.71877L98.3787 41.2319C97.9314 42.0111 97.6968 42.8941 97.6983 43.7926C97.6998 44.691 97.9374 45.5733 98.3874 46.3509C98.8374 47.1286 99.4838 47.7743 100.262 48.2234C101.04 48.6725 101.923 48.9092 102.821 48.9097L144.918 48.7788C145.822 48.7867 146.711 48.5538 147.495 48.1042C148.279 47.6546 148.928 47.0044 149.378 46.2205C149.827 45.4365 150.06 44.5471 150.052 43.6436C150.043 42.74 149.795 41.8549 149.331 41.0792L128.174 4.72605C127.729 3.94153 127.085 3.28915 126.305 2.83564C125.526 2.38213 124.64 2.14378 123.739 2.14497Z" fill="#DE1E1E"/>
<path d="M120.823 39.2688C120.822 38.9052 120.894 38.5452 121.036 38.2103C121.177 37.8753 121.385 37.5724 121.646 37.3198C121.908 37.0672 122.218 36.87 122.557 36.7401C122.897 36.6103 123.259 36.5504 123.622 36.5641C123.989 36.5424 124.355 36.5954 124.701 36.7199C125.046 36.8443 125.362 37.0377 125.63 37.2882C125.898 37.5388 126.112 37.8412 126.259 38.1771C126.407 38.513 126.484 38.8754 126.487 39.2422C126.49 39.6091 126.419 39.9727 126.277 40.3109C126.135 40.6492 125.925 40.955 125.661 41.2098C125.397 41.4646 125.085 41.6631 124.741 41.7931C124.398 41.9231 124.033 41.982 123.666 41.9662C123.301 41.9829 122.935 41.9256 122.593 41.7978C122.25 41.6699 121.936 41.4742 121.671 41.2224C121.405 40.9705 121.193 40.6677 121.048 40.332C120.902 39.9963 120.826 39.6347 120.823 39.2688ZM120.911 17.3406H126.073L125.346 33.6632H121.892L120.911 17.3406Z" fill="#DE1E1E"/>
<path d="M97.4323 59.3212C97.1045 59.2495 96.787 59.1371 96.4871 58.9867C95.6482 58.6263 94.845 58.1881 94.0878 57.678C91.5584 55.9852 89.5674 53.6026 88.3509 50.8126C87.1344 48.0227 86.7435 44.9425 87.2243 41.9371C87.3588 41.0356 87.5804 40.1493 87.8859 39.2906C87.9836 38.9686 88.1178 38.6588 88.2858 38.3672C87.9433 39.561 87.6762 40.7752 87.486 42.0025C87.0885 44.9536 87.508 47.9573 88.6989 50.6865C89.8898 53.4158 91.8065 55.7661 94.2405 57.4817C95.2655 58.16 96.3315 58.7743 97.4323 59.3212Z" fill="#DE1E1E"/>
<path d="M88.454 58.4342C88.454 58.4342 88.265 58.3252 87.9669 58.0635C87.5472 57.7011 87.1581 57.3047 86.8036 56.8783C85.6061 55.4808 84.6635 53.8836 84.019 52.1597C83.3703 50.4363 83.0258 48.6134 83.0011 46.7722C82.9936 46.2181 83.0252 45.6641 83.0956 45.1145C83.1048 44.908 83.1465 44.7044 83.2192 44.511C83.2846 44.511 83.2192 45.3835 83.2701 46.7649C83.4577 50.3869 84.7633 53.8617 87.0072 56.7111C87.9015 57.7944 88.4977 58.3834 88.454 58.4342Z" fill="#DE1E1E"/>
<path d="M161.894 33.147C162.021 33.4004 162.114 33.6693 162.171 33.9467C162.272 34.2584 162.352 34.5766 162.411 34.8992C162.506 35.3264 162.579 35.7584 162.629 36.1934C162.78 37.3209 162.826 38.46 162.767 39.596C162.684 40.9882 162.464 42.3689 162.113 43.7185C161.733 45.0626 161.227 46.3675 160.6 47.6155C160.079 48.6384 159.466 49.6118 158.768 50.5238C158.484 50.9164 158.179 51.2509 157.925 51.5271C157.712 51.7854 157.481 52.0283 157.234 52.2542C157.041 52.4583 156.829 52.6434 156.601 52.8068C156.543 52.7486 157.423 51.9343 158.55 50.3857C159.209 49.4663 159.79 48.4935 160.288 47.4774C161.511 45.0165 162.235 42.3379 162.418 39.596C162.491 38.4792 162.474 37.3583 162.367 36.2443C162.171 34.2812 161.822 33.147 161.894 33.147Z" fill="#DE1E1E"/>
<path d="M166.657 41.1445C166.781 41.7739 166.815 42.4177 166.759 43.0567C166.65 46.1598 165.805 49.1926 164.294 51.9051C164.012 52.4793 163.649 53.0105 163.218 53.4828C163.462 52.8994 163.741 52.3313 164.054 51.7815C165.412 49.0539 166.238 46.0931 166.49 43.0567C166.507 42.4166 166.563 41.778 166.657 41.1445Z" fill="#DE1E1E"/>
<path d="M-0.570575 101.218C-0.570575 101.218 12.0134 97.8751 12.755 98.4777C16.6137 101.554 37.0192 99.144 37.0192 99.144L56.492 104.642C56.492 104.642 59.6554 127.968 61.7933 137.087C63.2185 143.153 57.8651 152.273 57.8651 152.273L50.9937 177.186L56.9323 187L-0.59375 186.971V101.224L-0.570575 101.218Z" fill="#0B622F"/>
<path d="M49.516 128.043C49.516 128.043 49.3422 128.043 49.012 128.095C48.6817 128.147 48.1893 128.159 47.5635 128.234C45.795 128.428 44.0373 128.71 42.297 129.08C40.0838 129.532 37.4824 130.187 34.5855 130.894C33.1371 131.241 31.6076 131.6 30.0143 131.919C29.2148 132.07 28.4094 132.243 27.5693 132.325L26.9378 132.394H26.3005C25.8718 132.394 25.443 132.429 25.0085 132.394C21.773 132.216 18.5579 131.768 15.3967 131.056C12.4998 130.476 9.85787 129.833 7.65625 129.352C5.45463 128.872 3.66436 128.501 2.44188 128.315C1.82195 128.199 1.32948 128.153 1.00503 128.107C0.680584 128.06 0.500977 128.026 0.500977 128.026C0.500977 128.026 1.20202 128.066 2.45347 128.246C3.70492 128.425 5.49518 128.761 7.7026 129.225C9.91001 129.688 12.5288 130.297 15.4488 130.888C18.6033 131.592 21.8103 132.036 25.0375 132.214C25.4662 132.243 25.8949 132.214 26.3179 132.214H26.9494C27.158 132.214 27.3608 132.168 27.5693 132.145C28.3978 132.07 29.209 131.896 30.0027 131.745C31.596 131.432 33.1197 131.073 34.5682 130.731C37.465 130.036 40.078 129.387 42.2912 128.958C44.6676 128.44 47.0854 128.133 49.516 128.043Z" fill="#FAFAFA"/>
<path d="M51.9897 172.649L51.5378 172.342C51.2539 172.128 50.8135 171.844 50.2458 171.479C48.6221 170.478 46.8928 169.66 45.0893 169.039C42.4126 168.128 39.6135 167.626 36.7869 167.551C33.3222 167.592 29.8646 167.874 26.4393 168.396C23.0061 168.909 19.5482 169.24 16.0801 169.387C13.2408 169.481 10.4009 169.218 7.62701 168.605C5.75838 168.181 3.9543 167.511 2.26201 166.612C1.68264 166.282 1.21914 166.033 0.923655 165.807C0.628174 165.581 0.477539 165.5 0.477539 165.5C0.477539 165.5 0.645556 165.592 0.946831 165.778C1.24811 165.963 1.70002 166.23 2.29677 166.548C3.99797 167.421 5.80526 168.07 7.67336 168.477C10.4379 169.072 13.2657 169.321 16.0917 169.219C19.554 169.064 23.0059 168.73 26.4335 168.217C29.8659 167.691 33.3319 167.414 36.8043 167.388C39.6471 167.469 42.4608 167.984 45.1473 168.918C46.9563 169.552 48.6864 170.392 50.3037 171.421C50.8831 171.792 51.3002 172.093 51.5783 172.313C51.8564 172.533 51.9897 172.649 51.9897 172.649Z" fill="#FAFAFA"/>
<path d="M52.8008 180.871C52.8008 180.871 52.6212 180.929 52.2736 181.021C51.926 181.114 51.4219 181.247 50.773 181.456C48.9481 182.049 47.1571 182.741 45.408 183.53C42.8283 184.751 40.1373 185.721 37.3721 186.427C35.7241 186.8 34.0388 186.985 32.3489 186.977C30.537 186.95 28.7314 186.756 26.955 186.398C23.3049 185.656 19.9503 184.509 16.8623 183.623C14.1416 182.784 11.3454 182.213 8.51348 181.919C6.60501 181.728 4.67942 181.796 2.78927 182.122C2.12299 182.255 1.63052 182.365 1.26551 182.47C0.900506 182.574 0.738281 182.603 0.738281 182.603C0.738281 182.603 0.912093 182.539 1.25392 182.435C1.59575 182.331 2.1114 182.197 2.77768 182.053C4.67237 181.702 6.6064 181.614 8.52507 181.792C11.3682 182.071 14.1765 182.632 16.9086 183.466C20.0025 184.347 23.357 185.482 26.9897 186.218C28.7569 186.573 30.5526 186.767 32.3547 186.798C34.0305 186.805 35.7019 186.625 37.3373 186.259C40.0944 185.544 42.7789 184.575 45.3559 183.362C47.1114 182.58 48.9127 181.904 50.7499 181.34C51.4045 181.137 51.9086 181.015 52.2678 180.934L52.8008 180.871Z" fill="#FAFAFA"/>
<g opacity="0.3">
<path d="M52.6953 171.102C52.9792 162.33 54.4334 152.046 53.1646 143.871C54.9433 147.66 56.8378 156.114 56.8378 156.114C56.5371 157.542 56.1502 158.95 55.6791 160.331C54.6999 163.64 53.6802 167.805 52.7011 171.119" fill="black"/>
</g>
<path d="M56.3404 152.823C56.3404 152.823 56.1608 152.701 55.8364 152.458C55.3677 152.099 54.8783 151.768 54.3706 151.467C52.4721 150.383 50.3903 149.659 48.2292 149.329C45.034 148.849 41.782 148.89 38.6 149.451C35.0021 150.03 31.1435 151.189 27.0473 152.163C22.9511 153.136 18.936 153.901 15.2744 153.466C12.0432 153.118 8.90223 152.185 6.00441 150.714C4.89362 150.15 3.83502 149.489 2.84103 148.738C2.41808 148.385 2.01832 148.061 1.68228 147.742C1.34624 147.423 1.03917 147.11 0.784249 146.821L0.141143 146.015C-0.00784242 145.813 -0.145182 145.602 -0.270212 145.384C-0.48458 145.042 -0.588867 144.851 -0.588867 144.851C-0.588867 144.851 -0.461406 145.025 -0.241244 145.366C-0.125369 145.529 -0.00370049 145.755 0.181699 145.986L0.836393 146.774C1.09711 147.058 1.41577 147.354 1.74021 147.678C2.06466 148.003 2.48181 148.315 2.89896 148.657C3.89379 149.397 4.95243 150.046 6.06235 150.598C8.95195 152.046 12.0781 152.962 15.2918 153.304C18.9245 153.715 22.9279 152.956 27.0067 151.989C31.0855 151.021 34.9557 149.862 38.5942 149.289C41.793 148.73 45.062 148.703 48.2697 149.208C50.4337 149.552 52.5145 150.296 54.4053 151.404C54.91 151.716 55.3957 152.059 55.8595 152.429C56.184 152.678 56.3404 152.823 56.3404 152.823Z" fill="#FAFAFA"/>
<path d="M44.1219 172.591C44.0193 172.634 43.9125 172.667 43.8033 172.689L42.8705 172.915C42.0651 173.106 40.8948 173.367 39.4406 173.68C36.5437 174.3 32.4881 175.111 28.0617 175.928C23.6353 176.745 19.5565 177.411 16.6248 177.857C15.159 178.077 13.9655 178.251 13.1486 178.356L12.2042 178.477C12.0927 178.493 11.9796 178.493 11.8682 178.477C11.9741 178.442 12.0826 178.415 12.1926 178.396L13.1312 178.222L16.6074 177.643C19.5043 177.145 23.5599 176.449 28.0269 175.633C32.4939 174.816 36.5032 174.039 39.4174 173.466L42.8647 172.799L43.8091 172.631C43.9115 172.606 44.0164 172.593 44.1219 172.591Z" fill="#263238"/>
<path d="M45.2108 152.035C45.2155 152.153 45.2058 152.272 45.1818 152.388C45.1413 152.614 45.1239 152.968 45.0196 153.385C44.7697 154.601 44.3809 155.785 43.8609 156.913C43.0869 158.582 42.0953 160.14 40.9119 161.548C39.46 163.277 37.7934 164.813 35.9524 166.119C32.5691 168.419 28.907 170.278 25.0544 171.653C23.5944 172.232 22.3951 172.626 21.5781 172.904L20.6222 173.223C20.5128 173.262 20.4005 173.293 20.2861 173.315C20.3845 173.25 20.4918 173.199 20.6048 173.165L21.5434 172.794L25.0196 171.456C28.8292 170.032 32.4579 168.166 35.8307 165.894C37.6322 164.59 39.2667 163.071 40.6975 161.369C41.88 159.984 42.8772 158.451 43.6639 156.809C44.1967 155.697 44.6103 154.532 44.8979 153.333C45.1065 152.51 45.1818 152.035 45.2108 152.035Z" fill="#263238"/>
<path d="M18.415 34.4858C24.0234 29.1323 32.7024 26.1486 39.7012 29.4858C44.4058 31.7279 47.4996 36.3108 51.5842 39.5437C54.5622 41.9017 58.276 43.7673 59.765 47.261C61.0744 50.3374 60.2806 53.8484 59.8345 57.1625C59.3884 60.4765 59.4985 64.3293 62.0071 66.5425C63.3223 67.7013 65.0894 68.2111 66.5842 69.1323C69.5969 70.9921 71.3061 74.4684 71.8507 77.9678C72.3953 81.4672 71.926 85.0246 71.4567 88.5356L56.7406 90.8531L54.4695 86.7337L53.444 93.0605L34.707 94.1613L18.415 34.4858Z" fill="#263238"/>
<path d="M15.7851 40.4532L15.6171 44.5088L12.4885 105.471C12.1583 112.539 18.7284 118.796 26.295 119.074C33.9427 119.376 37.2452 113.732 37.6971 106.595C38.1722 99.109 38.8095 91.2353 38.8095 91.2353C38.8095 91.2353 48.5487 90.2098 51.3066 77.7475C52.6797 71.5424 52.981 61.2643 52.9578 52.8344C52.9525 51.039 52.5844 49.2632 51.8756 47.6136C51.1669 45.964 50.1321 44.4747 48.8334 43.235C47.5347 41.9953 45.9989 41.0308 44.3182 40.3994C42.6375 39.7681 40.8465 39.4829 39.0528 39.5609L15.7851 40.4532Z" fill="#FFBE9D"/>
<path d="M48.5767 60.2795C48.5556 60.7011 48.3705 61.0977 48.0609 61.3846C47.7512 61.6715 47.3416 61.8259 46.9197 61.8148C46.7138 61.8179 46.5094 61.78 46.3183 61.7033C46.1273 61.6267 45.9533 61.5128 45.8067 61.3683C45.6601 61.2238 45.5436 61.0516 45.4641 60.8617C45.3846 60.6718 45.3437 60.468 45.3438 60.2621C45.3648 59.8415 45.5491 59.4457 45.8575 59.159C46.1659 58.8722 46.574 58.7172 46.995 58.7267C47.2015 58.7221 47.4069 58.7589 47.599 58.8349C47.7911 58.9109 47.966 59.0246 48.1134 59.1694C48.2609 59.3141 48.3778 59.4869 48.4574 59.6775C48.5369 59.8682 48.5775 60.0729 48.5767 60.2795Z" fill="#263238"/>
<path d="M50.4304 58.0602C50.216 58.2572 49.0457 57.278 47.3133 57.1795C45.581 57.0811 44.2485 57.869 44.0746 57.643C43.9877 57.5446 44.2137 57.1795 44.7931 56.8087C45.5749 56.3309 46.4861 56.1082 47.4002 56.1714C48.3039 56.2231 49.168 56.5598 49.8684 57.1332C50.3782 57.5793 50.5462 57.9675 50.4304 58.0602Z" fill="#263238"/>
<path d="M31.6939 59.7348C31.6714 60.1559 31.4859 60.5517 31.1765 60.8383C30.8672 61.1249 30.4585 61.2798 30.0369 61.2702C29.8303 61.2741 29.6251 61.2365 29.4333 61.1598C29.2415 61.0831 29.067 60.9687 28.9201 60.8234C28.7732 60.6782 28.6569 60.5049 28.5781 60.314C28.4992 60.1231 28.4594 59.9182 28.461 59.7117C28.4834 59.2916 28.6682 58.8967 28.9763 58.6102C29.2843 58.3238 29.6916 58.1682 30.1122 58.1763C30.319 58.1725 30.5245 58.21 30.7167 58.2866C30.9088 58.3633 31.0836 58.4776 31.231 58.6228C31.3783 58.768 31.4952 58.9411 31.5747 59.1321C31.6542 59.3231 31.6947 59.528 31.6939 59.7348Z" fill="#263238"/>
<path d="M33.3327 57.3535C33.1241 57.5563 31.9538 56.5771 30.2157 56.4729C28.4776 56.3686 27.1508 57.1681 26.977 56.9421C26.8901 56.8437 27.116 56.4787 27.6954 56.1079C28.4779 55.6314 29.3886 55.4088 30.3026 55.4705C31.2069 55.5194 32.0718 55.8564 32.7707 56.4323C33.2806 56.8726 33.437 57.2666 33.3327 57.3535Z" fill="#263238"/>
<path d="M38.8672 70.6155C38.8672 70.517 39.9564 70.3953 41.7177 70.2795C42.1638 70.2795 42.5868 70.1983 42.6853 69.8971C42.7487 69.4408 42.6719 68.9761 42.4651 68.5645L41.3585 65.0883C39.8232 60.1694 38.7455 56.1369 38.9425 56.079C39.1395 56.0211 40.5416 59.955 42.0769 64.8739C42.4419 66.0848 42.7953 67.2435 43.1256 68.3501C43.37 68.8968 43.4151 69.5118 43.2531 70.0883C43.1769 70.2358 43.0687 70.3644 42.9363 70.4646C42.804 70.5649 42.6509 70.6343 42.4883 70.6676C42.2368 70.719 41.9798 70.7385 41.7235 70.7256C39.9622 70.7719 38.8672 70.714 38.8672 70.6155Z" fill="#263238"/>
<path d="M38.8326 91.2642C32.9002 90.9974 27.1581 89.0901 22.2451 85.7544C22.2451 85.7544 25.8141 94.6478 38.4676 94.2248L38.8326 91.2642Z" fill="#EB996E"/>
<path d="M37.4065 73.6048C36.9386 73.3508 36.4135 73.2207 35.8811 73.2268C35.3488 73.2329 34.8268 73.3749 34.3648 73.6395C34.0276 73.8211 33.7303 74.0685 33.4904 74.3671C33.2506 74.6656 33.0731 75.0093 32.9685 75.3777C32.8691 75.7354 32.882 76.115 33.0053 76.4652C33.1286 76.8154 33.3564 77.1194 33.658 77.3359C34.037 77.5114 34.4596 77.5704 34.8721 77.5054C35.2847 77.4405 35.6687 77.2544 35.9754 76.9709C36.6161 76.3799 37.1322 75.6669 37.4934 74.8736C37.622 74.6686 37.7086 74.4402 37.7483 74.2015C37.7666 74.0906 37.7522 73.9768 37.707 73.874C37.6617 73.7711 37.5875 73.6836 37.4934 73.6222" fill="#EB996E"/>
<path d="M32.7196 52.4463C32.6558 52.9445 30.9061 53.0952 28.9652 53.7673C27.0243 54.4393 25.5295 55.3374 25.1703 54.9781C25.0139 54.8043 25.1703 54.3119 25.7497 53.7209C26.493 52.9759 27.4024 52.418 28.4032 52.0929C29.3974 51.7455 30.4605 51.6421 31.5029 51.7916C32.2966 51.919 32.7427 52.2029 32.7196 52.4463Z" fill="#263238"/>
<path d="M51.1262 55.4183C50.6511 55.6791 49.3881 54.839 47.7195 54.2885C46.0509 53.7381 44.5561 53.5527 44.3533 53.0545C44.2722 52.8169 44.6199 52.5099 45.3499 52.3534C46.3474 52.1831 47.3721 52.277 48.3221 52.6257C49.2809 52.9401 50.1388 53.504 50.8076 54.2596C51.2827 54.8332 51.3522 55.2851 51.1262 55.4183Z" fill="#263238"/>
<path d="M25.0543 33.3267C27.2327 36.4669 28.2408 38.854 29.4344 44.3348C30.0137 47.0231 27.7831 48.8366 25.5757 50.3951C25.3385 50.5632 25.0629 50.669 24.7742 50.703C24.4855 50.737 24.1928 50.698 23.923 50.5897C23.6533 50.4813 23.415 50.307 23.23 50.0827C23.0451 49.8584 22.9193 49.5913 22.8643 49.3059C22.8643 49.3059 23.3162 57.6604 20.1933 61.3105C18.7217 63.0197 18.5885 65.2676 18.8666 67.1738C19.1752 69.1232 20.0542 70.9376 21.3926 72.3881C24.7762 76.1772 25.5526 82.2375 22.9917 86.6465C22.2557 87.7324 21.5769 88.856 20.9581 90.0127C20.6432 90.7036 20.4831 91.455 20.4888 92.2143C20.5121 92.6587 20.364 93.095 20.0751 93.4335C19.7863 93.7719 19.3786 93.9867 18.9361 94.0335C8.51717 95.1991 -2.00063 95.1739 -12.4138 93.9582C-12.7713 93.9151 -13.1065 93.7621 -13.3732 93.5203C-13.64 93.2785 -13.825 92.9598 -13.9028 92.6083C-14.6097 89.132 -13.1207 85.3951 -11.2725 82.2665C-9.2041 78.7902 -6.60271 75.4356 -5.80318 71.4553C-5.04999 67.7126 -5.94223 63.6164 -4.31419 60.1575C-2.32114 55.9165 2.79473 54.0451 5.44827 50.1807C7.95696 46.5365 7.9222 41.6407 10.1818 37.8401C13.0786 32.9559 19.9152 30.8876 25.0485 33.3209" fill="#263238"/>
<path d="M25.4775 37.9616C29.3767 40.1284 31.0453 45.0357 34.8228 47.4054C38.2643 49.5606 42.6559 49.1435 46.6884 48.6916C46.5667 47.7993 46.4508 46.9013 46.3292 46.0091C46.6625 46.8259 47.1438 47.5742 47.7486 48.2165C48.0544 48.5342 48.4403 48.7633 48.8656 48.8796C49.2909 48.9959 49.7398 48.995 50.1646 48.877C51.5319 48.3729 51.7695 46.5305 51.4682 45.111C50.9264 42.8352 49.784 40.7464 48.16 39.0624C45.2645 35.9202 41.3335 33.927 37.0876 33.4481C32.8418 32.9693 28.5655 34.0369 25.043 36.4552" fill="#263238"/>
<path d="M10.9754 47.0698C11.7513 45.1648 11.9994 43.0859 11.6935 41.0518C11.3877 39.0178 10.5392 37.1038 9.23731 35.5113C7.99036 34.0816 6.35149 33.0489 4.52361 32.5413C2.69572 32.0336 0.759072 32.0731 -1.04658 32.6549C-2.72802 33.1687 -4.19511 34.2187 -5.22386 35.6445C-7.10683 38.3676 -6.89246 42.4753 -5.12537 45.2679C-4.25199 46.5859 -3.09034 47.6881 -1.72827 48.4911C-0.366203 49.2941 1.16062 49.7769 2.73673 49.9029C5.78424 50.1926 8.84913 49.3235 11.717 48.1242" fill="#263238"/>
<path d="M5.44727 47.7011C5.49362 47.6548 6.18886 48.2805 7.48087 49.0569C8.2384 49.5135 9.03533 49.9013 9.8621 50.2156C11.8958 50.977 14.0683 51.297 16.2352 51.1542C17.1141 51.0994 17.9865 50.9675 18.8424 50.7602C20.3024 50.401 21.1599 49.9955 21.1599 50.0534C20.9831 50.1854 20.7879 50.2908 20.5805 50.3663C20.3483 50.4832 20.1083 50.5839 19.8621 50.6675C19.5415 50.7909 19.2147 50.8973 18.8829 50.9862C18.0177 51.2284 17.131 51.3855 16.2352 51.4555C14.0297 51.6254 11.8145 51.2905 9.75781 50.4764C8.92326 50.148 8.12201 49.7405 7.36499 49.2597C7.0711 49.0846 6.78857 48.8911 6.51911 48.6803C6.31468 48.5278 6.12109 48.3613 5.93973 48.182C5.75641 48.0426 5.59101 47.8811 5.44727 47.7011Z" fill="#455A64"/>
<path d="M21.4971 55.4822C21.2744 55.575 21.0408 55.6392 20.8019 55.6734C20.35 55.7719 19.6953 55.8993 18.8726 56.0152C16.7288 56.3556 14.5406 56.2967 12.4183 55.8414C10.2754 55.3491 8.35244 54.1689 6.94325 52.481C6.52778 51.9663 6.18828 51.3946 5.93514 50.7835C5.83273 50.5649 5.76248 50.3327 5.72656 50.094C6.10245 50.8905 6.56904 51.6409 7.11706 52.3304C8.53268 53.926 10.4097 55.0417 12.4879 55.5227C14.5823 55.9687 16.7371 56.0569 18.861 55.7834C19.6779 55.6965 20.3384 55.6038 20.7961 55.5459C21.0263 55.4962 21.2617 55.4748 21.4971 55.4822Z" fill="#455A64"/>
<path d="M-2.17613 93.3154C-2.17613 93.3154 -2.2051 93.3154 -2.25145 93.2285C-2.32609 93.1358 -2.39572 93.0391 -2.46002 92.9388C-2.69034 92.544 -2.84552 92.1098 -2.91773 91.6584C-3.01457 90.8206 -2.92735 89.9718 -2.66217 89.1713C-2.39698 88.3707 -1.96022 87.6377 -1.38239 87.0234C-0.595538 86.1873 0.307957 85.4692 1.30011 84.8913C2.35458 84.2424 3.54229 83.6573 4.70104 82.9272C5.93624 82.2028 7.00438 81.2255 7.83545 80.0593C8.24712 79.4371 8.5271 78.7371 8.65817 78.0026C8.78156 77.2335 8.76585 76.4486 8.61182 75.6851C8.24785 74.182 7.76149 72.7113 7.15759 71.2876C6.59035 69.9288 6.27619 68.4778 6.23059 67.0061C6.24064 64.5016 7.08004 62.071 8.61761 60.0941C9.62358 58.753 10.9343 57.6707 12.4415 56.9365L13.1541 56.6237L13.7335 56.4499C13.8817 56.3958 14.0351 56.3569 14.1912 56.334C14.0491 56.4047 13.9019 56.4648 13.7509 56.5136L13.2236 56.7164L12.5284 57.0524C11.0681 57.8221 9.80365 58.9162 8.83198 60.2505C7.33819 62.1932 6.52395 64.5729 6.51448 67.0234C6.56995 68.4565 6.88399 69.8678 7.44148 71.1891C8.06135 72.6221 8.55944 74.1048 8.93047 75.6213C9.09049 76.4174 9.1062 77.2357 8.97682 78.0373C8.85072 78.832 8.55211 79.5894 8.10197 80.2563C7.23999 81.4407 6.13601 82.4281 4.86327 83.1532C3.70452 83.889 2.49363 84.4626 1.44496 85.0999C0.453666 85.6671 -0.44832 86.3778 -1.23175 87.2088C-1.79837 87.7968 -2.23306 88.4988 -2.50681 89.2681C-2.78056 90.0374 -2.88707 90.8563 -2.81924 91.67C-2.71948 92.2566 -2.50061 92.8166 -2.17613 93.3154Z" fill="#455A64"/>
<path d="M14.5793 94.0914C14.4513 94.0326 14.3307 93.9587 14.2201 93.8713C13.9099 93.6224 13.6536 93.3129 13.4669 92.9616C13.162 92.3973 12.9877 91.7716 12.9571 91.1308C12.9209 90.2834 13.0427 89.4366 13.3163 88.6337C13.8957 86.7971 15.489 85.1575 16.7172 83.0891C17.381 82.0188 17.747 80.7908 17.7775 79.5318C17.7528 78.1787 17.4428 76.8461 16.8679 75.621C15.7497 73.0486 13.971 70.986 12.7717 68.8249C12.1761 67.8159 11.7108 66.7355 11.387 65.6094C11.115 64.6176 11.044 63.5815 11.1784 62.5619C11.3247 61.0679 12.0254 59.6829 13.1425 58.6801C13.4545 58.4262 13.802 58.2194 14.1738 58.0659C14.301 58.0064 14.4354 57.9635 14.5736 57.9385C13.6592 58.3291 12.8757 58.9729 12.3152 59.7942C11.7547 60.6154 11.4407 61.5797 11.4102 62.5735C11.2938 63.5609 11.3765 64.5617 11.6535 65.5167C11.9796 66.6218 12.4449 67.6809 13.0382 68.6685C13.6176 69.7172 14.3766 70.7716 15.1182 71.8782C15.9097 73.0148 16.5962 74.221 17.1691 75.4819C17.7512 76.7555 18.0591 78.1373 18.073 79.5375C18.0333 80.8503 17.6432 82.1285 16.9432 83.2397C15.6686 85.3545 14.0463 86.9535 13.5017 88.709C13.2237 89.4815 13.0901 90.2985 13.1077 91.1192C13.1201 91.7387 13.2685 92.3479 13.5423 92.9037C13.8024 93.3669 14.1555 93.7712 14.5793 94.0914Z" fill="#455A64"/>
<path d="M40.9821 47.5969C40.9821 47.5969 40.901 47.5969 40.7503 47.4868C40.5352 47.3637 40.3299 47.2243 40.1362 47.0696C39.4376 46.4853 38.849 45.781 38.3981 44.9897C37.7462 43.8167 37.2013 42.5873 36.77 41.3165C36.5035 40.6096 36.2196 39.8796 35.8604 39.1496C35.488 38.4014 35.0436 37.6912 34.5337 37.0291C32.7283 34.6849 30.2375 32.9616 27.4074 32.0986C26.2274 31.7711 25.0187 31.5577 23.7979 31.4613C24.1292 31.4289 24.463 31.4289 24.7944 31.4613C25.6991 31.5145 26.596 31.6601 27.4711 31.8958C28.7713 32.256 30.0111 32.8065 31.1501 33.5297C33.2994 34.8599 35.0318 36.767 36.1501 39.0337C36.5093 39.7811 36.7932 40.5227 37.0539 41.2296C37.4672 42.4927 37.9846 43.7194 38.6009 44.897C39.0235 45.6815 39.5737 46.3903 40.2289 46.9943C40.6982 47.3941 40.9995 47.5679 40.9821 47.5969Z" fill="#455A64"/>
<path d="M49.7767 47.8112C49.6613 47.8104 49.5464 47.7949 49.4349 47.7648C49.1133 47.7046 48.7988 47.6114 48.4963 47.4867C47.3778 47.031 46.3744 46.3324 45.5589 45.4415C44.3551 44.1261 43.3516 42.6404 42.5809 41.0325C41.6481 39.2654 40.7559 37.2434 39.3306 35.4647C37.981 33.8011 36.1653 32.5785 34.1163 31.9537C32.4328 31.4495 30.6926 31.1595 28.9367 31.0904C27.4361 31.0093 26.2136 31.0325 25.3677 31.0383H24.377C24.2635 31.0521 24.1487 31.0521 24.0352 31.0383C24.1452 31.0108 24.2578 30.9953 24.3712 30.9919C24.5914 30.9919 24.9506 30.9456 25.3445 30.9282C26.1846 30.8818 27.4071 30.8239 28.9251 30.876C30.7063 30.9138 32.4749 31.1846 34.1858 31.6814C36.3071 32.306 38.1896 33.5583 39.5856 35.2735C41.0514 37.1043 41.9378 39.1495 42.8474 40.9108C43.6014 42.502 44.5767 43.9786 45.7443 45.2967C46.5292 46.1824 47.4902 46.8948 48.5659 47.3882C49.3132 47.7185 49.7825 47.8112 49.7767 47.8112Z" fill="#455A64"/>
<path d="M63.3221 89.2134C63.2873 89.2134 63.5017 88.7673 63.7392 87.9504C64.0762 86.799 64.2421 85.6043 64.2317 84.4046C64.2302 82.6289 63.8344 80.8756 63.0729 79.2714C62.6075 78.3297 62.0234 77.4516 61.3348 76.6584C60.628 75.8241 59.8168 75.0304 59.0173 74.1961C58.2008 73.3939 57.4473 72.53 56.7635 71.6121C56.1404 70.743 55.6066 69.8132 55.1703 68.8368C54.4393 67.1856 53.9927 65.4226 53.8493 63.6225C53.7582 62.4052 53.8166 61.1813 54.0231 59.9782C54.0868 59.5553 54.1737 59.2308 54.2259 59.0107C54.248 58.897 54.283 58.7862 54.3302 58.6804C54.3649 58.6804 54.2491 59.1497 54.1506 59.9956C53.9984 61.1872 53.9809 62.3922 54.0984 63.5877C54.1768 64.4127 54.3202 65.2302 54.5272 66.0327C54.7561 66.954 55.0704 67.8521 55.4657 68.7152C55.8989 69.6695 56.4268 70.5779 57.0416 71.4266C57.7205 72.3273 58.4661 73.1755 59.2722 73.9643C60.0834 74.7986 60.9003 75.6039 61.5897 76.4556C63.4988 78.6596 64.53 81.4891 64.4866 84.4046C64.4852 85.6233 64.2896 86.8339 63.9072 87.991C63.8006 88.3035 63.6748 88.6092 63.5306 88.9064C63.4754 89.0177 63.4052 89.121 63.3221 89.2134Z" fill="#455A64"/>
<path d="M-5.43242 44.2888C-5.43576 44.0179 -5.39666 43.7481 -5.31654 43.4892C-5.14172 42.775 -4.87696 42.0858 -4.5286 41.4383C-3.99981 40.4106 -3.26326 39.5039 -2.36564 38.7759C-1.46803 38.0478 -0.42893 37.5142 0.685768 37.2088C2.12612 36.9226 3.61858 37.0603 4.98221 37.6054C6.34583 38.1504 7.52206 39.0793 8.36827 40.2795C8.5317 40.4863 8.6626 40.7169 8.75645 40.9632C8.16643 40.2467 7.50656 39.5907 6.78658 39.0049C5.94146 38.3557 4.96596 37.8968 3.92694 37.6598C2.88792 37.4228 1.80994 37.4132 0.766882 37.6318C-0.299142 37.9239 -1.29638 38.4253 -2.16673 39.1067C-3.03708 39.788 -3.76315 40.6358 -4.30264 41.6005C-4.76212 42.4595 -5.14035 43.3595 -5.43242 44.2888Z" fill="#455A64"/>
<path d="M1.5498 47.9791C1.55773 47.3525 1.64534 46.7295 1.81052 46.1251C2.07273 44.6351 2.71534 43.2381 3.67611 42.0695C4.15635 41.5336 4.78646 41.1543 5.48478 40.9808C6.1831 40.8073 6.91746 40.8474 7.59268 41.0961C8.00326 41.2691 8.35528 41.5567 8.60658 41.9246C8.78039 42.1969 8.83254 42.3708 8.81516 42.3823C8.46376 41.9473 8.01261 41.6035 7.49998 41.38C6.87248 41.1938 6.20516 41.1886 5.57481 41.3649C4.94446 41.5412 4.37669 41.8918 3.93683 42.3765C3.02905 43.495 2.39073 44.8074 2.07124 46.212C1.94318 46.8136 1.76885 47.4044 1.5498 47.9791Z" fill="#455A64"/>
<path d="M11.2369 36.2236C11.3354 36.3047 10.0782 38.066 9.16853 40.6384C8.25892 43.2109 8.13725 45.4588 8.00979 45.4472C7.88232 45.4356 7.87653 43.1297 8.80932 40.482C9.74211 37.8343 11.179 36.1715 11.2369 36.2236Z" fill="#0B622F"/>
<path d="M-15.9884 77.1914C-15.6523 77.6062 -15.2183 77.9307 -14.7254 78.1358C-14.1451 78.3689 -13.516 78.4545 -12.8946 78.3849C-12.0702 78.3059 -11.2897 77.9763 -10.6582 77.4406C-9.23291 76.2818 -8.45075 74.0049 -8.51449 71.5889C-8.51449 70.3722 -8.6825 69.0976 -8.80417 67.7708C-8.96875 66.3951 -8.94536 65.0035 -8.73465 63.6341C-8.6144 62.9385 -8.39592 62.2635 -8.08575 61.6294C-7.76995 61.0242 -7.36792 60.468 -6.89224 59.9782C-5.96841 59.0767 -4.90139 58.3347 -3.73465 57.7824C-2.63384 57.203 -1.562 56.7801 -0.565475 56.3398C0.356396 55.9371 1.24219 55.4564 2.08226 54.9029C3.3275 54.1405 4.34111 53.0528 5.0139 51.7569C5.22689 51.2687 5.38243 50.7573 5.4774 50.2332C5.4774 50.2332 5.4774 50.3722 5.42525 50.6445C5.35826 51.0438 5.24147 51.4331 5.07763 51.8033C4.42367 53.1316 3.40993 54.2498 2.15179 55.0304C1.30874 55.5939 0.419056 56.0843 -0.507536 56.4962C-1.49827 56.9423 -2.57011 57.3942 -3.65933 57.9446C-4.80549 58.4956 -5.85435 59.2294 -6.76478 60.1173C-7.229 60.6 -7.61946 61.1486 -7.92352 61.7453C-8.22544 62.3655 -8.43992 63.0245 -8.56084 63.7036C-9.04172 66.4846 -8.33488 69.1671 -8.34647 71.6237C-8.35806 74.0802 -9.09965 76.3745 -10.5771 77.5738C-11.2327 78.1217 -12.0427 78.4517 -12.8946 78.5182C-13.5304 78.5824 -14.1722 78.4847 -14.7601 78.2343C-15.2686 78.036 -15.7021 77.6835 -16 77.2262L-15.9884 77.1914Z" fill="#263238"/>
<path d="M57.4997 36.3338C57.5534 36.4461 57.5924 36.5649 57.6156 36.6872C57.6893 37.0423 57.6652 37.4107 57.5461 37.7532C57.3176 38.3825 56.886 38.9178 56.3194 39.2745C55.7529 39.6312 55.0837 39.7891 54.4174 39.7231C53.5006 39.6137 52.6361 39.2369 51.9319 38.6397C51.1329 37.9646 50.4584 37.1547 49.9389 36.2469C49.3595 35.3141 48.8381 34.2828 48.1486 33.35C47.4459 32.3507 46.6185 31.4454 45.6863 30.6559C43.5402 28.84 40.9193 27.676 38.1331 27.3013C35.3469 26.9265 32.5117 27.3568 29.9621 28.5412C29.5449 28.7382 29.2205 28.9004 29.0119 29.0221C28.8033 29.1437 28.6816 29.1901 28.6816 29.1901C29.0787 28.9221 29.4951 28.6839 29.9273 28.4775C31.1098 27.9025 32.365 27.4912 33.6585 27.255C35.8012 26.8475 38.0083 26.9292 40.115 27.4941C42.2218 28.0589 44.1738 29.0922 45.8253 30.5169C46.7702 31.3149 47.6077 32.2322 48.3166 33.2457C49.0119 34.2306 49.5275 35.2619 50.1011 36.1889C50.6103 37.0823 51.2687 37.8818 52.0478 38.5528C52.7288 39.1349 53.564 39.5072 54.4522 39.6246C55.1872 39.7086 55.9258 39.5005 56.509 39.0452C56.9595 38.7119 57.3036 38.2551 57.4997 37.7301C57.6237 37.3992 57.6596 37.0419 57.604 36.693C57.5345 36.4554 57.4997 36.3338 57.4997 36.3338Z" fill="#263238"/>
<path d="M20.7964 89.6363L20.9064 89.5842L21.2367 89.4335C21.5322 89.2945 21.9609 89.0917 22.4881 88.7904C24.0122 87.9587 25.2955 86.7473 26.2135 85.2736C26.8185 84.2535 27.1701 83.1031 27.239 81.9191C27.275 81.2612 27.2046 80.6019 27.0304 79.9666C26.8235 79.3027 26.5251 78.6709 26.144 78.0894C25.2439 76.8809 24.199 75.7874 23.0327 74.8333C22.4534 74.3061 21.8334 73.7846 21.2541 73.2111C20.6486 72.6396 20.1137 71.9978 19.6608 71.2991C19.4369 70.9431 19.2432 70.5691 19.0814 70.1809C18.9437 69.787 18.8504 69.3789 18.8033 68.9643C18.7011 68.153 18.7924 67.3291 19.0698 66.5599C19.656 65.1552 20.4192 63.8313 21.341 62.6201C22.1393 61.5149 22.7718 60.2989 23.2181 59.0106C23.5911 57.8859 23.8151 56.7172 23.8844 55.5344C23.987 53.8115 23.7508 52.0852 23.1892 50.4533C23.0422 50.0085 22.868 49.5731 22.6677 49.1497C22.5287 48.86 22.465 48.6978 22.465 48.6978C22.465 48.6978 22.5519 48.8484 22.6967 49.1323C22.9199 49.5508 23.1135 49.9845 23.2761 50.4301C23.8653 52.0662 24.1214 53.8036 24.0293 55.5402C23.9483 56.7388 23.7087 57.9214 23.3166 59.057C22.8677 60.3597 22.2336 61.5909 21.4337 62.7128C20.5249 63.9149 19.7716 65.227 19.1915 66.6178C18.9255 67.3595 18.8382 68.1535 18.9366 68.9353C18.9831 69.3306 19.0744 69.7194 19.2089 70.094C19.368 70.4723 19.562 70.835 19.7882 71.1775C20.2307 71.8667 20.7561 72.4991 21.3526 73.0604C21.9319 73.6398 22.5113 74.1497 23.0907 74.6769C24.2691 75.6405 25.3221 76.748 26.2251 77.9735C26.6149 78.5705 26.9173 79.2202 27.1231 79.9028C27.2999 80.5535 27.3703 81.2285 27.3317 81.9017C27.2512 83.1093 26.8859 84.2807 26.2656 85.32C25.337 86.7985 24.0364 88.0072 22.4939 88.8252C21.9542 89.1472 21.386 89.4188 20.7964 89.6363Z" fill="#263238"/>
<path d="M67.21 66.6467L67.2969 66.6757C67.385 66.7051 67.4687 66.746 67.5461 66.7973C67.841 67.0026 68.0591 67.3002 68.166 67.6432C68.2583 67.9132 68.2895 68.2003 68.2574 68.4839C68.2254 68.7674 68.1308 69.0403 67.9806 69.2829C67.7624 69.5915 67.4719 69.8421 67.1346 70.0128C66.7973 70.1834 66.4234 70.269 66.0455 70.262C65.5902 70.2621 65.1397 70.1686 64.7221 69.9871C64.3044 69.8057 63.9286 69.5404 63.6179 69.2075C62.9015 68.4571 62.3612 67.5566 62.0362 66.5714C61.2772 64.5146 61.2541 62.0697 61.4916 59.6189C61.7291 57.1681 62.071 54.7869 61.9551 52.6374C61.9076 51.623 61.7244 50.6195 61.4105 49.6537C61.1264 48.8221 60.7139 48.0402 60.188 47.3362C59.4489 46.2838 58.4117 45.4766 57.21 45.0187C56.7632 44.8715 56.3034 44.7668 55.8369 44.7058C55.8369 44.7058 55.9644 44.7058 56.2019 44.7058C56.3522 44.7135 56.5016 44.7348 56.648 44.7695C56.8459 44.8048 57.04 44.8591 57.2274 44.9318C58.461 45.3716 59.5291 46.1808 60.2865 47.2493C60.8273 47.9662 61.2516 48.764 61.5437 49.6131C61.8718 50.5906 62.0666 51.6079 62.1231 52.6374C62.268 54.8101 61.9145 57.1739 61.6712 59.6479C61.4279 62.1218 61.4568 64.5262 62.1926 66.554C62.5067 67.5154 63.029 68.3958 63.7222 69.1322C64.0168 69.4547 64.3745 69.7131 64.7732 69.8915C65.1719 70.0699 65.603 70.1645 66.0397 70.1693C66.4057 70.1807 66.7689 70.1028 67.098 69.9423C67.4271 69.7818 67.7121 69.5435 67.9284 69.2481C68.0734 69.0186 68.1661 68.76 68.2002 68.4907C68.2342 68.2214 68.2087 67.9479 68.1254 67.6896C68.0289 67.354 67.8254 67.059 67.5461 66.8495C67.3491 66.6931 67.2042 66.6641 67.21 66.6467Z" fill="#263238"/>
<path d="M12.4992 100.047C12.4992 100.047 17.2327 109.648 27.2501 109.225C37.2675 108.802 38.3104 99.9546 38.3104 99.9546L43.9187 106.125L38.3104 119.931L30.0659 123.495L16.636 119.931L13.0438 114.242L4.15625 103.726L12.4992 100.047Z" fill="#0B622F"/>
<path d="M45.8432 110.384H45.3334C44.8597 110.425 44.3917 110.517 43.9371 110.656C43.2227 110.897 42.5384 111.22 41.8977 111.618C41.1445 112.075 40.3334 112.672 39.4353 113.356C38.4733 114.102 37.4477 114.763 36.3704 115.331C35.755 115.625 35.1153 115.866 34.4585 116.05C33.7616 116.237 33.0504 116.367 32.3322 116.438C29.3716 116.745 26.1097 116.09 22.9058 114.978C19.7019 113.866 16.7007 112.597 13.8386 111.925C12.4862 111.605 11.0957 111.476 9.70765 111.542C8.49884 111.584 7.29454 111.712 6.10395 111.925C4.37157 112.218 2.68487 112.736 1.08657 113.466C0.802673 113.593 0.565129 113.732 0.356554 113.848C0.177751 113.941 0.00546944 114.045 -0.159088 114.161L-0.582031 114.433C-0.0794311 114.026 0.471217 113.681 1.0576 113.408C2.65064 112.646 4.34082 112.106 6.08077 111.803C7.27642 111.58 8.48655 111.442 9.70186 111.392C11.1029 111.319 12.5071 111.444 13.8733 111.762C16.7702 112.435 19.754 113.709 22.9637 114.804C26.1735 115.899 29.389 116.542 32.3148 116.276C33.0243 116.203 33.7274 116.077 34.418 115.899C35.0659 115.722 35.6961 115.485 36.3009 115.192C37.3781 114.641 38.4021 113.991 39.36 113.251C40.2638 112.597 41.0981 112.006 41.8455 111.554C42.4966 111.161 43.1906 110.844 43.9139 110.61C44.3768 110.48 44.8531 110.404 45.3334 110.384C45.6752 110.384 45.8432 110.384 45.8432 110.384Z" fill="#FAFAFA"/>
<path d="M47.0363 77.1854L50.8486 84.8911L51.1962 89.0626C51.1962 89.0626 51.5438 87.8053 51.9726 86.6234C52.4013 85.4415 52.6736 81.7451 52.6736 81.7451L49.8926 75.9803C49.8926 75.9803 48.253 72.7995 50.2344 71.3163L53.1777 75.2039C53.1777 75.2039 50.8602 70.7369 53.0444 69.5203L55.5299 72.3128C55.4403 72.1704 55.3827 72.0102 55.3613 71.8433C55.3399 71.6764 55.355 71.5068 55.4058 71.3463C55.4565 71.1859 55.5416 71.0384 55.6551 70.9142C55.7685 70.7899 55.9077 70.6919 56.0629 70.6269L62.3376 78.6744L61.5554 90.5226L59.4059 102.852L60.4314 104.694L49.2901 112.411C49.2901 112.411 45.8138 104.793 45.5705 102.272C45.3271 99.752 47.8127 86.3974 47.8127 86.3974C47.8127 86.3974 45.443 81.6524 45.7501 79.752C46.0572 77.8517 47.0363 77.1854 47.0363 77.1854Z" fill="#FFBE9D"/>
<path d="M50.1877 114.259L50.1181 114.149L49.9443 113.796L49.2896 112.411C48.7103 111.189 47.9107 109.387 46.9721 107.04C46.4324 105.745 45.9719 104.418 45.5932 103.066C45.4166 102.273 45.3794 101.456 45.4831 100.65C45.5527 99.8273 45.6454 98.9698 45.7612 98.0892C46.2189 94.5666 46.8736 90.6036 47.65 86.2583V86.3858C46.9226 84.9391 46.3198 83.4331 45.8481 81.8841C45.7282 81.4734 45.6353 81.0554 45.5701 80.6326C45.5389 80.41 45.5253 80.1853 45.5295 79.9605V79.6187L45.5932 79.2885C45.6831 78.8479 45.8312 78.4212 46.0336 78.0196C46.2372 77.5906 46.5318 77.211 46.8968 76.9072L47.0938 76.7508L47.2155 76.9884C48.4264 79.4333 49.7126 82.0057 51.0335 84.6651V84.7056V84.7462C51.1494 86.0556 51.2653 87.4808 51.387 88.9235L50.9351 88.8771C51.1147 88.2977 51.3001 87.7184 51.5144 87.139L51.7925 86.2641C51.8785 85.9731 51.9462 85.6771 51.9953 85.3777C52.2039 84.1552 52.3256 82.8806 52.424 81.606V81.7276L50.7612 78.2514C50.4773 77.672 50.1819 77.0926 49.9038 76.4727C49.7647 76.1772 49.6025 75.8933 49.475 75.5515C49.3435 75.2333 49.2351 74.9061 49.1506 74.5724C48.9815 73.9474 48.9479 73.2936 49.0521 72.6546C49.1609 71.9894 49.5219 71.3918 50.0602 70.986L50.2514 70.847L50.3904 71.0324L53.3337 74.9258L52.9339 75.1749C52.4482 74.2235 52.1028 73.2068 51.9084 72.1564C51.8041 71.6187 51.8041 71.066 51.9084 70.5283C51.9676 70.2464 52.086 69.9802 52.2558 69.7475C52.4256 69.5148 52.6429 69.3208 52.8933 69.1784L53.0614 69.0857L53.183 69.2305L55.7033 72.2607L55.3267 72.5098C55.1532 72.1499 55.0965 71.7448 55.1645 71.351C55.2077 71.1474 55.297 70.9564 55.4256 70.7927C55.5541 70.629 55.7185 70.4969 55.9061 70.4067L56.0741 70.3198L56.19 70.4646L62.4646 78.4194L62.5167 78.4889V78.5643C62.2271 82.84 61.9374 86.8029 61.7114 90.4298C60.8655 95.1691 60.1297 99.3001 59.5098 102.747V102.66L63.6234 110.273L64.701 112.301L64.9733 112.828C65.0042 112.888 65.0313 112.95 65.0544 113.014C65.0088 112.963 64.9699 112.907 64.9385 112.846L64.6373 112.336L63.4785 110.343C62.4936 108.605 61.0625 106.021 59.2491 102.811V102.77V102.724C59.8284 99.2479 60.5411 95.1401 61.3522 90.3893C61.5782 86.7624 61.8331 82.7937 62.0996 78.5237L62.1459 78.6685L55.8424 70.7253L56.1262 70.7891C55.9985 70.8497 55.8862 70.9386 55.7979 71.049C55.7096 71.1594 55.6475 71.2884 55.6164 71.4264C55.5697 71.7242 55.6141 72.0291 55.7439 72.3012L56.4333 73.8308L55.3673 72.5503L52.8644 69.5492L53.1598 69.6013C52.9652 69.7125 52.7967 69.8641 52.6657 70.046C52.5348 70.228 52.4444 70.4359 52.4009 70.6558C52.3139 71.1327 52.3139 71.6215 52.4009 72.0984C52.5876 73.1065 52.9194 74.0823 53.3858 74.9953L52.9918 75.2502L50.0486 71.3626L50.3789 71.409C49.9354 71.7423 49.6385 72.2344 49.5503 72.7821C49.4588 73.3619 49.4924 73.9545 49.6488 74.5202C49.7256 74.8326 49.8264 75.1387 49.9501 75.4356C50.066 75.7311 50.2224 76.015 50.3615 76.3279L51.2189 78.1065L52.8875 81.5828L52.9165 81.6407V81.7045C52.8122 82.9965 52.6906 84.2711 52.4704 85.5225C52.4203 85.8394 52.3506 86.1528 52.2618 86.4611C52.1633 86.7624 52.0706 87.0405 51.9779 87.3476L51.4275 89.0857L51.0683 90.2097L50.9756 89.0509C50.8539 87.6083 50.7381 86.1888 50.628 84.8794V84.9605C49.3128 82.3012 48.0382 79.7462 46.8273 77.278L47.1401 77.3592C46.836 77.6204 46.5894 77.942 46.4159 78.3035C46.2285 78.67 46.0902 79.0596 46.0046 79.4623C45.8769 80.2653 45.9506 81.0875 46.2189 81.8551C46.6736 83.3803 47.255 84.8648 47.9571 86.2931V86.351V86.4148C47.1633 90.7427 46.4797 94.7056 45.9988 98.2108C45.8771 99.0857 45.7786 99.949 45.7033 100.76C45.5959 101.531 45.6233 102.316 45.7844 103.078C46.1433 104.422 46.5844 105.744 47.1054 107.035C48.0208 109.387 48.803 111.2 49.3302 112.44C49.5967 113.049 49.7937 113.524 49.9096 113.848L50.0602 114.207C50.1819 114.219 50.1935 114.259 50.1877 114.259Z" fill="#EB996E"/>
<path d="M56.1374 87.892C56.0538 87.2128 56.0538 86.526 56.1374 85.8468C56.2011 84.5838 56.3286 82.8456 56.5024 80.9279L56.5487 80.4007L56.5893 80.5571C55.5812 79.0565 54.7005 77.7066 54.0864 76.7217C53.7168 76.2147 53.4112 75.664 53.1768 75.082C53.621 75.5197 54.0102 76.01 54.3355 76.542C55.0192 77.4806 55.9404 78.7958 56.9543 80.2906L57.0064 80.3601V80.4412C57.0064 80.6093 56.9775 80.7889 56.9601 80.9685C56.7921 82.8862 56.6125 84.6243 56.4618 85.8758C56.4302 86.558 56.3214 87.2343 56.1374 87.892Z" fill="#EB996E"/>
<path d="M59.4239 84.6015C59.3525 83.9798 59.3525 83.3519 59.4239 82.7301C59.4877 81.5714 59.6035 79.9665 59.7599 78.1647L59.8121 78.3327L59.4587 77.8808C58.2999 76.3396 57.2339 74.9318 56.4981 73.9005C56.0588 73.3667 55.6835 72.7834 55.3799 72.1624C55.9008 72.6151 56.3657 73.1286 56.7646 73.6919C57.5699 74.671 58.6591 76.0442 59.8411 77.5853C59.9569 77.7359 60.0728 77.8924 60.1887 78.0372L60.2408 78.1125V78.2052C60.0728 80.0013 59.899 81.6004 59.7542 82.7533C59.7229 83.3809 59.612 84.002 59.4239 84.6015Z" fill="#EB996E"/>
<path d="M46.2822 109.833L61.8152 103.275C61.8152 103.275 84.4108 153.918 85.7086 157.191C88.8257 164.903 85.7434 176.345 77.2614 176.137C73.2637 176.044 61.8152 174.491 58.6924 162.33C57.7133 158.518 54.9381 149.381 54.9381 149.381L46.2822 109.833Z" fill="#0B622F"/>
<path d="M61.8154 103.275C61.7303 103.334 61.639 103.385 61.5431 103.425L60.7262 103.819L57.615 105.291L46.4562 110.505L46.5258 110.366C47.447 115.546 48.5941 121.705 50.002 128.251C52.0182 137.759 54.2198 146.282 55.9116 152.417C56.7749 155.47 57.4759 157.944 57.9626 159.677C58.2059 160.517 58.3913 161.177 58.542 161.647L58.681 162.162C58.7036 162.22 58.7173 162.28 58.7216 162.342C58.6925 162.288 58.6692 162.232 58.6521 162.174C58.6115 162.041 58.5536 161.878 58.484 161.664L57.8699 159.711C57.3427 158.008 56.6011 155.54 55.7262 152.475C53.9881 146.351 51.7459 137.829 49.7239 128.315C48.3276 121.762 47.1978 115.598 46.2998 110.407V110.308L46.3925 110.268L57.5976 105.169L60.7436 103.761L61.5721 103.396L61.8154 103.275Z" fill="#263238"/>
<path d="M83.1941 153.953C83.1547 154.034 83.1082 154.111 83.055 154.184L82.6263 154.839C82.4063 155.186 82.1644 155.519 81.9021 155.836C81.6008 156.212 81.2821 156.664 80.865 157.099L80.2219 157.805C79.9959 158.049 79.741 158.281 79.4861 158.53C78.982 159.04 78.3911 159.515 77.7769 160.036C76.4024 161.109 74.9324 162.053 73.3853 162.858C71.8258 163.637 70.1964 164.267 68.5185 164.741C67.7422 164.932 67.0064 165.135 66.2995 165.239C65.9461 165.297 65.6101 165.372 65.2798 165.413L64.3297 165.511C63.7503 165.592 63.1709 165.586 62.6958 165.61C62.2849 165.636 61.8727 165.636 61.4618 165.61L60.6796 165.575C60.5909 165.581 60.5018 165.581 60.4131 165.575C60.5036 165.566 60.5948 165.566 60.6854 165.575H61.4618C61.8728 165.597 62.2848 165.597 62.6958 165.575C63.1709 165.54 63.7213 165.54 64.3181 165.447L65.2567 165.337C65.5869 165.291 65.9229 165.216 66.2706 165.158C66.9716 165.048 67.7016 164.839 68.478 164.648C71.8197 163.704 74.9437 162.114 77.6726 159.967C78.281 159.457 78.8777 158.987 79.4108 158.483C79.6657 158.24 79.9264 158.014 80.1524 157.771C80.3783 157.527 80.5927 157.301 80.7955 157.075C81.2184 156.647 81.5486 156.206 81.8557 155.841C82.1192 155.528 82.3668 155.201 82.5973 154.862L83.055 154.231L83.1941 153.953Z" fill="#FAFAFA"/>
<path d="M78.9367 140.227C78.9044 140.31 78.8636 140.39 78.815 140.465C78.7281 140.615 78.6122 140.853 78.421 141.131C77.9056 141.93 77.299 142.667 76.6134 143.327C75.6038 144.317 74.4443 145.142 73.1777 145.772C71.6274 146.555 69.9384 147.025 68.2066 147.156C66.4826 147.204 64.7573 147.126 63.0444 146.925C61.6524 146.775 60.2462 146.822 58.8671 147.064C57.938 147.23 57.0491 147.572 56.2484 148.072C55.669 148.431 55.4314 148.703 55.4141 148.686C55.6528 148.429 55.9212 148.202 56.2136 148.008C57.01 147.479 57.9044 147.114 58.844 146.936C60.2323 146.676 61.6506 146.616 63.056 146.757C64.7619 146.948 66.479 147.021 68.1951 146.977C69.9034 146.848 71.5702 146.388 73.1024 145.621C74.3609 145.008 75.5162 144.203 76.5265 143.234C77.2108 142.586 77.8245 141.868 78.3573 141.09C78.5543 140.824 78.6759 140.592 78.7802 140.447C78.8276 140.371 78.8798 140.297 78.9367 140.227Z" fill="#FAFAFA"/>
<path d="M51.5078 134.202C51.5078 134.202 51.8207 134.202 52.3769 134.202C53.1634 134.183 53.9435 134.054 54.6944 133.819C55.8033 133.465 56.8565 132.956 57.823 132.307C59.004 131.498 60.1286 130.61 61.1891 129.648C62.2524 128.682 63.3705 127.779 64.5379 126.942C65.5056 126.265 66.5598 125.722 67.6723 125.326C68.4186 125.062 69.1993 124.908 69.9898 124.868C70.28 124.854 70.5708 124.865 70.8589 124.903C70.8589 124.903 70.546 124.903 69.9898 124.938C69.1979 125.003 68.4184 125.174 67.6723 125.447C66.5798 125.855 65.5455 126.404 64.5959 127.081C63.4376 127.923 62.3255 128.826 61.2645 129.787C60.1996 130.753 59.0669 131.642 57.8751 132.446C56.8913 133.098 55.8179 133.604 54.6886 133.947C53.925 134.171 53.1322 134.281 52.3363 134.271C52.0586 134.274 51.7812 134.251 51.5078 134.202Z" fill="#FAFAFA"/>
<path d="M63.0669 110.772C63.0589 110.828 63.0433 110.882 63.0206 110.934C62.9645 111.088 62.8967 111.237 62.8178 111.38C62.5188 111.91 62.1262 112.381 61.659 112.771C60.9725 113.349 60.1875 113.798 59.3415 114.098C58.3082 114.446 57.2361 114.665 56.1492 114.752C54.9904 114.874 53.907 114.92 52.9221 115.03C52.0468 115.115 51.1804 115.273 50.3323 115.505C49.765 115.67 49.2157 115.891 48.6927 116.166C48.3219 116.363 48.1133 116.496 48.1133 116.479C48.1531 116.439 48.1979 116.403 48.2465 116.375C48.3765 116.276 48.5119 116.185 48.6521 116.102C49.169 115.8 49.7192 115.559 50.2917 115.384C51.1431 115.131 52.0158 114.956 52.8989 114.862C53.8896 114.746 54.9847 114.689 56.126 114.573C57.1977 114.486 58.2555 114.274 59.2778 113.941C60.1052 113.655 60.8759 113.225 61.5548 112.672C62.1929 112.158 62.7093 111.509 63.0669 110.772Z" fill="#FAFAFA"/>
</svg>
