<svg width="205" height="211" viewBox="0 0 205 211" fill="none" xmlns="http://www.w3.org/2000/svg">
<path d="M47.938 161.591C47.938 161.591 43.5205 167.752 41.1952 172.751C38.8699 177.75 43.1714 202.048 45.148 211H74.4445C74.4445 211 77.0024 186.702 77.9322 182.052C78.862 177.401 73.6308 163.566 72.0032 161.358C70.3751 159.149 47.938 161.591 47.938 161.591Z" fill="#151D54"/>
<path d="M76.9059 107.878C76.9059 107.878 79.3874 106.885 81.3725 108.126C81.3725 108.126 85.0949 134.181 85.0949 137.407C85.0949 140.633 81.8688 149.566 68.4691 137.407C55.0695 125.248 54.5732 117.059 58.2956 116.314C62.0175 115.57 76.4102 129.466 76.4102 129.466L76.9059 107.878Z" fill="#FFBF9D"/>
<path d="M51.7837 110.717C50.2005 110.776 48.5676 111.023 46.8826 111.483C46.1021 111.697 45.3252 111.955 44.6306 112.37C38.0782 116.291 43.7931 127.268 45.0794 132.659C46.6843 139.388 46.2534 146.587 43.858 153.075C43.291 154.61 42.6123 156.127 42.4039 157.75C42.194 159.387 41.9367 162.161 43.3142 163.371C44.6976 164.586 46.8109 163.88 48.6083 163.482C49.9779 163.178 51.404 163.097 52.7889 163.32C54.4075 163.582 55.9449 164.252 57.573 164.445C60.6382 164.808 63.6418 163.456 66.7228 163.272C68.458 163.168 70.2142 163.441 71.8354 164.067C72.6524 164.383 73.4867 164.795 74.3569 164.697C75.4666 164.573 76.34 163.616 76.7065 162.561C77.073 161.507 77.0324 160.36 76.9876 159.244C76.7207 152.614 76.6363 146.264 75.2287 139.716C74.9397 138.371 74.6175 136.968 74.9724 135.64C75.4165 133.977 76.8415 132.735 77.4021 131.108C78.4343 128.112 76.2941 125.015 74.156 122.677C68.0308 115.976 60.6978 110.381 51.7837 110.717Z" fill="#0B9346"/>
<path d="M49.4184 112.14C49.4184 112.14 43.2816 108.364 36.9876 119.536C31.9367 128.502 26.9871 143.041 25.2287 148.434C24.8084 149.723 25.1639 151.136 26.1385 152.079C30.8619 156.649 45.0484 170.069 53.3518 174.61C53.3518 174.61 55.5547 172.564 57.2856 169.889L38.718 146.129C38.718 146.129 45.6417 128.033 50.0471 122.997C54.454 117.962 51.1494 113.714 49.4184 112.14Z" fill="#0B9346"/>
<path d="M26.1385 152.078C30.8619 156.648 45.0484 170.068 53.3518 174.609C53.3518 174.609 55.5547 172.563 57.2856 169.888L38.7186 146.128C38.7186 146.128 38.7259 146.109 38.7307 146.096C34.2019 144.593 28.2365 145.363 26.1332 145.71C25.7767 146.764 25.4713 147.688 25.2287 148.433C24.8084 149.723 25.1639 151.135 26.1385 152.078Z" fill="#FFBF9D"/>
<path d="M60.1289 166.024C60.1289 166.024 54.548 175.806 47.5879 178.189" stroke="white" stroke-width="0.4793" stroke-miterlimit="10" stroke-linecap="round" stroke-linejoin="round"/>
<path d="M67.791 210.144L70.428 183.378C70.428 183.378 73.3287 179.422 75.8339 178.631" stroke="white" stroke-width="0.4793" stroke-miterlimit="10" stroke-linecap="round" stroke-linejoin="round"/>
<path d="M70.4258 183.378L71.2169 177.708" stroke="white" stroke-width="0.4793" stroke-miterlimit="10" stroke-linecap="round" stroke-linejoin="round"/>
<path d="M31.9044 141.18C33.6069 141.336 35.3183 141.38 37.0307 141.279C37.7522 141.236 38.4827 141.166 39.1931 141.3C39.9035 141.433 40.6081 141.803 40.9567 142.436C41.3053 143.07 41.1777 143.982 40.5627 144.361C40.8285 144.834 41.4962 145.057 41.5838 145.593C41.6734 146.142 41.0685 146.557 40.5211 146.655C39.8096 146.783 39.0807 146.642 38.3714 146.501C37.4832 146.325 36.5951 146.149 35.7075 145.974C34.9934 145.832 34.2782 145.69 33.5546 145.613C30.8823 145.329 28.1915 145.932 25.505 145.85C25.1753 145.84 24.8209 145.81 24.5678 145.599C24.2751 145.355 24.1986 144.932 24.235 144.553C24.3246 143.616 25.0298 142.768 25.9353 142.509C25.794 142.366 25.785 142.129 25.8657 141.944C25.9464 141.759 26.0988 141.616 26.2544 141.488C26.738 141.09 27.3087 140.772 27.9299 140.692C28.7917 140.582 29.634 140.918 30.4789 141.025C30.9525 141.084 31.4282 141.137 31.9044 141.18Z" fill="#F97384"/>
<path d="M44.5312 132.307C46.3239 130.069 48.3886 128.049 50.6665 126.306" stroke="#111A44" stroke-width="0.5669" stroke-miterlimit="10" stroke-linecap="round" stroke-linejoin="round"/>
<path d="M47.0898 130.9C49.0254 129.297 51.2146 128.001 53.5505 127.074" stroke="#111A44" stroke-width="0.5669" stroke-miterlimit="10" stroke-linecap="round" stroke-linejoin="round"/>
<path d="M60.2115 102.616L60.2938 112.54C60.2938 112.54 68.0039 117.052 66.8557 118.282C65.7076 119.513 53.1581 114.263 52.502 112.295C51.8459 110.326 51.7637 102.124 51.7637 102.124L60.2115 102.616Z" fill="#FFBF9D"/>
<path d="M51.8581 69.9206C53.1238 69.8463 54.4054 70.0514 55.5852 70.5177C58.8287 71.8003 61.0085 74.8925 62.4377 78.0744C63.2863 79.9641 63.9561 81.9535 64.9919 83.7546C66.1374 85.7466 67.4665 86.2772 69.0144 87.6737C69.4811 88.0946 69.7591 88.7934 69.5043 89.3683C69.3872 89.632 69.1742 89.8409 68.95 90.0223C68.3351 90.5196 67.5962 90.8614 66.8193 91.0086C67.0641 93.2854 68.8129 94.8782 69.2074 97.0743C69.7295 99.9808 67.1869 102.474 64.7657 104.164C63.5832 104.99 62.3438 105.782 60.9499 106.153C58.3467 106.845 55.5973 105.978 53.1101 104.942C51.2168 104.153 49.3572 103.256 47.6726 102.086C43.3474 99.0816 40.3302 94.2579 39.5212 89.054C38.2681 80.9899 42.5774 70.467 51.8581 69.9206Z" fill="#FFBF9D"/>
<path d="M61.8629 71.0604C62.1936 72.0235 61.6345 73.3341 60.6172 73.38C61.6182 74.15 61.4795 75.8166 60.6267 76.748C59.7739 77.6794 58.4617 78.027 57.2102 78.1957C55.5842 78.4151 53.9282 78.4072 52.3048 78.172C52.6424 79.8339 51.693 81.6677 50.1414 82.3523C50.9927 83.1349 51.8391 83.9624 52.356 84.9977C52.8728 86.0325 53.0105 87.3241 52.4351 88.3273C54.6396 89.0187 56.2677 91.2396 56.264 93.5497C56.2635 93.8118 56.2382 94.0908 56.0815 94.3007C55.7635 94.7263 55.1069 94.653 54.609 94.4674C53.212 93.9468 51.7384 92.8809 50.3883 93.5127C48.9796 94.1725 48.9638 96.3481 49.9932 97.5142C51.0233 98.6798 52.6497 99.0785 54.1771 99.3723C54.3786 99.4113 54.589 99.453 54.7499 99.5806C55.1691 99.9123 55.0151 100.592 54.7198 101.037C54.166 101.872 53.241 102.45 52.2479 102.58C53.155 102.39 54.0199 103.28 54.0917 104.204C54.1629 105.129 53.6523 106.003 53.0353 106.695C51.6461 108.251 49.6082 109.208 47.5234 109.284C45.4392 109.359 43.3364 108.552 41.8386 107.1C40.0718 108.295 37.5925 108.329 35.7941 107.182C33.9956 106.034 32.9809 103.772 33.3206 101.665C31.8317 101.977 30.1293 102.246 28.9152 101.329C28.0977 100.711 27.7038 99.684 27.486 98.6829C27.2634 97.6619 27.2381 96.4504 27.9965 95.7316C28.8561 94.9172 30.2949 95.1324 31.2774 94.4721C30.1836 94.1936 29.2981 93.3508 28.7412 92.3693C28.1837 91.3878 27.9158 90.2713 27.7032 89.1627C27.4701 87.946 27.2977 86.6717 27.6421 85.4819C27.9865 84.2915 28.9753 83.2061 30.2116 83.1207C29.5818 81.5137 29.8287 79.5928 30.8444 78.1968C31.8602 76.8013 33.6117 75.9754 35.3347 76.0803C35.5077 74.3989 35.8632 72.6653 36.8905 71.3231C37.9179 69.9808 39.7749 69.1491 41.3513 69.7604C42.3206 67.6544 44.4983 66.1587 46.8114 66.0094C47.9506 65.9361 49.1362 66.2832 49.7517 67.2963C51.4821 66.02 54.3648 65.8386 56.2735 66.8301C58.015 67.7346 61.1857 69.089 61.8629 71.0604Z" fill="#263238"/>
<path d="M25.4582 84.1681C24.1197 83.5394 22.6551 82.9799 21.1952 83.2182C19.7359 83.4566 18.3605 84.7852 18.5878 86.2466C17.4175 84.5051 14.9498 83.8801 12.9847 84.6153C11.0196 85.3505 9.61777 87.2571 9.21695 89.3167C9.03553 90.2497 9.38044 91.574 10.3282 91.5049C9.15261 92.7643 8.02345 94.2606 8.00024 95.9831C7.97704 97.7056 9.62674 99.4925 11.268 98.9693C10.6879 100.557 10.161 102.5 11.2448 103.797C11.9884 104.687 13.2373 104.924 14.3823 105.105C15.2414 105.24 16.1385 105.373 16.966 105.106C17.7935 104.838 18.5176 104.035 18.3868 103.175C18.2249 104.213 18.8726 105.249 19.7475 105.831C20.6225 106.413 21.6868 106.626 22.7273 106.775C24.8074 107.074 27.3442 106.963 28.4517 105.176C29.3989 103.648 28.9248 101.371 30.2881 100.199C30.7412 99.8095 31.3271 99.6196 31.8461 99.3237C37.6712 96.0021 29.1447 85.8996 25.4582 84.1681Z" fill="#263238"/>
<path d="M51.6455 94.5601C51.2811 95.2689 51.2689 96.1481 51.6128 96.867C51.5711 96.6302 51.8839 96.5083 52.1228 96.4788C52.4577 96.4376 52.8068 96.3976 53.1243 96.512C53.4418 96.6259 53.7129 96.945 53.6538 97.2773C53.5906 97.6333 53.2108 97.8258 52.877 97.964" stroke="#111A44" stroke-width="0.5669" stroke-miterlimit="10" stroke-linecap="round" stroke-linejoin="round"/>
<path d="M63.0668 85.2888C63.2698 85.8737 63.1048 86.4623 62.6976 86.6036C62.2905 86.745 61.7958 86.3853 61.5927 85.8004C61.3897 85.2155 61.5547 84.6269 61.9619 84.4856C62.369 84.3442 62.8637 84.7039 63.0668 85.2888Z" fill="#111A44"/>
<path d="M58.5623 80.6378C57.7712 81.2917 56.9669 81.9605 56.4116 82.8239C56.3541 82.913 56.2977 83.0095 56.295 83.116C56.2887 83.3666 56.5788 83.5243 56.8293 83.5285C57.4643 83.539 57.9468 82.9979 58.4162 82.5697C58.8503 82.1736 59.3413 81.845 59.7933 81.4689C60.0401 81.2633 60.2837 81.0301 60.3861 80.7253C60.5321 80.2891 60.2616 79.757 59.7495 79.8224C59.346 79.8741 58.8671 80.3856 58.5623 80.6378Z" fill="#182240"/>
<path d="M66.7719 90.9185C66.2977 90.9866 65.8004 91.0346 65.3521 90.8658C64.9043 90.6965 64.5272 90.2451 64.6011 89.772" stroke="#111A44" stroke-width="0.5669" stroke-miterlimit="10" stroke-linecap="round" stroke-linejoin="round"/>
<path d="M27.6307 92.4533C26.9709 93.1042 26.8301 94.1722 27.1576 95.0392C27.4851 95.9063 28.2166 96.5777 29.0467 96.9906C27.4529 96.9221 25.9404 95.8794 25.3085 94.4143C25.0285 93.7645 24.9135 93.0519 24.8951 92.3447C24.8829 91.88 24.9125 91.4096 25.048 90.965C25.3745 89.8922 26.3238 89.0458 27.3475 88.6528C26.3501 89.7108 26.4651 91.5573 27.6307 92.4533Z" fill="#EF3F4F"/>
<path d="M63.904 94.9461C63.807 94.9218 63.6904 94.8997 63.6187 94.9698C63.5765 95.011 63.5639 95.0737 63.5581 95.1328C63.5122 95.5974 63.768 96.0552 64.1313 96.3474C64.4952 96.6396 64.9541 96.7883 65.4119 96.8796C65.8296 96.9629 66.2562 97.0035 66.6824 97.0003C67.0974 96.9972 67.5573 96.9297 67.821 96.6095C68.051 96.33 68.0657 95.9213 67.9497 95.5785C67.8732 95.3522 67.6644 94.8464 67.4197 94.7615C67.1823 94.6792 66.6201 94.9735 66.3622 95.021C65.55 95.1702 64.7057 95.147 63.904 94.9461Z" fill="#3D1311"/>
<path d="M66.6829 96.9997C66.9677 96.9976 67.2699 96.9586 67.5194 96.8347C66.279 95.8969 65.067 96.2788 64.4863 96.5704C64.7743 96.7197 65.0928 96.8146 65.4124 96.8784C65.8307 96.9623 66.2568 97.0029 66.6829 96.9997Z" fill="#F46274"/>
<path d="M67.9231 95.5036C67.8318 95.2563 67.6409 94.8375 67.4199 94.761C67.1826 94.6787 66.6204 94.973 66.3625 95.0205C65.5503 95.1698 64.7054 95.1466 63.9038 94.9461C63.8067 94.9219 63.6902 94.8997 63.6184 94.9699C63.5762 95.011 63.5636 95.0738 63.5578 95.1328C63.5298 95.4129 63.6205 95.6861 63.7698 95.9266C65.6067 96.0827 67.1684 95.7267 67.9231 95.5036Z" fill="white"/>
<path d="M26.9316 143.93C30.2933 143.648 33.6918 143.118 37.0176 143.684" stroke="#111A44" stroke-width="0.5669" stroke-miterlimit="10" stroke-linecap="round" stroke-linejoin="round"/>
<path d="M30.5762 142.5C31.7628 142.609 32.9495 142.718 34.1361 142.827" stroke="#111A44" stroke-width="0.5669" stroke-miterlimit="10" stroke-linecap="round" stroke-linejoin="round"/>
<path d="M50.6602 158.121C50.8421 159.071 51.5588 159.852 52.4 160.33C53.2412 160.808 54.2022 161.024 55.1515 161.207C59.0147 161.951 62.9644 162.244 66.8951 162.076" stroke="#111A44" stroke-width="0.5669" stroke-miterlimit="10" stroke-linecap="round" stroke-linejoin="round"/>
<path d="M58.3496 160.546C59.6623 160.702 60.984 160.782 62.3062 160.784" stroke="#111A44" stroke-width="0.5669" stroke-miterlimit="10" stroke-linecap="round" stroke-linejoin="round"/>
<path d="M64.998 161.112C67.481 160.71 70.0584 160.906 72.4523 161.677" stroke="#111A44" stroke-width="0.5669" stroke-miterlimit="10" stroke-linecap="round" stroke-linejoin="round"/>
<path d="M63.4102 134.833C64.4581 135.248 65.6247 135.294 66.7396 135.129C67.8546 134.965 68.9294 134.599 69.9863 134.207" stroke="#111A44" stroke-width="0.5669" stroke-miterlimit="10" stroke-linecap="round" stroke-linejoin="round"/>
<path d="M83.9529 103.866C84.4439 102.713 84.803 101.294 84.0657 100.281C83.7445 99.8405 83.2604 99.552 82.7836 99.2872C81.4862 98.5668 80.1419 97.9313 78.7617 97.3859C78.1182 97.1317 77.4395 96.8933 76.7512 96.9629C76.0967 97.0294 75.505 97.3669 74.9359 97.6971C73.0863 98.7704 71.4192 100.173 69.6218 101.368C69.1778 101.664 68.6715 102.147 68.884 102.636C69.0338 102.981 69.4641 103.091 69.8386 103.128C71.0986 103.252 72.3907 103.032 73.5383 102.498C73.1101 102.762 72.7477 103.134 72.4941 103.57C72.3532 103.812 72.2499 104.132 72.4144 104.358C72.5299 104.518 72.7398 104.573 72.9344 104.599C73.7561 104.712 74.6184 104.495 75.2882 104.006C74.9285 104.269 76.6869 106.425 76.8076 106.012C76.0097 108.736 77.8297 111.595 80.7167 109.588C82.4735 108.367 83.1581 105.731 83.9529 103.866Z" fill="#FFBF9D"/>
<path d="M73.2012 102.623C73.2012 102.623 76.5269 99.9016 77.1313 99.3974C77.7357 98.8938 80.7593 99.3974 80.7593 99.3974" stroke="#111A44" stroke-width="0.5669" stroke-miterlimit="10" stroke-linecap="round" stroke-linejoin="round"/>
<path d="M80.4555 101.111C78.5405 100.809 75.2891 104.008 75.2891 104.008C75.2891 104.008 76.5253 107.46 79.8511 106.654" stroke="#111A44" stroke-width="0.5669" stroke-miterlimit="10" stroke-linecap="round" stroke-linejoin="round"/>
<path d="M75.6191 104.034C75.6191 104.034 78.9449 102.926 80.5572 103.026" stroke="#111A44" stroke-width="0.5669" stroke-miterlimit="10" stroke-linecap="round" stroke-linejoin="round"/>
<path d="M64.8881 84.4133C65.9349 87.1369 65.4645 89.852 63.838 90.4775C62.211 91.103 60.0434 89.4016 58.997 86.678C57.9501 83.9545 58.4206 81.2394 60.0471 80.6139C61.6736 79.9884 63.8412 81.6893 64.8881 84.4133Z" stroke="white" stroke-miterlimit="10"/>
<path d="M59.8239 88.2688L52.791 93.5861" stroke="white" stroke-miterlimit="10" stroke-linecap="round" stroke-linejoin="round"/>
</svg>
