<svg width="99" height="117" viewBox="0 0 99 117" fill="none" xmlns="http://www.w3.org/2000/svg">
<path d="M66.0132 25.8378C65.3657 25.8372 64.7297 25.6666 64.1689 25.3429C63.6081 25.0192 63.1421 24.5539 62.8178 23.9934C62.4935 23.433 62.3221 22.7972 62.3208 22.1497C62.3195 21.5022 62.4884 20.8657 62.8106 20.304L73.3964 1.83853C73.718 1.27697 74.183 0.810876 74.7437 0.487869C75.3044 0.164862 75.9409 -0.00347271 76.588 6.70078e-05C77.2352 -0.00385339 77.8718 0.164318 78.4326 0.487364C78.9934 0.81041 79.4583 1.27672 79.7796 1.83853L90.4794 20.2415C90.8112 20.8011 90.9886 21.4387 90.9934 22.0892C90.9983 22.7398 90.8305 23.3799 90.5071 23.9444C90.1838 24.5089 89.7164 24.9775 89.1528 25.3024C88.5891 25.6273 87.9494 25.7968 87.2989 25.7936L66.0095 25.8598L66.0132 25.8378ZM76.6027 1.08476C76.1477 1.08444 75.7008 1.20473 75.3074 1.43338C74.9141 1.66203 74.5884 1.99086 74.3635 2.38638L63.7776 20.8519C63.5514 21.2459 63.4327 21.6925 63.4335 22.1469C63.4343 22.6012 63.5545 23.0474 63.782 23.4407C64.0096 23.8339 64.3365 24.1605 64.73 24.3876C65.1235 24.6147 65.5699 24.7344 66.0242 24.7347L87.3136 24.6685C87.7705 24.6725 88.2203 24.5547 88.6167 24.3273C89.013 24.1 89.3417 23.7711 89.569 23.3747C89.7962 22.9782 89.9138 22.5284 89.9097 22.0715C89.9055 21.6145 89.7798 21.1669 89.5455 20.7746L78.8456 2.39006C78.6209 1.99332 78.2948 1.66339 77.9007 1.43405C77.5066 1.2047 77.0587 1.08416 76.6027 1.08476Z" fill="#DE1E1E"/>
<path d="M75.1282 19.8591C75.1276 19.6752 75.1641 19.4932 75.2356 19.3238C75.3072 19.1544 75.4122 19.0012 75.5444 18.8735C75.6767 18.7457 75.8333 18.646 76.0051 18.5803C76.1768 18.5146 76.3601 18.4844 76.5438 18.4913C76.729 18.4803 76.9145 18.5071 77.089 18.5701C77.2635 18.633 77.4234 18.7308 77.5589 18.8575C77.6944 18.9842 77.8028 19.1371 77.8773 19.307C77.9519 19.4769 77.9911 19.6602 77.9926 19.8457C77.9941 20.0312 77.9579 20.2151 77.8861 20.3861C77.8143 20.5572 77.7084 20.7118 77.5749 20.8407C77.4415 20.9696 77.2832 21.0699 77.1097 21.1357C76.9362 21.2015 76.7512 21.2313 76.5659 21.2233C76.381 21.2317 76.1964 21.2027 76.023 21.1381C75.8496 21.0734 75.691 20.9744 75.5568 20.8471C75.4225 20.7197 75.3154 20.5666 75.2417 20.3968C75.1681 20.227 75.1295 20.0442 75.1282 19.8591ZM75.1723 8.76953H77.7829L77.4152 17.0242H75.6687L75.1723 8.76953Z" fill="#DE1E1E"/>
<path d="M63.2991 30C63.1334 29.9637 62.9728 29.9069 62.8211 29.8308C62.3969 29.6485 61.9907 29.427 61.6077 29.169C60.3286 28.3129 59.3217 27.1079 58.7065 25.697C58.0913 24.2861 57.8936 22.7283 58.1367 21.2084C58.2048 20.7525 58.3168 20.3043 58.4713 19.87C58.5207 19.7072 58.5886 19.5505 58.6736 19.4031C58.5004 20.0068 58.3653 20.6208 58.2691 21.2415C58.068 22.734 58.2802 24.253 58.8825 25.6332C59.4847 27.0135 60.4541 28.2021 61.685 29.0697C62.2033 29.4127 62.7424 29.7234 63.2991 30Z" fill="#DE1E1E"/>
<path d="M58.7582 29.5515C58.7582 29.5515 58.6626 29.4964 58.5119 29.364C58.2996 29.1808 58.1028 28.9803 57.9236 28.7647C57.3179 28.0579 56.8413 27.2502 56.5153 26.3784C56.1872 25.5068 56.0131 24.5849 56.0005 23.6538C55.9968 23.3736 56.0128 23.0934 56.0483 22.8154C56.053 22.7111 56.0741 22.6081 56.1108 22.5103C56.1439 22.5103 56.1108 22.9515 56.1366 23.6501C56.2315 25.4818 56.8918 27.2391 58.0265 28.6801C58.4788 29.228 58.7803 29.5258 58.7582 29.5515Z" fill="#DE1E1E"/>
<path d="M95.8989 16.7632C95.9628 16.8914 96.0098 17.0273 96.0386 17.1676C96.0899 17.3253 96.1305 17.4862 96.1599 17.6493C96.2084 17.8654 96.2452 18.0838 96.2702 18.3038C96.3466 18.874 96.37 19.4501 96.3401 20.0246C96.298 20.7287 96.1872 21.4269 96.0092 22.1094C95.8175 22.7892 95.5614 23.4491 95.2444 24.0802C94.9807 24.5975 94.6705 25.0898 94.3178 25.551C94.1744 25.7496 94.02 25.9187 93.8913 26.0584C93.7836 26.189 93.6669 26.3119 93.542 26.4261C93.4446 26.5293 93.3375 26.6229 93.2221 26.7056C93.1927 26.6761 93.6376 26.2643 94.2075 25.4812C94.5409 25.0162 94.8348 24.5243 95.0863 24.0104C95.7048 22.7659 96.0709 21.4113 96.1636 20.0246C96.2005 19.4598 96.1919 18.893 96.1379 18.3295C96.0386 17.3368 95.8621 16.7632 95.8989 16.7632Z" fill="#DE1E1E"/>
<path d="M98.3073 20.8076C98.3702 21.1259 98.3875 21.4515 98.3588 21.7746C98.3037 23.3439 97.8765 24.8777 97.1123 26.2495C96.9696 26.5398 96.7864 26.8085 96.5681 27.0473C96.6917 26.7523 96.8329 26.465 96.991 26.1869C97.6776 24.8076 98.0956 23.3102 98.2227 21.7746C98.2316 21.4509 98.2599 21.128 98.3073 20.8076Z" fill="#DE1E1E"/>
<path d="M-1.39276 59.0251C-1.39276 59.0251 7.25874 56.7268 7.76859 57.141C10.4214 59.2561 24.4502 57.5991 24.4502 57.5991L37.8377 61.3791C37.8377 61.3791 40.0126 77.4155 41.4824 83.685C42.4622 87.8554 38.7818 94.1249 38.7818 94.1249L34.0577 111.253L38.1405 118L-1.40869 117.98V59.029L-1.39276 59.0251Z" fill="#0B622F"/>
<path d="M33.0423 77.467C33.0423 77.467 32.9228 77.467 32.6958 77.5029C32.4688 77.5387 32.1302 77.5467 31.7 77.5985C30.4841 77.7318 29.2757 77.9259 28.0793 78.18C26.5577 78.4907 24.7692 78.9408 22.7776 79.4268C21.7818 79.6657 20.7303 79.9127 19.6349 80.1318C19.0852 80.2353 18.5315 80.3548 17.954 80.4106L17.5198 80.4584H17.0817C16.7869 80.4584 16.4921 80.4823 16.1934 80.4584C13.969 80.3357 11.7586 80.028 9.58528 79.5383C7.59368 79.14 5.77735 78.6978 4.26373 78.3672C2.75012 78.0366 1.51931 77.7817 0.678854 77.6542C0.252652 77.5746 -0.0859194 77.5427 -0.308978 77.5108C-0.532037 77.479 -0.655518 77.4551 -0.655518 77.4551C-0.655518 77.4551 -0.17355 77.483 0.686821 77.6064C1.54719 77.7299 2.778 77.9609 4.2956 78.2796C5.81319 78.5982 7.6136 79.0165 9.62113 79.4228C11.7898 79.9069 13.9946 80.212 16.2133 80.3349C16.5081 80.3548 16.8028 80.3349 17.0936 80.3349H17.5278C17.6712 80.3349 17.8106 80.3031 17.954 80.2871C18.5236 80.2353 19.0812 80.1158 19.6269 80.0123C20.7223 79.7972 21.7699 79.5502 22.7657 79.3152C24.7573 78.8372 26.5537 78.3911 28.0753 78.0964C29.709 77.7398 31.3713 77.5292 33.0423 77.467Z" fill="#FAFAFA"/>
<path d="M34.743 108.134L34.4323 107.922C34.2371 107.775 33.9344 107.58 33.544 107.329C32.4278 106.641 31.2389 106.079 29.999 105.652C28.1587 105.025 26.2344 104.68 24.2911 104.628C21.9091 104.657 19.532 104.851 17.1771 105.21C14.8168 105.562 12.4394 105.79 10.0551 105.891C8.10309 105.956 6.15067 105.775 4.24363 105.353C2.95895 105.062 1.71864 104.601 0.555193 103.983C0.156873 103.756 -0.161783 103.585 -0.364926 103.429C-0.568069 103.274 -0.671631 103.218 -0.671631 103.218C-0.671631 103.218 -0.556119 103.282 -0.348993 103.409C-0.141867 103.537 0.168823 103.72 0.579093 103.939C1.74867 104.539 2.99118 104.985 4.2755 105.266C6.17614 105.675 8.12022 105.846 10.0631 105.775C12.4434 105.669 14.8166 105.439 17.1731 105.086C19.5329 104.725 21.9157 104.534 24.303 104.517C26.2575 104.572 28.1919 104.927 30.0388 105.568C31.2825 106.004 32.472 106.582 33.5839 107.289C33.9822 107.544 34.269 107.751 34.4602 107.902C34.6514 108.054 34.743 108.134 34.743 108.134Z" fill="#FAFAFA"/>
<path d="M35.3003 113.786C35.3003 113.786 35.1769 113.826 34.9379 113.889C34.6989 113.953 34.3523 114.045 33.9062 114.188C32.6516 114.596 31.4203 115.072 30.2178 115.614C28.4442 116.453 26.5942 117.12 24.6931 117.606C23.56 117.863 22.4014 117.99 21.2396 117.984C19.9939 117.965 18.7526 117.832 17.5313 117.586C15.0219 117.076 12.7156 116.287 10.5926 115.678C8.72213 115.101 6.79969 114.709 4.85278 114.507C3.5407 114.375 2.21686 114.422 0.917376 114.646C0.459309 114.738 0.120736 114.814 -0.130205 114.885C-0.381146 114.957 -0.492676 114.977 -0.492676 114.977C-0.492676 114.977 -0.37318 114.933 -0.138171 114.861C0.0968371 114.79 0.451342 114.698 0.90941 114.598C2.21201 114.357 3.54166 114.297 4.86074 114.419C6.81537 114.611 8.74609 114.997 10.6244 115.57C12.7515 116.176 15.0577 116.957 17.5552 117.462C18.7702 117.706 20.0047 117.839 21.2436 117.861C22.3958 117.866 23.5448 117.742 24.6692 117.49C26.5647 116.999 28.4102 116.332 30.1819 115.499C31.3889 114.961 32.6272 114.497 33.8903 114.109C34.3404 113.969 34.6869 113.885 34.9339 113.83L35.3003 113.786Z" fill="#FAFAFA"/>
<g opacity="0.3">
<path d="M35.2273 107.07C35.4225 101.04 36.4223 93.9694 35.5499 88.3491C36.7728 90.9541 38.0753 96.7656 38.0753 96.7656C37.8685 97.7474 37.6025 98.7158 37.2786 99.6654C36.6055 101.94 35.9044 104.804 35.2313 107.082" fill="black"/>
</g>
<path d="M37.7341 94.5031C37.7341 94.5031 37.6106 94.4194 37.3876 94.2521C37.0654 94.0054 36.7289 93.778 36.3798 93.571C35.0747 92.8259 33.6434 92.3276 32.1576 92.1012C29.961 91.7706 27.7252 91.7989 25.5376 92.1849C23.064 92.5832 20.4112 93.3798 17.5951 94.049C14.7789 94.7182 12.0186 95.244 9.50121 94.9452C7.27978 94.7057 5.12035 94.0646 3.12809 93.0532C2.36443 92.6656 1.63664 92.2111 0.953267 91.6949C0.662493 91.452 0.387653 91.2289 0.156627 91.0098C-0.0743982 90.7908 -0.285507 90.5757 -0.460768 90.3765L-0.902903 89.8228C-1.00533 89.6836 -1.09975 89.5386 -1.18571 89.3887C-1.33309 89.1537 -1.40479 89.0222 -1.40479 89.0222C-1.40479 89.0222 -1.31716 89.1417 -1.16579 89.3767C-1.08613 89.4883 -1.00248 89.6436 -0.875021 89.8029L-0.424919 90.3446C-0.245675 90.5398 -0.0266004 90.743 0.196459 90.966C0.419518 91.1891 0.706308 91.4042 0.993098 91.6392C1.67704 92.1476 2.40485 92.5941 3.16792 92.9735C5.15453 93.9686 7.30375 94.5987 9.51316 94.8337C12.0106 95.1165 14.763 94.5947 17.5672 93.9295C20.3714 93.2643 23.0321 92.4677 25.5336 92.0733C27.7328 91.6894 29.9802 91.6705 32.1855 92.0176C33.6732 92.254 35.1038 92.766 36.4037 93.5272C36.7507 93.7421 37.0846 93.9775 37.4035 94.2322C37.6266 94.4035 37.7341 94.5031 37.7341 94.5031Z" fill="#FAFAFA"/>
<path d="M29.3334 108.094C29.2628 108.123 29.1894 108.146 29.1143 108.161L28.473 108.317C27.9194 108.448 27.1148 108.627 26.115 108.842C24.1234 109.269 21.3351 109.826 18.292 110.388C15.2488 110.949 12.4446 111.408 10.4291 111.714C9.42139 111.866 8.60085 111.985 8.03922 112.057L7.38996 112.14C7.31332 112.151 7.23558 112.151 7.15894 112.14C7.2318 112.116 7.30636 112.098 7.382 112.085L8.02727 111.965L10.4172 111.567C12.4088 111.224 15.197 110.746 18.2681 110.185C21.3391 109.623 24.0955 109.089 26.099 108.695L28.469 108.237L29.1183 108.121C29.1887 108.104 29.2609 108.095 29.3334 108.094Z" fill="#263238"/>
<path d="M30.0825 93.9614C30.0858 94.0429 30.0791 94.1245 30.0626 94.2044C30.0347 94.3597 30.0227 94.6027 29.951 94.8895C29.7792 95.7259 29.5119 96.5398 29.1544 97.3153C28.6223 98.4624 27.9406 99.5339 27.127 100.502C26.1288 101.69 24.983 102.746 23.7173 103.645C21.3913 105.225 18.8736 106.503 16.225 107.449C15.2212 107.847 14.3967 108.118 13.835 108.309L13.1778 108.528C13.1026 108.555 13.0254 108.577 12.9468 108.592C13.0144 108.547 13.0882 108.512 13.1659 108.488L13.8111 108.233L16.2011 107.313C18.8202 106.335 21.3149 105.051 23.6337 103.489C24.8722 102.593 25.9959 101.548 26.9796 100.378C27.7926 99.4264 28.4781 98.3726 29.019 97.2436C29.3853 96.4791 29.6697 95.678 29.8674 94.8537C30.0108 94.288 30.0626 93.9614 30.0825 93.9614Z" fill="#263238"/>
<path d="M11.6602 13.1466C15.5159 9.46609 21.4827 7.41475 26.2944 9.70906C29.5288 11.2506 31.6558 14.4013 34.464 16.6239C36.5113 18.245 39.0646 19.5276 40.0882 21.9295C40.9884 24.0446 40.4427 26.4584 40.136 28.7368C39.8293 31.0152 39.905 33.664 41.6297 35.1856C42.5339 35.9822 43.7488 36.3327 44.7765 36.966C46.8477 38.2446 48.0228 40.6346 48.3972 43.0404C48.7716 45.4463 48.449 47.8919 48.1263 50.3058L38.009 51.899L36.4476 49.067L35.7426 53.4166L22.8609 54.1734L11.6602 13.1466Z" fill="#263238"/>
<path d="M9.85204 17.249L9.73653 20.0373L7.5856 61.9484C7.35856 66.8079 11.8755 71.1097 17.0776 71.3009C22.3354 71.5081 24.6058 67.6284 24.9165 62.7211C25.2431 57.5748 25.6813 52.1617 25.6813 52.1617C25.6813 52.1617 32.377 51.4567 34.273 42.8888C35.217 38.6228 35.4242 31.5567 35.4082 25.7611C35.4046 24.5268 35.1515 23.3059 34.6643 22.1718C34.177 21.0377 33.4656 20.0138 32.5727 19.1615C31.6799 18.3092 30.624 17.6461 29.4685 17.2121C28.313 16.778 27.0817 16.5819 25.8486 16.6356L9.85204 17.249Z" fill="#FFBE9D"/>
<path d="M32.3967 30.8796C32.3822 31.1694 32.255 31.4421 32.0421 31.6393C31.8292 31.8366 31.5476 31.9427 31.2575 31.9351C31.116 31.9372 30.9755 31.9112 30.8441 31.8585C30.7127 31.8058 30.5932 31.7275 30.4923 31.6281C30.3915 31.5288 30.3115 31.4104 30.2568 31.2798C30.2022 31.1493 30.1741 31.0091 30.1741 30.8676C30.1885 30.5785 30.3152 30.3064 30.5273 30.1092C30.7393 29.9121 31.0199 29.8055 31.3093 29.8121C31.4513 29.8089 31.5925 29.8341 31.7245 29.8864C31.8566 29.9387 31.9769 30.0169 32.0782 30.1164C32.1796 30.2159 32.26 30.3347 32.3147 30.4657C32.3694 30.5968 32.3973 30.7375 32.3967 30.8796Z" fill="#263238"/>
<path d="M33.6712 29.3539C33.5239 29.4893 32.7193 28.8161 31.5283 28.7484C30.3373 28.6807 29.4212 29.2224 29.3017 29.0671C29.2419 28.9994 29.3973 28.7484 29.7956 28.4935C30.3331 28.165 30.9596 28.0118 31.588 28.0553C32.2093 28.0908 32.8034 28.3223 33.2849 28.7166C33.6354 29.0233 33.7509 29.2901 33.6712 29.3539Z" fill="#263238"/>
<path d="M20.79 30.505C20.7746 30.7945 20.647 31.0666 20.4344 31.2637C20.2217 31.4607 19.9407 31.5672 19.6508 31.5606C19.5088 31.5632 19.3677 31.5374 19.2359 31.4847C19.104 31.4319 18.984 31.3533 18.8831 31.2534C18.7821 31.1536 18.7021 31.0345 18.6479 30.9032C18.5937 30.7719 18.5663 30.6311 18.5674 30.4891C18.5829 30.2003 18.7099 29.9288 18.9217 29.7319C19.1335 29.5349 19.4135 29.428 19.7026 29.4336C19.8448 29.4309 19.9861 29.4567 20.1182 29.5094C20.2503 29.5621 20.3705 29.6407 20.4718 29.7405C20.5731 29.8403 20.6534 29.9593 20.7081 30.0906C20.7627 30.2219 20.7906 30.3628 20.79 30.505Z" fill="#263238"/>
<path d="M21.9166 28.8679C21.7732 29.0073 20.9686 28.3341 19.7737 28.2624C18.5787 28.1907 17.6665 28.7404 17.547 28.5851C17.4873 28.5174 17.6426 28.2664 18.041 28.0115C18.5789 27.684 19.205 27.5309 19.8334 27.5733C20.4551 27.6069 21.0497 27.8386 21.5302 28.2346C21.8808 28.5373 21.9883 28.8081 21.9166 28.8679Z" fill="#263238"/>
<path d="M25.7214 37.9857C25.7214 37.918 26.4703 37.8344 27.6812 37.7547C27.9879 37.7547 28.2786 37.6989 28.3464 37.4918C28.39 37.1781 28.3372 36.8586 28.195 36.5757L27.4342 34.1858C26.3787 30.804 25.6378 28.0317 25.7732 27.9919C25.9086 27.9521 26.8726 30.6566 27.9281 34.0384C28.1791 34.8709 28.422 35.6675 28.6491 36.4283C28.8171 36.8041 28.8481 37.2269 28.7367 37.6232C28.6844 37.7247 28.61 37.8131 28.519 37.882C28.428 37.9509 28.3227 37.9986 28.2109 38.0216C28.038 38.0569 27.8614 38.0703 27.6852 38.0614C26.4743 38.0933 25.7214 38.0534 25.7214 37.9857Z" fill="#263238"/>
<path d="M25.6976 52.1816C21.6191 51.9981 17.6714 50.6868 14.2937 48.3936C14.2937 48.3936 16.7474 54.5078 25.4467 54.217L25.6976 52.1816Z" fill="#EB996E"/>
<path d="M24.7167 40.0408C24.395 39.8662 24.034 39.7767 23.668 39.7809C23.302 39.7851 22.9432 39.8828 22.6255 40.0647C22.3937 40.1895 22.1893 40.3596 22.0244 40.5648C21.8595 40.7701 21.7375 41.0064 21.6656 41.2596C21.5973 41.5056 21.6061 41.7666 21.6909 42.0073C21.7756 42.2481 21.9323 42.4571 22.1396 42.606C22.4002 42.7266 22.6907 42.7672 22.9744 42.7225C23.258 42.6778 23.522 42.5499 23.7329 42.355C24.1733 41.9487 24.5282 41.4585 24.7765 40.9131C24.8649 40.7722 24.9244 40.6151 24.9517 40.4511C24.9643 40.3748 24.9544 40.2966 24.9233 40.2258C24.8922 40.1551 24.8412 40.095 24.7765 40.0527" fill="#EB996E"/>
<path d="M21.495 25.4941C21.4511 25.8367 20.2482 25.9402 18.9138 26.4023C17.5795 26.8643 16.5518 27.4817 16.3048 27.2348C16.1973 27.1153 16.3048 26.7767 16.7032 26.3704C17.2142 25.8582 17.8394 25.4747 18.5275 25.2511C19.2109 25.0123 19.9418 24.9413 20.6585 25.044C21.2042 25.1316 21.5109 25.3268 21.495 25.4941Z" fill="#263238"/>
<path d="M34.1494 27.5377C33.8228 27.717 32.9544 27.1394 31.8073 26.761C30.6601 26.3826 29.6325 26.2551 29.493 25.9126C29.4373 25.7493 29.6763 25.5382 30.1782 25.4306C30.8639 25.3135 31.5685 25.3781 32.2215 25.6178C32.8807 25.8339 33.4705 26.2216 33.9303 26.7411C34.257 27.1354 34.3047 27.4461 34.1494 27.5377Z" fill="#263238"/>
<path d="M16.2253 12.3496C17.723 14.5085 18.4161 16.1496 19.2366 19.9177C19.6349 21.7659 18.1014 23.0126 16.5838 24.0841C16.4207 24.1996 16.2312 24.2724 16.0327 24.2958C15.8342 24.3191 15.6331 24.2924 15.4476 24.2179C15.2621 24.1434 15.0983 24.0235 14.9711 23.8693C14.844 23.7151 14.7575 23.5315 14.7197 23.3352C14.7197 23.3352 15.0304 29.079 12.8834 31.5884C11.8717 32.7635 11.7801 34.3089 11.9713 35.6194C12.1835 36.9596 12.7878 38.207 13.7079 39.2043C16.0341 41.8093 16.5679 45.9757 14.8073 49.0069C14.3013 49.7534 13.8346 50.5259 13.4092 51.3211C13.1927 51.7962 13.0826 52.3127 13.0866 52.8348C13.1025 53.1402 13.0007 53.4402 12.8021 53.6729C12.6035 53.9056 12.3233 54.0533 12.0191 54.0855C4.85605 54.8868 -2.37495 54.8694 -9.53402 54.0337C-9.77976 54.0041 -10.0102 53.8989 -10.1936 53.7326C-10.377 53.5664 -10.5042 53.3473 -10.5577 53.1056C-11.0437 50.7157 -10.02 48.1465 -8.74934 45.9956C-7.32733 43.6057 -5.53888 41.2994 -4.9892 38.563C-4.47138 35.9898 -5.08479 33.1737 -3.96551 30.7958C-2.59529 27.8801 0.921869 26.5935 2.74617 23.9367C4.4709 21.4313 4.447 18.0655 6.00045 15.4525C7.99205 12.0947 12.6922 10.6727 16.2213 12.3456" fill="#263238"/>
<path d="M16.5155 15.5362C19.1962 17.0259 20.3434 20.3996 22.9404 22.0288C25.3065 23.5105 28.3257 23.2237 31.098 22.913C31.0144 22.2996 30.9347 21.6822 30.8511 21.0688C31.0803 21.6304 31.4111 22.1449 31.8269 22.5864C32.0371 22.8048 32.3025 22.9623 32.5949 23.0423C32.8873 23.1222 33.1959 23.1216 33.4879 23.0405C34.428 22.6939 34.5913 21.4273 34.3842 20.4514C34.0117 18.8868 33.2262 17.4507 32.1098 16.293C30.1191 14.1327 27.4166 12.7624 24.4975 12.4332C21.5785 12.1039 18.6386 12.8379 16.2168 14.5005" fill="#263238"/>
<path d="M6.54543 21.7979C7.07886 20.4883 7.24941 19.059 7.03913 17.6606C6.82884 16.2622 6.24549 14.9463 5.35047 13.8515C4.49319 12.8686 3.36647 12.1586 2.1098 11.8096C0.853124 11.4606 -0.478321 11.4877 -1.71971 11.8878C-2.87569 12.241 -3.88432 12.9629 -4.59159 13.9431C-5.88613 15.8152 -5.73875 18.6393 -4.52388 20.5592C-3.92343 21.4653 -3.12479 22.2231 -2.18837 22.7751C-1.25195 23.3272 -0.202257 23.6591 0.881321 23.7457C2.97648 23.9449 5.0836 23.3474 7.05528 22.5229" fill="#263238"/>
<path d="M2.74536 22.2321C2.77723 22.2003 3.25521 22.6304 4.14346 23.1642C4.66426 23.4781 5.21215 23.7447 5.78056 23.9608C7.17876 24.4843 8.67233 24.7043 10.1621 24.6061C10.7663 24.5684 11.3661 24.4778 11.9545 24.3353C12.9583 24.0883 13.5478 23.8095 13.5478 23.8493C13.4262 23.9401 13.292 24.0125 13.1495 24.0644C12.9898 24.1448 12.8248 24.214 12.6556 24.2715C12.4352 24.3563 12.2105 24.4295 11.9824 24.4906C11.3876 24.6571 10.7779 24.7652 10.1621 24.8132C8.64581 24.93 7.12286 24.6998 5.70886 24.1401C5.13511 23.9143 4.58425 23.6342 4.0638 23.3036C3.86175 23.1832 3.66751 23.0502 3.48225 22.9053C3.34171 22.8005 3.20862 22.686 3.08393 22.5627C2.9579 22.4669 2.84418 22.3558 2.74536 22.2321Z" fill="#455A64"/>
<path d="M13.779 27.5816C13.6259 27.6454 13.4653 27.6895 13.301 27.713C12.9904 27.7807 12.5403 27.8684 11.9746 27.948C10.5008 28.182 8.99645 28.1415 7.53736 27.8285C6.06407 27.4901 4.74206 26.6787 3.77324 25.5183C3.4876 25.1644 3.2542 24.7714 3.08016 24.3512C3.00976 24.2009 2.96146 24.0413 2.93677 23.8772C3.19519 24.4248 3.51597 24.9407 3.89274 25.4147C4.86598 26.5117 6.15642 27.2787 7.58516 27.6094C9.02508 27.9161 10.5065 27.9767 11.9667 27.7887C12.5283 27.7289 12.9824 27.6652 13.2971 27.6254C13.4553 27.5912 13.6172 27.5765 13.779 27.5816Z" fill="#455A64"/>
<path d="M-2.49603 53.5919C-2.49603 53.5919 -2.51594 53.5919 -2.54781 53.5322C-2.59913 53.4684 -2.64699 53.4019 -2.69121 53.333C-2.84954 53.0616 -2.95623 52.7631 -3.00588 52.4527C-3.07246 51.8768 -3.01249 51.2932 -2.83018 50.7428C-2.64786 50.1925 -2.34759 49.6885 -1.95033 49.2662C-1.40937 48.6913 -0.788218 48.1976 -0.10611 47.8004C0.618832 47.3543 1.43539 46.952 2.23203 46.4501C3.08122 45.952 3.81557 45.2801 4.38694 44.4784C4.66995 44.0506 4.86244 43.5694 4.95255 43.0644C5.03738 42.5356 5.02659 41.996 4.92068 41.4711C4.67046 40.4378 4.33608 39.4266 3.9209 38.4478C3.53093 37.5137 3.31494 36.5161 3.28359 35.5043C3.2905 33.7825 3.86759 32.1115 4.92467 30.7523C5.61627 29.8303 6.51741 29.0862 7.55358 28.5815L8.04351 28.3664L8.44183 28.2469C8.54374 28.2097 8.64917 28.183 8.7565 28.1672C8.65881 28.2159 8.55762 28.2572 8.45378 28.2907L8.09131 28.4301L7.61333 28.6611C6.60941 29.1903 5.74008 29.9425 5.07205 30.8599C4.04506 32.1955 3.48527 33.8314 3.47877 35.5162C3.5169 36.5015 3.73281 37.4717 4.11608 38.3801C4.54224 39.3653 4.88467 40.3846 5.13976 41.4273C5.24978 41.9746 5.26057 42.5372 5.17163 43.0883C5.08494 43.6346 4.87964 44.1553 4.57016 44.6138C3.97756 45.428 3.21857 46.1069 2.34356 46.6054C1.54692 47.1113 0.714429 47.5056 -0.00652981 47.9438C-0.688043 48.3337 -1.30816 48.8223 -1.84677 49.3937C-2.23632 49.7979 -2.53517 50.2805 -2.72337 50.8094C-2.91157 51.3383 -2.9848 51.9013 -2.93816 52.4607C-2.86958 52.864 -2.71911 53.249 -2.49603 53.5919Z" fill="#455A64"/>
<path d="M9.02348 54.1254C8.93544 54.0849 8.85254 54.0341 8.77653 53.974C8.56321 53.8029 8.38701 53.5901 8.25871 53.3486C8.04905 52.9606 7.92926 52.5305 7.90819 52.09C7.8833 51.5073 7.96704 50.9252 8.15515 50.3732C8.55346 49.1105 9.64884 47.9833 10.4933 46.5613C10.9496 45.8255 11.2013 44.9812 11.2222 44.1156C11.2052 43.1854 10.9921 42.2692 10.5968 41.427C9.82809 39.6584 8.60525 38.2404 7.78073 36.7547C7.37122 36.061 7.05134 35.3182 6.82874 34.544C6.64172 33.8622 6.59296 33.1498 6.68535 32.4489C6.78589 31.4217 7.26766 30.4695 8.03565 29.7801C8.25017 29.6056 8.48903 29.4634 8.74466 29.3579C8.83211 29.317 8.92449 29.2875 9.0195 29.2703C8.39092 29.5388 7.85221 29.9815 7.46688 30.546C7.08155 31.1106 6.86566 31.7736 6.84467 32.4568C6.76465 33.1357 6.82154 33.8237 7.01197 34.4803C7.23614 35.24 7.55603 35.9681 7.96395 36.6471C8.36227 37.3681 8.88407 38.093 9.39392 38.8538C9.93809 39.6352 10.41 40.4645 10.804 41.3314C11.2041 42.207 11.4158 43.1569 11.4253 44.1196C11.398 45.0221 11.1299 45.9009 10.6486 46.6649C9.77232 48.1187 8.65703 49.2181 8.28261 50.425C8.09144 50.956 7.99963 51.5177 8.01175 52.082C8.02026 52.5079 8.12225 52.9267 8.31049 53.3088C8.48932 53.6272 8.73207 53.9053 9.02348 54.1254Z" fill="#455A64"/>
<path d="M27.175 22.1604C27.175 22.1604 27.1192 22.1604 27.0157 22.0847C26.8678 22.0001 26.7266 21.9043 26.5935 21.798C26.1132 21.3963 25.7085 20.912 25.3985 20.368C24.9503 19.5615 24.5757 18.7163 24.2792 17.8426C24.096 17.3567 23.9008 16.8548 23.6539 16.3529C23.3978 15.8386 23.0923 15.3503 22.7417 14.8951C21.5005 13.2835 19.7881 12.0987 17.8424 11.5054C17.0311 11.2802 16.2001 11.1335 15.3608 11.0672C15.5887 11.045 15.8181 11.045 16.046 11.0672C16.6679 11.1038 17.2846 11.2039 17.8862 11.366C18.7801 11.6136 19.6324 11.9921 20.4155 12.4892C21.8931 13.4037 23.0842 14.7149 23.853 16.2733C24.1 16.7871 24.2951 17.2969 24.4744 17.7829C24.7585 18.6513 25.1142 19.4947 25.5379 20.3043C25.8285 20.8436 26.2067 21.3309 26.6572 21.7462C26.9798 22.021 27.187 22.1405 27.175 22.1604Z" fill="#455A64"/>
<path d="M33.2213 22.3076C33.1419 22.3072 33.0629 22.2965 32.9863 22.2758C32.7652 22.2344 32.5489 22.1703 32.341 22.0846C31.572 21.7713 30.8822 21.291 30.3215 20.6785C29.4939 19.7742 28.804 18.7528 28.2741 17.6473C27.6328 16.4324 27.0194 15.0423 26.0396 13.8195C25.1117 12.6757 23.8634 11.8352 22.4547 11.4057C21.2973 11.0591 20.1009 10.8597 18.8937 10.8122C17.8621 10.7564 17.0216 10.7723 16.4401 10.7763H15.7589C15.6809 10.7858 15.602 10.7858 15.5239 10.7763C15.5996 10.7574 15.677 10.7468 15.755 10.7444C15.9063 10.7444 16.1533 10.7126 16.4241 10.7006C17.0017 10.6688 17.8421 10.6289 18.8857 10.6648C20.1103 10.6908 21.3262 10.8769 22.5025 11.2184C23.9609 11.6479 25.2551 12.5089 26.2148 13.688C27.2226 14.9467 27.832 16.3528 28.4574 17.5637C28.9757 18.6576 29.6463 19.6728 30.449 20.5789C30.9886 21.1879 31.6492 21.6776 32.3888 22.0169C32.9026 22.2439 33.2253 22.3076 33.2213 22.3076Z" fill="#455A64"/>
<path d="M42.5341 50.7717C42.5102 50.7717 42.6576 50.465 42.8209 49.9034C43.0526 49.1118 43.1667 48.2904 43.1595 47.4656C43.1585 46.2448 42.8864 45.0394 42.3628 43.9365C42.0429 43.2891 41.6413 42.6854 41.1679 42.1401C40.6819 41.5665 40.1243 41.0208 39.5746 40.4473C39.0132 39.8958 38.4952 39.3019 38.0251 38.6708C37.5967 38.0733 37.2297 37.434 36.9297 36.7628C36.4272 35.6276 36.1201 34.4155 36.0216 33.1779C35.9589 32.341 35.9991 31.4996 36.1411 30.6725C36.1849 30.3817 36.2446 30.1587 36.2805 30.0073C36.2957 29.9292 36.3198 29.853 36.3522 29.7803C36.3761 29.7803 36.2964 30.1029 36.2287 30.6845C36.1241 31.5037 36.1121 32.3321 36.1928 33.154C36.2467 33.7212 36.3453 34.2833 36.4876 34.8349C36.645 35.4684 36.8611 36.0858 37.1329 36.6792C37.4307 37.3353 37.7936 37.9598 38.2163 38.5433C38.683 39.1625 39.1957 39.7456 39.7498 40.2879C40.3075 40.8615 40.8691 41.4152 41.3431 42.0007C42.6556 43.5159 43.3645 45.4612 43.3347 47.4656C43.3337 48.3034 43.1993 49.1357 42.9364 49.9312C42.8631 50.1461 42.7766 50.3563 42.6775 50.5606C42.6395 50.6371 42.5913 50.7082 42.5341 50.7717Z" fill="#455A64"/>
<path d="M-4.73522 19.886C-4.73751 19.6998 -4.71063 19.5143 -4.65555 19.3363C-4.53536 18.8453 -4.35334 18.3715 -4.11384 17.9263C-3.75029 17.2197 -3.24392 16.5964 -2.62681 16.0959C-2.0097 15.5953 -1.29532 15.2285 -0.528961 15.0186C0.461277 14.8218 1.48735 14.9165 2.42484 15.2912C3.36233 15.6659 4.17099 16.3045 4.75276 17.1296C4.86512 17.2718 4.95511 17.4303 5.01963 17.5997C4.614 17.1071 4.16033 16.6561 3.66535 16.2533C3.08433 15.807 2.41367 15.4915 1.69934 15.3286C0.985019 15.1657 0.243909 15.1591 -0.473195 15.3093C-1.20609 15.5102 -1.89169 15.8549 -2.49005 16.3233C-3.08842 16.7917 -3.58759 17.3746 -3.95849 18.0378C-4.27438 18.6284 -4.53442 19.2471 -4.73522 19.886Z" fill="#455A64"/>
<path d="M0.0651855 22.423C0.0706316 21.9923 0.130863 21.564 0.24443 21.1484C0.424696 20.1241 0.866494 19.1636 1.52702 18.3602C1.85718 17.9918 2.29038 17.731 2.77048 17.6117C3.25058 17.4924 3.75545 17.52 4.21966 17.691C4.50193 17.8099 4.74395 18.0077 4.91672 18.2606C5.03621 18.4478 5.07206 18.5673 5.06011 18.5753C4.81853 18.2762 4.50836 18.0398 4.15593 17.8862C3.72452 17.7582 3.26574 17.7546 2.83238 17.8758C2.39901 17.997 2.00867 18.2381 1.70626 18.5713C1.08216 19.3403 0.64332 20.2425 0.423674 21.2082C0.335629 21.6218 0.215776 22.0279 0.0651855 22.423Z" fill="#455A64"/>
<path d="M6.72488 14.3412C6.79259 14.3969 5.92824 15.6078 5.30288 17.3763C4.67752 19.1449 4.59387 20.6904 4.50624 20.6824C4.41861 20.6744 4.41462 19.0891 5.05592 17.2688C5.69721 15.4485 6.68505 14.3053 6.72488 14.3412Z" fill="#0B622F"/>
<path d="M-11.992 42.5067C-11.761 42.7918 -11.4625 43.015 -11.1237 43.1559C-10.7247 43.3162 -10.2923 43.375 -9.86501 43.3272C-9.29823 43.2729 -8.76168 43.0463 -8.32749 42.678C-7.34763 41.8813 -6.80989 40.3159 -6.85371 38.6549C-6.85371 37.8185 -6.96922 36.9422 -7.05287 36.03C-7.16601 35.0842 -7.14993 34.1275 -7.00507 33.186C-6.9224 32.7078 -6.77219 32.2438 -6.55895 31.8078C-6.34184 31.3917 -6.06544 31.0093 -5.73841 30.6726C-5.10328 30.0528 -4.36971 29.5427 -3.56757 29.163C-2.81076 28.7647 -2.07387 28.4739 -1.38876 28.1712C-0.754978 27.8943 -0.145992 27.5638 0.431558 27.1834C1.28765 26.6592 1.98451 25.9114 2.44706 25.0205C2.59349 24.6848 2.70042 24.3333 2.76571 23.9729C2.76571 23.9729 2.76571 24.0685 2.72986 24.2557C2.6838 24.5302 2.60351 24.7978 2.49087 25.0523C2.04127 25.9656 1.34433 26.7343 0.479357 27.271C-0.100243 27.6584 -0.711899 27.9955 -1.34893 28.2787C-2.03006 28.5854 -2.76695 28.8961 -3.51579 29.2745C-4.30378 29.6533 -5.02486 30.1578 -5.65078 30.7682C-5.96994 31.1001 -6.23838 31.4773 -6.44742 31.8875C-6.65499 32.3139 -6.80245 32.767 -6.88558 33.2338C-7.21618 35.1457 -6.73023 36.99 -6.7382 38.6788C-6.74616 40.3677 -7.25601 41.9451 -8.27173 42.7696C-8.7225 43.1462 -9.27937 43.3731 -9.86501 43.4188C-10.3022 43.463 -10.7434 43.3958 -11.1476 43.2237C-11.4971 43.0873 -11.7952 42.845 -12 42.5306L-11.992 42.5067Z" fill="#263238"/>
<path d="M38.5312 14.417C38.5681 14.4942 38.5949 14.5758 38.6108 14.6599C38.6615 14.9041 38.645 15.1574 38.563 15.3928C38.4059 15.8255 38.1092 16.1935 37.7197 16.4387C37.3302 16.684 36.8701 16.7925 36.4121 16.7471C35.7818 16.6719 35.1875 16.4129 34.7033 16.0023C34.154 15.5381 33.6903 14.9814 33.3331 14.3572C32.9348 13.7159 32.5763 13.0069 32.1023 12.3656C31.6192 11.6786 31.0503 11.0562 30.4094 10.5134C28.934 9.26499 27.1322 8.46473 25.2166 8.20712C23.3011 7.9495 21.3519 8.24529 19.599 9.05957C19.3122 9.195 19.0892 9.30653 18.9458 9.39018C18.8024 9.47382 18.7188 9.50569 18.7188 9.50569C18.9917 9.32147 19.278 9.15771 19.5751 9.01576C20.3881 8.62048 21.2511 8.33773 22.1403 8.1753C23.6134 7.89517 25.1308 7.95136 26.5792 8.33966C28.0276 8.72797 29.3696 9.43836 30.505 10.4178C31.1547 10.9665 31.7304 11.5971 32.2178 12.2939C32.6958 12.9711 33.0503 13.6801 33.4446 14.3174C33.7947 14.9315 34.2473 15.4812 34.783 15.9425C35.2512 16.3428 35.8254 16.5987 36.436 16.6794C36.9413 16.7372 37.4491 16.5941 37.85 16.2811C38.1598 16.0519 38.3964 15.7378 38.5312 15.3769C38.6164 15.1495 38.6411 14.9038 38.6029 14.6639C38.5551 14.5006 38.5312 14.417 38.5312 14.417Z" fill="#263238"/>
<path d="M13.2976 51.0625L13.3732 51.0266L13.6003 50.923C13.8034 50.8275 14.0982 50.688 14.4606 50.4809C15.5084 49.9091 16.3907 49.0763 17.0218 48.0631C17.4378 47.3617 17.6795 46.5709 17.7269 45.7568C17.7517 45.3046 17.7032 44.8513 17.5835 44.4145C17.4412 43.9581 17.2361 43.5238 16.974 43.124C16.3552 42.2931 15.6369 41.5413 14.8351 40.8854C14.4368 40.5229 14.0105 40.1645 13.6122 39.7701C13.1959 39.3773 12.8282 38.936 12.5169 38.4557C12.363 38.2109 12.2297 37.9538 12.1185 37.6869C12.0238 37.4161 11.9597 37.1355 11.9273 36.8504C11.8571 36.2927 11.9199 35.7262 12.1106 35.1974C12.5135 34.2317 13.0383 33.3215 13.672 32.4888C14.2209 31.729 14.6557 30.893 14.9625 30.0073C15.219 29.2341 15.373 28.4306 15.4206 27.6174C15.4911 26.4329 15.3287 25.2461 14.9426 24.1241C14.8415 23.8184 14.7218 23.5191 14.5841 23.2279C14.4885 23.0288 14.4447 22.9172 14.4447 22.9172C14.4447 22.9172 14.5045 23.0208 14.604 23.216C14.7575 23.5037 14.8906 23.8018 15.0024 24.1082C15.4075 25.233 15.5835 26.4275 15.5202 27.6214C15.4645 28.4454 15.2998 29.2585 15.0302 30.0392C14.7216 30.9348 14.2856 31.7813 13.7357 32.5526C13.1109 33.379 12.593 34.281 12.1942 35.2372C12.0113 35.7472 11.9513 36.293 12.019 36.8305C12.0509 37.1023 12.1137 37.3696 12.2062 37.6272C12.3156 37.8872 12.4489 38.1366 12.6045 38.372C12.9087 38.8459 13.2699 39.2807 13.6799 39.6666C14.0783 40.0649 14.4766 40.4154 14.8749 40.7779C15.6851 41.4404 16.409 42.2018 17.0298 43.0443C17.2978 43.4547 17.5057 43.9014 17.6472 44.3707C17.7687 44.8181 17.8172 45.2821 17.7906 45.7449C17.7353 46.5751 17.4841 47.3805 17.0577 48.095C16.4192 49.1114 15.5251 49.9424 14.4646 50.5048C14.0936 50.7262 13.7029 50.9129 13.2976 51.0625Z" fill="#263238"/>
<path d="M45.207 35.2572L45.2667 35.2771C45.3272 35.2973 45.3848 35.3255 45.438 35.3608C45.6407 35.5019 45.7907 35.7065 45.8642 35.9423C45.9276 36.1279 45.9491 36.3253 45.927 36.5202C45.905 36.7152 45.84 36.9028 45.7367 37.0695C45.5867 37.2817 45.387 37.454 45.1551 37.5714C44.9232 37.6887 44.6662 37.7475 44.4063 37.7427C44.0933 37.7428 43.7836 37.6785 43.4965 37.5537C43.2094 37.429 42.951 37.2466 42.7374 37.0178C42.2448 36.5019 41.8734 35.8828 41.65 35.2054C41.1282 33.7914 41.1122 32.1105 41.2755 30.4256C41.4388 28.7407 41.6739 27.1036 41.5942 25.6258C41.5615 24.9284 41.4356 24.2385 41.2198 23.5745C41.0244 23.0028 40.7409 22.4652 40.3793 21.9812C39.8712 21.2577 39.1581 20.7028 38.332 20.3879C38.0247 20.2868 37.7087 20.2148 37.3879 20.1729C37.3879 20.1729 37.4756 20.1729 37.6389 20.1729C37.7422 20.1781 37.8449 20.1928 37.9456 20.2167C38.0816 20.2409 38.215 20.2782 38.3439 20.3282C39.192 20.6306 39.9263 21.1869 40.447 21.9215C40.8188 22.4144 41.1105 22.9628 41.3114 23.5466C41.5369 24.2187 41.6709 24.918 41.7097 25.6258C41.8093 27.1195 41.5663 28.7447 41.399 30.4455C41.2317 32.1463 41.2516 33.7993 41.7575 35.1935C41.9734 35.8544 42.3325 36.4597 42.8091 36.966C43.0116 37.1877 43.2575 37.3654 43.5316 37.488C43.8057 37.6107 44.1021 37.6757 44.4024 37.679C44.654 37.6868 44.9037 37.6333 45.1299 37.5229C45.3562 37.4126 45.5522 37.2488 45.7009 37.0456C45.8005 36.8879 45.8643 36.7101 45.8877 36.525C45.9111 36.3398 45.8935 36.1518 45.8363 35.9742C45.7699 35.7434 45.6301 35.5407 45.438 35.3966C45.3025 35.2891 45.203 35.2691 45.207 35.2572Z" fill="#263238"/>
<path d="M7.59371 58.22C7.59371 58.22 10.848 64.8201 17.7349 64.5294C24.6219 64.2386 25.3389 58.1562 25.3389 58.1562L29.1946 62.3983L25.3389 71.8903L19.6708 74.34L10.4377 71.8903L7.96813 67.9788L1.85791 60.7493L7.59371 58.22Z" fill="#0B622F"/>
<path d="M30.517 65.3262H30.1664C29.8408 65.3549 29.5191 65.4177 29.2065 65.5134C28.7154 65.6794 28.2449 65.9012 27.8044 66.1746C27.2866 66.4893 26.7289 66.8995 26.1115 67.3696C25.4501 67.8829 24.7451 68.3374 24.0044 68.7278C23.5813 68.9299 23.1415 69.0952 22.69 69.2217C22.2109 69.3507 21.7219 69.4399 21.2281 69.4886C19.1927 69.6997 16.9502 69.2496 14.7475 68.4848C12.5448 67.7201 10.4815 66.8478 8.51379 66.3857C7.58404 66.1658 6.62807 66.0773 5.67377 66.1228C4.84271 66.1513 4.01475 66.2392 3.19622 66.3857C2.00521 66.5873 0.845605 66.9435 -0.25323 67.4452C-0.448406 67.5329 -0.611718 67.6285 -0.755113 67.7081C-0.87804 67.7717 -0.996484 67.8435 -1.10962 67.9232L-1.40039 68.1104C-1.05485 67.8302 -0.676283 67.5935 -0.273145 67.4054C0.822074 66.8813 1.98407 66.51 3.18029 66.3021C4.00229 66.1484 4.83426 66.0539 5.66978 66.0192C6.63298 65.9692 7.59842 66.055 8.53768 66.2742C10.5293 66.7362 12.5806 67.6125 14.7873 68.3653C16.994 69.1182 19.2047 69.5603 21.2162 69.3771C21.704 69.3272 22.1873 69.2406 22.6621 69.1182C23.1075 68.996 23.5409 68.8334 23.9566 68.6322C24.6972 68.253 25.4012 67.8063 26.0598 67.2979C26.6811 66.8478 27.2547 66.4415 27.7686 66.1308C28.2162 65.8607 28.6933 65.6428 29.1906 65.4815C29.5088 65.3923 29.8362 65.3402 30.1664 65.3262C30.4015 65.3262 30.517 65.3262 30.517 65.3262Z" fill="#FAFAFA"/>
<path d="M31.3374 42.5024L33.9583 47.8001L34.1973 50.668C34.1973 50.668 34.4363 49.8036 34.7311 48.991C35.0258 48.1785 35.213 45.6372 35.213 45.6372L33.3011 41.6739C33.3011 41.6739 32.1739 39.4872 33.5361 38.4675L35.5596 41.1402C35.5596 41.1402 33.9663 38.0691 35.468 37.2327L37.1768 39.1526C37.1151 39.0546 37.0756 38.9445 37.0608 38.8297C37.0461 38.715 37.0565 38.5984 37.0914 38.4881C37.1263 38.3778 37.1848 38.2764 37.2628 38.191C37.3408 38.1056 37.4365 38.0382 37.5432 37.9935L41.857 43.5261L41.3193 51.6717L39.8415 60.148L40.5465 61.4146L32.8869 66.7202C32.8869 66.7202 30.4969 61.4823 30.3296 59.7496C30.1623 58.017 31.8711 48.8357 31.8711 48.8357C31.8711 48.8357 30.242 45.5735 30.4531 44.267C30.6642 42.9605 31.3374 42.5024 31.3374 42.5024Z" fill="#FFBE9D"/>
<path d="M33.504 67.9908L33.4562 67.9151L33.3367 67.6721L32.8866 66.7201C32.4883 65.8797 31.9386 64.6409 31.2933 63.0277C30.9222 62.137 30.6057 61.2244 30.3453 60.2952C30.2239 59.7502 30.1983 59.1881 30.2697 58.6343C30.3175 58.0687 30.3812 57.4791 30.4609 56.8737C30.7755 54.4519 31.2256 51.7274 31.7594 48.74V48.8276C31.2593 47.8331 30.8448 46.7977 30.5206 45.7327C30.4382 45.4504 30.3743 45.163 30.3294 44.8723C30.308 44.7193 30.2987 44.5648 30.3015 44.4103V44.1753L30.3453 43.9482C30.4072 43.6453 30.509 43.352 30.6481 43.0759C30.7881 42.781 30.9906 42.52 31.2416 42.3111L31.377 42.2036L31.4606 42.3669C32.2931 44.0478 33.1774 45.8163 34.0856 47.6446V47.6725V47.7004C34.1652 48.6006 34.2449 49.5805 34.3285 50.5723L34.0178 50.5404C34.1413 50.1421 34.2688 49.7438 34.4162 49.3455L34.6074 48.744C34.6664 48.5439 34.713 48.3404 34.7468 48.1346C34.8902 47.2941 34.9738 46.4178 35.0415 45.5415V45.6252L33.8984 43.2352C33.7032 42.8369 33.5 42.4386 33.3088 42.0124C33.2132 41.8093 33.1017 41.6141 33.0141 41.3791C32.9237 41.1603 32.8491 40.9354 32.791 40.7059C32.6748 40.2763 32.6517 39.8268 32.7233 39.3875C32.7981 38.9302 33.0463 38.5193 33.4164 38.2403L33.5478 38.1447L33.6434 38.2722L35.6669 40.9489L35.3921 41.1202C35.0581 40.4661 34.8206 39.7671 34.687 39.0449C34.6153 38.6753 34.6153 38.2953 34.687 37.9257C34.7277 37.7318 34.8091 37.5488 34.9259 37.3888C35.0426 37.2288 35.192 37.0955 35.3642 36.9976L35.4797 36.9338L35.5633 37.0334L37.296 39.1166L37.0371 39.2879C36.9179 39.0405 36.8789 38.7619 36.9256 38.4913C36.9553 38.3513 37.0167 38.2199 37.1051 38.1074C37.1935 37.9948 37.3065 37.9041 37.4354 37.842L37.5509 37.7823L37.6306 37.8818L41.9444 43.3508L41.9803 43.3986V43.4503C41.7811 46.3899 41.5819 49.1144 41.4266 51.6079C40.8451 54.8662 40.3392 57.7062 39.913 60.0762V60.0164L42.7411 65.2503L43.4819 66.6445L43.6691 67.0069C43.6904 67.0482 43.709 67.0908 43.7249 67.1344C43.6936 67.0994 43.6668 67.0606 43.6452 67.0189L43.4381 66.6684L42.6415 65.2981C41.9643 64.1032 40.9805 62.3267 39.7337 60.12V60.0921V60.0602C40.1321 57.6703 40.622 54.8462 41.1796 51.58C41.335 49.0865 41.5102 46.3581 41.6935 43.4225L41.7253 43.522L37.3916 38.0611L37.5868 38.1049C37.499 38.1466 37.4218 38.2077 37.3611 38.2836C37.3003 38.3595 37.2577 38.4482 37.2363 38.543C37.2042 38.7478 37.2347 38.9574 37.3239 39.1445L37.7979 40.1961L37.065 39.3158L35.3443 37.2525L35.5474 37.2883C35.4136 37.3647 35.2977 37.469 35.2077 37.5941C35.1177 37.7192 35.0556 37.8621 35.0256 38.0133C34.9658 38.3412 34.9658 38.6772 35.0256 39.0051C35.154 39.6982 35.3821 40.369 35.7027 40.9967L35.4319 41.172L33.4084 38.4992L33.6355 38.5311C33.3306 38.7602 33.1264 39.0986 33.0659 39.4751C33.0029 39.8737 33.026 40.2811 33.1336 40.6701C33.1864 40.8849 33.2556 41.0953 33.3407 41.2994C33.4204 41.5026 33.5279 41.6977 33.6235 41.9128L34.213 43.1357L35.3602 45.5256L35.3801 45.5654V45.6092C35.3084 46.4975 35.2248 47.3738 35.0734 48.2341C35.0389 48.452 34.991 48.6675 34.93 48.8794C34.8623 49.0865 34.7986 49.2777 34.7348 49.4889L34.3564 50.6838L34.1095 51.4565L34.0457 50.6599C33.9621 49.6681 33.8824 48.6922 33.8067 47.792V47.8478C32.9026 46.0195 32.0263 44.2629 31.1938 42.5661L31.4089 42.6218C31.1997 42.8015 31.0302 43.0225 30.911 43.2711C30.7821 43.5231 30.687 43.7909 30.6281 44.0677C30.5404 44.6198 30.591 45.1851 30.7755 45.7128C31.0881 46.7614 31.4878 47.782 31.9705 48.7639V48.8037V48.8476C31.4248 51.823 30.9548 54.5475 30.6242 56.9573C30.5405 57.5588 30.4728 58.1523 30.421 58.7099C30.3472 59.2403 30.366 59.7794 30.4768 60.3032C30.7235 61.2278 31.0268 62.1363 31.385 63.0237C32.0143 64.6409 32.552 65.8876 32.9145 66.74C33.0977 67.1583 33.2332 67.4849 33.3128 67.708L33.4164 67.9549C33.5 67.9629 33.508 67.9908 33.504 67.9908Z" fill="#EB996E"/>
<path d="M37.5943 49.8632C37.5368 49.3963 37.5368 48.9241 37.5943 48.4572C37.6381 47.5888 37.7257 46.3939 37.8452 45.0754L37.8771 44.713L37.9049 44.8205C37.2119 43.7889 36.6064 42.8608 36.1842 42.1836C35.9301 41.8351 35.72 41.4565 35.5588 41.0564C35.8643 41.3573 36.1318 41.6944 36.3555 42.0602C36.8255 42.7054 37.4588 43.6096 38.1559 44.6373L38.1917 44.6851V44.7408C38.1917 44.8564 38.1718 44.9798 38.1599 45.1033C38.0444 46.4218 37.9209 47.6167 37.8173 48.4771C37.7956 48.9461 37.7208 49.4111 37.5943 49.8632Z" fill="#EB996E"/>
<path d="M39.854 47.601C39.8049 47.1735 39.8049 46.7419 39.854 46.3144C39.8978 45.5178 39.9775 44.4144 40.085 43.1757L40.1209 43.2912L39.8779 42.9805C39.0813 41.921 38.3484 40.953 37.8425 40.244C37.5405 39.8771 37.2825 39.476 37.0737 39.0491C37.4319 39.3604 37.7515 39.7134 38.0257 40.1006C38.5794 40.7738 39.3282 41.7178 40.1408 42.7773C40.2205 42.8809 40.3001 42.9884 40.3798 43.088L40.4156 43.1398V43.2035C40.3001 44.4383 40.1806 45.5377 40.081 46.3303C40.0596 46.7618 39.9833 47.1888 39.854 47.601Z" fill="#EB996E"/>
<path d="M30.8193 64.9477L41.4983 60.4387C41.4983 60.4387 57.0328 95.2558 57.925 97.5063C60.068 102.808 57.9489 110.675 52.1175 110.531C49.3691 110.468 41.4983 109.4 39.3513 101.039C38.6782 98.4184 36.7702 92.1369 36.7702 92.1369L30.8193 64.9477Z" fill="#0B622F"/>
<path d="M41.4983 60.4387C41.4397 60.4798 41.377 60.5145 41.3111 60.5423L40.7495 60.8131L38.6105 61.8249L30.9388 65.4097L30.9866 65.3141C31.62 68.8751 32.4086 73.1092 33.3766 77.6102C34.7627 84.1467 36.2763 90.0059 37.4394 94.2241C38.0329 96.3233 38.5149 98.0241 38.8495 99.2151C39.0168 99.7926 39.1442 100.247 39.2478 100.569L39.3434 100.924C39.3589 100.963 39.3683 101.005 39.3713 101.047C39.3513 101.011 39.3353 100.972 39.3235 100.932C39.2956 100.84 39.2558 100.729 39.208 100.581L38.7857 99.239C38.4233 98.0679 37.9134 96.3711 37.312 94.264C36.117 90.0537 34.5755 84.1945 33.1854 77.6541C32.2254 73.1491 31.4487 68.911 30.8313 65.342V65.2743L30.895 65.2464L38.5985 61.7412L40.7614 60.7733L41.331 60.5224L41.4983 60.4387Z" fill="#263238"/>
<path d="M56.1959 95.2798C56.1688 95.3356 56.1368 95.3889 56.1003 95.4391L55.8055 95.8892C55.6543 96.1279 55.488 96.3568 55.3076 96.5743C55.1005 96.8332 54.8814 97.1439 54.5946 97.4427L54.1525 97.9286C53.9971 98.0959 53.8219 98.2552 53.6466 98.4265C53.3001 98.777 52.8938 99.1036 52.4716 99.4621C51.5266 100.2 50.5159 100.849 49.4523 101.402C48.3802 101.938 47.2599 102.371 46.1064 102.696C45.5727 102.828 45.0668 102.967 44.5809 103.039C44.3379 103.079 44.1069 103.131 43.8798 103.159L43.2266 103.226C42.8283 103.282 42.4299 103.278 42.1033 103.294C41.8208 103.312 41.5374 103.312 41.2549 103.294L40.7172 103.27C40.6562 103.274 40.5949 103.274 40.5339 103.27C40.5962 103.264 40.6589 103.264 40.7211 103.27H41.2549C41.5375 103.285 41.8207 103.285 42.1033 103.27C42.4299 103.246 42.8083 103.246 43.2186 103.182L43.8639 103.107C44.0909 103.075 44.322 103.023 44.5609 102.983C45.0429 102.908 45.5448 102.764 46.0785 102.633C48.376 101.984 50.5238 100.891 52.3999 99.4143C52.8181 99.0638 53.2284 98.7412 53.5948 98.3946C53.7701 98.2273 53.9493 98.072 54.1047 97.9047C54.26 97.7374 54.4074 97.5821 54.5468 97.4267C54.8376 97.132 55.0646 96.8292 55.2757 96.5783C55.4569 96.3626 55.6271 96.138 55.7856 95.9051L56.1003 95.471L56.1959 95.2798Z" fill="#FAFAFA"/>
<path d="M53.2692 85.8435C53.247 85.9007 53.219 85.9554 53.1855 86.0068C53.1258 86.1104 53.0461 86.2737 52.9147 86.4649C52.5603 87.0145 52.1433 87.5211 51.6719 87.9745C50.9778 88.6555 50.1807 89.2228 49.3099 89.6554C48.2441 90.1936 47.0829 90.5171 45.8923 90.6074C44.707 90.6401 43.5209 90.5868 42.3433 90.4481C41.3862 90.3452 40.4195 90.3774 39.4714 90.5437C38.8326 90.6579 38.2215 90.8932 37.671 91.2367C37.2727 91.4837 37.1094 91.6709 37.0974 91.659C37.2616 91.4824 37.4461 91.326 37.6471 91.1929C38.1946 90.829 38.8095 90.5785 39.4555 90.456C40.4099 90.2773 41.385 90.2357 42.3512 90.3326C43.5241 90.4641 44.7046 90.5146 45.8843 90.4839C47.0588 90.3954 48.2048 90.0788 49.2581 89.5519C50.1234 89.1306 50.9176 88.5769 51.6122 87.9108C52.0827 87.4654 52.5046 86.9714 52.8709 86.437C53.0063 86.2538 53.0899 86.0944 53.1616 85.9949C53.1942 85.9422 53.2301 85.8916 53.2692 85.8435Z" fill="#FAFAFA"/>
<path d="M34.4121 81.7011C34.4121 81.7011 34.6272 81.7011 35.0096 81.7011C35.5504 81.6883 36.0867 81.5998 36.6029 81.4382C37.3652 81.1947 38.0894 80.8447 38.7538 80.3986C39.5657 79.8422 40.3389 79.2314 41.068 78.5703C41.799 77.9064 42.5677 77.2853 43.3703 76.7101C44.0356 76.2448 44.7604 75.871 45.5252 75.5988C46.0383 75.4173 46.575 75.3113 47.1185 75.2841C47.318 75.2742 47.5179 75.2822 47.716 75.308C47.716 75.308 47.5009 75.308 47.1185 75.3319C46.5741 75.3767 46.0382 75.4946 45.5252 75.6825C44.7741 75.9627 44.063 76.3404 43.4101 76.8057C42.6138 77.3842 41.8493 78.0051 41.1198 78.6659C40.3877 79.3301 39.609 79.9411 38.7896 80.4941C38.1133 80.9425 37.3753 81.29 36.5989 81.5258C36.0739 81.6801 35.5289 81.7553 34.9817 81.7489C34.7908 81.7509 34.6 81.7349 34.4121 81.7011Z" fill="#FAFAFA"/>
<path d="M42.3588 65.5933C42.3533 65.6317 42.3425 65.6692 42.3269 65.7048C42.2883 65.8104 42.2417 65.913 42.1875 66.0115C41.9819 66.3757 41.712 66.6996 41.3908 66.9675C40.9189 67.3648 40.3791 67.6738 39.7976 67.8796C39.0871 68.1189 38.3501 68.27 37.6028 68.3297C36.8062 68.4134 36.0613 68.4452 35.3842 68.5209C34.7824 68.5788 34.1868 68.688 33.6037 68.8475C33.2137 68.9608 32.836 69.1129 32.4764 69.3016C32.2215 69.437 32.0781 69.5286 32.0781 69.5167C32.1055 69.489 32.1363 69.4649 32.1697 69.445C32.2591 69.3774 32.3522 69.3149 32.4486 69.2578C32.8039 69.05 33.1822 68.8843 33.5758 68.7639C34.1611 68.59 34.7611 68.47 35.3682 68.4054C36.0494 68.3257 36.8022 68.2859 37.5869 68.2062C38.3237 68.1468 39.0509 68.0011 39.7537 67.7721C40.3226 67.5752 40.8524 67.2799 41.3191 66.8997C41.7579 66.5463 42.1129 66.1002 42.3588 65.5933Z" fill="#FAFAFA"/>
</svg>
