<svg width="170" height="202" viewBox="0 0 170 202" fill="none" xmlns="http://www.w3.org/2000/svg">
<path d="M127.003 160.687L72.4804 160.436C69.3317 160.418 66.3187 159.152 64.103 156.915C61.8873 154.678 60.6501 151.653 60.6632 148.504L61.2418 11.8228C61.2482 10.2629 61.562 8.71947 62.1653 7.28087C62.7685 5.84226 63.6494 4.53666 64.7575 3.43868C65.8656 2.3407 67.1793 1.47187 68.6234 0.881865C70.0674 0.291862 71.6136 -0.0077504 73.1736 0.000152355L127.691 0.251233C130.84 0.267122 133.853 1.53205 136.07 3.76822C138.287 6.00438 139.525 9.02893 139.514 12.1776L138.935 148.853C138.929 150.414 138.615 151.958 138.012 153.397C137.409 154.836 136.528 156.142 135.42 157.241C134.312 158.34 132.998 159.21 131.554 159.801C130.11 160.392 128.564 160.693 127.003 160.687Z" fill="#455A64"/>
<path d="M127.61 4.95086H117.042C116.698 4.95726 116.358 5.03151 116.041 5.16939C115.725 5.30727 115.439 5.50607 115.2 5.75444C114.961 6.00281 114.773 6.29588 114.647 6.61691C114.521 6.93794 114.46 7.28063 114.466 7.62543V9.54129C114.473 9.88582 114.411 10.2282 114.285 10.549C114.159 10.8697 113.971 11.1624 113.732 11.4103C113.492 11.6583 113.207 11.8565 112.89 11.9938C112.574 12.1311 112.234 12.2047 111.89 12.2104L91.2903 12.1176C90.5934 12.099 89.9324 11.8046 89.4524 11.2991C88.9724 10.7935 88.7127 10.1181 88.7303 9.42121V7.50535C88.7479 6.80937 88.489 6.13478 88.0102 5.62937C87.5314 5.12397 86.8717 4.82895 86.1758 4.80895H82.4587L73.2069 4.76528C71.0064 4.75218 68.8903 5.61159 67.322 7.15533C65.7537 8.69907 64.861 10.8013 64.8394 13.0018L64.2935 146.413C64.2885 147.505 64.4986 148.587 64.9117 149.598C65.3248 150.608 65.9329 151.527 66.7013 152.303C67.4697 153.078 68.3833 153.695 69.39 154.117C70.3966 154.54 71.4766 154.76 72.5683 154.765L126.977 155.016C128.069 155.021 129.152 154.811 130.163 154.397C131.174 153.984 132.094 153.375 132.87 152.606C133.646 151.837 134.263 150.923 134.685 149.916C135.108 148.909 135.328 147.828 135.333 146.735L135.879 13.3239C135.892 11.1172 135.028 8.99559 133.478 7.42549C131.927 5.85539 129.816 4.9653 127.61 4.95086Z" fill="white"/>
<path d="M120.29 137.216L79.8329 137.041C79.4126 137.041 79.0742 136.583 79.0797 136.026L79.1233 125.442C79.1233 124.897 79.4672 124.427 79.8875 124.427L120.344 124.613C120.577 124.653 120.786 124.782 120.926 124.972C121.066 125.162 121.128 125.399 121.098 125.634L121.059 136.206C121.059 136.768 120.71 137.221 120.29 137.216Z" fill="#0B9346"/>
<path d="M93.3117 135.621C92.8889 135.621 92.4823 135.553 92.092 135.418C91.7072 135.277 91.409 135.098 91.1976 134.881L91.4334 134.417C91.634 134.613 91.9023 134.778 92.2384 134.913C92.5799 135.043 92.9377 135.109 93.3117 135.109C93.6695 135.109 93.9595 135.065 94.1818 134.978C94.4095 134.886 94.5748 134.764 94.6778 134.613C94.7862 134.461 94.8404 134.293 94.8404 134.108C94.8404 133.886 94.7754 133.707 94.6453 133.572C94.5206 133.436 94.3552 133.33 94.1493 133.255C93.9433 133.173 93.7156 133.103 93.4662 133.043C93.2169 132.984 92.9675 132.921 92.7182 132.856C92.4688 132.786 92.2384 132.694 92.027 132.58C91.821 132.466 91.653 132.317 91.5229 132.132C91.3982 131.943 91.3358 131.696 91.3358 131.393C91.3358 131.111 91.409 130.853 91.5554 130.62C91.7072 130.382 91.9375 130.192 92.2465 130.051C92.5555 129.905 92.9512 129.831 93.4337 129.831C93.7535 129.831 94.0707 129.877 94.3851 129.97C94.6995 130.056 94.9705 130.178 95.1982 130.335L94.9949 130.815C94.751 130.653 94.4908 130.533 94.2143 130.457C93.9433 130.382 93.6804 130.344 93.4256 130.344C93.0841 130.344 92.8022 130.39 92.5799 130.482C92.3577 130.574 92.1923 130.699 92.0839 130.856C91.9809 131.008 91.9294 131.181 91.9294 131.376C91.9294 131.599 91.9918 131.777 92.1164 131.913C92.2465 132.048 92.4146 132.154 92.6206 132.23C92.832 132.306 93.0624 132.374 93.3117 132.433C93.5611 132.493 93.8077 132.558 94.0517 132.628C94.301 132.699 94.5287 132.791 94.7347 132.905C94.9461 133.013 95.1142 133.16 95.2388 133.344C95.369 133.528 95.434 133.77 95.434 134.068C95.434 134.344 95.3581 134.602 95.2063 134.84C95.0545 135.073 94.8214 135.263 94.507 135.409C94.198 135.55 93.7996 135.621 93.3117 135.621ZM96.745 135.572V129.88H97.3468V135.572H96.745ZM99.1987 135.572V129.88H99.6947L103.622 134.824H103.362V129.88H103.956V135.572H103.46L99.5402 130.628H99.8004V135.572H99.1987ZM94.2387 145.621C93.805 145.621 93.4039 145.55 93.0353 145.409C92.6721 145.263 92.355 145.06 92.0839 144.8C91.8183 144.539 91.6096 144.233 91.4578 143.881C91.3114 143.528 91.2383 143.143 91.2383 142.726C91.2383 142.309 91.3114 141.924 91.4578 141.571C91.6096 141.219 91.821 140.913 92.092 140.653C92.3631 140.392 92.6802 140.192 93.0434 140.051C93.412 139.905 93.8132 139.831 94.2468 139.831C94.6805 139.831 95.0762 139.899 95.434 140.035C95.7972 140.17 96.1062 140.376 96.361 140.653L95.9869 141.035C95.7484 140.796 95.4855 140.625 95.1982 140.522C94.9109 140.419 94.6019 140.368 94.2712 140.368C93.9189 140.368 93.5936 140.428 93.2955 140.547C93.0027 140.661 92.7453 140.826 92.523 141.043C92.3062 141.254 92.1354 141.504 92.0107 141.791C91.8915 142.073 91.8318 142.385 91.8318 142.726C91.8318 143.062 91.8915 143.374 92.0107 143.661C92.1354 143.948 92.3062 144.201 92.523 144.417C92.7453 144.629 93.0027 144.794 93.2955 144.913C93.5936 145.027 93.9162 145.084 94.2631 145.084C94.5883 145.084 94.8946 145.035 95.1819 144.938C95.4747 144.84 95.743 144.675 95.9869 144.442L96.3284 144.897C96.0574 145.136 95.7403 145.317 95.3771 145.442C95.0139 145.561 94.6344 145.621 94.2387 145.621ZM95.7511 144.824V142.726H96.3284V144.897L95.7511 144.824ZM94.0354 155.621C93.309 155.621 92.7371 155.412 92.3197 154.995C91.9023 154.577 91.6936 153.959 91.6936 153.141V149.88H92.2953V153.116C92.2953 153.789 92.4471 154.285 92.7507 154.604C93.0542 154.924 93.4825 155.084 94.0354 155.084C94.5938 155.084 95.0247 154.924 95.3283 154.604C95.6319 154.285 95.7836 153.789 95.7836 153.116V149.88H96.3691V153.141C96.3691 153.959 96.1604 154.577 95.743 154.995C95.331 155.412 94.7618 155.621 94.0354 155.621ZM98.1823 155.572V149.88H100.313C100.795 149.88 101.21 149.959 101.557 150.116C101.904 150.268 102.169 150.49 102.354 150.783C102.543 151.07 102.638 151.42 102.638 151.832C102.638 152.233 102.543 152.58 102.354 152.872C102.169 153.16 101.904 153.382 101.557 153.539C101.21 153.696 100.795 153.775 100.313 153.775H98.5157L98.784 153.49V155.572H98.1823ZM98.784 153.539L98.5157 153.246H100.296C100.866 153.246 101.297 153.125 101.589 152.881C101.887 152.631 102.037 152.282 102.037 151.832C102.037 151.376 101.887 151.024 101.589 150.775C101.297 150.525 100.866 150.401 100.296 150.401H98.5157L98.784 150.116V153.539Z" fill="#E8E8E3"/>
<path d="M87.9024 44.1687L73.8638 44.105L73.8521 46.6813L87.8907 46.745L87.9024 44.1687Z" fill="#0B9346"/>
<path opacity="0.1" d="M87.9024 44.1687L73.8638 44.105L73.8521 46.6813L87.8907 46.745L87.9024 44.1687Z" fill="black"/>
<path d="M129.056 59.9867C129.166 59.9756 129.275 59.9499 129.378 59.9103C129.529 59.8512 129.66 59.7508 129.757 59.6204C129.854 59.4901 129.911 59.3352 129.924 59.1734C129.924 58.3056 129.924 57.0392 129.924 55.4127C129.924 54.5994 129.924 53.6879 129.924 52.6835C129.924 52.4379 129.924 52.1814 129.924 51.9248C129.959 51.6759 129.905 51.4224 129.771 51.2098C129.696 51.1078 129.598 51.0247 129.485 50.9669C129.373 50.9092 129.248 50.8783 129.121 50.8768H128.27H120.383L74.7296 50.7076C74.6128 50.7056 74.4972 50.7319 74.3926 50.7842C74.2881 50.8364 74.1977 50.9132 74.1292 51.0078C73.9974 51.2213 73.947 51.4752 73.9873 51.7229C73.9873 52.2687 73.9873 52.8145 73.9873 53.3604C73.9873 54.452 73.9873 55.5437 73.9873 56.6353C73.9873 57.1812 73.9873 57.727 73.9873 58.2728C73.9647 58.527 73.9647 58.7828 73.9873 59.037C74.016 59.146 74.0693 59.2469 74.1431 59.3321C74.2169 59.4173 74.3092 59.4844 74.413 59.5282C74.5206 59.571 74.6358 59.5915 74.7515 59.5883H77.5297L89.6526 59.6538L110.176 59.7793L124.013 59.8885L127.773 59.9321H128.75C128.974 59.9321 129.083 59.9321 129.083 59.9321H128.75H127.773H124.013H110.176L89.6526 59.8666L77.5297 59.8175H74.7515C74.5986 59.8237 74.4461 59.7977 74.3039 59.7411C74.1602 59.6798 74.0323 59.5864 73.9302 59.4682C73.828 59.3499 73.7542 59.2099 73.7144 59.0588C73.6828 58.9156 73.6718 58.7685 73.6816 58.6222V58.2182C73.6816 57.6724 73.6816 57.1266 73.6816 56.5808C73.6816 55.4891 73.6816 54.3974 73.6816 53.3058C73.6816 52.7599 73.6816 52.2141 73.6816 51.6683C73.6712 51.5229 73.6712 51.377 73.6816 51.2316C73.7021 51.0711 73.7642 50.9186 73.8618 50.7895C73.9559 50.6577 74.0805 50.5507 74.225 50.4775C74.3695 50.4044 74.5295 50.3672 74.6914 50.3692L120.345 50.6203L128.232 50.6749H129.083C129.233 50.675 129.381 50.7113 129.514 50.7806C129.647 50.85 129.761 50.9504 129.847 51.0733C130.001 51.3106 130.063 51.5959 130.022 51.8757C130.022 52.1322 130.022 52.3888 130.022 52.6344C130.022 53.6278 130.022 54.5394 130.022 55.3636C130.022 57.001 129.984 58.2564 129.973 59.1298C129.96 59.2977 129.899 59.4583 129.797 59.5927C129.696 59.7271 129.558 59.8297 129.4 59.8885C129.297 59.9525 129.178 59.9865 129.056 59.9867Z" fill="#E0E0E0"/>
<path d="M103.757 53.4478H78.0811V55.8549H103.757V53.4478Z" fill="#0B9346"/>
<path opacity="0.2" d="M103.757 53.4478H78.0811V55.8549H103.757V53.4478Z" fill="white"/>
<path d="M87.8071 67.6716L73.7686 67.6079L73.7569 70.1842L87.7954 70.2479L87.8071 67.6716Z" fill="#0B9346"/>
<path opacity="0.1" d="M87.8071 67.6716L73.7686 67.6079L73.7569 70.1842L87.7954 70.2479L87.8071 67.6716Z" fill="black"/>
<path d="M128.701 83.4901C128.811 83.4765 128.921 83.4565 129.029 83.43C129.181 83.3815 129.321 83.3009 129.44 83.1935C129.559 83.0862 129.653 82.9547 129.716 82.8078C129.802 82.5874 129.836 82.3501 129.815 82.1146C129.815 81.8526 129.815 81.5688 129.815 81.2522C129.815 80.619 129.815 79.8985 129.815 79.0689V75.6029C129.841 75.3519 129.785 75.0993 129.656 74.8824C129.522 74.6599 129.31 74.4948 129.061 74.4184C128.789 74.3699 128.513 74.3552 128.237 74.3747H120.383L74.8878 74.2055C74.6431 74.2061 74.4069 74.2955 74.2232 74.4572C74.0395 74.6188 73.9207 74.8417 73.8889 75.0843C73.8889 75.6029 73.8889 76.176 73.8889 76.7218C73.8889 77.8135 73.8889 78.9051 73.8889 79.9968C73.8889 80.5426 73.8889 81.0884 73.8889 81.6343C73.8686 81.8894 73.8796 82.146 73.9217 82.3984C73.9898 82.6198 74.1301 82.8119 74.3201 82.9443C74.5218 83.0722 74.7586 83.1333 74.997 83.1189H75.7557H77.3331L89.4123 83.179L109.865 83.3045L123.652 83.4137L127.402 83.4573H123.652H109.865L89.4014 83.4355L77.3222 83.3918H74.9478C74.6526 83.4093 74.3596 83.3308 74.1127 83.168C73.8644 82.996 73.6831 82.7434 73.5996 82.453C73.5507 82.1757 73.5361 81.8934 73.556 81.6124C73.556 81.0666 73.556 80.5208 73.556 79.9749C73.556 78.8833 73.556 77.7916 73.556 76.7C73.556 76.1541 73.556 75.6083 73.556 75.0625C73.5958 74.7504 73.748 74.4635 73.9841 74.2555C74.2202 74.0475 74.524 73.9327 74.8387 73.9326L120.334 74.1837L128.188 74.2437C128.48 74.2258 128.774 74.246 129.061 74.3038C129.345 74.3964 129.584 74.5909 129.733 74.8496C129.874 75.09 129.935 75.3691 129.907 75.6465C129.907 75.9031 129.907 76.1541 129.907 76.4052C129.907 77.3932 129.907 78.2993 129.907 79.1344C129.907 79.9695 129.907 80.6736 129.907 81.3177C129.907 81.6288 129.907 81.9181 129.907 82.1856C129.927 82.4296 129.888 82.6749 129.793 82.9006C129.722 83.0512 129.619 83.1848 129.492 83.2921C129.365 83.3995 129.216 83.4782 129.056 83.5228C128.937 83.5327 128.817 83.5216 128.701 83.4901Z" fill="#E0E0E0"/>
<path d="M87.7012 92.1948L73.6626 92.1311L73.6509 94.7074L87.6895 94.7711L87.7012 92.1948Z" fill="#0B9346"/>
<path opacity="0.1" d="M87.7012 92.1948L73.6626 92.1311L73.6509 94.7074L87.6895 94.7711L87.7012 92.1948Z" fill="black"/>
<path d="M128.592 108.003C128.702 107.99 128.812 107.97 128.919 107.943C129.071 107.895 129.211 107.815 129.33 107.709C129.448 107.603 129.543 107.472 129.607 107.327C129.693 107.106 129.726 106.869 129.705 106.633C129.705 106.366 129.705 106.088 129.705 105.766C129.705 105.138 129.705 104.412 129.705 103.582V100.116C129.731 99.8653 129.676 99.6126 129.547 99.3957C129.409 99.1773 129.198 99.0148 128.952 98.9372C128.681 98.8868 128.404 98.8703 128.128 98.8881H120.273L74.7786 98.7189C74.5339 98.7195 74.2977 98.8089 74.114 98.9705C73.9303 99.1322 73.8115 99.355 73.7798 99.5977C73.7798 100.143 73.7798 100.689 73.7798 101.235C73.7798 102.327 73.7798 103.418 73.7798 104.51C73.7798 105.056 73.7798 105.602 73.7798 106.148C73.7594 106.401 73.7704 106.656 73.8125 106.906C73.8779 107.129 74.0188 107.322 74.211 107.452C74.4113 107.583 74.6491 107.644 74.8878 107.627H77.2621L89.3413 107.692L109.794 107.818L123.581 107.927L127.331 107.971H123.581H109.794L89.3413 107.911L77.2621 107.862H74.8878C74.5923 107.881 74.2986 107.803 74.0527 107.638C73.8043 107.466 73.623 107.213 73.5396 106.923C73.4907 106.645 73.476 106.363 73.4959 106.082C73.4959 105.536 73.4959 104.99 73.4959 104.445C73.4959 103.353 73.4959 102.261 73.4959 101.17C73.4959 100.624 73.4959 100.078 73.4959 99.5049C73.5345 99.1932 73.6856 98.9064 73.9208 98.6983C74.156 98.4903 74.4591 98.3753 74.7732 98.375L120.268 98.6261L128.122 98.6861C128.415 98.6682 128.709 98.6884 128.996 98.7462C129.279 98.8388 129.519 99.0333 129.667 99.292C129.808 99.5324 129.87 99.8115 129.842 100.089C129.842 100.345 129.842 100.602 129.842 100.848C129.842 101.836 129.842 102.742 129.842 103.577C129.842 104.412 129.842 105.116 129.842 105.76C129.842 106.071 129.842 106.36 129.842 106.628C129.863 106.872 129.823 107.118 129.727 107.343C129.656 107.494 129.554 107.627 129.427 107.735C129.3 107.842 129.151 107.921 128.99 107.965C128.862 108.009 128.726 108.022 128.592 108.003Z" fill="#E0E0E0"/>
<path d="M103.209 77.6319L77.5332 77.5154L77.5223 79.9225L103.198 80.039L103.209 77.6319Z" fill="#0B9346"/>
<path opacity="0.2" d="M103.209 77.6319L77.5332 77.5154L77.5223 79.9225L103.198 80.039L103.209 77.6319Z" fill="white"/>
<path d="M79.8552 103.549C79.8391 103.769 79.7589 103.979 79.6245 104.153C79.4902 104.328 79.3076 104.459 79.0994 104.53C78.8912 104.602 78.6666 104.611 78.4534 104.556C78.2402 104.501 78.0478 104.385 77.9001 104.222C77.7524 104.058 77.6558 103.855 77.6224 103.638C77.589 103.42 77.6202 103.198 77.7121 102.998C77.8041 102.798 77.9527 102.629 78.1396 102.513C78.3265 102.396 78.5434 102.337 78.7635 102.343C79.0676 102.36 79.3528 102.496 79.5571 102.722C79.7615 102.948 79.8686 103.245 79.8552 103.549Z" fill="#0B9346"/>
<path d="M83.3315 103.566C83.3423 103.72 83.3212 103.874 83.2697 104.019C83.2182 104.165 83.1374 104.298 83.0321 104.411C82.9269 104.524 82.7996 104.614 82.6582 104.675C82.5167 104.737 82.3641 104.768 82.2099 104.768C82.0556 104.768 81.903 104.737 81.7615 104.675C81.6201 104.614 81.4928 104.524 81.3876 104.411C81.2824 104.298 81.2015 104.165 81.15 104.019C81.0985 103.874 81.0774 103.72 81.0882 103.566C81.0774 103.412 81.0985 103.257 81.15 103.112C81.2015 102.967 81.2824 102.833 81.3876 102.721C81.4928 102.608 81.6201 102.518 81.7615 102.456C81.903 102.395 82.0556 102.363 82.2099 102.363C82.3641 102.363 82.5167 102.395 82.6582 102.456C82.7996 102.518 82.9269 102.608 83.0321 102.721C83.1374 102.833 83.2182 102.967 83.2697 103.112C83.3212 103.257 83.3423 103.412 83.3315 103.566Z" fill="#0B9346"/>
<path d="M86.8146 103.582C86.7985 103.802 86.7183 104.012 86.584 104.186C86.4496 104.361 86.267 104.492 86.0589 104.563C85.8507 104.635 85.626 104.644 85.4129 104.589C85.1997 104.534 85.0073 104.418 84.8596 104.254C84.7118 104.091 84.6153 103.888 84.5819 103.671C84.5485 103.453 84.5797 103.23 84.6716 103.03C84.7635 102.83 84.9122 102.662 85.0991 102.545C85.286 102.429 85.5029 102.37 85.723 102.376C86.0266 102.394 86.3109 102.531 86.515 102.756C86.719 102.982 86.8266 103.278 86.8146 103.582Z" fill="#0B9346"/>
<path d="M90.2912 103.599C90.2751 103.818 90.1949 104.028 90.0605 104.202C89.9262 104.377 89.7436 104.508 89.5354 104.58C89.3272 104.651 89.1026 104.66 88.8894 104.605C88.6762 104.55 88.4838 104.434 88.3361 104.271C88.1884 104.108 88.0918 103.905 88.0584 103.687C88.025 103.469 88.0562 103.247 88.1482 103.047C88.2401 102.847 88.3887 102.678 88.5756 102.562C88.7625 102.445 88.9795 102.386 89.1996 102.392C89.5031 102.411 89.7874 102.547 89.9915 102.773C90.1956 102.998 90.3032 103.295 90.2912 103.599Z" fill="#0B9346"/>
<path d="M93.7682 103.609C93.7531 103.829 93.6738 104.04 93.54 104.215C93.4062 104.39 93.2239 104.522 93.0157 104.595C92.8076 104.667 92.5827 104.677 92.3692 104.622C92.1556 104.568 91.9626 104.452 91.8144 104.289C91.6661 104.126 91.5691 103.923 91.5353 103.705C91.5015 103.487 91.5324 103.264 91.6243 103.064C91.7161 102.864 91.8648 102.695 92.0519 102.578C92.239 102.462 92.4562 102.403 92.6765 102.409C92.9791 102.427 93.2626 102.563 93.4665 102.787C93.6704 103.011 93.7787 103.306 93.7682 103.609Z" fill="#0B9346"/>
<path d="M97.2501 103.626C97.2352 103.845 97.1567 104.054 97.0242 104.229C96.8917 104.404 96.711 104.536 96.5044 104.609C96.2978 104.682 96.0742 104.694 95.8613 104.642C95.6483 104.59 95.4552 104.476 95.3057 104.316C95.1562 104.156 95.0569 103.955 95.02 103.739C94.983 103.523 95.0101 103.301 95.0978 103.1C95.1855 102.899 95.3301 102.728 95.5137 102.608C95.6973 102.488 95.9119 102.424 96.1312 102.425C96.4386 102.436 96.729 102.569 96.9387 102.794C97.1485 103.019 97.2604 103.318 97.2501 103.626Z" fill="#0B9346"/>
<path d="M100.728 103.642C100.738 103.796 100.717 103.95 100.666 104.096C100.614 104.241 100.533 104.375 100.428 104.487C100.323 104.6 100.196 104.69 100.054 104.752C99.9127 104.813 99.7601 104.845 99.6058 104.845C99.4516 104.845 99.299 104.813 99.1575 104.752C99.0161 104.69 98.8888 104.6 98.7836 104.487C98.6783 104.375 98.5975 104.241 98.546 104.096C98.4945 103.95 98.4734 103.796 98.4842 103.642C98.4734 103.488 98.4945 103.334 98.546 103.188C98.5975 103.043 98.6783 102.91 98.7836 102.797C98.8888 102.684 99.0161 102.594 99.1575 102.533C99.299 102.471 99.4516 102.439 99.6058 102.439C99.7601 102.439 99.9127 102.471 100.054 102.533C100.196 102.594 100.323 102.684 100.428 102.797C100.533 102.91 100.614 103.043 100.666 103.188C100.717 103.334 100.738 103.488 100.728 103.642Z" fill="#0B9346"/>
<path d="M104.204 103.659C104.189 103.877 104.111 104.087 103.978 104.262C103.846 104.436 103.665 104.568 103.458 104.642C103.252 104.715 103.028 104.726 102.815 104.674C102.602 104.622 102.409 104.509 102.26 104.349C102.11 104.188 102.011 103.988 101.974 103.772C101.937 103.555 101.964 103.333 102.052 103.132C102.14 102.931 102.284 102.76 102.468 102.641C102.651 102.521 102.866 102.457 103.085 102.458C103.393 102.469 103.683 102.602 103.893 102.827C104.103 103.052 104.215 103.351 104.204 103.659Z" fill="#0B9346"/>
<path d="M107.681 103.675C107.666 103.895 107.587 104.105 107.453 104.28C107.319 104.456 107.137 104.588 106.929 104.66C106.721 104.732 106.496 104.742 106.282 104.688C106.069 104.633 105.876 104.517 105.727 104.354C105.579 104.191 105.482 103.988 105.448 103.77C105.415 103.553 105.446 103.33 105.537 103.129C105.629 102.929 105.778 102.76 105.965 102.644C106.152 102.527 106.369 102.468 106.59 102.474C106.892 102.492 107.176 102.628 107.38 102.852C107.584 103.077 107.692 103.372 107.681 103.675Z" fill="#0B9346"/>
<g opacity="0.2">
<path d="M79.8552 103.549C79.8391 103.769 79.7589 103.979 79.6245 104.153C79.4902 104.328 79.3076 104.459 79.0994 104.53C78.8912 104.602 78.6666 104.611 78.4534 104.556C78.2402 104.501 78.0478 104.385 77.9001 104.222C77.7524 104.058 77.6558 103.855 77.6224 103.638C77.589 103.42 77.6202 103.198 77.7121 102.998C77.8041 102.798 77.9527 102.629 78.1396 102.513C78.3265 102.396 78.5434 102.337 78.7635 102.343C79.0676 102.36 79.3528 102.496 79.5571 102.722C79.7615 102.948 79.8686 103.245 79.8552 103.549Z" fill="white"/>
<path d="M83.3315 103.566C83.3423 103.72 83.3212 103.874 83.2697 104.02C83.2182 104.165 83.1374 104.298 83.0321 104.411C82.9269 104.524 82.7996 104.614 82.6582 104.675C82.5167 104.737 82.3641 104.769 82.2099 104.769C82.0556 104.769 81.903 104.737 81.7615 104.675C81.6201 104.614 81.4928 104.524 81.3876 104.411C81.2824 104.298 81.2015 104.165 81.15 104.02C81.0985 103.874 81.0774 103.72 81.0882 103.566C81.0774 103.412 81.0985 103.258 81.15 103.112C81.2015 102.967 81.2824 102.834 81.3876 102.721C81.4928 102.608 81.6201 102.518 81.7615 102.457C81.903 102.395 82.0556 102.363 82.2099 102.363C82.3641 102.363 82.5167 102.395 82.6582 102.457C82.7996 102.518 82.9269 102.608 83.0321 102.721C83.1374 102.834 83.2182 102.967 83.2697 103.112C83.3212 103.258 83.3423 103.412 83.3315 103.566Z" fill="white"/>
<path d="M86.8146 103.582C86.7985 103.802 86.7183 104.012 86.584 104.186C86.4496 104.361 86.267 104.492 86.0589 104.563C85.8507 104.635 85.626 104.644 85.4129 104.589C85.1997 104.534 85.0073 104.418 84.8596 104.254C84.7118 104.091 84.6153 103.888 84.5819 103.671C84.5485 103.453 84.5797 103.23 84.6716 103.03C84.7635 102.83 84.9122 102.662 85.0991 102.545C85.286 102.429 85.5029 102.37 85.723 102.376C86.0266 102.394 86.3109 102.531 86.515 102.756C86.719 102.982 86.8266 103.278 86.8146 103.582Z" fill="white"/>
<path d="M90.2912 103.599C90.2751 103.818 90.1949 104.028 90.0605 104.202C89.9262 104.377 89.7436 104.508 89.5354 104.58C89.3272 104.651 89.1026 104.66 88.8894 104.605C88.6762 104.55 88.4838 104.434 88.3361 104.271C88.1884 104.108 88.0918 103.905 88.0584 103.687C88.025 103.469 88.0562 103.247 88.1482 103.047C88.2401 102.847 88.3887 102.678 88.5756 102.562C88.7625 102.445 88.9795 102.386 89.1996 102.392C89.5031 102.411 89.7874 102.547 89.9915 102.773C90.1956 102.998 90.3032 103.295 90.2912 103.599Z" fill="white"/>
<path d="M93.7682 103.609C93.7531 103.829 93.6738 104.04 93.54 104.215C93.4062 104.39 93.2239 104.522 93.0157 104.595C92.8076 104.667 92.5827 104.677 92.3692 104.622C92.1556 104.568 91.9626 104.452 91.8144 104.289C91.6661 104.126 91.5691 103.923 91.5353 103.705C91.5015 103.487 91.5324 103.264 91.6243 103.064C91.7161 102.864 91.8648 102.695 92.0519 102.578C92.239 102.462 92.4562 102.403 92.6765 102.409C92.9791 102.427 93.2626 102.563 93.4665 102.787C93.6704 103.011 93.7787 103.306 93.7682 103.609Z" fill="white"/>
<path d="M97.2501 103.626C97.2352 103.845 97.1567 104.054 97.0242 104.229C96.8917 104.404 96.711 104.536 96.5044 104.609C96.2978 104.682 96.0742 104.694 95.8613 104.642C95.6483 104.59 95.4552 104.476 95.3057 104.316C95.1562 104.156 95.0569 103.955 95.02 103.739C94.983 103.523 95.0101 103.301 95.0978 103.1C95.1855 102.899 95.3301 102.728 95.5137 102.608C95.6973 102.488 95.9119 102.424 96.1312 102.425C96.4386 102.436 96.729 102.569 96.9387 102.794C97.1485 103.019 97.2604 103.318 97.2501 103.626Z" fill="white"/>
<path d="M100.728 103.642C100.738 103.796 100.717 103.95 100.666 104.096C100.614 104.241 100.533 104.375 100.428 104.487C100.323 104.6 100.196 104.69 100.054 104.752C99.9127 104.813 99.7601 104.845 99.6058 104.845C99.4516 104.845 99.299 104.813 99.1575 104.752C99.0161 104.69 98.8888 104.6 98.7836 104.487C98.6783 104.375 98.5975 104.241 98.546 104.096C98.4945 103.95 98.4734 103.796 98.4842 103.642C98.4734 103.488 98.4945 103.334 98.546 103.188C98.5975 103.043 98.6783 102.91 98.7836 102.797C98.8888 102.684 99.0161 102.594 99.1575 102.533C99.299 102.471 99.4516 102.439 99.6058 102.439C99.7601 102.439 99.9127 102.471 100.054 102.533C100.196 102.594 100.323 102.684 100.428 102.797C100.533 102.91 100.614 103.043 100.666 103.188C100.717 103.334 100.738 103.488 100.728 103.642Z" fill="white"/>
<path d="M104.204 103.659C104.189 103.877 104.111 104.087 103.978 104.262C103.846 104.436 103.665 104.568 103.458 104.642C103.252 104.715 103.028 104.726 102.815 104.674C102.602 104.622 102.409 104.509 102.26 104.349C102.11 104.188 102.011 103.988 101.974 103.772C101.937 103.555 101.964 103.333 102.052 103.132C102.14 102.931 102.284 102.76 102.468 102.641C102.651 102.521 102.866 102.457 103.085 102.458C103.393 102.469 103.683 102.602 103.893 102.827C104.103 103.052 104.215 103.351 104.204 103.659Z" fill="white"/>
<path d="M107.681 103.675C107.666 103.895 107.587 104.105 107.453 104.28C107.319 104.456 107.137 104.588 106.929 104.66C106.721 104.732 106.496 104.742 106.282 104.688C106.069 104.633 105.876 104.517 105.727 104.354C105.579 104.191 105.482 103.988 105.448 103.77C105.415 103.553 105.446 103.33 105.537 103.129C105.629 102.929 105.778 102.76 105.965 102.644C106.152 102.527 106.369 102.468 106.59 102.474C106.892 102.492 107.176 102.628 107.38 102.852C107.584 103.077 107.692 103.372 107.681 103.675Z" fill="white"/>
</g>
<path d="M102.741 24.8791C103.121 24.7121 103.442 24.4373 103.667 24.0889C103.891 23.7405 104.008 23.3338 104.002 22.9195C104.016 22.6502 103.976 22.3809 103.882 22.1278C103.789 21.8748 103.645 21.6435 103.459 21.4478C103.274 21.2522 103.05 21.0964 102.803 20.99C102.555 20.8835 102.288 20.8286 102.018 20.8286C101.749 20.8286 101.482 20.8835 101.234 20.99C100.986 21.0964 100.763 21.2522 100.577 21.4478C100.391 21.6435 100.248 21.8748 100.154 22.1278C100.061 22.3809 100.02 22.6502 100.034 22.9195C100.026 23.338 100.142 23.7495 100.367 24.1021C100.592 24.4548 100.917 24.7327 101.3 24.9009C98.2438 25.3594 98.3803 28.678 98.3803 28.678L105.607 28.7108C105.607 28.7108 105.776 25.3321 102.741 24.8791Z" fill="#0B9346"/>
<path opacity="0.1" d="M102.741 24.8791C103.121 24.7121 103.442 24.4373 103.667 24.0889C103.891 23.7405 104.008 23.3338 104.002 22.9195C104.016 22.6502 103.976 22.3809 103.882 22.1278C103.789 21.8748 103.645 21.6435 103.459 21.4478C103.274 21.2522 103.05 21.0964 102.803 20.99C102.555 20.8835 102.288 20.8286 102.018 20.8286C101.749 20.8286 101.482 20.8835 101.234 20.99C100.986 21.0964 100.763 21.2522 100.577 21.4478C100.391 21.6435 100.248 21.8748 100.154 22.1278C100.061 22.3809 100.02 22.6502 100.034 22.9195C100.026 23.338 100.142 23.7495 100.367 24.1021C100.592 24.4548 100.917 24.7327 101.3 24.9009C98.2438 25.3594 98.3803 28.678 98.3803 28.678L105.607 28.7108C105.607 28.7108 105.776 25.3321 102.741 24.8791Z" fill="black"/>
<path d="M114.485 30.851L88.7275 30.7341L88.7136 33.8126L114.471 33.9295L114.485 30.851Z" fill="#0B9346"/>
<path opacity="0.2" d="M114.485 30.851L88.7275 30.7341L88.7136 33.8126L114.471 33.9295L114.485 30.851Z" fill="white"/>
<path d="M46.3628 199.451V194.785L37.9953 194.725L37.9243 201.782L38.4429 201.82C40.7517 201.968 50.1891 202.186 51.7393 201.706C53.4641 201.171 46.3628 199.451 46.3628 199.451Z" fill="#0B622F"/>
<path d="M51.9358 201.269C51.9358 201.346 48.8027 201.411 44.9437 201.411C41.0847 201.411 37.9517 201.346 37.9517 201.269C37.9517 201.193 41.0847 201.127 44.9437 201.127C48.8027 201.127 51.9358 201.193 51.9358 201.269Z" fill="#263238"/>
<path d="M46.5102 200.407C46.4393 200.369 46.5102 200.123 46.6795 199.861C46.8487 199.599 47.0779 199.49 47.1325 199.544C47.1871 199.599 47.0724 199.806 46.9087 200.03C46.7449 200.254 46.5812 200.445 46.5102 200.407Z" fill="#263238"/>
<path d="M47.0446 200.712C46.9682 200.712 47.0064 200.407 47.1702 200.117C47.3339 199.828 47.5523 199.653 47.6123 199.697C47.6724 199.741 47.5741 199.986 47.4213 200.243C47.2684 200.499 47.1156 200.74 47.0446 200.712Z" fill="#263238"/>
<path d="M40.4733 201.247C40.4405 201.247 40.315 201.149 40.1349 200.942C39.915 200.675 39.6701 200.43 39.4035 200.21C39.1413 200.001 38.829 199.863 38.4974 199.812C38.2409 199.779 38.0771 199.812 38.0607 199.779C38.0444 199.746 38.2026 199.632 38.5028 199.61C38.899 199.601 39.2855 199.733 39.5945 199.981C39.884 200.217 40.1281 200.504 40.315 200.827C40.4405 201.067 40.506 201.225 40.4733 201.247Z" fill="#263238"/>
<path d="M46.5378 199.528C46.576 199.594 46.4341 199.757 46.1939 199.845C45.9538 199.932 45.7409 199.899 45.73 199.845C45.7191 199.79 45.8883 199.675 46.0957 199.599C46.3031 199.523 46.4942 199.463 46.5378 199.528Z" fill="#263238"/>
<path d="M46.4063 199.075C46.4063 199.157 46.1879 199.222 45.9041 199.228C45.6203 199.233 45.3965 199.168 45.402 199.091C45.4074 199.015 45.6312 198.944 45.9041 198.939C46.177 198.933 46.3954 198.999 46.4063 199.075Z" fill="#263238"/>
<path d="M66.9678 199.451V194.785L58.6003 194.725L58.5293 201.711L59.0478 201.749C61.3567 201.897 70.7995 202.186 72.3442 201.706C74.0691 201.171 66.9678 199.451 66.9678 199.451Z" fill="#0B622F"/>
<path d="M72.5407 201.28C72.5407 201.357 69.4131 201.422 65.5486 201.422C61.6842 201.422 58.562 201.357 58.562 201.28C58.562 201.204 61.6896 201.138 65.5486 201.138C69.4076 201.138 72.5407 201.204 72.5407 201.28Z" fill="#263238"/>
<path d="M67.1149 200.407C67.0494 200.369 67.1148 200.123 67.2841 199.861C67.4533 199.599 67.6825 199.49 67.7371 199.544C67.7917 199.599 67.6771 199.806 67.5133 200.03C67.3496 200.254 67.1858 200.445 67.1149 200.407Z" fill="#263238"/>
<path d="M67.6504 200.712C67.5795 200.712 67.6122 200.407 67.7814 200.117C67.9506 199.828 68.1635 199.653 68.2236 199.697C68.2836 199.741 68.1799 199.986 68.0271 200.243C67.8742 200.499 67.7268 200.74 67.6504 200.712Z" fill="#263238"/>
<path d="M61.0783 201.247C61.0455 201.247 60.9254 201.149 60.7399 200.942C60.52 200.675 60.275 200.43 60.0084 200.21C59.7463 200.001 59.4339 199.863 59.1024 199.812C58.8513 199.779 58.6821 199.812 58.6657 199.779C58.6493 199.746 58.8076 199.632 59.1078 199.61C59.504 199.601 59.8905 199.733 60.1995 199.981C60.4905 200.215 60.7349 200.502 60.92 200.827C61.0455 201.067 61.111 201.225 61.0783 201.247Z" fill="#263238"/>
<path d="M67.1423 199.528C67.1805 199.594 67.0386 199.757 66.7984 199.845C66.5583 199.932 66.3454 199.899 66.3345 199.845C66.3236 199.79 66.4928 199.675 66.7002 199.599C66.9076 199.523 67.0986 199.463 67.1423 199.528Z" fill="#263238"/>
<path d="M67.0224 199.075C67.0224 199.157 66.8041 199.222 66.5202 199.228C66.2364 199.233 66.0181 199.168 66.0235 199.091C66.029 199.015 66.2473 198.944 66.5202 198.939C66.7932 198.933 67.0224 198.999 67.0224 199.075Z" fill="#263238"/>
<path d="M97.796 60.8653C97.5777 60.6416 97.0373 60.7507 97.0373 60.7507C97.0915 60.4365 97.0915 60.1152 97.0373 59.801C96.9391 59.4953 96.2513 59.5553 96.2513 59.5553C96.2196 59.298 96.2196 59.0377 96.2513 58.7803C96.2568 58.7232 96.2445 58.6659 96.2162 58.616C96.1879 58.5662 96.1449 58.5264 96.093 58.5019C95.7676 58.3692 95.4181 58.306 95.0669 58.3163C94.6466 58.0161 96.3496 55.6308 96.9827 54.8667C97.6159 54.1025 97.5013 53.5076 96.9391 53.5076C96.5515 53.5076 94.5647 55.8001 93.9534 56.5697C93.342 57.3393 91.7209 59.4789 91.6664 57.7705C91.6118 56.062 90.924 54.7739 90.4928 54.5556C90.0616 54.3372 89.6031 54.8503 89.8378 55.3252C90.044 55.8647 90.1727 56.4307 90.2199 57.0063C90.2792 57.4649 90.2589 57.9302 90.1599 58.3818C89.9789 59.2221 89.7325 60.047 89.423 60.849H89.3793C89.3793 60.849 77.4693 72.2732 76.6069 73.0865C75.8373 73.8179 60.3576 72.2186 57.2518 71.8911C56.1965 71.7367 55.1308 71.6637 54.0642 71.6728C52.716 71.7328 52.4758 71.9238 51.1331 71.9402C47.7421 71.9779 44.359 72.2753 41.0134 72.8299C39.4985 73.0875 38.0835 73.7561 36.9227 74.7629C35.7619 75.7698 34.8999 77.0761 34.4307 78.5393C31.3031 88.3096 24.2183 111.436 22.9683 124.427C22.0238 126.14 21.1711 127.902 20.4138 129.705C19.535 132.096 19.7479 132.178 20.0427 132.233C20.8396 132.38 21.7457 128.09 22.0841 129.127C22.4225 130.164 20.3647 134.241 21.1998 134.361C22.2915 134.514 23.1594 129.995 23.2631 129.634C23.3668 129.274 23.9071 129.389 23.8089 129.727C23.6506 130.207 22.1168 135.3 23.1866 135.464C23.7761 135.551 23.8416 134.476 23.8416 134.476C23.8416 134.476 24.9333 129.602 25.43 129.7C25.9267 129.798 25.3973 132.675 25.1462 133.635C24.8951 134.596 25.2444 135.082 25.7575 134.847C26.1068 134.683 26.9419 131.763 27.1712 130.813C27.4004 129.864 27.9736 127.233 28.7432 128.756C29.5128 130.278 30.6809 131.163 31.1612 131.185C31.2694 131.172 31.3715 131.127 31.4541 131.057C31.5368 130.986 31.5964 130.891 31.6251 130.786C31.6539 130.681 31.6506 130.57 31.6156 130.467C31.5805 130.364 31.5154 130.273 31.4287 130.207C31.0155 129.804 30.6609 129.345 30.3752 128.843C30.1206 128.452 29.9359 128.02 29.8294 127.566C29.6094 126.66 29.4814 125.735 29.4473 124.804L29.36 124.258C30.5826 118.205 34.1032 100.438 39.1849 89.0902L41.27 93.3804L42.176 96.5571L36.6195 110.274L60.3194 109.963L56.7824 96.3497L61.0781 82.1581C65.7231 82.2618 77.6495 82.4365 79.6363 81.5359C82.1362 80.4442 95.0669 64.113 95.0669 64.113C95.9098 63.4581 96.7169 62.7584 97.4849 62.017C97.4849 62.017 98.2709 61.3566 97.796 60.8653Z" fill="#FFBE9D"/>
<path d="M35.5769 100.138C36.2646 97.7909 39.7961 86.1866 39.7961 86.1866C39.7961 86.1866 41.5319 95.6458 41.0734 96.7866C40.6516 97.7632 40.1534 98.705 39.5833 99.6031C35.5769 105.7 36.1009 108.751 36.1009 108.751L60.3084 108.014C60.363 104.63 58.3598 96.7593 57.945 95.5039C57.5301 94.2485 58.9111 90.1384 58.9111 90.1384C58.9111 90.1384 61.6402 87.3601 61.542 85.9301C61.4901 84.6455 61.3313 83.3674 61.0671 82.1093L75.8045 82.6551L75.3405 72.6664L54.1733 70.5486C53.4364 72.6282 46.7718 71.6075 46.7718 71.6075C39.5778 71.8477 39.1302 73.1686 36.1391 75.4938C33.1479 77.819 28.1973 97.7746 28.1973 97.7746L35.5769 100.138Z" fill="#0B622F"/>
<path d="M49.8883 97.7744C49.4688 97.8493 49.0416 97.8713 48.6166 97.8399C47.8251 97.8399 46.7389 97.7853 45.5435 97.6652C44.3482 97.5451 43.2674 97.3759 42.4978 97.2231C42.0735 97.1684 41.6574 97.0621 41.2588 96.9065C41.6855 96.9067 42.1113 96.9469 42.5306 97.0266C43.3056 97.1248 44.3809 97.2613 45.5708 97.3814C46.7607 97.5014 47.8415 97.5833 48.622 97.6379C49.0475 97.6433 49.4715 97.689 49.8883 97.7744Z" fill="#263238"/>
<path d="M51.5478 95.7168C51.1282 95.9224 50.6844 96.0746 50.2269 96.1698C48.0493 96.7421 45.8025 97.0084 43.5514 96.9613C43.0856 96.9765 42.6198 96.9324 42.165 96.8303C42.6248 96.7722 43.0882 96.7485 43.5514 96.7593C44.4084 96.732 45.5874 96.672 46.8865 96.5192C48.1855 96.3663 49.3427 96.148 50.1614 95.9733C50.6162 95.8519 51.0797 95.7661 51.5478 95.7168Z" fill="#263238"/>
<path d="M59.6919 86.5359C59.6809 86.952 59.6241 87.3657 59.5227 87.7695C59.3808 88.5282 59.1625 89.5652 58.8841 90.7006C58.6057 91.8359 58.3383 92.8839 58.0981 93.5935C58.0015 93.9996 57.8587 94.3934 57.6724 94.767C57.7028 94.3521 57.7797 93.942 57.9016 93.5443C58.109 92.6928 58.3437 91.7103 58.6057 90.6351C58.8677 89.5598 59.1188 88.5773 59.3262 87.7258C59.4001 87.316 59.5229 86.9165 59.6919 86.5359Z" fill="#263238"/>
<path d="M35.8333 98.746C34.5706 98.551 33.3243 98.2609 32.1053 97.8782C30.8596 97.5869 29.6373 97.2038 28.4482 96.7319C29.7104 96.9301 30.9564 97.2202 32.1763 97.5998C33.4222 97.89 34.6446 98.2732 35.8333 98.746Z" fill="#263238"/>
<path d="M61.3296 81.9892C61.1237 82.0246 60.9133 82.0246 60.7074 81.9892C60.1373 81.9307 59.5774 81.7967 59.0426 81.5907C58.1497 81.2552 57.3368 80.7366 56.6563 80.0682C55.9757 79.3999 55.4425 78.5965 55.0908 77.7099C54.7021 76.7345 54.5362 75.6846 54.605 74.6368C54.6294 73.7727 54.8878 72.9313 55.3528 72.2024C55.6799 71.7115 56.1684 71.3504 56.7338 71.1817C56.8848 71.1401 57.041 71.1198 57.1977 71.1217C57.3069 71.1217 57.3615 71.1217 57.3615 71.1217C57.3615 71.1217 57.1322 71.1217 56.7665 71.2691C56.2479 71.4607 55.808 71.8199 55.5166 72.2898C54.7742 73.4578 54.5668 75.592 55.3583 77.5843C55.7266 78.5237 56.3033 79.3672 57.0449 80.0515C57.6525 80.6113 58.3524 81.0619 59.1136 81.3833C59.8279 81.6656 60.571 81.8688 61.3296 81.9892Z" fill="#263238"/>
<path d="M74.0524 82.4583C73.9159 80.7845 73.8722 79.1044 73.9214 77.4258C73.8787 75.7485 73.9297 74.0702 74.0743 72.3987C74.2109 74.0707 74.2547 75.7489 74.2053 77.4258C74.2512 79.1048 74.2001 80.7851 74.0524 82.4583Z" fill="#263238"/>
<path d="M54.0319 71.1597C54.0919 69.9425 54.2174 68.567 54.2174 68.567C54.2174 68.567 57.2304 68.2341 57.4106 65.1228C57.5907 62.0116 57.4106 54.8339 57.4106 54.8339L51.9523 52.0393L45.8936 56.8044L46.8269 72.3605L52.3835 72.7153C52.8082 72.7271 53.2203 72.5699 53.5293 72.2783C53.8383 71.9867 54.019 71.5844 54.0319 71.1597Z" fill="#FFBE9D"/>
<path d="M54.5722 62.6613C54.5722 62.6613 54.5722 62.7214 54.5231 62.7923C54.4825 62.8438 54.43 62.8846 54.3701 62.9112C54.3102 62.9379 54.2447 62.9495 54.1792 62.9452C53.8299 62.9452 53.4915 62.5412 53.3714 62.0718C53.3143 61.8443 53.3143 61.6062 53.3714 61.3786C53.3826 61.2793 53.4184 61.1844 53.4756 61.1024C53.5328 61.0204 53.6096 60.954 53.6989 60.9092C53.7723 60.8789 53.8548 60.8789 53.9282 60.9092C53.9826 60.9362 54.0267 60.9803 54.0537 61.0348C54.0919 61.1275 54.0537 61.1876 54.0537 61.1821C54.0537 61.1767 54.0537 61.1276 53.9991 61.073C53.9706 61.0339 53.9286 61.0067 53.8813 60.9966C53.834 60.9865 53.7846 60.9943 53.7426 61.0184C53.6756 61.0589 53.62 61.1156 53.5809 61.1834C53.5417 61.2511 53.5204 61.3277 53.5188 61.4059C53.4728 61.6089 53.4728 61.8197 53.5188 62.0227C53.628 62.4485 53.9227 62.7923 54.1847 62.8251C54.236 62.832 54.2881 62.8283 54.3379 62.8143C54.3876 62.8002 54.434 62.776 54.474 62.7432C54.5395 62.6995 54.5613 62.6559 54.5722 62.6613Z" fill="#EB996E"/>
<path d="M59.2826 53.1528C58.8623 51.7227 57.3395 51.0131 55.9531 50.6201C53.8407 50.0197 51.5591 49.7577 49.4959 50.5164C47.4327 51.2751 44.9546 52.6069 44.9546 54.883C43.7374 54.7848 43.0387 55.8492 42.5584 57.1701C42.2513 57.9748 42.0673 58.8213 42.0126 59.6809C41.8598 62.6611 41.0246 66.7767 39.0924 68.96C38.0007 70.1772 36.4888 71.0178 35.8666 72.5352C35.3207 73.8506 35.6046 75.4117 35.0969 76.7435C34.6439 77.917 33.645 78.7522 32.9136 79.7729C32.1685 80.9308 31.7299 82.2591 31.6392 83.6331C31.5485 85.007 31.8086 86.3815 32.3951 87.6273C32.9858 88.8412 33.8174 89.9221 34.8393 90.8042C35.8612 91.6863 37.052 92.3511 38.3392 92.7581C40.8887 93.5338 43.6076 93.5603 46.1718 92.8345C48.0963 92.3744 49.8915 91.4842 51.4227 90.2309C52.9894 88.9515 54.0655 87.1697 54.4684 85.1875C54.8559 82.9605 54.2337 80.6953 53.7697 78.4792C52.3178 71.4763 52.7327 71.1105 54.5667 64.6097C54.6103 64.4951 54.6322 64.375 54.6649 64.2604C54.6977 64.1458 54.714 64.0912 54.7359 64.0038C54.788 63.7469 54.8154 63.4855 54.8177 63.2233C54.5499 63.3229 54.2591 63.344 53.9797 63.284C53.7002 63.2241 53.4437 63.0856 53.2403 62.8849C53.0364 62.6709 52.8942 62.4056 52.8289 62.1173C52.7635 61.8291 52.7774 61.5284 52.8691 61.2474C52.9979 60.94 53.1898 60.6632 53.4324 60.4347C53.675 60.2062 53.9629 60.0312 54.2774 59.921C54.8832 59.67 55.5328 59.539 56.1277 59.2606C57.3886 58.6602 58.2619 57.4157 58.8569 56.1112C59.346 55.207 59.497 54.1581 59.2826 53.1528Z" fill="#263238"/>
<path d="M54.7905 62.8088C54.9058 62.9792 55.0011 63.1624 55.0743 63.3547C55.2381 63.6985 55.4564 64.1843 55.6966 64.7465L55.7403 64.8502H55.6256L55.0798 64.8994C54.7032 64.8994 54.3866 64.9703 54.0154 64.9649C53.9831 64.9576 53.9532 64.9423 53.9283 64.9203C53.9035 64.8984 53.8847 64.8705 53.8735 64.8393C53.8573 64.7897 53.8573 64.7361 53.8735 64.6865C53.8861 64.6129 53.9025 64.54 53.9226 64.4682L54.0209 64.0806C54.0703 63.8221 54.1471 63.5696 54.2501 63.3274C54.24 63.5909 54.2015 63.8526 54.1355 64.1079L54.0591 64.4954C54.0318 64.6264 53.9827 64.8284 54.0591 64.812C54.332 64.812 54.7195 64.752 55.0798 64.7302L55.6256 64.681L55.5547 64.8011C55.32 64.2553 55.1235 63.7422 55.0088 63.3874C54.9083 63.2062 54.8347 63.0113 54.7905 62.8088Z" fill="#0B622F"/>
<path d="M36.101 108.751L60.3085 108.014L70.843 149.137L68.9053 196.307H56.1056L57.6722 150.141L48.3112 121.513L49.7522 198.136L36.816 198.327L35.4569 126.305C35.3969 124.302 34.7419 119.788 34.9875 117.801L36.101 108.751Z" fill="#263238"/>
<path d="M51.5318 122.097C51.1356 122.122 50.7378 122.098 50.3474 122.026C49.616 121.938 48.6171 121.786 47.52 121.567C46.4229 121.349 45.4404 121.098 44.7308 120.896C44.3515 120.812 43.9846 120.68 43.6392 120.503C43.6392 120.421 45.4186 120.847 47.6019 121.289C49.7852 121.731 51.5428 122.015 51.5318 122.097Z" fill="#455A64"/>
<path d="M68.7748 193.72C68.7748 193.797 65.8764 193.862 62.3013 193.862C58.7261 193.862 55.8223 193.797 55.8223 193.72C55.8223 193.644 58.7206 193.578 62.3013 193.578C65.8819 193.578 68.7748 193.638 68.7748 193.72Z" fill="#455A64"/>
<path d="M49.6378 196.144C49.6378 196.226 46.8214 196.286 43.3499 196.286C39.8784 196.286 37.0674 196.226 37.0674 196.144C37.0674 196.062 39.8839 196.002 43.3499 196.002C46.8159 196.002 49.6378 196.067 49.6378 196.144Z" fill="#455A64"/>
<path d="M47.9674 195.947C47.891 195.947 47.5526 179.207 47.2087 158.558C46.8649 137.909 46.6629 121.158 46.7339 121.158C46.8048 121.158 47.1542 137.893 47.4926 158.552C47.831 179.212 48.0493 195.947 47.9674 195.947Z" fill="#455A64"/>
<path d="M67.0554 193.72C67.0495 193.646 67.0495 193.571 67.0554 193.497V192.842C67.0554 192.252 67.0991 191.406 67.1319 190.331C67.2083 188.148 67.3174 184.976 67.4539 181.09C67.7486 173.274 68.1635 162.499 68.6165 150.605C68.6165 150.491 68.6165 150.382 68.6165 150.283V150.322C65.7509 138.859 63.1582 128.456 61.2751 120.929L59.0918 112.026C58.8407 110.984 58.6497 110.17 58.5132 109.603C58.4477 109.335 58.404 109.128 58.3658 108.97C58.3446 108.899 58.3318 108.825 58.3276 108.751C58.356 108.82 58.3779 108.891 58.3931 108.964C58.4368 109.117 58.4914 109.324 58.5678 109.586C58.7152 110.132 58.928 110.962 59.201 111.999C59.7468 114.106 60.5164 117.141 61.4771 120.88C63.3765 128.401 65.9965 138.777 68.9003 150.256V150.294C68.9003 150.393 68.9003 150.507 68.9003 150.616C68.4146 162.51 67.9724 173.279 67.6504 181.095C67.4812 184.987 67.3393 188.137 67.241 190.331C67.1864 191.423 67.1428 192.252 67.1155 192.842C67.1155 193.12 67.0827 193.338 67.0773 193.497C67.0781 193.572 67.0708 193.647 67.0554 193.72Z" fill="#455A64"/>
<path d="M62.88 149.323C61.9606 149.625 61.0135 149.835 60.0526 149.95C58.8736 150.152 57.8693 150.294 57.4162 150.316V150.207C57.5636 150.25 57.64 150.278 57.64 150.3C57.64 150.321 57.5472 150.3 57.3944 150.3H57.0669L57.3944 150.201C57.8201 150.076 58.8245 149.868 60.0035 149.655C60.949 149.45 61.9125 149.339 62.88 149.323Z" fill="#455A64"/>
<path d="M62.656 150.889C61.8046 150.928 60.9514 150.89 60.107 150.774C59.2543 150.757 58.405 150.664 57.5688 150.496C59.2747 150.357 60.9918 150.489 62.656 150.889Z" fill="#455A64"/>
<path opacity="0.2" d="M35.9976 109.619C36.2843 109.987 36.6454 110.291 37.0573 110.51C37.4692 110.729 37.9228 110.859 38.3883 110.891C39.3632 111.006 40.3494 110.988 41.3194 110.836C47.5691 110.143 54.19 109.504 60.3088 108.014C52.3888 108.456 44.0212 108.309 36.1013 108.751L36.0194 109.428" fill="black"/>
<g opacity="0.2">
<path d="M44.1572 120.781L48.6221 138.106L48.311 121.512L44.1572 120.781Z" fill="black"/>
</g>
</svg>
