<svg width="167" height="150" viewBox="0 0 167 150" fill="none" xmlns="http://www.w3.org/2000/svg">
<path d="M114.479 143.742H118.777L128.647 32.6687H124.349L114.479 143.742Z" fill="#455A64"/>
<path d="M114.479 143.742C114.479 143.742 114.479 143.551 114.521 143.179C114.564 142.808 114.603 142.242 114.663 141.513C114.79 140.045 114.978 137.88 115.222 135.093C115.71 129.507 116.421 121.416 117.298 111.391L124.257 32.6509V32.5696H128.743V32.6686C123.963 86.1146 119.941 131.049 118.805 143.749V143.77H118.781H115.516H114.483L118.781 143.745L118.759 143.767C119.877 131.077 123.843 86.1393 128.559 32.6863L128.651 32.7889H124.349L124.441 32.704C121.682 63.573 119.202 91.3254 117.412 111.366C116.51 121.391 115.781 129.485 115.289 135.068C115.034 137.862 114.84 140.02 114.705 141.506C114.638 142.242 114.585 142.804 114.55 143.183C114.514 143.562 114.479 143.742 114.479 143.742Z" fill="#263238"/>
<path d="M158.345 143.742H162.647L148.316 32.6687H144.018L158.345 143.742Z" fill="#455A64"/>
<path d="M158.346 143.742C158.346 143.742 158.317 143.551 158.264 143.18C158.211 142.808 158.14 142.246 158.045 141.513C157.85 140.045 157.567 137.884 157.203 135.096C156.474 129.51 155.434 121.423 154.118 111.394C151.521 91.3397 147.927 63.5625 143.926 32.6688V32.5662H148.412V32.644C155.275 86.1111 161.045 131.056 162.672 143.724V143.749H162.647H159.382H158.346C158.346 143.749 158.699 143.749 159.407 143.749H162.661L162.637 143.774C160.995 131.109 155.169 86.1678 148.242 32.7112L148.331 32.7926H144.018L144.11 32.6864C148.076 63.5625 151.645 91.3185 154.221 111.362C155.501 121.388 156.538 129.486 157.252 135.064C157.606 137.863 157.882 140.017 158.07 141.506C158.162 142.242 158.229 142.801 158.278 143.183C158.328 143.565 158.346 143.742 158.346 143.742Z" fill="#263238"/>
<path d="M98.8078 84.8801L105.508 1.07813C105.526 0.804139 105.65 0.547865 105.853 0.363155C106.056 0.178444 106.323 0.0796751 106.598 0.0876008L157.422 0.819882C157.571 0.822255 157.717 0.855139 157.852 0.916486C157.987 0.977834 158.109 1.06633 158.208 1.17649C158.308 1.28664 158.383 1.41609 158.431 1.5568C158.478 1.6975 158.496 1.84644 158.483 1.99436L150.934 85.8105C150.913 86.082 150.789 86.3351 150.587 86.5175C150.385 86.6999 150.12 86.7976 149.848 86.7904L99.8691 86.0582C99.7201 86.0563 99.5732 86.0237 99.4375 85.9623C99.3018 85.9009 99.1802 85.8121 99.0806 85.7015C98.9809 85.5908 98.9052 85.4607 98.8582 85.3194C98.8113 85.178 98.7941 85.0285 98.8078 84.8801Z" fill="#E0E0E0"/>
<path d="M98.8076 84.8801C98.8037 84.9402 98.8037 85.0005 98.8076 85.0605C98.8225 85.2371 98.8835 85.4067 98.9845 85.5522C99.0647 85.6732 99.1689 85.7764 99.2906 85.8555C99.4123 85.9346 99.5489 85.9879 99.692 86.0121C100.046 86.044 100.446 86.0121 100.902 86.0404L108.939 86.1395L138.489 86.5463L148.281 86.6843L149.565 86.702C149.772 86.7226 149.98 86.7046 150.181 86.6489C150.372 86.5826 150.539 86.4592 150.658 86.2951C150.78 86.1284 150.849 85.9287 150.856 85.7221L150.913 85.0676C150.952 84.6325 150.991 84.1938 151.033 83.7516C151.189 81.9899 151.349 80.1952 151.514 78.3674C152.169 71.0623 152.869 63.2548 153.605 55.037C154.341 46.8191 155.116 38.198 155.919 29.2585C156.322 24.7776 156.731 20.2318 157.146 15.6211C157.351 13.3146 157.56 10.9904 157.772 8.64853C157.878 7.47759 157.981 6.30311 158.087 5.11094L158.246 3.34214L158.328 2.45421L158.367 2.00847C158.384 1.87231 158.374 1.73415 158.338 1.60165C158.281 1.4053 158.164 1.23165 158.004 1.10484C157.843 0.978033 157.647 0.904377 157.443 0.894127H157.001L155.232 0.869364L151.695 0.816302L144.69 0.713712L131 0.529755L117.787 0.331651L111.38 0.239673L108.228 0.193685L106.668 0.168922C106.426 0.147891 106.185 0.215673 105.99 0.359577C105.795 0.503482 105.658 0.713645 105.607 0.95073C104.284 17.3935 103.092 32.2018 102.091 44.6365C101.089 57.0711 100.272 67.1355 99.7097 74.0904C99.4232 77.5679 99.2038 80.2671 99.0517 82.0996C98.9739 83.0123 98.9173 83.7092 98.8784 84.1832C98.8395 84.6572 98.8112 84.8907 98.8112 84.8907C98.8112 84.8907 98.8112 84.6502 98.8572 84.1832C98.9032 83.7162 98.9456 83.0158 99.0163 82.0996C99.1579 80.2671 99.3701 77.5679 99.639 74.0904L101.96 44.6294C102.95 32.1877 104.132 17.3899 105.441 0.918893C105.499 0.643607 105.656 0.399334 105.883 0.232599C106.108 0.0653825 106.385 -0.0161476 106.665 0.00265488L108.225 0.0238796L111.377 0.06987L117.783 0.161845L131 0.34934L144.694 0.547444L151.695 0.646497L155.232 0.696023L157.001 0.724324H157.45C157.612 0.732018 157.77 0.774237 157.914 0.848139C158.13 0.958027 158.308 1.13236 158.421 1.34713C158.534 1.5619 158.578 1.80655 158.547 2.04738L158.508 2.49312L158.427 3.37752L158.268 5.14631C158.161 6.32551 158.056 7.50471 157.953 8.68391C157.74 11.0258 157.531 13.3512 157.323 15.66C156.908 20.2754 156.499 24.82 156.095 29.2939C155.289 38.2334 154.511 46.8581 153.771 55.0724C153.032 63.2866 152.321 71.0976 151.649 78.4205C151.481 80.2459 151.319 82.0406 151.161 83.8047C151.122 84.2469 151.083 84.6855 151.04 85.1207L150.984 85.7751C150.974 86.0075 150.895 86.2318 150.757 86.419C150.62 86.6071 150.429 86.749 150.209 86.8258C149.993 86.8873 149.767 86.9077 149.544 86.8859L148.263 86.8647L138.471 86.7161L108.918 86.2527L100.93 86.09C100.47 86.09 100.067 86.09 99.7168 86.0546C99.4813 86.0123 99.2665 85.8933 99.1058 85.716C98.9452 85.5387 98.8478 85.3132 98.8289 85.0747C98.8145 85.0108 98.8073 84.9456 98.8076 84.8801Z" fill="#263238"/>
<path d="M100.965 84.4025L107.287 2.24902L156.346 2.98484L149.236 84.9721L100.965 84.4025Z" fill="white"/>
<path d="M100.965 84.4026L149.236 84.9014L149.165 84.9651C151.072 62.9259 153.552 34.2466 156.24 2.97429L156.332 3.07688H155.89L107.298 2.33399L107.383 2.25262C103.629 50.4169 101.036 83.6172 100.976 84.4026C101.036 83.6279 103.558 50.4099 107.213 2.24201V2.16064H107.298L155.918 2.86816H156.361H156.46V2.96722C153.739 34.236 151.245 62.9153 149.328 84.9545V85.0181H149.261L100.965 84.4026Z" fill="#263238"/>
<path d="M144.496 41.1237C144.496 41.1732 137.233 41.2157 128.279 41.2157C119.326 41.2157 112.06 41.1732 112.06 41.1237C112.06 41.0742 119.319 41.0317 128.279 41.0317C137.24 41.0317 144.496 41.0706 144.496 41.1237Z" fill="#263238"/>
<path d="M143.982 44.166C143.982 44.219 136.791 44.2579 127.925 44.2579C119.06 44.2579 111.868 44.219 111.868 44.166C111.868 44.1129 119.057 44.074 127.925 44.074C136.794 44.074 143.982 44.1164 143.982 44.166Z" fill="#263238"/>
<path d="M127.48 47.4665C127.48 47.516 123.984 47.5585 119.676 47.5585C115.367 47.5585 111.868 47.516 111.868 47.4665C111.868 47.417 115.363 47.3816 119.679 47.3816C123.995 47.3816 127.48 47.417 127.48 47.4665Z" fill="#263238"/>
<path d="M122.354 36.8997H113.329C113.135 36.9 112.942 36.8554 112.768 36.7692C112.593 36.6831 112.44 36.5578 112.322 36.4031C112.203 36.2484 112.122 36.0684 112.085 35.8772C112.047 35.686 112.054 35.4888 112.105 35.3008C112.177 35.0313 112.336 34.7932 112.558 34.6236C112.779 34.454 113.051 34.3625 113.329 34.3633H122.354C122.555 34.3637 122.753 34.4118 122.931 34.5035C123.11 34.5952 123.264 34.728 123.382 34.891C123.499 35.0539 123.576 35.2424 123.607 35.441C123.637 35.6395 123.62 35.8424 123.557 36.033C123.473 36.2855 123.311 36.5052 123.095 36.6608C122.879 36.8164 122.62 36.9 122.354 36.8997Z" fill="#EBEBEB"/>
<path d="M142.876 66.3007C142.876 66.3538 135.613 66.3962 126.659 66.3962C117.706 66.3962 110.439 66.3538 110.439 66.3007C110.439 66.2477 117.699 66.2087 126.659 66.2087C135.62 66.2087 142.876 66.2512 142.876 66.3007Z" fill="#263238"/>
<path d="M142.362 69.3464C142.362 69.3959 135.174 69.4384 126.305 69.4384C117.436 69.4384 110.248 69.3959 110.248 69.3464C110.248 69.2968 117.436 69.2544 126.305 69.2544C135.174 69.2544 142.362 69.3145 142.362 69.3464Z" fill="#263238"/>
<path d="M125.859 72.6472C125.859 72.6967 122.364 72.7391 118.056 72.7391C113.747 72.7391 110.248 72.6967 110.248 72.6472C110.248 72.5976 113.743 72.5552 118.056 72.5552C122.368 72.5552 125.859 72.5941 125.859 72.6472Z" fill="#263238"/>
<path d="M120.74 62.0804H111.709C111.513 62.0817 111.319 62.0374 111.143 61.9509C110.966 61.8644 110.813 61.7381 110.694 61.582C110.574 61.4259 110.493 61.2442 110.457 61.0514C110.42 60.8585 110.428 60.6598 110.481 60.4708C110.553 60.2009 110.712 59.9624 110.933 59.7922C111.155 59.622 111.426 59.5298 111.705 59.5298H120.74C120.942 59.5296 121.14 59.5773 121.319 59.6688C121.498 59.7603 121.653 59.893 121.771 60.0561C121.889 60.2191 121.966 60.4078 121.997 60.6066C122.027 60.8054 122.01 61.0086 121.947 61.1995C121.865 61.455 121.704 61.6778 121.487 61.8361C121.27 61.9943 121.009 62.0798 120.74 62.0804Z" fill="#EBEBEB"/>
<path d="M146.987 18.2673C146.987 18.3168 139.724 18.3592 130.77 18.3592C121.817 18.3592 114.55 18.3168 114.55 18.2673C114.55 18.2177 121.809 18.1753 130.77 18.1753C139.731 18.1753 146.987 18.2142 146.987 18.2673Z" fill="#263238"/>
<path d="M146.473 21.3095C146.473 21.3626 139.285 21.4015 130.416 21.4015C121.547 21.4015 114.373 21.3626 114.373 21.3095C114.373 21.2564 121.561 21.2175 130.43 21.2175C139.299 21.2175 146.473 21.26 146.473 21.3095Z" fill="#263238"/>
<path d="M129.97 24.61C129.97 24.6596 126.475 24.702 122.166 24.702C117.858 24.702 114.359 24.6596 114.359 24.61C114.359 24.5605 117.854 24.5181 122.166 24.5181C126.479 24.5181 129.97 24.5605 129.97 24.61Z" fill="#263238"/>
<path opacity="0.3" d="M119.584 86.3484L119.273 89.8612H123.571L123.886 86.3484H119.584Z" fill="black"/>
<path d="M124.844 14.0468H115.82C115.625 14.0466 115.433 14.0014 115.258 13.9149C115.083 13.8283 114.931 13.7027 114.812 13.5477C114.694 13.3928 114.613 13.2126 114.576 13.0213C114.538 12.8299 114.545 12.6325 114.596 12.4443C114.669 12.1754 114.828 11.938 115.05 11.7686C115.271 11.5992 115.541 11.5072 115.82 11.5068H124.844C125.046 11.5067 125.244 11.5543 125.423 11.6458C125.602 11.7373 125.757 11.8701 125.875 12.0331C125.993 12.1961 126.07 12.3848 126.101 12.5836C126.131 12.7824 126.114 12.9857 126.051 13.1766C125.967 13.43 125.805 13.6506 125.588 13.8068C125.372 13.963 125.112 14.047 124.844 14.0468Z" fill="#EBEBEB"/>
<path d="M165.304 16.6047C165.673 16.2861 165.967 15.8895 166.164 15.4434C166.361 14.9974 166.456 14.5132 166.443 14.0258C166.358 13.0565 165.52 12.1367 164.551 12.1827C164.708 11.7301 164.726 11.2407 164.601 10.7779C164.477 10.3152 164.216 9.90067 163.853 9.58817C163.489 9.27567 163.04 9.07968 162.564 9.02569C162.088 8.9717 161.607 9.0622 161.183 9.28542C161.22 9.01933 161.172 8.74825 161.045 8.51158C160.917 8.27491 160.718 8.08499 160.475 7.96944C160.065 7.73596 158.445 7.68643 157.925 8.6062L155.548 16.3288C155.052 16.775 154.65 17.3146 154.365 17.9167C154.079 18.5187 153.915 19.1714 153.882 19.8371C153.849 20.5027 153.948 21.1683 154.173 21.7957C154.398 22.423 154.745 22.9996 155.194 23.4924C154.891 23.8928 154.716 24.3754 154.692 24.8769C154.668 25.3784 154.795 25.8755 155.058 26.3032C155.321 26.7309 155.707 27.0693 156.166 27.2741C156.624 27.4789 157.134 27.5405 157.628 27.451C157.654 27.7906 157.753 28.1206 157.919 28.4183C158.084 28.716 158.312 28.9743 158.587 29.1757C158.862 29.377 159.177 29.5166 159.511 29.5848C159.844 29.653 160.189 29.6482 160.521 29.5709C160.852 29.4935 161.163 29.3453 161.433 29.1364C161.702 28.9276 161.922 28.663 162.08 28.3609C162.237 28.0587 162.327 27.7261 162.344 27.3859C162.361 27.0457 162.304 26.7058 162.177 26.3897C163.291 26.839 164.618 25.997 165.007 24.865C165.396 23.733 165.088 22.463 164.533 21.3981C165.035 21.2734 165.489 21.0039 165.839 20.623C166.189 20.2422 166.42 19.7669 166.502 19.2562C166.584 18.7455 166.515 18.2219 166.302 17.7504C166.089 17.279 165.742 16.8806 165.304 16.6047Z" fill="#263238"/>
<path d="M159.269 9.97144C160.33 10.3995 160.497 11.2945 160.684 12.0445C161.063 13.6541 160.359 15.9358 159.379 17.2907C158.399 18.6456 157.384 19.2718 155.731 19.4133C155.849 16.9016 155.967 14.3911 156.085 11.8817L159.269 9.97144Z" fill="#0B622F"/>
<path d="M159.587 14.33C159.98 13.8609 160.195 13.2685 160.195 12.6567C160.195 12.0449 159.98 11.4526 159.587 10.9835C160.104 10.4174 159.998 9.48352 159.555 8.86091C159.063 8.26951 158.444 7.79671 157.744 7.47771C157.577 6.59524 157.079 5.81017 156.351 5.28382C155.624 4.75747 154.722 4.52981 153.832 4.64763C153.018 3.2326 151.097 2.91068 149.519 3.25736C149.14 3.36802 148.747 3.42517 148.352 3.42717C148.065 3.38727 147.782 3.32818 147.503 3.25029C145.943 2.9319 144.319 3.93304 143.59 5.37284C143.492 5.60798 143.364 5.82921 143.208 6.03083C142.96 6.25432 142.684 6.44567 142.387 6.60039C142.088 6.80412 141.836 7.06962 141.648 7.37901C141.46 7.68841 141.341 8.03449 141.298 8.39395C141.231 9.00241 141.383 9.66394 141.086 10.2017C140.937 10.474 140.689 10.6828 140.569 10.9658C140.215 11.783 141.093 12.7063 140.859 13.5694C140.813 13.7428 140.721 13.902 140.661 14.0753C140.535 14.429 140.543 14.8164 140.682 15.1649C140.828 15.4118 140.926 15.6844 140.969 15.9679C140.94 16.1843 140.883 16.396 140.799 16.5976C140.658 17.1106 141.645 19.1942 142.073 19.5091L155.515 20.5456C156.032 20.4666 156.511 20.2285 156.885 19.8645C157.26 19.5006 157.512 19.0288 157.606 18.515C157.614 18.3419 157.669 18.1742 157.765 18.0303C157.878 17.9338 158.009 17.8616 158.151 17.8181C159.046 17.4113 159.233 16.2297 159.212 15.2463C159.201 15.1085 159.213 14.9697 159.248 14.8359C159.326 14.6465 159.442 14.4746 159.587 14.33Z" fill="#263238"/>
<path d="M155.735 14.0894C155.809 12.7954 155.533 11.5053 154.937 10.3544C154.341 9.20359 153.446 8.23437 152.346 7.54841C151.302 6.9723 150.153 6.61142 148.968 6.48713C147.875 6.30837 146.754 6.46502 145.752 6.93641C144.998 7.06022 142.112 9.3632 141.786 12.0518C141.432 15.0375 141.104 18.6989 141.33 20.9559C141.786 25.4982 145.2 26.2623 145.2 26.2623L144.369 33.6912L150.63 39.599L153.814 31.1406L155.735 14.0894Z" fill="#FFBF9D"/>
<path d="M142.816 15.7555C142.806 15.9061 142.855 16.0545 142.953 16.1694C143.05 16.2844 143.189 16.3567 143.339 16.3711C143.412 16.381 143.486 16.3762 143.557 16.3571C143.628 16.338 143.695 16.3049 143.753 16.2597C143.811 16.2146 143.859 16.1583 143.895 16.0942C143.931 16.0301 143.954 15.9595 143.962 15.8864C143.972 15.7364 143.923 15.5885 143.826 15.4736C143.729 15.3588 143.591 15.2861 143.442 15.2709C143.369 15.2605 143.294 15.2649 143.223 15.2837C143.152 15.3026 143.085 15.3356 143.026 15.3808C142.968 15.426 142.919 15.4825 142.883 15.5468C142.847 15.6112 142.824 15.6822 142.816 15.7555Z" fill="#263238"/>
<path d="M142.72 13.8346C142.787 13.9124 143.244 13.6152 143.863 13.6506C144.482 13.686 144.924 14.0256 144.995 13.9548C145.066 13.8841 144.963 13.7815 144.776 13.6258C144.519 13.417 144.204 13.2934 143.873 13.2721C143.552 13.2544 143.232 13.3386 142.961 13.5126C142.759 13.6647 142.688 13.7992 142.72 13.8346Z" fill="#263238"/>
<path d="M146.07 18.9428C145.749 18.8231 145.414 18.7435 145.073 18.7058C144.917 18.6775 144.769 18.6386 144.747 18.5289C144.743 18.3648 144.789 18.2032 144.878 18.0655L145.42 16.8839C146.17 15.2036 146.721 13.8168 146.654 13.7885C146.587 13.7602 145.922 15.0974 145.172 16.7778C144.992 17.1952 144.818 17.5879 144.652 17.9664C144.541 18.1526 144.5 18.3718 144.535 18.5855C144.555 18.6426 144.588 18.6945 144.631 18.7373C144.674 18.7802 144.726 18.8129 144.783 18.8331C144.869 18.8614 144.958 18.878 145.048 18.8827C145.385 18.9465 145.729 18.9667 146.07 18.9428Z" fill="#263238"/>
<path d="M145.2 26.2622C147.322 26.4185 149.447 25.9838 151.337 25.0063C151.337 25.0063 149.569 28.0841 145.072 27.4048L145.2 26.2622Z" fill="#FF9A6C"/>
<path d="M143.272 11.3758C143.368 11.5315 143.849 11.4572 144.401 11.535C144.953 11.6128 145.405 11.7862 145.536 11.6588C145.593 11.5952 145.536 11.443 145.359 11.2803C145.104 11.0809 144.797 10.9583 144.475 10.9266C144.154 10.8817 143.827 10.9308 143.534 11.0681C143.315 11.1636 143.23 11.298 143.272 11.3758Z" fill="#263238"/>
<path d="M149.65 16.5161C149.637 16.6663 149.565 16.8053 149.451 16.9037C149.337 17.002 149.189 17.0521 149.038 17.0432C148.964 17.0419 148.892 17.0258 148.824 16.9959C148.757 16.9661 148.696 16.923 148.645 16.8693C148.594 16.8156 148.555 16.7524 148.529 16.6832C148.503 16.614 148.491 16.5404 148.494 16.4666C148.507 16.3164 148.579 16.1774 148.693 16.079C148.807 15.9807 148.955 15.9306 149.106 15.9395C149.179 15.9408 149.252 15.9569 149.32 15.9868C149.387 16.0166 149.448 16.0597 149.499 16.1134C149.55 16.1671 149.589 16.2303 149.615 16.2995C149.641 16.3687 149.653 16.4423 149.65 16.5161Z" fill="#263238"/>
<path d="M151.2 14.567C151.122 14.6342 150.715 14.2698 150.096 14.2132C149.477 14.1566 148.996 14.4219 148.936 14.3406C148.876 14.2592 148.992 14.1743 149.201 14.0505C149.487 13.8889 149.816 13.8209 150.142 13.8559C150.464 13.8858 150.769 14.0171 151.012 14.2309C151.186 14.3936 151.239 14.5351 151.2 14.567Z" fill="#263238"/>
<path d="M151.366 12.1331C151.231 12.2639 150.768 12.0729 150.195 12.0092C149.622 11.9456 149.134 12.0092 149.027 11.8465C148.985 11.7687 149.073 11.6378 149.3 11.5246C149.606 11.3873 149.944 11.3382 150.276 11.3831C150.608 11.4186 150.923 11.5474 151.185 11.7545C151.373 11.9208 151.426 12.0694 151.366 12.1331Z" fill="#263238"/>
<path d="M154.766 18.3099C154.787 17.9738 155.219 17.2062 155.551 17.1743C156.443 17.0859 158.028 17.2486 157.918 19.495C157.762 22.5621 154.713 21.7732 154.713 21.6848C154.713 21.5963 154.695 19.4667 154.766 18.3099Z" fill="#FFBF9D"/>
<path d="M155.615 20.6054C155.615 20.6054 155.668 20.6479 155.756 20.6938C155.881 20.7524 156.024 20.7625 156.156 20.7222C156.485 20.6196 156.786 20.1172 156.828 19.5654C156.848 19.3031 156.81 19.0396 156.715 18.7942C156.692 18.6969 156.645 18.6067 156.579 18.5315C156.513 18.4563 156.43 18.3983 156.336 18.3626C156.275 18.3433 156.21 18.3458 156.15 18.3696C156.091 18.3935 156.042 18.4373 156.011 18.4935C155.969 18.5748 155.983 18.6385 155.969 18.642C155.954 18.6456 155.905 18.589 155.937 18.4616C155.956 18.3869 156.001 18.3216 156.064 18.2777C156.152 18.2179 156.26 18.1951 156.365 18.214C156.491 18.2456 156.606 18.3096 156.7 18.3996C156.794 18.4895 156.862 18.6024 156.899 18.7269C157.016 19 157.065 19.2975 157.04 19.5937C156.991 20.2092 156.644 20.7717 156.195 20.8778C156.111 20.8981 156.024 20.8991 155.94 20.8807C155.856 20.8623 155.778 20.825 155.71 20.7717C155.618 20.6797 155.604 20.6125 155.615 20.6054Z" fill="#FF9A6C"/>
<path d="M141.104 12.0517C141.414 11.9163 141.679 11.6947 141.867 11.4131C142.055 11.1316 142.158 10.8019 142.165 10.4634C142.572 10.6119 143.017 10.1096 143.279 9.75585C143.541 9.40209 143.842 9.25351 143.849 8.82192C143.84 8.73783 143.856 8.65306 143.895 8.57783C143.962 8.46109 144.11 8.43279 144.248 8.40095C144.582 8.31412 144.888 8.14534 145.14 7.90994C145.391 7.67454 145.58 7.38 145.688 7.05313C146.331 7.38236 147.046 7.54418 147.768 7.52363C147.914 7.76648 148.12 7.96811 148.365 8.10948C148.611 8.25084 148.888 8.32725 149.172 8.3315C149.455 8.33575 149.735 8.26769 149.984 8.13376C150.234 7.99983 150.445 7.80444 150.598 7.56608C150.691 7.75842 150.824 7.92866 150.988 8.06534C151.153 8.20203 151.344 8.30198 151.55 8.3585C151.964 8.46598 152.392 8.51363 152.82 8.5C152.718 8.91085 152.767 9.34453 152.958 9.7223C153.149 10.1001 153.469 10.3969 153.86 10.5589C153.966 10.6013 154.094 10.6402 154.136 10.7464C154.15 10.8068 154.152 10.8695 154.14 10.9304C154.128 10.9913 154.104 11.0492 154.069 11.1001C154.001 11.2731 153.968 11.4581 153.973 11.644C153.977 11.8299 154.019 12.0129 154.096 12.1822C154.173 12.3515 154.283 12.5037 154.42 12.6295C154.557 12.7554 154.718 12.8524 154.893 12.9149C154.771 13.012 154.672 13.1354 154.604 13.276C154.536 13.4166 154.501 13.5707 154.501 13.7268C154.501 13.8829 154.536 14.037 154.604 14.1776C154.672 14.3182 154.771 14.4416 154.893 14.5387C154.999 14.613 155.141 14.7014 155.116 14.8288C155.103 14.8769 155.077 14.9208 155.042 14.9561C154.77 15.2263 154.582 15.569 154.5 15.9431C154.465 16.1303 154.504 16.3238 154.608 16.4833C154.712 16.6428 154.874 16.756 155.059 16.7992C154.947 16.8718 154.851 16.9668 154.778 17.0782C154.704 17.1896 154.654 17.315 154.631 17.4466C154.61 17.7119 154.865 18.002 155.119 17.9171C155.699 17.8369 156.274 17.7259 156.842 17.5845C157.78 16.4596 156.764 15.1082 156.764 13.626C156.731 12.1556 156.36 10.7126 155.678 9.40916C155.414 8.85238 155.076 8.33361 154.674 7.86677C154.19 7.35884 153.648 6.9089 153.061 6.52603C152.34 5.96079 151.532 5.51634 150.669 5.21004C149.038 4.72539 147.284 5.21004 145.717 5.84681C145.105 6.06333 144.525 6.36205 143.994 6.73474C143.388 7.22836 142.876 7.82762 142.483 8.50354C141.843 9.42745 141.402 10.4743 141.188 11.5777" fill="#263238"/>
<path d="M140.565 10.9446C140.61 10.8284 140.672 10.7198 140.749 10.6227C140.82 10.5271 140.919 10.4139 141.015 10.2689C141.123 10.0985 141.193 9.90656 141.22 9.70642C141.253 9.45432 141.263 9.19981 141.252 8.94584C141.237 8.64068 141.263 8.33495 141.33 8.03668C141.418 7.69472 141.576 7.3745 141.793 7.09568C141.911 6.94769 142.046 6.81464 142.196 6.69947C142.355 6.57531 142.523 6.4641 142.699 6.36693C142.882 6.27007 143.048 6.14335 143.19 5.99195C143.322 5.82025 143.432 5.63241 143.516 5.43301C143.719 5.00774 143.994 4.62108 144.329 4.29037C144.688 3.9337 145.11 3.64803 145.575 3.44842C145.816 3.34274 146.069 3.26443 146.328 3.21494C146.595 3.16531 146.868 3.15104 147.138 3.17249C147.276 3.18243 147.413 3.20134 147.549 3.22909C147.687 3.25739 147.821 3.29631 147.952 3.32814C148.219 3.39938 148.499 3.41622 148.773 3.37767C149.052 3.33876 149.325 3.25739 149.615 3.20079C149.904 3.14279 150.197 3.10965 150.492 3.10174C150.792 3.09124 151.093 3.10543 151.39 3.14419C151.694 3.18954 151.992 3.26297 152.282 3.36352C152.879 3.57238 153.396 3.96031 153.764 4.47432L153.867 4.63352L153.821 4.61229C154.724 4.49453 155.637 4.72695 156.374 5.26183C157.111 5.7967 157.615 6.59342 157.783 7.48835L157.762 7.45651C158.121 7.64532 158.469 7.85682 158.802 8.08974C159.129 8.31494 159.411 8.5993 159.633 8.92815C159.847 9.25002 159.97 9.62433 159.987 10.0107C160.004 10.3831 159.878 10.748 159.633 11.0295V10.9446C160.018 11.3961 160.233 11.9679 160.242 12.5613C160.264 13.0924 160.122 13.6176 159.835 14.0647C159.767 14.1676 159.693 14.2657 159.612 14.3584C159.531 14.4404 159.455 14.5278 159.385 14.6201C159.318 14.7052 159.274 14.8065 159.258 14.9138C159.247 15.0196 159.247 15.1263 159.258 15.2321C159.268 15.6216 159.234 16.0108 159.156 16.3925C159.095 16.7026 158.975 16.9982 158.802 17.2627C158.672 17.4555 158.498 17.6154 158.296 17.7297C158.133 17.8252 157.988 17.857 157.907 17.9101C157.866 17.9354 157.827 17.9637 157.79 17.995C157.821 17.9562 157.86 17.9238 157.903 17.8995C157.985 17.8429 158.126 17.8075 158.285 17.7085C158.482 17.593 158.649 17.4331 158.773 17.2415C158.946 16.9819 159.066 16.6911 159.127 16.3854C159.2 16.0055 159.23 15.6187 159.216 15.2321C159.207 15.1226 159.207 15.0126 159.216 14.9031C159.233 14.7875 159.28 14.6781 159.35 14.5848C159.421 14.4892 159.502 14.4043 159.58 14.3159C159.658 14.2262 159.73 14.1317 159.796 14.0329C160.071 13.5942 160.208 13.0825 160.188 12.5648C160.177 11.9871 159.965 11.4315 159.587 10.9941L159.566 10.9693L159.587 10.9446C159.819 10.6782 159.939 10.3317 159.92 9.97881C159.908 9.60898 159.795 9.24939 159.594 8.93876C159.377 8.62067 159.102 8.34593 158.784 8.12866C158.453 7.89858 158.108 7.68945 157.751 7.5025H157.73V7.48128C157.566 6.61017 157.074 5.83493 156.357 5.3146C155.639 4.79427 154.749 4.5683 153.87 4.68304H153.842V4.65474L153.739 4.50262C153.383 4.00816 152.881 3.63719 152.303 3.44135C152.021 3.34208 151.729 3.26983 151.433 3.22555C151.14 3.18741 150.844 3.17203 150.549 3.17957C150.259 3.18903 149.97 3.22215 149.685 3.27862C149.402 3.33168 149.123 3.41658 148.84 3.45196C148.696 3.47489 148.55 3.48201 148.405 3.47318C148.264 3.46054 148.124 3.43688 147.987 3.40243C147.849 3.36706 147.718 3.33168 147.584 3.30338C147.452 3.27562 147.319 3.25671 147.184 3.24678C146.921 3.22601 146.656 3.23909 146.395 3.28569C146.143 3.33483 145.896 3.41073 145.66 3.5121C144.773 3.89609 144.054 4.58518 143.633 5.45424C143.539 5.65911 143.42 5.8516 143.279 6.02732C143.131 6.18211 142.959 6.31228 142.769 6.41292C142.595 6.50655 142.428 6.61421 142.271 6.73484C141.852 7.07136 141.553 7.53417 141.418 8.05437C141.349 8.34747 141.321 8.64857 141.333 8.94938C141.342 9.20601 141.327 9.46289 141.291 9.71703C141.259 9.91975 141.185 10.1137 141.075 10.2866C140.976 10.4352 140.873 10.5448 140.799 10.6403C140.742 10.7098 140.691 10.7844 140.647 10.8632C140.58 10.9163 140.569 10.9446 140.565 10.9446Z" fill="#455A64"/>
<path d="M152.431 3.86928C152.431 3.86928 152.353 3.81621 152.208 3.73485C152.003 3.62 151.781 3.53991 151.55 3.49783C151.21 3.43658 150.859 3.4671 150.535 3.58627C150.137 3.73514 149.798 4.00646 149.565 4.361C149.494 4.4721 149.436 4.59076 149.392 4.71476C149.368 4.76573 149.356 4.82127 149.356 4.87749C149.356 4.93371 149.368 4.98925 149.392 5.04022L149.459 5.14989L149.339 5.10743C149.025 4.99991 148.682 5.02025 148.384 5.16404C148.146 5.27828 147.952 5.46546 147.828 5.69821C147.747 5.85331 147.697 6.02271 147.68 6.19701C147.683 6.26064 147.683 6.32442 147.68 6.38804C147.68 6.38804 147.68 6.38804 147.68 6.33852C147.677 6.29021 147.677 6.24179 147.68 6.19348C147.685 6.01275 147.73 5.83538 147.811 5.67345C147.93 5.42179 148.131 5.2175 148.38 5.09328C148.697 4.93584 149.063 4.91039 149.399 5.02253L149.346 5.08975C149.315 5.02687 149.3 4.95794 149.3 4.8881C149.3 4.81827 149.315 4.74934 149.346 4.68646C149.392 4.56188 149.453 4.44314 149.526 4.3327C149.758 3.96463 150.1 3.67875 150.503 3.51552C150.786 3.41574 151.088 3.38172 151.387 3.41605C151.685 3.45037 151.972 3.55213 152.225 3.71362C152.28 3.7487 152.332 3.78772 152.381 3.83036C152.417 3.86928 152.431 3.86928 152.431 3.86928Z" fill="#455A64"/>
<path d="M157.192 7.70044C157.16 7.74054 157.122 7.77518 157.079 7.80303C156.969 7.88817 156.851 7.96167 156.725 8.02236C156.531 8.11664 156.319 8.16621 156.103 8.1674C155.827 8.17338 155.559 8.07481 155.353 7.89147H155.424L155.324 8.01175L155.215 8.12495C154.989 8.33216 154.716 8.48041 154.419 8.55654C154.179 8.61932 153.929 8.63494 153.683 8.60253C153.518 8.58073 153.357 8.53422 153.205 8.46456C153.15 8.43906 153.098 8.40699 153.05 8.36905C153.255 8.45243 153.47 8.50948 153.69 8.53885C153.928 8.55975 154.168 8.53697 154.398 8.47164C154.679 8.3968 154.937 8.25475 155.151 8.05774L155.257 7.94807L155.349 7.83487L155.381 7.79596L155.416 7.83133C155.606 7.99788 155.85 8.08967 156.103 8.08958C156.308 8.09231 156.512 8.05131 156.701 7.9693C157.015 7.82779 157.182 7.68629 157.192 7.70044Z" fill="#455A64"/>
<path d="M158.643 10.6401C158.643 10.6401 158.643 10.6613 158.643 10.6967C158.624 10.7484 158.597 10.7972 158.565 10.8417C158.436 11.0015 158.252 11.1074 158.048 11.1389C157.751 11.1743 157.45 11.1227 157.182 10.9903C157.02 10.9261 156.862 10.8529 156.708 10.771C156.53 10.6856 156.389 10.5403 156.308 10.3606L156.29 10.3111L156.361 10.3359C156.074 10.5462 155.757 10.7119 155.42 10.8276C155.14 10.9192 154.84 10.9314 154.553 10.863C154.36 10.8184 154.182 10.7246 154.037 10.5906C153.997 10.5557 153.962 10.5152 153.934 10.4703C153.913 10.442 153.902 10.4243 153.906 10.4208C153.909 10.4172 153.959 10.4774 154.062 10.5658C154.209 10.6827 154.383 10.7628 154.567 10.7993C154.843 10.8557 155.129 10.8374 155.395 10.7462C155.723 10.6284 156.031 10.464 156.312 10.258L156.361 10.2227L156.382 10.2863V10.3288C156.457 10.4829 156.582 10.6074 156.736 10.6825C156.885 10.7674 157.047 10.8347 157.196 10.9019C157.45 11.0315 157.736 11.0879 158.02 11.0646C158.212 11.0399 158.388 10.9484 158.519 10.8064C158.563 10.7534 158.605 10.6978 158.643 10.6401Z" fill="#455A64"/>
<path d="M148.267 19.4558C147.553 19.6138 146.862 19.8623 146.211 20.1952C146.158 20.5065 146.675 21.1998 146.965 21.3272C147.127 21.3865 147.302 21.4072 147.473 21.3875C147.645 21.3679 147.81 21.3085 147.955 21.214C148.209 21.0023 148.376 20.7054 148.426 20.3791C148.445 20.0632 148.39 19.7472 148.267 19.4558Z" fill="#FF9A6C"/>
<path d="M147.054 21.3662C147.288 21.3603 147.52 21.3161 147.74 21.2353C147.967 21.1352 148.157 20.9655 148.281 20.7506C148.427 20.485 148.466 20.1738 148.391 19.8804C148.357 19.7434 148.298 19.6139 148.218 19.4983L148.317 19.5301C147.686 19.7726 147.036 19.9642 146.375 20.1032C146.982 19.8056 147.613 19.5572 148.26 19.3603L148.32 19.3391L148.363 19.3922C148.46 19.5247 148.531 19.6749 148.571 19.8344C148.657 20.1737 148.606 20.5332 148.43 20.8355C148.281 21.076 148.055 21.2592 147.79 21.3555C147.675 21.41 147.55 21.4392 147.423 21.441C147.296 21.4428 147.17 21.4173 147.054 21.3662Z" fill="#263238"/>
<path d="M156.333 21.865C156.333 22.0596 156.275 22.2497 156.167 22.4114C156.059 22.5731 155.905 22.6992 155.726 22.7736C155.546 22.8481 155.348 22.8675 155.157 22.8296C154.967 22.7917 154.791 22.698 154.654 22.5604C154.516 22.4229 154.423 22.2477 154.385 22.0569C154.347 21.8661 154.366 21.6684 154.441 21.4887C154.515 21.309 154.641 21.1554 154.803 21.0473C154.965 20.9393 155.155 20.8816 155.349 20.8816C155.61 20.8825 155.859 20.9864 156.044 21.1707C156.228 21.3549 156.332 21.6045 156.333 21.865Z" fill="#455A64"/>
<path d="M113.344 44.3675C113.344 44.3675 110.287 43.0338 109.396 42.4643C108.695 41.98 107.886 41.674 107.04 41.5728C106.042 41.3924 103.4 41.1058 102.759 41.5728C102.119 42.0397 99.2217 43.2142 99.2217 43.2142L103.049 45.2979C103.049 45.2979 103.676 47.8838 104.433 48.1279C105.19 48.372 105.059 48.2836 105.869 48.1279C106.679 47.9723 109.343 46.6917 109.406 46.7447C109.47 46.7978 112.219 48.2765 112.219 48.2765L113.344 44.3675Z" fill="#FFBF9D"/>
<path d="M101.733 44.0102H92.6596L92.2209 43.7095C92.2048 43.6981 92.1917 43.6829 92.1827 43.6654C92.1737 43.6479 92.1689 43.6284 92.1689 43.6087C92.1689 43.589 92.1737 43.5695 92.1827 43.552C92.1917 43.5344 92.2048 43.5193 92.2209 43.5079L92.656 43.239H101.73L101.733 44.0102Z" fill="#263238"/>
<path d="M97.1806 43.4903C97.1806 43.4903 97.6122 42.9738 98.4577 43.4903C98.9461 43.7768 99.4185 44.0897 99.8727 44.4278C100.068 44.3803 100.26 44.3225 100.449 44.2544L101.652 44.8275L101.783 45.535C101.783 45.535 100.248 46.0515 99.7595 45.7933C98.8776 45.2413 98.0486 44.6089 97.2832 43.9042C97.0922 43.607 97.1806 43.4903 97.1806 43.4903Z" fill="#FFBF9D"/>
<path d="M104.868 46.4478L104.309 46.094L104.511 45.3193C104.511 45.3193 105.685 45.1601 105.816 44.5162C105.947 43.8724 105.816 43.883 105.816 43.883L104.295 44.1412L105.002 43.554C105.002 43.554 106.276 43.3948 106.177 42.6519L105.933 42.2982C105.373 42.4018 104.822 42.5484 104.284 42.7368C103.643 43.0905 103.021 43.4778 102.42 43.8971L103.566 42.8076C103.876 42.698 104.161 42.5285 104.405 42.3088C104.45 42.2613 104.485 42.2042 104.506 42.1416C104.527 42.079 104.533 42.0126 104.525 41.9471C104.517 41.8816 104.494 41.8188 104.459 41.7633C104.423 41.7077 104.376 41.6608 104.32 41.626C104.238 41.5726 104.141 41.5478 104.044 41.5553C103.626 41.5787 103.214 41.667 102.823 41.817C102.335 42.047 100.871 43.1224 100.655 43.6814C100.439 44.2403 100.471 44.4384 100.814 44.7922C101.18 45.1086 101.579 45.386 102.003 45.62C102.17 45.9373 102.413 46.2083 102.71 46.4088C102.71 46.4088 102.954 47.4878 104.429 48.1175" fill="#FFBF9D"/>
<path d="M104.436 48.1175C104.382 48.1043 104.328 48.0854 104.277 48.0609C104.127 47.9956 103.982 47.92 103.842 47.8345C103.614 47.6966 103.406 47.5289 103.223 47.3357C102.968 47.0782 102.776 46.7644 102.664 46.4195L102.692 46.4549C102.374 46.2602 102.115 45.981 101.946 45.6483L101.971 45.6731C101.723 45.5351 101.468 45.383 101.214 45.2061C100.927 45.0342 100.685 44.798 100.506 44.5163C100.428 44.3448 100.418 44.1501 100.478 43.9715C100.517 43.7912 100.586 43.6188 100.683 43.4621C100.907 43.1634 101.169 42.8947 101.461 42.6626C101.757 42.4087 102.068 42.1725 102.392 41.9551C102.562 41.8383 102.745 41.741 102.936 41.665C103.133 41.5964 103.336 41.5466 103.541 41.5164L103.853 41.4704C103.97 41.4532 104.089 41.4532 104.206 41.4704C104.33 41.5 104.44 41.5722 104.516 41.6743C104.593 41.7764 104.631 41.9021 104.624 42.0293C104.62 42.1624 104.566 42.289 104.472 42.3831C104.391 42.4627 104.302 42.5339 104.206 42.5954C104.019 42.7204 103.817 42.8225 103.605 42.8996L103.637 42.8784L103.17 43.3241L102.491 43.9679L102.374 43.8264C102.947 43.4408 103.503 43.0659 104.083 42.7439C104.378 42.6001 104.689 42.4921 105.01 42.422C105.318 42.3442 105.623 42.277 105.922 42.2204H105.979L106.011 42.2664L106.255 42.6201V42.6378C106.273 42.8002 106.231 42.9636 106.138 43.0977C106.045 43.2216 105.924 43.3212 105.784 43.3878C105.536 43.5137 105.268 43.5962 104.992 43.6319L105.034 43.6142L104.327 44.1979L104.27 44.0705L105.406 43.883L105.671 43.8406H105.735H105.767H105.816C105.829 43.8374 105.842 43.8374 105.855 43.8406C105.954 43.9113 105.926 43.9609 105.94 44.0104C105.944 44.182 105.925 44.3533 105.883 44.5198C105.848 44.6838 105.76 44.8317 105.632 44.9408C105.518 45.0354 105.39 45.1129 105.254 45.1707C105.02 45.2703 104.773 45.3381 104.521 45.3724L104.557 45.3441C104.472 45.6483 104.401 45.903 104.344 46.1117V46.0834L104.762 46.3629C104.808 46.3909 104.851 46.4242 104.889 46.4619C104.839 46.4413 104.79 46.4165 104.744 46.3877L104.316 46.1294H104.298C104.348 45.9172 104.412 45.6589 104.482 45.3511V45.3228H104.511C104.755 45.282 104.992 45.2107 105.218 45.1106C105.351 45.0645 105.47 44.9875 105.567 44.886C105.663 44.7844 105.734 44.6613 105.774 44.5269C105.808 44.3714 105.824 44.2121 105.82 44.0528C105.822 44.0364 105.822 44.0198 105.82 44.0033C105.82 43.9821 105.82 44.0033 105.82 43.9573C105.82 43.9113 105.82 44.0139 105.82 44.0033H105.784H105.721L105.455 44.0493L104.327 44.251L104.058 44.2969L104.267 44.1201L104.974 43.5293H104.999C105.254 43.4931 105.502 43.4142 105.731 43.2958C105.843 43.2477 105.937 43.166 106.001 43.0621C106.064 42.9581 106.093 42.8371 106.085 42.7156L106.103 42.751L105.855 42.3973L105.94 42.4326C105.646 42.4928 105.342 42.56 105.038 42.6378C104.731 42.7053 104.434 42.8098 104.153 42.9491C103.591 43.2604 103.032 43.639 102.466 44.0104L102.349 43.8654L103.028 43.2215L103.495 42.7758H103.517C103.713 42.7022 103.9 42.6073 104.076 42.4928C104.161 42.437 104.24 42.373 104.313 42.3017C104.375 42.2439 104.412 42.1638 104.415 42.0789C104.421 41.9936 104.396 41.9091 104.345 41.8408C104.294 41.7725 104.219 41.7252 104.136 41.7074C104.043 41.6936 103.949 41.6936 103.856 41.7074L103.556 41.7463C103.36 41.7776 103.167 41.8249 102.979 41.8878C102.799 41.9576 102.628 42.0478 102.47 42.1567C102.159 42.3491 101.859 42.5581 101.571 42.7829C101.29 43.0038 101.038 43.2593 100.821 43.5434C100.734 43.6846 100.669 43.8386 100.63 43.9998C100.575 44.1432 100.575 44.3021 100.63 44.4455C100.797 44.7045 101.019 44.9231 101.281 45.0858C101.529 45.2627 101.78 45.4184 102.02 45.5563H102.038C102.193 45.8706 102.43 46.1371 102.724 46.3275H102.745V46.3523C102.848 46.682 103.023 46.9843 103.258 47.2367C103.432 47.4293 103.629 47.5993 103.846 47.7426C104.228 48.0185 104.444 48.0892 104.436 48.1175Z" fill="#FF9A6C"/>
<path d="M105.374 46.4937C105.432 46.2774 105.532 46.0744 105.667 45.8959C106.253 44.9872 107.09 44.2683 108.076 43.8264C108.273 43.7198 108.488 43.6514 108.709 43.6248C107.351 44.2503 106.195 45.2442 105.374 46.4937Z" fill="#FF9A6C"/>
<path d="M104.401 44.0811C104.401 44.1129 104.227 44.1412 103.976 44.2509C103.654 44.406 103.39 44.6617 103.226 44.9796C103.066 45.3085 102.942 45.6536 102.855 46.0091C102.777 46.2814 102.72 46.4548 102.696 46.4477C102.674 46.2915 102.685 46.1325 102.727 45.9808C102.783 45.6003 102.903 45.2319 103.081 44.8912C103.26 44.5372 103.568 44.265 103.941 44.1306C104.086 44.0693 104.246 44.0521 104.401 44.0811Z" fill="#FF9A6C"/>
<path d="M102.469 43.844C102.3 44.0909 102.166 44.3599 102.07 44.6435C101.935 45.1211 101.971 45.535 101.918 45.542C101.783 45.2421 101.773 44.9013 101.889 44.594C101.953 44.3662 102.075 44.159 102.243 43.9926C102.353 43.8758 102.459 43.844 102.469 43.844Z" fill="#FF9A6C"/>
<path d="M148.653 139.041V139.472C148.653 139.472 141.358 142.486 141.291 143.876L155.838 143.661L155.569 138.825C154.499 139.354 153.327 139.648 152.134 139.685C150.941 139.722 149.754 139.502 148.653 139.041Z" fill="#263238"/>
<path d="M155.837 143.661L155.774 142.5L141.857 143.13C141.857 143.13 141.213 143.42 141.291 143.877L155.837 143.661Z" fill="#455A64"/>
<path d="M148.621 139.515C148.621 139.585 148.975 139.614 149.328 139.837C149.682 140.059 149.873 140.353 149.937 140.325C150 140.296 149.891 139.89 149.459 139.617C149.028 139.345 148.589 139.451 148.621 139.515Z" fill="white"/>
<path d="M147.089 140.169C147.089 140.236 147.382 140.353 147.627 140.65C147.871 140.947 147.949 141.262 148.019 141.259C148.09 141.255 148.129 140.852 147.814 140.491C147.499 140.13 147.089 140.102 147.089 140.169Z" fill="white"/>
<path d="M146.247 142.005C146.31 142.005 146.406 141.651 146.219 141.28C146.031 140.908 145.695 140.742 145.667 140.802C145.638 140.862 145.847 141.068 145.996 141.386C146.144 141.704 146.176 142.002 146.247 142.005Z" fill="white"/>
<path d="M159.053 134.654L152.866 136.387L154.412 139.9L152.809 148.787C152.763 149.032 152.81 149.287 152.941 149.5C153.072 149.713 153.277 149.87 153.517 149.94C153.704 149.996 153.903 149.997 154.091 149.944C154.279 149.891 154.448 149.785 154.578 149.639C155.944 148.108 160.946 142.444 160.825 141.754L160.627 139.904C160.585 139.522 160.213 138.609 160.213 138.528L159.053 134.654Z" fill="#263238"/>
<path d="M153.683 149.972L160.73 141.128L160.769 141.531C160.793 141.697 160.78 141.867 160.731 142.027C160.681 142.187 160.596 142.335 160.482 142.458C159.927 143.35 158.36 145.377 154.571 149.657C154.461 149.78 154.322 149.875 154.168 149.933C154.013 149.992 153.847 150.012 153.683 149.993V149.972Z" fill="#455A64"/>
<path d="M155.54 145.599C155.276 145.323 154.961 145.098 154.613 144.938C154.241 144.831 153.853 144.795 153.467 144.832C153.467 144.807 153.573 144.722 153.8 144.669C154.098 144.609 154.406 144.634 154.691 144.74C154.972 144.845 155.218 145.027 155.399 145.267C155.537 145.451 155.565 145.592 155.54 145.599Z" fill="white"/>
<path d="M154.96 146.944C154.666 146.814 154.363 146.702 154.055 146.611C153.734 146.581 153.411 146.57 153.089 146.579C153.053 146.533 153.51 146.286 154.097 146.406C154.684 146.526 155.01 146.912 154.96 146.944Z" fill="white"/>
<path d="M156.69 143.845C156.647 143.894 156.124 143.459 155.328 143.243C154.532 143.028 153.853 143.109 153.846 143.045C154.345 142.866 154.892 142.866 155.392 143.045C156.241 143.275 156.736 143.813 156.69 143.845Z" fill="white"/>
<path d="M154.334 138.69C154.394 139.086 154.417 139.486 154.405 139.886C154.327 140.399 154.221 141.057 154.093 141.772C153.948 142.617 153.803 143.381 153.69 143.933C153.646 144.235 153.571 144.531 153.467 144.818C153.469 144.512 153.499 144.208 153.559 143.908C153.641 143.353 153.764 142.585 153.913 141.74C154.037 141.032 154.161 140.371 154.267 139.861C154.255 139.47 154.278 139.078 154.334 138.69Z" fill="#455A64"/>
<path d="M163.146 81.4806C163.634 79.1246 163.917 76.857 163.429 74.8971C162.301 70.3513 160.245 67.6734 157.546 61.9036L156.863 62.0628L136.473 61.9036L135.677 63.1276C133.908 67.8503 132.726 70.6662 132.231 74.1189C131.662 78.0987 132.659 83.8579 134.87 89.6843C139.642 102.243 142.299 112.286 142.487 114.989C142.674 117.691 142.961 120.49 145.469 129.058C147.298 135.309 148.653 139.048 148.653 139.048C150.552 140.109 152.572 140.41 154.405 139.37L160.008 137.205C160.008 137.205 158.289 122.457 156.287 118.544C154.843 115.714 152.484 114.391 153.584 110.719C154.684 107.047 161.646 88.7114 163.146 81.4806Z" fill="#263238"/>
<path d="M140.555 69.573C140.584 69.6017 140.609 69.6338 140.629 69.6685L140.845 69.9657L141.662 71.126C142.37 72.1554 143.41 73.6448 144.722 75.5303V75.5515C144.574 77.2 144.517 79.1139 144.418 81.2435C144.319 83.3731 144.202 85.7221 144.082 88.2409C143.962 90.7596 143.81 93.4517 143.665 96.2712C143.52 99.0907 143.35 102.045 143.07 105.076C142.773 107.602 142.515 110.082 142.717 112.466C142.766 113.06 142.846 113.65 142.957 114.235C143.053 114.806 143.193 115.369 143.375 115.919C143.774 116.98 144.238 118.024 144.676 119.032C146.445 123.065 148.126 126.666 149.516 129.698C150.906 132.73 152.042 135.167 152.824 136.865L153.719 138.818C153.818 139.034 153.895 139.203 153.949 139.327C154.002 139.451 154.019 139.501 154.019 139.501C154.019 139.501 153.987 139.448 153.931 139.334C153.874 139.221 153.789 139.048 153.687 138.832L152.781 136.883C151.982 135.188 150.835 132.751 149.417 129.737C147.998 126.723 146.332 123.118 144.542 119.089C144.096 118.077 143.636 117.051 143.226 115.961C143.041 115.405 142.9 114.835 142.802 114.256C142.689 113.671 142.606 113.081 142.554 112.488C142.335 110.082 142.596 107.584 142.89 105.059C143.173 102.037 143.318 99.08 143.488 96.2641C143.658 93.4482 143.789 90.749 143.926 88.2303C144.064 85.7115 144.174 83.3661 144.28 81.2364C144.386 79.1068 144.461 77.193 144.634 75.5409V75.5763L141.616 71.1472L140.838 69.9834L140.637 69.6791C140.606 69.6468 140.578 69.6112 140.555 69.573Z" fill="#455A64"/>
<path d="M161.151 33.5002C161.151 33.5002 164.08 34.2785 164.169 38.138C164.247 41.5483 165.839 51.1387 165.881 54.602C165.923 58.0653 165.527 60.6725 161.144 61.4118C157.607 62.0062 153.85 54.0466 153.85 54.0466L157.465 50.9193L155.962 44.6649C155.962 44.6649 154.964 42.5176 157.331 38.0001C159.697 33.4826 161.151 33.5002 161.151 33.5002Z" fill="#0B622F"/>
<path d="M144.857 27.5711L143.163 29.8069L137.775 30.9672C137.775 30.9672 133.809 39.4008 133.997 43.2816C134.053 45.2277 134.254 47.1669 134.598 49.0832L134.563 53.5229C134.563 53.5229 132.893 57.2161 133.636 58.8293C134.379 60.4424 136.466 61.907 136.466 61.907L156.018 62.1511C156.018 62.1511 157.408 62.9506 158.141 60.8599C158.873 58.7691 157.716 43.4903 157.716 43.4903L161.526 33.6699L155.36 30.3057L154.232 27.3306L146.852 29.2196L144.857 27.5711Z" fill="#0B622F"/>
<path d="M158.879 51.8568L158.066 50.6611L153.853 52.483L154.249 53.8485C154.249 53.8485 155.685 55.4652 157.104 54.9098C158.522 54.3544 158.77 52.7872 158.77 52.7872L158.879 51.8568Z" fill="#FFBF9D"/>
<path d="M155.233 48.6587C155.233 48.6587 155.82 47.8875 156.259 47.7142C156.467 47.6303 156.679 47.5571 156.895 47.4949C156.861 47.3961 156.851 47.2907 156.866 47.1872C156.88 47.0838 156.919 46.9852 156.978 46.8994C157.038 46.8136 157.117 46.7431 157.209 46.6935C157.301 46.6439 157.403 46.6167 157.507 46.614C157.674 46.7571 157.877 46.8503 158.095 46.8829C158.156 46.8728 158.218 46.875 158.279 46.8894C158.339 46.9038 158.396 46.93 158.446 46.9665C158.496 47.0031 158.538 47.0492 158.57 47.1023C158.602 47.1553 158.623 47.2142 158.632 47.2755C158.703 47.5939 158.901 48.4712 158.632 48.8887C158.363 49.3061 157.872 49.72 158.095 50.845C158.095 50.845 157.801 52.0902 157.164 52.4086C156.874 52.5822 156.546 52.683 156.209 52.7022C156.209 52.7022 155.625 53.4097 155.148 53.3107C154.67 53.2116 154.44 53.1904 154.44 53.1904C154.44 53.1904 154.051 53.7953 153.195 53.3213C153.055 53.4147 152.894 53.4697 152.726 53.4809C152.558 53.4921 152.391 53.459 152.24 53.385C152.013 53.2611 150.896 52.1397 150.846 51.2836C150.796 50.4275 150.846 49.8403 151.044 49.5148C151.355 49.0443 151.812 49.4724 151.812 49.4724C151.86 49.0669 152.007 48.6794 152.24 48.3439C152.558 48.0255 152.802 48.075 152.802 48.075C152.802 48.075 152.707 47.0951 153.464 47.0138C154.221 46.9324 154.147 47.8451 154.171 48.3333L154.196 48.8215C154.196 48.8215 154.486 48.121 155.233 48.6587Z" fill="#FFBF9D"/>
<path d="M155.232 48.6587C155.232 48.6587 155.133 48.595 154.942 48.5243C154.827 48.4881 154.704 48.4881 154.588 48.5243C154.508 48.5559 154.436 48.6036 154.375 48.6645C154.314 48.7253 154.266 48.798 154.235 48.878L154.171 49.0195V48.8639C154.171 48.6551 154.139 48.4252 154.132 48.1563C154.14 47.883 154.092 47.611 153.991 47.3568C153.953 47.2943 153.903 47.24 153.844 47.1974C153.785 47.1548 153.718 47.1248 153.646 47.1092C153.575 47.0937 153.501 47.0928 153.43 47.1068C153.358 47.1208 153.29 47.1493 153.23 47.1906C153.094 47.2945 152.99 47.4334 152.928 47.5924C152.865 47.7514 152.847 47.9243 152.876 48.0927V48.1705H152.788C152.654 48.1862 152.527 48.2349 152.417 48.3121C152.307 48.3893 152.218 48.4926 152.158 48.6127C152.022 48.8964 151.932 49.1996 151.889 49.5112L151.868 49.6527L151.758 49.5572C151.606 49.4263 151.376 49.3414 151.224 49.4653C151.067 49.6235 150.971 49.8332 150.955 50.056C150.921 50.3009 150.907 50.5482 150.913 50.7954C150.908 51.0471 150.93 51.2986 150.98 51.5454C151.154 52.0448 151.436 52.5 151.804 52.879C151.893 52.9781 151.988 53.0771 152.087 53.1691C152.186 53.2611 152.19 53.2576 152.243 53.2965C152.292 53.3326 152.347 53.3601 152.406 53.3778C152.529 53.4143 152.659 53.4234 152.786 53.4045C152.913 53.3855 153.034 53.339 153.142 53.2682L153.191 53.2363L153.237 53.2611C153.464 53.4044 153.737 53.4562 154.001 53.4061C154.142 53.3634 154.265 53.2781 154.355 53.162L154.394 53.109H154.443L154.953 53.1974C155.031 53.1974 155.126 53.2293 155.197 53.2363C155.267 53.2419 155.338 53.2335 155.406 53.2116C155.696 53.0894 155.951 52.8974 156.149 52.6526L156.177 52.6208H156.223C156.457 52.6033 156.686 52.5434 156.898 52.4439C157.122 52.3721 157.319 52.2354 157.464 52.0512C157.733 51.6842 157.924 51.2666 158.027 50.8237V50.8591C157.905 50.3611 157.972 49.8356 158.214 49.3839C158.331 49.1716 158.494 48.9912 158.6 48.8143C158.689 48.6244 158.726 48.4148 158.71 48.2059C158.703 47.9992 158.681 47.7934 158.643 47.5903C158.629 47.4035 158.571 47.2227 158.473 47.0632C158.415 47.005 158.339 46.9688 158.257 46.9606C158.176 46.943 158.076 46.9606 157.974 46.9288C157.788 46.8815 157.614 46.7946 157.464 46.6741H157.507C157.405 46.6742 157.305 46.6994 157.216 46.7476C157.126 46.7957 157.05 46.8653 156.994 46.95C156.913 47.1146 156.893 47.3027 156.937 47.4807V47.5267H156.891L156.449 47.6752C156.324 47.71 156.205 47.7637 156.095 47.8344C155.917 47.9553 155.752 48.0953 155.604 48.2519C155.48 48.3792 155.391 48.4783 155.331 48.5455C155.302 48.5811 155.27 48.6143 155.236 48.6445C155.236 48.6445 155.236 48.6021 155.31 48.5278C155.384 48.4535 155.448 48.3509 155.568 48.2165C155.714 48.0511 155.876 47.9017 156.053 47.7708C156.173 47.6944 156.303 47.6348 156.439 47.5939L156.888 47.4347L156.852 47.4948C156.795 47.2912 156.813 47.0734 156.906 46.8828C156.968 46.7787 157.055 46.6919 157.16 46.6301C157.264 46.5683 157.382 46.5336 157.503 46.5291H157.528H157.549C157.678 46.6372 157.827 46.7178 157.988 46.7661C158.126 46.7979 158.391 46.7661 158.554 46.9323C158.629 47.0148 158.681 47.1164 158.703 47.226C158.724 47.325 158.749 47.4241 158.766 47.5267C158.809 47.7366 158.835 47.9495 158.844 48.1634C158.863 48.3991 158.821 48.6356 158.72 48.8497C158.597 49.0584 158.448 49.2247 158.338 49.4263C158.119 49.8453 158.063 50.3302 158.179 50.7883V50.8237C158.071 51.2928 157.87 51.7355 157.588 52.1255C157.507 52.226 157.412 52.3142 157.305 52.3873C157.193 52.4555 157.074 52.5136 156.952 52.5606C156.714 52.6716 156.457 52.7364 156.194 52.7517L156.269 52.7198C156.051 52.9923 155.767 53.2042 155.445 53.3354C155.352 53.3655 155.255 53.3764 155.158 53.3672C155.059 53.3672 154.988 53.3425 154.903 53.3283L154.404 53.2434L154.493 53.201C154.378 53.358 154.214 53.4715 154.026 53.5229C153.716 53.5871 153.393 53.5301 153.124 53.3637H153.223C153.092 53.4517 152.943 53.5095 152.787 53.5327C152.631 53.556 152.472 53.5442 152.321 53.4981C152.245 53.4735 152.174 53.4378 152.109 53.392C152.048 53.346 151.995 53.3 151.942 53.2505C151.889 53.201 151.737 53.0488 151.645 52.9462C151.257 52.544 150.964 52.0607 150.786 51.5312C150.734 51.2691 150.712 51.0022 150.718 50.7352C150.71 50.4797 150.726 50.2239 150.764 49.9711C150.782 49.7011 150.902 49.448 151.1 49.2636C151.157 49.2205 151.223 49.1911 151.293 49.1776C151.363 49.1641 151.435 49.1669 151.504 49.1858C151.636 49.2146 151.758 49.2781 151.857 49.3697L151.727 49.4157C151.772 49.0858 151.871 48.7656 152.02 48.4677C152.099 48.3259 152.211 48.2047 152.346 48.1139C152.478 48.0111 152.642 47.9585 152.809 47.9653L152.728 48.0431C152.712 47.8461 152.735 47.6478 152.795 47.4594C152.853 47.273 152.98 47.1153 153.149 47.0172C153.31 46.9319 153.496 46.9033 153.676 46.9359C153.762 46.9514 153.843 46.9875 153.912 47.0411C153.981 47.0947 154.036 47.1642 154.072 47.2436C154.177 47.514 154.224 47.8031 154.21 48.0927C154.21 48.3474 154.21 48.5809 154.231 48.8002H154.157C154.196 48.7142 154.253 48.637 154.323 48.5732C154.392 48.5094 154.474 48.4603 154.564 48.4287C154.698 48.3958 154.839 48.4069 154.967 48.4606C155.065 48.513 155.154 48.5798 155.232 48.6587Z" fill="#FF9A6C"/>
<path d="M157.818 48.4429C157.818 48.4677 157.726 48.4854 157.592 48.4429C157.412 48.3964 157.25 48.2965 157.128 48.1564C157.007 48.0174 156.932 47.8445 156.913 47.6611C156.913 47.5196 156.93 47.4382 156.952 47.4382C156.973 47.4382 157.026 47.7602 157.27 48.0361C157.514 48.312 157.818 48.4005 157.818 48.4429Z" fill="#FF9A6C"/>
<path d="M156.708 50.9193C156.655 50.9405 156.435 50.3675 156.032 49.7378C155.629 49.1081 155.194 48.6765 155.229 48.6411C155.632 48.8821 155.963 49.2265 156.188 49.6387C156.463 50.0166 156.642 50.4563 156.708 50.9193Z" fill="#FF9A6C"/>
<path d="M154.203 48.6445C154.232 48.6445 154.203 48.8815 154.267 49.2353C154.395 49.6962 154.592 50.135 154.851 50.5371C154.989 50.7719 155.108 51.0181 155.204 51.273C155.272 51.4828 155.326 51.6967 155.367 51.9133C155.415 52.1008 155.526 52.2659 155.682 52.3802C155.682 52.3802 155.615 52.3802 155.519 52.3307C155.39 52.2385 155.295 52.1069 155.247 51.9557C155.176 51.7682 155.141 51.556 155.045 51.3331C154.942 51.09 154.824 50.8537 154.691 50.6256C154.42 50.2078 154.232 49.7419 154.136 49.253C154.09 49.0484 154.113 48.834 154.203 48.6445Z" fill="#FF9A6C"/>
<path d="M153.8 51.9805C153.612 51.8785 153.445 51.7417 153.308 51.5772C153.143 51.4077 153.008 51.21 152.912 50.9935C152.812 50.7234 152.755 50.4393 152.742 50.1516C152.646 49.4358 152.668 48.7091 152.809 48.0007C152.862 48.0007 152.809 48.963 152.926 50.1233C152.936 50.3931 152.985 50.66 153.071 50.9157C153.153 51.1196 153.266 51.3095 153.407 51.4782C153.648 51.7895 153.821 51.9805 153.8 51.9805Z" fill="#FF9A6C"/>
<path d="M152.438 52.2105C152.413 52.2105 152.336 52.069 152.141 51.8567C152.023 51.734 151.914 51.6027 151.816 51.4641C151.692 51.2824 151.619 51.0712 151.603 50.8521C151.597 50.4737 151.636 50.096 151.72 49.7271C151.729 49.573 151.752 49.4202 151.791 49.2708C151.815 49.2708 151.861 49.4476 151.847 49.7377C151.806 50.1018 151.786 50.468 151.787 50.8344C151.839 51.1875 151.998 51.516 152.244 51.7754C152.417 52.0159 152.463 52.2034 152.438 52.2105Z" fill="#FF9A6C"/>
<path d="M164.045 55.0088C163.889 54.7503 163.701 54.5126 163.486 54.3013C163.241 54.078 162.964 53.892 162.665 53.7494C162.294 53.5812 161.911 53.4416 161.519 53.332C161.101 53.2046 160.695 53.0844 160.337 52.9358C160.018 52.8077 159.718 52.6363 159.446 52.4264C159.261 52.2858 159.099 52.1175 158.965 51.9276C158.873 51.7931 158.841 51.7047 158.852 51.7012C159.053 51.9319 159.278 52.1406 159.524 52.3238C159.798 52.5079 160.092 52.6599 160.401 52.7766C160.755 52.9146 161.151 53.0278 161.572 53.1551C161.974 53.2683 162.366 53.4162 162.743 53.5973C163.052 53.7531 163.334 53.9573 163.578 54.2022C163.742 54.3677 163.876 54.5604 163.974 54.7718C164.041 54.9133 164.055 55.0053 164.045 55.0088Z" fill="#263238"/>
<path d="M111.985 43.2675C112.198 43.2887 115.254 44.3642 115.254 44.3642C116.025 44.1219 116.847 44.0901 117.635 44.2722C118.771 44.6012 124.537 45.8995 124.537 45.8995L131.966 36.302C131.966 36.302 134.948 31.2821 137.785 30.9744L135.528 45.1247C135.528 45.1247 129.497 53.0949 126.589 54.0925C123.681 55.0901 113.461 51.3155 113.199 49.8934L109.789 47.7709L111.985 43.2675Z" fill="#0B622F"/>
<path d="M160.245 61.5639C160.116 61.5347 159.99 61.4908 159.87 61.433C159.537 61.2862 159.215 61.1135 158.908 60.9165C157.916 60.2328 157.037 59.3972 156.304 58.4402C155.866 57.8954 155.477 57.3541 155.13 56.8589C154.807 56.4387 154.523 55.9899 154.281 55.5181C154.12 55.1785 154.08 54.794 154.168 54.4286C154.194 54.3313 154.235 54.2384 154.288 54.1526C154.327 54.096 154.352 54.0713 154.355 54.0748C154.31 54.1905 154.271 54.3086 154.238 54.4286C154.183 54.7765 154.239 55.133 154.398 55.4474C154.654 55.9134 154.948 56.3572 155.278 56.774C155.632 57.2622 156.021 57.7999 156.46 58.3411C157.183 59.2819 158.036 60.1156 158.993 60.8174C159.729 61.3269 160.263 61.532 160.245 61.5639Z" fill="#263238"/>
<path d="M156.704 41.7673C156.757 41.7673 156.736 42.8711 156.793 44.2436C156.849 45.6162 156.963 46.6952 156.909 46.7023C156.828 46.4744 156.778 46.2363 156.761 45.9948C156.701 45.5526 156.637 44.9335 156.609 44.2543C156.58 43.575 156.591 42.9524 156.609 42.5067C156.606 42.257 156.638 42.0081 156.704 41.7673Z" fill="#263238"/>
<path d="M161.112 33.9176C160.751 33.9812 160.395 34.0759 160.051 34.2006C159.252 34.5761 158.573 35.1665 158.091 35.9058C157.584 36.6332 157.197 37.4369 156.945 38.2866C156.75 38.9375 156.707 39.3478 156.672 39.3478C156.657 39.2482 156.657 39.1468 156.672 39.0471C156.679 38.9283 156.694 38.8101 156.718 38.6934C156.741 38.5396 156.773 38.3872 156.814 38.237C157.035 37.3591 157.414 36.5285 157.932 35.7855C158.217 35.3746 158.556 35.0035 158.94 34.6818C159.256 34.4173 159.615 34.2091 160.001 34.0662C160.086 34.0344 160.16 34.0025 160.238 33.9813L160.454 33.9353C160.569 33.906 160.688 33.8917 160.808 33.8929C160.91 33.8823 161.013 33.8907 161.112 33.9176Z" fill="#263238"/>
<path d="M136.989 33.9175C136.989 33.9175 136.989 33.9741 136.932 34.0731L136.731 34.5012C136.639 34.6816 136.533 34.908 136.419 35.1769C136.306 35.4457 136.161 35.7393 136.034 36.0825C135.718 36.8767 135.443 37.6867 135.21 38.5093C134.936 39.5192 134.722 40.5446 134.569 41.5799C134.429 42.6179 134.352 43.6634 134.339 44.7107C134.336 45.5648 134.377 46.4185 134.463 47.2683C134.491 47.6221 134.545 47.9759 134.583 48.2483C134.622 48.5207 134.658 48.7824 134.697 48.9841C134.736 49.1857 134.75 49.3378 134.771 49.451C134.779 49.505 134.779 49.5598 134.771 49.6138C134.771 49.6138 134.746 49.5607 134.721 49.4581L134.612 48.9982C134.562 48.7966 134.513 48.5525 134.467 48.2624C134.421 47.9723 134.357 47.6504 134.322 47.2825C134.214 46.4282 134.158 45.5682 134.155 44.7071C134.149 42.5947 134.445 40.4923 135.033 38.4633C135.273 37.6366 135.562 36.8251 135.899 36.033C136.037 35.6792 136.186 35.3962 136.313 35.1309C136.441 34.8656 136.55 34.6462 136.667 34.4658L136.901 34.0554C136.925 34.0062 136.954 33.9599 136.989 33.9175Z" fill="#263238"/>
<path d="M155.36 30.3129C155.36 30.3129 155.314 30.3447 155.218 30.3907L154.794 30.5817C154.422 30.7409 153.881 30.9567 153.198 31.2043C151.404 31.8488 149.572 32.3817 147.712 32.7998L147.623 32.821L147.602 32.729C147.56 32.5592 147.517 32.3753 147.464 32.1949C147.202 31.2362 146.884 30.3305 146.686 29.4603L146.838 29.4957C146.067 30.4367 145.37 31.2645 144.747 31.9189L144.698 31.9685L144.652 31.9189C144.415 31.6473 144.199 31.3575 144.008 31.0522C143.842 30.794 143.693 30.5711 143.566 30.3765C143.318 30.0228 143.155 29.8282 143.162 29.8176C143.169 29.807 143.215 29.853 143.297 29.9379C143.412 30.0642 143.521 30.1965 143.622 30.3341C143.757 30.5145 143.912 30.7374 144.096 30.9921C144.291 31.2868 144.509 31.5659 144.747 31.8269H144.652C145.253 31.176 145.939 30.3305 146.703 29.386L146.813 29.248L146.856 29.4214C147.057 30.2775 147.376 31.1902 147.641 32.1453C147.694 32.3293 147.74 32.4991 147.779 32.6901L147.669 32.6194C149.524 32.204 151.355 31.6915 153.156 31.0841C153.842 30.8541 154.391 30.656 154.769 30.5145C154.962 30.4353 155.159 30.368 155.36 30.3129Z" fill="#263238"/>
<path d="M144.549 62.9223C144.521 62.9113 144.493 62.8971 144.468 62.8799C144.391 62.8393 144.317 62.7945 144.245 62.7455C143.973 62.5488 143.74 62.3028 143.559 62.0203C143.276 61.568 143.081 61.0663 142.986 60.5415C142.851 59.853 142.787 59.1524 142.795 58.4508C142.795 55.3554 142.749 51.0714 143.081 46.3487C143.251 43.9892 143.516 41.7499 143.867 39.7264C144.17 37.9345 144.581 36.1625 145.098 34.42C145.565 32.8117 146.156 31.2421 146.866 29.7256C146.862 29.7548 146.853 29.7833 146.842 29.8105L146.753 30.0546C146.665 30.281 146.541 30.5923 146.399 30.985C146.258 31.3776 146.07 31.8871 145.869 32.4672C145.667 33.0474 145.466 33.716 145.243 34.4589C144.748 36.2043 144.352 37.9758 144.054 39.7653C143.7 41.7817 143.456 44.0104 143.286 46.3735C142.954 51.0856 142.975 55.3661 142.933 58.4614C142.922 59.1549 142.976 59.8478 143.095 60.5309C143.185 61.0459 143.366 61.5408 143.63 61.992C143.865 62.3651 144.179 62.6825 144.549 62.9223Z" fill="#263238"/>
<path d="M150.053 56.2573C149.884 56.2597 149.714 56.2443 149.548 56.2113C149.222 56.1689 148.752 56.091 148.178 55.9778C146.679 55.6797 145.203 55.2766 143.76 54.7715C142.318 54.2668 140.914 53.6603 139.557 52.9567C139.037 52.6843 138.623 52.4544 138.344 52.2846C138.194 52.205 138.052 52.1115 137.919 52.0051C138.079 52.0629 138.233 52.1351 138.379 52.2209C138.669 52.373 139.087 52.5747 139.617 52.84C142.352 54.1764 145.233 55.1869 148.203 55.8505C148.776 55.9778 149.236 56.0769 149.558 56.1406C149.726 56.1648 149.892 56.2038 150.053 56.2573Z" fill="#263238"/>
<g opacity="0.3">
<path d="M164.943 54.0254C164.867 53.7201 164.716 53.4385 164.504 53.2057C164.293 52.973 164.026 52.7964 163.73 52.6917C163.133 52.4907 162.5 52.4172 161.873 52.4759C161.141 52.5155 160.408 52.5001 159.679 52.4299C160.298 52.9217 161.381 53.1375 162.223 53.4912C162.712 53.6599 163.165 53.9205 163.556 54.2589C163.696 54.4182 163.846 54.5683 164.006 54.7081C164.086 54.7773 164.182 54.8261 164.286 54.8507C164.389 54.8753 164.497 54.875 164.6 54.8496C164.743 54.7726 164.855 54.6486 164.918 54.4985C164.98 54.3484 164.989 54.1813 164.943 54.0254Z" fill="black"/>
</g>
<g opacity="0.3">
<path d="M135.259 38.0422C134.17 39.1991 133.481 40.6745 133.292 42.252C133.147 43.8415 133.511 45.436 134.332 46.8048V46.7483C133.955 43.8137 134.273 40.8316 135.259 38.0422Z" fill="black"/>
</g>
<path d="M30.2643 78.9792C29.0651 73.3509 21.8944 58.5213 20.0053 55.6665H6.2087C5.39489 55.6656 4.6027 55.9285 3.95089 56.4158C3.29907 56.903 2.82274 57.5884 2.59328 58.3692C1.85392 60.9021 1.07919 64.0294 1.40111 65.4444C1.58153 66.2333 4.50004 74.9216 6.16625 80.0228C6.96095 82.458 7.51546 84.9652 7.82184 87.5084L9.64371 102.536L35.9422 101.959C35.9422 101.959 31.1629 83.1996 30.2643 78.9792Z" fill="#455A64"/>
<path d="M31.6367 78.9792C30.4339 73.3509 28.2618 65.9149 27.4446 62.5825C26.6876 59.4906 25.3044 58.0508 22.92 56.4165C22.2061 55.9284 21.3616 55.667 20.4968 55.6665H7.24496C6.59599 55.6657 5.96152 55.8584 5.42271 56.2202C4.88391 56.5819 4.46526 57.0961 4.22031 57.6971C3.15903 60.2866 2.41614 63.9303 2.76636 65.4515C2.94324 66.2404 5.86529 74.9287 7.52796 80.0299C8.32387 82.465 8.87956 84.9721 9.18709 87.5154L11.0196 102.543L37.3181 101.967C37.3181 101.967 32.5352 83.1996 31.6367 78.9792Z" fill="#263238"/>
<path d="M40.6291 111.14H38.0962V139.037H40.6291V111.14Z" fill="#E0E0E0"/>
<path d="M41.687 116.867H36.936V136.957H41.687V116.867Z" fill="#E0E0E0"/>
<path d="M12.4987 106.633C12.4987 106.633 27.8766 111.554 38.967 111.554C50.0573 111.554 62.8811 106.633 62.8811 106.633H11.8018" fill="#E0E0E0"/>
<path d="M9.41699 99.8726V103.729C9.41699 104.155 9.50099 104.577 9.66419 104.971C9.8274 105.365 10.0666 105.723 10.3682 106.025C10.6697 106.326 11.0277 106.566 11.4217 106.729C11.8157 106.892 12.238 106.976 12.6645 106.976H60.7051C61.1318 106.977 61.5545 106.893 61.9489 106.73C62.3433 106.567 62.7017 106.328 63.0037 106.026C63.3056 105.725 63.5451 105.366 63.7086 104.972C63.872 104.578 63.9561 104.155 63.9561 103.729C63.9562 102.873 63.6189 102.053 63.0175 101.445C62.4161 100.837 61.5991 100.49 60.744 100.481L9.41699 99.8726Z" fill="#263238"/>
<path d="M15.0947 137.52C15.0947 137.52 25.2122 127.915 39.5501 128.127C53.888 128.34 63.6341 137.52 63.6341 137.52L62.219 139.104C62.219 139.104 50.7855 132.56 38.6976 133.09C26.6096 133.621 16.301 139.104 16.301 139.104L15.0947 137.52Z" fill="#263238"/>
<path d="M18.0735 138.818C20.5074 142.002 16.892 145.631 13.694 143.194C11.2601 139.996 14.872 136.38 18.0735 138.818Z" fill="#455A64"/>
<path d="M42.2954 140.838C42.2954 141.429 42.1201 142.007 41.7916 142.499C41.4632 142.99 40.9963 143.373 40.4501 143.6C39.9039 143.826 39.3029 143.885 38.723 143.77C38.1431 143.654 37.6105 143.37 37.1924 142.952C36.7744 142.534 36.4897 142.001 36.3743 141.421C36.259 140.841 36.3182 140.24 36.5444 139.694C36.7707 139.148 37.1538 138.681 37.6454 138.352C38.137 138.024 38.7149 137.849 39.3062 137.849C40.099 137.849 40.8593 138.164 41.4199 138.724C41.9805 139.285 42.2954 140.045 42.2954 140.838Z" fill="#455A64"/>
<path d="M67.3843 140.838C67.3843 141.429 67.209 142.007 66.8805 142.499C66.5521 142.99 66.0852 143.373 65.539 143.6C64.9928 143.826 64.3917 143.885 63.8119 143.77C63.232 143.654 62.6994 143.37 62.2813 142.952C61.8632 142.534 61.5785 142.001 61.4632 141.421C61.3479 140.841 61.4071 140.24 61.6333 139.694C61.8596 139.148 62.2427 138.681 62.7343 138.352C63.2259 138.024 63.8038 137.849 64.395 137.849C64.7877 137.848 65.1766 137.925 65.5395 138.075C65.9024 138.225 66.2321 138.445 66.5098 138.723C66.7875 139.001 67.0076 139.331 67.1577 139.693C67.3078 140.056 67.3848 140.445 67.3843 140.838Z" fill="#455A64"/>
<path d="M30.0907 84.8342L30.4197 86.2492H60.6803C60.9698 86.249 61.2498 86.1462 61.4707 85.959C61.6915 85.7718 61.8389 85.5124 61.8866 85.2269C61.9295 84.9612 61.8833 84.6888 61.7554 84.4521C61.6274 84.2154 61.4248 84.0276 61.1791 83.9179C59.2582 83.0406 53.9659 81.1268 44.5241 81.2365C31.1378 81.3921 30.0801 83.5005 30.0801 83.5005L30.0907 84.8342Z" fill="#263238"/>
<path d="M51.7019 85.0889C51.6418 85.5488 46.6396 102.543 46.6396 102.543H41.4429L46.438 85.0889H51.7019Z" fill="#263238"/>
<path d="M61.2007 86.2632C61.2007 86.3128 54.3943 86.3517 45.989 86.3517C37.5837 86.3517 30.7773 86.3128 30.7773 86.2632C30.7773 86.2137 37.5837 86.1748 45.989 86.1748C54.3943 86.1748 61.2007 86.2137 61.2007 86.2632Z" fill="#455A64"/>
<path d="M61.9613 106.976C61.9245 106.997 61.8853 107.013 61.8446 107.025L61.4908 107.153L60.1324 107.62C58.9579 108.034 57.2387 108.578 55.0949 109.194C54.0336 109.48 52.845 109.824 51.5573 110.096C50.9134 110.234 50.259 110.411 49.5727 110.531L47.4501 110.92C44.2927 111.429 41.0961 111.654 37.8986 111.592C37.0496 111.571 36.2077 111.561 35.3799 111.483L34.1488 111.391L33.5438 111.345L32.9425 111.274L30.597 110.984L28.3613 110.63C27.6325 110.521 26.9462 110.368 26.2387 110.227L24.2506 109.817C22.977 109.509 21.7743 109.24 20.713 108.964L17.8086 108.186C16.9561 107.952 16.2238 107.729 15.6259 107.556L14.2533 107.146L13.8996 107.032C13.8581 107.023 13.8177 107.008 13.7793 106.99L13.9031 107.018L14.2569 107.11L15.6436 107.489L17.8298 108.094L20.7377 108.844C21.8203 109.113 23.0089 109.374 24.2753 109.675L26.2635 110.078C26.9462 110.216 27.6467 110.365 28.386 110.471L30.6183 110.825L32.9566 111.108L33.5545 111.178L34.1629 111.221L35.3905 111.313C36.2112 111.391 37.0496 111.401 37.8986 111.419C41.0885 111.482 44.2777 111.263 47.4289 110.765L49.5515 110.386C50.2378 110.269 50.8957 110.096 51.5325 109.962C52.8167 109.693 53.9876 109.357 55.0701 109.077C57.2139 108.479 58.9367 107.952 60.1183 107.56L61.4838 107.121L61.8375 107.011C61.8773 106.995 61.9189 106.983 61.9613 106.976Z" fill="#263238"/>
<path d="M41.687 116.867C40.8991 116.956 40.1056 116.985 39.3133 116.956C38.5198 116.985 37.7251 116.956 36.936 116.867C37.7255 116.783 38.5199 116.755 39.3133 116.782C40.1056 116.755 40.8988 116.783 41.687 116.867Z" fill="#263238"/>
<path d="M32.3338 99.8265C32.3338 99.8795 27.2185 99.9185 20.9074 99.9185C14.5963 99.9185 9.48096 99.8795 9.48096 99.8265C9.48096 99.7734 14.5963 99.738 20.9251 99.738C27.2538 99.738 32.3338 99.777 32.3338 99.8265Z" fill="#455A64"/>
<path d="M65.6188 36.316C65.8948 35.1628 66.2591 33.8893 66.2591 33.8893L66.5174 32.7395C66.5848 32.7827 66.6487 32.8312 66.7084 32.8846C66.8117 32.9929 66.9407 33.0732 67.0834 33.1181C67.2251 33.1251 67.3656 33.0894 67.4867 33.0156C67.6078 32.9418 67.7039 32.8333 67.7626 32.7042C67.9096 32.4447 67.9868 32.1516 67.9868 31.8534C67.9868 31.5552 67.9096 31.2621 67.7626 31.0026C67.6149 30.7577 67.4078 30.5541 67.1604 30.4106C66.9131 30.2671 66.6335 30.1884 66.3476 30.1819C66.2295 30.0691 66.09 29.9813 65.9372 29.9236C64.9078 29.5168 63.5883 30.4366 63.5883 30.4366L63.6236 30.0227C63.6236 30.0227 64.2215 28.88 66.3653 28.9402C66.6937 28.9529 67.0152 28.8432 67.2674 28.6324C67.3466 28.5728 67.412 28.4967 67.459 28.4093C67.5061 28.322 67.5336 28.2255 67.5398 28.1265C67.5398 27.6065 67.186 27.4721 65.8346 27.419C64.4833 27.3659 63.185 27.7515 62.619 28.452C62.3461 28.7696 62.0967 29.1065 61.8725 29.4602C61.8725 29.4602 61.9716 25.6962 61.968 25.4592C61.968 24.7693 61.6426 24.1998 61.1827 24.1644C60.8855 24.1397 60.4964 24.3307 60.4752 25.1337C60.4752 25.8412 59.4422 32.9376 59.4422 32.9376L59.1733 36.1215L59.375 38.7747L63.9491 38.6155L64.218 38.4174C64.9182 37.9042 65.4144 37.1598 65.6188 36.316Z" fill="#FFBF9D"/>
<path d="M59.7925 35.8669C59.9957 35.8964 60.2031 35.8623 60.3862 35.7692C60.5693 35.6761 60.719 35.5285 60.8148 35.3468C61.0306 34.9931 61.1261 34.5898 61.3207 34.229C61.9009 33.1465 63.2593 32.6406 63.797 31.5368C63.8678 31.3812 63.9102 31.1831 63.7758 31.0628C63.6414 30.9425 63.4751 31.0416 63.3336 31.1159L59.7642 33.0439" fill="#FFBF9D"/>
<path d="M59.7534 33.0438C59.8593 32.9442 59.9783 32.8597 60.1072 32.7926C60.3477 32.6476 60.7015 32.4389 61.1437 32.1948L62.6932 31.3316L63.1424 31.084C63.3096 30.9556 63.5206 30.8984 63.7297 30.9248C63.7924 30.9488 63.847 30.9901 63.8871 31.044C63.9272 31.0979 63.9511 31.162 63.9561 31.229C63.9597 31.3409 63.9379 31.4521 63.8924 31.5545C63.8069 31.7355 63.7013 31.9064 63.5776 32.0639C63.0752 32.6971 62.4385 33.0898 61.9715 33.5532C61.7466 33.7594 61.5534 33.9979 61.3984 34.2607C61.2604 34.5119 61.172 34.7737 61.0659 35.0071C60.9971 35.2049 60.8867 35.3856 60.7421 35.537C60.5974 35.6883 60.4219 35.8068 60.2275 35.8845C60.1563 35.9145 60.0793 35.9281 60.0022 35.9245C59.925 35.9208 59.8497 35.8999 59.7817 35.8632C59.9234 35.8644 60.0643 35.8429 60.1992 35.7996C60.3687 35.712 60.5188 35.591 60.6404 35.4438C60.762 35.2967 60.8526 35.1265 60.9067 34.9435C61.0022 34.7171 61.08 34.4482 61.2251 34.1723C61.3811 33.8852 61.5803 33.6239 61.8158 33.3975C62.2934 32.9094 62.9266 32.5061 63.3865 31.9224C63.4994 31.7806 63.5956 31.6263 63.6731 31.4625C63.7438 31.3068 63.7368 31.1512 63.6483 31.1335C63.5599 31.1158 63.3901 31.1901 63.238 31.275L62.7851 31.5155L61.2109 32.3327C60.7616 32.5662 60.3973 32.7466 60.1496 32.8704C60.0243 32.9425 59.8914 33.0006 59.7534 33.0438Z" fill="#FF9A6C"/>
<path d="M63.5458 30.4578C63.5754 30.205 63.6639 29.9627 63.8041 29.7503C63.9681 29.527 64.2003 29.3631 64.4656 29.2834C64.7947 29.1842 65.1373 29.1377 65.4809 29.1454C65.8365 29.1535 66.192 29.1263 66.5422 29.064C66.8369 29.0081 67.1115 28.875 67.3381 28.6784C67.4157 28.6094 67.4761 28.5233 67.5148 28.4269C67.5535 28.3305 67.5693 28.2265 67.561 28.123C67.5593 28.0484 67.5359 27.9759 67.4938 27.9143C67.4938 27.9143 67.4938 27.9921 67.4938 28.1266C67.4909 28.218 67.4682 28.3077 67.4273 28.3896C67.3864 28.4714 67.3282 28.5434 67.2568 28.6006C67.0371 28.7693 66.7797 28.8822 66.5068 28.9296C66.173 28.9771 65.8357 28.996 65.4986 28.9862C65.1386 28.9782 64.7798 29.0308 64.4373 29.1419C64.1488 29.2384 63.9001 29.4274 63.7298 29.6796C63.6207 29.8498 63.5552 30.0441 63.5388 30.2456C63.5175 30.38 63.5352 30.4578 63.5458 30.4578Z" fill="#FF9A6C"/>
<path d="M61.9609 25.2043C61.9317 25.452 61.9235 25.7017 61.9361 25.9508C61.9361 26.4637 61.9361 27.0757 61.9361 27.7514C61.9361 28.4271 61.9078 29.0391 61.8936 29.552C61.872 29.8004 61.872 30.0501 61.8936 30.2985C61.9567 30.0569 61.9912 29.8087 61.9962 29.5591C62.0352 29.0957 62.0705 28.4589 62.0811 27.755C62.0918 27.051 62.0811 26.4107 62.0493 25.9472C62.0491 25.697 62.0194 25.4476 61.9609 25.2043Z" fill="#FF9A6C"/>
<path d="M64.3771 31.3139C64.4533 31.2943 64.5269 31.2658 64.5964 31.229C64.6856 31.1852 64.7831 31.1606 64.8825 31.157C64.9818 31.1533 65.0808 31.1706 65.1731 31.2078C65.2301 31.2382 65.2777 31.2836 65.3107 31.3391C65.3438 31.3946 65.361 31.4581 65.3605 31.5226C65.368 31.6854 65.3537 31.8483 65.3181 32.0073C65.2695 32.207 65.2972 32.4177 65.3959 32.5981C65.4596 32.6899 65.544 32.7653 65.6424 32.8182C65.7408 32.871 65.8503 32.8999 65.9619 32.9023C66.0728 32.9028 66.1827 32.8807 66.2848 32.8376C66.387 32.7944 66.4793 32.731 66.5563 32.6511C66.6993 32.5086 66.7987 32.3282 66.8428 32.1311C66.8908 31.8122 66.8908 31.4878 66.8428 31.1689C66.8208 30.9537 66.7609 30.7441 66.6659 30.5498C66.5916 30.4118 66.5209 30.3588 66.5138 30.3659C66.5067 30.3729 66.5562 30.4366 66.6129 30.5746C66.6824 30.7708 66.7252 30.9754 66.7402 31.183C66.7692 31.4909 66.7585 31.8012 66.7084 32.1064C66.6726 32.2801 66.5809 32.4374 66.4475 32.5543C66.314 32.6711 66.146 32.7412 65.969 32.7537C65.8809 32.7514 65.7946 32.7288 65.7167 32.6877C65.6388 32.6466 65.5714 32.5881 65.5197 32.5167C65.4387 32.3663 65.4148 32.1916 65.4525 32.025C65.486 31.8538 65.4967 31.6789 65.4844 31.505C65.4789 31.4228 65.4518 31.3435 65.4059 31.2751C65.3599 31.2068 65.2967 31.1518 65.2226 31.1158C65.117 31.0733 65.0026 31.0569 64.8893 31.0679C64.776 31.079 64.667 31.1173 64.5717 31.1795C64.4372 31.2538 64.3736 31.3033 64.3771 31.3139Z" fill="#FF9A6C"/>
<path d="M66.4962 32.5238C66.4962 32.5238 66.4679 32.6016 66.5139 32.736C66.5492 32.8302 66.6064 32.9147 66.6808 32.9823C66.7553 33.05 66.8448 33.099 66.9419 33.1252C67.0886 33.16 67.242 33.1559 67.3866 33.113C67.5312 33.0702 67.6621 32.9902 67.7662 32.8811C68.0177 32.6144 68.1559 32.2606 68.1518 31.8941C68.1589 31.5349 68.0538 31.1825 67.8511 30.8859C67.6818 30.6497 67.4538 30.4619 67.1895 30.3411C67.0132 30.2614 66.8238 30.2146 66.6306 30.2031C66.4962 30.2031 66.4219 30.2031 66.4219 30.2243C66.6667 30.2607 66.905 30.3322 67.1294 30.4366C67.3683 30.56 67.5726 30.7412 67.7237 30.9637C67.9034 31.2402 67.9958 31.5644 67.989 31.8941C67.9912 32.222 67.8729 32.5392 67.6565 32.7856C67.5681 32.8814 67.4568 32.9534 67.3332 32.9949C67.2095 33.0363 67.0773 33.0458 66.949 33.0226C66.8636 33.0031 66.7836 32.9652 66.7145 32.9114C66.6454 32.8576 66.589 32.7893 66.5492 32.7113C66.5279 32.6499 66.5102 32.5873 66.4962 32.5238Z" fill="#FF9A6C"/>
<path d="M63.8645 35.0248C63.8645 35.0248 63.7336 34.9823 63.5107 35.0248C63.203 35.0884 62.9246 35.2512 62.7183 35.4882L62.8456 35.5271C62.8303 35.3584 62.8054 35.1907 62.7713 35.0248C62.6733 34.4399 62.4149 33.8938 62.0249 33.447C62.2825 33.9605 62.4841 34.5001 62.6263 35.0566C62.6617 35.2264 62.6864 35.3892 62.7041 35.5413V35.7111L62.8102 35.5802C62.9958 35.3584 63.2415 35.195 63.5178 35.1097C63.635 35.0886 63.7508 35.0602 63.8645 35.0248Z" fill="#FF9A6C"/>
<path d="M64.0518 28.6326C64.0164 28.6503 64.1544 28.9226 64.4834 29.0677C64.8124 29.2127 65.106 29.1384 65.0954 29.0995C65.0848 29.0606 64.8265 29.0606 64.5435 28.9297C64.2605 28.7988 64.0836 28.6007 64.0518 28.6326Z" fill="#FF9A6C"/>
<path d="M39.5962 51.2977C39.5962 51.2977 41.1669 48.8214 45.2563 49.1964C48.1289 49.4723 56.8278 48.45 56.8278 48.45L58.777 37.3455L66.1494 37.8301L63.9384 53.254C63.7966 54.2393 63.3418 55.1529 62.6411 55.8599C61.9404 56.567 61.031 57.03 60.047 57.1807L43.2116 59.0238L39.5962 51.2977Z" fill="#0B9346"/>
<path d="M58.9469 51.9169C58.4372 51.4718 58.0086 50.9415 57.6805 50.3497C57.3013 49.7885 57.0246 49.1645 56.8633 48.5066C56.9128 48.4889 57.2595 49.3167 57.8361 50.2542C58.4127 51.1917 58.9894 51.878 58.9469 51.9169Z" fill="#263238"/>
<path d="M68.0527 127.494L65.1448 136.292C65.1448 136.292 73.1044 142.218 72.7223 143.894L55.4624 138.839L59.4563 124.947L68.0527 127.494Z" fill="#263238"/>
<g opacity="0.3">
<path d="M68.0527 127.494L65.1448 136.292C65.1448 136.292 73.1044 142.218 72.7223 143.894L55.4624 138.839L59.4563 124.947L68.0527 127.494Z" fill="black"/>
</g>
<path d="M60.0117 133.978C59.8337 133.984 59.6639 134.055 59.5338 134.176C59.4037 134.298 59.3221 134.463 59.3042 134.64C59.3036 134.818 59.3704 134.99 59.491 135.121C59.6117 135.252 59.7775 135.333 59.9551 135.347C60.1465 135.343 60.3297 135.269 60.4699 135.138C60.6101 135.008 60.6976 134.831 60.7157 134.64C60.7012 134.451 60.6138 134.275 60.4719 134.148C60.33 134.022 60.1447 133.956 59.9551 133.964" fill="#E0E0E0"/>
<g opacity="0.6">
<path d="M55.4482 138.839L55.9046 137.456L72.2837 142.819C72.2837 142.819 72.9558 143.378 72.7082 143.88L55.4482 138.839Z" fill="white"/>
</g>
<path d="M65.4351 136.285C65.4103 136.366 64.9752 136.285 64.4835 136.434C63.9917 136.582 63.6627 136.872 63.5955 136.816C63.5283 136.759 63.7972 136.31 64.3986 136.14C65 135.97 65.4775 136.214 65.4351 136.285Z" fill="#E0E0E0"/>
<path d="M67.0268 137.562C67.0268 137.65 66.6164 137.686 66.2237 137.958C65.8311 138.23 65.64 138.584 65.5587 138.556C65.4773 138.528 65.5587 138.036 66.0539 137.707C66.5492 137.378 67.048 137.484 67.0268 137.562Z" fill="#E0E0E0"/>
<path d="M67.4196 140.031C67.3382 140.031 67.3453 139.571 67.6955 139.172C68.0457 138.772 68.495 138.708 68.5127 138.786C68.5304 138.864 68.212 139.044 67.9254 139.373C67.6389 139.702 67.508 140.067 67.4196 140.031Z" fill="#E0E0E0"/>
<path d="M65.8805 134.205C65.8239 134.272 65.4701 134.042 64.9819 133.936C64.4937 133.83 64.0834 133.869 64.0586 133.784C64.0338 133.699 64.4831 133.504 65.0527 133.639C65.6222 133.773 65.9406 134.152 65.8805 134.205Z" fill="#E0E0E0"/>
<path d="M62.2936 129.532L61.9398 138.797C61.9398 138.797 71.2331 142.274 71.3322 143.993L53.347 143.933L53.3223 129.479L62.2936 129.532Z" fill="#263238"/>
<path d="M56.3717 137.997C56.1982 138.048 56.0498 138.162 55.955 138.316C55.8603 138.47 55.826 138.654 55.8588 138.832C55.9048 139.007 56.0164 139.158 56.1704 139.253C56.3244 139.349 56.5092 139.381 56.6866 139.345C56.87 139.289 57.0263 139.168 57.125 139.004C57.2238 138.84 57.2579 138.645 57.2208 138.457C57.1544 138.279 57.0219 138.135 56.8511 138.053C56.6802 137.971 56.4843 137.959 56.3045 138.018" fill="#E0E0E0"/>
<g opacity="0.6">
<path d="M53.3364 143.933L53.3895 142.476L70.614 143.081C70.614 143.081 71.4135 143.434 71.3216 143.993L53.3364 143.933Z" fill="white"/>
</g>
<path d="M62.2228 138.704C62.2228 138.793 61.7806 138.832 61.3455 139.111C60.9104 139.391 60.6804 139.762 60.5991 139.727C60.5177 139.691 60.6521 139.182 61.1828 138.853C61.7134 138.524 62.2405 138.623 62.2228 138.704Z" fill="white"/>
<path d="M64.1049 139.49C64.1262 139.575 63.7512 139.723 63.4434 140.095C63.1356 140.466 63.0578 140.859 62.9694 140.852C62.8809 140.845 62.8279 140.353 63.2099 139.9C63.592 139.448 64.1049 139.409 64.1049 139.49Z" fill="white"/>
<path d="M65.1696 141.75C65.0883 141.772 64.968 141.333 65.1944 140.852C65.4208 140.371 65.8347 140.18 65.8701 140.254C65.9054 140.328 65.6543 140.583 65.4738 140.979C65.2934 141.375 65.2545 141.743 65.1696 141.75Z" fill="white"/>
<path d="M62.0704 136.586C62.0315 136.663 61.6317 136.543 61.1329 136.586C60.6341 136.628 60.2485 136.773 60.2025 136.695C60.1565 136.617 60.5315 136.31 61.1188 136.278C61.706 136.246 62.1128 136.529 62.0704 136.586Z" fill="white"/>
<path d="M47.347 86.09C47.347 86.09 68.4346 90.9789 71.1126 94.7111C73.3731 97.8631 67.575 132.747 67.575 132.747L55.3773 131.877L56.9339 101.298L32.7827 93.6215L36.43 84.3459L47.347 86.09Z" fill="#455A64"/>
<path d="M42.2954 86.794C42.2954 86.794 64.3311 92.1499 66.5598 95.9528C67.5998 97.7216 66.9135 103.559 66.5279 106.311C66.2662 108.165 62.3713 134.106 62.3713 134.106H52.8445L53.0532 104.804L30.1544 100.187C30.1544 100.187 17.8648 101.125 17.3872 95.882L22.5167 88.9307L34.6259 82.9451L42.2954 86.794Z" fill="#455A64"/>
<path d="M40.6154 86.1218L40.9373 86.2032L41.8712 86.465L45.4654 87.4696C47.0255 87.9083 48.9358 88.439 51.1256 89.0969C53.3154 89.7549 55.8341 90.5438 58.5545 91.5733C59.913 92.0827 61.315 92.6605 62.7607 93.3067L63.8539 93.8019C64.2191 93.9801 64.5735 94.1797 64.9151 94.3998C65.2713 94.6196 65.6065 94.8719 65.9163 95.1533C66.2413 95.4367 66.5132 95.7757 66.7193 96.1544C67.4622 99.5328 67.0129 103.23 66.4611 106.997C66.2205 108.897 65.9127 110.835 65.6191 112.82C65.3255 114.805 65.0213 116.828 64.7135 118.887C64.098 123.012 63.4577 127.278 62.8032 131.651C62.6806 132.478 62.5567 133.304 62.4317 134.127V134.198H52.7635V134.116C52.8519 123.012 52.9262 112.958 52.9899 104.818L53.0394 104.878L36.7665 101.574L32.3268 100.661L31.17 100.417L30.7773 100.329L31.1736 100.4L32.3339 100.626L36.7877 101.507L53.0607 104.761H53.1102V104.811C53.0571 112.947 52.9934 123.005 52.9192 134.113L52.8413 134.031H62.3681L62.2867 134.099C62.4105 133.281 62.5308 132.457 62.6405 131.622C63.2949 127.25 63.9352 122.984 64.5508 118.862C64.8621 116.801 65.1663 114.779 65.4635 112.795C65.7571 110.811 66.0684 108.872 66.3089 106.972C66.4398 106.024 66.5637 105.087 66.691 104.164C66.8213 103.254 66.9016 102.337 66.9316 101.418C66.9634 100.516 66.9634 99.6213 66.9316 98.744C66.9316 98.3053 66.8891 97.8702 66.8502 97.4421C66.8491 97.0191 66.7637 96.6006 66.599 96.211C66.4012 95.847 66.14 95.5212 65.8278 95.2488C65.5234 94.9732 65.1955 94.7246 64.8479 94.5059C64.5059 94.2886 64.1516 94.0913 63.7866 93.9151L62.7006 93.4199C61.2573 92.769 59.8576 92.1888 58.5015 91.6794C55.7988 90.6464 53.2977 89.854 51.0973 89.1818C48.8969 88.5097 46.9866 87.9755 45.4371 87.5298L41.85 86.4968L40.9196 86.2209L40.6154 86.1218Z" fill="#263238"/>
<path d="M38.2767 25.2717C38.2201 23.7753 39.2354 23.5737 40.0172 23.747C40.5014 23.4084 41.0851 23.2419 41.675 23.2739C42.265 23.306 42.8272 23.5348 43.2718 23.9239C43.6294 23.7288 44.0315 23.6297 44.4388 23.6363C44.8461 23.643 45.2448 23.7551 45.5958 23.9618C45.9469 24.1685 46.2383 24.4627 46.4417 24.8157C46.6451 25.1686 46.7535 25.5683 46.7563 25.9757C47.1667 25.925 47.5827 26.005 47.945 26.2043C48.3073 26.4035 48.5977 26.7119 48.7747 27.0856C48.9518 27.4593 49.0066 27.8793 48.9313 28.2859C48.856 28.6925 48.6545 29.065 48.3553 29.3506C48.7926 29.5135 49.1542 29.8323 49.3707 30.2457C49.5873 30.659 49.6435 31.1378 49.5286 31.5901C49.4136 32.0424 49.1357 32.4362 48.748 32.696C48.3604 32.9559 47.8905 33.0633 47.4285 32.9978L38.2307 26.8813C37.693 26.3011 38.305 26.0712 38.2767 25.2717Z" fill="#263238"/>
<path d="M47.6943 33.2737C47.6048 31.2582 46.7592 29.3503 45.3261 27.9303C43.8929 26.5103 41.9774 25.6823 39.9611 25.6113H39.5472C35.058 25.7139 32.6383 29.584 32.8647 34.0662L32.9814 49.0019L33.0133 51.832L43.2723 54.2694L43.3784 48.358C43.3784 48.358 47.7049 47.8416 47.9136 43.5398C48.0127 41.4562 47.8676 37.158 47.6943 33.2737Z" fill="#FFBF9D"/>
<path d="M43.4134 48.3473C41.4134 48.2771 39.4758 47.6337 37.8311 46.4937C37.8311 46.4937 39.048 49.6421 43.3568 49.4051L43.4134 48.3473Z" fill="#FF9A6C"/>
<path d="M46.5547 37.0732C46.551 37.2333 46.485 37.3858 46.3707 37.4981C46.2565 37.6104 46.1029 37.6737 45.9427 37.6746C45.8642 37.6779 45.7859 37.6655 45.7123 37.6382C45.6386 37.6109 45.5712 37.5691 45.5139 37.5155C45.4566 37.4618 45.4105 37.3972 45.3785 37.3255C45.3464 37.2538 45.329 37.1764 45.3271 37.0979C45.3317 36.9374 45.3985 36.785 45.5133 36.6728C45.6282 36.5606 45.7821 36.4974 45.9427 36.4965C46.0211 36.4927 46.0995 36.5048 46.1731 36.532C46.2468 36.5591 46.3142 36.6009 46.3713 36.6547C46.4284 36.7086 46.4741 36.7734 46.5056 36.8453C46.5372 36.9172 46.5538 36.9947 46.5547 37.0732Z" fill="#263238"/>
<path d="M46.7492 35.5661C46.6679 35.6439 46.215 35.2831 45.5535 35.2619C44.892 35.2407 44.3967 35.552 44.326 35.4671C44.2552 35.3822 44.3755 35.2902 44.5913 35.1416C44.8859 34.9554 45.23 34.8629 45.5783 34.8763C45.9239 34.8902 46.2561 35.0141 46.5264 35.23C46.7103 35.3857 46.774 35.5307 46.7492 35.5661Z" fill="#263238"/>
<path d="M40.8662 37.0271C40.8616 37.1872 40.7947 37.3393 40.6798 37.4509C40.5649 37.5626 40.4109 37.625 40.2507 37.6249C40.1723 37.6287 40.0939 37.6167 40.0203 37.5895C39.9466 37.5623 39.8792 37.5206 39.8221 37.4668C39.7649 37.4129 39.7192 37.3481 39.6877 37.2762C39.6562 37.2043 39.6395 37.1268 39.6387 37.0483C39.6424 36.8881 39.7083 36.7357 39.8226 36.6234C39.9369 36.5111 40.0905 36.4478 40.2507 36.4469C40.3293 36.4441 40.4077 36.4569 40.4814 36.4846C40.555 36.5123 40.6224 36.5544 40.6797 36.6084C40.737 36.6623 40.7829 36.7271 40.815 36.799C40.847 36.8709 40.8644 36.9484 40.8662 37.0271Z" fill="#263238"/>
<path d="M40.4099 35.2477C40.3285 35.3255 39.8757 34.9647 39.2142 34.9435C38.5526 34.9222 38.0574 35.2335 37.9866 35.1522C37.9159 35.0708 38.0361 34.9718 38.2519 34.8267C38.5459 34.639 38.8905 34.5464 39.2389 34.5614C39.5849 34.5738 39.9175 34.6979 40.187 34.9151C40.3816 35.0673 40.4488 35.2158 40.4099 35.2477Z" fill="#263238"/>
<path d="M42.4124 40.2285C42.7651 40.1306 43.1289 40.0783 43.4949 40.0729C43.6647 40.0729 43.8239 40.034 43.8486 39.9208C43.8679 39.7464 43.8346 39.5702 43.7531 39.4149C43.6081 39.001 43.456 38.5659 43.3003 38.1095C42.6706 36.2558 42.2213 34.7311 42.2956 34.7064C42.3699 34.6816 42.943 36.1674 43.5692 38.0211L44.0043 39.3335C44.1031 39.5408 44.1256 39.7763 44.068 39.9986C44.0413 40.0573 44.0017 40.1091 43.952 40.1502C43.9024 40.1912 43.844 40.2204 43.7814 40.2356C43.6862 40.2571 43.5889 40.2678 43.4913 40.2675C43.1315 40.3 42.769 40.2869 42.4124 40.2285Z" fill="#263238"/>
<path d="M40.4489 40.6176C40.5586 40.6176 40.5338 41.3252 41.1317 41.8629C41.7295 42.4006 42.5043 42.344 42.5043 42.4289C42.5043 42.4749 42.3274 42.5633 42.0055 42.5598C41.5841 42.5532 41.1789 42.3964 40.8628 42.1176C40.5595 41.8508 40.3718 41.4766 40.3393 41.074C40.3145 40.7874 40.4029 40.6106 40.4489 40.6176Z" fill="#263238"/>
<path d="M40.4843 33.3587C40.3994 33.5285 39.8369 33.3587 39.1435 33.341C38.4502 33.3233 37.87 33.4507 37.8028 33.2773C37.7745 33.196 37.8983 33.0438 38.1566 32.9236C38.4753 32.7553 38.833 32.6747 39.1931 32.6901C39.5483 32.6954 39.8955 32.7969 40.1977 32.9837C40.4206 33.1217 40.5232 33.2809 40.4843 33.3587Z" fill="#263238"/>
<path d="M46.6507 33.7479C46.541 33.9036 46.0776 33.7691 45.5292 33.7868C44.9809 33.8045 44.521 33.9354 44.4078 33.7868C44.3583 33.7125 44.4078 33.5569 44.6201 33.4048C44.8846 33.223 45.197 33.1234 45.5179 33.1184C45.8388 33.1133 46.1541 33.2031 46.4242 33.3765C46.6259 33.518 46.6966 33.6701 46.6507 33.7479Z" fill="#263238"/>
<path d="M47.3507 31.2821C47.3507 31.2821 46.3107 28.5475 45.0336 27.8718C43.4877 27.0547 42.7483 28.7562 41.2625 28.2857C39.7768 27.8152 38.3016 27.0299 36.7273 28.1336C35.0045 29.3435 35.7616 30.2562 35.5882 32.1665C34.8807 39.8961 33.402 42.0363 33.1296 38.3749C33.0978 37.9717 32.0011 37.6144 31.895 35.9199C31.7606 33.723 31.7712 31.0627 32.316 29.5274C32.7723 28.2327 33.5541 27.3553 34.9267 26.4037C37.0953 24.9038 39.9996 24.9887 41.9665 25.2434C43.9334 25.4981 47.6514 27.9249 47.3507 31.2821Z" fill="#263238"/>
<path d="M33.4056 38.2652C33.4062 38.107 33.3747 37.9503 33.313 37.8047C33.2512 37.6591 33.1605 37.5275 33.0464 37.418C32.9322 37.3085 32.797 37.2234 32.649 37.1677C32.5009 37.112 32.3431 37.087 32.1851 37.0942C31.3785 37.1438 30.4694 37.5683 30.4658 39.2168C30.4658 42.1636 33.4126 41.5657 33.4197 41.4808C33.4268 41.3959 33.4126 39.4998 33.4056 38.2652Z" fill="#FFBF9D"/>
<path d="M32.7832 40.3807C32.7832 40.3807 32.7301 40.4161 32.6452 40.4585C32.5213 40.5076 32.3834 40.5076 32.2596 40.4585C31.9483 40.3453 31.69 39.8501 31.6759 39.3194C31.6699 39.0661 31.7207 38.8147 31.8245 38.5836C31.851 38.4905 31.9001 38.4053 31.9674 38.3356C32.0346 38.2659 32.1179 38.2138 32.2101 38.1839C32.2693 38.1688 32.3319 38.1746 32.3874 38.2004C32.4428 38.2262 32.4877 38.2703 32.5143 38.3254C32.5532 38.4103 32.5143 38.4669 32.5497 38.4739C32.585 38.481 32.6133 38.4244 32.5886 38.3006C32.5726 38.2283 32.5327 38.1635 32.4754 38.1166C32.4349 38.086 32.3887 38.0637 32.3395 38.0509C32.2903 38.0382 32.2391 38.0353 32.1888 38.0424C32.0675 38.0644 31.9541 38.1178 31.8598 38.1973C31.7654 38.2767 31.6935 38.3794 31.6511 38.4952C31.5259 38.7503 31.464 39.0318 31.4707 39.3159C31.4707 39.9102 31.7891 40.4656 32.2171 40.593C32.2958 40.616 32.3787 40.6209 32.4595 40.6074C32.5404 40.5939 32.6171 40.5624 32.6841 40.5151C32.7761 40.4515 32.7938 40.3878 32.7832 40.3807Z" fill="#FF9A6C"/>
<path d="M33.6601 32.5662C34.0095 32.8723 34.4305 33.0853 34.8841 33.1853C35.1121 33.229 35.3481 33.1886 35.5485 33.0715C35.7489 32.9544 35.8999 32.7686 35.9737 32.5485C36.0162 32.3469 35.9737 32.1063 36.1152 31.9507C36.2567 31.795 36.5786 31.8375 36.8227 31.8729C37.252 31.9223 37.6851 31.8223 38.0492 31.5897C38.4132 31.3571 38.686 31.006 38.8215 30.5958C38.9482 30.7487 39.1281 30.8479 39.325 30.8735C39.5219 30.8991 39.7212 30.8492 39.8828 30.7337C40.1965 30.4972 40.4763 30.2187 40.7141 29.906C40.8343 29.7495 40.991 29.6249 41.1704 29.5429C41.3498 29.4609 41.5466 29.424 41.7435 29.4355C41.9473 29.5148 42.1599 29.5695 42.3768 29.5982C42.7659 29.577 42.9711 29.1312 43.0418 28.7527C43.1126 28.3742 43.1763 27.9249 43.5088 27.7268C43.8413 27.5287 44.2163 27.6702 44.5701 27.7268C44.9238 27.7834 45.3873 27.7268 45.4899 27.373C45.5078 27.2804 45.507 27.1851 45.4876 27.0927C45.4681 27.0004 45.4304 26.9129 45.3766 26.8353C45.1498 26.4711 44.8067 26.1941 44.403 26.049C43.9992 25.904 43.5583 25.8993 43.1515 26.0358C43.0234 25.5417 42.7519 25.0965 42.3712 24.7564C41.9906 24.4163 41.5178 24.1965 41.0124 24.1246C40.507 24.0528 39.9917 24.1321 39.5313 24.3526C39.0709 24.5731 38.6861 24.9249 38.4253 25.3637C38.1224 25.0696 37.7531 24.8528 37.3486 24.7317C36.9442 24.6106 36.5165 24.5886 36.1018 24.6677C35.6871 24.7469 35.2976 24.9247 34.9662 25.1863C34.6348 25.4478 34.3712 25.7853 34.1978 26.1703C33.8406 26.062 33.4594 26.0614 33.1019 26.1686C32.7443 26.2757 32.4262 26.4858 32.1874 26.7726C31.9485 27.0594 31.7994 27.4102 31.7587 27.7812C31.718 28.1523 31.7875 28.5271 31.9585 28.8588C31.6748 28.9834 31.4281 29.1792 31.2422 29.427C31.0563 29.6749 30.9375 29.9666 30.8973 30.2739C30.8654 30.8823 31.435 31.5085 32.0293 31.3705C31.9348 31.6016 31.9247 31.8585 32.0009 32.0962C32.0771 32.334 32.2347 32.5372 32.4459 32.6703C32.6571 32.8033 32.9084 32.8577 33.1557 32.8238C33.4031 32.7899 33.6305 32.6699 33.7981 32.4849" fill="#263238"/>
<path d="M31.8242 31.3599C31.8086 31.4609 31.815 31.5642 31.8431 31.6625C31.8712 31.7608 31.9203 31.8519 31.987 31.9294C32.1255 32.1222 32.3312 32.256 32.5636 32.3044C32.7123 32.3336 32.8656 32.3294 33.0124 32.292C33.1592 32.2547 33.2959 32.1852 33.4126 32.0886L33.2888 32.0674C33.4342 32.3474 33.6242 32.6019 33.8513 32.8209C34.0017 32.9711 34.1794 33.0911 34.3749 33.1746C34.5614 33.2524 34.7656 33.278 34.9656 33.2489C35.1347 33.2409 35.2999 33.1959 35.4497 33.117C35.5994 33.0382 35.7301 32.9274 35.8323 32.7926C35.9584 32.6105 36.0463 32.4047 36.0906 32.1877C36.1178 32.1118 36.1286 32.031 36.1224 31.9506C36.0824 32.0199 36.0504 32.0935 36.0269 32.17C35.9611 32.3675 35.8631 32.5528 35.7368 32.7183C35.6233 32.8401 35.4856 32.9369 35.3325 33.0024C35.1794 33.0679 35.0143 33.1007 34.8477 33.0987C34.6812 33.0967 34.517 33.06 34.3655 32.9908C34.214 32.9216 34.0786 32.8216 33.968 32.6971C33.753 32.4907 33.5716 32.252 33.4303 31.9896L33.3808 31.9011L33.3065 31.9683C33.2091 32.0494 33.0959 32.1092 32.974 32.1439C32.8522 32.1786 32.7245 32.1875 32.599 32.17C32.3958 32.1338 32.2117 32.0273 32.079 31.8693C31.9608 31.7182 31.8742 31.545 31.8242 31.3599Z" fill="#455A64"/>
<path d="M43.4524 51.2729L44.7684 53.9332L40.028 80.7658L42.6493 84.0027L17.4723 95.8819C17.4723 95.8819 15.5514 85.0145 16.5171 77.6739C17.4723 70.39 19.9627 62.151 22.7115 55.7409C23.8187 53.169 27.0556 50.675 29.6805 49.5006C29.8539 49.4263 30.0343 49.3591 30.2041 49.2989L32.974 48.0254L43.1128 53.6855L43.4524 51.2729Z" fill="#0B9346"/>
<path d="M44.6832 54.8105C44.6806 54.8889 44.6723 54.9669 44.6584 55.044C44.6337 55.2138 44.6018 55.4367 44.5594 55.7162C44.4709 56.2999 44.333 57.1312 44.149 58.1925C43.7953 60.2655 43.2292 63.1239 42.5712 66.2688C41.9133 69.4137 41.2836 72.2579 40.8201 74.3098C40.5867 75.325 40.3956 76.1493 40.2577 76.7401C40.1904 77.016 40.1374 77.2353 40.0985 77.4016C40.0813 77.4785 40.0589 77.5542 40.0312 77.628C40.0346 77.5494 40.0453 77.4712 40.0631 77.3945C40.0985 77.2247 40.1409 77.0054 40.1975 76.7295L40.7069 74.2885C41.1456 72.212 41.747 69.3713 42.4121 66.237C43.0771 63.1027 43.6396 60.2231 44.0358 58.1713C44.2268 57.1489 44.3896 56.3176 44.4992 55.7197L44.6266 55.0546C44.6358 54.9713 44.6548 54.8894 44.6832 54.8105Z" fill="#263238"/>
<path d="M22.6265 90.4943C22.6692 90.4396 22.7178 90.3898 22.7715 90.3458L23.2102 89.9425C23.3977 89.7691 23.6347 89.5569 23.9177 89.3269C24.2007 89.097 24.5155 88.8175 24.8799 88.5381C25.5874 87.9614 26.4931 87.3176 27.5048 86.6384C28.5166 85.9592 29.6769 85.2729 30.9186 84.6113C32.1603 83.9498 33.3949 83.4015 34.5199 82.9381C35.6448 82.4746 36.6884 82.1138 37.5693 81.8449C38.0079 81.6999 38.4112 81.5938 38.765 81.4912C39.1187 81.3886 39.423 81.3143 39.6741 81.2577L40.2508 81.1233C40.3176 81.1036 40.3864 81.0918 40.4559 81.0879C40.3929 81.1153 40.3279 81.1377 40.2614 81.1551L39.6883 81.3178C39.4407 81.385 39.1364 81.47 38.7897 81.5796C38.4431 81.6893 38.0398 81.8025 37.6046 81.9546C36.7309 82.2376 35.7014 82.6161 34.5765 83.076C33.4515 83.5359 32.2381 84.1055 30.9964 84.7564C29.7547 85.4073 28.6085 86.1042 27.5897 86.7622C26.5709 87.4202 25.6794 88.0676 24.9507 88.63C24.5969 88.9024 24.2608 89.1678 23.9743 89.3942C23.6877 89.6206 23.4472 89.8222 23.2491 89.992L22.7927 90.3705C22.7412 90.4168 22.6856 90.4582 22.6265 90.4943Z" fill="#263238"/>
<path d="M35.146 81.2894C35.1672 81.3284 32.7935 82.662 29.8396 84.2681C26.8857 85.8742 24.4872 87.1406 24.466 87.0982C24.4447 87.0557 26.8149 85.7256 29.7724 84.1195C32.7298 82.5135 35.1212 81.2505 35.146 81.2894Z" fill="#263238"/>
<g opacity="0.3">
<path d="M26.585 62.0273C28.0991 68.5684 32.7262 74.4301 38.8887 77.0975C34.4576 72.3527 30.3472 67.3182 26.585 62.0273Z" fill="black"/>
</g>
<path d="M25.8104 62.3986C25.8104 62.3986 37.6543 78.5124 39.508 78.5124H56.8139V71.9678L43.7248 68.8795C43.7248 68.8795 37.2793 55.5428 35.8536 53.8341C34.428 52.1255 30.6144 49.826 27.7667 52.3908C24.9189 54.9556 25.8104 62.3986 25.8104 62.3986Z" fill="#0B9346"/>
<path d="M56.7998 72.6011L59.6299 72.3747C59.6299 72.3747 59.6936 71.3134 60.3126 70.9596C60.9317 70.6059 60.868 69.7852 61.2395 69.8453C61.4438 69.8865 61.6543 69.8865 61.8586 69.8453L64.2111 67.8713L66.1921 66.5695L67.738 66.2617C67.738 66.2617 68.6684 66.5093 67.738 67.3761L66.7511 67.9315L65.8843 68.7982L67.8619 67.8253C67.9536 67.7816 68.0539 67.759 68.1555 67.759C68.2571 67.759 68.3574 67.7816 68.4491 67.8253C68.9829 68.0566 69.4915 68.3423 69.9667 68.6779C70.0086 68.7179 70.0419 68.7659 70.0646 68.8191C70.0874 68.8723 70.0991 68.9296 70.0991 68.9874C70.0991 69.0453 70.0874 69.1026 70.0646 69.1558C70.0419 69.209 70.0086 69.257 69.9667 69.297L70.8334 70.0399C70.8334 70.0399 71.0209 71.0304 70.0304 70.7828L69.2238 70.5953L68.1626 71.6565C68.1626 71.6565 71.7532 70.9137 72.0009 71.0375C72.0972 71.1022 72.1761 71.1896 72.2306 71.292C72.2852 71.3944 72.3137 71.5087 72.3137 71.6247C72.3137 71.7407 72.2852 71.855 72.2306 71.9574C72.1761 72.0598 72.0972 72.1472 72.0009 72.212C71.4419 72.7072 69.2769 72.5834 68.7816 73.0787C68.2864 73.5739 65.0141 76.5632 64.2075 76.7507C63.401 76.9382 56.814 78.5124 56.814 78.5124L56.7998 72.6011Z" fill="#FFBF9D"/>
<path d="M70.8369 70.0222C70.6681 69.9145 70.5062 69.7963 70.3522 69.6685C70.2036 69.5623 70.0267 69.4315 69.8251 69.3147C69.726 69.244 69.6199 69.1768 69.5103 69.1095C69.4127 69.0365 69.2984 68.989 69.1777 68.9716C68.9258 69.0231 68.6858 69.1215 68.4702 69.2617C68.2579 69.3749 68.0705 69.4845 67.9113 69.5765C67.747 69.6907 67.5716 69.7879 67.3877 69.8666C67.5183 69.7132 67.6738 69.5829 67.8476 69.481C67.9997 69.3749 68.2013 69.2546 68.3959 69.1272C68.5056 69.0635 68.6152 68.9999 68.7497 68.9397C68.8776 68.8633 69.0219 68.8184 69.1706 68.8088C69.2139 68.8007 69.2583 68.8007 69.3015 68.8088C69.338 68.8202 69.3734 68.8344 69.4077 68.8513C69.4709 68.8818 69.5324 68.9161 69.5916 68.9539L69.9135 69.1732C70.1116 69.3183 70.2673 69.4598 70.423 69.58C70.706 69.8277 70.8581 70.0222 70.8369 70.0222Z" fill="#FF9A6C"/>
<path d="M62.145 69.5977C62.1733 69.633 61.8761 69.8877 61.533 70.2203C61.1898 70.5528 60.9104 70.8252 60.875 70.7934C61.0056 70.5274 61.1913 70.2922 61.4198 70.1035C61.6157 69.8773 61.865 69.7034 62.145 69.5977Z" fill="#FF9A6C"/>
<path d="M35.8535 53.8342C36.1074 54.1488 36.3368 54.4823 36.5398 54.8318C36.9502 55.511 37.5268 56.5193 38.2202 57.8282C39.614 60.446 41.5349 64.2347 43.7848 68.8513L43.7388 68.8159L56.8279 71.8901H56.8881V71.9538C56.8881 74.0763 56.8881 76.2626 56.8881 78.5089V78.5903H56.0213H41.312H39.6387C39.5658 78.597 39.4924 78.597 39.4194 78.5903C39.3457 78.5769 39.2742 78.5531 39.2071 78.5195C39.0833 78.4578 38.965 78.3856 38.8534 78.3038C38.6336 78.1428 38.4233 77.9691 38.2237 77.7837C37.4663 77.0687 36.7461 76.3154 36.0658 75.5267C34.7356 74.0162 33.5576 72.5587 32.4928 71.2215C30.3702 68.5435 28.7005 66.3325 27.5402 64.8008L26.2348 63.032L25.881 62.5685C25.8067 62.4624 25.7749 62.4058 25.7749 62.4058C25.7749 62.4058 25.8174 62.4553 25.8952 62.5579L26.2489 63.0143C26.5567 63.4211 27.006 64.0083 27.5791 64.7831C28.7394 66.3007 30.4092 68.5011 32.5529 71.1684C33.6142 72.4986 34.8099 73.9525 36.1365 75.456C36.8159 76.2387 37.535 76.9862 38.2909 77.6953C38.4868 77.8764 38.6935 78.0453 38.91 78.2012C39.0218 78.2796 39.1401 78.3483 39.2638 78.4063C39.3739 78.4586 39.496 78.4806 39.6175 78.47H41.2908H56.0001H56.7855L56.7041 78.5514V71.9679L56.7642 72.0457L43.6751 68.9468H43.6433V68.9185C41.4075 64.2949 39.5043 60.4955 38.1282 57.8706C37.4454 56.5582 36.8794 55.5429 36.4832 54.8601C36.278 54.5064 36.1294 54.2623 36.0056 54.0995C35.8818 53.9368 35.8535 53.8342 35.8535 53.8342Z" fill="#263238"/>
<path d="M34.1305 52.7802C34.1305 52.8085 33.7272 52.6493 33.0692 52.4972C32.6809 52.415 32.2873 52.3607 31.8912 52.3344C31.4062 52.2957 30.9188 52.2957 30.4337 52.3344C29.9557 52.3827 29.4824 52.4703 29.0187 52.5962C28.6347 52.7013 28.2588 52.8337 27.8937 52.9924C27.2711 53.2648 26.9138 53.4948 26.8961 53.47C26.8785 53.4452 26.974 53.3957 27.1367 53.2896C27.3617 53.137 27.5982 53.0021 27.8442 52.8863C28.21 52.7129 28.5885 52.5674 28.9762 52.4512C29.4543 52.3162 29.9431 52.2227 30.4373 52.1717C30.9315 52.1273 31.4288 52.1273 31.9231 52.1717C32.326 52.2088 32.7249 52.281 33.1152 52.3875C33.3794 52.4545 33.6384 52.5408 33.89 52.6457C33.9761 52.6789 34.0571 52.7242 34.1305 52.7802Z" fill="#263238"/>
<path d="M41.3438 71.8619C41.7785 70.7568 42.5352 69.8077 43.5158 69.1379C43.5477 69.1769 42.9498 69.6863 42.352 70.4398C41.7541 71.1933 41.3862 71.8867 41.3438 71.8619Z" fill="#263238"/>
<path d="M40.9443 69.8523C41.2572 69.5392 41.6442 69.3104 42.0693 69.1873C42.4744 69.0117 42.9179 68.9434 43.357 68.9892C43.357 69.0387 42.7874 69.0988 42.1224 69.3429C41.4573 69.587 40.9726 69.8912 40.9443 69.8523Z" fill="#263238"/>
<path d="M34.6861 85.8955C34.6294 86.3554 29.6273 100.633 29.6273 100.633H24.4624L29.461 85.8955H34.6861Z" fill="#263238"/>
<path d="M44.1315 84.7103C42.1611 83.8188 36.8865 81.9474 27.5402 82.0571C18.392 82.1632 15.003 83.1821 13.7719 83.8259C13.5673 83.9329 13.396 84.0941 13.2769 84.2919C13.1577 84.4897 13.0952 84.7164 13.0962 84.9473V86.4402C13.0957 86.5283 13.1127 86.6156 13.1461 86.6971C13.1795 86.7787 13.2286 86.8528 13.2908 86.9153C13.3529 86.9777 13.4268 87.0273 13.5081 87.0611C13.5895 87.0949 13.6767 87.1123 13.7648 87.1123L43.6858 87.0805C44.0074 87.0796 44.3157 86.9522 44.5441 86.7258C44.7724 86.4994 44.9025 86.1922 44.9063 85.8706C44.9045 85.6227 44.8302 85.3807 44.6925 85.1746C44.5548 84.9684 44.3598 84.807 44.1315 84.7103Z" fill="#263238"/>
<path d="M44.1316 84.7104C44.1882 84.7298 44.2427 84.7547 44.2943 84.7847C44.4453 84.8755 44.5765 84.9958 44.6799 85.1384C44.8574 85.3659 44.9466 85.6498 44.9311 85.9379C44.9133 86.254 44.7764 86.5516 44.5479 86.7708C44.3195 86.99 44.0166 87.1146 43.7 87.1195H42.9465H41.2414L37.0847 87.1372L26.2632 87.169H19.8708H13.8887C13.7271 87.1832 13.5647 87.1539 13.4182 87.0841C13.2629 87.0106 13.1379 86.8856 13.0644 86.7303C13.0105 86.592 12.9888 86.4432 13.0008 86.2952V84.9828C12.9916 84.6709 13.0889 84.3652 13.2767 84.1161C13.3764 83.9933 13.496 83.888 13.6305 83.8048C13.7585 83.731 13.8908 83.6648 14.0267 83.6066C15.0826 83.1881 16.1828 82.8914 17.306 82.7223C19.4139 82.3836 21.5403 82.1734 23.6737 82.0926C25.7114 82.0006 27.6464 81.9687 29.4612 81.997C31.276 82.0254 32.9634 82.1492 34.4952 82.3154C36.9209 82.5603 39.3167 83.0426 41.6482 83.7552C42.498 84.0093 43.3261 84.3311 44.1245 84.7175L43.9618 84.6573L43.4807 84.4663C43.0597 84.3 42.4194 84.0701 41.6093 83.8224C39.2763 83.1383 36.8836 82.6775 34.4634 82.4463C32.9351 82.2871 31.2512 82.1739 29.44 82.1492C27.6287 82.1244 25.6972 82.1669 23.6666 82.2624C21.5403 82.3467 19.4209 82.5594 17.3202 82.8991C16.212 83.0687 15.1263 83.3618 14.0833 83.7729C12.8345 84.109 13.2024 85.6903 13.2378 86.6879C13.2919 86.8026 13.3828 86.896 13.496 86.9532C13.616 87.0102 13.7497 87.0323 13.8816 87.0169H26.2632H37.0847H41.2414H42.9465C43.4665 87.0169 43.9689 87.0912 44.3262 86.8365C44.48 86.7392 44.6094 86.6079 44.7045 86.4528C44.7996 86.2976 44.8577 86.1227 44.8745 85.9415C44.8946 85.6649 44.8156 85.3903 44.6516 85.1667C44.515 84.9773 44.3372 84.8213 44.1316 84.7104Z" fill="#455A64"/>
<path d="M26.6284 82.05H23.4082V143.834H26.6284V82.05Z" fill="#455A64"/>
<path d="M26.6251 143.834C26.6251 143.834 26.6251 143.725 26.6251 143.512C26.6251 143.3 26.6251 142.989 26.6251 142.578C26.6251 141.758 26.6251 140.551 26.6251 138.998C26.6251 135.889 26.6251 131.385 26.6034 125.807C26.6034 114.653 26.5848 99.1898 26.5724 81.9405L26.6467 82.0254H23.408L23.4823 81.9405C23.4575 110.871 23.4389 135.411 23.4296 143.848L23.408 143.82L25.8262 143.838H26.4238H26.6251H26.4331H25.8386L23.408 143.855H23.3832V143.827C23.3832 135.401 23.3553 110.86 23.3306 81.9193V81.8308H26.7025V81.9193C26.7025 99.1968 26.6777 114.681 26.6715 125.853C26.6715 131.424 26.6529 135.917 26.6467 139.023C26.6467 140.569 26.6467 141.768 26.6467 142.585C26.6467 142.989 26.6467 143.293 26.6467 143.505C26.6467 143.717 26.6251 143.834 26.6251 143.834Z" fill="#263238"/>
<path d="M101.402 81.2083H98.2964V143.848H101.402V81.2083Z" fill="#455A64"/>
<path d="M68.9118 78.9758H65.8062V143.848H68.9118V78.9758Z" fill="#455A64"/>
<path d="M101.401 143.866C101.401 143.866 101.401 143.753 101.401 143.541C101.401 143.328 101.401 143.01 101.401 142.596C101.401 141.765 101.401 140.544 101.401 138.97C101.401 135.822 101.401 131.265 101.38 125.616C101.38 114.327 101.361 98.6768 101.349 81.2082L101.423 81.2966H98.3268L98.398 81.2082C98.3763 110.496 98.3546 135.333 98.3484 143.866L98.3268 143.838H100.658H101.237H101.432H101.247H100.674L98.3268 143.855H98.302V143.827C98.302 135.294 98.2772 110.457 98.2524 81.1693V81.0808H101.504V81.1657C101.504 98.6591 101.482 114.334 101.476 125.637C101.476 131.279 101.457 135.829 101.451 138.974C101.451 140.537 101.451 141.751 101.451 142.578C101.451 142.985 101.451 143.286 101.451 143.509C101.451 143.732 101.401 143.866 101.401 143.866Z" fill="#263238"/>
<path d="M108.957 78.4062H0V82.2658H108.957V78.4062Z" fill="#455A64"/>
<path d="M108.963 82.2659C108.963 82.1244 108.963 81.0243 108.944 78.4064L108.963 78.4277L0.247486 78.5126L0.32799 78.4241V82.2836L0.247486 82.1987L77.2376 82.2341L100.46 82.2589H106.767H108.418H108.978H108.427H106.798H100.51L77.3089 82.2836L0.256775 82.319H0.17627V78.3215H0.262967L108.978 78.3852H109V78.4064C109 79.7295 109 80.6953 109 81.3356C109 81.9759 108.963 82.2659 108.963 82.2659Z" fill="#263238"/>
<path d="M49.9498 82.1561C49.8507 80.9087 49.8507 79.6536 49.9498 78.4062C50.0489 79.6536 50.0489 80.9087 49.9498 82.1561Z" fill="#263238"/>
<path d="M85.9232 60.4708L69.1875 60.3823C69.0755 60.3863 68.9665 60.4249 68.8722 60.494C68.7778 60.5632 68.7017 60.6603 68.6519 60.775L65.0849 76.7437L52.4643 76.7189C52.2822 76.7289 52.1105 76.8187 51.9848 76.9695C51.8591 77.1204 51.7891 77.3208 51.7893 77.529C51.7795 77.6401 51.7896 77.7524 51.8189 77.8589C51.8483 77.9654 51.8962 78.064 51.9599 78.1487C52.0236 78.2334 52.1017 78.3024 52.1895 78.3515C52.2773 78.4007 52.3728 78.429 52.4705 78.4347L65.3481 78.3179L82.7835 78.3391L86.465 62.1193C86.784 60.9059 86.6973 60.4708 85.9232 60.4708Z" fill="#E0E0E0"/>
<path d="M75.8875 68.5153C75.6809 68.7815 75.5647 69.1236 75.5602 69.4793C75.5557 69.8351 75.663 70.1809 75.8627 70.4539C76.2776 70.9279 76.9588 70.8076 77.383 70.2275C77.5898 69.9612 77.7057 69.6187 77.7097 69.2628C77.7137 68.9068 77.6054 68.5611 77.4047 68.2889C76.9929 67.8184 76.3117 67.9174 75.8875 68.5153Z" fill="white"/>
<path d="M70.1939 60.4141C70.2372 60.4141 69.2991 64.4434 68.1008 69.3854C66.9025 74.3275 65.8993 78.3214 65.8559 78.3072C65.8126 78.2931 66.7477 74.2779 67.946 69.3359C69.1442 64.3939 70.1505 60.3999 70.1939 60.4141Z" fill="#263238"/>
</svg>
