<svg width="189" height="150" viewBox="0 0 189 150" fill="none" xmlns="http://www.w3.org/2000/svg">
<path d="M105.136 55.0675C105.136 55.0675 129.803 59.3614 132.833 50.0198C133.265 48.6838 135.116 42.6952 135.116 42.6952L126.798 39.8621C126.798 39.8621 125.353 47.2022 124.157 47.5609C117.535 49.5259 109.872 48.7306 107.164 48.3563C106.847 48.1172 106.488 47.8364 106.072 47.4726C105.656 47.1087 105.323 46.698 104.965 46.3965C104.159 45.7207 103.624 45.6895 103.28 45.4244C102.454 44.8006 101.95 45.4764 102.324 45.8299C103.176 46.359 103.912 47.0558 104.486 47.878C105.464 49.2972 102.927 49.0113 101.95 48.9489C100.858 48.8865 98.7578 48.5174 98.7578 48.5174C98.8046 48.9853 99.5064 49.8014 100.463 50.0406C100.977 50.1728 101.497 50.2769 102.022 50.3525C102.022 50.3525 100.177 50.4928 100.213 50.9139C100.25 51.335 101.435 54.2565 103.535 54.7711L105.136 55.0675Z" fill="#A36957"/>
<path d="M161.935 141.434C161.935 141.434 149.848 103.049 149.588 101.801C149.36 100.673 153.976 73.0487 154.558 65.9009L138.225 66.5091V66.6287L131.285 67.0133L137.523 145.51H145.035L144.286 119.46C147.583 128.039 151.341 136.433 155.546 144.605L161.935 141.434Z" fill="#A36957"/>
<path d="M144.577 128.812C144.577 128.573 144.489 120.084 144.489 120.084C144.395 120.604 141.604 112.713 141.671 112.234C141.708 111.985 144.577 128.812 144.577 128.812Z" fill="#8E4B39"/>
<path d="M141.354 108.502C141.319 108.659 141.304 108.819 141.307 108.98C141.284 109.413 141.284 109.847 141.307 110.28C141.307 110.555 141.344 110.857 141.38 111.179C141.416 111.501 141.468 111.844 141.541 112.219C141.695 112.994 141.9 113.758 142.155 114.506C142.674 116.091 143.303 117.479 143.714 118.488L144.234 119.678C144.291 119.827 144.366 119.969 144.457 120.099C144.434 119.941 144.389 119.787 144.322 119.642C144.224 119.351 144.068 118.935 143.875 118.42C143.485 117.381 142.914 115.998 142.373 114.423C142.121 113.685 141.911 112.933 141.744 112.172C141.666 111.824 141.614 111.48 141.567 111.169C141.52 110.857 141.484 110.555 141.463 110.285C141.411 109.739 141.385 109.302 141.375 108.996C141.394 108.831 141.387 108.664 141.354 108.502Z" fill="#8E4B39"/>
<path d="M130.692 81.4857C130.401 70.543 131.633 59.2053 132.605 55.7639C132.698 55.4364 132.776 55.1037 132.854 54.7762L134.71 46.9786C134.71 46.9786 135.485 46.3496 133.421 43.5996C132.464 42.326 132.641 37.4551 132.641 37.4551L133.567 43.8907L125.353 39.9347C125.353 39.9347 127.952 27.6144 129.252 25.899C132.672 21.4959 138.843 22.2601 138.843 22.2601L146.926 22.1665C149.009 22.3488 151.047 22.8758 152.957 23.726L153.159 23.778V23.8196C155.478 24.9477 157.542 26.8503 158.134 29.9537C159.106 35.0118 158.8 37.3199 158.8 37.3199L152.218 37.2003L152.801 51.1373C153.321 52.8528 154.688 52.4421 156.746 60.3645C157.519 63.3563 158.073 66.4002 158.405 69.4722C158.79 73.104 158.74 76.769 158.254 80.3889L154.558 108.46H132.205L130.692 81.4857Z" fill="#0B9346"/>
<path d="M149.043 34.9961L147.842 40.1061H159.159L158.415 31.5339L149.043 34.9961Z" fill="#0B622F"/>
<path d="M159.158 40.1168C158.665 40.0212 158.164 39.9708 157.661 39.966C156.731 39.9141 155.447 39.8673 154.022 39.8725C152.598 39.8777 151.319 39.94 150.384 40.0128C149.882 40.0318 149.383 40.0944 148.892 40.2C149.392 40.2387 149.894 40.2387 150.394 40.2C151.324 40.174 152.603 40.1376 154.033 40.1324C155.462 40.1272 156.726 40.1324 157.672 40.1324C158.167 40.163 158.664 40.1578 159.158 40.1168Z" fill="#263238"/>
<path d="M134.71 47.3943C134.76 47.2257 134.782 47.0503 134.778 46.8745C134.78 46.6762 134.766 46.478 134.736 46.2819C134.696 46.0228 134.63 45.7685 134.539 45.5229C134.433 45.2238 134.301 44.935 134.143 44.66C133.982 44.3585 133.785 44.0518 133.587 43.7295C133.128 43.0607 132.752 42.3379 132.47 41.5773C132.338 41.182 132.258 40.7714 132.23 40.3557C132.206 39.9673 132.218 39.5774 132.267 39.1912C132.347 38.5312 132.483 37.8791 132.672 37.2418C132.995 36.1502 133.265 35.49 133.223 35.4744C133.13 35.6122 133.053 35.7605 132.995 35.9162C132.865 36.2125 132.688 36.644 132.506 37.1898C132.286 37.8315 132.129 38.4931 132.038 39.1652C131.981 39.5645 131.964 39.9685 131.986 40.3713C132.012 40.8079 132.095 41.2395 132.23 41.6553C132.52 42.4353 132.91 43.1744 133.39 43.8542C133.598 44.1713 133.795 44.4728 133.962 44.7587C134.119 45.0245 134.258 45.3007 134.377 45.5853C134.473 45.8187 134.546 46.0606 134.596 46.3079C134.64 46.4957 134.668 46.6871 134.679 46.8797C134.672 47.0519 134.682 47.2243 134.71 47.3943Z" fill="#263238"/>
<path d="M148.554 31.4924C148.497 31.9232 148.483 32.3585 148.512 32.792C148.512 33.5978 148.553 34.7051 148.6 35.9111C148.647 37.1171 148.704 38.24 148.756 39.0301C148.761 39.4634 148.808 39.8952 148.897 40.3194C148.95 39.8883 148.962 39.4531 148.933 39.0197C148.933 38.2192 148.897 37.1119 148.85 35.9007C148.803 34.6895 148.746 33.5718 148.689 32.7816C148.683 32.3487 148.638 31.9172 148.554 31.4924Z" fill="#263238"/>
<path d="M137.361 145.91V145.203L145.06 144.87V147.781L144.587 147.812C142.471 147.937 133.831 148.291 132.417 147.87C130.858 147.397 137.361 145.91 137.361 145.91Z" fill="#0B622F"/>
<g opacity="0.5">
<path d="M142.3 147.724C142.408 147.076 142.755 146.492 143.272 146.087C143.776 145.68 144.415 145.48 145.061 145.525V147.667L142.3 147.724Z" fill="white"/>
</g>
<g opacity="0.5">
<path d="M134.186 146.747C134.186 146.747 131.903 147.412 132.189 147.786C132.475 148.161 141.219 148.129 145.076 147.786V147.615L134.877 147.739C134.877 147.739 134.638 146.767 134.186 146.747Z" fill="white"/>
</g>
<path d="M145.185 147.604H145.05H144.676L143.282 147.672C142.108 147.719 140.48 147.76 138.687 147.771C136.894 147.781 135.266 147.771 134.092 147.714L132.698 147.656H132.319H132.189H132.709H134.102C135.277 147.656 136.904 147.693 138.697 147.688C140.491 147.682 142.113 147.646 143.288 147.615L144.681 147.578H145.201L145.185 147.604Z" fill="#263238"/>
<path d="M134.866 147.854C134.806 147.623 134.719 147.399 134.606 147.189C134.467 146.997 134.307 146.823 134.128 146.669C134.366 146.757 134.564 146.928 134.684 147.152C134.827 147.357 134.892 147.606 134.866 147.854Z" fill="#263238"/>
<path d="M137.122 146.684C137.122 146.684 136.992 146.57 136.878 146.393C136.763 146.216 136.691 146.066 136.717 146.05C136.743 146.034 136.847 146.17 136.956 146.346C137.065 146.523 137.143 146.684 137.122 146.684Z" fill="#263238"/>
<path d="M137.756 146.367C137.756 146.367 137.616 146.305 137.486 146.191C137.356 146.076 137.257 145.957 137.278 145.941C137.299 145.925 137.413 145.998 137.548 146.118C137.684 146.237 137.756 146.347 137.756 146.367Z" fill="#263238"/>
<path d="M138.131 145.645C138.003 145.691 137.866 145.709 137.73 145.697C137.596 145.712 137.459 145.697 137.33 145.655C137.458 145.609 137.595 145.591 137.73 145.603C137.865 145.585 138.002 145.6 138.131 145.645Z" fill="#263238"/>
<path d="M138.277 145.125C138.148 145.217 137.993 145.264 137.835 145.26C137.678 145.288 137.516 145.266 137.372 145.197C137.522 145.174 137.673 145.164 137.824 145.166C137.974 145.141 138.125 145.127 138.277 145.125Z" fill="#263238"/>
<path d="M136.857 146.029C136.696 146.059 136.53 146.059 136.369 146.029C136.192 146.007 136.018 145.968 135.849 145.915C135.743 145.888 135.641 145.846 135.547 145.79C135.518 145.775 135.492 145.753 135.472 145.727C135.451 145.702 135.436 145.672 135.428 145.64C135.419 145.603 135.422 145.565 135.435 145.53C135.448 145.495 135.471 145.464 135.501 145.442C135.688 145.35 135.902 145.326 136.106 145.374C136.309 145.421 136.49 145.537 136.618 145.702C136.693 145.799 136.748 145.911 136.779 146.029C136.779 146.118 136.779 146.165 136.779 146.165C136.731 146.012 136.656 145.869 136.556 145.743C136.444 145.615 136.298 145.521 136.135 145.473C136.039 145.441 135.938 145.428 135.837 145.436C135.736 145.443 135.638 145.47 135.547 145.515C135.469 145.572 135.501 145.666 135.589 145.718C135.676 145.766 135.768 145.805 135.864 145.832C136.033 145.891 136.207 145.934 136.384 145.962C136.67 146.014 136.857 146.014 136.857 146.029Z" fill="#263238"/>
<path d="M136.717 146.055C136.659 145.951 136.639 145.83 136.66 145.712C136.675 145.584 136.72 145.462 136.79 145.353C136.839 145.281 136.906 145.222 136.984 145.182C137.062 145.142 137.149 145.122 137.237 145.125C137.262 145.13 137.286 145.14 137.307 145.154C137.328 145.168 137.346 145.186 137.36 145.208C137.374 145.229 137.384 145.253 137.389 145.278C137.393 145.303 137.393 145.329 137.388 145.353C137.379 145.432 137.351 145.507 137.304 145.572C137.242 145.682 137.165 145.783 137.076 145.873C137 145.962 136.904 146.03 136.795 146.071C136.795 146.071 136.894 145.983 137.029 145.827C137.108 145.736 137.176 145.636 137.232 145.53C137.299 145.426 137.346 145.239 137.232 145.218C137.117 145.198 136.982 145.333 136.909 145.426C136.841 145.523 136.793 145.633 136.769 145.749C136.742 145.849 136.725 145.952 136.717 146.055Z" fill="#263238"/>
<path d="M145.034 145.51C145.034 145.51 144.816 145.51 144.468 145.51C144.017 145.567 143.591 145.747 143.236 146.029C142.885 146.316 142.62 146.694 142.472 147.121C142.352 147.449 142.342 147.672 142.326 147.667C142.316 147.617 142.316 147.566 142.326 147.516C142.338 147.375 142.366 147.235 142.409 147.1C142.547 146.651 142.815 146.253 143.179 145.957C143.544 145.657 143.992 145.476 144.463 145.437C144.603 145.423 144.744 145.423 144.884 145.437C144.938 145.452 144.989 145.477 145.034 145.51Z" fill="#263238"/>
<path d="M141.333 146.996C140.967 147.078 140.591 147.113 140.216 147.1C139.839 147.119 139.461 147.087 139.093 147.007C139.093 146.981 139.613 147.007 140.216 147.007C140.819 147.007 141.328 146.965 141.333 146.996Z" fill="#263238"/>
<path d="M142.836 146.975C142.836 146.975 142.794 147.085 142.742 147.199C142.69 147.313 142.664 147.417 142.638 147.412C142.612 147.407 142.596 147.293 142.638 147.163C142.68 147.033 142.815 146.96 142.836 146.975Z" fill="#263238"/>
<path d="M143.397 146.274C143.397 146.274 143.366 146.367 143.288 146.45C143.21 146.534 143.126 146.58 143.111 146.565C143.095 146.549 143.142 146.466 143.22 146.383C143.298 146.3 143.376 146.253 143.397 146.274Z" fill="#263238"/>
<path d="M144.202 145.946C144.202 145.972 144.098 145.972 143.984 146.014C143.87 146.055 143.792 146.113 143.771 146.097C143.75 146.081 143.818 145.972 143.953 145.925C144.088 145.879 144.213 145.925 144.202 145.946Z" fill="#263238"/>
<path d="M144.779 145.795C144.779 145.795 144.748 145.858 144.681 145.879C144.613 145.899 144.561 145.905 144.551 145.879C144.54 145.853 144.587 145.816 144.65 145.79C144.712 145.764 144.769 145.769 144.779 145.795Z" fill="#263238"/>
<path d="M155.395 145.229L155.103 144.589L161.991 141.127L163.203 143.778L162.781 144.002C160.905 144.979 153.17 148.842 151.704 149.034C150.071 149.247 155.395 145.229 155.395 145.229Z" fill="#0B622F"/>
<g opacity="0.5">
<path d="M160.63 144.865C160.469 144.23 160.547 143.559 160.848 142.978C161.14 142.401 161.64 141.955 162.246 141.73L163.135 143.68L160.63 144.865Z" fill="white"/>
</g>
<g opacity="0.5">
<path d="M152.832 147.298C152.832 147.298 151.023 148.857 151.439 149.06C151.855 149.263 159.819 145.676 163.193 143.778L163.11 143.628L153.872 147.916C153.872 147.916 153.253 147.131 152.832 147.298Z" fill="white"/>
</g>
<path d="M163.229 143.565L163.114 143.633L162.776 143.81L161.534 144.439C160.494 144.959 159.018 145.671 157.375 146.409C155.733 147.147 154.256 147.792 153.159 148.244L151.87 148.764L151.517 148.899C151.476 148.919 151.432 148.933 151.387 148.941L151.506 148.883L151.855 148.733L153.133 148.182C154.215 147.719 155.707 147.069 157.339 146.326C158.971 145.582 160.458 144.891 161.498 144.382L162.75 143.779L163.094 143.617L163.229 143.565Z" fill="#263238"/>
<path d="M153.919 148.025C153.766 147.832 153.592 147.658 153.399 147.506C153.193 147.386 152.975 147.289 152.749 147.214C153.001 147.198 153.251 147.274 153.451 147.428C153.675 147.563 153.841 147.775 153.919 148.025Z" fill="#263238"/>
<path d="M155.499 146.045C155.499 146.045 155.333 145.993 155.161 145.878C154.989 145.764 154.854 145.655 154.87 145.634C154.885 145.613 155.036 145.686 155.213 145.8C155.39 145.915 155.514 146.024 155.499 146.045Z" fill="#263238"/>
<path d="M155.951 145.494C155.84 145.503 155.729 145.483 155.629 145.437C155.462 145.385 155.332 145.322 155.338 145.296C155.448 145.286 155.558 145.304 155.66 145.348C155.805 145.406 155.951 145.468 155.951 145.494Z" fill="#263238"/>
<path d="M155.988 144.673C155.891 144.768 155.774 144.839 155.645 144.88C155.529 144.95 155.399 144.994 155.265 145.01C155.362 144.915 155.479 144.842 155.608 144.797C155.806 144.704 155.977 144.647 155.988 144.673Z" fill="#263238"/>
<path d="M155.899 144.153C155.899 144.153 155.779 144.329 155.551 144.454C155.418 144.541 155.262 144.588 155.104 144.589C155.23 144.504 155.364 144.431 155.504 144.371C155.629 144.288 155.762 144.215 155.899 144.153Z" fill="#263238"/>
<path d="M154.989 145.546C154.853 145.64 154.699 145.707 154.537 145.743C154.368 145.797 154.194 145.835 154.017 145.858C153.91 145.869 153.802 145.869 153.695 145.858C153.629 145.85 153.568 145.819 153.523 145.769C153.502 145.739 153.491 145.703 153.491 145.665C153.491 145.628 153.502 145.592 153.523 145.562C153.655 145.399 153.839 145.287 154.044 145.246C154.249 145.206 154.462 145.238 154.646 145.338C154.757 145.395 154.855 145.474 154.932 145.572C154.984 145.639 155 145.686 154.995 145.686C154.887 145.569 154.76 145.471 154.62 145.395C154.466 145.324 154.295 145.299 154.126 145.322C154.025 145.332 153.927 145.362 153.838 145.41C153.749 145.459 153.67 145.524 153.607 145.603C153.56 145.686 153.607 145.759 153.726 145.769C153.826 145.78 153.927 145.78 154.028 145.769C154.203 145.754 154.377 145.725 154.547 145.681C154.813 145.608 154.984 145.53 154.989 145.546Z" fill="#263238"/>
<path d="M154.88 145.645C154.783 145.576 154.715 145.474 154.688 145.359C154.652 145.234 154.643 145.103 154.662 144.974C154.672 144.891 154.702 144.812 154.749 144.743C154.796 144.675 154.859 144.618 154.932 144.579C155.041 144.543 155.301 144.766 155.317 144.849C155.333 144.932 155.187 144.886 155.182 144.958C155.167 145.083 155.137 145.205 155.093 145.322C155.059 145.435 154.998 145.538 154.917 145.624C154.917 145.624 154.969 145.499 155.031 145.301C155.063 145.186 155.083 145.067 155.093 144.948C155.093 144.828 155.094 144.636 154.958 144.667C154.823 144.698 154.776 144.87 154.745 144.99C154.719 145.106 154.719 145.227 154.745 145.343C154.782 145.447 154.827 145.548 154.88 145.645Z" fill="#263238"/>
<path d="M162.22 141.725C162.22 141.725 162.012 141.798 161.7 141.98C161.309 142.21 160.992 142.547 160.786 142.951C160.579 143.356 160.493 143.81 160.536 144.262C160.557 144.451 160.589 144.638 160.629 144.823C160.6 144.78 160.577 144.733 160.562 144.683C160.519 144.549 160.488 144.412 160.468 144.272C160.406 143.805 160.487 143.33 160.702 142.91C160.916 142.49 161.254 142.146 161.669 141.923C161.794 141.855 161.924 141.8 162.059 141.756C162.111 141.737 162.165 141.727 162.22 141.725Z" fill="#263238"/>
<path d="M159.465 144.605C159.164 144.83 158.836 145.015 158.488 145.156C158.159 145.326 157.81 145.451 157.448 145.53C157.448 145.504 157.911 145.327 158.488 145.073C159.065 144.818 159.45 144.568 159.465 144.605Z" fill="#263238"/>
<path d="M160.828 143.96C160.828 143.96 160.828 144.075 160.828 144.2C160.828 144.324 160.828 144.433 160.828 144.439C160.828 144.444 160.739 144.345 160.739 144.2C160.739 144.054 160.802 143.955 160.828 143.96Z" fill="#263238"/>
<path d="M161.051 143.087C161.077 143.087 161.051 143.191 161.051 143.295C161.051 143.399 160.957 143.482 160.936 143.472C160.915 143.461 160.936 143.368 160.962 143.264C160.988 143.16 161.025 143.077 161.051 143.087Z" fill="#263238"/>
<path d="M161.669 142.463C161.669 142.489 161.581 142.526 161.498 142.609C161.415 142.692 161.363 142.78 161.337 142.775C161.311 142.77 161.337 142.645 161.435 142.541C161.534 142.437 161.669 142.437 161.669 142.463Z" fill="#263238"/>
<path d="M162.116 142.084C162.116 142.084 162.116 142.156 162.064 142.203C162.012 142.25 161.96 142.281 161.945 142.26C161.929 142.24 161.945 142.188 161.997 142.141C162.049 142.094 162.101 142.068 162.116 142.084Z" fill="#263238"/>
<path d="M137.335 22.8786C137.367 20.8772 137.393 18.9018 137.393 18.9018C137.393 18.9018 134.164 18.5847 133.93 15.2993C133.697 12.0139 133.821 4.43982 133.821 4.43982L139.67 1.42993L145.908 6.4724L145.653 23.0762C145.635 23.6283 145.507 24.1714 145.277 24.6736C145.047 25.1759 144.719 25.6272 144.312 26.0013C143.906 26.3754 143.429 26.6648 142.909 26.8525C142.39 27.0402 141.838 27.1225 141.286 27.0945C140.21 27.0408 139.196 26.5712 138.459 25.7847C137.722 24.9982 137.319 23.9563 137.335 22.8786Z" fill="#A36957"/>
<path d="M134.518 10.049C134.518 10.1579 134.561 10.2623 134.638 10.3394C134.715 10.4164 134.82 10.4596 134.929 10.4596C135.038 10.4596 135.142 10.4164 135.219 10.3394C135.296 10.2623 135.339 10.1579 135.339 10.049C135.34 9.99416 135.33 9.93976 135.309 9.88899C135.289 9.83822 135.258 9.7921 135.219 9.75334C135.18 9.71458 135.134 9.68398 135.084 9.66333C135.033 9.64268 134.978 9.63239 134.924 9.63309C134.815 9.6358 134.712 9.68081 134.636 9.75851C134.56 9.83621 134.518 9.94045 134.518 10.049Z" fill="#263238"/>
<path d="M134.118 9.59136C134.17 9.64855 134.471 9.37823 134.913 9.35224C135.355 9.32625 135.688 9.53418 135.734 9.477C135.781 9.41982 135.698 9.34704 135.552 9.24827C135.359 9.11607 135.126 9.05337 134.892 9.07036C134.657 9.08734 134.436 9.18303 134.263 9.34184C134.118 9.44581 134.118 9.57057 134.118 9.59136Z" fill="#263238"/>
<path d="M139.269 10.0491C139.272 10.1298 139.299 10.2078 139.346 10.2734C139.394 10.3389 139.459 10.3891 139.535 10.4177C139.61 10.4462 139.692 10.4518 139.771 10.4338C139.85 10.4159 139.922 10.375 139.977 10.3165C140.033 10.258 140.07 10.1844 140.084 10.1048C140.098 10.0253 140.088 9.94338 140.056 9.86934C140.024 9.7953 139.971 9.73244 139.903 9.68859C139.835 9.64474 139.756 9.62187 139.675 9.62283C139.62 9.62349 139.566 9.63512 139.516 9.65704C139.465 9.67895 139.42 9.71071 139.382 9.75044C139.344 9.79017 139.315 9.83707 139.296 9.88836C139.276 9.93966 139.267 9.99431 139.269 10.0491Z" fill="#263238"/>
<path d="M139.009 9.59136C139.061 9.64855 139.363 9.37823 139.805 9.35224C140.247 9.32625 140.579 9.53418 140.621 9.477C140.662 9.41982 140.59 9.34704 140.444 9.24827C140.25 9.11607 140.017 9.05337 139.783 9.07036C139.549 9.08734 139.328 9.18303 139.155 9.34184C139.025 9.44581 138.983 9.57057 139.009 9.59136Z" fill="#263238"/>
<path d="M137.455 13.2928C137.22 13.2252 136.977 13.1937 136.732 13.1993C136.623 13.1993 136.514 13.1993 136.493 13.1005C136.478 12.9762 136.497 12.8501 136.55 12.7366C136.644 12.4351 136.743 12.1232 136.841 11.7957C137.118 10.9952 137.333 10.1749 137.486 9.34204C137.152 10.1195 136.876 10.9205 136.66 11.7385C136.566 12.066 136.472 12.3831 136.384 12.6846C136.319 12.8337 136.306 13.0004 136.348 13.1577C136.364 13.1988 136.39 13.2354 136.423 13.2644C136.457 13.2933 136.497 13.3138 136.54 13.324C136.604 13.3312 136.668 13.3312 136.732 13.324C136.973 13.3451 137.216 13.3346 137.455 13.2928Z" fill="#263238"/>
<path d="M150.799 9.47712C150.763 9.24319 150.831 9.73184 150.799 9.36795C150.753 8.92076 150.682 8.47647 150.586 8.03715C148.767 1.20642 142.887 -0.0100056 141.749 0.000391294C140.501 0.000391294 136.94 -0.0879866 134.96 2.39166C134.196 3.27568 133.685 4.34884 133.479 5.49855C133.273 6.64826 133.381 7.83216 133.79 8.92608L138.989 8.01116C138.604 6.71676 139.134 5.10525 139.436 4.37227V4.34107C140.423 9.24838 145.715 10.3505 145.715 10.3505L145.773 17.5451C149.63 16.9888 150.872 12.3466 150.784 9.5187L150.799 9.47712Z" fill="#263238"/>
<path d="M145.664 13.2981C145.633 12.8042 145.404 11.6242 145.57 11.1615C145.737 10.6989 146.251 10.5897 146.818 10.5949C147.14 10.6064 147.446 10.7392 147.674 10.9667C147.903 11.1942 148.037 11.4996 148.05 11.8217C148.064 12.1011 148.008 12.3795 147.887 12.6318C147.766 12.8841 147.585 13.1024 147.359 13.2669C147.109 13.405 146.832 13.4848 146.547 13.5001C146.263 13.5154 145.978 13.4659 145.716 13.3553" fill="#A36957"/>
<path d="M146.277 12.6534C146.277 12.617 146.438 12.6846 146.646 12.617C146.774 12.5676 146.884 12.4796 146.96 12.3651C147.037 12.2506 147.076 12.1152 147.072 11.9776C147.08 11.9071 147.074 11.8356 147.053 11.7677C147.033 11.6997 146.998 11.6367 146.952 11.5825C146.86 11.5143 146.744 11.4846 146.63 11.4993C146.407 11.5253 146.256 11.5877 146.24 11.5513C146.225 11.5149 146.334 11.4058 146.599 11.3278C146.686 11.2991 146.778 11.2912 146.868 11.3048C146.958 11.3183 147.044 11.3529 147.119 11.4058C147.198 11.4788 147.26 11.5696 147.298 11.6707C147.336 11.7719 147.349 11.8806 147.337 11.988C147.333 12.2007 147.254 12.4052 147.114 12.565C147.005 12.6966 146.851 12.7836 146.682 12.8094C146.391 12.8249 146.256 12.669 146.277 12.6534Z" fill="#8E4B39"/>
<path d="M138.754 8.29695C138.754 8.36453 139.274 8.29695 139.794 8.42691C140.314 8.55687 140.771 8.82719 140.834 8.77001C140.896 8.71283 140.506 8.32815 139.872 8.18259C139.689 8.11901 139.494 8.09629 139.301 8.11604C139.108 8.1358 138.921 8.19754 138.754 8.29695Z" fill="#263238"/>
<path d="M137.039 18.8288C137.284 18.9306 137.548 18.9802 137.814 18.9744C138.451 19.0131 139.089 18.9392 139.701 18.7561C140.316 18.5789 140.885 18.2663 141.364 17.8411C141.577 17.6787 141.747 17.4662 141.858 17.2225C141.827 17.1965 141.629 17.4201 141.255 17.7008C140.765 18.0673 140.214 18.3437 139.628 18.5169C138.779 18.7157 137.911 18.8203 137.039 18.8288Z" fill="#8E4B39"/>
<path d="M149.822 6.84682C149.743 6.40833 149.828 5.9559 150.063 5.57675C150.297 5.1976 150.663 4.91857 151.091 4.79345C151.526 4.68914 151.979 4.68163 152.417 4.77145C152.855 4.86128 153.269 5.04624 153.628 5.31329C154.136 5.6425 154.57 6.07592 154.898 6.58491C155.227 7.0939 155.444 7.66687 155.535 8.26599C155.619 8.86742 155.545 9.48017 155.322 10.0448C155.099 10.6095 154.734 11.107 154.262 11.489C153.78 11.8581 153.198 12.0742 152.592 12.1094C151.986 12.1446 151.384 11.9973 150.862 11.6866C150.445 11.3811 150.096 10.9924 149.838 10.5449C149.579 10.0974 149.416 9.60107 149.36 9.08734C149.252 8.06686 149.287 7.03626 149.464 6.02547" fill="#263238"/>
<path d="M137.626 15.0706C137.562 15.0038 137.512 14.924 137.481 14.8364C137.449 14.7488 137.437 14.6556 137.445 14.5629C137.453 14.4703 137.481 14.3804 137.526 14.2994C137.572 14.2184 137.634 14.1481 137.709 14.0933C137.873 13.993 138.067 13.9531 138.257 13.9807C138.446 14.0082 138.621 14.1014 138.749 14.244C138.814 14.3056 138.862 14.3829 138.889 14.4685C138.915 14.5541 138.919 14.6451 138.9 14.7327C138.85 14.8394 138.77 14.9297 138.671 14.9932C138.572 15.0567 138.456 15.0907 138.339 15.0913C138.062 15.133 137.78 15.1224 137.507 15.0602" fill="#8E4B39"/>
<path d="M138.989 13.8334C139.051 13.8646 138.781 14.3533 138.157 14.6444C137.982 14.7455 137.786 14.8039 137.585 14.8147C137.383 14.8256 137.182 14.7886 136.998 14.7068C136.998 14.6288 137.517 14.6392 138.037 14.3949C138.557 14.1506 138.926 13.7867 138.989 13.8334Z" fill="#263238"/>
<path d="M137.585 68.5989C137.585 68.5989 154.558 59.3821 157.126 50.5812C157.682 48.6734 158.166 40.1116 158.166 40.1116L149.406 40.3455C149.406 40.3455 148.845 48.7929 148.169 49.843C144.437 55.6549 137.039 60.7233 134.741 62.2049C134.346 62.2309 133.884 62.2517 133.338 62.2465C132.87 62.2465 132.267 62.1477 131.778 62.1529C130.739 62.1529 130.297 62.4908 129.865 62.522C128.826 62.5844 128.893 63.4265 129.408 63.4473C130.397 63.2961 131.407 63.3456 132.376 63.5929C134.045 64.0295 131.945 65.4591 131.16 66.0569C130.286 66.7223 128.457 67.814 128.457 67.814C128.794 68.1363 129.86 68.2974 130.744 67.8556C131.225 67.6154 131.694 67.3499 132.147 67.0602C132.147 67.0602 130.843 68.3702 131.139 68.6665C131.435 68.9628 134.258 70.3976 136.176 69.4203L137.585 68.5989Z" fill="#A36957"/>
<path d="M147.322 34.7153H143.303V35.8226H147.322V34.7153Z" fill="#263238"/>
<path d="M27.2374 123.159L12.5659 136.403L8.54248 131.26L21.4005 115.33L27.2374 123.159Z" fill="#FFBE9D"/>
<path d="M12.8977 136.899L13.3932 136.453L8.76034 130.755L6.67432 132.583L6.95179 132.94C8.20043 134.526 13.3932 140.908 14.6072 141.651C15.9747 142.474 12.8977 136.899 12.8977 136.899Z" fill="#0B622F"/>
<g opacity="0.5">
<path d="M8.478 134.531C8.86701 134.041 9.06274 133.426 9.028 132.801C8.99626 132.186 8.73659 131.605 8.29963 131.171L6.76855 132.519L8.478 134.531Z" fill="white"/>
</g>
<g opacity="0.5">
<path d="M14.3097 139.694C14.3097 139.694 15.3007 141.74 14.83 141.775C14.3593 141.809 8.88407 135.551 6.68408 132.583L6.81292 132.484L13.18 139.832C13.18 139.832 14.0174 139.386 14.3097 139.694Z" fill="white"/>
</g>
<path d="M6.74414 132.395C6.76323 132.432 6.78651 132.467 6.81352 132.499L7.03648 132.782L7.86892 133.817C8.58243 134.684 9.57836 135.868 10.7081 137.152C11.8378 138.435 12.8883 139.58 13.6563 140.392L14.5779 141.354L14.8306 141.611L14.9247 141.695C14.9011 141.66 14.8746 141.627 14.8455 141.596L14.6027 141.329L13.7058 140.338C12.9477 139.51 11.9072 138.356 10.7775 137.077C9.64774 135.799 8.64188 134.6 7.91846 133.758L7.06126 132.767L6.82838 132.489L6.74414 132.395Z" fill="#263238"/>
<path d="M13.0908 139.907C13.2934 139.803 13.5081 139.725 13.73 139.674C13.9557 139.65 14.1832 139.65 14.4088 139.674C14.1914 139.574 13.949 139.544 13.7136 139.585C13.4782 139.627 13.261 139.739 13.0908 139.907Z" fill="#263238"/>
<path d="M12.5063 137.568C12.6253 137.595 12.7491 137.595 12.8681 137.568C13.0663 137.538 13.2248 137.494 13.2199 137.469C13.1012 137.438 12.9768 137.438 12.8581 137.469C12.7347 137.474 12.6142 137.508 12.5063 137.568Z" fill="#263238"/>
<path d="M12.333 136.919C12.333 136.919 12.4618 136.978 12.6303 136.998C12.7988 137.018 12.9375 136.998 12.9425 136.998C12.9474 136.998 12.8087 136.939 12.6402 136.919C12.4717 136.899 12.333 136.894 12.333 136.919Z" fill="#263238"/>
<path d="M12.6006 136.166C12.6504 136.285 12.7247 136.393 12.8186 136.483C12.9573 136.641 13.0812 136.76 13.101 136.745C13.1209 136.73 13.0218 136.587 12.883 136.428C12.7443 136.27 12.6204 136.166 12.6006 136.166Z" fill="#263238"/>
<path d="M12.8828 135.764C12.9003 135.915 12.9664 136.056 13.0711 136.166C13.2198 136.364 13.3882 136.473 13.4031 136.453C13.4179 136.433 13.2842 136.3 13.1405 136.111C13.0637 135.989 12.9776 135.873 12.8828 135.764Z" fill="#263238"/>
<path d="M13.1306 137.33C13.2105 137.467 13.3166 137.587 13.4427 137.682C13.5699 137.796 13.7076 137.897 13.854 137.984C13.9409 138.04 14.0341 138.085 14.1315 138.118C14.1922 138.141 14.259 138.141 14.3198 138.118C14.3504 138.1 14.3753 138.074 14.392 138.042C14.4086 138.011 14.4162 137.975 14.4139 137.94C14.3608 137.748 14.2431 137.58 14.0807 137.464C13.9182 137.349 13.7209 137.293 13.522 137.306C13.4041 137.311 13.2889 137.343 13.1851 137.4C13.1108 137.439 13.0761 137.469 13.081 137.474C13.2203 137.412 13.3699 137.377 13.522 137.37C13.6851 137.365 13.8458 137.41 13.9828 137.499C14.0665 137.547 14.1398 137.611 14.1985 137.687C14.2572 137.764 14.3001 137.851 14.3247 137.945C14.3247 138.034 14.2454 138.074 14.1562 138.044C14.0655 138.01 13.9777 137.968 13.8936 137.92C13.7555 137.84 13.6231 137.751 13.4972 137.652C13.2594 137.454 13.1405 137.32 13.1306 137.33Z" fill="#263238"/>
<path d="M13.1948 137.439C13.1948 137.439 13.3286 137.439 13.4723 137.266C13.5553 137.172 13.6147 137.06 13.6457 136.939C13.6697 136.863 13.6751 136.782 13.6613 136.704C13.6475 136.625 13.6149 136.551 13.5664 136.488C13.5273 136.459 13.4786 136.447 13.4307 136.454C13.3827 136.46 13.339 136.485 13.3088 136.523C13.2618 136.581 13.2264 136.649 13.2047 136.721C13.1677 136.837 13.1444 136.956 13.1354 137.077C13.1209 137.188 13.1328 137.3 13.17 137.405C13.17 137.405 13.17 137.276 13.1998 137.082C13.2166 136.97 13.2431 136.859 13.279 136.75C13.3137 136.637 13.4178 136.483 13.5119 136.557C13.5468 136.611 13.5697 136.671 13.5791 136.735C13.5885 136.798 13.5842 136.862 13.5664 136.924C13.5399 137.032 13.491 137.133 13.4227 137.221C13.3038 137.375 13.1849 137.424 13.1948 137.439Z" fill="#263238"/>
<path d="M8.33936 131.211C8.33936 131.211 8.49296 131.354 8.68125 131.627C8.92889 131.982 9.07143 132.399 9.09247 132.831C9.11351 133.263 9.01218 133.693 8.80016 134.07C8.6416 134.357 8.48801 134.506 8.50288 134.516C8.51774 134.526 8.54747 134.491 8.61189 134.421C8.7028 134.322 8.78408 134.214 8.85467 134.099C9.08667 133.716 9.20043 133.273 9.1817 132.826C9.15931 132.379 9.00213 131.949 8.7308 131.592C8.65219 131.483 8.56069 131.383 8.45827 131.295C8.38395 131.211 8.34431 131.181 8.33936 131.211Z" fill="#263238"/>
<path d="M9.61279 134.754C9.78496 135.067 9.99642 135.356 10.2421 135.616C10.4676 135.895 10.7292 136.143 11.02 136.354C11.02 136.354 10.6979 136.002 10.3114 135.561C9.92496 135.12 9.63261 134.739 9.61279 134.754Z" fill="#263238"/>
<path d="M8.67607 133.688C8.67607 133.688 8.62653 133.783 8.57698 133.892C8.52743 134.001 8.46798 134.085 8.4878 134.105C8.50762 134.125 8.59681 134.055 8.65626 133.931C8.71572 133.807 8.69589 133.688 8.67607 133.688Z" fill="#263238"/>
<path d="M8.81984 132.826C8.79507 132.826 8.7703 132.91 8.76535 133.014C8.76039 133.119 8.76534 133.213 8.79507 133.213C8.8248 133.213 8.84462 133.128 8.85453 133.019C8.86444 132.91 8.84462 132.826 8.81984 132.826Z" fill="#263238"/>
<path d="M8.54248 132.043C8.54248 132.043 8.59203 132.137 8.63167 132.241C8.67131 132.346 8.68617 132.44 8.71095 132.445C8.73572 132.45 8.77041 132.336 8.71095 132.207C8.65149 132.078 8.54248 132.023 8.54248 132.043Z" fill="#263238"/>
<path d="M8.28467 131.533C8.28467 131.533 8.28467 131.597 8.28467 131.662C8.28467 131.726 8.34412 131.766 8.36889 131.756C8.39367 131.746 8.39367 131.691 8.36889 131.632C8.34412 131.572 8.30944 131.528 8.28467 131.533Z" fill="#263238"/>
<path d="M53.335 123.02L55.1039 143.023H47.5377L44.208 123.02H53.335Z" fill="#FFBE9D"/>
<path d="M54.8612 143.212L54.8364 142.543L47.4932 142.508L47.5824 145.283H48.0333C50.0499 145.322 58.2949 145.342 59.6228 144.886C61.1093 144.386 54.8612 143.212 54.8612 143.212Z" fill="#0B622F"/>
<g opacity="0.5">
<path d="M50.2231 145.129C50.0926 144.517 49.7395 143.975 49.2321 143.608C48.7359 143.242 48.1211 143.074 47.5078 143.137L47.5821 145.179L50.2231 145.129Z" fill="white"/>
</g>
<g opacity="0.5">
<path d="M57.9185 143.896C57.9185 143.896 60.1135 144.446 59.8559 144.812C59.5982 145.179 51.269 145.471 47.5825 145.283V145.119L57.2991 144.857C57.2991 144.857 57.4924 143.93 57.9185 143.896Z" fill="white"/>
</g>
<path d="M47.4736 145.119H47.5975H47.9592H49.2871C50.407 145.119 51.9578 145.119 53.6673 145.045C55.3767 144.971 56.9276 144.896 58.0425 144.817L59.3704 144.718L59.7272 144.683C59.8114 144.683 59.856 144.683 59.851 144.683H59.7272H59.3655L58.0425 144.758C56.9227 144.817 55.3767 144.896 53.6673 144.956C51.9578 145.015 50.407 145.045 49.2871 145.06H47.9592H47.5975C47.5528 145.072 47.5107 145.092 47.4736 145.119Z" fill="#263238"/>
<path d="M57.3088 144.971C57.3558 144.749 57.4307 144.534 57.5318 144.331C57.655 144.139 57.8015 143.963 57.9678 143.806C57.7459 143.903 57.5688 144.08 57.4723 144.302C57.3396 144.498 57.2816 144.735 57.3088 144.971Z" fill="#263238"/>
<path d="M55.1187 143.955C55.1187 143.955 55.2376 143.836 55.3367 143.668C55.4083 143.569 55.4574 143.456 55.4804 143.336C55.4804 143.336 55.3614 143.45 55.2623 143.623C55.1633 143.796 55.1187 143.94 55.1187 143.955Z" fill="#263238"/>
<path d="M54.5143 143.662C54.5143 143.662 54.6431 143.598 54.767 143.484C54.8909 143.37 54.9751 143.256 54.9553 143.236C54.9355 143.216 54.8265 143.301 54.7076 143.42C54.5886 143.539 54.4995 143.648 54.5143 143.662Z" fill="#263238"/>
<path d="M54.1279 142.989C54.2509 143.029 54.3813 143.041 54.5095 143.023C54.6391 143.035 54.7697 143.016 54.891 142.969C54.768 142.929 54.6376 142.917 54.5095 142.934C54.3798 142.923 54.2492 142.941 54.1279 142.989Z" fill="#263238"/>
<path d="M53.9741 142.508C54.1019 142.587 54.2505 142.625 54.4002 142.617C54.5497 142.635 54.7013 142.61 54.8363 142.543C54.6929 142.529 54.5486 142.529 54.4052 142.543C54.263 142.517 54.1186 142.505 53.9741 142.508Z" fill="#263238"/>
<path d="M55.3418 143.311C55.4976 143.338 55.6567 143.338 55.8125 143.311C55.981 143.282 56.1467 143.239 56.308 143.182C56.4054 143.151 56.4986 143.107 56.5855 143.053C56.6141 143.038 56.6391 143.017 56.6588 142.992C56.6785 142.966 56.6924 142.936 56.6994 142.905C56.7048 142.87 56.7001 142.834 56.6861 142.802C56.6721 142.769 56.6492 142.741 56.6202 142.721C56.5032 142.668 56.3758 142.642 56.2473 142.644C56.1188 142.647 55.9925 142.679 55.8779 142.737C55.7632 142.795 55.6631 142.878 55.5849 142.98C55.5066 143.082 55.4524 143.2 55.426 143.326C55.4172 143.368 55.4172 143.412 55.426 143.455C55.4691 143.309 55.5361 143.172 55.6242 143.048C55.7262 142.921 55.8618 142.825 56.0157 142.771C56.195 142.697 56.3963 142.697 56.5756 142.771C56.6548 142.825 56.6301 142.91 56.5458 142.964C56.464 143.013 56.3777 143.055 56.2882 143.088C56.1266 143.146 55.961 143.193 55.7927 143.227C55.5202 143.286 55.3418 143.296 55.3418 143.311Z" fill="#263238"/>
<path d="M55.4657 143.331C55.517 143.228 55.531 143.111 55.5054 142.999C55.487 142.877 55.4394 142.761 55.3666 142.662C55.3231 142.596 55.2645 142.541 55.1955 142.502C55.1266 142.463 55.0493 142.442 54.9702 142.439C54.9226 142.45 54.8815 142.48 54.8556 142.522C54.8297 142.564 54.821 142.614 54.8315 142.662C54.8436 142.736 54.8743 142.806 54.9207 142.865C54.9838 142.967 55.0605 143.06 55.1486 143.142C55.2242 143.225 55.3198 143.286 55.4261 143.321C55.4261 143.321 55.327 143.241 55.1932 143.098C55.1173 143.013 55.0493 142.922 54.99 142.825C54.9207 142.726 54.8711 142.548 54.99 142.523C55.109 142.498 55.2328 142.622 55.3072 142.711C55.3779 142.799 55.4271 142.903 55.4509 143.013C55.4671 143.118 55.4721 143.225 55.4657 143.331Z" fill="#263238"/>
<path d="M47.5527 143.103C47.7326 143.093 47.9129 143.093 48.0928 143.103C48.5224 143.137 48.9342 143.289 49.282 143.544C49.6237 143.799 49.8906 144.141 50.055 144.535C50.1788 144.847 50.1937 145.055 50.2135 145.055C50.221 145.006 50.221 144.956 50.2135 144.906C50.1963 144.773 50.1647 144.642 50.1194 144.515C49.9707 144.092 49.7 143.723 49.3415 143.455C48.9802 143.188 48.5467 143.036 48.0978 143.019C47.9635 143.012 47.8289 143.02 47.6964 143.043C47.6445 143.052 47.5952 143.072 47.5527 143.103Z" fill="#263238"/>
<path d="M51.1152 144.391C51.8253 144.5 52.5494 144.477 53.2508 144.322C53.2508 144.322 52.7553 144.347 52.1855 144.366C51.6157 144.386 51.1202 144.366 51.1152 144.391Z" fill="#263238"/>
<path d="M49.6685 144.435C49.6685 144.435 49.7131 144.534 49.7626 144.639C49.8122 144.743 49.8468 144.842 49.8716 144.842C49.8964 144.842 49.9063 144.723 49.8419 144.599C49.7775 144.475 49.7031 144.416 49.6685 144.435Z" fill="#263238"/>
<path d="M49.1235 143.781C49.1235 143.781 49.1582 143.876 49.2375 143.945C49.3168 144.014 49.3911 144.069 49.406 144.049C49.4208 144.029 49.3762 143.955 49.297 143.886C49.2177 143.816 49.1434 143.762 49.1235 143.781Z" fill="#263238"/>
<path d="M48.3459 143.504C48.3459 143.529 48.445 143.504 48.554 143.559C48.663 143.613 48.7423 143.643 48.7621 143.628C48.7819 143.613 48.7175 143.514 48.5788 143.474C48.44 143.435 48.336 143.479 48.3459 143.504Z" fill="#263238"/>
<path d="M47.7905 143.375C47.7905 143.4 47.8252 143.435 47.8847 143.46C47.9441 143.484 48.0036 143.46 48.0135 143.46C48.0234 143.46 47.9788 143.4 47.9144 143.38C47.85 143.361 47.7955 143.356 47.7905 143.375Z" fill="#263238"/>
<path d="M40.0461 64.3192C40.0461 64.3192 45.9623 103.617 45.1002 105.515C44.238 107.412 25.0823 127.034 25.0823 127.034L17.8877 114.721C17.8877 114.721 30.5674 100.669 30.389 99.9402C30.2106 99.2118 21.2472 61.158 21.2472 61.158L40.0461 64.3192Z" fill="#263238"/>
<path d="M42.1465 78.8175C42.087 78.4013 37.3154 67.669 37.3154 67.669L39.6343 64.3987L40.0456 64.3145L42.1465 78.8175Z" fill="#263238"/>
<path d="M17.8871 60.613L17.5304 62.0698C16.4793 66.3629 17.1253 70.8961 19.334 74.7247L35.3731 102.532C36.5168 104.499 37.3524 106.629 37.8506 108.849L41.8442 126.831H54.9996C54.9996 126.831 53.3744 114.508 51.9275 105.5C50.8325 98.7065 41.7402 77.6184 37.3353 67.659L40.0654 64.3045L35.3235 63.5117L17.8871 60.613Z" fill="#263238"/>
<path d="M37.6626 67.5942C37.8481 68.1932 38.0733 68.7792 38.3365 69.3483C38.7725 70.4235 39.377 71.91 40.0162 73.56C40.6554 75.21 41.2153 76.7113 41.6216 77.8014C41.8117 78.3999 42.0435 78.9844 42.3153 79.5505C42.2979 79.3812 42.2597 79.2148 42.2013 79.055C42.1171 78.7428 41.9783 78.2919 41.795 77.7419C41.4383 76.632 40.9081 75.1158 40.2639 73.4658C39.6198 71.8158 38.9905 70.3343 38.5049 69.2789C38.2671 68.7487 38.064 68.3226 37.9153 68.0303C37.855 67.8723 37.7697 67.7251 37.6626 67.5942Z" fill="#455A64"/>
<path d="M39.1044 114.305C39.1121 114.201 39.1121 114.096 39.1044 113.992C39.0797 113.764 39.045 113.467 39.0053 113.105C38.9657 112.744 38.9013 112.243 38.7923 111.703C38.6833 111.163 38.5891 110.539 38.4107 109.865C38.3265 109.528 38.2423 109.171 38.1481 108.805C38.054 108.438 37.9301 108.061 37.8162 107.67C37.5932 106.877 37.286 106.06 36.9788 105.192C36.2625 103.333 35.4471 101.514 34.536 99.742C32.8466 96.5371 30.9773 93.4303 28.9369 90.4366C28.164 89.2871 27.5248 88.3605 27.0788 87.7263L26.5536 86.9979C26.4974 86.9107 26.4327 86.8294 26.3604 86.7551C26.3993 86.8523 26.451 86.944 26.514 87.0276L27.0094 87.7857L28.8031 90.5407C30.2896 92.8745 32.3756 96.1051 34.3229 99.8659C35.2842 101.749 36.1067 103.587 36.7707 105.316C37.0779 106.178 37.395 106.991 37.6229 107.794C37.7418 108.18 37.8707 108.552 37.9747 108.919C38.0788 109.285 38.163 109.632 38.2472 109.969C38.4405 110.638 38.5495 111.252 38.6684 111.792C38.7873 112.332 38.8666 112.783 38.9261 113.18C38.9855 113.576 39.0351 113.829 39.0747 114.062C39.0759 114.144 39.0859 114.225 39.1044 114.305Z" fill="#455A64"/>
<path d="M2.19025 61.718L1.56097 63.4721C1.12494 65.1171 0.817735 66.014 1.06548 66.6185C1.41233 67.4212 2.26953 66.8117 2.26953 66.8117C2.26953 66.8117 2.23979 68.1099 2.97808 68.2585C3.13332 68.2768 3.29041 68.2461 3.42727 68.1705C3.56413 68.095 3.67389 67.9785 3.74114 67.8374C3.74114 67.8374 3.74114 69.0018 4.1078 69.3585C4.60329 69.854 5.15826 69.2446 5.15826 69.2446C5.49519 70.9441 6.38707 71.1324 6.59023 70.845C6.79338 70.5576 6.69428 69.2941 6.69428 69.2941C6.77355 68.3031 6.94203 65.5184 7.9677 66.9455C8.99337 68.3725 10.3263 69.091 10.8217 69.0315C10.934 69.0067 11.0357 68.9474 11.1125 68.8619C11.1893 68.7763 11.2374 68.6688 11.25 68.5546C11.2626 68.4403 11.239 68.3249 11.1826 68.2247C11.1263 68.1245 11.0399 68.0445 10.9357 67.9959C10.4513 67.6519 10.0177 67.2416 9.64743 66.777C9.33388 66.4147 9.08271 66.0028 8.90419 65.5581C8.70599 65.0378 8.55238 64.5919 8.43346 64.2054L7.51185 62.0946L2.19025 61.718Z" fill="#FFBE9D"/>
<path d="M57.8834 27.8012L57.9528 27.608C58.5197 26.0162 59.001 24.3953 59.3947 22.7521C59.7812 20.6909 59.5978 20.6463 59.3501 20.6364C58.6861 20.6066 58.5276 24.2386 58.1113 23.426C57.6951 22.6134 58.8149 19.026 58.1113 19.0211C57.1996 19.0211 57.1204 22.8265 57.0758 23.1436C57.0312 23.4607 56.5803 23.421 56.6249 23.1436C56.6893 22.7323 57.2442 18.372 56.3523 18.3621C55.8568 18.3621 55.9559 19.249 55.9559 19.249C55.9559 19.249 55.733 23.3765 55.3118 23.3566C54.8906 23.3368 54.9303 20.9089 55.0046 20.0913C55.0789 19.2738 54.7271 18.9121 54.3456 19.1648C54.083 19.3382 53.7956 21.8355 53.7411 22.6332C53.6866 23.431 53.5726 25.6706 52.7501 24.5062C52.7353 24.4892 52.722 24.471 52.7105 24.4517C51.9177 23.2823 50.9217 22.6431 50.5105 22.658C50.4216 22.6708 50.3378 22.7075 50.2681 22.7642C50.1984 22.8209 50.1455 22.8955 50.115 22.98C50.0844 23.0645 50.0774 23.1557 50.0947 23.2439C50.112 23.332 50.153 23.4138 50.2132 23.4805C50.2544 23.5381 50.3066 23.5869 50.3668 23.6242L50.451 23.6837C50.8012 24.0211 51.1166 24.393 51.3925 24.7936C51.6477 25.1462 51.8404 25.5401 51.9623 25.958C52.101 26.4535 52.2001 26.8499 52.2744 27.2017L51.9623 30.1746H57.3681L57.8983 28.4206" fill="#FFBE9D"/>
<path d="M27.7333 27.727C27.7333 27.727 18.1901 24.8383 17.8879 37.1067C17.8036 40.7188 19.7807 45.8521 20.9451 48.7161C21.3427 49.6809 21.3848 50.7555 21.064 51.7485C20.0433 54.9444 17.4766 59.6764 17.0356 62.3075L40.0463 64.3192L39.6252 44.0733L44.8724 44.4747C42.0779 26.8797 33.4166 27.5486 33.4166 27.5486L27.7333 27.732" fill="#0B622F"/>
<path d="M23.1098 39.1085C23.1098 39.1085 18.7197 41.695 18.467 41.8635C16.1432 43.449 10.5391 46.427 10.5391 46.427C10.3806 47.7499 8.75536 63.68 8.75536 63.68L0 63.5413C0 63.5413 1.42207 48.3792 1.55585 45.3666C1.55585 45.3666 2.05134 41.2887 6.40177 37.9937C10.7522 34.6986 19.126 29.3969 22.2179 28.1135" fill="#0B622F"/>
<path d="M40.4027 31.8993L47.7212 39.7429L51.5018 28.4358H58.29L54.2567 44.579C53.8783 46.1006 53.0013 47.4518 51.7657 48.4172C50.53 49.3826 49.0068 49.9065 47.4387 49.9055C46.4815 49.9062 45.5343 49.7114 44.655 49.3331C43.7757 48.9548 42.9829 48.401 42.3252 47.7055C39.8726 45.1091 36.1415 41.1105 36.2059 40.9173C36.2901 40.62 40.4027 31.8993 40.4027 31.8993Z" fill="#0B622F"/>
<path d="M22.6442 28.7031C22.6442 28.7031 22.6987 28.7031 22.7879 28.7824C22.8771 28.8617 23.0109 28.941 23.1744 29.0698C23.6232 29.4511 24.0168 29.893 24.3438 30.3828C24.8276 31.1171 25.1641 31.9383 25.3347 32.8009C25.531 33.8629 25.4955 34.9547 25.2307 36.0017C24.9416 37.0506 24.3506 37.9914 23.5311 38.7071C22.8743 39.2783 22.1698 39.7921 21.4253 40.2432C20.801 40.6297 20.2857 40.9319 19.9388 41.145C19.7623 41.2648 19.5748 41.3676 19.3789 41.4522C19.5278 41.3023 19.6941 41.1709 19.8744 41.0607C20.2163 40.8229 20.7167 40.4959 21.3262 40.0697C22.047 39.6044 22.7296 39.0825 23.3676 38.5089C24.1443 37.8166 24.7051 36.9152 24.9829 35.9126C25.2367 34.9029 25.2755 33.8512 25.0969 32.8256C24.9425 31.9872 24.6315 31.1854 24.1802 30.4621C23.7446 29.8132 23.2285 29.2222 22.6442 28.7031Z" fill="#263238"/>
<path d="M39.1738 46.3476C39.2462 45.8028 39.3538 45.2633 39.4959 44.7323C39.7934 43.4493 39.9348 42.1349 39.9171 40.8179C39.8614 40.106 39.6608 39.413 39.3274 38.7815C39.0616 38.2419 38.8395 37.6818 38.6635 37.1067C38.5148 36.6112 38.4256 36.2148 38.3662 35.9373C38.3233 35.7943 38.3016 35.6457 38.3018 35.4963C38.5093 36.0045 38.6879 36.5239 38.8369 37.0522C39.0373 37.6081 39.2723 38.1509 39.5405 38.6774C39.9011 39.3344 40.1173 40.0608 40.1747 40.808C40.2033 42.1464 40.0364 43.4818 39.6792 44.772C39.5554 45.2675 39.4364 45.6639 39.3473 45.9314C39.3094 46.0776 39.251 46.2178 39.1738 46.3476Z" fill="#263238"/>
<g opacity="0.3">
<path d="M21.0088 48.8748C20.33 47.5469 20.8503 45.7037 21.5043 44.3758C22.1584 43.0478 23.184 41.8983 23.9818 40.6497C24.7795 39.401 25.3543 37.8798 25.0471 36.4231C24.4319 37.7607 23.4107 38.8704 22.1286 39.5943C20.88 40.3573 19.8395 41.383 18.457 41.8636L21.0088 48.8748Z" fill="black"/>
</g>
<g opacity="0.3">
<path d="M39.5806 44.7719C39.5806 44.7719 42.3652 47.8242 42.8459 48.1958C42.8459 48.1958 40.2396 41.7544 40.0463 40.7634C39.8531 39.7724 40.1306 43.0129 39.5806 44.7719Z" fill="black"/>
</g>
<path d="M36.9591 8.72485C37.3871 9.66743 37.5318 10.7141 37.3754 11.7375C37.2713 12.4014 37.0533 13.1298 37.4001 13.7194C37.8213 14.423 38.8866 14.5271 39.288 15.2356C39.8825 16.2563 38.6884 17.5991 39.1542 18.7041C39.4663 19.4226 40.3434 19.6951 40.9231 20.1906C41.3156 20.5728 41.5703 21.0743 41.6474 21.6168C41.7245 22.1592 41.6196 22.7118 41.3492 23.1883C40.8537 24.0158 39.9866 24.5113 39.1492 24.9671L37.2168 26.0126C36.8927 26.2345 36.504 26.3426 36.1119 26.3198C35.4231 26.191 35.1456 25.3288 34.5362 24.9968C33.783 24.5757 32.8614 25.0662 31.9993 25.0811C31.6786 25.0882 31.3602 25.0265 31.0654 24.9001C30.7706 24.7737 30.5063 24.5857 30.2903 24.3486C30.0743 24.1114 29.9117 23.8308 29.8133 23.5255C29.7149 23.2203 29.6831 22.8974 29.72 22.5788" fill="#263238"/>
<path d="M33.9315 28.3116C33.8274 26.1414 33.7581 23.8522 33.7581 23.8522C33.7581 23.8522 36.5279 23.2427 36.9193 19.5662C37.2909 16.063 36.2999 8.06083 36.2999 8.06083C34.2756 7.36698 32.0875 7.30887 30.0292 7.8943C27.9708 8.47974 26.1408 9.6807 24.7847 11.336L25.9293 28.9459C25.9774 29.4452 26.1244 29.93 26.3617 30.3719C26.5991 30.8138 26.922 31.2041 27.3117 31.52C27.7014 31.8359 28.15 32.0711 28.6315 32.2119C29.113 32.3527 29.6177 32.3962 30.1162 32.34C31.1506 32.295 32.127 31.8496 32.839 31.0979C33.551 30.3461 33.9427 29.347 33.9315 28.3116Z" fill="#FFBE9D"/>
<path d="M36.2054 14.3936C36.2066 14.5138 36.164 14.6304 36.0856 14.7215C36.0072 14.8127 35.8983 14.8722 35.7793 14.8891C35.6614 14.9003 35.5437 14.8652 35.4512 14.7912C35.3587 14.7172 35.2987 14.6102 35.2838 14.4927C35.2755 14.3707 35.3156 14.2503 35.3954 14.1576C35.4751 14.0649 35.588 14.0073 35.7099 13.9972C35.7685 13.9903 35.8279 13.9951 35.8847 14.0114C35.9414 14.0276 35.9944 14.055 36.0405 14.0919C36.0865 14.1287 36.1249 14.1744 36.1532 14.2262C36.1815 14.278 36.1992 14.3349 36.2054 14.3936Z" fill="#263238"/>
<path d="M36.3199 13.8285C36.2654 13.8929 35.8988 13.6501 35.3983 13.6748C34.8979 13.6996 34.5361 13.9721 34.4816 13.9176C34.4271 13.8631 34.4816 13.7789 34.66 13.6501C34.8697 13.4884 35.1239 13.395 35.3884 13.3825C35.6508 13.3691 35.9108 13.4384 36.1316 13.5807C36.2902 13.6947 36.3496 13.7789 36.3199 13.8285Z" fill="#263238"/>
<path d="M30.9094 14.7698C30.9177 14.8918 30.8776 15.0121 30.7979 15.1048C30.7181 15.1975 30.6052 15.2551 30.4833 15.2653C30.4246 15.2728 30.3649 15.2685 30.3079 15.2525C30.2509 15.2365 30.1977 15.2092 30.1514 15.1722C30.1052 15.1353 30.0669 15.0893 30.0387 15.0372C30.0106 14.9851 29.9933 14.9278 29.9878 14.8689C29.9866 14.7486 30.0292 14.6321 30.1076 14.5409C30.186 14.4497 30.2949 14.3902 30.4139 14.3734C30.5321 14.3608 30.6504 14.3954 30.7432 14.4697C30.836 14.5439 30.8957 14.6517 30.9094 14.7698Z" fill="#263238"/>
<path d="M31.0826 14.2744C31.0281 14.3388 30.6565 14.0911 30.156 14.1208C29.6556 14.1505 29.2939 14.4181 29.2394 14.3586C29.1849 14.2992 29.2641 14.2199 29.4177 14.096C29.6274 13.9344 29.8817 13.841 30.1461 13.8285C30.4086 13.8143 30.6688 13.8837 30.8894 14.0267C31.0479 14.1456 31.1074 14.2744 31.0826 14.2744Z" fill="#263238"/>
<path d="M33.0993 17.9212C33.3609 17.8234 33.634 17.7601 33.912 17.7329C34.0358 17.7329 34.1597 17.6784 34.1746 17.5892C34.1781 17.4562 34.1419 17.325 34.0705 17.2127C33.9318 16.9104 33.7881 16.5883 33.6394 16.2564C33.2427 15.445 32.9113 14.6033 32.6484 13.7393C33.1072 14.5175 33.5032 15.331 33.8327 16.1721C33.9813 16.5091 34.1201 16.8262 34.2489 17.1334C34.3355 17.2831 34.3687 17.4578 34.343 17.6289C34.3265 17.6758 34.2997 17.7184 34.2646 17.7536C34.2294 17.7887 34.1868 17.8155 34.1399 17.832C34.0696 17.8559 33.9961 17.8693 33.9219 17.8717C33.651 17.9237 33.3745 17.9404 33.0993 17.9212Z" fill="#263238"/>
<path d="M33.7582 23.8571C32.041 23.9734 30.3254 23.6097 28.8032 22.8066C28.8032 22.8066 30.1212 25.2494 33.7582 24.7192V23.8571Z" fill="#EB996E"/>
<path d="M32.9502 19.1451C32.8487 19.0283 32.7187 18.9396 32.5729 18.8875C32.4272 18.8354 32.2704 18.8218 32.1178 18.8478C32.0076 18.8645 31.9018 18.9029 31.8066 18.9607C31.7113 19.0185 31.6285 19.0947 31.5628 19.1848C31.5013 19.2735 31.4683 19.379 31.4683 19.487C31.4683 19.5951 31.5013 19.7005 31.5628 19.7893C31.6485 19.8755 31.7581 19.9339 31.8774 19.9569C31.9968 19.9799 32.1202 19.9663 32.2318 19.9181C32.4659 19.8231 32.6784 19.6815 32.8561 19.5019C32.9111 19.4593 32.9581 19.4073 32.9948 19.3483C33.013 19.3202 33.0226 19.2875 33.0226 19.2541C33.0226 19.2207 33.013 19.188 32.9948 19.16" fill="#EB996E"/>
<path d="M31.6369 18.3475C31.7162 18.3475 31.7459 18.8827 32.2365 19.2444C32.727 19.6061 33.3018 19.5219 33.3117 19.5962C33.3216 19.6705 33.1829 19.7101 32.9401 19.73C32.6196 19.75 32.3022 19.6571 32.0432 19.4674C31.7953 19.2848 31.6283 19.0129 31.5775 18.7092C31.5428 18.4813 31.5973 18.3426 31.6369 18.3475Z" fill="#263238"/>
<path d="M26.3309 15.29C25.9358 15.2284 25.5313 15.2764 25.1615 15.4288C24.9771 15.5041 24.8097 15.6157 24.6692 15.757C24.5288 15.8983 24.4182 16.0664 24.344 16.2513C24.2113 16.6332 24.229 17.0513 24.3935 17.4206C24.5588 17.7848 24.8024 18.108 25.107 18.367C25.3137 18.567 25.5651 18.7148 25.8404 18.7981C25.9776 18.8389 26.1229 18.8449 26.263 18.8154C26.4032 18.786 26.5338 18.7222 26.6431 18.6296" fill="#FFBE9D"/>
<path d="M26.2366 17.6685C26.2812 17.6685 26.1276 17.9261 25.7659 17.8468C25.6685 17.8209 25.5775 17.7755 25.4983 17.7133C25.4191 17.6511 25.3533 17.5735 25.305 17.4851C25.1853 17.2903 25.1077 17.0726 25.0771 16.8459C25.0335 16.6067 25.0794 16.3598 25.2059 16.1522C25.2581 16.0635 25.3298 15.9879 25.4157 15.9312C25.5016 15.8745 25.5994 15.8383 25.7014 15.8252C26.0681 15.7955 26.1969 16.0432 26.1523 16.0532C26.1077 16.0631 25.9789 15.964 25.7411 16.0532C25.5973 16.1165 25.4812 16.2294 25.4138 16.3714C25.3465 16.5133 25.3325 16.6747 25.3744 16.8261C25.4388 17.2275 25.6073 17.5842 25.8303 17.6635C26.0532 17.7428 26.2118 17.6387 26.2366 17.6685Z" fill="#EB996E"/>
<path d="M35.3929 7.12448C35.5698 7.66932 35.5656 8.25682 35.3807 8.79902C35.1958 9.34122 34.8402 9.80893 34.3672 10.1321C33.401 10.7614 32.1623 10.6722 31.0226 10.8209C29.883 10.9695 28.5898 11.579 28.456 12.7235C28.3767 13.4172 28.7632 14.1506 28.4807 14.7898C28.1537 15.5379 27.1033 15.7114 26.7069 16.4199C26.0627 17.5645 27.5393 18.8974 27.2618 20.1956C27.0983 20.9537 26.3501 21.474 26.1569 22.2271C25.8794 23.2974 26.7663 24.6203 26.0281 25.4429C25.4632 26.0721 24.4177 25.8046 23.6893 25.3735C22.961 24.9424 22.1781 24.3825 21.3506 24.5559C20.8733 24.7352 20.4179 24.9679 19.9929 25.2496C19.5711 25.4459 19.1006 25.5131 18.6407 25.4427C18.1808 25.3723 17.752 25.1674 17.4082 24.8538C17.0645 24.5403 16.8212 24.1321 16.7089 23.6805C16.5966 23.229 16.6204 22.7543 16.7772 22.3163C17.0677 21.6965 17.4539 21.1263 17.9218 20.6267C18.389 20.1194 18.6366 19.4478 18.6105 18.7587C18.4797 18.2494 18.2618 17.7666 17.9664 17.3316C17.8224 17.1142 17.7357 16.8641 17.714 16.6043C17.6923 16.3444 17.7365 16.0834 17.8425 15.8452C18.338 15.0623 19.6511 15.3497 20.2605 14.656C21.0929 13.7046 19.765 12.119 20.3448 10.9992C21.0038 9.73077 23.3425 10.3452 24.0064 9.08167C24.2492 8.61591 24.16 8.056 24.2938 7.55059C24.5961 6.40105 25.9438 5.8461 27.133 5.82628C28.3222 5.80646 29.5064 6.15331 30.6906 6.02943C31.3397 5.96502 31.969 5.76187 32.6132 5.65781C33.2541 5.51862 33.923 5.59527 34.5159 5.87583C34.8067 6.02608 35.0377 6.2708 35.171 6.56977C35.3042 6.86873 35.3318 7.20414 35.2492 7.52087" fill="#263238"/>
<path d="M34.4765 9.53771C34.7215 10.1707 35.1077 10.7394 35.6057 11.2005C36.1038 11.6616 36.7005 12.0029 37.3504 12.1985C37.5004 11.3099 37.537 10.4058 37.4594 9.50798C37.3812 8.60377 37.0167 7.74805 36.4189 7.0652C36.1157 6.73034 35.7327 6.47754 35.3057 6.33027C34.8786 6.18301 34.4212 6.14606 33.9761 6.22286" fill="#263238"/>
<path d="M19.0024 25.0661C18.9242 25.0102 18.8639 24.9327 18.829 24.8432C18.7819 24.7148 18.7667 24.5769 18.7848 24.4413C18.803 24.3058 18.8538 24.1767 18.933 24.0652C19.0445 23.9045 19.1967 23.7763 19.374 23.6936C19.5871 23.5917 19.8094 23.5105 20.038 23.4508C20.3073 23.3893 20.5684 23.2962 20.8159 23.1734C20.9597 23.1075 21.0884 23.0129 21.1941 22.8953C21.2998 22.7776 21.3802 22.6396 21.4303 22.4896C21.4969 22.152 21.4444 21.8018 21.2816 21.4986C21.138 21.1765 20.9447 20.8644 20.8208 20.5076C20.7 20.1293 20.6693 19.7279 20.7313 19.3356C20.7932 18.9433 20.9461 18.5709 21.1776 18.2482C21.4192 17.8927 21.7533 17.61 22.1438 17.4306C22.5452 17.2572 22.996 17.1729 23.4321 17.0045C23.6593 16.9244 23.8682 16.7997 24.0465 16.6378C24.2284 16.4665 24.3529 16.2433 24.4033 15.9986C24.4555 15.5029 24.4355 15.0021 24.3438 14.5121C24.3022 14.0343 24.3877 13.554 24.5916 13.1198C24.791 12.6985 25.0703 12.3198 25.4141 12.0049C26.082 11.4222 26.8838 11.0137 27.7478 10.8158C28.5301 10.6317 29.3226 10.4943 30.1212 10.4045C30.8213 10.3234 31.515 10.1943 32.1974 10.018C32.7613 9.86706 33.3004 9.63506 33.7978 9.32928C34.1698 9.09558 34.504 8.80652 34.7888 8.47207C34.9697 8.26041 35.1213 8.02544 35.2397 7.77343C35.2821 7.68745 35.3169 7.59792 35.3437 7.50586C35.3437 7.50586 35.3041 7.59505 35.2199 7.76352C35.0945 8.00925 34.9398 8.23886 34.7591 8.4473C34.0644 9.18958 33.1637 9.70723 32.1726 9.93378C31.4928 10.1042 30.8026 10.23 30.1064 10.3104C29.3028 10.3946 28.5051 10.5287 27.7181 10.7117C26.8374 10.9114 26.0201 11.3269 25.3397 11.9207C24.9841 12.2421 24.696 12.6312 24.4924 13.0653C24.2785 13.514 24.1895 14.0121 24.2348 14.5072C24.3196 14.9795 24.3413 15.4611 24.2992 15.9392C24.2539 16.1634 24.1396 16.3679 23.9722 16.5238C23.805 16.6783 23.6076 16.7964 23.3925 16.8707C22.9663 17.0392 22.5154 17.1234 22.0992 17.3067C21.6969 17.4944 21.354 17.7893 21.1082 18.159C20.8698 18.4945 20.7129 18.8811 20.6501 19.288C20.5873 19.6949 20.6203 20.1108 20.7465 20.5027C20.8753 20.8644 21.0785 21.1765 21.2172 21.4936C21.3783 21.783 21.4311 22.1203 21.3659 22.445C21.3201 22.587 21.2454 22.718 21.1465 22.8297C21.0476 22.9414 20.9266 23.0315 20.7911 23.0941C20.5493 23.2139 20.2951 23.3069 20.033 23.3716C19.8009 23.4344 19.5753 23.519 19.3591 23.6243C19.1762 23.7139 19.0206 23.8507 18.9082 24.0206C18.8281 24.1376 18.7781 24.2724 18.7625 24.4133C18.747 24.5542 18.7664 24.6967 18.819 24.8283C18.8497 24.927 18.9147 25.0114 19.0024 25.0661Z" fill="#455A64"/>
<path d="M20.3799 13.8732H20.4245L20.5583 13.9079C20.6772 13.9376 20.8456 13.9723 21.0537 14.007C21.3298 14.0472 21.6102 14.0472 21.8862 14.007C22.2575 13.947 22.5979 13.7637 22.8524 13.4867C23.1483 13.1467 23.3695 12.7483 23.5015 12.3173C23.6403 11.8313 23.8057 11.3532 23.997 10.8854C24.2406 10.3859 24.603 9.95374 25.0524 9.6268C25.5381 9.27666 26.0791 9.01037 26.6528 8.83897C27.788 8.56328 28.9531 8.43013 30.1213 8.44258C30.6564 8.44258 31.1668 8.39303 31.6424 8.33357C32.0851 8.28344 32.5228 8.19558 32.9505 8.07096C33.5767 7.90307 34.163 7.61162 34.6748 7.21375C34.8607 7.07069 35.0273 6.90413 35.1703 6.71826L35.1357 6.74799L35.0366 6.84214C34.9132 6.96405 34.7825 7.07823 34.6451 7.18403C34.129 7.56311 33.5455 7.84056 32.9258 8.00159C32.4997 8.11616 32.0658 8.19897 31.6276 8.24933C31.1568 8.30384 30.6366 8.32861 30.1114 8.34843C28.9433 8.33237 27.778 8.4639 26.6429 8.73987C26.0572 8.91108 25.5056 9.18267 25.0127 9.54257C24.5507 9.88256 24.1783 10.3298 23.9276 10.8457C23.7361 11.3186 23.5707 11.8016 23.4321 12.2926C23.307 12.7128 23.0961 13.1025 22.8127 13.4371C22.5683 13.6991 22.2444 13.8732 21.8911 13.9326C21.62 13.972 21.3447 13.972 21.0736 13.9326C20.8506 13.9326 20.6772 13.8732 20.5781 13.8534L20.3799 13.8732Z" fill="#455A64"/>
<path d="M39.0748 24.4616C39.0748 24.4616 39.1045 24.4616 39.1491 24.4616C39.2177 24.4379 39.2841 24.408 39.3473 24.3724C39.6375 24.2044 39.8836 23.97 40.0654 23.6883C40.2471 23.4066 40.3594 23.0857 40.3928 22.7521C40.4358 22.2574 40.2966 21.764 40.0013 21.3647C39.7095 20.9637 39.2874 20.6764 38.8072 20.5521C38.4186 20.5116 38.0341 20.4387 37.6577 20.3341C37.5427 20.2851 37.4392 20.2127 37.3539 20.1214C37.2686 20.0301 37.2033 19.9219 37.1622 19.8039C37.1459 19.7105 37.1459 19.6149 37.1622 19.5215C37.1493 19.5427 37.1409 19.5663 37.1374 19.5909C37.1222 19.6644 37.1222 19.7403 37.1374 19.8138C37.1755 19.945 37.2424 20.0661 37.3333 20.1681C37.4241 20.2701 37.5367 20.3505 37.6626 20.4035C38.0389 20.5209 38.4254 20.6022 38.8171 20.6463C39.274 20.7693 39.6746 21.0457 39.9518 21.4291C40.2307 21.8077 40.3659 22.2731 40.3333 22.7422C40.2983 23.1264 40.1577 23.4933 39.927 23.8025C39.7724 24.0134 39.5811 24.1947 39.3622 24.3377C39.1689 24.417 39.0698 24.4516 39.0748 24.4616Z" fill="#455A64"/>
<path d="M105.584 97.7516V67.2424H66.3936V149.068L104.937 148.946V149.068H120.302V97.7516H105.584Z" fill="#455A64"/>
<path d="M188.72 61.8665H56.8325V67.2642H188.72V61.8665Z" fill="#455A64"/>
<path d="M179.912 67.2642L66.4966 76.7898V67.2642H179.912Z" fill="#263238"/>
<path d="M95.5411 61.7336L94.8823 51.4695L91.0359 52.4736L88.5283 61.7336H95.5411Z" fill="#263238"/>
<path d="M114.433 55.5337L71.1025 55.624L72.4413 28.8799L115.272 27.9502L114.433 55.5337Z" fill="#263238"/>
<path d="M95.78 41.5454H90.207V42.5123H95.78V41.5454Z" fill="#EBEBEB"/>
<path d="M95.1422 55.5762L90.2067 55.5337L89.9146 56.6015L95.2697 57.5313L95.1422 55.5762Z" fill="#455A64"/>
</svg>
