<svg width="180" height="202" viewBox="0 0 180 202" fill="none" xmlns="http://www.w3.org/2000/svg">
<path d="M67.4996 193.685C126.843 193.685 174.95 190.871 174.95 187.401C174.95 183.931 126.843 181.117 67.4996 181.117C8.15619 181.117 -39.9512 183.931 -39.9512 187.401C-39.9512 190.871 8.15619 193.685 67.4996 193.685Z" fill="#F5F5F5"/>
<path d="M85.9078 135.961H49.3203V187.806H85.9078V135.961Z" fill="#DE8E16"/>
<path opacity="0.5" d="M86.0262 135.961H58.7441V187.806H86.0262V135.961Z" fill="black"/>
<path d="M72.9375 69.1797C73.1672 70.2517 73.378 71.1818 73.6336 72.1586C73.8893 73.1354 74.145 74.0595 74.4352 75.0441C74.9983 76.938 75.6452 78.8198 76.363 80.7388C77.7915 84.7101 79.7513 88.4694 82.1878 91.9138C82.9064 92.8768 83.7053 93.7766 84.576 94.6046C85.5502 95.5399 86.6592 96.3237 87.8649 96.9302C90.1797 98.0559 92.7484 98.5551 95.3162 98.3786C97.5635 98.2237 99.772 97.7029 101.853 96.8377C102.836 96.4388 103.794 95.9803 104.722 95.4646C105.186 95.212 105.634 94.9411 106.07 94.6253C106.506 94.3104 106.917 94.0448 107.418 93.6814L105.143 89.5959L103.934 89.9169L102.665 90.2197C101.811 90.4075 100.968 90.5675 100.105 90.6843C98.5447 90.9223 96.9606 90.9534 95.3922 90.7769C94.1372 90.6489 92.9332 90.2145 91.8855 89.5111C91.4338 89.1893 91.0184 88.8181 90.6487 88.4045C90.1892 87.8698 89.7668 87.304 89.3851 86.7105C88.505 85.3227 87.7406 83.8648 87.1006 82.3516C86.3915 80.7864 85.7687 79.1304 85.1797 77.4372C84.5915 75.744 84.0638 74.0231 83.5352 72.2884L82.7959 69.6703C82.5618 68.8086 82.3061 67.8845 82.1196 67.1353L72.9375 69.1797Z" fill="#FFBF9D"/>
<path d="M72.1888 63.9293C76.1048 58.9414 82.054 60.7705 85.3914 68.7096C87.2449 72.9378 88.7132 77.3261 89.7799 81.8191L75.844 86.724C72.1775 79.2166 68.1587 69.0444 72.1888 63.9293Z" fill="#0B622F"/>
<path opacity="0.1" d="M72.1888 63.9293C76.1048 58.9414 82.054 60.7705 85.3914 68.7096C87.2449 72.9378 88.7132 77.3261 89.7799 81.8191L75.844 86.724C72.1775 79.2166 68.1587 69.0444 72.1888 63.9293Z" fill="black"/>
<path opacity="0.3" d="M78.0121 72.2699C76.8642 71.486 74.5132 76.0257 73.4258 81.3796C74.1884 83.2458 75.0124 85.0325 75.8338 86.7006L84.2187 83.7476C82.8419 78.7338 80.5902 74.0349 78.0121 72.2699Z" fill="black"/>
<path d="M105.853 87.5322L108.906 85.865L109.969 92.6871C109.969 92.6871 104.877 95.7586 103.414 93.2192L103.57 91.4585C103.741 89.8847 104.571 88.458 105.853 87.5322Z" fill="#FFBF9D"/>
<path d="M112.73 85.5325L115.402 91.0153L109.945 92.692L108.881 85.869L112.73 85.5325Z" fill="#FFBF9D"/>
<path d="M72.1325 59.4659L64.9974 58.4614L56.1098 59.2427C53.3348 59.4832 51.0632 61.5545 50.5648 64.2998C49.5794 69.6857 49.0421 77.322 48.7692 83.9053C48.454 91.295 49.271 102.222 50.4621 112.081L80.1529 108.484C80.437 82.5322 82.3968 74.4876 82.6369 67.6135C82.7423 64.8432 80.9889 62.3436 78.3529 61.5026L72.1325 59.4659Z" fill="#0B622F"/>
<path d="M81.1133 188.177L87.4296 189.929L93.0938 175.062L86.7835 173.308L81.1133 188.177Z" fill="#FFBF9D"/>
<path d="M90.2588 187.955C89.7691 187.303 89.035 186.879 88.2352 186.723L81.7306 185.456C81.4292 185.385 81.1234 185.559 81.031 185.855L79.0194 191.796C78.781 192.474 79.1369 193.217 79.814 193.455C79.8278 193.46 79.8425 193.465 79.8563 193.47C82.2531 194.416 83.8743 194.09 87.6254 194.817C89.935 195.268 94.7881 196.807 98.0296 196.674C101.271 196.541 101.262 193.328 99.8996 193.092C95.0611 192.331 91.3583 189.42 90.2588 187.955Z" fill="#263238"/>
<g opacity="0.2">
<path d="M93.0928 175.067L90.0785 182.977L83.8555 180.974L86.7774 173.309L93.0928 175.067Z" fill="black"/>
</g>
<path d="M108.852 131.212C108.641 133.514 108.189 135.837 107.577 138.179C105.911 144.635 103.061 151.21 100.702 157.625C96.0343 170.293 91.9896 181.333 91.9896 181.333L83.3274 178.337C83.3274 178.337 91.106 141.689 96.3452 137.939H64.2067C63.5839 137.939 62.9819 137.899 62.4102 137.819C67.9508 137.105 76.5724 133.686 84.5815 130.268C91.6579 127.241 98.2722 124.236 101.865 123.069H101.875V123.079C106.242 124.908 109.193 127.512 108.852 131.212Z" fill="#263238"/>
<path opacity="0.1" d="M108.852 131.212C108.641 133.514 108.189 135.837 107.577 138.179C105.911 144.635 103.061 151.21 100.702 157.625C96.0343 170.293 91.9896 181.333 91.9896 181.333L83.3274 178.337C83.3274 178.337 91.106 141.689 96.3452 137.939H64.2067C63.5839 137.939 62.9819 137.899 62.4102 137.819C67.9508 137.105 76.5724 133.686 84.5815 130.268C91.6579 127.241 98.2722 124.236 101.865 123.069H101.875V123.079C106.242 124.908 109.193 127.512 108.852 131.212Z" fill="black"/>
<path opacity="0.6" d="M101.866 123.068C98.2729 124.234 91.6586 127.241 84.5822 130.267C76.5731 133.685 67.9515 137.104 62.4109 137.818C53.0863 136.571 49.5736 125.441 59.3292 112.601C65.6627 112.612 72.0257 118.674 72.0257 118.674C72.0257 118.674 91.1767 118.563 101.866 123.068Z" fill="black"/>
<path d="M125.134 175.393H132.204L124.797 157.621L120.002 165.78L125.134 175.393Z" fill="#FFBF9D"/>
<path d="M131.63 173.714L123.33 171.826C123.036 171.749 122.732 171.91 122.633 172.198L120.318 178.591C120.122 179.268 120.511 179.976 121.186 180.172C121.199 180.176 121.212 180.18 121.226 180.183C124.135 180.792 125.566 180.939 129.215 181.768C131.463 182.28 137.148 183.774 140.246 184.479C143.344 185.184 144.161 182.141 142.927 181.564C137.393 178.998 134.392 176.544 132.785 174.453C132.498 174.079 132.089 173.817 131.63 173.714Z" fill="#263238"/>
<g opacity="0.2">
<path d="M124.797 157.627L127.951 165.195L121.589 168.755L120.002 165.787L124.797 157.627Z" fill="black"/>
</g>
<path d="M128.048 162.501L120.268 167.218C120.268 167.218 113.786 153.573 107.583 138.179C108.196 135.836 108.647 133.514 108.858 131.212C109.199 127.512 106.248 124.908 101.882 123.078V123.068H101.873C98.2795 124.234 91.6652 127.241 84.5889 130.267C76.5797 133.685 67.9582 137.104 62.4175 137.818C61.7248 137.909 61.0926 137.959 60.5001 137.959C49.8609 137.959 46.1876 128.618 50.4836 112.762C56.8172 112.732 67.6567 112.079 67.6567 112.079C67.6567 112.079 88.574 107.042 103.629 108.761C110.966 109.596 116.908 115.115 118.343 122.384C122.166 141.638 128.048 162.501 128.048 162.501Z" fill="#263238"/>
<path d="M128.048 162.501L120.268 167.218C120.268 167.218 113.786 153.573 107.583 138.179C108.196 135.836 108.647 133.514 108.858 131.212C109.199 127.512 106.248 124.908 101.882 123.078V123.068H101.873C98.2795 124.234 91.6652 127.241 84.5889 130.267C76.5797 133.685 67.9582 137.104 62.4175 137.818C61.7248 137.909 61.0926 137.959 60.5001 137.959C49.8609 137.959 46.1876 128.618 50.4836 112.762C56.8172 112.732 67.6567 112.079 67.6567 112.079C67.6567 112.079 88.574 107.042 103.629 108.761C110.966 109.596 116.908 115.115 118.343 122.384C122.166 141.638 128.048 162.501 128.048 162.501Z" fill="#263238"/>
<path d="M72.1325 59.4659L64.9974 58.4614L56.1098 59.2427C53.3348 59.4832 51.0632 61.5545 50.5648 64.2998C49.5794 69.6857 49.0421 77.322 48.7692 83.9053C48.454 91.295 49.271 102.222 50.4621 112.081L80.1529 108.484C80.437 82.5322 82.3968 74.4876 82.6369 67.6135C82.7423 64.8432 80.9889 62.3436 78.3529 61.5026L72.1325 59.4659Z" fill="#0B622F"/>
<path d="M50.4499 110.434L49.6855 112.85C49.5844 113.036 49.7978 113.233 50.113 113.244L79.7537 111.464C80.0008 111.464 80.2037 111.357 80.2262 111.2L80.5414 108.773C80.5414 108.604 80.3557 108.457 80.0915 108.446L50.9284 110.242C50.7453 110.214 50.5622 110.288 50.4499 110.434Z" fill="#263238"/>
<path opacity="0.1" d="M50.4499 110.434L49.6855 112.85C49.5844 113.036 49.7978 113.233 50.113 113.244L79.7537 111.464C80.0008 111.464 80.2037 111.357 80.2262 111.2L80.5414 108.773C80.5414 108.604 80.3557 108.457 80.0915 108.446L50.9284 110.242C50.7453 110.214 50.5622 110.288 50.4499 110.434Z" fill="black"/>
<path opacity="0.3" d="M53.4506 61.8529C59.3739 60.8104 59.0785 74.2807 56.3829 84.138C55.603 86.9905 52.2328 85.7974 51.0918 85.0533C47.3597 82.6187 46.0961 66.1556 53.4506 61.8529Z" fill="black"/>
<path d="M52.7387 81.7957C52.9615 87.6254 51.114 90.6753 54.2113 92.6194C57.3077 94.5635 75.6347 100.652 76.0786 99.8871C75.1907 101.293 74.3331 102.495 73.4452 103.902C68.1705 103.11 62.8864 102.377 57.5953 101.703C53.7354 101.212 47.5106 100.217 44.4833 97.7673C41.7437 95.5498 42.2334 85.8223 42.6981 78.8142C45.1665 77.3728 52.7387 81.7957 52.7387 81.7957Z" fill="#FFBF9D"/>
<path d="M51.1516 59.4748C57.2425 57.6864 59.5451 62.5696 57.6925 70.9491C56.7623 75.4723 55.4235 79.9005 53.6944 84.1815L40.9668 80.1557C42.3427 71.9268 44.9234 61.309 51.1516 59.4748Z" fill="#0B622F"/>
<path d="M59.9769 59.4372C59.7583 60.7056 60.1911 62.0163 60.895 63.0935C61.5989 64.1698 62.5567 65.0515 63.5042 65.9201C64.7082 67.0233 66.1429 68.2051 67.7606 67.9914C69.2557 67.7942 70.1133 67.0397 70.7153 65.2574C71.9979 67.3226 72.0575 68.3531 73.4636 68.4829C74.3748 68.5676 75.1703 67.8997 75.8095 67.243C76.9383 66.0819 77.4436 65.4149 77.6492 63.8073C77.9852 61.1918 75.8647 58.7649 73.3971 57.8461C70.7481 56.8597 68.3945 56.6235 65.6428 56.306C63.3444 56.0395 60.4389 56.7585 59.9769 59.4372Z" fill="#0B622F"/>
<path opacity="0.3" d="M59.9769 59.4372C59.7583 60.7056 60.1911 62.0163 60.895 63.0935C61.5989 64.1698 62.5567 65.0515 63.5042 65.9201C64.7082 67.0233 66.1429 68.2051 67.7606 67.9914C69.2557 67.7942 70.1133 67.0397 70.7153 65.2574C71.9979 67.3226 72.0575 68.3531 73.4636 68.4829C74.3748 68.5676 75.1703 67.8997 75.8095 67.243C76.9383 66.0819 77.4436 65.4149 77.6492 63.8073C77.9852 61.1918 75.8647 58.7649 73.3971 57.8461C70.7481 56.8597 68.3945 56.6235 65.6428 56.306C63.3444 56.0395 60.4389 56.7585 59.9769 59.4372Z" fill="black"/>
<path d="M66.1983 46.8804L69.4208 50.6077L73.8015 55.6821C73.3964 56.222 73.0924 56.8302 72.9033 57.4782C72.4403 58.9067 72.5776 60.3204 74.1176 61.3665C74.7879 61.6797 75.1264 65.1785 70.7276 64.8134C67.7297 64.6482 65.8338 63.6056 64.0839 61.7826C63.2764 60.6977 63.0665 60.1145 63.8965 58.9318C66.2769 55.5895 66.4626 50.7383 66.1983 46.8804Z" fill="#FFBF9D"/>
<path opacity="0.2" d="M72.7501 54.4254L69.9888 50.7612C69.9551 50.8711 69.9188 50.987 69.8782 51.1108C69.7461 51.6273 69.6554 52.1533 69.6053 52.6846C69.4369 54.4998 71.141 56.8298 72.8019 57.8265L72.9297 57.4613C73.1232 56.854 73.3978 56.276 73.7468 55.7422C73.7692 55.7119 73.7969 55.686 73.828 55.6652L72.7501 54.4254Z" fill="black"/>
<path d="M66.5041 40.0174C66.004 46.0341 65.4521 49.5295 68.0294 52.9427C71.9238 58.1088 79.6748 56.2859 81.9368 50.5046C83.976 45.3047 84.401 36.3438 78.8905 33.2472C74.8501 31.009 69.7637 32.4755 67.5293 36.5229C66.9359 37.5992 66.5861 38.7923 66.5041 40.0174Z" fill="#FFBF9D"/>
<path d="M65.6214 45.344L68.1875 46.4557C69.0736 46.095 69.2464 45.0481 69.1868 44.092C68.9596 40.4253 75.529 35.9055 75.529 35.9055C75.529 35.9055 68.5398 33.6101 66.4445 33.2614C65.7112 33.1394 63.0648 35.0645 62.6554 35.8959C61.4972 38.2493 61.9714 41.0456 63.5589 43.1325C64.1704 43.9345 64.8605 44.6751 65.6214 45.344Z" fill="#263238"/>
<path d="M63.4166 44.2571C63.541 45.6008 64.1525 46.8519 65.1362 47.7733C66.4214 48.9457 67.9856 47.6635 68.1687 45.9581C68.3233 44.4337 67.5581 42.2066 66.0077 41.6936C64.4573 41.1814 63.2698 42.583 63.4166 44.2571Z" fill="#FFBF9D"/>
<path d="M75.5101 43.6258C75.4185 44.1173 75.599 44.5793 75.9229 44.6468C76.2468 44.7143 76.5422 44.3794 76.6666 43.8897C76.791 43.4 76.5776 42.9371 76.2529 42.8627C75.9281 42.7875 75.5999 43.1275 75.5101 43.6258Z" fill="#263238"/>
<path d="M81.049 44.8468C80.9523 45.346 81.1388 45.8063 81.4627 45.8746C81.7866 45.9421 82.1139 45.6029 82.2064 45.1176C82.2979 44.6322 82.1105 44.165 81.7935 44.0966C81.4757 44.0274 81.1397 44.3545 81.049 44.8468Z" fill="#263238"/>
<path d="M79.2024 44.8206C79.3717 46.2343 79.725 47.6186 80.2553 48.9398C79.3562 49.4156 78.2031 48.7382 78.2031 48.7382L79.2024 44.8206Z" fill="#FF5652"/>
<path d="M76.8036 51.5482C75.6929 51.1589 74.7903 50.3292 74.3075 49.2546C74.2773 49.1784 74.3136 49.0919 74.3887 49.0608C74.4664 49.0348 74.5502 49.0737 74.5822 49.149C75.1255 50.311 76.1774 51.1546 77.4298 51.4297C77.5119 51.4418 77.568 51.5179 77.5559 51.6001C77.5438 51.6815 77.4678 51.7386 77.3858 51.7265C77.3789 51.7256 77.372 51.7239 77.3659 51.7221C77.175 51.6763 76.9868 51.6183 76.8036 51.5482Z" fill="#263238"/>
<path d="M74.7501 41.6406C74.7026 41.625 74.6603 41.5974 74.6275 41.5584C74.523 41.433 74.5394 41.2461 74.6629 41.1397C75.366 40.5124 76.335 40.2779 77.2463 40.515C77.4009 40.5609 77.4898 40.7235 77.444 40.8784C77.4432 40.8818 77.4415 40.8853 77.4406 40.8888C77.3879 41.0436 77.2212 41.1276 77.0666 41.0774C76.3497 40.9061 75.5949 41.0964 75.0447 41.587C74.9643 41.6614 74.8495 41.6813 74.7501 41.6406Z" fill="#263238"/>
<path d="M81.6782 41.6491C81.6592 41.6023 81.6523 41.5513 81.6584 41.5011C81.7033 41.3436 81.8657 41.2511 82.0237 41.2943C82.9401 41.515 83.6846 42.1812 84.0068 43.068C84.0552 43.2229 83.9688 43.3872 83.8142 43.4357C83.6596 43.4833 83.4955 43.3976 83.4471 43.2419C83.1811 42.5515 82.5912 42.0367 81.8717 41.8662C81.7741 41.8316 81.7016 41.7494 81.6782 41.6491Z" fill="#263238"/>
<path d="M83.509 109.819L121.409 109.93C122.746 109.933 123.94 108.84 124.061 107.501L125.796 88.2815C125.917 86.9422 124.922 85.8434 123.584 85.839L85.6838 85.7283C84.3459 85.724 83.1532 86.8167 83.0323 88.1569L81.2971 107.377C81.1761 108.716 82.1712 109.815 83.509 109.819Z" fill="#6B7280"/>
<path opacity="0.3" d="M83.509 109.819L121.409 109.93C122.746 109.933 123.94 108.84 124.061 107.501L125.796 88.2815C125.917 86.9422 124.922 85.8434 123.584 85.839L85.6838 85.7283C84.3459 85.724 83.1532 86.8167 83.0323 88.1569L81.2971 107.377C81.1761 108.716 82.1712 109.815 83.509 109.819Z" fill="black"/>
<path d="M84.6223 109.74L122.523 109.85C123.86 109.855 125.053 108.762 125.174 107.423L126.909 88.2029C127.03 86.8636 126.034 85.7647 124.697 85.7604L86.7971 85.6497C85.4592 85.6453 84.2665 86.7381 84.1455 88.0774L82.4103 107.297C82.2894 108.636 83.2844 109.736 84.6223 109.74Z" fill="#6B7280"/>
<path opacity="0.2" d="M84.6223 109.74L122.523 109.85C123.86 109.855 125.053 108.762 125.174 107.423L126.909 88.2029C127.03 86.8636 126.034 85.7647 124.697 85.7604L86.7971 85.6497C85.4592 85.6453 84.2665 86.7381 84.1455 88.0774L82.4103 107.297C82.2894 108.636 83.2844 109.736 84.6223 109.74Z" fill="white"/>
<path d="M107.322 98.021C107.172 99.4944 105.859 100.567 104.388 100.418C102.917 100.269 101.845 98.9528 101.994 97.4794C102.144 96.0059 103.457 94.9331 104.928 95.0819C106.399 95.2316 107.471 96.5475 107.322 98.021Z" fill="white"/>
<path d="M123.044 109.826C123.044 110.975 122.361 111.911 121.532 111.911C121.524 111.911 121.524 111.911 121.515 111.911L82.3976 111.757C81.9744 111.757 81.6289 111.283 81.6289 110.715C81.6375 110.134 81.9744 109.661 82.3976 109.661L123.044 109.826Z" fill="#6B7280"/>
<path opacity="0.3" d="M123.044 109.826C123.044 110.975 122.361 111.911 121.532 111.911C121.524 111.911 121.524 111.911 121.515 111.911L82.3976 111.757C81.9744 111.757 81.6289 111.283 81.6289 110.715C81.6375 110.134 81.9744 109.661 82.3976 109.661L123.044 109.826Z" fill="black"/>
<path d="M82.1936 111.762H63.3674C62.3655 111.762 61.5527 110.947 61.5527 109.944C61.5527 109.787 61.6788 109.661 61.8352 109.661H82.1936C82.7732 109.661 83.2422 110.132 83.2422 110.711C83.2422 111.291 82.7723 111.762 82.1936 111.762Z" fill="#6B7280"/>
<path d="M72.0236 97.1975L75.1519 96.283L74.866 103.991C74.866 103.991 68.0799 105.596 67.6523 102.464L68.5264 100.775C69.2666 99.3164 70.3082 97.6283 72.0236 97.1975Z" fill="#FFBF9D"/>
<path d="M79.8348 98.4209L78.9106 102.749L74.8633 103.986L75.1535 96.283L79.8348 98.4209Z" fill="#FFBF9D"/>
<path d="M81.0645 177.673L94.0218 182.077L96.6682 176.715L82.3471 172.156L81.0645 177.673Z" fill="#0B622F"/>
<path d="M118.282 168.289L130.229 161.605L128.03 156.045L115.055 163.638L118.282 168.289Z" fill="#0B622F"/>
<path d="M83.9373 39.9553C85.7096 39.8558 86.436 37.755 86.2218 36.8492C85.9445 35.6742 85.2484 34.61 84.2232 33.975C84.7923 32.2004 84.0211 30.1283 81.8808 28.6695C80.4885 27.7204 78.2048 27.6434 76.702 28.2915C76.702 26.7228 73.8284 25.6984 71.9836 27.6434C70.3702 26.7436 68.3474 26.7972 67.0285 28.0916C66.5923 28.5199 66.2848 29.1817 66.4826 29.7597C65.0221 29.777 63.6021 30.6448 62.9181 31.9391C62.2349 33.2326 62.3169 34.8973 63.1245 36.1163C63.7101 37.0006 65.0791 36.9833 66.1138 36.7549C66.6018 37.8113 67.678 38.3529 68.7818 38.7197C72.2003 39.8557 76.8868 38.789 77.7143 38.6912C78.5417 38.5934 79.4279 38.6947 80.1119 39.1722C79.883 39.6343 79.262 39.8384 78.7533 39.9206C78.2446 40.0028 77.7255 39.9232 77.2168 39.8428C78.476 40.5557 79.7189 40.9606 81.1311 40.6474C81.5534 40.554 82.5001 39.893 82.9319 39.8601C83.3629 39.8263 83.9796 40.0193 83.9373 39.9553Z" fill="#263238"/>
</svg>
