<svg width="176" height="150" viewBox="0 0 176 150" fill="none" xmlns="http://www.w3.org/2000/svg">
<path d="M150.744 24.7631L142.546 23.9742C142.438 23.053 142.605 18.6087 142.605 18.6087C142.605 18.6087 139.258 18.295 139.018 15.012C138.778 11.729 138.896 4.14861 138.896 4.14861C140.731 3.23202 142.776 2.8185 144.823 2.9502C146.87 3.08191 148.846 3.75413 150.548 4.89831L151.038 5.24622L150.744 24.7631Z" fill="#F9CBB2"/>
<path d="M140.224 9.58297C140.225 9.46183 140.181 9.34471 140.1 9.25422C140.02 9.16373 139.908 9.10628 139.788 9.09296C139.661 9.08332 139.535 9.12344 139.438 9.20483C139.34 9.28623 139.277 9.40251 139.264 9.52907" fill="#263238"/>
<path d="M139.278 9.02427C139.332 9.07817 139.641 8.81357 140.097 8.78417C140.552 8.75477 140.9 8.96548 140.944 8.90668C140.988 8.84788 140.91 8.77927 140.758 8.68127C140.556 8.55104 140.317 8.4908 140.077 8.50977C139.837 8.52619 139.609 8.61891 139.425 8.77437C139.293 8.89687 139.249 9.00467 139.278 9.02427Z" fill="#263238"/>
<path d="M145.197 9.52875C145.191 9.3988 145.134 9.27648 145.038 9.18872C144.942 9.10096 144.815 9.05495 144.685 9.0608C144.555 9.06665 144.433 9.12388 144.345 9.21991C144.257 9.31594 144.211 9.4429 144.217 9.57285" fill="#263238"/>
<path d="M144.129 9.15186C144.188 9.20576 144.497 8.93625 144.953 8.90685C145.408 8.87745 145.756 9.09306 145.8 9.02936C145.844 8.96566 145.766 8.90195 145.614 8.80395C145.411 8.67606 145.172 8.61614 144.932 8.63288C144.693 8.64962 144.465 8.74214 144.281 8.89705C144.149 9.01955 144.105 9.12736 144.129 9.15186Z" fill="#263238"/>
<path d="M142.527 12.9931C142.287 12.9157 142.035 12.8792 141.782 12.8853C141.665 12.8853 141.562 12.8608 141.547 12.7922C141.538 12.6727 141.56 12.5528 141.611 12.4443C141.714 12.1405 141.812 11.8318 141.92 11.5035C142.212 10.7097 142.425 9.88909 142.557 9.05347C142.19 9.81927 141.898 10.6184 141.684 11.4398C141.586 11.7681 141.488 12.0817 141.395 12.3904C141.329 12.5452 141.317 12.7179 141.361 12.8804C141.381 12.9235 141.41 12.9616 141.447 12.9921C141.483 13.0226 141.526 13.0447 141.572 13.0568C141.64 13.0661 141.709 13.0661 141.778 13.0568C142.029 13.0791 142.283 13.0575 142.527 12.9931Z" fill="#263238"/>
<path d="M142.571 18.5596C144.1 18.4987 145.576 17.9873 146.815 17.0896C146.815 17.0896 145.864 19.6866 142.542 19.5886L142.571 18.5596Z" fill="#D89377"/>
<path d="M142.4 13.9587C142.4 13.9832 142.449 14.086 142.62 14.1693C142.736 14.2236 142.861 14.2539 142.988 14.2584C143.116 14.263 143.243 14.2418 143.362 14.196C143.481 14.1502 143.589 14.0809 143.681 13.9921C143.772 13.9033 143.845 13.7969 143.894 13.6793C143.963 13.498 143.938 13.3755 143.894 13.3706C143.85 13.3657 143.723 13.8019 143.267 13.9832C142.811 14.1645 142.429 13.9048 142.4 13.9587Z" fill="#263238"/>
<path d="M144.125 7.57373C144.169 7.77953 144.673 7.84323 145.252 7.89223C145.83 7.94123 146.339 7.94613 146.418 7.75013C146.496 7.55413 146.016 7.18172 145.31 7.12782C144.605 7.07392 144.076 7.36792 144.125 7.57373Z" fill="#263238"/>
<path d="M139.312 7.64232C139.386 7.84322 139.846 7.85792 140.361 7.79422C140.875 7.73052 141.341 7.60802 141.341 7.39732C141.341 7.18662 140.885 6.96121 140.268 7.03471C139.65 7.10821 139.239 7.46592 139.312 7.64232Z" fill="#263238"/>
<path d="M151.489 8.12748C152.012 7.34443 152.249 6.40505 152.159 5.46778C152.07 4.53052 151.66 3.65271 150.999 2.98242C150.102 2.12491 148.868 1.73781 147.677 1.3801L145.227 0.635295C143.678 0.16979 141.983 -0.285912 140.493 0.331494C139.441 0.818305 138.622 1.69777 138.21 2.78152C137.814 3.85567 137.647 5.00058 137.72 6.14295L141.493 6.11355C141.65 5.62355 141.807 5.16784 141.983 4.69254C142.191 5.23726 142.275 5.82149 142.228 6.40266C144.266 6.40266 146.3 6.50556 148.329 6.71136C148.211 8.67138 148.363 11.9838 150.666 11.9838" fill="#263238"/>
<path d="M150.504 8.69571C150.568 8.69571 152.685 8.39681 152.464 10.8958C152.244 13.3949 149.809 12.3658 149.809 12.2874C149.809 12.209 150.504 8.69571 150.504 8.69571Z" fill="#F9CBB2"/>
<path d="M150.661 11.4744C150.661 11.4744 150.7 11.5087 150.774 11.5479C150.873 11.6016 150.989 11.614 151.097 11.5822C151.268 11.4937 151.411 11.3611 151.513 11.1982C151.615 11.0353 151.671 10.8481 151.675 10.6561C151.7 10.4426 151.674 10.2263 151.602 10.024C151.586 9.94425 151.55 9.86979 151.498 9.80733C151.446 9.74488 151.379 9.69642 151.303 9.66631C151.255 9.64812 151.201 9.64801 151.152 9.66601C151.104 9.684 151.063 9.7189 151.038 9.76431C150.999 9.82801 151.009 9.8819 150.994 9.8819C150.98 9.8819 150.945 9.83781 150.994 9.73491C151.014 9.67451 151.054 9.62266 151.107 9.5879C151.143 9.56448 151.183 9.5485 151.225 9.54093C151.267 9.53335 151.31 9.53433 151.352 9.5438C151.453 9.5728 151.545 9.62723 151.618 9.70188C151.692 9.77653 151.746 9.86889 151.773 9.97011C151.862 10.1941 151.894 10.4364 151.867 10.6757C151.861 10.8985 151.79 11.1147 151.662 11.297C151.533 11.4793 151.354 11.6195 151.146 11.6998C151.078 11.7159 151.007 11.7154 150.938 11.6984C150.87 11.6813 150.807 11.6482 150.754 11.6018C150.661 11.5381 150.651 11.4793 150.661 11.4744Z" fill="#E8A370"/>
<path d="M147.158 1.35559C147.231 1.35559 147.334 0.865585 147.805 0.507881C148.275 0.150177 148.785 0.150175 148.785 0.0766743C148.785 0.00317357 148.662 -0.00662353 148.442 0.00317657C148.157 0.025209 147.885 0.129609 147.659 0.303635C147.433 0.477661 147.262 0.713787 147.168 0.983187C147.104 1.21839 147.128 1.35559 147.158 1.35559Z" fill="#263238"/>
<path d="M146.697 0.169754C146.639 0.213854 146.781 0.488254 146.844 0.841058C146.908 1.19386 146.884 1.49767 146.952 1.51727C147.021 1.53687 147.173 1.21347 147.094 0.792062C147.016 0.370658 146.746 0.115853 146.697 0.169754Z" fill="#263238"/>
<path d="M138.347 5.80512C138.475 5.45511 138.579 5.09651 138.656 4.73201C138.876 3.87187 139.258 3.06183 139.783 2.34569C140.314 1.63821 141.06 1.12231 141.91 0.875671C142.27 0.80468 142.635 0.760457 143.002 0.743368C143.002 0.743368 142.904 0.694365 142.708 0.664965C142.429 0.632117 142.146 0.643698 141.871 0.699269C140.955 0.899399 140.141 1.42091 139.577 2.16928C139.033 2.91218 138.659 3.76516 138.48 4.66831C138.377 5.03804 138.332 5.42161 138.347 5.80512Z" fill="#455A64"/>
<path d="M146.731 140.591L147.471 143.687C147.471 143.687 152.562 150.302 154.135 149.979C155.164 149.768 153.9 148.044 151.964 143.016L151.558 140.943L146.731 140.591Z" fill="#FF725E"/>
<path d="M154.331 149.024C154.267 149.134 154.174 149.224 154.062 149.283C153.901 149.353 153.725 149.377 153.552 149.352C153.379 149.328 153.217 149.257 153.082 149.146C152.19 148.395 151.344 147.592 150.548 146.74C149.607 145.76 148.814 144.78 148.255 144.099L147.603 143.261L147.427 143.036C147.409 143.006 147.386 142.979 147.358 142.958C147.372 142.989 147.39 143.019 147.412 143.046L147.574 143.286C147.716 143.492 147.927 143.776 148.201 144.143C148.91 145.074 149.669 145.965 150.475 146.814C151.274 147.67 152.132 148.469 153.042 149.205C153.214 149.323 153.413 149.396 153.621 149.416C153.777 149.428 153.934 149.394 154.071 149.318C154.16 149.272 154.235 149.203 154.287 149.117C154.307 149.089 154.322 149.057 154.331 149.024Z" fill="#263238"/>
<path d="M153.621 146.897C153.489 146.842 153.345 146.825 153.204 146.848C152.855 146.876 152.518 146.991 152.224 147.181C151.923 147.352 151.681 147.61 151.528 147.921C151.458 148.045 151.421 148.185 151.42 148.328C151.42 148.328 151.469 148.176 151.592 147.95C151.757 147.666 151.994 147.43 152.278 147.264C152.558 147.089 152.869 146.971 153.194 146.916C153.459 146.882 153.621 146.912 153.621 146.897Z" fill="#263238"/>
<path d="M148.799 145.344C148.827 145.298 148.849 145.248 148.863 145.197C148.907 145.057 148.941 144.914 148.966 144.77C149.039 144.283 148.955 143.785 148.726 143.349C148.503 142.91 148.141 142.557 147.697 142.345C147.562 142.285 147.42 142.242 147.275 142.217C147.172 142.217 147.114 142.217 147.114 142.217C147.302 142.269 147.485 142.336 147.662 142.418C148.084 142.634 148.427 142.977 148.642 143.398C148.858 143.82 148.946 144.295 148.897 144.765C148.853 145.118 148.78 145.339 148.799 145.344Z" fill="#263238"/>
<path d="M147.055 141.12C147.03 141.12 147.143 141.566 147.236 142.1C147.274 142.438 147.365 142.769 147.506 143.08C147.53 143.08 147.427 142.634 147.334 142.1C147.294 141.76 147.2 141.429 147.055 141.12Z" fill="#263238"/>
<path d="M152.053 143.477C151.839 143.412 151.61 143.412 151.396 143.477C151.177 143.513 150.973 143.612 150.808 143.761C150.808 143.79 151.078 143.653 151.421 143.58C151.764 143.506 152.053 143.506 152.053 143.477Z" fill="#263238"/>
<path d="M152.156 144.011C151.983 143.933 151.786 143.924 151.607 143.986C151.416 144.012 151.241 144.108 151.117 144.256C151.117 144.256 151.342 144.148 151.607 144.084C151.872 144.021 152.151 144.04 152.156 144.011Z" fill="#263238"/>
<path d="M152.562 144.667C152.479 144.613 152.385 144.578 152.287 144.565C152.189 144.551 152.089 144.559 151.994 144.589C151.894 144.603 151.798 144.639 151.714 144.694C151.629 144.749 151.558 144.822 151.504 144.907C151.662 144.823 151.825 144.751 151.994 144.692C152.182 144.664 152.373 144.655 152.562 144.667Z" fill="#263238"/>
<path d="M151.7 143.251C151.7 143.251 151.47 143.188 151.107 143.045C150.894 142.961 150.688 142.861 150.49 142.746C150.374 142.681 150.261 142.609 150.152 142.531C150.049 142.457 149.936 142.345 149.941 142.227C149.946 142.109 150.093 142.046 150.206 142.075C150.327 142.114 150.436 142.185 150.519 142.281C150.705 142.457 150.867 142.629 151.009 142.771C151.269 143.06 151.416 143.261 151.426 143.261C151.406 143.208 151.378 143.158 151.342 143.114C151.256 142.985 151.163 142.861 151.063 142.742C150.911 142.56 150.747 142.388 150.573 142.227C150.477 142.118 150.353 142.037 150.215 141.992C150.174 141.979 150.129 141.975 150.086 141.98C150.042 141.986 150 142.001 149.963 142.024C149.926 142.047 149.894 142.078 149.87 142.115C149.846 142.152 149.83 142.193 149.823 142.237C149.834 142.318 149.862 142.395 149.907 142.463C149.952 142.531 150.013 142.588 150.083 142.629C150.195 142.708 150.311 142.78 150.431 142.845C150.633 142.957 150.845 143.052 151.063 143.129C151.212 143.179 151.364 143.219 151.519 143.246C151.641 143.256 151.7 143.261 151.7 143.251Z" fill="#263238"/>
<path d="M151.435 143.197C151.478 143.01 151.511 142.82 151.533 142.629C151.564 142.426 151.621 142.228 151.705 142.041C151.749 141.929 151.808 141.823 151.881 141.727C151.96 141.639 152.072 141.566 152.165 141.624C152.259 141.683 152.273 141.811 152.259 141.928C152.239 142.044 152.206 142.158 152.161 142.266C152.075 142.453 151.963 142.626 151.827 142.781C151.592 143.04 151.411 143.168 151.421 143.183C151.43 143.197 151.475 143.183 151.558 143.104C151.673 143.022 151.782 142.931 151.881 142.83C152.03 142.676 152.153 142.499 152.244 142.305C152.298 142.189 152.336 142.065 152.357 141.938C152.375 141.864 152.371 141.786 152.345 141.714C152.32 141.641 152.275 141.578 152.214 141.531C152.142 141.503 152.062 141.501 151.988 141.525C151.913 141.549 151.85 141.598 151.808 141.664C151.724 141.76 151.656 141.869 151.607 141.987C151.525 142.184 151.47 142.392 151.445 142.604C151.426 142.744 151.416 142.885 151.416 143.026C151.426 143.134 151.426 143.197 151.435 143.197Z" fill="#263238"/>
<g opacity="0.4">
<path d="M147.471 143.687L147.114 142.193C147.114 142.193 148.358 142.423 148.682 143.354C148.876 143.865 148.959 144.411 148.927 144.956L151.641 147.896C151.641 147.896 152.322 146.568 153.552 146.887C153.552 146.887 154.532 149.018 154.493 149.552C154.454 150.087 153.841 150.043 153.621 149.925C152.718 149.405 151.893 148.76 151.171 148.009C149.755 146.514 148.167 144.623 147.471 143.687Z" fill="black"/>
</g>
<path d="M135.922 140.399V136.244H143.728V142.325L143.238 142.355C141.086 142.472 132.31 142.805 130.875 142.355C129.307 141.884 135.922 140.399 135.922 140.399Z" fill="#FF725E"/>
<g opacity="0.4">
<path d="M140.93 142.261C141.042 141.607 141.391 141.016 141.91 140.6C142.424 140.192 143.072 139.991 143.728 140.037V142.217L140.93 142.261Z" fill="black"/>
</g>
<g opacity="0.4">
<path d="M132.688 141.237C132.688 141.237 130.37 141.909 130.659 142.291C130.948 142.673 139.832 142.668 143.752 142.325V142.149L133.388 142.242C133.388 142.242 133.143 141.237 132.688 141.237Z" fill="black"/>
</g>
<path d="M143.86 142.144H143.728L143.345 142.168L141.929 142.227C140.734 142.271 139.082 142.31 137.259 142.31C135.437 142.31 133.785 142.281 132.59 142.237L131.174 142.183H130.791H130.659H131.179L132.59 142.212C133.785 142.237 135.437 142.261 137.259 142.256C139.082 142.252 140.734 142.227 141.929 142.203L143.34 142.168H143.728C143.77 142.155 143.815 142.146 143.86 142.144Z" fill="#263238"/>
<path d="M133.378 142.364C133.318 142.129 133.229 141.902 133.114 141.688C132.971 141.489 132.807 141.306 132.624 141.144C132.864 141.235 133.064 141.409 133.187 141.634C133.34 141.845 133.408 142.105 133.378 142.364Z" fill="#263238"/>
<path d="M135.677 141.198C135.652 141.198 135.544 141.076 135.432 140.899C135.319 140.723 135.241 140.561 135.265 140.551C135.29 140.542 135.397 140.669 135.51 140.845C135.591 140.949 135.648 141.07 135.677 141.198Z" fill="#263238"/>
<path d="M136.304 140.865C136.304 140.865 136.167 140.801 136.03 140.679C135.893 140.556 135.799 140.448 135.819 140.429C135.839 140.409 135.961 140.488 136.093 140.61C136.226 140.733 136.324 140.845 136.304 140.865Z" fill="#263238"/>
<path d="M136.691 140.13C136.563 140.176 136.426 140.193 136.29 140.179C136.151 140.195 136.011 140.182 135.878 140.14C135.878 140.11 136.059 140.091 136.285 140.086C136.51 140.081 136.691 140.101 136.691 140.13Z" fill="#263238"/>
<path d="M136.838 139.611C136.706 139.701 136.548 139.747 136.388 139.743C136.222 139.774 136.05 139.751 135.898 139.679C136.05 139.657 136.204 139.647 136.358 139.65C136.517 139.622 136.677 139.609 136.838 139.611Z" fill="#263238"/>
<path d="M135.412 140.517C135.25 140.544 135.084 140.544 134.922 140.517C134.741 140.493 134.563 140.453 134.388 140.399C134.282 140.369 134.18 140.326 134.084 140.272C134.054 140.255 134.028 140.233 134.007 140.206C133.986 140.179 133.971 140.148 133.962 140.115C133.952 140.079 133.954 140.041 133.967 140.006C133.98 139.97 134.004 139.94 134.035 139.919C134.225 139.825 134.442 139.799 134.649 139.848C134.855 139.896 135.039 140.015 135.167 140.184C135.243 140.283 135.3 140.396 135.334 140.517C135.346 140.562 135.346 140.609 135.334 140.654C135.285 140.5 135.208 140.355 135.108 140.228C134.996 140.096 134.848 139.999 134.682 139.949C134.485 139.885 134.27 139.9 134.084 139.993C134.006 140.052 134.035 140.145 134.123 140.194C134.214 140.244 134.309 140.285 134.408 140.316C134.567 140.373 134.731 140.417 134.898 140.448C135.221 140.502 135.412 140.502 135.412 140.517Z" fill="#263238"/>
<path d="M135.28 140.541C135.222 140.436 135.201 140.313 135.221 140.194C135.239 140.064 135.286 139.94 135.358 139.831C135.4 139.756 135.46 139.693 135.533 139.648C135.606 139.603 135.689 139.579 135.775 139.576C135.826 139.587 135.87 139.617 135.9 139.66C135.929 139.703 135.94 139.755 135.932 139.806C135.921 139.886 135.891 139.962 135.844 140.027C135.78 140.139 135.701 140.241 135.608 140.331C135.529 140.418 135.432 140.488 135.324 140.537C135.324 140.537 135.422 140.443 135.559 140.287C135.639 140.194 135.709 140.094 135.77 139.988C135.839 139.88 135.888 139.689 135.77 139.669C135.652 139.65 135.515 139.782 135.442 139.88C135.372 139.976 135.323 140.087 135.3 140.203C135.284 140.315 135.278 140.428 135.28 140.541Z" fill="#263238"/>
<path d="M143.703 140.017C143.512 140.006 143.321 140.006 143.13 140.017C142.672 140.069 142.238 140.248 141.877 140.535C141.517 140.822 141.244 141.205 141.091 141.639C140.974 141.977 140.959 142.198 140.944 142.198C140.935 142.146 140.935 142.093 140.944 142.041C140.955 141.898 140.983 141.756 141.028 141.62C141.167 141.162 141.441 140.758 141.815 140.46C142.188 140.162 142.643 139.983 143.12 139.949C143.263 139.935 143.408 139.935 143.551 139.949C143.649 139.993 143.703 140.008 143.703 140.017Z" fill="#263238"/>
<path d="M142.895 136.778C142.949 137.309 142.972 137.842 142.963 138.376C142.992 138.908 142.992 139.441 142.963 139.973C142.906 139.443 142.883 138.909 142.895 138.376C142.863 137.844 142.863 137.31 142.895 136.778Z" fill="#263238"/>
<path d="M139.949 141.502C139.578 141.589 139.198 141.627 138.817 141.615C138.435 141.635 138.051 141.605 137.676 141.526C137.676 141.497 138.166 141.526 138.812 141.526C139.459 141.526 139.949 141.477 139.949 141.502Z" fill="#263238"/>
<path d="M141.479 141.502C141.479 141.502 141.434 141.61 141.385 141.723C141.336 141.835 141.302 141.943 141.278 141.943C141.253 141.943 141.238 141.821 141.278 141.683C141.317 141.546 141.459 141.482 141.479 141.502Z" fill="#263238"/>
<path d="M142.051 140.786C142.051 140.786 142.017 140.884 141.939 140.968C141.86 141.051 141.777 141.1 141.757 141.08C141.738 141.061 141.792 140.982 141.87 140.899C141.948 140.816 142.032 140.747 142.051 140.786Z" fill="#263238"/>
<path d="M142.875 140.458C142.875 140.458 142.763 140.458 142.65 140.522C142.537 140.585 142.454 140.625 142.434 140.605C142.415 140.585 142.478 140.483 142.621 140.434C142.763 140.385 142.88 140.434 142.875 140.458Z" fill="#263238"/>
<path d="M143.458 140.301C143.458 140.326 143.423 140.365 143.36 140.394C143.296 140.424 143.232 140.419 143.222 140.394C143.213 140.37 143.262 140.331 143.325 140.306C143.389 140.282 143.448 140.257 143.458 140.301Z" fill="#263238"/>
<path d="M133.751 58.4263C134.868 59.2151 135.935 60.0726 136.946 60.9939C137.926 61.8612 136.01 67.021 134.986 66.1095C133.962 65.1981 131.1 61.6407 131.1 61.6407L133.751 58.4263Z" fill="#F9CBB2"/>
<path d="M135.123 66.2077C135.123 66.2077 132.183 65.8745 132.251 65.2718C132.388 64.7784 132.638 64.3237 132.981 63.9438L135.123 66.2077Z" fill="#E8A370"/>
<path d="M133.957 62.9248L143.149 62.2388L158.251 61.0481L156.434 141.62L143.311 141.429C143.311 141.429 143.311 140.532 143.345 138.979L135.598 139.057C135.598 139.057 128.185 115.909 125.646 105.59C123.544 96.9606 133.957 62.9248 133.957 62.9248ZM143.527 126.429C143.757 107.834 144.017 76.2089 143.762 72.3378C143.762 72.3378 136.412 100.17 136.338 102.37C136.294 103.703 140.347 116.561 143.527 126.429Z" fill="#263238"/>
<path d="M143.551 124.802C143.518 125.012 143.505 125.223 143.512 125.435C143.512 125.885 143.512 126.459 143.482 127.15C143.458 128.644 143.424 130.629 143.389 132.819C143.355 135.009 143.267 136.989 143.223 138.483C143.223 139.174 143.188 139.748 143.174 140.198C143.154 140.409 143.154 140.62 143.174 140.831C143.223 140.625 143.251 140.415 143.257 140.203C143.291 139.802 143.335 139.223 143.38 138.488C143.473 137.043 143.561 135.058 143.615 132.824C143.669 130.589 143.664 128.605 143.615 127.15C143.615 126.424 143.585 125.841 143.566 125.435C143.581 125.224 143.576 125.012 143.551 124.802Z" fill="#455A64"/>
<path d="M131.605 102.12C132.409 102.306 133.23 102.411 134.055 102.434C134.88 102.54 135.714 102.562 136.544 102.498C135.741 102.305 134.92 102.199 134.094 102.179C133.268 102.073 132.434 102.053 131.605 102.12Z" fill="#455A64"/>
<path d="M132.458 103.581C133.105 103.529 133.743 103.393 134.354 103.174C134.988 103.039 135.601 102.82 136.177 102.522C135.529 102.573 134.892 102.71 134.28 102.929C133.647 103.067 133.035 103.286 132.458 103.581Z" fill="#455A64"/>
<path d="M142.968 62.3464C142.909 62.8554 142.886 63.3679 142.9 63.8802C142.9 64.8308 142.9 66.1391 142.9 67.5846C142.9 68.3049 142.9 68.9909 142.9 69.623C142.882 70.194 142.988 70.7621 143.208 71.289C143.371 71.6417 143.624 71.9446 143.943 72.1661C144.174 72.318 144.321 72.3572 144.326 72.3425C144.33 72.3278 144.198 72.2641 144.002 72.0926C143.719 71.8598 143.498 71.56 143.36 71.2204C143.17 70.7103 143.087 70.1666 143.115 69.623V67.5846C143.115 66.1391 143.081 64.8259 143.056 63.8802C143.069 63.3674 143.039 62.8544 142.968 62.3464Z" fill="#455A64"/>
<path d="M160.02 59.4407C158.9 60.2257 157.83 61.08 156.816 61.9985C155.836 62.8609 157.732 68.0256 158.776 67.119C159.819 66.2125 162.696 62.6649 162.696 62.6649L160.02 59.4407Z" fill="#F9CBB2"/>
<path d="M158.623 67.2123C158.623 67.2123 161.564 66.8889 161.495 66.2862C161.362 65.7908 161.114 65.334 160.77 64.9534L158.623 67.2123Z" fill="#E8A370"/>
<path d="M122.02 39.2378L131.512 28.6487C135.192 23.342 139.803 22.1954 141.949 21.9651V19.716C141.949 19.716 150.838 19.1378 151.161 19.226C151.391 19.2799 151.342 20.9998 151.293 21.9749C156.046 22.264 161.182 24.5474 164.205 28.1587C164.656 28.6977 165.121 29.2809 165.601 29.9228L173.29 38.5321C176.23 42.07 175.642 46.7642 173.29 50.7088C169.727 56.7162 163.122 63.6351 163.181 63.5812C163.24 63.5273 159.011 58.397 159.011 58.397C159.011 58.397 166.875 46.578 165.871 44.3289C165.111 42.609 160.643 37.9 158.594 35.7881L157.32 48.9448L158.634 61.4742L133.54 63.0226L134.119 57.7354C133.08 59.2055 130.551 62.7237 130.517 62.6698C127.287 59.2126 124.415 55.4365 121.947 51.3997C119.639 47.46 119.051 42.7462 122.02 39.2378ZM134.27 56.6084L134.76 52.267L135.055 37.1552C133.006 39.7523 130.047 43.6184 129.41 45.0541C128.533 46.9945 133.026 54.57 134.27 56.6084Z" fill="#0B622F"/>
<path d="M149.867 22.9158C150.217 22.3722 150.391 21.7344 150.367 21.0885C150.342 20.4427 150.12 19.8199 149.73 19.3044C149.92 19.8871 150.048 20.4883 150.112 21.0979C150.097 21.7109 150.015 22.3205 149.867 22.9158Z" fill="#263238"/>
<path d="M147.432 22.896C147.59 22.3348 147.667 21.7541 147.662 21.1712C147.744 20.5926 147.744 20.0054 147.662 19.4268C147.502 19.9874 147.424 20.5685 147.432 21.1516C147.345 21.7298 147.345 22.3178 147.432 22.896Z" fill="#263238"/>
<path d="M144.561 23.0336C144.639 23.0336 144.477 22.2398 144.6 21.2892C144.722 20.3386 145.09 19.6232 144.997 19.584C144.651 20.0775 144.431 20.6476 144.355 21.2452C144.279 21.8427 144.35 22.4498 144.561 23.014V23.0336Z" fill="#263238"/>
<path d="M142.605 23.1463C142.679 23.1463 142.556 22.3819 142.605 21.4656C142.654 20.5493 142.87 19.8192 142.796 19.7996C142.537 20.3143 142.385 20.8767 142.351 21.4522C142.316 22.0277 142.399 22.6042 142.595 23.1463H142.605Z" fill="#263238"/>
<path d="M154.929 23.7979C154.777 23.925 154.642 24.0716 154.527 24.234C154.198 24.6623 153.92 25.1277 153.699 25.6207C152.94 27.2631 152.806 29.1262 153.323 30.8603C153.84 32.5943 154.972 34.0801 156.507 35.0386C156.967 35.3309 157.46 35.5662 157.977 35.7393C158.16 35.8158 158.353 35.8653 158.55 35.8863C157.881 35.6164 157.237 35.2885 156.625 34.9063C155.15 33.9431 154.063 32.4908 153.554 30.8049C153.044 29.119 153.146 27.3075 153.841 25.6893C154.146 25.027 154.51 24.3939 154.929 23.7979Z" fill="#263238"/>
<path d="M135.285 40.6394C135.411 39.0813 135.453 37.5176 135.412 35.955C135.453 34.3907 135.411 32.8253 135.285 31.2656C135.156 32.8252 135.113 34.3907 135.157 35.955C135.113 37.5176 135.155 39.0815 135.285 40.6394Z" fill="#263238"/>
<path d="M155.895 62.2533C155.968 62.2533 156.007 61.7633 155.988 61.1949C156.007 60.8341 155.943 60.4736 155.801 60.1414C155.686 60.4816 155.654 60.8446 155.708 61.1998C155.688 61.5606 155.752 61.9212 155.895 62.2533Z" fill="#263238"/>
<path d="M152.71 62.4395C152.783 62.4395 152.837 62.0083 152.842 61.4595C152.847 60.9107 152.783 60.4795 152.715 60.4795C152.646 60.4795 152.582 60.9107 152.582 61.4595C152.582 62.0083 152.641 62.4395 152.71 62.4395Z" fill="#263238"/>
<path d="M149.132 62.4397C149.201 62.4397 149.26 62.0673 149.26 61.6116C149.26 61.1559 149.206 60.7884 149.132 60.7835C149.059 60.7786 149.005 61.1559 149.005 61.6116C149.005 62.0673 149.059 62.4397 149.132 62.4397Z" fill="#263238"/>
<path d="M145.021 62.621C145.095 62.621 145.148 62.2731 145.148 61.8419C145.148 61.4106 145.095 61.0627 145.021 61.0627C144.948 61.0627 144.894 61.4106 144.894 61.8419C144.894 62.2731 144.977 62.621 145.021 62.621Z" fill="#263238"/>
<path d="M140.547 63.2628C140.62 63.2628 140.674 62.8512 140.674 62.3465C140.674 61.8418 140.62 61.4302 140.547 61.4302C140.473 61.4302 140.42 61.8369 140.42 62.3465C140.42 62.8561 140.478 63.2628 140.547 63.2628Z" fill="#263238"/>
<path d="M136.588 63.5372C136.746 63.214 136.827 62.8583 136.823 62.4984C136.91 62.1476 136.91 61.781 136.823 61.4302C136.587 62.1059 136.515 62.8281 136.612 63.5372H136.588Z" fill="#263238"/>
<path d="M162.304 62.8072C162.338 62.866 162.721 62.6896 163.069 62.3172C163.417 61.9448 163.559 61.5527 163.5 61.5184C163.441 61.4841 163.201 61.7977 162.882 62.1407C162.564 62.4837 162.265 62.7435 162.304 62.8072Z" fill="#263238"/>
<path d="M161.192 61.5281C161.255 61.5624 161.486 61.2586 161.716 60.8519C161.946 60.4452 162.074 60.0875 162.01 60.0532C161.946 60.0189 161.716 60.3227 161.491 60.7294C161.265 61.1361 161.157 61.4938 161.192 61.5281Z" fill="#263238"/>
<path d="M159.844 60.1513C159.903 60.1905 160.162 59.872 160.417 59.4457C160.672 59.0194 160.839 58.6372 160.775 58.6029C160.711 58.5686 160.456 58.8822 160.202 59.3134C159.947 59.7446 159.785 60.117 159.844 60.1513Z" fill="#263238"/>
<path d="M132.193 57.3924C132.139 57.4316 132.345 57.7942 132.683 58.1911C133.021 58.588 133.291 58.8821 133.344 58.838C133.398 58.7939 133.193 58.4362 132.884 58.0344C132.575 57.6325 132.252 57.3483 132.193 57.3924Z" fill="#263238"/>
<path d="M130.635 59.2252C130.591 59.2791 130.9 59.627 131.331 60.0092C131.762 60.3914 132.149 60.656 132.198 60.6021C132.247 60.5482 131.933 60.2003 131.502 59.8181C131.071 59.4359 130.684 59.1713 130.635 59.2252Z" fill="#263238"/>
<path d="M134.868 40.0756C134.945 40.0979 135.024 40.1095 135.103 40.1099L135.784 40.1687C136.372 40.2128 137.225 40.2618 138.279 40.3108C140.39 40.4088 143.311 40.4823 146.535 40.4578C149.759 40.4333 152.675 40.3157 154.782 40.1883C155.835 40.1246 156.688 40.0609 157.276 40.007L157.957 39.9433C158.036 39.9417 158.114 39.9268 158.188 39.8992C158.109 39.8917 158.031 39.8917 157.952 39.8992H157.271L154.772 39.9972C152.665 40.0805 149.75 40.1687 146.53 40.1932C143.311 40.2177 140.395 40.1687 138.288 40.1197L135.789 40.0609H135.108C135.028 40.0531 134.947 40.0581 134.868 40.0756Z" fill="#FAFAFA"/>
<path d="M134.873 41.7027C134.948 41.7235 135.025 41.7367 135.103 41.7419L135.779 41.8105C136.363 41.8644 137.21 41.9232 138.259 41.9918C140.356 42.1192 143.257 42.2368 146.462 42.2613C149.666 42.2858 152.572 42.1976 154.669 42.0947C155.718 42.0457 156.57 41.9918 157.154 41.9477L157.83 41.8889C157.908 41.89 157.986 41.8767 158.06 41.8497C157.982 41.8402 157.903 41.8402 157.825 41.8497H157.149L154.664 41.9134C152.567 41.9722 149.666 42.0261 146.467 42.0065C143.267 41.9869 140.366 41.8938 138.269 41.8105L135.784 41.7076H135.108C135.031 41.6931 134.951 41.6914 134.873 41.7027Z" fill="#FAFAFA"/>
<path d="M161.025 38.542C161.415 38.3371 161.782 38.0889 162.117 37.8021C162.957 37.1514 163.754 36.4476 164.504 35.6951C165.257 34.9481 165.961 34.1526 166.611 33.3136C166.899 32.9803 167.149 32.6154 167.355 32.2258C167.035 32.5278 166.74 32.8555 166.473 33.2058C165.944 33.8183 165.199 34.6465 164.322 35.5187C163.445 36.3909 162.617 37.1357 162.005 37.6649C161.657 37.9328 161.329 38.226 161.025 38.542Z" fill="#FAFAFA"/>
<path d="M160.055 37.3268C160.452 37.1248 160.825 36.8782 161.167 36.5918C162.019 35.9387 162.82 35.2212 163.563 34.4456C164.306 33.6733 164.988 32.8444 165.602 31.9662C165.876 31.6131 166.106 31.2281 166.288 30.8196C165.987 31.1451 165.71 31.4923 165.459 31.8584C164.809 32.7024 164.116 33.512 163.382 34.2839C162.648 35.0522 161.872 35.7801 161.059 36.4644C160.701 36.7238 160.365 37.0123 160.055 37.3268Z" fill="#FAFAFA"/>
<path d="M125.984 34.7983C127.004 35.7924 128.084 36.7219 129.219 37.5816C130.297 38.5085 131.429 39.3708 132.609 40.1639C131.587 39.1731 130.507 38.2437 129.375 37.3807C128.297 36.4537 127.165 35.5914 125.984 34.7983Z" fill="#FAFAFA"/>
<path d="M125.137 36.376C126.099 37.3067 127.12 38.1742 128.194 38.973C129.216 39.8379 130.292 40.6381 131.414 41.3691C130.453 40.4369 129.431 39.5694 128.356 38.7721C127.334 37.9072 126.258 37.107 125.137 36.376Z" fill="#FAFAFA"/>
<path d="M59.8373 61.3232C59.8373 61.3232 36.5679 65.3738 33.7088 56.5614C33.3018 55.3011 31.556 49.6517 31.556 49.6517L39.4024 46.979C39.4024 46.979 40.7657 53.9034 41.8936 54.2418C48.1413 56.0955 55.3698 55.3452 57.9247 54.9921C58.2239 54.7665 58.5623 54.5017 58.9546 54.1584C59.3469 53.8152 59.6607 53.4277 59.9991 53.1433C60.7592 52.5058 61.2644 52.4764 61.588 52.2263C62.3678 51.6378 62.8434 52.2753 62.4904 52.6088C61.6865 53.108 60.9924 53.7653 60.4503 54.5409C59.5283 55.8797 61.9215 55.61 62.8434 55.5512C63.8733 55.4923 65.8545 55.1441 65.8545 55.1441C65.8104 55.5855 65.1483 56.3554 64.246 56.581C63.7613 56.7057 63.2702 56.8039 62.7748 56.8752C62.7748 56.8752 64.5157 57.0076 64.4814 57.4049C64.4471 57.8021 63.3289 60.5581 61.3477 61.0436L59.8373 61.3232Z" fill="#A36957"/>
<path d="M6.25646 142.798C6.25646 142.798 17.6582 106.587 17.9034 105.41C18.1192 104.346 13.7645 78.2859 13.2152 71.543L28.6236 72.1167V72.2295L35.1704 72.5924L29.2856 146.643H22.1993L22.9055 122.069C19.7956 130.161 16.2497 138.08 12.2835 145.789L6.25646 142.798Z" fill="#A36957"/>
<path d="M22.6301 130.891C22.6301 130.666 22.7135 122.658 22.7135 122.658C22.8017 123.148 25.4352 115.704 25.3714 115.253C25.3371 115.017 22.6301 130.891 22.6301 130.891Z" fill="#8E4B39"/>
<path d="M25.6711 111.731C25.7039 111.879 25.7187 112.031 25.7153 112.182C25.7368 112.591 25.7368 113 25.7153 113.408C25.7153 113.668 25.681 113.953 25.6466 114.257C25.6123 114.561 25.5632 114.884 25.4946 115.238C25.3493 115.969 25.156 116.69 24.9159 117.395C24.4255 118.891 23.8321 120.2 23.4447 121.152L22.9543 122.275C22.9007 122.415 22.8299 122.549 22.7434 122.672C22.7652 122.523 22.8081 122.377 22.871 122.24C22.9641 121.966 23.1112 121.574 23.2927 121.088C23.6605 120.107 24.1999 118.803 24.7099 117.317C24.9475 116.621 25.1456 115.912 25.3033 115.193C25.3769 114.865 25.4259 114.541 25.4701 114.247C25.5142 113.953 25.5485 113.668 25.5681 113.413C25.6172 112.898 25.6417 112.486 25.6515 112.197C25.6332 112.042 25.6399 111.884 25.6711 111.731Z" fill="#8E4B39"/>
<path d="M35.7297 86.2452C36.0043 75.9224 34.8421 65.2268 33.9251 61.9803C33.8368 61.6714 33.7632 61.3575 33.6897 61.0486L31.9389 53.6926C31.9389 53.6926 31.2082 53.0992 33.1551 50.505C34.0575 49.3035 33.8907 44.7085 33.8907 44.7085L33.0178 50.7796L40.7661 47.0477C40.7661 47.0477 38.3141 35.4253 37.0881 33.8069C33.8613 29.6533 28.0402 30.3742 28.0402 30.3742L20.4145 30.2859C18.4499 30.4579 16.5276 30.9551 14.7259 31.7571L14.5347 31.8061V31.8454C12.3475 32.9095 10.4006 34.7044 9.84154 37.6321C8.92449 42.4036 9.21384 44.581 9.21384 44.581L15.4223 44.4682L14.873 57.6158C14.3826 59.2341 13.0929 58.8467 11.1509 66.3204C10.4224 69.1427 9.89956 72.0142 9.58655 74.9121C9.22268 78.3383 9.27042 81.7957 9.72876 85.2105L0.000152588 140.147L17.0316 142.368L28.0402 97.0499L22.2151 142.368L37.0881 144.59L35.7297 86.2452Z" fill="#0B9346"/>
<path d="M18.4174 42.3886L21.6221 87.2751L8.29307 46.3995L9.57548 39.1226L18.4174 42.3886Z" fill="#0B9346"/>
<path d="M8.87516 47.2191C9.34066 47.129 9.81339 47.0814 10.2875 47.0769C11.1653 47.0279 12.3766 46.9838 13.7203 46.9887C15.064 46.9936 16.2704 47.0524 17.1531 47.1211C17.6265 47.139 18.0974 47.198 18.5605 47.2976C18.0888 47.3342 17.615 47.3342 17.1433 47.2976C16.2655 47.2731 15.0591 47.2388 13.7105 47.2339C12.3619 47.2289 11.1702 47.2339 10.2777 47.2339C9.81044 47.2627 9.34171 47.2578 8.87516 47.2191Z" fill="#263238"/>
<path d="M31.9384 54.0849C31.8916 53.9258 31.8701 53.7603 31.8746 53.5945C31.8727 53.4074 31.8858 53.2205 31.9139 53.0355C31.9513 52.791 32.0137 52.5511 32.1002 52.3195C32.1994 52.0373 32.3241 51.7648 32.4729 51.5054C32.625 51.221 32.8113 50.9317 32.9977 50.6276C33.4312 49.9967 33.7853 49.3148 34.052 48.5974C34.176 48.2244 34.2518 47.8371 34.2776 47.4449C34.3009 47.0785 34.2894 46.7107 34.2433 46.3464C34.1677 45.7238 34.0398 45.1086 33.8608 44.5074C33.5567 43.4776 33.3017 42.8548 33.3409 42.8401C33.4289 42.9701 33.5014 43.11 33.5567 43.2569C33.6793 43.5364 33.8461 43.9435 34.0177 44.4584C34.225 45.0638 34.3728 45.6879 34.459 46.3219C34.5129 46.6986 34.5294 47.0797 34.5081 47.4596C34.4832 47.8716 34.4058 48.2786 34.2776 48.6709C34.0043 49.4068 33.6367 50.104 33.184 50.7453C32.9878 51.0444 32.8015 51.3289 32.6446 51.5986C32.4963 51.8493 32.3653 52.1099 32.2523 52.3783C32.1621 52.5985 32.0932 52.8268 32.0463 53.06C32.0047 53.2372 31.9785 53.4177 31.9678 53.5994C31.9744 53.7618 31.9645 53.9245 31.9384 54.0849Z" fill="#263238"/>
<path d="M18.8789 39.0835C18.9318 39.4899 18.945 39.9005 18.9181 40.3095C18.9181 41.0696 18.8789 42.1142 18.8347 43.2519C18.7906 44.3896 18.7367 45.4489 18.6876 46.1943C18.6833 46.603 18.639 47.0104 18.5552 47.4105C18.5053 47.0038 18.4938 46.5933 18.5209 46.1845C18.5209 45.4292 18.5552 44.3847 18.5993 43.2421C18.6435 42.0994 18.6974 41.0451 18.7513 40.2997C18.7569 39.8913 18.7996 39.4842 18.8789 39.0835Z" fill="#263238"/>
<path d="M29.4376 147.02V146.353L22.1748 146.04V148.786L22.621 148.815C24.6169 148.933 32.7674 149.266 34.1013 148.869C35.5725 148.423 29.4376 147.02 29.4376 147.02Z" fill="#0B9346"/>
<g opacity="0.5">
<path d="M24.7783 148.732C24.6763 148.12 24.3492 147.569 23.8613 147.187C23.386 146.804 22.7833 146.615 22.1743 146.657V148.678L24.7783 148.732Z" fill="white"/>
</g>
<g opacity="0.5">
<path d="M32.4338 147.81C32.4338 147.81 34.5867 148.438 34.317 148.791C34.0472 149.144 25.7987 149.114 22.1599 148.791V148.629L31.7816 148.746C31.7816 148.746 32.0072 147.829 32.4338 147.81Z" fill="white"/>
</g>
<path d="M22.0574 148.619H22.1849H22.538L23.8523 148.683C24.9606 148.727 26.4955 148.766 28.1874 148.776C29.8793 148.786 31.4142 148.776 32.5225 148.722L33.8368 148.668H34.1948H34.3174H33.827H32.5127C31.4044 148.668 29.8695 148.702 28.1776 148.697C26.4857 148.693 24.9557 148.658 23.8474 148.629L22.5331 148.594H22.0427L22.0574 148.619Z" fill="#263238"/>
<path d="M31.7914 148.854C31.8477 148.636 31.93 148.425 32.0366 148.226C32.1677 148.046 32.3191 147.882 32.4878 147.736C32.2631 147.819 32.0764 147.981 31.9631 148.192C31.8283 148.385 31.7673 148.62 31.7914 148.854Z" fill="#263238"/>
<path d="M29.6633 147.751C29.6633 147.751 29.7859 147.643 29.8938 147.476C30.0017 147.309 30.0703 147.167 30.0458 147.152C30.0213 147.138 29.9232 147.265 29.8202 147.432C29.7172 147.599 29.6437 147.751 29.6633 147.751Z" fill="#263238"/>
<path d="M29.0643 147.452C29.0643 147.452 29.1967 147.393 29.3193 147.285C29.4419 147.178 29.5351 147.065 29.5154 147.05C29.4958 147.035 29.388 147.104 29.2605 147.217C29.133 147.33 29.0643 147.433 29.0643 147.452Z" fill="#263238"/>
<path d="M28.7116 146.77C28.8324 146.814 28.9612 146.831 29.0892 146.819C29.2164 146.833 29.3452 146.82 29.4668 146.78C29.346 146.736 29.2171 146.719 29.0892 146.731C28.962 146.714 28.8326 146.728 28.7116 146.77Z" fill="#263238"/>
<path d="M28.574 146.28C28.6952 146.367 28.8416 146.411 28.9908 146.407C29.1388 146.434 29.2916 146.413 29.4272 146.348C29.2861 146.326 29.1434 146.316 29.0006 146.319C28.8596 146.295 28.717 146.282 28.574 146.28Z" fill="#263238"/>
<path d="M29.9134 147.133C30.0657 147.161 30.222 147.161 30.3744 147.133C30.5407 147.112 30.7048 147.075 30.8648 147.025C30.9648 147 31.0606 146.96 31.1492 146.907C31.1768 146.893 31.2011 146.873 31.2205 146.848C31.2399 146.824 31.2541 146.795 31.262 146.765C31.2699 146.731 31.2676 146.695 31.2554 146.662C31.2432 146.629 31.2216 146.6 31.1933 146.579C31.0161 146.492 30.8146 146.47 30.6226 146.514C30.4306 146.559 30.2598 146.668 30.139 146.824C30.0685 146.916 30.0168 147.021 29.9869 147.133C29.9869 147.216 29.9869 147.261 29.9869 147.261C30.0322 147.116 30.1037 146.982 30.1978 146.863C30.3029 146.742 30.4408 146.653 30.595 146.608C30.6855 146.578 30.7809 146.566 30.876 146.573C30.9711 146.58 31.0639 146.605 31.1492 146.648C31.2227 146.701 31.1933 146.79 31.11 146.839C31.0278 146.885 30.9406 146.921 30.8501 146.947C30.6907 147.002 30.5265 147.043 30.3597 147.069C30.0899 147.118 29.9134 147.118 29.9134 147.133Z" fill="#263238"/>
<path d="M30.0459 147.158C30.1005 147.059 30.1196 146.945 30.0998 146.834C30.0854 146.713 30.0435 146.597 29.9772 146.496C29.9309 146.427 29.8679 146.371 29.7942 146.333C29.7204 146.296 29.6383 146.277 29.5555 146.28C29.5319 146.284 29.5095 146.294 29.4895 146.307C29.4696 146.321 29.4525 146.338 29.4393 146.358C29.426 146.378 29.4169 146.4 29.4125 146.424C29.408 146.448 29.4083 146.472 29.4133 146.496C29.4212 146.57 29.4482 146.641 29.4918 146.702C29.5511 146.805 29.6237 146.901 29.7075 146.986C29.7787 147.069 29.8698 147.133 29.9723 147.172C29.9723 147.172 29.8792 147.089 29.7517 146.942C29.6774 146.856 29.6132 146.763 29.5604 146.662C29.4967 146.564 29.4525 146.388 29.5604 146.368C29.6683 146.348 29.7958 146.476 29.8645 146.564C29.9291 146.655 29.9742 146.759 29.9969 146.868C30.0222 146.963 30.0386 147.06 30.0459 147.158Z" fill="#263238"/>
<path d="M22.199 146.643C22.199 146.643 22.405 146.643 22.7336 146.643C23.1584 146.697 23.5603 146.867 23.8958 147.133C24.2267 147.403 24.4762 147.76 24.6167 148.163C24.7295 148.472 24.7393 148.683 24.754 148.678C24.7636 148.631 24.7636 148.583 24.754 148.536C24.7428 148.403 24.7165 148.271 24.6755 148.144C24.5458 147.72 24.2932 147.345 23.9497 147.065C23.6052 146.782 23.1827 146.611 22.7384 146.574C22.6063 146.561 22.4733 146.561 22.3412 146.574C22.2901 146.589 22.242 146.612 22.199 146.643Z" fill="#263238"/>
<path d="M25.6906 148.045C26.0365 148.122 26.3908 148.155 26.745 148.143C27.1004 148.161 27.4566 148.131 27.8042 148.055C27.8042 148.03 27.3138 148.055 26.745 148.055C26.1761 148.055 25.6955 148.016 25.6906 148.045Z" fill="#263238"/>
<path d="M24.2738 148.025C24.2738 148.025 24.313 148.128 24.3621 148.236C24.4111 148.344 24.4356 148.442 24.4602 148.437C24.4847 148.432 24.4994 148.325 24.4602 148.202C24.4209 148.079 24.2934 148.011 24.2738 148.025Z" fill="#263238"/>
<path d="M23.7436 147.364C23.7436 147.364 23.773 147.452 23.8465 147.53C23.9201 147.609 23.9986 147.653 24.0133 147.638C24.028 147.623 23.9839 147.545 23.9103 147.467C23.8367 147.388 23.7632 147.344 23.7436 147.364Z" fill="#263238"/>
<path d="M22.9835 147.055C22.9835 147.079 23.0816 147.079 23.1895 147.118C23.2974 147.158 23.3709 147.212 23.3905 147.197C23.4102 147.182 23.3464 147.079 23.2189 147.035C23.0914 146.991 22.9737 147.035 22.9835 147.055Z" fill="#263238"/>
<path d="M22.4401 146.912C22.4401 146.912 22.4695 146.971 22.5333 146.991C22.597 147.01 22.6461 147.015 22.6559 146.991C22.6657 146.966 22.6215 146.932 22.5627 146.907C22.5038 146.883 22.4499 146.888 22.4401 146.912Z" fill="#263238"/>
<path d="M12.4254 146.378L12.7 145.775L6.20224 142.509L5.0596 145.01L5.45683 145.221C7.22717 146.143 14.5243 149.786 15.9072 149.968C17.4471 150.169 12.4254 146.378 12.4254 146.378Z" fill="#0B9346"/>
<g opacity="0.5">
<path d="M7.4867 146.035C7.63841 145.436 7.56513 144.803 7.28074 144.255C7.00498 143.71 6.53385 143.29 5.96157 143.078L5.12297 144.917L7.4867 146.035Z" fill="white"/>
</g>
<g opacity="0.5">
<path d="M14.843 148.33C14.843 148.33 16.5496 149.801 16.1572 149.992C15.7649 150.184 8.25201 146.8 5.06932 145.01L5.14777 144.868L13.8622 148.913C13.8622 148.913 14.4457 148.173 14.843 148.33Z" fill="white"/>
</g>
<path d="M5.03523 144.809L5.14311 144.872L5.46188 145.039L6.63394 145.632C7.61474 146.123 9.00747 146.795 10.5571 147.491C12.1068 148.187 13.4995 148.796 14.5343 149.222L15.7504 149.713L16.0839 149.84C16.1226 149.859 16.1639 149.873 16.2065 149.879L16.0937 149.825L15.7652 149.683L14.5588 149.163C13.5387 148.727 12.1313 148.114 10.5915 147.413C9.05161 146.711 7.64907 146.059 6.66827 145.579L5.48639 145.01L5.16274 144.858L5.03523 144.809Z" fill="#263238"/>
<path d="M13.818 149.016C13.9619 148.834 14.1264 148.67 14.3084 148.526C14.5026 148.413 14.7081 148.321 14.9214 148.251C14.6836 148.236 14.4483 148.307 14.2594 148.452C14.048 148.58 13.8909 148.781 13.818 149.016Z" fill="#263238"/>
<path d="M12.3268 147.148C12.3268 147.148 12.4838 147.099 12.6456 146.991C12.8074 146.883 12.9349 146.78 12.9202 146.76C12.9055 146.741 12.7633 146.809 12.5965 146.917C12.4298 147.025 12.3121 147.128 12.3268 147.148Z" fill="#263238"/>
<path d="M11.9012 146.628C12.0055 146.637 12.1103 146.618 12.2052 146.574C12.3621 146.525 12.4847 146.466 12.4798 146.441C12.376 146.432 12.2714 146.449 12.1758 146.491C12.0385 146.544 11.9012 146.603 11.9012 146.628Z" fill="#263238"/>
<path d="M11.8662 145.853C11.9572 145.943 12.0681 146.01 12.1899 146.049C12.2993 146.115 12.4212 146.157 12.5479 146.172C12.4564 146.081 12.3458 146.013 12.2242 145.971C12.0378 145.883 11.876 145.829 11.8662 145.853Z" fill="#263238"/>
<path d="M11.9494 145.363C11.9494 145.363 12.0622 145.53 12.278 145.647C12.4034 145.729 12.5498 145.774 12.6997 145.775C12.5808 145.694 12.4543 145.625 12.3221 145.569C12.2036 145.49 12.0789 145.421 11.9494 145.363Z" fill="#263238"/>
<path d="M12.808 146.677C12.937 146.766 13.0818 146.829 13.2346 146.863C13.3945 146.914 13.5586 146.95 13.725 146.971C13.8261 146.982 13.928 146.982 14.0291 146.971C14.0913 146.964 14.1488 146.934 14.1909 146.888C14.2109 146.859 14.2217 146.825 14.2217 146.79C14.2217 146.755 14.2109 146.721 14.1909 146.692C14.0669 146.538 13.893 146.433 13.6994 146.395C13.5059 146.356 13.305 146.387 13.1316 146.481C13.0269 146.534 12.935 146.61 12.8619 146.702C12.8129 146.765 12.7982 146.81 12.8031 146.81C12.9047 146.699 13.024 146.606 13.1561 146.535C13.3016 146.468 13.4634 146.444 13.622 146.466C13.7173 146.476 13.8096 146.504 13.8938 146.549C13.978 146.595 14.0524 146.657 14.1124 146.731C14.1566 146.81 14.1124 146.878 13.9996 146.888C13.9051 146.898 13.8098 146.898 13.7152 146.888C13.5497 146.874 13.3857 146.846 13.2248 146.805C12.9747 146.736 12.8129 146.662 12.808 146.677Z" fill="#263238"/>
<path d="M12.9109 146.77C13.0024 146.706 13.067 146.61 13.0923 146.501C13.1263 146.383 13.1347 146.259 13.1168 146.138C13.1073 146.06 13.0792 145.985 13.0348 145.92C12.9904 145.855 12.9311 145.802 12.8618 145.765C12.7589 145.731 12.5136 145.942 12.4989 146.02C12.4842 146.098 12.6215 146.054 12.6264 146.123C12.6403 146.24 12.6684 146.356 12.7098 146.466C12.7427 146.573 12.7997 146.67 12.8765 146.751C12.8765 146.751 12.8275 146.633 12.7687 146.447C12.739 146.337 12.7193 146.226 12.7098 146.113C12.7098 146 12.7098 145.819 12.8373 145.848C12.9648 145.878 13.009 146.04 13.0384 146.152C13.0634 146.262 13.0634 146.376 13.0384 146.486C13.0037 146.584 12.961 146.679 12.9109 146.77Z" fill="#263238"/>
<path d="M5.98675 143.073C5.98675 143.073 6.18291 143.141 6.47715 143.313C6.84602 143.53 7.14528 143.848 7.33984 144.23C7.53441 144.611 7.61621 145.04 7.57564 145.466C7.55526 145.644 7.5258 145.821 7.48737 145.996C7.51516 145.955 7.53665 145.91 7.55113 145.863C7.59156 145.737 7.62108 145.607 7.6394 145.476C7.69834 145.035 7.6215 144.587 7.4191 144.191C7.2167 143.795 6.89837 143.47 6.50658 143.259C6.38901 143.196 6.2659 143.143 6.13878 143.102C6.08998 143.084 6.03867 143.074 5.98675 143.073Z" fill="#263238"/>
<path d="M8.58553 145.789C8.86936 146.001 9.17921 146.176 9.50748 146.309C9.81758 146.469 10.1473 146.588 10.4883 146.662C10.4883 146.638 10.0518 146.471 9.50748 146.231C8.96314 145.99 8.60024 145.755 8.58553 145.789Z" fill="#263238"/>
<path d="M7.30092 145.181C7.30092 145.181 7.30092 145.289 7.30092 145.407C7.30092 145.524 7.30092 145.627 7.30092 145.632C7.30092 145.637 7.38428 145.544 7.38428 145.407C7.38428 145.269 7.32544 145.176 7.30092 145.181Z" fill="#263238"/>
<path d="M7.08969 144.358C7.06517 144.358 7.08969 144.456 7.08969 144.554C7.08969 144.652 7.17794 144.73 7.19756 144.72C7.21717 144.711 7.19756 144.622 7.17304 144.524C7.14852 144.426 7.11421 144.348 7.08969 144.358Z" fill="#263238"/>
<path d="M6.50633 143.769C6.50633 143.794 6.58971 143.828 6.66817 143.906C6.74663 143.985 6.79567 144.068 6.82019 144.063C6.84471 144.058 6.82019 143.941 6.72702 143.843C6.63384 143.744 6.50633 143.744 6.50633 143.769Z" fill="#263238"/>
<path d="M6.0847 143.411C6.0847 143.411 6.08469 143.48 6.13373 143.524C6.18277 143.568 6.2318 143.597 6.24651 143.578C6.26122 143.558 6.24652 143.509 6.19748 143.465C6.14844 143.421 6.09941 143.396 6.0847 143.411Z" fill="#263238"/>
<path d="M29.4621 30.9575C29.4327 29.0694 29.4082 27.2059 29.4082 27.2059C29.4082 27.2059 32.4536 26.9068 32.6743 23.8075C32.8949 20.7081 32.7772 13.563 32.7772 13.563L27.2603 10.7236L21.3755 15.4805L21.6158 31.1438C21.6327 31.6647 21.7532 32.177 21.9703 32.6508C22.1874 33.1246 22.4968 33.5504 22.8803 33.9033C23.2638 34.2562 23.7137 34.5291 24.2039 34.7062C24.6941 34.8833 25.2146 34.9609 25.7351 34.9346C26.7506 34.8839 27.7068 34.4409 28.4021 33.6989C29.0973 32.957 29.4774 31.9741 29.4621 30.9575Z" fill="#A36957"/>
<path d="M32.1201 18.8545C32.1201 18.9573 32.0793 19.0558 32.0066 19.1285C31.934 19.2011 31.8354 19.2419 31.7327 19.2419C31.6299 19.2419 31.5314 19.2011 31.4587 19.1285C31.3861 19.0558 31.3453 18.9573 31.3453 18.8545C31.3446 18.8028 31.3543 18.7515 31.3738 18.7036C31.3933 18.6557 31.4222 18.6122 31.4587 18.5756C31.4953 18.5391 31.5388 18.5102 31.5867 18.4907C31.6346 18.4712 31.6859 18.4615 31.7376 18.4622C31.8399 18.4647 31.9372 18.5072 32.0087 18.5805C32.0802 18.6538 32.1201 18.7521 32.1201 18.8545Z" fill="#263238"/>
<path d="M32.4971 18.423C32.448 18.477 32.1636 18.222 31.7468 18.1974C31.3299 18.1729 31.0161 18.3691 30.9719 18.3151C30.9278 18.2612 31.0063 18.1925 31.1436 18.0994C31.3265 17.9747 31.5462 17.9155 31.7671 17.9315C31.9879 17.9476 32.1968 18.0378 32.3598 18.1876C32.4971 18.2857 32.4971 18.4034 32.4971 18.423Z" fill="#263238"/>
<path d="M27.6379 18.8546C27.635 18.9307 27.6097 19.0043 27.5652 19.0661C27.5207 19.128 27.4589 19.1753 27.3876 19.2022C27.3164 19.2292 27.2388 19.2345 27.1645 19.2175C27.0902 19.2005 27.0226 19.162 26.97 19.1068C26.9175 19.0516 26.8825 18.9822 26.8692 18.9071C26.856 18.8321 26.8652 18.7548 26.8956 18.685C26.9261 18.6151 26.9765 18.5558 27.0404 18.5145C27.1044 18.4731 27.1792 18.4515 27.2554 18.4524C27.3071 18.453 27.3582 18.464 27.4056 18.4847C27.453 18.5054 27.4958 18.5353 27.5315 18.5728C27.5671 18.6103 27.5949 18.6545 27.6132 18.7029C27.6315 18.7513 27.6399 18.8029 27.6379 18.8546Z" fill="#263238"/>
<path d="M27.8832 18.423C27.8342 18.477 27.5497 18.222 27.1329 18.1974C26.716 18.1729 26.4022 18.3691 26.3629 18.3151C26.3237 18.2612 26.3924 18.1925 26.5297 18.0994C26.7126 17.9747 26.9324 17.9155 27.1532 17.9315C27.374 17.9476 27.5829 18.0378 27.7459 18.1876C27.8685 18.2857 27.9077 18.4034 27.8832 18.423Z" fill="#263238"/>
<path d="M29.349 21.915C29.5704 21.8512 29.8002 21.8215 30.0306 21.8267C30.1336 21.8267 30.2366 21.8267 30.2562 21.7336C30.2709 21.6163 30.2522 21.4974 30.2022 21.3903C30.114 21.1059 30.0208 20.8116 29.9276 20.5027C29.6671 19.7475 29.4638 18.9737 29.3195 18.188C29.6347 18.9214 29.8953 19.677 30.0993 20.4487C30.1875 20.7577 30.2758 21.0568 30.3592 21.3412C30.4205 21.4819 30.4326 21.6391 30.3935 21.7875C30.3781 21.8263 30.3535 21.8608 30.322 21.8882C30.2904 21.9155 30.2527 21.9348 30.2121 21.9444C30.1518 21.9512 30.0909 21.9512 30.0306 21.9444C29.8031 21.9643 29.5739 21.9544 29.349 21.915Z" fill="#263238"/>
<path d="M16.7601 18.3153C16.7944 18.0946 16.7307 18.5556 16.7601 18.2123C16.8039 17.7905 16.871 17.3714 16.9612 16.9569C18.6776 10.5131 24.224 9.36556 25.298 9.37537C26.4749 9.37537 29.8342 9.292 31.7026 11.6312C32.4227 12.4651 32.9051 13.4775 33.0993 14.5621C33.2934 15.6467 33.1921 16.7635 32.806 17.7955L27.902 16.9324C28.2649 15.7113 27.7647 14.1911 27.4802 13.4996V13.4702C26.5485 18.0996 21.5562 19.1392 21.5562 19.1392L21.5023 25.9263C17.8635 25.4016 16.6915 21.0223 16.7748 18.3546L16.7601 18.3153Z" fill="#263238"/>
<path d="M21.6061 21.9199C21.6355 21.454 21.8513 20.3408 21.6943 19.9043C21.5374 19.4679 21.0519 19.3649 20.5174 19.3698C20.2134 19.3807 19.9248 19.506 19.7093 19.7206C19.4938 19.9352 19.3673 20.2232 19.3551 20.5271C19.3421 20.7907 19.3949 21.0533 19.5088 21.2913C19.6227 21.5293 19.794 21.7352 20.0074 21.8904C20.2425 22.0208 20.5042 22.096 20.7726 22.1104C21.0411 22.1249 21.3093 22.0782 21.557 21.9738" fill="#A36957"/>
<path d="M21.0268 21.3115C21.0268 21.2772 20.8748 21.3409 20.6786 21.2772C20.5575 21.2306 20.4537 21.1475 20.3817 21.0395C20.3097 20.9315 20.2729 20.8038 20.2765 20.674C20.2689 20.6075 20.2749 20.5401 20.2943 20.476C20.3137 20.4119 20.346 20.3524 20.3893 20.3013C20.4768 20.237 20.5857 20.2089 20.6933 20.2228C20.9042 20.2473 21.0464 20.3062 21.0611 20.2719C21.0758 20.2375 20.9729 20.1346 20.7228 20.061C20.641 20.0339 20.554 20.0265 20.4688 20.0393C20.3836 20.0521 20.3026 20.0847 20.2324 20.1346C20.1572 20.2034 20.0994 20.2891 20.0636 20.3845C20.0278 20.48 20.0151 20.5825 20.0264 20.6838C20.0301 20.8845 20.1048 21.0774 20.2373 21.2281C20.3401 21.3523 20.4849 21.4343 20.6443 21.4586C20.9189 21.4733 21.0464 21.3262 21.0268 21.3115Z" fill="#8E4B39"/>
<path d="M28.123 17.2021C28.123 17.2658 27.6326 17.2021 27.1422 17.3247C26.6518 17.4473 26.2203 17.7023 26.1614 17.6483C26.1026 17.5944 26.4704 17.2315 27.0687 17.0942C27.2417 17.0342 27.4257 17.0128 27.6078 17.0314C27.7899 17.0501 27.9658 17.1083 28.123 17.2021Z" fill="#263238"/>
<path d="M29.7417 27.1376C29.5103 27.2336 29.2615 27.2804 29.011 27.2749C28.4101 27.3115 27.8075 27.2418 27.2309 27.069C26.65 26.9018 26.1138 26.6069 25.6616 26.2059C25.4606 26.0527 25.3006 25.8522 25.1957 25.6223C25.2251 25.5978 25.4115 25.8087 25.7646 26.0735C26.2264 26.4193 26.7462 26.68 27.2995 26.8434C28.1003 27.0309 28.9193 27.1296 29.7417 27.1376Z" fill="#8E4B39"/>
<path d="M17.6824 15.8339C17.7575 15.4202 17.6768 14.9934 17.4558 14.6358C17.2349 14.2781 16.8893 14.0149 16.4858 13.8968C16.0753 13.7984 15.6483 13.7913 15.2348 13.8761C14.8213 13.9608 14.4314 14.1353 14.0927 14.3872C13.6127 14.6978 13.2041 15.1067 12.8939 15.5868C12.5836 16.067 12.3788 16.6075 12.2929 17.1727C12.2143 17.7401 12.2836 18.3181 12.4941 18.8508C12.7046 19.3835 13.0492 19.8528 13.4944 20.2132C13.9491 20.5613 14.4977 20.7652 15.0694 20.7984C15.6411 20.8316 16.2097 20.6927 16.7016 20.3995C17.0949 20.1114 17.424 19.7446 17.668 19.3225C17.912 18.9004 18.0655 18.4322 18.1189 17.9475C18.2209 16.9848 18.1879 16.0126 18.0208 15.0591" fill="#263238"/>
<path d="M16.6756 21.4623C16.7506 21.0487 16.6699 20.6219 16.449 20.2642C16.228 19.9065 15.8825 19.6433 15.479 19.5252C15.0685 19.4268 14.6415 19.4198 14.2279 19.5045C13.8144 19.5892 13.4245 19.7637 13.0858 20.0156C12.6059 20.3262 12.1973 20.7351 11.887 21.2152C11.5768 21.6954 11.372 22.2359 11.2861 22.8011C11.2075 23.3685 11.2768 23.9465 11.4873 24.4792C11.6978 25.0119 12.0424 25.4812 12.4876 25.8416C12.9423 26.1897 13.4909 26.3936 14.0626 26.4268C14.6343 26.46 15.2028 26.3211 15.6948 26.0279C16.0881 25.7398 16.4172 25.373 16.6612 24.9509C16.9052 24.5288 17.0587 24.0606 17.112 23.5759C17.2141 22.6133 17.1811 21.641 17.0139 20.6875" fill="#263238"/>
<path d="M15.6697 27.0907C15.7448 26.6771 15.6641 26.2503 15.4431 25.8926C15.2222 25.5349 14.8766 25.2717 14.4731 25.1537C14.0626 25.0553 13.6356 25.0482 13.2221 25.1329C12.8086 25.2177 12.4187 25.3921 12.08 25.6441C11.6 25.9546 11.1914 26.3635 10.8812 26.8437C10.5709 27.3238 10.3661 27.8643 10.2802 28.4295C10.2016 28.9969 10.271 29.5749 10.4815 30.1076C10.692 30.6403 11.0365 31.1096 11.4817 31.47C11.9364 31.8182 12.485 32.022 13.0567 32.0552C13.6284 32.0884 14.197 31.9495 14.6889 31.6563C15.0822 31.3682 15.4114 31.0015 15.6553 30.5793C15.8993 30.1572 16.0528 29.689 16.1062 29.2044C16.2082 28.2417 16.1752 27.2694 16.0081 26.3159" fill="#263238"/>
<path d="M14.6643 32.7189C14.7394 32.3053 14.6587 31.8785 14.4378 31.5208C14.2168 31.1631 13.8713 30.8999 13.4678 30.7818C13.0573 30.6834 12.6302 30.6764 12.2167 30.7611C11.8032 30.8458 11.4133 31.0203 11.0746 31.2722C10.5947 31.5828 10.1861 31.9917 9.87582 32.4718C9.56557 32.952 9.36074 33.4925 9.27485 34.0577C9.19627 34.6251 9.26558 35.2031 9.47608 35.7358C9.68658 36.2685 10.0311 36.7378 10.4763 37.0982C10.931 37.4463 11.4796 37.6502 12.0513 37.6834C12.623 37.7166 13.1916 37.5777 13.6835 37.2845C14.0769 36.9964 14.406 36.6296 14.65 36.2075C14.8939 35.7854 15.0475 35.3172 15.1008 34.8325C15.2029 33.8698 15.1699 32.8976 15.0027 31.9441" fill="#263238"/>
<path d="M13.6575 38.3473C13.7326 37.9337 13.6519 37.5069 13.4309 37.1492C13.21 36.7915 12.8644 36.5283 12.4609 36.4103C12.0504 36.3119 11.6234 36.3048 11.2099 36.3895C10.7964 36.4742 10.4065 36.6487 10.0678 36.9007C9.58782 37.2112 9.17923 37.6201 8.86898 38.1003C8.55874 38.5804 8.3539 39.1209 8.26801 39.6861C8.18943 40.2535 8.25874 40.8315 8.46924 41.3642C8.67975 41.8969 9.0243 42.3662 9.4695 42.7266C9.92418 43.0747 10.4728 43.2786 11.0445 43.3118C11.6162 43.345 12.1847 43.2061 12.6767 42.9129C13.07 42.6248 13.3991 42.2581 13.6431 41.8359C13.8871 41.4138 14.0406 40.9456 14.094 40.4609C14.196 39.4983 14.163 38.526 13.9959 37.5725" fill="#263238"/>
<path d="M29.1873 23.5921C29.2484 23.5291 29.2952 23.4538 29.3247 23.3712C29.3542 23.2886 29.3656 23.2006 29.3581 23.1132C29.3507 23.0258 29.3246 22.9411 29.2816 22.8646C29.2386 22.7882 29.1797 22.7219 29.1088 22.6701C28.9545 22.5755 28.7719 22.538 28.5927 22.5639C28.4136 22.5899 28.2492 22.6778 28.128 22.8123C28.0666 22.8704 28.0212 22.9434 27.9963 23.0241C27.9714 23.1049 27.9678 23.1907 27.9858 23.2733C28.0331 23.374 28.1079 23.4592 28.2017 23.5191C28.2954 23.579 28.4042 23.6111 28.5154 23.6117C28.7765 23.651 29.0427 23.641 29.3001 23.5823" fill="#8E4B39"/>
<path d="M27.902 22.4248C27.8432 22.4542 28.0982 22.9152 28.6867 23.1898C28.8514 23.2852 29.0364 23.3402 29.2264 23.3505C29.4165 23.3607 29.6063 23.3258 29.7803 23.2486C29.7803 23.1751 29.2899 23.1849 28.7995 22.9544C28.3091 22.7239 27.9609 22.3806 27.902 22.4248Z" fill="#263238"/>
<path d="M29.2265 74.0884C29.2265 74.0884 13.2149 65.3937 10.7924 57.0912C10.2676 55.2915 9.81157 47.2146 9.81157 47.2146L18.0748 47.4353C18.0748 47.4353 18.6044 55.4043 19.2419 56.3949C22.763 61.8775 29.7414 66.6589 31.909 68.0565C32.2817 68.081 32.7181 68.1007 33.233 68.0958C33.6744 68.0958 34.2433 68.0026 34.7042 68.0075C35.685 68.0075 36.1019 68.3263 36.5089 68.3557C37.4897 68.4145 37.4259 69.209 36.9405 69.2286C36.0073 69.0859 35.055 69.1326 34.1403 69.3659C32.5661 69.7778 34.5473 71.1264 35.2878 71.6904C36.1117 72.3181 37.8379 73.3479 37.8379 73.3479C37.5191 73.652 36.5138 73.804 35.6801 73.3872C35.2258 73.1606 34.7838 72.9102 34.3561 72.6368C34.3561 72.6368 35.587 73.8727 35.3074 74.1522C35.0279 74.4317 32.365 75.7852 30.5555 74.8633L29.2265 74.0884Z" fill="#A36957"/>
<path d="M105.874 101.543V73.0283H61.0029V149.504L105.133 149.389V149.504H122.725V101.543H105.874Z" fill="#455A64"/>
<path d="M175.781 67.8892H52.0317V72.9538H175.781V67.8892Z" fill="#455A64"/>
<path d="M167.516 72.9539L61.0991 81.8917V72.9539H167.516Z" fill="#263238"/>
<path d="M88.3515 67.7645L87.7334 58.1338L84.1243 59.0759L81.7715 67.7645H88.3515Z" fill="#263238"/>
<path d="M106.077 61.9473L65.4209 62.032L66.6771 36.9383L106.865 36.0659L106.077 61.9473Z" fill="#263238"/>
<path d="M88.5758 48.8223H83.3467V49.7295H88.5758V48.8223Z" fill="#EBEBEB"/>
<path d="M87.9783 61.9871L83.3474 61.9473L83.0732 62.9492L88.098 63.8216L87.9783 61.9871Z" fill="#455A64"/>
</svg>
