<svg width="20" height="20" viewBox="0 0 20 20" fill="none" xmlns="http://www.w3.org/2000/svg">
<path d="M10.2008 3.2793C13.7308 3.2793 16.6308 5.8893 17.1208 9.2793H19.2008L15.7008 13.2793L12.2008 9.2793H14.5208C14.2969 8.30049 13.7479 7.42647 12.9633 6.79988C12.1787 6.1733 11.2049 5.83116 10.2008 5.8293C8.75078 5.8293 7.47078 6.5393 6.66078 7.6093L4.95078 5.6593C5.6055 4.91111 6.41271 4.31164 7.31822 3.90115C8.22373 3.49065 9.20657 3.27862 10.2008 3.2793ZM9.80078 16.7193C6.28078 16.7193 3.37078 14.1093 2.88078 10.7193H0.800781L4.30078 6.7193C5.47078 8.0493 6.63078 9.3893 7.80078 10.7193H5.48078C5.70466 11.6981 6.25371 12.5721 7.0383 13.1987C7.82289 13.8253 8.7967 14.1674 9.80078 14.1693C11.2508 14.1693 12.5308 13.4593 13.3408 12.3893L15.0508 14.3393C14.3969 15.0885 13.5899 15.6887 12.6842 16.0992C11.7785 16.5098 10.7952 16.7213 9.80078 16.7193Z" fill="#404040"/>
</svg>
