<svg width="24" height="24" viewBox="0 0 24 24" fill="none" xmlns="http://www.w3.org/2000/svg">
<path d="M4.616 19C4.15533 19 3.771 18.846 3.463 18.538C3.155 18.23 3.00067 17.8453 3 17.384V6.61601C3 6.15534 3.15433 5.77101 3.463 5.46301C3.77167 5.15501 4.15567 5.00067 4.615 5.00001H8.231C8.373 5.00001 8.492 5.04767 8.588 5.14301C8.684 5.23834 8.73167 5.35734 8.731 5.50001C8.73033 5.64267 8.68267 5.76167 8.588 5.85701C8.49333 5.95234 8.374 6.00001 8.23 6.00001H4.616C4.462 6.00001 4.32067 6.06401 4.192 6.19201C4.06333 6.32001 3.99933 6.46134 4 6.61601V17.385C4 17.5383 4.064 17.6793 4.192 17.808C4.32 17.9367 4.461 18.0007 4.615 18H19.385C19.5383 18 19.6793 17.936 19.808 17.808C19.9367 17.68 20.0007 17.539 20 17.385V6.61501C20 6.46167 19.936 6.32067 19.808 6.19201C19.68 6.06334 19.539 5.99934 19.385 6.00001H15.769C15.627 6.00001 15.508 5.95234 15.412 5.85701C15.316 5.76167 15.2687 5.64267 15.27 5.50001C15.2713 5.35734 15.319 5.23834 15.413 5.14301C15.507 5.04767 15.626 5.00001 15.77 5.00001H19.386C19.846 5.00001 20.23 5.15434 20.538 5.46301C20.846 5.77167 21 6.15601 21 6.61601V17.385C21 17.845 20.8457 18.2293 20.537 18.538C20.2283 18.8467 19.8443 19.0007 19.385 19H4.616ZM11.5 12.985V5.50001C11.5 5.35801 11.5477 5.23901 11.643 5.14301C11.7383 5.04701 11.8573 4.99934 12 5.00001C12.1427 5.00067 12.2617 5.04834 12.357 5.14301C12.4523 5.23767 12.5 5.35667 12.5 5.50001V12.985L15.246 10.239C15.3393 10.145 15.454 10.095 15.59 10.089C15.726 10.083 15.8473 10.133 15.954 10.239C16.0607 10.345 16.114 10.4627 16.114 10.592C16.114 10.7213 16.0607 10.8393 15.954 10.946L12.565 14.335C12.4037 14.4963 12.2153 14.577 12 14.577C11.7847 14.577 11.5963 14.4963 11.435 14.335L8.046 10.946C7.95267 10.8527 7.90267 10.738 7.896 10.602C7.88933 10.466 7.93933 10.345 8.046 10.239C8.15267 10.133 8.27067 10.0797 8.4 10.079C8.52933 10.0783 8.64733 10.1317 8.754 10.239L11.5 12.985Z" fill="black"/>
</svg>
