<svg width="20" height="14" viewBox="0 0 20 14" fill="none" xmlns="http://www.w3.org/2000/svg">
<path d="M10.2008 0.279298C13.7308 0.279298 16.6308 2.8893 17.1208 6.2793H19.2008L15.7008 10.2793L12.2008 6.2793H14.5208C14.2969 5.30049 13.7479 4.42647 12.9633 3.79988C12.1787 3.1733 11.2049 2.83116 10.2008 2.8293C8.75078 2.8293 7.47078 3.5393 6.66078 4.6093L4.95078 2.6593C5.6055 1.91111 6.41271 1.31164 7.31822 0.901147C8.22373 0.490651 9.20657 0.278623 10.2008 0.279298ZM9.80078 13.7193C6.28078 13.7193 3.37078 11.1093 2.88078 7.7193H0.800781L4.30078 3.7193C5.47078 5.0493 6.63078 6.3893 7.80078 7.7193H5.48078C5.70466 8.69811 6.25371 9.57213 7.0383 10.1987C7.82289 10.8253 8.7967 11.1674 9.80078 11.1693C11.2508 11.1693 12.5308 10.4593 13.3408 9.3893L15.0508 11.3393C14.3969 12.0885 13.5899 12.6887 12.6842 13.0992C11.7785 13.5098 10.7952 13.7213 9.80078 13.7193Z" fill="#F7FAF8"/>
</svg>
