<svg width="80" height="80" viewBox="0 0 80 80" fill="none" xmlns="http://www.w3.org/2000/svg">
<g clip-path="url(#clip0_9825_782)">
<path d="M57.3438 44.4922C55.9896 45.612 54.8307 46.862 53.8672 48.2422C51.7057 47.1484 49.4531 46.3411 47.1094 45.8203C44.7656 45.2995 42.3698 45.026 39.9219 45C37.1094 45 34.4271 45.3516 31.875 46.0547C29.3229 46.7578 26.9271 47.7474 24.6875 49.0234C22.4479 50.2995 20.4427 51.849 18.6719 53.6719C16.901 55.4948 15.3516 57.513 14.0234 59.7266C12.6953 61.9401 11.7057 64.349 11.0547 66.9531C10.4036 69.5573 10.0521 72.2396 10 75H5C5 71.1979 5.5599 67.5391 6.67969 64.0234C7.79948 60.5078 9.41406 57.2917 11.5234 54.375C13.6328 51.4583 16.1458 48.9062 19.0625 46.7188C21.9792 44.5312 25.2865 42.8516 28.9844 41.6797C27.5781 40.7422 26.3281 39.6615 25.2344 38.4375C24.1406 37.2135 23.2031 35.8854 22.4219 34.4531C21.6406 33.0208 21.0417 31.5104 20.625 29.9219C20.2083 28.3333 20 26.6927 20 25C20 22.2396 20.5208 19.6484 21.5625 17.2266C22.6042 14.8047 24.0365 12.6953 25.8594 10.8984C27.6823 9.10156 29.8047 7.66927 32.2266 6.60156C34.6484 5.53385 37.2396 5 40 5C42.7604 5 45.3516 5.52083 47.7734 6.5625C50.1953 7.60417 52.3047 9.03646 54.1016 10.8594C55.8984 12.6823 57.3307 14.8047 58.3984 17.2266C59.4661 19.6484 60 22.2396 60 25C60 26.6927 59.7917 28.3333 59.375 29.9219C58.9583 31.5104 58.3724 33.0339 57.6172 34.4922C56.862 35.9505 55.9115 37.2786 54.7656 38.4766C53.6198 39.6745 52.3568 40.7552 50.9766 41.7188C52.0964 42.0833 53.1771 42.487 54.2188 42.9297C55.2604 43.3724 56.3021 43.8932 57.3438 44.4922ZM25 25C25 27.0833 25.3906 29.0234 26.1719 30.8203C26.9531 32.6172 28.0208 34.2057 29.375 35.5859C30.7292 36.9661 32.3177 38.0469 34.1406 38.8281C35.9635 39.6094 37.9167 40 40 40C42.0573 40 43.9974 39.6094 45.8203 38.8281C47.6432 38.0469 49.2318 36.9792 50.5859 35.625C51.9401 34.2708 53.0208 32.6823 53.8281 30.8594C54.6354 29.0365 55.026 27.0833 55 25C55 22.9427 54.6094 21.0026 53.8281 19.1797C53.0469 17.3568 51.9792 15.7682 50.625 14.4141C49.2708 13.0599 47.6693 11.9792 45.8203 11.1719C43.9714 10.3646 42.0312 9.97396 40 10C37.9167 10 35.9766 10.3906 34.1797 11.1719C32.3828 11.9531 30.7943 13.0208 29.4141 14.375C28.0339 15.7292 26.9531 17.3307 26.1719 19.1797C25.3906 21.0286 25 22.9688 25 25ZM67.5781 44.9609C69.2969 44.9609 70.9245 45.2865 72.4609 45.9375C73.9974 46.5885 75.3255 47.487 76.4453 48.6328C77.5651 49.7786 78.4635 51.1068 79.1406 52.6172C79.8177 54.1276 80.1562 55.7552 80.1562 57.5C80.1562 59.2188 79.8307 60.8333 79.1797 62.3438C78.5286 63.8542 77.6302 65.1823 76.4844 66.3281C75.3385 67.474 73.9974 68.3724 72.4609 69.0234C70.9245 69.6745 69.2969 70.013 67.5781 70.0391C65.0521 70.0391 62.7474 69.3359 60.6641 67.9297L49.2578 79.3359C48.763 79.8307 48.1771 80.0781 47.5 80.0781C46.8229 80.0781 46.237 79.8307 45.7422 79.3359C45.2474 78.8411 45 78.2552 45 77.5781C45 76.901 45.2474 76.3151 45.7422 75.8203L57.1484 64.4141C55.7422 62.3307 55.0391 60.026 55.0391 57.5C55.0391 55.7812 55.3646 54.1667 56.0156 52.6562C56.6667 51.1458 57.5651 49.8177 58.7109 48.6719C59.8568 47.526 61.1849 46.6276 62.6953 45.9766C64.2057 45.3255 65.8333 44.987 67.5781 44.9609ZM67.5781 65.0391C68.6198 65.0391 69.5964 64.8438 70.5078 64.4531C71.4193 64.0625 72.2135 63.5286 72.8906 62.8516C73.5677 62.1745 74.1146 61.3672 74.5312 60.4297C74.9479 59.4922 75.1562 58.5156 75.1562 57.5C75.1562 56.4583 74.9609 55.4818 74.5703 54.5703C74.1797 53.6589 73.6328 52.8646 72.9297 52.1875C72.2266 51.5104 71.4323 50.9635 70.5469 50.5469C69.6615 50.1302 68.6719 49.9349 67.5781 49.9609C66.5365 49.9609 65.5599 50.1562 64.6484 50.5469C63.737 50.9375 62.9427 51.4844 62.2656 52.1875C61.5885 52.8906 61.0417 53.6849 60.625 54.5703C60.2083 55.4557 60.013 56.4323 60.0391 57.5C60.0391 58.5417 60.2344 59.5182 60.625 60.4297C61.0156 61.3411 61.5495 62.1354 62.2266 62.8125C62.9036 63.4896 63.7109 64.0365 64.6484 64.4531C65.5859 64.8698 66.5625 65.0651 67.5781 65.0391Z" fill="#0B622F" fill-opacity="0.08"/>
</g>
<defs>
<clipPath id="clip0_9825_782">
<rect width="80" height="80" fill="white"/>
</clipPath>
</defs>
</svg>
